<?xml version="1.0" encoding="utf-8"?><svg viewBox="0 0 64 64" xmlns="http://www.w3.org/2000/svg" xmlns:xlink="http://www.w3.org/1999/xlink"><style>:root>svg{display:none}:root>svg:target{display:block}</style><svg fill="none" viewBox="0 0 34 34" id="close" xmlns="http://www.w3.org/2000/svg"><path d="M25.5 25.5L17 17m0 0L8.5 8.5M17 17l8.5-8.5M17 17l-8.5 8.5" stroke="#fff" stroke-width="2" stroke-linecap="round" stroke-linejoin="round"/></svg><svg fill="none" viewBox="0 0 64 64" id="icon-1" xmlns="http://www.w3.org/2000/svg"><path d="M18 12a2 2 0 012-2h6a2 2 0 012 2v2H18v-2z" fill="#F55B54"/><path fill-rule="evenodd" clip-rule="evenodd" d="M30 14a2 2 0 01-2 2H18a2 2 0 01-2-2v-2a4 4 0 014-4h6a4 4 0 014 4v2zm-10-4a2 2 0 00-2 2v2h10v-2a2 2 0 00-2-2h-6z" fill="#A83C37"/><path fill-rule="evenodd" clip-rule="evenodd" d="M20 10a2 2 0 00-2 2v2h1v-1a2 2 0 012-2h6c.294 0 .572.063.823.177A2 2 0 0026 10h-6z" fill="#FF8B86"/><path d="M16 52h32c5.523 0 10-4.477 10-10v-9H6v9c0 5.523 4.477 10 10 10z" fill="#686666"/><path fill-rule="evenodd" clip-rule="evenodd" d="M9.447 49.553A9.962 9.962 0 017 43v-9h51v-1H6v9a9.977 9.977 0 003.447 7.553z" fill="#999494"/><path d="M48 14H16c-5.523 0-10 4.477-10 10v9h52v-9c0-5.523-4.477-10-10-10z" fill="#F3DFB7"/><path fill-rule="evenodd" clip-rule="evenodd" d="M16 14h32a9.977 9.977 0 017.553 3.447A9.962 9.962 0 0049 15H17c-5.523 0-10 4.477-10 10v8H6v-9c0-5.523 4.477-10 10-10z" fill="#FFF3DC"/><path d="M48 54H16C9.373 54 4 48.627 4 42v-9h2v9c0 5.523 4.477 10 10 10h32c5.523 0 10-4.477 10-10v-9h2v9c0 6.627-5.373 12-12 12z" fill="#433D3D"/><path d="M16 12h32c6.627 0 12 5.373 12 12v9h-2v-9c0-5.523-4.477-10-10-10H16c-5.523 0-10 4.477-10 10v9H4v-9c0-6.627 5.373-12 12-12z" fill="#826E47"/><path d="M4 31h56v2H4v-2zM42 47a2 2 0 01-2-2v-6a2 2 0 114 0v6a2 2 0 01-2 2z" fill="#433D3D"/><path d="M42 44a1 1 0 01-1-1v-2a1 1 0 112 0v2a1 1 0 01-1 1z" fill="#686666"/><path d="M42 42a1 1 0 110-2 1 1 0 010 2z" fill="#999494"/><path d="M47 47a2 2 0 01-2-2v-6a2 2 0 114 0v6a2 2 0 01-2 2z" fill="#433D3D"/><path d="M47 44a1 1 0 01-1-1v-2a1 1 0 112 0v2a1 1 0 01-1 1z" fill="#686666"/><path d="M47 44a1 1 0 110-2 1 1 0 010 2z" fill="#999494"/><path d="M52 47a2 2 0 01-2-2v-6a2 2 0 114 0v6a2 2 0 01-2 2z" fill="#433D3D"/><path d="M52 44a1 1 0 01-1-1v-2a1 1 0 112 0v2a1 1 0 01-1 1z" fill="#686666"/><path d="M52 42a1 1 0 110-2 1 1 0 010 2z" fill="#999494"/><path d="M14 20a2 2 0 11-4 0 2 2 0 014 0z" fill="#fff"/><path d="M36 33c0 6.075-4.925 11-11 11s-11-4.925-11-11 4.925-11 11-11 11 4.925 11 11z" fill="#686666"/><path fill-rule="evenodd" clip-rule="evenodd" d="M38 33c0 7.18-5.82 13-13 13s-13-5.82-13-13 5.82-13 13-13 13 5.82 13 13zM25 44c6.075 0 11-4.925 11-11s-4.925-11-11-11-11 4.925-11 11 4.925 11 11 11z" fill="#433D3D"/><path fill-rule="evenodd" clip-rule="evenodd" d="M33.262 25.738A10.958 10.958 0 0026 23c-6.075 0-11 4.925-11 11 0 2.783 1.034 5.325 2.738 7.262A10.974 10.974 0 0114 33c0-6.075 4.925-11 11-11 3.292 0 6.246 1.446 8.262 3.738z" fill="#999494"/><path d="M31 33a6 6 0 11-12 0 6 6 0 0112 0z" fill="#2C5D78"/><path fill-rule="evenodd" clip-rule="evenodd" d="M33 33a8 8 0 11-16 0 8 8 0 0116 0zm-8 6a6 6 0 100-12 6 6 0 000 12z" fill="#123F57"/><path fill-rule="evenodd" clip-rule="evenodd" d="M29.713 29.287a6 6 0 00-8.427 8.427 6 6 0 118.427-8.427z" fill="#297097"/><path d="M24 31a1 1 0 11-2 0 1 1 0 012 0z" fill="#4BADD8"/><path d="M40 22a2 2 0 012-2h8a2 2 0 012 2v2a2 2 0 01-2 2h-8a2 2 0 01-2-2v-2z" fill="#F3DFB7"/><path fill-rule="evenodd" clip-rule="evenodd" d="M42 18h8a4 4 0 014 4v2a4 4 0 01-4 4h-8a4 4 0 01-4-4v-2a4 4 0 014-4zm0 2a2 2 0 00-2 2v2a2 2 0 002 2h8a2 2 0 002-2v-2a2 2 0 00-2-2h-8z" fill="#FFF3DC"/><path d="M52 24v-2a2 2 0 00-2-2v6a2 2 0 002-2z" fill="#B331E0"/><path d="M40 22v2a2 2 0 002 2v-6a2 2 0 00-2 2z" fill="#E03131"/><path d="M42 20v6h2v-6h-2z" fill="#E08531"/><path d="M44 20v6h2v-6h-2z" fill="#E0CF31"/><path d="M46 20v6h2v-6h-2z" fill="#34E031"/><path d="M48 20v6h2v-6h-2z" fill="#31ABE0"/><path d="M43 22a1 1 0 11-2 0 1 1 0 012 0z" fill="#fff"/></svg><svg fill="none" viewBox="0 0 50 22" id="menu" xmlns="http://www.w3.org/2000/svg"><path fill="#D9D9D9" d="M0 0h50v2H0zM0 10h50v2H0zM0 20h50v2H0z"/></svg></svg>