<svg width="192" height="161" fill="none" xmlns="http://www.w3.org/2000/svg"><g clip-path="url(#a)"><path d="M62.893 71.47c0-1.494.544-12.869 13.612-15.417a24.437 24.437 0 0 1 24.144 8.56s18.884-6.58 30.724 6.8c10.6 11.977 5.491 23.931 5.491 23.931s13.601 12.742 1.761 29.399c-11.84 16.657-28.963 7.02-28.963 7.02s-.66 17.12-22.834 15.8c-22.174-1.321-19.961-20.19-19.961-20.19-20.413 1.98-31.176-13.171-25.905-23.26 5.272-10.09 17.772-8.769 17.772-8.769s-13.172-6.811-9.268-16.217c2.873-6.904 9.824-7.726 13.427-7.657Z" fill="#C4BAB7"/><path d="M70.874 98.541a5.524 5.524 0 0 0-.521.996l-.197.464-.15.521a8.21 8.21 0 0 0-.244 1.054c-.081.359-.093.73-.14 1.077a8.466 8.466 0 0 0 0 1.078c0 .356.024.712.07 1.065.048.343.114.683.197 1.02.081.324.232.625.325.938.092.313.313.556.463.845.15.29.394.464.614.672.22.209.475.383.742.522.266.139.556.254.857.347l.962.185h1.03c.353.017.707-.006 1.055-.069l1.066-.151h.08a1.158 1.158 0 0 1 1.275.985.987.987 0 0 1 0 .266c0 .441-.07.973-.07 1.471v1.495c0 .498.116.973.21 1.448 0 .243.126.463.184.695.058.226.136.447.232.66.08.211.18.412.301.602.1.196.225.379.371.545.129.167.277.318.44.452.16.141.33.268.51.382l.59.289c.21.058.441.093.661.139.23.065.47.088.707.07h.846a.614.614 0 0 1 .59.625.603.603 0 0 1-.52.58l-.87.127a2.91 2.91 0 0 1-.903 0c-.302 0-.614 0-.916-.104l-.915-.29a7.036 7.036 0 0 1-.846-.486 3.705 3.705 0 0 1-.718-.626 3.587 3.587 0 0 1-.602-.741 4.062 4.062 0 0 1-.475-.8 5.797 5.797 0 0 1-.37-.822c-.094-.29-.21-.568-.29-.846-.16-.562-.28-1.135-.36-1.714a21.825 21.825 0 0 1-.139-1.714 14.69 14.69 0 0 1 0-1.738l1.367 1.24-1.262.185a5.945 5.945 0 0 1-1.298.104h-1.32l-1.356-.289c-.44-.139-.869-.371-1.31-.556a9.358 9.358 0 0 1-1.158-.846c-.33-.369-.638-.756-.927-1.158-.231-.405-.44-.823-.625-1.251a8.699 8.699 0 0 1-.37-1.298c-.073-.433-.123-.87-.151-1.309a12.094 12.094 0 0 1 0-1.297c.027-.423.077-.845.15-1.263a9.18 9.18 0 0 1 .29-1.239c.125-.394.272-.781.44-1.158l.255-.591.347-.591c.215-.35.468-.677.753-.973a.614.614 0 0 1 .858-.104.625.625 0 0 1 .15.776l.035.104Zm40.051 18.94a13.284 13.284 0 0 0 3.973 1.969c.359.069.695.185 1.055.22.34.059.685.09 1.031.093.337.002.675-.025 1.007-.082.327-.061.645-.158.95-.289.309-.107.601-.255.869-.44l.209-.128h-.058l.116-.092.463-.371c.29-.255.661-.498.881-.741l.625-.742c.2-.263.379-.542.533-.834.163-.28.292-.58.382-.892.094-.298.16-.604.197-.915v-.799a1 1 0 0 1 .417-1.344.962.962 0 0 1 .591-.104h.29c.415.052.833.079 1.251.081.428.035.858.035 1.286 0a6.564 6.564 0 0 0 2.317-.602 3.41 3.41 0 0 0 .857-.626c.24-.247.436-.533.58-.845 0-.151.15-.371.173-.452l.151-.695c.094-.412.156-.83.185-1.251.024-.413.024-.827 0-1.24-.046-.42-.116-.838-.208-1.251a11.028 11.028 0 0 0-.938-2.421c-.221-.382-.418-.776-.672-1.158-.255-.382-.522-.73-.8-1.089a12.277 12.277 0 0 0-.892-1.008c-.313-.324-.649-.66-.961-.938a.593.593 0 0 1-.187-.65.611.611 0 0 1 .117-.207.591.591 0 0 1 .799-.116c.405.277.791.58 1.159.904.382.318.746.659 1.089 1.019.336.36.672.73.985 1.158.319.39.613.801.88 1.228.535.879.959 1.821 1.263 2.803.146.503.262 1.013.347 1.529.063.527.09 1.057.082 1.587a8.017 8.017 0 0 1-.151 1.576l-.139.695c-.081.3-.181.594-.301.88a5.029 5.029 0 0 1-.997 1.506 5.172 5.172 0 0 1-1.401 1.066 8.723 8.723 0 0 1-3.128.915 11.51 11.51 0 0 1-1.553.069 10.792 10.792 0 0 1-1.575-.139l1.297-1.401c.098.515.118 1.042.058 1.563a7.766 7.766 0 0 1-.313 1.39 6.67 6.67 0 0 1-.567 1.275 9.273 9.273 0 0 1-.765 1.158l-.962 1.031a8.934 8.934 0 0 1-.938.764l-.475.36-.313.231-.301.162a6.19 6.19 0 0 1-1.274.556 5.905 5.905 0 0 1-1.344.302 9.026 9.026 0 0 1-1.356 0 9.492 9.492 0 0 1-2.56-.568 14.16 14.16 0 0 1-2.247-1.158 12.828 12.828 0 0 1-1.982-1.529.618.618 0 0 1-.065-.846.61.61 0 0 1 .842-.104l.116-.023Z" fill="#9E9592"/><path d="M34.301 76.347s-1.019-.336-2.479-.95a64.763 64.763 0 0 1-5.236-2.525c-1.854-.996-3.684-2.062-5.028-2.92-1.344-.856-2.19-1.505-2.19-1.505a.626.626 0 0 1 .58-1.089s1.02.336 2.467.973c1.448.637 3.383 1.517 5.248 2.502 1.866.985 3.696 2.05 5.028 2.92a38.441 38.441 0 0 1 2.178 1.517.613.613 0 0 1 .105.868.626.626 0 0 1-.672.209Zm-4.321 52.254s-1.762.891-4.45 2.108c-1.343.59-2.907 1.32-4.633 2.027-1.726.706-3.476 1.459-5.33 2.189-1.853.73-3.66 1.425-5.387 2.074-1.726.648-3.36 1.158-4.738 1.691-1.379.533-2.572.857-3.383 1.158l-1.297.406a.624.624 0 0 1-.452-1.159l1.158-.591c.788-.359 1.889-.915 3.233-1.505 1.344-.591 2.92-1.309 4.634-2.028 1.714-.718 3.475-1.459 5.34-2.2 1.866-.742 3.65-1.437 5.376-2.074 1.726-.637 3.36-1.158 4.738-1.703 2.792-.973 4.634-1.529 4.634-1.529a.622.622 0 0 1 .452 1.159l.104-.023Z" fill="#968680"/><path d="M68.894 44.806s-.15-.336-.382-.927a52.371 52.371 0 0 1-.915-2.479c-.742-2.062-1.622-4.83-2.41-7.633-.788-2.804-1.495-5.63-1.958-7.762-.243-1.065-.394-1.969-.533-2.594-.139-.626-.174-.985-.162-.985a.614.614 0 0 1 1.159-.336s.139.336.37.939c.232.602.556 1.448.915 2.479.73 2.061 1.622 4.83 2.422 7.621.8 2.792 1.506 5.619 1.97 7.761.242 1.066.393 1.97.52 2.595.128.626.163.985.163.985a.614.614 0 0 1-1.159.336Z" fill="#897C76"/><path d="M94.544 54.072s0-.324-.104-.892c-.104-.567-.15-1.378-.208-2.316a106.21 106.21 0 0 1-.232-7.16c0-2.605.104-5.212.243-7.17.058-.972.15-1.795.197-2.316.047-.521.105-.892.105-.892a.626.626 0 0 1 1.227 0s0 .324.105.892c.104.567.139 1.39.197 2.317a106.1 106.1 0 0 1 .243 7.17c0 2.606-.081 5.212-.232 7.159-.058.984-.162 1.795-.208 2.316-.047.522-.105.892-.105.892a.614.614 0 0 1-.706.521.625.625 0 0 1-.522-.52Zm7.058 1.588s.058-.835.278-2.051a38.54 38.54 0 0 1 1.065-4.355 43.581 43.581 0 0 1 1.507-4.24c.262-.636.556-1.259.88-1.865a.622.622 0 0 1 1.091.007.653.653 0 0 1 .079.34c-.06.689-.156 1.373-.29 2.05a43.645 43.645 0 0 1-1.054 4.368 39.761 39.761 0 0 1-1.494 4.228 18.97 18.97 0 0 1-.892 1.865.63.63 0 0 1-.713.272.626.626 0 0 1-.446-.62h-.011Z" fill="#6B6562"/><path d="M107.014 6.024s-7.46-10.761-17.771-3.475-5.712 18 .22 19.75c0 0-4.333 15.244 9.87 15.8 11.191.44 11.191-8.109 11.191-8.109s14.053 10.761 17.784.44c3.73-10.32-6.581-13.159-6.581-13.159s4.715-8.467-1.32-13.61c-7.461-6.418-13.393 2.363-13.393 2.363Z" fill="#DDD4D3"/><path d="M136.914 68.725s1.599-1.401 4.066-3.405c1.251-.985 2.676-2.166 4.264-3.371 1.587-1.205 3.255-2.49 4.958-3.753a278.671 278.671 0 0 1 5.04-3.649c1.621-1.147 3.151-2.19 4.46-3.093 1.309-.903 2.433-1.61 3.197-2.131l1.24-.788a.6.6 0 0 1 .834.197.594.594 0 0 1-.116.788l-1.1.95c-.719.59-1.727 1.46-2.966 2.444-1.24.984-2.688 2.166-4.252 3.382a324.303 324.303 0 0 1-4.958 3.753 245.912 245.912 0 0 1-5.028 3.66c-1.622 1.147-3.163 2.19-4.472 3.093-2.63 1.796-4.437 2.908-4.437 2.908a.615.615 0 0 1-.846-.197.638.638 0 0 1 .116-.788Z" fill="#968680"/><path d="M145.385 73.938c.363-.33.75-.632 1.159-.903a19.743 19.743 0 0 1 2.769-1.564 20.582 20.582 0 0 1 2.965-1.158c.47-.147.95-.26 1.437-.336a.637.637 0 0 1 .521 1.158c-.365.324-.752.622-1.158.892a21.075 21.075 0 0 1-2.769 1.575 20.34 20.34 0 0 1-2.954 1.159c-.475.14-.959.248-1.448.324a.648.648 0 0 1-.719-.556.679.679 0 0 1 .197-.59Z" fill="#897C76"/><path d="m143.747 84.861 1.066-.359c.695-.208 1.657-.544 2.839-.869 2.317-.695 5.526-1.529 8.7-2.258 3.174-.73 6.395-1.39 8.805-1.808 1.216-.22 2.224-.359 2.931-.474l1.158-.151a.614.614 0 0 1 .684.533.663.663 0 0 1-.406.66l-1.077.348c-.684.208-1.657.532-2.838.868-2.318.695-5.515 1.53-8.689 2.317-3.175.788-6.384 1.402-8.805 1.819-1.158.22-2.224.347-2.931.463l-1.159.15a.614.614 0 0 1-.671-.544.623.623 0 0 1 .393-.695Z" fill="#968680"/><path d="M147.791 107.519c.42-.367.865-.703 1.332-1.008a26.064 26.064 0 0 1 3.151-1.796 28.443 28.443 0 0 1 3.348-1.366 13.862 13.862 0 0 1 1.599-.441.611.611 0 0 1 .475.094.63.63 0 0 1 .266.405.608.608 0 0 1-.197.59c-.426.364-.875.7-1.343 1.008a29.276 29.276 0 0 1-3.14 1.795 26.235 26.235 0 0 1-3.337 1.379 12.6 12.6 0 0 1-1.621.429.63.63 0 0 1-.69-.338.627.627 0 0 1 .157-.751Zm-.531 10.472s1.008-.058 2.502 0c1.495.058 3.476.208 5.469.463 1.992.255 3.939.591 5.398.903 1.46.313 2.433.614 2.433.614a.626.626 0 0 1 .406.788.607.607 0 0 1-.556.429s-1.008.058-2.514 0a67.593 67.593 0 0 1-5.457-.441 60.955 60.955 0 0 1-5.41-.903c-1.472-.324-2.422-.626-2.422-.626a.625.625 0 0 1 .151-1.158v-.069Zm2.117-5.711a5.715 5.715 0 0 1 1.031-.325c.762-.156 1.539-.23 2.317-.22.759.003 1.515.081 2.259.232.352.075.697.18 1.031.313a.67.67 0 0 1 .208 1.084.63.63 0 0 1-.208.132 5.309 5.309 0 0 1-1.031.313c-.743.155-1.5.236-2.259.243a10.73 10.73 0 0 1-2.317-.232 4.714 4.714 0 0 1-1.031-.324.67.67 0 0 1-.336-.88.72.72 0 0 1 .336-.336Z" fill="#6B6562"/><path d="M191.512 104.113a9.131 9.131 0 0 0-9.164-5.63c-.127-2.582-1.019-6.718-5.317-7.76-6.361-1.53-11.852 1.32-12.072 7.46a5.24 5.24 0 0 0 0 .614c-2.827 1.76-5.457 5.12-3.742 9.927 3.29 9.209 8.561 5.479 8.561 5.479s-2.201 10.321 7.241 10.981c10.218.707 8.11-7.251 8.11-7.251s9.013-6.8 6.383-13.82Z" fill="#A39793"/><path d="M44.31 67.567c-1.495-2.607-5.052-4.217-7.45-5.873a119.6 119.6 0 0 1-4.727-3.545c-1.089-.869-1.842-1.668-3.302-1.575a1.263 1.263 0 0 0-1.24 1.24c-.3 3.046 4.415 5.35 6.57 6.694 2.653 1.645 6.348 4.032 9.557 4.101a.696.696 0 0 0 .591-1.042Zm10.52 70.057c-1.934 0-4.32 1.877-5.908 2.85-1.842 1.158-4.53 2.594-5.062 4.888a1.496 1.496 0 0 0 1.842 1.784c2.236-.452 4.414-2.618 6.21-3.939 1.494-1.158 3.776-2.513 4.02-4.517.069-.591-.568-1.054-1.101-1.066Zm4.274 4.53a22.379 22.379 0 0 0-2.12 3.023c-.904 1.309-1.888 2.514-2.688 3.904-.51.892.776 1.888 1.46 1.088a15.191 15.191 0 0 0 2.317-3.753 9.968 9.968 0 0 0 1.263-4.158.149.149 0 0 0-.029-.069.159.159 0 0 0-.058-.047.156.156 0 0 0-.074-.013.15.15 0 0 0-.07.025Zm61.378 6.255c-1.24-3.244-2.259-6.73-4.159-9.661-.637-.984-2.595-.683-2.422.672a54.06 54.06 0 0 0 2.607 10.124c1.008 3.128 1.912 6.672 4.738 8.607.811.556 1.738-.22 1.796-1.043.232-3.035-1.506-5.942-2.56-8.699ZM28.52 117.353c-2.896 0-6.267 1.436-9.175 1.923-3.858.637-7.588.996-10.832 3.347a.766.766 0 0 0 .07 1.357.76.76 0 0 0 .544.033c3.904-1.077 8.028-1.575 12.013-2.316 2.387-.464 6.859-1.251 7.612-4.043a.23.23 0 0 0-.123-.28.225.225 0 0 0-.109-.021Zm103.759-66.547a16.533 16.533 0 0 0-3.256 9.209.154.154 0 0 0 .094.135.15.15 0 0 0 .161-.031c2.144-2.317 4.183-5.26 4.634-8.398.058-.846-.996-1.726-1.633-.915Zm3.815 6.069c-.691.727-1.33 1.5-1.911 2.317a9.586 9.586 0 0 0-1.449 2.398c0 .127.105.266.244.232 1.888-.638 3.197-2.746 3.846-4.506.093-.452-.452-.742-.73-.44Z" fill="#F5DA48"/><path d="M65.18 135.54a2.192 2.192 0 0 0-2.934-.765c-.326.183-.6.446-.796.765a2.618 2.618 0 0 0-.244 1.865c.394 2.108 3.858 2.027 4.252 0 .142-.635.043-1.3-.278-1.865Zm-31.84-12.175a1.3 1.3 0 0 0-1.176 1.292 1.297 1.297 0 0 0 1.175 1.291 1.294 1.294 0 0 0 1.175-1.291 1.297 1.297 0 0 0-1.175-1.292Zm30.143-76.521a4.633 4.633 0 0 0-1.46-1.981.857.857 0 0 0-1.425.834c.168.716.467 1.396.88 2.004.418.567.928 1.425 1.68 1.54a.648.648 0 0 0 .777-.451 3.173 3.173 0 0 0-.452-1.946Zm71.216 90.768a5.385 5.385 0 0 0-.765-2.224c-.151-.197-.51-.336-.707-.081a4.31 4.31 0 0 0-.741 2.317 2.761 2.761 0 0 0 .904 2.548.69.69 0 0 0 .978-.003.696.696 0 0 0 .18-.309 3.484 3.484 0 0 0 .151-2.248Zm3.741-4.054c-.904-.394-1.9.672-1.101 1.437.452.44.916.868 1.356 1.32.399.542.929.972 1.541 1.251a1.057 1.057 0 0 0 .914-.185 1.068 1.068 0 0 0 .418-.834c.046-1.599-1.935-2.467-3.128-2.989Zm-29.578 16.044a1.518 1.518 0 0 0-.987 2.536c.257.28.609.454.987.487a1.515 1.515 0 0 0 1.385-1.512 1.516 1.516 0 0 0-1.385-1.511Z" fill="#6B6562"/><path d="M78.35 151.756a3.273 3.273 0 0 0-2.514-.058 4.459 4.459 0 0 0-5.792 1.054 3.927 3.927 0 0 0-.973 4.39c.903 1.807 3.255 1.958 5.004 1.784.268-.024.529-.103.765-.232a5.311 5.311 0 0 0 2.584 2.062c2.479.927 4.1-1.007 4.367-3.289a5.885 5.885 0 0 0-3.44-5.711Zm11.333 1.958a3.473 3.473 0 0 0-2.2-.301 1.873 1.873 0 0 0-1.33 1.481 1.875 1.875 0 0 0 .75 1.843 2.14 2.14 0 0 0 3.244.267 2.103 2.103 0 0 0 .578-1.759 2.101 2.101 0 0 0-1.042-1.531Zm-41.3-113.09a4.517 4.517 0 0 0-3.128-2.815c-1.425-1.865-4.02-2.479-6.256-2.688-4.263-.416-6.488 3.232-5.33 6.858a6.037 6.037 0 0 0-1.297 1.946c-1.02 2.467.417 4.633 2.723 5.56a4.437 4.437 0 0 0 3.916-.394 3.325 3.325 0 0 0 2.954 1.68c2.224 0 4.043-2.039 5.155-3.718a7.633 7.633 0 0 0 1.263-6.43Zm90.421-5.294a2.581 2.581 0 0 0-3.023.44 2.126 2.126 0 0 0-.51 2.166v.116c.041.15.099.293.174.429.039.136.066.276.081.417.169.66.504 1.266.973 1.76a1.646 1.646 0 0 0 2.317 0 4.48 4.48 0 0 0 1.286-2.965 2.593 2.593 0 0 0-1.298-2.363Zm13.289 91.174a5.214 5.214 0 0 0-1.437-.579c-.104 0-.394-.139-.394-.127l-.776-.336a2.445 2.445 0 0 0-2.734 1.158 2.404 2.404 0 0 0 .417 2.919c.15.147.317.276.498.383l.104.231c.294.536.713.993 1.221 1.332a3.8 3.8 0 0 0 1.699.614 2.316 2.316 0 0 0 2.769-1.587 3.473 3.473 0 0 0-1.367-4.008Z" fill="#DDD4D3"/><path d="M106.549 25.74a2.852 2.852 0 0 0-1.854.242c-.66.302-.799-.393-1.066-1.065a2.591 2.591 0 0 0-.115-.267c-.545-1.158-2.468-.313-2.051.88.417 1.194.29 3.337-1.53 3.035-1.818-.3-1.667-2.56-1.61-3.984a.52.52 0 0 0-.891-.348 3.974 3.974 0 0 0 2.073 6.707 3.477 3.477 0 0 0 3.557-1.158c.269-.347.473-.74.602-1.159.189.05.385.069.579.058a3.406 3.406 0 0 0 2.781-1.726.773.773 0 0 0 .095-.737.781.781 0 0 0-.57-.479Zm-3.952-17.053c-1.471-1.158-2.502-1.725-3.58-.891-.984-1.854-2.734-3.232-5.027-2.317-2.294.915-3.696 3.741-2.086 5.734a.301.301 0 0 0 .464-.07c.625-1.158.834-2.548 1.911-3.36 1.645-1.239 3.117.36 3.661 1.866a.857.857 0 0 0 1.553.185c.671-1.158.799-.718 1.714-.231a1.392 1.392 0 0 0 1.298-.058.516.516 0 0 0 .092-.857Zm13.755 5.99a141.61 141.61 0 0 1-1.703 1.853c-.405.382-.729.347-1.274.22a.263.263 0 0 0-.231.045.265.265 0 0 0-.105.21 1.672 1.672 0 0 0 .754 1.376 1.666 1.666 0 0 0 1.563.141c1.506-.463 1.946-2.038 2.074-3.475.023-.486-.742-.73-1.078-.37Z" fill="#C7BEBE"/><path d="M182.186 115.847a1.745 1.745 0 0 0-1.158-1.158c-.324 0-.649-.093-.973-.127h-.081c0-.151.081-.313.139-.464.347-1.065-1.02-1.575-1.726-.973a4.048 4.048 0 0 1-2.225 1.159c-.625 0-.869-1.495-.95-1.9-.081-.405-.985-.521-1.054 0-.185 1.378-.162 3.012 1.355 3.603a3.137 3.137 0 0 0 2.607-.29c.165.254.392.462.66.602a5.795 5.795 0 0 0 2.874.278c.324-.023.683-.37.532-.73ZM76.28 41.701a1.865 1.865 0 1 0 0 3.731 1.865 1.865 0 0 0 0-3.73Z" fill="#8C837F"/><path d="M76.28 41.701a1.865 1.865 0 1 0 0 3.731 1.865 1.865 0 0 0 0-3.73Z" fill="#8C837F"/><g clip-path="url(#b)"><path d="M91.126 91.268s-1.985-17.972-1.222-18.257c.764-.285 8.09 17.658 8.09 17.658s3.51-5.936 4.119-5.48c.609.457-1.219 6.242-1.219 6.242s12.212-5.032 12.821-3.968-10.684 8.829-10.684 8.829 5.798 3.654 5.798 4.262c0 .607-5.34-.608-5.34-.608s5.04 5.631 5.04 6.239c0 .607-6.714-1.675-6.714-1.675l3.51 12.635-6.865-9.588s-3.816 16.135-4.425 16.437c-.61.302-1.682-19.33-1.682-19.33l-5.492 6.242 2.44-9.285-11.293.758 11.742-5.93s-6.865-7.457-6.865-7.914l8.24 2.733Z" fill="#DFA24D"/><path d="M94.18 90.05c-.383.155.535 5.558.535 5.558s-4.808-2.665-4.885-2.436c-.077.228 3.358 3.728 3.358 3.728s-6.11 2.972-6.11 3.275c0 .302 6.104-1.141 6.104-1.141l-2.749 4.641 4.368-2.513.764 6.242 1.45-5.706s3.665 5.785 3.893 5.706c.229-.08-1.907-6.847-1.907-6.847l4.805 2.131-3.827-4.113 3.97-.075-4.428-1.446s6.865-5.023 6.642-5.48c-.223-.456-7.48 4.11-7.48 4.11l.306-4.033-2.214 3.195-2.594-4.795Z" fill="#F5DA48"/><path d="M95.656 95.022c-.286.072-.214 2.64-.214 2.64l-2.575.179 1.894.57-.893 1.855 2.289-1.178-.215 3.565 1.036-3.243 1.501 2.602-.357-2.71 1.716.464-1.25-1.355 1.001-.499-2.04-.356.324-2.747-1.253 2.461-.964-2.248Z" fill="#FAE878"/><path d="M98.034 76.152a.414.414 0 0 0-.705-.148.413.413 0 0 0-.104.265c-.149 1.74.189 3.654.249 5.42.057 1.686.031 3.424.503 5.055 0 .037.078.043.083 0 .223-1.671.206-3.38.263-5.063.058-1.683.315-3.883-.288-5.529Zm1.7 4.185a.228.228 0 0 0-.35-.043c-.403.334-.314.87-.285 1.347 0 .085.043.855.286.75.243-.106.303-.548.357-.782.08-.445.258-.85-.008-1.272Zm10.699 2.502a.446.446 0 0 0-.667-.26c-.738.434-1.396 1.141-2.099 1.655-.761.547-1.531 1.08-2.289 1.64-.372.285-1.098.63-1.112 1.141 0 .009.003.017.009.024a.04.04 0 0 0 .022.013c.715.206 2.154-1.035 2.735-1.403 1.127-.708 2.337-1.427 3.283-2.37a.432.432 0 0 0 .118-.44ZM86.608 96.01c-.824-.936-2.288-1.278-3.433-1.692-1.321-.476-2.728-1.12-4.141-1.198a.264.264 0 0 0-.255.314c.01.051.035.097.071.134 1.024.799 2.355 1.093 3.579 1.475 1.287.405 2.78 1.14 4.142 1.047a.049.049 0 0 0 .044-.028.049.049 0 0 0-.007-.052Zm-3.663.759c-.051 0-.203-.114-.266-.123-.18-.026-.36-.037-.543-.057-.426-.043-.97-.188-1.364.017a.34.34 0 0 0 0 .588c.388.202.926.057 1.341 0 .213-.007.422-.052.618-.134.094-.06.154-.163.237-.217.043-.032.017-.08-.023-.074Zm7.881 11.904a.06.06 0 0 0-.04-.038.056.056 0 0 0-.03.001.05.05 0 0 0-.025.014c-.875 1.019-1.075 2.87-1.547 4.119-.338.89-.71 1.766-1.076 2.645-.343.827-.858 1.689-.858 2.599a.286.286 0 0 0 .478.188c1.05-1.207 1.493-3.301 2.062-4.784.492-1.278 1.605-3.378 1.036-4.744Zm-2.789 2.85c0-.017-.026-.02-.046-.02-.2.034-.38.322-.495.479a.983.983 0 0 0-.22.773.258.258 0 0 0 .188.178.264.264 0 0 0 .25-.069c.154-.198.253-.434.286-.682.022-.191.137-.485.037-.659Zm10.436 5.446c.037-1.221.286-2.499.154-3.709a.04.04 0 0 0-.03-.038.037.037 0 0 0-.025.002.04.04 0 0 0-.02.016c-.571.981-.66 2.162-.797 3.269-.138 1.107-.39 2.411.077 3.423a.212.212 0 0 0 .184.105.212.212 0 0 0 .184-.105c.427-.915.241-1.979.273-2.963Zm1.359-2.902a.044.044 0 0 0-.043.043c0 .012.005.022.013.03a.044.044 0 0 0 .03.013.043.043 0 0 0 .03-.013.04.04 0 0 0 .013-.03.043.043 0 0 0-.043-.043Z" fill="#F5DA48"/><path d="M100.321 114.932c-.086-.337-.209-.662-.286-1.002-.078-.339-.638-.256-.604.089.035.345.029.687.032 1.035.003.348-.02.728.18.993a.456.456 0 0 0 .443.202.455.455 0 0 0 .369-.316c.109-.331-.048-.676-.134-1.001Zm9.181-3.344c-.763-.745-1.653-1.389-2.448-2.108-.796-.719-1.456-1.62-2.326-2.185a.077.077 0 0 0-.042-.01.085.085 0 0 0-.04.015.08.08 0 0 0-.025.035.086.086 0 0 0-.002.042c.175.953.999 1.783 1.625 2.485.796.925 1.7 1.753 2.692 2.465.449.305.941-.371.566-.739Z" fill="#F5DA48"/><path d="M88.146 87.32c-.693-1.107-1.765-1.98-2.68-2.9-.916-.922-1.617-2.234-2.678-2.92a.214.214 0 0 0-.312.243c.2 1.141 1.399 2.137 2.183 2.93.995 1.01 2.065 2.111 3.283 2.853a.161.161 0 0 0 .21-.117.16.16 0 0 0-.006-.089Zm-1.79-4.792a2.02 2.02 0 0 0-.44-.662.15.15 0 0 0-.227.025.148.148 0 0 0-.025.081 1.2 1.2 0 0 0 .286.793c.178.25.422.448.704.57a.048.048 0 0 0 .057-.06 7.302 7.302 0 0 0-.355-.747Zm-.18 21.564c-1.113.55-2.225 1.098-3.33 1.66-.998.508-2.133.91-2.914 1.734a.226.226 0 0 0 .226.374c1.104-.243 2.088-.941 3.058-1.498a14.294 14.294 0 0 0 3.003-2.211c.04-.031 0-.079-.043-.059Zm-.682 2.111a.06.06 0 0 0-.028-.036.06.06 0 0 0-.046-.007 2.04 2.04 0 0 0-.498.265c-.186.114-.397.186-.572.285a.383.383 0 0 0-.134.52.396.396 0 0 0 .526.128 1.66 1.66 0 0 0 .603-.548.71.71 0 0 0 .15-.607Zm29.25-14.629c-1.239.27-2.366 1.01-3.513 1.534-1.43.66-2.975 1.141-4.368 1.889-.243.131-.052.436.177.402 1.431-.205 2.818-.787 4.137-1.352 1.318-.565 2.786-1.107 3.764-2.145a.202.202 0 0 0 .024-.237.2.2 0 0 0-.221-.09Zm-4.903 4.473c-.394 0-.749.163-1.144.117a.167.167 0 0 0-.154.104.166.166 0 0 0 .04.181c.189.172.436.268.692.271a.861.861 0 0 0 .732-.394c.092-.122-.046-.276-.166-.28Zm1.06 7.591a7.32 7.32 0 0 0-1.651-.959c-.672-.305-1.487-.57-2.048-1.055-.037-.032-.094.022-.057.057.447.448.925.864 1.43 1.246a18.57 18.57 0 0 0 1.988 1.156c.272.137.601-.217.338-.445Z" fill="#D08848"/></g></g><defs><clipPath id="a"><path fill="#fff" d="M0 0h192v161H0z"/></clipPath><clipPath id="b"><path fill="#fff" transform="translate(78 73)" d="M0 0h37v51H0z"/></clipPath></defs></svg>