<svg width="649" height="577" fill="none" xmlns="http://www.w3.org/2000/svg"><g opacity=".08" fill-rule="evenodd" clip-rule="evenodd"><path d="M108.197 113.368V-.12h108.586v113.488H108.197ZM107.368-1h110.244v115.248H107.368V-1Z" fill="url(#a)"/><path d="M108.197 229.496V114.248h108.586v115.248H108.197Zm-.829-116.128h110.244v117.008H107.368V113.368Z" fill="url(#b)"/><path d="M108.197 344.744V230.376h108.586v114.368H108.197Zm-.829-115.248h110.244v116.128H107.368V229.496Z" fill="url(#c)"/><path d="M108.197 461.752V345.624h108.586v116.128H108.197Zm-.829-117.008h110.244v117.888H107.368V344.744Z" fill="url(#d)"/><path d="M108.197 576.12V462.632h108.586V576.12H108.197Zm-.829-114.368h110.244V577H107.368V461.752Z" fill="url(#e)"/><path d="M.829 113.368V-.12h106.923v113.488H.829ZM0-1h108.581v115.248H0V-1Z" fill="url(#f)"/><path d="M.829 229.496V114.248h106.923v115.248H.829ZM0 113.368h108.581v117.008H0V113.368Z" fill="url(#g)"/><path d="M.829 344.744V230.376h106.923v114.368H.829ZM0 229.496h108.581v116.128H0V229.496Z" fill="url(#h)"/><path d="M.829 461.752V345.624h106.923v116.128H.829ZM0 344.744h108.581v117.888H0V344.744Z" fill="url(#i)"/><path d="M.829 576.12V462.632h106.923V576.12H.829ZM0 461.752h108.581V577H0V461.752Z" fill="url(#j)"/><path d="M217.991 113.368V-.12h106.923v113.488H217.991ZM217.162-1h108.581v115.248H217.162V-1Z" fill="url(#k)"/><path d="M217.991 229.496V114.248h106.923v115.248H217.991Zm-.829-116.128h108.581v117.008H217.162V113.368Z" fill="url(#l)"/><path d="M217.991 344.744V230.376h106.923v114.368H217.991Zm-.829-115.248h108.581v116.128H217.162V229.496Z" fill="url(#m)"/><path d="M217.991 461.752V345.624h106.923v116.128H217.991Zm-.829-117.008h108.581v117.888H217.162V344.744Z" fill="url(#n)"/><path d="M217.991 576.12V462.632h106.923V576.12H217.991Zm-.829-114.368h108.581V577H217.162V461.752Z" fill="url(#o)"/><path d="M325.743 113.368V-.12h107.753v113.488H325.743ZM324.914-1h109.41v115.248h-109.41V-1Z" fill="url(#p)"/><path d="M325.743 229.496V114.248h107.753v115.248H325.743Zm-.829-116.128h109.41v117.008h-109.41V113.368Z" fill="url(#q)"/><path d="M325.743 344.744V230.376h107.753v114.368H325.743Zm-.829-115.248h109.41v116.128h-109.41V229.496Z" fill="url(#r)"/><path d="M325.743 461.752V345.624h107.753v116.128H325.743Zm-.829-117.008h109.41v117.888h-109.41V344.744Z" fill="url(#s)"/><path d="M325.743 576.12V462.632h107.753V576.12H325.743Zm-.829-114.368h109.41V577h-109.41V461.752Z" fill="url(#t)"/><path d="M434.324 113.368V-.12h106.924v113.488H434.324ZM433.496-1h108.581v115.248H433.496V-1Z" fill="url(#u)"/><path d="M434.324 229.496V114.248h106.924v115.248H434.324Zm-.828-116.128h108.581v117.008H433.496V113.368Z" fill="url(#v)"/><path d="M434.324 344.744V230.376h106.924v114.368H434.324Zm-.828-115.248h108.581v116.128H433.496V229.496Z" fill="url(#w)"/><path d="M434.324 461.752V345.624h106.924v116.128H434.324Zm-.828-117.008h108.581v117.888H433.496V344.744Z" fill="url(#x)"/><path d="M434.324 576.12V462.632h106.924V576.12H434.324Zm-.828-114.368h108.581V577H433.496V461.752Z" fill="url(#y)"/><path d="M542.077 113.368V-.12h106.094v113.488H542.077ZM541.248-1H649v115.248H541.248V-1Z" fill="url(#z)"/><path d="M542.077 229.496V114.248h106.094v115.248H542.077Zm-.829-116.128H649v117.008H541.248V113.368Z" fill="url(#A)"/><path d="M542.077 344.744V230.376h106.094v114.368H542.077Zm-.829-115.248H649v116.128H541.248V229.496Z" fill="url(#B)"/><path d="M542.077 461.752V345.624h106.094v116.128H542.077Zm-.829-117.008H649v117.888H541.248V344.744Z" fill="url(#C)"/><path d="M542.077 576.12V462.632h106.094V576.12H542.077Zm-.829-114.368H649V577H541.248V461.752Z" fill="url(#D)"/></g><defs><radialGradient id="a" cx="0" cy="0" r="1" gradientUnits="userSpaceOnUse" gradientTransform="matrix(0 289 -324.5 0 324.5 288)"><stop offset="0" stop-color="#EFEFEF"/><stop offset="1" stop-color="#C5C5C5" stop-opacity="0"/></radialGradient><radialGradient id="b" cx="0" cy="0" r="1" gradientUnits="userSpaceOnUse" gradientTransform="matrix(0 289 -324.5 0 324.5 288)"><stop offset="0" stop-color="#EFEFEF"/><stop offset="1" stop-color="#C5C5C5" stop-opacity="0"/></radialGradient><radialGradient id="c" cx="0" cy="0" r="1" gradientUnits="userSpaceOnUse" gradientTransform="matrix(0 289 -324.5 0 324.5 288)"><stop offset="0" stop-color="#EFEFEF"/><stop offset="1" stop-color="#C5C5C5" stop-opacity="0"/></radialGradient><radialGradient id="d" cx="0" cy="0" r="1" gradientUnits="userSpaceOnUse" gradientTransform="matrix(0 289 -324.5 0 324.5 288)"><stop offset="0" stop-color="#EFEFEF"/><stop offset="1" stop-color="#C5C5C5" stop-opacity="0"/></radialGradient><radialGradient id="e" cx="0" cy="0" r="1" gradientUnits="userSpaceOnUse" gradientTransform="matrix(0 289 -324.5 0 324.5 288)"><stop offset="0" stop-color="#EFEFEF"/><stop offset="1" stop-color="#C5C5C5" stop-opacity="0"/></radialGradient><radialGradient id="f" cx="0" cy="0" r="1" gradientUnits="userSpaceOnUse" gradientTransform="matrix(0 289 -324.5 0 324.5 288)"><stop offset="0" stop-color="#EFEFEF"/><stop offset="1" stop-color="#C5C5C5" stop-opacity="0"/></radialGradient><radialGradient id="g" cx="0" cy="0" r="1" gradientUnits="userSpaceOnUse" gradientTransform="matrix(0 289 -324.5 0 324.5 288)"><stop offset="0" stop-color="#EFEFEF"/><stop offset="1" stop-color="#C5C5C5" stop-opacity="0"/></radialGradient><radialGradient id="h" cx="0" cy="0" r="1" gradientUnits="userSpaceOnUse" gradientTransform="matrix(0 289 -324.5 0 324.5 288)"><stop offset="0" stop-color="#EFEFEF"/><stop offset="1" stop-color="#C5C5C5" stop-opacity="0"/></radialGradient><radialGradient id="i" cx="0" cy="0" r="1" gradientUnits="userSpaceOnUse" gradientTransform="matrix(0 289 -324.5 0 324.5 288)"><stop offset="0" stop-color="#EFEFEF"/><stop offset="1" stop-color="#C5C5C5" stop-opacity="0"/></radialGradient><radialGradient id="j" cx="0" cy="0" r="1" gradientUnits="userSpaceOnUse" gradientTransform="matrix(0 289 -324.5 0 324.5 288)"><stop offset="0" stop-color="#EFEFEF"/><stop offset="1" stop-color="#C5C5C5" stop-opacity="0"/></radialGradient><radialGradient id="k" cx="0" cy="0" r="1" gradientUnits="userSpaceOnUse" gradientTransform="matrix(0 289 -324.5 0 324.5 288)"><stop offset="0" stop-color="#EFEFEF"/><stop offset="1" stop-color="#C5C5C5" stop-opacity="0"/></radialGradient><radialGradient id="l" cx="0" cy="0" r="1" gradientUnits="userSpaceOnUse" gradientTransform="matrix(0 289 -324.5 0 324.5 288)"><stop offset="0" stop-color="#EFEFEF"/><stop offset="1" stop-color="#C5C5C5" stop-opacity="0"/></radialGradient><radialGradient id="m" cx="0" cy="0" r="1" gradientUnits="userSpaceOnUse" gradientTransform="matrix(0 289 -324.5 0 324.5 288)"><stop offset="0" stop-color="#EFEFEF"/><stop offset="1" stop-color="#C5C5C5" stop-opacity="0"/></radialGradient><radialGradient id="n" cx="0" cy="0" r="1" gradientUnits="userSpaceOnUse" gradientTransform="matrix(0 289 -324.5 0 324.5 288)"><stop offset="0" stop-color="#EFEFEF"/><stop offset="1" stop-color="#C5C5C5" stop-opacity="0"/></radialGradient><radialGradient id="o" cx="0" cy="0" r="1" gradientUnits="userSpaceOnUse" gradientTransform="matrix(0 289 -324.5 0 324.5 288)"><stop offset="0" stop-color="#EFEFEF"/><stop offset="1" stop-color="#C5C5C5" stop-opacity="0"/></radialGradient><radialGradient id="p" cx="0" cy="0" r="1" gradientUnits="userSpaceOnUse" gradientTransform="matrix(0 289 -324.5 0 324.5 288)"><stop offset="0" stop-color="#EFEFEF"/><stop offset="1" stop-color="#C5C5C5" stop-opacity="0"/></radialGradient><radialGradient id="q" cx="0" cy="0" r="1" gradientUnits="userSpaceOnUse" gradientTransform="matrix(0 289 -324.5 0 324.5 288)"><stop offset="0" stop-color="#EFEFEF"/><stop offset="1" stop-color="#C5C5C5" stop-opacity="0"/></radialGradient><radialGradient id="r" cx="0" cy="0" r="1" gradientUnits="userSpaceOnUse" gradientTransform="matrix(0 289 -324.5 0 324.5 288)"><stop offset="0" stop-color="#EFEFEF"/><stop offset="1" stop-color="#C5C5C5" stop-opacity="0"/></radialGradient><radialGradient id="s" cx="0" cy="0" r="1" gradientUnits="userSpaceOnUse" gradientTransform="matrix(0 289 -324.5 0 324.5 288)"><stop offset="0" stop-color="#EFEFEF"/><stop offset="1" stop-color="#C5C5C5" stop-opacity="0"/></radialGradient><radialGradient id="t" cx="0" cy="0" r="1" gradientUnits="userSpaceOnUse" gradientTransform="matrix(0 289 -324.5 0 324.5 288)"><stop offset="0" stop-color="#EFEFEF"/><stop offset="1" stop-color="#C5C5C5" stop-opacity="0"/></radialGradient><radialGradient id="u" cx="0" cy="0" r="1" gradientUnits="userSpaceOnUse" gradientTransform="matrix(0 289 -324.5 0 324.5 288)"><stop offset="0" stop-color="#EFEFEF"/><stop offset="1" stop-color="#C5C5C5" stop-opacity="0"/></radialGradient><radialGradient id="v" cx="0" cy="0" r="1" gradientUnits="userSpaceOnUse" gradientTransform="matrix(0 289 -324.5 0 324.5 288)"><stop offset="0" stop-color="#EFEFEF"/><stop offset="1" stop-color="#C5C5C5" stop-opacity="0"/></radialGradient><radialGradient id="w" cx="0" cy="0" r="1" gradientUnits="userSpaceOnUse" gradientTransform="matrix(0 289 -324.5 0 324.5 288)"><stop offset="0" stop-color="#EFEFEF"/><stop offset="1" stop-color="#C5C5C5" stop-opacity="0"/></radialGradient><radialGradient id="x" cx="0" cy="0" r="1" gradientUnits="userSpaceOnUse" gradientTransform="matrix(0 289 -324.5 0 324.5 288)"><stop offset="0" stop-color="#EFEFEF"/><stop offset="1" stop-color="#C5C5C5" stop-opacity="0"/></radialGradient><radialGradient id="y" cx="0" cy="0" r="1" gradientUnits="userSpaceOnUse" gradientTransform="matrix(0 289 -324.5 0 324.5 288)"><stop offset="0" stop-color="#EFEFEF"/><stop offset="1" stop-color="#C5C5C5" stop-opacity="0"/></radialGradient><radialGradient id="z" cx="0" cy="0" r="1" gradientUnits="userSpaceOnUse" gradientTransform="matrix(0 289 -324.5 0 324.5 288)"><stop offset="0" stop-color="#EFEFEF"/><stop offset="1" stop-color="#C5C5C5" stop-opacity="0"/></radialGradient><radialGradient id="A" cx="0" cy="0" r="1" gradientUnits="userSpaceOnUse" gradientTransform="matrix(0 289 -324.5 0 324.5 288)"><stop offset="0" stop-color="#EFEFEF"/><stop offset="1" stop-color="#C5C5C5" stop-opacity="0"/></radialGradient><radialGradient id="B" cx="0" cy="0" r="1" gradientUnits="userSpaceOnUse" gradientTransform="matrix(0 289 -324.5 0 324.5 288)"><stop offset="0" stop-color="#EFEFEF"/><stop offset="1" stop-color="#C5C5C5" stop-opacity="0"/></radialGradient><radialGradient id="C" cx="0" cy="0" r="1" gradientUnits="userSpaceOnUse" gradientTransform="matrix(0 289 -324.5 0 324.5 288)"><stop offset="0" stop-color="#EFEFEF"/><stop offset="1" stop-color="#C5C5C5" stop-opacity="0"/></radialGradient><radialGradient id="D" cx="0" cy="0" r="1" gradientUnits="userSpaceOnUse" gradientTransform="matrix(0 289 -324.5 0 324.5 288)"><stop offset="0" stop-color="#EFEFEF"/><stop offset="1" stop-color="#C5C5C5" stop-opacity="0"/></radialGradient></defs></svg>