<svg width="1920" height="1461" fill="none" xmlns="http://www.w3.org/2000/svg"><g clip-path="url(#a)"><path fill="url(#b)" d="M0 0h1920v1461H0z"/><path d="m562.639 926.932 6.608 2.13c.934.301 1.72-.477.837-.808a5697.36 5697.36 0 0 0-5.297-1.987c2.075-.066 4.151-.139 6.228-.154 3.712-.026 7.423-.016 11.132-.099 7.419-.166 14.847-.155 22.267-.297 1.278-.024 1.277-1.092 0-1.121-7.425-.166-14.849-.22-22.267-.493-3.709-.137-7.422-.192-11.132-.293-2.715-.074-5.413-.252-8.115-.389 1.138-.652 2.292-1.296 3.44-1.94l5.183-2.909c.713-.401-.351-.986-1.095-.618l-5.513 2.722c-.801.396-1.598.796-2.398 1.192-.261-3.722-.798-7.443-1.178-11.127-.437-4.251-.632-8.513-.927-12.769-.04-.578-1.559-.58-1.592 0-.213 3.733-.401 7.466-.641 11.197-.239 3.736-.877 7.461-1.077 11.197-.016.303-.019.606-.031.909-.247-.14-.49-.283-.737-.422-1.362-.771-2.785-1.505-4.166-2.263-.179-.098-.514.032-.36.157 1.095.881 2.145 1.782 3.268 2.654.641.498 1.294.989 1.941 1.485-.003.136-.01.271-.011.406-2.752.067-5.499.293-8.252.343-3.703.067-7.423.025-11.129.033-7.415.015-14.836.041-22.252-.053-.891-.012-.875.744 0 .775 7.422.266 14.834.612 22.252.904 3.708.145 7.426.241 11.129.416 2.24.107 4.462.321 6.692.48-1.461.99-2.934 1.974-4.414 2.955-.286.19-.331.467 0 .653.305.173.853.183 1.156 0a510.864 510.864 0 0 1 4.88-2.909c.068 1.625.183 3.25.384 4.87.227 1.839.754 3.659.965 5.501.218 1.896.286 3.796.315 5.696.065 4.255.034 8.517.342 12.769.046.649 1.749.651 1.789 0 .448-7.457-.508-14.973 1.083-22.394.452-2.122.644-4.258.693-6.399Zm56.967 27.405a700.4 700.4 0 0 0-22.706-1.557c.457-.227.914-.453 1.371-.683a25.543 25.543 0 0 0 3.485-2.103c.218-.157.272-.37 0-.523-.236-.133-.693-.151-.924 0a27.375 27.375 0 0 1-3.555 1.961c-.697.322-1.473.597-2.275.847-.287-5.213-.875-10.421-.58-15.638.034-.598-1.571-.59-1.637 0-.59 5.232-1.781 10.448-2.374 15.683l-1.118-.559c-1.107-.552-2.093-1.166-3.108-1.772-.523-.313-1.34.154-.834.47.981.611 1.98 1.206 2.858 1.864l.737.548a.825.825 0 0 1-.049.007c-2.096.256-4.296.249-6.43.336-4.341.178-8.674.422-13.001.689-.627.039-.658.584 0 .567 4.105-.107 8.206-.135 12.315-.1 2.043.018 4.14-.018 6.166.144.662.054 1.306.167 1.953.269-.553.338-1.082.689-1.576 1.06a35.906 35.906 0 0 0-2.701 2.234c-.406.371.594.834 1.096.477a35.96 35.96 0 0 1 3.141-1.995l.233-.134c-.057 3.135.999 6.183 1.359 9.309.379 3.272.453 6.555.718 9.831.048.591 1.651.598 1.637 0-.083-3.276-.235-6.557.005-9.831.236-3.238 1.371-6.391 1.331-9.636-.002-.14-.009-.279-.013-.418 1.997.928 3.986 1.862 6.047 2.746.456.196.967-.216.595-.435-1.816-1.07-3.715-2.091-5.604-3.121a336.327 336.327 0 0 1 23.229.322c.862.042 1.075-.785.209-.859Zm-86.34-8.669c-2.826-.164-5.665-.273-8.496-.416-1.379-.068-2.77-.184-4.163-.278 1.416-.913 2.84-1.823 4.333-2.702.459-.27-.244-.666-.724-.409a190.603 190.603 0 0 0-4.648 2.546c-.243-1.096-.602-2.19-.723-3.29-.205-1.878-.066-3.774.011-5.654.019-.448-1.167-.438-1.221 0-.227 1.818-.318 3.645-.632 5.459-.201 1.162-.638 2.329-.902 3.498-.98-.607-1.941-1.224-2.949-1.817-.567-.333-1.447.168-.894.505.963.586 1.881 1.197 2.818 1.798-2.218.144-4.437.481-6.643.616-2.823.174-5.664.26-8.493.394-.689.032-.714.615 0 .615 2.829.001 5.667-.017 8.493.071 2.259.07 4.515.372 6.77.482-.249.165-.508.324-.757.489-1.058.704-1.91 1.494-2.929 2.214-.461.326.353.79.818.463.981-.694 2.153-1.298 3.169-1.976.2-.133.407-.263.61-.396.288 1.388.762 2.765.963 4.161.273 1.884.581 3.76.788 5.65.054.488 1.406.492 1.352 0-.2-1.83-.23-3.625-.191-5.455.029-1.42.374-2.817.598-4.223.812.621 1.616 1.246 2.481 1.844.667.461 2.109-.158 1.473-.642-1.022-.779-2.18-1.501-3.34-2.221 1.513-.099 3.027-.222 4.532-.286 2.832-.119 5.663-.174 8.496-.265.896-.028.871-.724 0-.775Z" opacity=".2" fill="#fff"/><path d="M1300.14 526.35c2.99.962 5.97 1.926 8.96 2.888 1.27.409 2.33-.646 1.14-1.096-2.4-.898-4.79-1.797-7.19-2.694 2.82-.089 5.63-.188 8.45-.208 5.03-.036 10.06-.023 15.09-.135 10.06-.224 20.14-.21 30.2-.402 1.73-.033 1.73-1.481 0-1.52-10.07-.226-20.14-.298-30.2-.669-5.03-.186-10.06-.26-15.09-.398-3.68-.1-7.34-.341-11.01-.527 1.55-.884 3.11-1.757 4.67-2.63 2.34-1.315 4.69-2.631 7.03-3.945.96-.544-.48-1.337-1.49-.839l-7.47 3.693c-1.09.536-2.17 1.078-3.25 1.616-.36-5.047-1.09-10.094-1.6-15.089-.6-5.765-.86-11.545-1.26-17.315-.05-.784-2.11-.786-2.16 0-.29 5.061-.54 10.123-.87 15.183-.32 5.066-1.19 10.118-1.46 15.184-.02.41-.02.821-.04 1.233-.34-.191-.66-.384-1-.574-1.85-1.045-3.78-2.04-5.65-3.068-.24-.133-.7.044-.49.213 1.49 1.194 2.91 2.417 4.43 3.599.87.675 1.76 1.342 2.64 2.013-.01.185-.02.368-.02.551-3.73.091-7.45.397-11.19.465-5.02.091-10.06.034-15.09.045-10.05.021-20.12.055-30.17-.072-1.21-.016-1.19 1.009 0 1.052 10.06.36 20.11.829 30.17 1.225 5.03.197 10.07.327 15.09.565 3.04.144 6.05.435 9.08.65a649.55 649.55 0 0 1-5.99 4.008c-.39.257-.45.632 0 .885.41.234 1.16.248 1.57 0 2.19-1.323 4.39-2.64 6.62-3.945.09 2.204.24 4.407.52 6.604.3 2.493 1.02 4.962 1.31 7.459.29 2.571.38 5.148.42 7.724.09 5.77.05 11.55.47 17.315.06.88 2.37.883 2.42 0 .61-10.111-.69-20.303 1.47-30.366.61-2.878.87-5.774.94-8.678Zm77.25 37.162a948.653 948.653 0 0 0-30.79-2.112c.62-.307 1.24-.613 1.86-.925 1.72-.868 3.3-1.826 4.72-2.853.3-.213.37-.501 0-.708-.32-.181-.94-.206-1.25 0a37.494 37.494 0 0 1-4.82 2.659c-.95.436-2 .809-3.09 1.148-.39-7.069-1.18-14.132-.78-21.206.04-.811-2.13-.799-2.22 0-.8 7.096-2.42 14.168-3.22 21.267-.51-.253-1.01-.506-1.52-.758-1.5-.748-2.84-1.582-4.21-2.403-.71-.425-1.82.209-1.13.638 1.33.828 2.68 1.635 3.87 2.527.33.248.67.495 1 .743a.686.686 0 0 1-.07.01c-2.84.347-5.82.338-8.72.456-5.88.241-11.76.571-17.62.934-.85.053-.9.792 0 .768 5.56-.145 11.12-.183 16.69-.134 2.78.023 5.62-.025 8.37.195.89.072 1.77.226 2.64.364-.74.459-1.46.935-2.13 1.437-1.3.977-2.53 1.989-3.67 3.029-.55.504.81 1.132 1.49.648 1.33-.947 2.75-1.85 4.26-2.706.11-.06.21-.121.32-.182-.08 4.251 1.35 8.386 1.84 12.624.51 4.437.61 8.889.97 13.331.07.801 2.24.811 2.22 0-.11-4.442-.32-8.892.01-13.331.32-4.391 1.86-8.666 1.8-13.067 0-.189-.01-.379-.01-.567 2.7 1.259 5.4 2.526 8.2 3.724.61.265 1.31-.293.8-.59-2.46-1.451-5.03-2.836-7.6-4.232a456.93 456.93 0 0 1 31.5.436c1.17.057 1.46-1.064.29-1.164Zm-117.08-11.756c-3.83-.223-7.68-.37-11.52-.564-1.87-.093-3.76-.25-5.65-.377 1.92-1.239 3.86-2.472 5.88-3.665.62-.365-.33-.902-.98-.554a251.887 251.887 0 0 0-6.3 3.452c-.33-1.486-.82-2.969-.98-4.461-.28-2.546-.09-5.118.01-7.666.03-.608-1.58-.595-1.66 0-.3 2.465-.43 4.943-.85 7.402-.27 1.575-.87 3.158-1.23 4.744-1.33-.824-2.63-1.661-3.99-2.465-.77-.452-1.97.228-1.22.684 1.31.796 2.55 1.625 3.82 2.439-3 .195-6.01.653-9 .836-3.83.235-7.68.352-11.52.533-.93.044-.97.835 0 .835 3.84.001 7.68-.024 11.52.096 3.06.094 6.12.505 9.18.654-.34.223-.69.439-1.03.663-1.43.955-2.59 2.026-3.97 3.003-.63.441.48 1.071 1.11.626 1.33-.941 2.92-1.759 4.29-2.679.28-.181.56-.357.83-.536.39 1.882 1.04 3.748 1.31 5.641.37 2.556.79 5.099 1.07 7.662.07.662 1.9.667 1.83 0-.27-2.481-.31-4.916-.26-7.397.04-1.926.51-3.82.81-5.727 1.1.843 2.19 1.69 3.37 2.501.9.625 2.86-.214 1.99-.87-1.38-1.056-2.95-2.036-4.53-3.012 2.06-.134 4.11-.301 6.15-.387 3.84-.162 7.68-.237 11.52-.36 1.22-.038 1.18-.982 0-1.051Z" opacity=".3" fill="#fff"/><path d="m1621.12 905.88 5.79 1.867c.82.265 1.51-.418.74-.708l-4.65-1.742c1.82-.058 3.64-.122 5.46-.135 3.26-.023 6.51-.014 9.76-.087 6.51-.145 13.02-.136 19.53-.26 1.12-.021 1.12-.958 0-.983-6.51-.146-13.02-.193-19.53-.433-3.25-.12-6.5-.168-9.76-.257-2.38-.065-4.74-.221-7.11-.341 1-.571 2.01-1.136 3.01-1.7 1.52-.851 3.03-1.701 4.55-2.551.62-.352-.31-.865-.96-.542-1.61.795-3.22 1.591-4.84 2.387-.7.347-1.4.697-2.1 1.045-.23-3.263-.7-6.527-1.03-9.757-.38-3.727-.56-7.465-.81-11.196-.04-.507-1.37-.508-1.4 0-.19 3.273-.35 6.546-.56 9.818-.21 3.276-.77 6.542-.95 9.818-.01.265-.01.531-.02.797-.22-.123-.43-.248-.65-.371-1.19-.675-2.44-1.319-3.65-1.983-.16-.087-.45.028-.32.137.96.772 1.88 1.563 2.87 2.327.56.437 1.13.868 1.7 1.302 0 .119-.01.238-.01.356-2.41.059-4.82.257-7.24.301-3.24.059-6.5.022-9.75.029-6.51.014-13.01.036-19.52-.047-.78-.01-.76.653 0 .681 6.51.233 13.01.535 19.52.792 3.25.127 6.51.211 9.75.365 1.97.093 3.92.281 5.87.42-1.28.869-2.57 1.731-3.87 2.592-.25.167-.29.409 0 .572.27.152.75.161 1.02 0 1.41-.855 2.84-1.707 4.27-2.551.06 1.425.16 2.85.34 4.271.2 1.612.66 3.208.85 4.823.19 1.662.25 3.329.27 4.995.06 3.73.03 7.467.3 11.196.04.568 1.54.571 1.57 0 .39-6.539-.44-13.129.95-19.636.4-1.861.57-3.734.61-5.611Zm49.96 24.028a612.938 612.938 0 0 0-19.91-1.365l1.21-.599c1.11-.561 2.13-1.18 3.05-1.844.19-.138.24-.324 0-.458-.21-.117-.61-.133-.81 0-.95.623-1.99 1.199-3.12 1.719-.61.282-1.29.524-1.99.742-.25-4.57-.77-9.137-.51-13.712.03-.524-1.38-.516-1.44 0-.51 4.589-1.56 9.162-2.08 13.752-.32-.163-.65-.327-.98-.49-.97-.484-1.83-1.023-2.72-1.554-.46-.274-1.18.135-.73.413.86.535 1.73 1.057 2.5 1.633.22.161.43.321.65.481l-.04.006c-1.84.225-3.77.219-5.64.295-3.81.156-7.61.37-11.4.604-.55.035-.58.513 0 .497 3.6-.094 7.19-.118 10.8-.087 1.79.015 3.63-.016 5.4.126.58.047 1.15.146 1.72.236-.49.296-.95.604-1.39.929-.84.632-1.63 1.286-2.37 1.959-.35.325.53.731.97.419.86-.613 1.77-1.197 2.75-1.75.07-.039.14-.078.2-.118-.05 2.749.88 5.422 1.2 8.163.33 2.869.39 5.748.63 8.62.04.518 1.44.524 1.43 0-.07-2.872-.21-5.75 0-8.62.21-2.839 1.21-5.603 1.17-8.449 0-.123-.01-.245-.01-.367 1.75.814 3.5 1.633 5.3 2.408.4.172.85-.189.52-.381-1.59-.939-3.25-1.834-4.91-2.737 6.82-.139 13.56-.047 20.37.282.75.037.94-.688.18-.753Zm-75.72-7.601c-2.48-.144-4.97-.239-7.45-.364-1.21-.061-2.43-.162-3.65-.244 1.24-.801 2.49-1.599 3.8-2.37.4-.236-.21-.583-.63-.359-1.38.73-2.74 1.474-4.08 2.233-.21-.961-.53-1.92-.63-2.885-.18-1.646-.06-3.309.01-4.957.01-.393-1.03-.385-1.07 0-.2 1.594-.28 3.196-.56 4.786-.17 1.019-.56 2.043-.79 3.068-.86-.533-1.7-1.074-2.58-1.594-.5-.292-1.27.148-.79.443.85.514 1.65 1.05 2.47 1.577-1.94.126-3.89.422-5.82.54-2.48.152-4.97.228-7.45.345-.6.028-.62.54 0 .54 2.48 0 4.97-.016 7.45.062 1.98.061 3.96.326 5.93.422-.21.145-.44.285-.66.429-.93.618-1.67 1.31-2.57 1.942-.4.285.31.692.72.405.86-.609 1.89-1.138 2.78-1.732.17-.117.36-.231.53-.347.26 1.217.67 2.424.85 3.648.24 1.652.51 3.297.69 4.954.05.428 1.23.431 1.18 0-.17-1.605-.2-3.179-.16-4.783.02-1.245.32-2.47.52-3.703.71.545 1.42 1.092 2.18 1.617.58.404 1.85-.139 1.29-.563-.9-.683-1.91-1.316-2.93-1.947 1.33-.087 2.65-.195 3.97-.251 2.49-.104 4.97-.153 7.45-.232.79-.025.77-.635 0-.68Z" opacity=".5" fill="#fff"/><path d="m1661.41 381.395 4.08 1.318c.58.186 1.07-.295.52-.5l-3.27-1.229c1.28-.041 2.56-.086 3.85-.095 2.29-.016 4.59-.01 6.88-.062 4.59-.102 9.19-.096 13.78-.183.79-.015.79-.676 0-.694-4.59-.103-9.19-.136-13.78-.305-2.29-.085-4.59-.118-6.88-.181-1.68-.046-3.35-.156-5.02-.241.7-.403 1.42-.801 2.13-1.2 1.07-.599 2.13-1.2 3.2-1.799.44-.248-.21-.61-.67-.383l-3.42 1.685c-.49.244-.98.491-1.48.737-.16-2.303-.49-4.605-.73-6.884-.27-2.629-.39-5.266-.57-7.899-.03-.357-.97-.358-.99 0-.13 2.309-.24 4.619-.39 6.927-.15 2.311-.54 4.616-.67 6.927-.01.187-.01.374-.02.562l-.45-.261c-.85-.477-1.73-.931-2.58-1.4-.11-.061-.32.02-.22.097.67.545 1.32 1.102 2.02 1.642.39.308.8.612 1.2.918 0 .084-.01.168-.01.252-1.7.041-3.4.181-5.1.212-2.29.041-4.59.015-6.89.02-4.58.01-9.18.025-13.76-.033-.55-.007-.54.461 0 .48 4.59.165 9.17.378 13.76.559 2.3.09 4.6.149 6.89.258 1.38.065 2.76.198 4.14.296-.91.613-1.82 1.221-2.73 1.829-.18.117-.21.288 0 .404.19.106.52.113.71 0 1-.604 2.01-1.205 3.02-1.8a33.9 33.9 0 0 0 .24 3.013c.14 1.137.46 2.263.6 3.402.13 1.173.17 2.349.19 3.524.04 2.632.02 5.269.21 7.899.03.401 1.08.403 1.11 0 .28-4.613-.32-9.262.67-13.853.28-1.313.4-2.634.43-3.959Zm35.24 16.953c-4.65-.399-9.35-.715-14.05-.964.29-.14.57-.279.85-.422.79-.396 1.51-.833 2.16-1.301.13-.097.17-.229 0-.323-.15-.083-.43-.094-.57 0-.67.439-1.41.846-2.2 1.213-.43.199-.91.369-1.41.523-.18-3.224-.54-6.446-.36-9.674.02-.37-.97-.364-1.01 0-.37 3.237-1.1 6.464-1.47 9.702l-.69-.345c-.69-.342-1.3-.722-1.92-1.097-.33-.193-.83.096-.52.291.61.378 1.23.746 1.77 1.153l.45.339-.03.005c-1.29.158-2.65.154-3.97.208-2.69.11-5.37.26-8.05.426-.38.024-.4.361 0 .35 2.54-.066 5.08-.083 7.62-.061 1.27.011 2.56-.011 3.82.089.41.033.8.103 1.2.166-.34.209-.66.427-.97.656-.59.445-1.15.907-1.67 1.382-.25.229.37.516.68.295.6-.432 1.25-.844 1.94-1.234.05-.028.1-.055.14-.083-.03 1.939.62 3.825.84 5.758.24 2.025.28 4.056.45 6.082.03.366 1.02.37 1.01 0-.05-2.026-.14-4.056 0-6.082.15-2.003.85-3.953.83-5.961 0-.086-.01-.172-.01-.258 1.24.574 2.47 1.152 3.74 1.699.28.121.6-.134.37-.269-1.12-.663-2.3-1.294-3.47-1.931 4.81-.098 9.57-.034 14.37.199.53.026.67-.485.13-.531Zm-53.41-5.362c-1.75-.102-3.51-.169-5.26-.257-.85-.043-1.71-.114-2.57-.172.87-.565 1.75-1.128 2.68-1.672.28-.167-.15-.412-.45-.253-.97.515-1.93 1.04-2.88 1.575-.15-.678-.37-1.354-.44-2.035-.13-1.162-.04-2.335 0-3.498.02-.277-.72-.271-.75 0-.14 1.125-.2 2.255-.39 3.377-.13.719-.4 1.441-.56 2.164-.61-.375-1.2-.757-1.82-1.124-.36-.206-.9.104-.56.312.6.363 1.17.741 1.75 1.113-1.38.089-2.75.298-4.11.381-1.75.107-3.51.161-5.26.243-.42.02-.44.381 0 .381 1.75.001 3.51-.011 5.26.044 1.39.043 2.79.23 4.18.298-.15.102-.31.201-.46.303-.66.435-1.19.924-1.82 1.37-.28.201.22.488.51.285.61-.429 1.33-.802 1.96-1.222.12-.082.25-.163.38-.245.18.859.47 1.711.59 2.574.17 1.166.36 2.326.49 3.495.03.302.87.305.84 0-.13-1.132-.14-2.242-.12-3.374.02-.879.23-1.743.37-2.613.5.385 1 .771 1.53 1.141.42.285 1.31-.098.92-.397-.64-.481-1.35-.929-2.07-1.374.94-.061 1.87-.137 2.8-.176 1.75-.074 3.51-.108 5.26-.164.55-.018.54-.449 0-.48Zm-132.33-263.922c2.79.898 5.57 1.797 8.36 2.695 1.18.382 2.18-.603 1.06-1.023-2.24-.838-4.47-1.676-6.7-2.513 2.62-.083 5.25-.176 7.88-.194 4.69-.033 9.39-.021 14.08-.126 9.39-.21 18.78-.196 28.17-.375 1.62-.031 1.62-1.382 0-1.419-9.39-.21-18.79-.278-28.17-.624-4.69-.173-9.39-.243-14.08-.37-3.44-.094-6.85-.319-10.27-.492 1.44-.825 2.9-1.639 4.35-2.455 2.19-1.226 4.37-2.454 6.56-3.68.9-.508-.44-1.248-1.39-.782-2.32 1.148-4.65 2.296-6.97 3.444-1.01.501-2.02 1.006-3.03 1.508-.33-4.709-1.01-9.417-1.5-14.077-.55-5.379-.79-10.771-1.17-16.155-.05-.731-1.97-.733-2.01 0-.27 4.722-.51 9.445-.81 14.166-.31 4.726-1.11 9.439-1.37 14.166-.02.382-.02.766-.04 1.15-.31-.177-.61-.358-.93-.535-1.72-.975-3.52-1.904-5.27-2.862-.22-.125-.65.041-.45.198 1.38 1.114 2.71 2.255 4.13 3.358.81.63 1.64 1.252 2.46 1.878-.01.172-.02.343-.02.514-3.48.085-6.95.371-10.44.434-4.68.085-9.39.032-14.08.042-9.38.02-18.77.052-28.15-.068-1.13-.014-1.11.942 0 .982 9.39.337 18.77.773 28.15 1.143 4.69.184 9.4.305 14.08.527 2.84.135 5.65.406 8.47.607a583.841 583.841 0 0 1-5.59 3.739c-.36.24-.41.59 0 .826.39.218 1.08.232 1.47 0 2.04-1.234 4.1-2.463 6.17-3.681.09 2.056.23 4.112.49 6.162.28 2.326.95 4.629 1.22 6.958.27 2.399.36 4.804.4 7.207.08 5.383.04 10.775.43 16.155.06.82 2.21.824 2.26 0 .57-9.434-.64-18.943 1.37-28.332.57-2.684.82-5.387.88-8.096Zm72.06 34.672a883.31 883.31 0 0 0-28.72-1.97c.58-.287 1.15-.572 1.73-.864a32.516 32.516 0 0 0 4.41-2.661c.28-.199.35-.468 0-.661-.3-.168-.88-.192-1.17 0a34.41 34.41 0 0 1-4.5 2.481c-.88.407-1.86.755-2.87 1.071-.37-6.595-1.11-13.184-.74-19.784.04-.757-1.99-.746-2.07 0-.75 6.62-2.25 13.218-3 19.841-.47-.236-.94-.472-1.42-.707-1.4-.698-2.65-1.476-3.93-2.242-.66-.396-1.69.195-1.05.595 1.24.773 2.5 1.526 3.61 2.358l.93.693a.62.62 0 0 1-.06.009c-2.65.324-5.43.316-8.13.426-5.49.225-10.98.533-16.45.871-.79.05-.83.739 0 .717 5.19-.135 10.38-.171 15.58-.125 2.58.022 5.24-.024 7.8.181.84.068 1.65.211 2.47.34-.7.428-1.37.873-1.99 1.341a44.763 44.763 0 0 0-3.42 2.826c-.51.47.75 1.056 1.39.605a45.3 45.3 0 0 1 4.27-2.695c-.08 3.967 1.26 7.824 1.71 11.778.48 4.139.58 8.293.91 12.437.06.748 2.09.757 2.07 0-.1-4.144-.29-8.295.01-12.437.3-4.097 1.73-8.085 1.68-12.191 0-.177-.01-.353-.01-.529 2.52 1.175 5.04 2.356 7.65 3.475.57.247 1.22-.274.75-.551-2.3-1.354-4.7-2.646-7.09-3.948 9.84-.201 19.56-.069 29.39.407 1.09.052 1.36-.993.26-1.087Zm-109.23-10.968c-3.57-.208-7.17-.345-10.75-.526-1.74-.087-3.5-.234-5.26-.352 1.79-1.155 3.59-2.306 5.48-3.419.58-.341-.31-.841-.92-.517a242.714 242.714 0 0 0-5.88 3.221c-.31-1.387-.76-2.77-.91-4.162-.26-2.376-.09-4.775.01-7.153.02-.567-1.48-.555-1.54 0-.29 2.3-.41 4.612-.8 6.906-.26 1.47-.81 2.947-1.14 4.426-1.24-.769-2.46-1.549-3.74-2.299-.71-.422-1.83.212-1.13.638 1.22.742 2.38 1.516 3.57 2.276-2.81.182-5.61.608-8.41.779-3.57.22-7.16.329-10.74.498-.87.041-.9.779 0 .779 3.58.001 7.17-.022 10.74.089 2.86.088 5.72.471 8.57.61-.32.208-.64.41-.96.619-1.34.891-2.42 1.89-3.7 2.801-.59.412.44 1 1.03.585 1.24-.878 2.72-1.641 4.01-2.5.25-.168.52-.333.77-.5.37 1.756.97 3.497 1.22 5.263.35 2.385.74 4.757 1 7.149.07.617 1.78.622 1.71 0-.26-2.315-.29-4.587-.24-6.902.03-1.797.47-3.563.75-5.343 1.03.787 2.05 1.577 3.14 2.333.85.584 2.67-.199 1.87-.812-1.3-.985-2.76-1.899-4.23-2.809 1.91-.126 3.83-.281 5.73-.362 3.59-.151 7.17-.22 10.75-.335 1.14-.035 1.1-.917 0-.981Z" opacity=".2" fill="#fff"/><path d="m671.85 512.528 7.035 2.268c.995.321 1.832-.508.892-.86l-5.64-2.116c2.21-.069 4.42-.147 6.631-.163 3.952-.028 7.903-.018 11.852-.106 7.9-.176 15.808-.165 23.708-.316 1.362-.026 1.36-1.163 0-1.193-7.904-.178-15.809-.234-23.708-.526-3.949-.145-7.901-.204-11.852-.312-2.89-.078-5.763-.268-8.64-.414 1.212-.694 2.44-1.379 3.663-2.065l5.518-3.098c.759-.427-.373-1.049-1.166-.658l-5.869 2.899c-.854.422-1.702.847-2.554 1.269-.277-3.963-.85-7.925-1.254-11.847-.465-4.526-.673-9.065-.987-13.595-.042-.616-1.66-.618-1.695 0-.227 3.974-.427 7.948-.682 11.921-.255 3.978-.934 7.944-1.148 11.922-.016.322-.019.645-.032.968-.263-.149-.522-.302-.785-.45-1.45-.821-2.966-1.602-4.435-2.409-.191-.105-.548.034-.384.167 1.166.938 2.284 1.897 3.479 2.826.683.53 1.378 1.053 2.067 1.58-.003.145-.01.289-.011.433-2.93.071-5.855.312-8.787.365-3.942.071-7.903.027-11.849.035-7.895.017-15.796.044-23.691-.057-.949-.012-.933.793 0 .827 7.901.283 15.793.65 23.691.961 3.948.155 7.907.257 11.849.444 2.386.113 4.752.342 7.126.511a540.98 540.98 0 0 1-4.701 3.146c-.304.203-.351.497 0 .696.326.183.91.195 1.232 0a535.348 535.348 0 0 1 5.195-3.098c.073 1.73.196 3.461.41 5.185.241 1.958.802 3.896 1.027 5.857.232 2.019.304 4.042.336 6.065.069 4.53.036 9.068.363 13.595.049.691 1.863.693 1.906 0 .476-7.939-.541-15.942 1.152-23.843.482-2.26.686-4.534.738-6.814Zm60.649 29.178a744.902 744.902 0 0 0-24.175-1.657c.487-.242.973-.482 1.46-.727a27.257 27.257 0 0 0 3.711-2.24c.231-.167.289-.394 0-.556-.252-.142-.739-.162-.985 0a29.224 29.224 0 0 1-3.785 2.087c-.741.343-1.568.636-2.422.902-.306-5.55-.932-11.096-.618-16.65.036-.637-1.672-.628-1.743 0-.628 5.571-1.895 11.124-2.527 16.698l-1.19-.595c-1.179-.588-2.229-1.242-3.31-1.887-.557-.333-1.427.164-.887.501 1.044.65 2.107 1.284 3.043 1.984l.784.584a.849.849 0 0 1-.053.007c-2.231.273-4.573.266-6.846.358-4.621.19-9.235.449-13.841.734-.668.042-.701.622 0 .603 4.37-.114 8.736-.144 13.111-.106 2.176.019 4.408-.019 6.565.153.706.057 1.391.178 2.08.286-.588.361-1.152.735-1.678 1.129a38.668 38.668 0 0 0-2.876 2.378c-.432.396.633.889 1.167.509a38.231 38.231 0 0 1 3.344-2.125c.084-.047.166-.094.249-.143-.061 3.338 1.063 6.584 1.446 9.912.403 3.484.482 6.98.765 10.467.051.63 1.758.637 1.743 0-.089-3.487-.25-6.981.005-10.467.251-3.447 1.46-6.804 1.417-10.26-.002-.148-.01-.297-.013-.444 2.126.988 4.243 1.982 6.438 2.924.485.207 1.029-.231.633-.464-1.933-1.14-3.956-2.227-5.966-3.323a358.49 358.49 0 0 1 24.732.343c.917.044 1.144-.836.222-.915Zm-91.925-9.23c-3.008-.175-6.032-.29-9.046-.443-1.468-.073-2.949-.196-4.432-.296 1.508-.973 3.023-1.941 4.613-2.877.489-.287-.259-.709-.771-.436-1.667.886-3.326 1.79-4.949 2.711-.258-1.167-.641-2.331-.769-3.502-.219-2-.071-4.019.011-6.02.02-.477-1.242-.467-1.3 0-.242 1.935-.339 3.881-.672 5.812-.214 1.237-.679 2.48-.961 3.725-1.044-.647-2.066-1.305-3.14-1.936-.603-.354-1.54.179-.952.538 1.026.624 2.003 1.275 3.001 1.915-2.361.153-4.724.512-7.073.656-3.006.185-6.031.277-9.043.419-.733.034-.759.655 0 .655 3.012.001 6.034-.019 9.043.075 2.405.074 4.807.397 7.208.513-.265.176-.541.346-.806.521-1.126.75-2.034 1.591-3.119 2.358-.49.346.377.841.871.492 1.044-.739 2.292-1.381 3.374-2.103.214-.142.434-.281.65-.422.307 1.478.812 2.944 1.025 4.43.291 2.007.619 4.003.839 6.016.058.52 1.498.523 1.44 0-.214-1.949-.245-3.86-.204-5.808.032-1.512.398-2.999.637-4.497.864.662 1.721 1.327 2.642 1.963.71.492 2.246-.168 1.568-.683-1.088-.829-2.321-1.598-3.556-2.364 1.611-.106 3.222-.237 4.825-.304 3.016-.128 6.029-.186 9.046-.283.954-.029.928-.771 0-.825Z" opacity=".3" fill="#fff"/><path d="m279.745 669.55 4.645 1.497c.657.212 1.209-.335.588-.568l-3.723-1.397c1.459-.046 2.918-.097 4.378-.108 2.609-.018 5.218-.011 7.825-.07 5.216-.116 10.437-.109 15.653-.208.898-.017.897-.768 0-.788-5.219-.117-10.438-.154-15.653-.347-2.607-.096-5.217-.135-7.825-.206-1.908-.052-3.805-.177-5.704-.273.8-.459 1.611-.911 2.418-1.364l3.643-2.045c.502-.282-.246-.693-.769-.434l-3.876 1.914c-.563.278-1.123.559-1.685.837-.184-2.616-.562-5.232-.829-7.821-.307-2.989-.443-5.985-.651-8.976-.028-.406-1.096-.408-1.119 0-.15 2.623-.282 5.248-.45 7.871-.169 2.626-.617 5.244-.758 7.87-.011.213-.013.426-.022.64-.173-.099-.344-.2-.518-.298-.957-.541-1.958-1.057-2.928-1.59-.126-.069-.362.023-.253.11.77.619 1.508 1.253 2.297 1.866.45.35.909.695 1.364 1.044-.002.095-.006.19-.007.285-1.935.047-3.866.206-5.801.241-2.603.047-5.218.018-7.823.023-5.212.011-10.429.029-15.642-.037-.626-.008-.615.523 0 .545 5.217.187 10.427.43 15.642.635 2.606.103 5.22.17 7.823.293 1.575.075 3.137.226 4.704.337a363.896 363.896 0 0 1-3.103 2.078c-.201.133-.232.328 0 .459.215.121.6.129.813 0a337.318 337.318 0 0 1 3.43-2.045c.048 1.142.129 2.284.27 3.423.16 1.293.53 2.572.679 3.867.153 1.333.201 2.669.221 4.004.046 2.991.024 5.987.24 8.976.033.456 1.23.457 1.258 0 .315-5.242-.357-10.525.761-15.742.318-1.492.453-2.993.487-4.498Zm40.05 19.263a489.039 489.039 0 0 0-15.961-1.094c.321-.16.643-.318.964-.48.894-.45 1.713-.947 2.45-1.479.153-.11.191-.26 0-.367-.166-.094-.487-.107-.65 0-.761.499-1.596.961-2.499 1.378-.49.226-1.036.42-1.599.595-.202-3.664-.615-7.325-.408-10.992.024-.421-1.104-.415-1.151 0-.414 3.678-1.251 7.344-1.668 11.024l-.786-.393c-.778-.388-1.472-.82-2.185-1.246-.368-.22-.942.109-.586.331.689.429 1.391.848 2.009 1.31a173 173 0 0 0 .518.385l-.035.005c-1.473.18-3.02.176-4.52.237-3.051.125-6.097.296-9.138.484-.441.028-.463.411 0 .398 2.885-.075 5.768-.095 8.656-.07 1.436.013 2.91-.012 4.335.102.465.037.918.117 1.373.188-.389.238-.761.485-1.109.746a25.173 25.173 0 0 0-1.898 1.57c-.286.261.418.586.771.336a25.08 25.08 0 0 1 2.207-1.403l.164-.095c-.04 2.204.703 4.347.956 6.544.265 2.3.318 4.608.504 6.911.034.415 1.161.42 1.151 0-.059-2.303-.165-4.609.003-6.911.166-2.276.964-4.492.936-6.773-.001-.099-.007-.197-.009-.294 1.404.653 2.802 1.309 4.251 1.93.32.138.679-.152.418-.305-1.277-.753-2.612-1.471-3.939-2.194a236.454 236.454 0 0 1 16.328.226c.606.029.756-.552.147-.604Zm-60.694-6.094c-1.987-.115-3.983-.191-5.972-.292-.97-.048-1.948-.13-2.927-.195a86.287 86.287 0 0 1 3.046-1.9c.322-.19-.171-.468-.509-.288a133.753 133.753 0 0 0-3.267 1.79c-.171-.771-.424-1.539-.508-2.312-.145-1.321-.047-2.653.007-3.975.013-.315-.82-.308-.858 0-.16 1.278-.224 2.563-.444 3.837-.141.817-.449 1.638-.634 2.46-.689-.428-1.365-.861-2.073-1.278-.399-.234-1.017.118-.629.355.677.412 1.322.842 1.981 1.264-1.559.101-3.118.338-4.67.433-1.984.122-3.981.183-5.97.277-.484.022-.501.432 0 .432 1.989.001 3.984-.012 5.97.05 1.588.049 3.174.262 4.759.339-.175.116-.357.228-.532.344-.743.495-1.343 1.05-2.059 1.556-.323.229.249.556.575.325.69-.488 1.514-.912 2.228-1.389.141-.093.286-.185.429-.278.202.976.536 1.943.677 2.925.192 1.325.408 2.643.553 3.972.038.343.989.345.951 0-.141-1.287-.161-2.549-.134-3.835.02-.998.262-1.98.42-2.969.571.437 1.136.876 1.744 1.296.469.325 1.483-.11 1.036-.451-.719-.547-1.533-1.055-2.348-1.561 1.064-.069 2.127-.156 3.186-.201 1.99-.083 3.98-.122 5.972-.186.629-.019.612-.509 0-.545Z" opacity=".5" fill="#fff"/><path d="m675.023 111.713 4.459 1.437c.631.204 1.161-.322.565-.545l-3.574-1.341c1.4-.044 2.801-.094 4.202-.104 2.505-.017 5.01-.011 7.513-.067 5.007-.111 10.019-.104 15.026-.2.863-.016.862-.737 0-.756-5.01-.113-10.02-.149-15.026-.333-2.503-.093-5.009-.13-7.513-.198-1.832-.05-3.652-.17-5.476-.262.768-.44 1.547-.875 2.322-1.309l3.497-1.964c.482-.27-.236-.665-.739-.417l-3.72 1.837c-.541.268-1.078.537-1.618.805-.176-2.512-.539-5.023-.795-7.509-.295-2.869-.426-5.745-.625-8.617-.028-.39-1.053-.391-1.075 0-.144 2.519-.271 5.038-.432 7.556-.162 2.521-.592 5.035-.728 7.556-.01.204-.012.409-.021.614-.166-.095-.33-.192-.497-.286-.919-.52-1.879-1.015-2.811-1.526-.121-.067-.347.021-.243.105.739.595 1.448 1.203 2.205 1.791.433.336.873.668 1.31 1.002-.002.092-.006.183-.007.275-1.857.045-3.711.197-5.569.231-2.499.045-5.009.017-7.51.022-5.004.011-10.012.028-15.016-.036-.602-.007-.591.503 0 .524 5.008.179 10.01.412 15.016.609 2.502.099 5.011.163 7.51.282 1.512.071 3.012.216 4.516.323a350.67 350.67 0 0 1-2.979 1.995c-.193.128-.223.314 0 .44.206.117.576.124.781 0a361.952 361.952 0 0 1 3.292-1.963c.046 1.097.124 2.193.26 3.286.153 1.241.508 2.47.651 3.712.147 1.28.193 2.563.213 3.845.044 2.871.023 5.747.23 8.616.031.438 1.181.44 1.208 0 .302-5.032-.343-10.104.73-15.112.306-1.432.435-2.873.468-4.318Zm38.443 18.494a472.525 472.525 0 0 0-15.323-1.05c.309-.153.617-.306.925-.461a17.128 17.128 0 0 0 2.352-1.42c.147-.106.184-.249 0-.352-.159-.09-.467-.102-.624 0-.73.479-1.532.923-2.399 1.323-.47.217-.994.403-1.535.571-.193-3.517-.59-7.032-.391-10.553.023-.403-1.06-.397-1.105 0-.398 3.532-1.201 7.051-1.602 10.584l-.754-.377c-.747-.373-1.413-.787-2.098-1.196-.353-.211-.904.104-.562.317.661.412 1.335.814 1.928 1.258l.497.37-.033.005c-1.414.172-2.899.168-4.339.227-2.929.12-5.853.284-8.773.464-.423.027-.444.395 0 .383 2.77-.073 5.537-.091 8.31-.067 1.379.012 2.794-.013 4.161.097.447.036.882.112 1.318.181-.373.228-.73.465-1.063.715-.648.486-1.257.99-1.823 1.508-.274.25.401.563.74.322a24.374 24.374 0 0 1 2.119-1.347l.158-.09c-.039 2.116.674 4.173.917 6.282.255 2.208.305 4.424.484 6.634.033.399 1.114.404 1.105 0-.056-2.21-.159-4.425.003-6.634.159-2.185.925-4.312.898-6.503-.001-.094-.006-.188-.008-.282 1.347.627 2.689 1.257 4.081 1.854.307.132.652-.146.401-.294-1.226-.722-2.507-1.411-3.782-2.106a227.002 227.002 0 0 1 15.676.217c.581.028.725-.53.141-.58Zm-58.262-5.851c-1.907-.111-3.823-.184-5.733-.281-.931-.046-1.87-.125-2.81-.188a85.118 85.118 0 0 1 2.924-1.823c.31-.182-.164-.449-.489-.276a126.76 126.76 0 0 0-3.136 1.718c-.164-.74-.407-1.478-.488-2.22-.138-1.267-.045-2.547.007-3.816.013-.302-.787-.295-.824 0-.153 1.227-.214 2.46-.426 3.684-.135.784-.43 1.572-.609 2.361-.661-.41-1.309-.827-1.99-1.227-.382-.224-.976.114-.603.341.65.396 1.269.808 1.902 1.214-1.497.097-2.994.325-4.483.416-1.905.117-3.823.175-5.732.265-.465.022-.481.415 0 .415 1.909.001 3.825-.011 5.732.048 1.524.047 3.047.251 4.568.325-.168.112-.343.219-.511.331-.713.475-1.289 1.008-1.976 1.494-.311.219.238.533.552.312.662-.469 1.452-.876 2.138-1.333.136-.09.275-.178.412-.268.195.937.515 1.866.65 2.808.184 1.272.392 2.537.531 3.813.037.329.95.332.913 0-.135-1.235-.155-2.446-.129-3.681.02-.959.252-1.901.403-2.85.549.419 1.091.841 1.675 1.244.45.311 1.423-.106.994-.433-.69-.525-1.471-1.013-2.254-1.498 1.021-.067 2.043-.15 3.059-.193 1.911-.081 3.821-.118 5.733-.179.604-.019.588-.489 0-.523Z" opacity=".2" fill="#fff"/><path d="M1079.15 741.225c2.79.898 5.58 1.797 8.36 2.695 1.18.382 2.18-.603 1.06-1.022-2.23-.839-4.47-1.677-6.7-2.514 2.62-.083 5.25-.176 7.88-.194 4.69-.033 9.39-.021 14.08-.126 9.39-.21 18.79-.196 28.17-.375 1.62-.031 1.62-1.382 0-1.418-9.39-.211-18.78-.278-28.17-.625-4.69-.173-9.39-.242-14.08-.37-3.44-.094-6.85-.319-10.27-.492 1.44-.825 2.9-1.639 4.35-2.454 2.19-1.227 4.38-2.455 6.56-3.681.9-.508-.44-1.248-1.38-.782-2.33 1.148-4.65 2.296-6.98 3.444-1.01.501-2.02 1.006-3.03 1.508-.33-4.708-1.01-9.417-1.49-14.077-.56-5.378-.8-10.771-1.18-16.155-.05-.731-1.97-.733-2.01 0-.27 4.722-.51 9.445-.81 14.166-.3 4.726-1.11 9.439-1.36 14.166-.02.383-.03.766-.04 1.15-.32-.177-.62-.358-.93-.535-1.73-.975-3.53-1.903-5.28-2.862-.22-.125-.65.041-.45.199 1.38 1.114 2.71 2.254 4.13 3.357.81.63 1.64 1.252 2.46 1.878-.01.173-.01.343-.02.514-3.48.085-6.95.371-10.44.434-4.68.085-9.39.032-14.07.042-9.39.02-18.78.052-28.16-.067-1.12-.015-1.1.942 0 .981 9.39.337 18.77.773 28.16 1.143 4.69.184 9.39.305 14.07.527 2.84.135 5.65.406 8.47.607a741.881 741.881 0 0 1-5.58 3.739c-.36.24-.42.59 0 .826.38.218 1.08.232 1.46 0 2.05-1.234 4.1-2.463 6.17-3.681.09 2.056.24 4.112.49 6.162.29 2.326.95 4.629 1.22 6.958.28 2.399.36 4.804.4 7.207.08 5.383.04 10.776.43 16.155.06.82 2.21.824 2.27 0 .56-9.434-.65-18.943 1.36-28.332.58-2.684.82-5.387.88-8.096Zm72.07 34.672a888.705 888.705 0 0 0-28.73-1.97c.58-.287 1.16-.572 1.73-.863 1.61-.81 3.09-1.703 4.41-2.662.28-.198.35-.468 0-.661-.3-.168-.87-.192-1.17 0a34.933 34.933 0 0 1-4.49 2.481c-.89.407-1.87.756-2.88 1.071-.37-6.595-1.11-13.184-.74-19.784.05-.757-1.98-.746-2.07 0-.74 6.62-2.25 13.218-3 19.841l-1.41-.707c-1.4-.698-2.65-1.475-3.94-2.242-.66-.396-1.69.195-1.05.596 1.24.772 2.5 1.525 3.61 2.357.32.231.63.462.94.693-.03.004-.04.007-.07.009-2.65.325-5.43.316-8.13.426-5.49.225-10.97.533-16.45.871-.79.05-.83.739 0 .717 5.19-.135 10.38-.171 15.58-.125 2.59.022 5.24-.024 7.8.182.84.067 1.66.21 2.47.339-.7.428-1.37.873-1.99 1.342a46.53 46.53 0 0 0-3.42 2.825c-.51.47.75 1.056 1.39.605a45.3 45.3 0 0 1 4.27-2.695c-.07 3.967 1.26 7.824 1.72 11.778.48 4.14.57 8.293.91 12.437.06.748 2.08.757 2.07 0-.11-4.144-.3-8.295 0-12.437.3-4.096 1.74-8.085 1.69-12.191-.01-.177-.02-.353-.02-.529 2.53 1.175 5.04 2.356 7.65 3.475.58.247 1.22-.274.75-.551-2.29-1.354-4.7-2.646-7.09-3.948 9.84-.201 19.56-.069 29.39.407 1.09.053 1.36-.993.27-1.087Zm-109.24-10.967c-3.57-.209-7.16-.346-10.74-.527-1.75-.087-3.51-.233-5.27-.351 1.79-1.156 3.59-2.307 5.48-3.42.58-.341-.31-.841-.92-.517a246.212 246.212 0 0 0-5.88 3.221c-.3-1.387-.76-2.77-.91-4.162-.26-2.376-.08-4.775.01-7.153.03-.567-1.47-.555-1.54 0-.29 2.3-.4 4.612-.8 6.906-.26 1.47-.81 2.947-1.14 4.426-1.24-.768-2.46-1.549-3.73-2.299-.72-.422-1.83.213-1.13.638 1.21.743 2.37 1.516 3.56 2.276-2.8.182-5.61.609-8.4.78-3.57.219-7.17.328-10.748.497-.872.041-.903.779 0 .779 3.578.001 7.168-.022 10.748.089 2.85.088 5.71.471 8.56.61-.31.208-.64.41-.96.619-1.33.891-2.41 1.89-3.7 2.801-.58.412.45 1 1.03.585 1.24-.878 2.73-1.641 4.01-2.499.26-.169.52-.333.77-.501.37 1.756.97 3.497 1.22 5.263.35 2.385.74 4.758 1 7.149.07.618 1.78.622 1.71 0-.25-2.315-.29-4.586-.24-6.902.04-1.796.47-3.563.75-5.342 1.03.786 2.05 1.576 3.14 2.332.85.584 2.67-.199 1.87-.811-1.3-.985-2.76-1.9-4.23-2.81 1.92-.126 3.83-.281 5.74-.362 3.58-.151 7.16-.22 10.74-.335 1.14-.035 1.11-.916 0-.98Zm493.05 399.32c1.18.38 2.35.76 3.53 1.14.5.16.92-.26.45-.44-.95-.35-1.89-.7-2.83-1.06 1.11-.03 2.21-.07 3.32-.08 1.99-.01 3.97-.01 5.95-.05 3.97-.09 7.94-.09 11.9-.16.68-.01.68-.58 0-.6-3.97-.09-7.93-.12-11.9-.26-1.98-.08-3.96-.11-5.95-.16-1.45-.04-2.89-.13-4.33-.21.61-.35 1.22-.69 1.84-1.03.92-.52 1.84-1.04 2.77-1.56.38-.21-.19-.53-.59-.33-.98.49-1.96.97-2.94 1.46l-1.29.63c-.13-1.99-.42-3.97-.63-5.94-.23-2.27-.33-4.55-.49-6.83-.02-.3-.83-.3-.85 0-.11 2-.22 3.99-.34 5.99-.13 1.99-.47 3.98-.58 5.98-.01.16-.01.32-.02.49-.13-.08-.26-.16-.39-.23-.73-.41-1.49-.8-2.22-1.21-.1-.05-.28.02-.2.08.59.48 1.15.96 1.75 1.42.34.27.69.53 1.04.8-.01.07-.01.14-.01.21-1.47.04-2.94.16-4.41.19-1.98.03-3.97.01-5.95.01-3.96.01-7.92.03-11.88-.02-.48-.01-.47.39 0 .41 3.96.14 7.92.33 11.88.48 1.99.08 3.97.13 5.95.23 1.2.05 2.39.17 3.58.25-.78.53-1.57 1.06-2.36 1.58-.15.1-.18.25 0 .35.16.09.45.1.62 0 .86-.52 1.73-1.04 2.6-1.55.04.86.1 1.73.21 2.6.12.98.4 1.95.51 2.94.12 1.01.16 2.02.17 3.04.04 2.27.02 4.55.18 6.82.03.35.94.35.96 0 .24-3.98-.27-8 .58-11.96.24-1.14.34-2.28.37-3.42Zm30.43 14.64c-4.02-.34-8.08-.62-12.13-.83.24-.12.49-.24.73-.37.68-.34 1.3-.72 1.86-1.12.12-.08.15-.2 0-.28-.12-.07-.37-.08-.49 0-.58.38-1.21.73-1.9 1.05-.37.17-.79.32-1.21.45-.16-2.78-.47-5.57-.31-8.35.01-.32-.84-.32-.88 0-.31 2.79-.95 5.58-1.27 8.37-.2-.09-.4-.19-.59-.29-.6-.3-1.12-.63-1.67-.95-.28-.17-.71.08-.44.25.52.33 1.06.64 1.53 1 .13.09.26.19.39.29h-.03c-1.12.14-2.29.14-3.43.18-2.32.1-4.64.23-6.95.37-.33.02-.35.31 0 .3 2.19-.05 4.39-.07 6.58-.05 1.09.01 2.21-.01 3.3.08.35.03.69.09 1.04.14-.3.18-.58.37-.84.57-.52.38-1 .78-1.45 1.19-.21.2.32.45.59.26.52-.38 1.08-.73 1.68-1.07.04-.02.08-.05.12-.07-.03 1.67.54 3.3.73 4.97.2 1.75.24 3.5.38 5.25.03.32.88.32.88 0-.05-1.75-.13-3.5 0-5.25.13-1.73.73-3.41.71-5.15 0-.07 0-.15-.01-.22 1.07.5 2.13.99 3.23 1.47.25.1.52-.12.32-.24-.97-.57-1.98-1.11-2.99-1.66 4.15-.09 8.26-.03 12.41.17.46.02.57-.42.11-.46Zm-46.14-4.63c-1.51-.09-3.03-.15-4.54-.22-.73-.04-1.48-.1-2.22-.15.75-.49 1.51-.98 2.31-1.45.25-.14-.13-.35-.38-.22-.84.45-1.67.9-2.49 1.36-.13-.58-.32-1.16-.38-1.75-.11-1.01-.04-2.02 0-3.02.01-.24-.62-.24-.65 0-.12.97-.17 1.94-.34 2.91-.11.62-.34 1.25-.48 1.87-.52-.32-1.04-.65-1.58-.97-.3-.18-.77.09-.47.27.51.31 1 .64 1.5.96-1.18.08-2.37.26-3.55.33-1.51.09-3.02.14-4.53.21-.37.02-.39.33 0 .33 1.51 0 3.02-.01 4.53.04 1.21.04 2.42.2 3.62.26-.13.08-.27.17-.4.26-.57.37-1.02.8-1.57 1.18-.25.17.19.42.44.25.52-.37 1.15-.7 1.69-1.06l.33-.21c.15.74.4 1.48.51 2.22.15 1.01.31 2.01.42 3.02.03.26.75.26.73 0-.11-.98-.13-1.94-.11-2.91.02-.76.2-1.51.32-2.26.44.33.87.67 1.33.99.35.24 1.13-.09.79-.35-.55-.41-1.17-.8-1.79-1.18.81-.06 1.62-.12 2.42-.16 1.52-.06 3.03-.09 4.54-.14.48-.01.47-.38 0-.41Z" opacity=".3" fill="#fff"/><path d="M1464.71 705.403c1.18.379 2.35.759 3.53 1.138.5.161.92-.255.45-.432-.95-.354-1.89-.708-2.83-1.061 1.11-.035 2.21-.074 3.32-.082 1.99-.014 3.97-.009 5.95-.053 3.97-.089 7.93-.083 11.9-.159.68-.013.68-.583 0-.599-3.97-.089-7.93-.117-11.9-.263-1.98-.074-3.96-.103-5.95-.157-1.45-.04-2.89-.135-4.33-.208.61-.348 1.22-.692 1.84-1.036.92-.518 1.84-1.037 2.77-1.555.38-.214-.19-.526-.59-.33l-2.94 1.455c-.43.211-.86.425-1.29.637-.14-1.989-.42-3.977-.63-5.945-.23-2.272-.33-4.549-.49-6.823-.02-.309-.83-.31-.85 0-.11 1.994-.22 3.989-.34 5.983-.13 1.996-.47 3.986-.58 5.982-.01.162-.01.324-.02.486l-.39-.226c-.73-.412-1.49-.804-2.23-1.209-.09-.052-.27.017-.19.084.59.471 1.15.952 1.75 1.418.34.266.69.529 1.04.793-.01.073-.01.145-.01.217-1.47.036-2.94.157-4.41.183-1.98.036-3.97.014-5.95.018-3.96.009-7.92.022-11.88-.028-.48-.006-.47.398 0 .414 3.96.142 7.92.327 11.88.483 1.99.078 3.97.129 5.95.223 1.2.056 2.38.171 3.58.256-.78.529-1.57 1.054-2.36 1.579-.16.101-.18.249 0 .349a.71.71 0 0 0 .62 0c.86-.521 1.73-1.04 2.6-1.555.04.869.1 1.737.21 2.602.12.983.4 1.955.51 2.939.12 1.013.16 2.029.17 3.044.04 2.273.02 4.55.18 6.822.03.347.94.348.96 0 .24-3.984-.27-8 .58-11.965.24-1.134.34-2.275.37-3.419Zm30.43 14.643c-4.02-.345-8.08-.618-12.13-.832.24-.122.49-.242.73-.365.68-.342 1.3-.719 1.86-1.124.12-.084.15-.198 0-.279-.12-.071-.37-.081-.49 0-.58.379-1.21.731-1.9 1.047-.37.172-.79.32-1.22.453-.15-2.785-.46-5.568-.31-8.356.02-.319-.83-.314-.87 0-.31 2.796-.95 5.583-1.27 8.38l-.6-.299c-.59-.294-1.11-.623-1.66-.947-.28-.167-.71.083-.44.252.52.326 1.06.644 1.53.995l.39.293a.308.308 0 0 1-.03.004c-1.12.137-2.29.133-3.43.18-2.32.095-4.64.225-6.95.368-.33.021-.35.312 0 .303 2.19-.058 4.39-.073 6.58-.053 1.09.009 2.21-.01 3.3.076.35.029.69.089 1.04.144-.3.181-.58.368-.84.566-.52.385-1 .784-1.45 1.194-.21.198.32.446.59.255a18.02 18.02 0 0 1 1.68-1.066l.12-.072c-.03 1.675.54 3.304.73 4.974.2 1.748.24 3.502.38 5.253.03.315.88.319.88 0-.05-1.751-.13-3.504 0-5.253.13-1.73.73-3.414.71-5.149 0-.074 0-.149-.01-.223 1.07.496 2.13.995 3.23 1.468.25.104.52-.116.32-.233-.97-.572-1.98-1.117-2.99-1.668 4.15-.084 8.26-.028 12.41.172.46.023.57-.419.11-.458Zm-46.14-4.633c-1.51-.088-3.03-.146-4.54-.222-.74-.037-1.48-.099-2.22-.149.75-.488 1.51-.974 2.31-1.444.25-.143-.13-.355-.38-.218-.84.444-1.67.898-2.49 1.36-.13-.585-.32-1.17-.38-1.757-.11-1.004-.04-2.017 0-3.021.01-.24-.62-.234-.65 0-.12.971-.17 1.947-.34 2.916-.11.621-.34 1.245-.48 1.87-.52-.325-1.04-.655-1.58-.972-.3-.178-.77.09-.47.27.51.314 1 .64 1.5.961-1.18.077-2.37.257-3.55.329-1.51.093-3.02.139-4.53.21-.37.018-.39.329 0 .329 1.51.001 3.02-.009 4.53.038 1.21.037 2.42.199 3.62.258-.13.088-.27.173-.4.261-.57.376-1.03.798-1.57 1.183-.25.174.19.422.44.247.52-.371 1.15-.693 1.69-1.055.11-.072.22-.141.33-.212.15.742.4 1.477.51 2.223.15 1.007.31 2.009.42 3.019.03.261.75.263.72 0-.1-.978-.12-1.937-.1-2.915.02-.759.2-1.505.32-2.256.44.332.87.665 1.33.985.35.246 1.12-.084.78-.343-.54-.416-1.16-.802-1.78-1.186.81-.053 1.62-.119 2.42-.153 1.51-.064 3.03-.093 4.54-.142.48-.015.47-.387 0-.414Zm-889.288-34.822 2.415.779c.342.11.629-.175.306-.296l-1.936-.726c.759-.024 1.518-.051 2.277-.056 1.357-.01 2.714-.006 4.07-.037 2.713-.06 5.429-.056 8.142-.108.467-.009.467-.399 0-.41-2.715-.061-5.43-.08-8.142-.18-1.356-.05-2.713-.07-4.07-.107-.993-.028-1.979-.093-2.967-.143.416-.238.838-.473 1.258-.709l1.895-1.064c.261-.146-.128-.36-.401-.226l-2.015.996-.877.436c-.095-1.361-.292-2.722-.431-4.069-.16-1.554-.231-3.113-.339-4.669-.014-.211-.57-.211-.582 0-.078 1.365-.146 2.73-.234 4.094-.088 1.366-.321 2.728-.394 4.094-.006.111-.007.222-.011.333-.091-.051-.179-.104-.27-.155-.498-.282-1.018-.55-1.523-.827-.065-.036-.188.012-.132.057.401.322.785.652 1.195.971.234.182.473.362.71.543-.001.049-.004.099-.004.148-1.006.025-2.011.107-3.017.125-1.354.025-2.714.01-4.069.013-2.712.005-5.425.015-8.136-.02-.326-.004-.32.272 0 .284 2.713.097 5.423.223 8.136.33 1.355.053 2.715.088 4.069.152.819.039 1.631.118 2.447.176-.534.362-1.073.721-1.615 1.08-.104.07-.12.171 0 .239a.483.483 0 0 0 .423 0c.592-.357 1.185-.712 1.784-1.064.025.595.068 1.189.141 1.781.083.672.276 1.338.353 2.011.08.694.104 1.388.115 2.083.024 1.556.013 3.114.125 4.669.017.237.64.238.654 0 .164-2.727-.185-5.475.396-8.188.165-.776.236-1.557.254-2.34Zm20.805 10.02c-2.751-.236-5.53-.423-8.302-.57l.501-.249a9.33 9.33 0 0 0 1.274-.769c.08-.058.1-.136 0-.191-.086-.049-.253-.056-.338 0-.396.259-.83.5-1.3.717a6.905 6.905 0 0 1-.831.309c-.105-1.906-.32-3.81-.212-5.718.012-.218-.575-.215-.599 0-.216 1.914-.651 3.82-.868 5.735a51.986 51.986 0 0 0-.409-.205c-.404-.201-.765-.426-1.136-.648-.191-.114-.49.057-.305.172.359.224.724.441 1.045.682l.269.2-.018.003c-.766.093-1.57.091-2.351.123-1.587.065-3.171.154-4.753.252-.229.014-.241.213 0 .207 1.501-.039 3-.05 4.503-.037.747.007 1.513-.006 2.254.053.242.019.478.061.714.098a7.417 7.417 0 0 0-.576.388c-.351.263-.681.536-.988.817-.148.135.218.305.401.174.359-.255.74-.499 1.149-.729l.085-.05c-.021 1.147.365 2.261.497 3.404.138 1.197.165 2.397.262 3.595.018.216.604.218.599 0-.031-1.198-.086-2.398.001-3.595.087-1.184.502-2.336.487-3.523 0-.051-.003-.102-.004-.153.73.34 1.457.681 2.211 1.004.166.072.353-.079.217-.159-.664-.391-1.358-.764-2.049-1.141 2.843-.058 5.652-.02 8.493.118.315.015.393-.287.077-.314Zm-31.569-3.169c-1.033-.06-2.072-.1-3.107-.152-.504-.025-1.013-.068-1.522-.102a46.471 46.471 0 0 1 1.584-.988c.168-.098-.089-.243-.264-.149-.573.304-1.143.614-1.7.93-.088-.4-.22-.8-.264-1.202-.075-.687-.024-1.38.004-2.068.007-.163-.427-.16-.447 0-.083.665-.116 1.333-.231 1.996-.073.425-.233.852-.329 1.279-.359-.222-.71-.447-1.079-.664-.207-.122-.529.061-.327.184.353.215.688.438 1.031.658-.811.053-1.622.176-2.429.225-1.032.064-2.071.095-3.105.144-.252.012-.261.225 0 .225 1.034.001 2.072-.006 3.105.026.826.026 1.651.136 2.475.176-.091.061-.186.119-.277.179-.386.258-.698.546-1.071.81-.168.119.13.289.3.169.358-.254.787-.475 1.158-.723l.223-.144c.106.507.279 1.011.353 1.521.099.689.212 1.375.287 2.066.02.178.515.18.495 0a15.294 15.294 0 0 1-.07-1.995c.011-.519.137-1.03.219-1.544.297.227.591.456.907.674.244.169.771-.057.538-.234a15.399 15.399 0 0 0-1.221-.812c.554-.037 1.107-.081 1.657-.105 1.036-.043 2.071-.063 3.107-.097.327-.01.318-.265 0-.283ZM1329.9 1350.66c1.17.37 2.35.75 3.53 1.13.5.16.92-.25.44-.43-.94-.35-1.88-.71-2.83-1.06 1.11-.04 2.22-.07 3.33-.08 1.99-.02 3.97-.01 5.95-.06 3.96-.08 7.93-.08 11.9-.15.68-.02.68-.59 0-.6-3.97-.09-7.94-.12-11.9-.27-1.98-.07-3.97-.1-5.95-.15-1.45-.04-2.89-.14-4.33-.21.6-.35 1.22-.69 1.83-1.04.93-.52 1.85-1.03 2.77-1.55.38-.22-.18-.53-.58-.33-.98.48-1.97.97-2.95 1.45-.43.21-.85.43-1.28.64-.14-1.99-.42-3.98-.63-5.95-.23-2.27-.34-4.54-.49-6.82-.02-.31-.84-.31-.85 0-.12 2-.22 3.99-.35 5.98-.12 2-.46 3.99-.57 5.99-.01.16-.01.32-.02.48-.13-.07-.26-.15-.39-.22-.73-.41-1.49-.81-2.23-1.21-.09-.05-.27.02-.19.08.58.47 1.15.95 1.75 1.42.34.27.69.53 1.03.79v.22c-1.47.04-2.94.16-4.41.18-1.98.04-3.97.02-5.95.02-3.96.01-7.93.02-11.89-.03-.47 0-.46.4 0 .42 3.97.14 7.93.32 11.89.48 1.98.08 3.97.13 5.95.22 1.2.06 2.38.17 3.57.26-.78.53-1.56 1.05-2.36 1.58-.15.1-.17.25 0 .35.17.09.46.09.62 0 .87-.52 1.73-1.04 2.61-1.56.04.87.1 1.74.21 2.6.12.99.4 1.96.51 2.94.12 1.02.15 2.03.17 3.05.03 2.27.02 4.55.18 6.82.03.35.94.35.96 0 .24-3.99-.27-8 .58-11.97.24-1.13.34-2.27.37-3.41Zm30.43 14.64c-4.02-.35-8.08-.62-12.13-.83.24-.13.48-.25.73-.37.68-.34 1.3-.72 1.86-1.12.12-.09.15-.2 0-.28-.13-.07-.37-.08-.49 0-.58.38-1.22.73-1.9 1.05-.37.17-.79.31-1.22.45-.15-2.79-.47-5.57-.31-8.36.02-.32-.84-.31-.87 0-.32 2.8-.95 5.58-1.27 8.38l-.6-.3c-.59-.29-1.12-.62-1.66-.94-.28-.17-.71.08-.44.25.52.32 1.05.64 1.52.99.13.1.27.2.4.3h-.03c-1.12.14-2.3.13-3.44.18-2.31.09-4.63.22-6.94.37-.34.02-.35.31 0 .3 2.19-.06 4.38-.07 6.58-.05 1.09.01 2.21-.01 3.29.07.36.03.7.09 1.05.15-.3.18-.58.37-.85.56-.51.39-.99.79-1.44 1.2-.22.2.32.44.59.25.52-.37 1.08-.73 1.68-1.06.04-.03.08-.05.12-.07-.03 1.67.53 3.3.73 4.97.2 1.75.24 3.5.38 5.25.02.32.88.32.87 0-.04-1.75-.12-3.5.01-5.25.12-1.73.73-3.42.71-5.15 0-.07-.01-.15-.01-.22 1.07.49 2.13.99 3.23 1.46.25.11.52-.11.32-.23-.97-.57-1.99-1.12-2.99-1.67 4.15-.08 8.25-.02 12.41.18.46.02.57-.42.11-.46Zm-46.14-4.63c-1.51-.09-3.03-.15-4.54-.23-.74-.03-1.48-.1-2.23-.15.76-.48 1.52-.97 2.32-1.44.25-.14-.13-.36-.39-.22-.83.45-1.67.9-2.48 1.36-.13-.58-.32-1.17-.39-1.76-.11-1-.03-2.01.01-3.02.01-.24-.62-.23-.65 0-.12.98-.17 1.95-.34 2.92-.11.62-.34 1.24-.48 1.87-.53-.33-1.04-.65-1.58-.97-.3-.18-.77.09-.48.27.52.31 1.01.64 1.51.96-1.19.08-2.37.26-3.55.33-1.51.09-3.03.14-4.54.21-.37.02-.38.33 0 .33 1.51 0 3.03-.01 4.54.04 1.21.03 2.41.19 3.62.25-.14.09-.27.18-.41.26-.56.38-1.02.8-1.56 1.19-.25.17.19.42.44.24.52-.37 1.15-.69 1.69-1.05.11-.07.22-.14.32-.21.16.74.41 1.47.52 2.22.14 1.01.31 2.01.42 3.02.03.26.75.26.72 0-.1-.98-.12-1.94-.1-2.92.02-.75.2-1.5.32-2.25.43.33.86.66 1.33.98.35.25 1.12-.08.78-.34-.54-.42-1.16-.8-1.78-1.19.81-.05 1.61-.12 2.42-.15 1.51-.06 3.02-.09 4.54-.14.48-.02.46-.39 0-.41Z" opacity=".2" fill="#fff"/><path d="M1072.01 1114.61c1.18.38 2.36.76 3.53 1.14.5.16.92-.25.45-.43-.94-.36-1.89-.71-2.83-1.06 1.11-.04 2.22-.08 3.33-.09 1.98-.01 3.97 0 5.95-.05 3.96-.09 7.93-.08 11.89-.16.69-.01.69-.58 0-.6-3.96-.08-7.93-.11-11.89-.26-1.98-.07-3.97-.1-5.95-.16-1.45-.04-2.89-.13-4.34-.2.61-.35 1.23-.7 1.84-1.04.92-.52 1.85-1.04 2.77-1.55.38-.22-.19-.53-.58-.33-.99.48-1.97.97-2.95 1.45-.43.21-.85.42-1.28.64-.14-1.99-.43-3.98-.63-5.95-.23-2.27-.34-4.55-.5-6.82-.02-.31-.83-.31-.85 0-.11 1.99-.21 3.99-.34 5.98-.13 2-.47 3.99-.57 5.98-.01.17-.01.33-.02.49-.13-.08-.26-.15-.39-.23-.73-.41-1.49-.8-2.23-1.2-.1-.06-.28.01-.19.08.58.47 1.14.95 1.74 1.42.35.26.69.53 1.04.79 0 .07 0 .15-.01.22-1.47.03-2.93.15-4.4.18-1.98.04-3.97.01-5.95.02-3.96.01-7.93.02-11.89-.03-.48-.01-.47.4 0 .41 3.97.15 7.93.33 11.89.49 1.98.07 3.97.13 5.95.22 1.19.06 2.38.17 3.57.26-.78.52-1.57 1.05-2.36 1.57-.15.11-.17.25 0 .35.17.1.46.1.62 0 .86-.52 1.73-1.04 2.61-1.55.03.87.1 1.74.2 2.6.12.98.41 1.96.52 2.94.11 1.01.15 2.03.17 3.04.03 2.28.01 4.55.18 6.83.02.34.93.34.96 0 .23-3.99-.28-8 .57-11.97.25-1.13.35-2.27.37-3.42Zm30.44 14.64c-4.02-.34-8.09-.61-12.14-.83.25-.12.49-.24.74-.36.68-.34 1.3-.72 1.86-1.13.11-.08.14-.19 0-.28-.13-.07-.37-.08-.5 0-.57.38-1.21.74-1.9 1.05-.37.17-.78.32-1.21.45-.15-2.78-.47-5.56-.31-8.35.02-.32-.84-.32-.88 0-.31 2.8-.95 5.58-1.26 8.38l-.6-.3c-.59-.29-1.12-.62-1.66-.95-.28-.16-.72.09-.45.25.53.33 1.06.65 1.53 1 .13.1.26.2.39.29-.01 0-.01.01-.02.01-1.12.13-2.3.13-3.44.18-2.32.09-4.63.22-6.94.36-.34.03-.36.32 0 .31 2.19-.06 4.38-.07 6.58-.06 1.09.01 2.21-.01 3.29.08.35.03.7.09 1.04.14-.29.19-.57.37-.84.57-.51.39-.99.78-1.44 1.19-.22.2.32.45.58.26.53-.37 1.09-.73 1.68-1.07.04-.02.09-.04.13-.07-.03 1.68.53 3.31.72 4.98.21 1.74.24 3.5.39 5.25.02.31.88.32.87 0-.04-1.75-.12-3.5 0-5.25.13-1.73.74-3.42.71-5.15v-.23c1.06.5 2.13 1 3.23 1.47.24.11.52-.11.32-.23-.97-.57-1.99-1.12-3-1.67 4.16-.08 8.26-.03 12.41.17.46.03.58-.42.12-.46Zm-46.14-4.63c-1.51-.09-3.03-.14-4.54-.22-.74-.04-1.48-.1-2.23-.15.76-.49 1.52-.97 2.32-1.44.24-.15-.13-.36-.39-.22-.84.44-1.67.9-2.48 1.36-.13-.59-.32-1.17-.39-1.76-.11-1-.03-2.01.01-3.02.01-.24-.63-.23-.66 0-.12.97-.17 1.95-.33 2.92-.11.62-.34 1.24-.49 1.87-.52-.33-1.03-.66-1.57-.97-.3-.18-.77.09-.48.27.52.31 1.01.64 1.51.96-1.19.07-2.37.25-3.55.33-1.51.09-3.03.13-4.54.21-.37.01-.38.32 0 .32 1.51 0 3.03 0 4.54.04 1.2.04 2.41.2 3.61.26-.13.09-.27.17-.4.26-.56.38-1.02.8-1.56 1.18-.25.18.18.43.43.25.53-.37 1.15-.69 1.7-1.05.1-.08.21-.15.32-.22.16.75.41 1.48.52 2.23.14 1 .31 2.01.42 3.02.03.26.75.26.72 0-.11-.98-.12-1.94-.1-2.92.01-.76.2-1.5.32-2.26.43.34.86.67 1.32.99.36.25 1.13-.08.79-.34-.55-.42-1.17-.8-1.79-1.19.81-.05 1.62-.12 2.43-.15 1.51-.07 3.02-.1 4.54-.14.47-.02.46-.39 0-.42Z" opacity=".3" fill="#fff"/><path d="m647.949 1251.94 3.156 1.02c.447.14.822-.23.4-.39-.843-.31-1.687-.63-2.53-.95.992-.03 1.983-.06 2.975-.07 1.773-.01 3.546-.01 5.318-.05 3.544-.08 7.092-.07 10.636-.14.611-.01.61-.52 0-.53-3.546-.08-7.093-.11-10.636-.24-1.772-.07-3.545-.09-5.318-.14-1.297-.04-2.585-.12-3.876-.19.543-.31 1.094-.61 1.643-.92.826-.47 1.651-.93 2.476-1.39.341-.19-.168-.47-.523-.3-.878.44-1.756.87-2.634 1.3l-1.145.57c-.125-1.78-.381-3.55-.563-5.31-.209-2.03-.302-4.07-.442-6.1-.02-.28-.746-.28-.761 0-.102 1.78-.192 3.56-.306 5.35-.114 1.78-.419 3.56-.515 5.34-.007.15-.009.29-.015.44-.118-.07-.234-.14-.352-.2-.65-.37-1.33-.72-1.99-1.08-.085-.05-.245.01-.172.07.523.42 1.025.85 1.561 1.27.306.24.618.47.927.71l-.005.19c-1.314.03-2.626.14-3.942.17-1.768.03-3.545.01-5.316.01-3.542.01-7.087.02-10.629-.02-.425-.01-.418.35 0 .37 3.545.12 7.086.29 10.629.43 1.771.07 3.548.11 5.316.2 1.071.05 2.132.15 3.197.23-.698.47-1.401.94-2.109 1.41-.136.09-.157.22 0 .31.146.08.408.09.553 0 .773-.47 1.548-.93 2.331-1.39.032.78.088 1.55.183 2.33.109.88.36 1.75.461 2.62.105.91.137 1.82.151 2.73.031 2.03.016 4.06.163 6.1.022.31.836.31.855 0 .214-3.57-.243-7.16.517-10.7.216-1.02.308-2.04.331-3.06Zm27.185 13.09c-3.593-.3-7.224-.55-10.846-.74l.655-.33c.608-.3 1.164-.64 1.665-1 .104-.08.13-.18 0-.25-.113-.06-.331-.07-.442 0-.517.34-1.084.65-1.698.94-.333.15-.704.28-1.087.4-.137-2.49-.418-4.98-.277-7.47.016-.29-.75-.28-.782 0-.282 2.5-.85 4.99-1.134 7.49l-.534-.27c-.528-.26-1-.55-1.484-.84-.25-.15-.641.07-.399.22.469.29.946.58 1.366.89.117.09.234.18.351.26-.008.01-.015.01-.023.01-1.001.12-2.052.12-3.072.16-2.073.08-4.143.2-6.21.33-.299.02-.314.28 0 .27 1.961-.05 3.92-.07 5.883-.05.976.01 1.977-.01 2.945.07.317.03.624.08.933.13-.264.16-.517.33-.753.5-.458.35-.889.7-1.29 1.07-.194.18.284.4.524.23.469-.33.967-.65 1.5-.95.038-.02.075-.05.112-.07-.028 1.5.477 2.96.649 4.45.18 1.56.216 3.13.343 4.7.023.28.788.28.782 0-.04-1.57-.113-3.14.002-4.7.113-1.55.655-3.05.636-4.6-.001-.07-.005-.14-.006-.2.953.44 1.903.89 2.888 1.31.218.09.462-.1.284-.21-.867-.51-1.775-1-2.677-1.49 3.715-.08 7.385-.03 11.096.15.412.02.514-.37.1-.41Zm-41.245-4.14c-1.349-.08-2.706-.13-4.058-.2-.659-.03-1.323-.09-1.989-.13.677-.44 1.357-.87 2.07-1.29.219-.13-.116-.32-.346-.2-.748.4-1.492.81-2.22 1.22-.116-.52-.288-1.05-.345-1.57-.098-.9-.032-1.8.005-2.7.009-.22-.558-.21-.584 0-.108.87-.152 1.74-.301 2.6-.096.56-.305 1.12-.431 1.68-.468-.29-.927-.59-1.409-.87-.271-.16-.691.08-.427.24.46.28.898.57 1.346.86-1.059.07-2.119.23-3.173.29-1.349.09-2.706.13-4.057.19-.329.02-.341.29 0 .29 1.351 0 2.707 0 4.057.04 1.079.03 2.157.18 3.234.23-.119.08-.243.15-.362.23-.505.34-.912.72-1.399 1.06-.22.15.169.38.391.22.468-.33 1.028-.62 1.513-.94.096-.07.195-.13.292-.19.138.66.364 1.32.46 1.98.131.91.277 1.8.376 2.7.026.24.672.24.646 0-.095-.87-.109-1.73-.091-2.6.014-.68.179-1.35.285-2.02.388.3.773.6 1.186.88.318.22 1.007-.07.704-.3-.489-.38-1.042-.72-1.596-1.07.723-.04 1.446-.1 2.165-.13 1.353-.06 2.705-.09 4.058-.13.428-.01.416-.34 0-.37Z" opacity=".1" fill="#fff"/><path d="m345.961 1131.16 2.787.9c.394.13.726-.2.353-.34l-2.234-.84c.875-.03 1.751-.06 2.627-.06 1.566-.02 3.131-.01 4.696-.05 3.13-.07 6.263-.06 9.394-.12.539-.01.538-.46 0-.47-3.132-.07-6.264-.1-9.394-.21-1.565-.06-3.131-.08-4.696-.13-1.145-.03-2.283-.1-3.423-.16.48-.28.967-.55 1.451-.82l2.186-1.23c.301-.17-.147-.41-.461-.26-.776.39-1.551.77-2.326 1.15-.338.17-.674.34-1.012.5-.11-1.57-.336-3.14-.497-4.69-.184-1.79-.266-3.59-.391-5.39-.016-.24-.657-.24-.671 0-.09 1.58-.169 3.15-.27 4.73-.101 1.57-.37 3.14-.455 4.72-.007.13-.008.26-.013.38-.104-.05-.207-.12-.311-.17-.574-.33-1.175-.64-1.757-.96-.076-.04-.217.02-.152.07.462.37.905.75 1.378 1.12.271.21.546.41.819.62l-.005.18c-1.16.02-2.319.12-3.481.14-1.562.03-3.131.01-4.694.01-3.129.01-6.259.02-9.387-.02-.376 0-.37.32 0 .33 3.13.11 6.257.26 9.387.38 1.564.06 3.132.1 4.694.18.945.04 1.883.13 2.824.2-.617.42-1.238.83-1.863 1.24-.12.08-.139.2 0 .28.129.07.36.08.488 0 .683-.41 1.367-.82 2.059-1.23.028.69.077 1.37.162 2.06.095.77.318 1.54.407 2.32.092.8.12 1.6.133 2.4.027 1.8.014 3.59.144 5.39.019.27.738.27.755 0 .189-3.15-.215-6.32.456-9.45.191-.9.272-1.8.293-2.7Zm24.042 11.56c-3.173-.27-6.38-.49-9.578-.66.193-.09.385-.19.578-.28.537-.27 1.028-.57 1.47-.89.092-.07.115-.16 0-.22-.099-.06-.292-.07-.39 0-.456.3-.957.58-1.499.83a8.05 8.05 0 0 1-.96.35c-.121-2.2-.369-4.39-.245-6.59.015-.26-.662-.25-.69 0-.249 2.2-.751 4.4-1.001 6.61a9.749 9.749 0 0 0-.472-.23c-.467-.24-.883-.5-1.311-.75-.221-.13-.566.06-.352.2.413.25.835.51 1.206.78.103.08.207.16.31.23-.007.01-.013.01-.021.01-.883.11-1.812.1-2.712.14-1.831.07-3.659.18-5.484.29-.265.02-.278.25 0 .24 1.731-.05 3.461-.06 5.195-.04.862 0 1.746-.01 2.601.06.279.02.551.07.824.11-.233.14-.457.29-.665.45-.405.3-.786.62-1.14.94-.171.16.251.35.463.2.414-.29.854-.57 1.325-.84l.098-.06c-.024 1.33.422 2.61.574 3.93.159 1.38.19 2.77.302 4.15.021.25.697.25.691 0-.035-1.38-.099-2.77.002-4.15.1-1.36.578-2.69.561-4.06 0-.06-.003-.12-.005-.18.843.39 1.682.79 2.551 1.16.192.08.408-.09.251-.19-.766-.45-1.567-.88-2.364-1.31 3.281-.07 6.521-.02 9.799.13.364.02.454-.33.088-.36Zm-36.425-3.66c-1.193-.06-2.39-.11-3.585-.17-.581-.03-1.168-.08-1.756-.12.598-.38 1.198-.77 1.828-1.14.194-.11-.103-.28-.305-.17-.661.35-1.318.71-1.961 1.07-.102-.46-.254-.92-.305-1.38-.087-.8-.028-1.6.005-2.39.007-.19-.493-.18-.516 0-.095.77-.134 1.54-.266 2.3-.085.49-.269.99-.381 1.48-.413-.26-.818-.52-1.244-.77-.239-.14-.61.07-.377.22.407.24.793.5 1.189.75-.936.06-1.872.21-2.803.26-1.19.08-2.389.11-3.582.17-.291.01-.301.26 0 .26 1.193 0 2.39-.01 3.582.03.954.03 1.905.16 2.856.2l-.319.21c-.446.3-.806.63-1.236.93-.194.14.15.34.346.2.413-.29.908-.55 1.336-.84.085-.05.172-.11.258-.16.121.58.321 1.16.406 1.75.115.8.245 1.59.332 2.39.023.2.594.2.571 0-.085-.78-.097-1.53-.081-2.3.013-.6.158-1.19.252-1.79.343.27.682.53 1.047.78.282.2.89-.07.622-.27-.432-.33-.92-.63-1.409-.94.638-.04 1.276-.09 1.911-.12 1.195-.05 2.389-.07 3.585-.11.377-.01.367-.3 0-.33Z" opacity=".5" fill="#fff"/><path d="M993.736 268.469c1.703.549 3.407 1.099 5.111 1.647.722.234 1.333-.368.647-.625l-4.097-1.537c1.605-.05 3.211-.107 4.813-.118 2.88-.02 5.75-.013 8.61-.077 5.74-.128 11.49-.12 17.23-.229.99-.019.99-.845 0-.868-5.74-.128-11.49-.169-17.23-.381-2.86-.106-5.74-.149-8.61-.227-2.096-.057-4.182-.195-6.272-.301.88-.504 1.772-1.002 2.661-1.5l4.011-2.25c.55-.31-.27-.763-.85-.478l-4.264 2.106c-.62.306-1.236.615-1.855.921-.201-2.878-.617-5.757-.911-8.606-.338-3.288-.488-6.585-.717-9.877-.031-.447-1.206-.448-1.231 0-.165 2.887-.311 5.775-.496 8.661-.185 2.889-.678 5.771-.833 8.661-.012.234-.015.468-.024.703-.191-.109-.379-.219-.57-.327-1.053-.596-2.155-1.164-3.222-1.75-.139-.076-.398.025-.279.121.847.681 1.659 1.379 2.528 2.053.495.385 1 .765 1.501 1.148-.002.106-.007.21-.008.315-2.129.052-4.254.226-6.383.265-2.864.052-5.742.019-8.608.025-5.736.012-11.476.032-17.212-.041-.689-.009-.677.576 0 .6 5.741.206 11.474.473 17.212.699 2.867.113 5.744.187 8.608.322 1.733.083 3.452.248 5.176.371-1.13.766-2.269 1.527-3.415 2.286-.22.147-.255.361 0 .505.237.134.661.142.895 0a395.512 395.512 0 0 1 3.774-2.25c.053 1.257.143 2.514.298 3.767.175 1.422.583 2.83.746 4.254.169 1.467.221 2.937.244 4.407.05 3.29.026 6.587.264 9.876.036.502 1.353.504 1.384 0 .347-5.768-.393-11.581.837-17.321.35-1.642.499-3.294.537-4.95Zm44.064 21.197a538.83 538.83 0 0 0-17.56-1.204c.35-.176.71-.35 1.06-.528.99-.495 1.89-1.041 2.7-1.627.17-.122.21-.286 0-.404-.19-.104-.54-.118-.72 0-.84.549-1.75 1.058-2.75 1.516-.54.249-1.14.462-1.76.655-.22-4.032-.67-8.06-.45-12.096.03-.462-1.21-.456-1.26 0-.46 4.048-1.38 8.082-1.84 12.131-.29-.144-.57-.289-.86-.432-.86-.427-1.62-.902-2.41-1.371-.4-.242-1.03.119-.64.364.76.472 1.53.933 2.21 1.441l.57.424-.04.006c-1.62.198-3.32.193-4.97.26-3.36.138-6.71.326-10.059.533-.485.03-.509.451 0 .438 3.179-.083 6.349-.105 9.529-.077 1.58.014 3.2-.014 4.77.111.51.042 1.01.129 1.51.208-.43.262-.84.533-1.22.82a28.56 28.56 0 0 0-2.09 1.728c-.32.287.46.645.85.369.76-.54 1.56-1.055 2.43-1.543l.18-.104c-.05 2.425.77 4.783 1.05 7.201.29 2.53.35 5.07.55 7.604.04.457 1.28.462 1.27 0-.07-2.534-.18-5.072 0-7.604.18-2.505 1.06-4.943 1.03-7.454 0-.108-.01-.216-.01-.323 1.55.718 3.08 1.44 4.68 2.124.35.151.75-.167.46-.336-1.41-.828-2.87-1.618-4.34-2.414 6.02-.123 11.96-.042 17.97.248.67.033.83-.607.16-.664Zm-66.78-6.705c-2.186-.128-4.382-.211-6.571-.322-1.067-.053-2.143-.143-3.221-.215a97.642 97.642 0 0 1 3.352-2.091c.355-.208-.189-.514-.56-.316-1.211.643-2.416 1.3-3.595 1.969-.188-.847-.466-1.693-.559-2.544-.159-1.453-.052-2.919.008-4.373.014-.347-.903-.339-.945 0-.175 1.406-.246 2.819-.488 4.222-.156.899-.494 1.802-.698 2.706-.758-.47-1.501-.948-2.281-1.406-.438-.258-1.119.13-.692.39.746.454 1.455.927 2.18 1.392-1.715.111-3.431.372-5.138.476-2.184.135-4.381.201-6.569.304-.533.025-.552.477 0 .477 2.188 0 4.383-.014 6.569.054 1.747.054 3.492.288 5.236.373-.192.128-.393.251-.585.378-.818.545-1.478 1.156-2.266 1.713-.356.252.274.611.633.358.759-.537 1.665-1.004 2.451-1.528.155-.104.315-.204.472-.307.223 1.074.59 2.139.745 3.218.211 1.458.449 2.909.609 4.371.042.377 1.088.38 1.047 0-.156-1.416-.178-2.804-.149-4.22.023-1.098.289-2.178.463-3.266.628.481 1.25.964 1.919 1.426.516.357 1.632-.122 1.14-.496-.791-.602-1.687-1.161-2.584-1.718 1.171-.077 2.341-.172 3.506-.221 2.19-.092 4.379-.135 6.571-.205.693-.021.674-.56 0-.599Zm-511.157-43.597 8.359 2.695c1.182.381 2.176-.604 1.059-1.023l-6.701-2.513c2.626-.083 5.251-.176 7.879-.195 4.696-.033 9.391-.021 14.084-.125 9.387-.21 18.783-.197 28.171-.375 1.617-.031 1.615-1.382 0-1.419-9.393-.21-18.786-.278-28.171-.624-4.693-.173-9.39-.243-14.084-.371-3.434-.093-6.847-.318-10.266-.492 1.44-.825 2.899-1.639 4.352-2.454 2.187-1.226 4.373-2.454 6.557-3.68.902-.508-.444-1.248-1.385-.782l-6.975 3.444c-1.014.501-2.022 1.006-3.034 1.508-.33-4.709-1.01-9.417-1.49-14.078-.553-5.378-.799-10.77-1.172-16.154-.051-.731-1.974-.733-2.015 0-.269 4.722-.508 9.445-.81 14.166-.303 4.726-1.11 9.439-1.364 14.165-.02.383-.023.767-.039 1.151-.313-.178-.619-.359-.932-.535-1.723-.975-3.524-1.904-5.271-2.862-.226-.125-.65.041-.455.198 1.385 1.114 2.714 2.255 4.134 3.358.811.63 1.637 1.252 2.456 1.878-.004.172-.012.343-.014.514-3.481.085-6.957.371-10.44.434-4.685.085-9.391.032-14.08.042-9.381.019-18.77.051-28.151-.068-1.128-.014-1.108.942 0 .982 9.389.336 18.766.773 28.151 1.143 4.691.184 9.395.305 14.08.527 2.834.134 5.646.406 8.467.606a638.146 638.146 0 0 1-5.586 3.74c-.361.24-.418.59 0 .826.387.218 1.081.231 1.464 0 2.047-1.234 4.1-2.463 6.173-3.681.086 2.056.233 4.112.486 6.161.288 2.327.954 4.63 1.221 6.959.276 2.399.362 4.804.399 7.207.082 5.383.043 10.775.432 16.155.058.82 2.213.823 2.264 0 .567-9.434-.643-18.943 1.369-28.332.573-2.685.815-5.387.878-8.096Zm72.063 34.672a884.454 884.454 0 0 0-28.726-1.97c.579-.287 1.157-.573 1.735-.864a32.259 32.259 0 0 0 4.409-2.661c.276-.199.344-.468 0-.661-.299-.169-.877-.192-1.17 0a34.63 34.63 0 0 1-4.497 2.481c-.881.407-1.864.755-2.878 1.071-.363-6.595-1.107-13.184-.734-19.785.043-.756-1.987-.745-2.071 0-.746 6.621-2.253 13.219-3.003 19.842-.471-.236-.941-.472-1.414-.707-1.401-.698-2.649-1.476-3.933-2.242-.662-.396-1.696.195-1.055.595 1.241.772 2.505 1.526 3.616 2.357l.932.694c-.021.003-.041.007-.062.009-2.651.324-5.435.315-8.135.426-5.492.225-10.974.532-16.448.871-.793.05-.832.739 0 .717a447.006 447.006 0 0 1 15.58-.126c2.585.022 5.238-.023 7.801.182.838.068 1.653.211 2.472.34-.7.428-1.37.872-1.995 1.341a45.817 45.817 0 0 0-3.417 2.826c-.514.47.752 1.056 1.387.605a45.145 45.145 0 0 1 3.974-2.525l.295-.17c-.073 3.966 1.264 7.823 1.719 11.778.479 4.139.572 8.293.908 12.437.061.748 2.089.757 2.071 0-.105-4.144-.297-8.296.006-12.437.299-4.097 1.735-8.085 1.684-12.192-.002-.176-.012-.353-.016-.528 2.526 1.175 5.043 2.356 7.651 3.474.576.247 1.223-.273.752-.55-2.298-1.354-4.7-2.646-7.09-3.949 9.839-.2 19.558-.068 29.388.407 1.09.053 1.36-.992.264-1.086Zm-109.231-10.968c-3.575-.208-7.168-.345-10.749-.526-1.744-.087-3.504-.234-5.266-.352 1.791-1.156 3.592-2.306 5.481-3.419.581-.341-.308-.842-.916-.517a240.494 240.494 0 0 0-5.88 3.22c-.307-1.386-.762-2.769-.915-4.161-.259-2.376-.084-4.775.014-7.153.024-.567-1.477-.555-1.545 0-.287 2.3-.403 4.612-.799 6.906-.254 1.47-.807 2.947-1.141 4.426-1.241-.769-2.456-1.55-3.731-2.3-.717-.421-1.831.213-1.132.639 1.219.742 2.38 1.515 3.566 2.275-2.806.182-5.613.609-8.405.78-3.571.22-7.166.329-10.745.498-.871.041-.902.778 0 .778 3.579.002 7.17-.022 10.745.09 2.858.088 5.713.471 8.565.61-.315.208-.643.41-.957.618-1.339.892-2.417 1.891-3.706 2.802-.583.411.447.999 1.035.585 1.241-.878 2.723-1.642 4.009-2.5.254-.168.516-.333.772-.5.365 1.755.965 3.497 1.219 5.263.345 2.385.734 4.757.996 7.148.068.618 1.78.623 1.711 0-.254-2.315-.291-4.586-.242-6.901.037-1.797.473-3.564.756-5.343 1.028.787 2.046 1.576 3.14 2.333.843.584 2.668-.2 1.863-.812-1.293-.985-2.758-1.899-4.225-2.809 1.914-.126 3.829-.281 5.733-.362 3.583-.151 7.164-.22 10.749-.335 1.133-.036 1.102-.917 0-.981Z" opacity=".3" fill="#fff"/><ellipse cx="559.057" cy="1949.34" rx="1432.72" ry="908.638" transform="rotate(-14.233 559.057 1949.34)" fill="#11002E"/><ellipse cx="896.471" cy="2195.51" rx="1432.72" ry="1031.19" transform="rotate(-25.047 896.471 2195.51)" fill="#19033D"/><g clip-path="url(#c)"><path d="m1840.64 1139.27-13.44-10.2s16.88 5.35 29.15 2.62c-15.71-7.52-33.51-19.11-40-33.23 12.01 9.45 36.57 15.54 36.57 15.54l-5.84-13.15s5.49 1.99 9.67-.09c-5.92-.49-13.14-5.28-13.14-5.28s12.56-4.79 20.53-11.9c-6.55 2.53-43.1 5.87-61.62-2.17 15.76-.02 27.17-11.86 27.17-11.86s-20.47 6.8-41.41 4.1c-20.93-2.7-18.08-4.85-34.95-19.97 8.14 6.91 20.03 7.79 20.03 7.79s-7.45-3.15-12.56-11.86c7.99 7.23 26.79 10.07 26.79 10.07l-9.2-5.61s16.19 4.81 25.61 1.01a36.3 36.3 0 0 1-23.39-13.79c13.6 2.79 32.43 5.41 56.8-6.18-4.49.37-15-3.09-22-7.34 15.3-1.09 23.36-8.8 23.36-8.8-3.19.67-6.42 1.13-9.67 1.36 3.22-1.66 4.07-4.54 2.46-5.71a9.96 9.96 0 0 0 4.7-3.9s-2.58-1.02-10.32 1.18c-7.74 2.19-34.51-6.24-34.51-6.24s13.52.7 21.85-4.43c-33.37.53-60.45-11.743-61.46-12.883-1.01-1.14-.96-4.246-2.2-7.302-1.24-3.057-3.97-4.556-3-5.92.96-1.363 2-3.995 2.9-4.146.91-.152 1.71.126 3.33 3.238 1.61 3.113 3.74 3.797 5.52 3.769 1.78-.029 1.08.984 3.32 2.02 2.25 1.036 4.8.669 5.9-2.898 4.1 5.235 7.82 3.199 10.58 3.581 2.75.382 9.55.332 16.39-.545s9.55-2.165 16.28.272c-3.52-8.207-17.61-12.563-25.25-11.183 2.62-2.022 6.46-2.877 9.9-2.506 3.44.37 5.44.757 7.97-1.056 2.53-1.813 5.84-.906 8.24-2.569 2.39-1.663 5.96-2.056 12.91-1.864-3.21-2.449-11.51-3.041-11.51-3.041s1.48-1.07 1.24-3.712c.7-.626 7.55-4.336 15.02-3.848-10.42-5.28-21.25-1.573-34.44-2.136-13.18-.563-18.33-9.535-18.33-9.535s11.91 2.698 15.98-1.101c-12.34.945-34.16-12.907-36.36-17.804-2.2-4.897-4.71-4.436-6.47-9.341-1.75-4.905-1.43-5.643 1.41-8.023a10.33 10.33 0 0 0 2.69-3.697s6.16 5.521 7.97 5.702c1.81.181 4.21-.744 5.69.867 1.48 1.611 3.25 1.641 4.69 1.915 1.44.274 1.65 3.041 2.87 3.954 1.22.913 5.92 2.415 7.17 1.367 1.25-1.049 1.34-9.585 1.34-9.585 8.23 7.051 12.36 5.28 12.48 4.298.13-.982-7.41-6.476-12.07-13.679 5.41 4.196 14.48 8.349 23.98 3.897-14.73.097-24.44-18.359-32.57-21.642-8.12-3.283-13.76-7.397-20.47-13.442 18.5 1.986 24.39-7.777 24.39-7.777s-12.57.467-20.04-3.236c.29-5.289-3.18-5.848-3.09-7.02.09-1.171 1.95-3.357-.53-5.698 5.08 1.229 8.1.316 8.1.316s-5.93-3.64-9.76-4.322c-3.82-.683-6.66-1.519-9.66-4.975 4.8.078 2.86-4.044 3.72-4.367.86-.322 3.12-4.894 2.7-7.679-.43-2.785-3.01-1.823-3.27-4.142-.27-2.319-2.19-4.522-5.17-3.827-2.98.694-6.29-3.175-5.94-7.792.35-4.617 3.16-4.592 3.31-6.791.16-2.199-3.08-4.425-2.96-7.965.11-3.09.37-5.251-1.74-6.056-.6-.148-1.21-.255-1.83-.32-2.43-.009-2.85 2.164-3.72 5.221-.97 3.397-4.74 4.529-5.25 6.671-.51 2.143 2.15 2.983 1.07 7.485-1.09 4.503-5.43 7.16-8.05 5.583-2.63-1.577-5.12-.079-6.09 2.059-.97 2.138-3.13.413-4.39 2.95-1.25 2.536-.51 7.579.21 8.149.72.569-2.4 3.9 2.19 5.303-3.91 2.37-6.87 2.288-10.73 1.759-3.85-.53-10.61 1.117-10.61 1.117s2.59 1.794 7.8 2.185c-3.08 1.471-1.98 4.12-2.26 5.264-.28 1.144-3.75.605-5.08 5.732-8.26 1.231-20.07-3.082-20.07-3.082s2.58 11.1 20.81 14.898c-8.24 3.689-14.87 5.877-23.61 6.497-8.75.62-23.66 15.209-37.65 10.585 7.67 7.152 17.59 5.995 24.02 3.66-6.65 5.422-15.52 8.331-15.7 9.305-.17.974 3.22 3.913 13.21-.227 0 0-2.54 8.149-1.67 9.531.87 1.381 5.82 1.393 7.24.9 1.43-.494 2.47-3.062 3.93-2.877 1.45.184 3.15.701 5.05-.377 1.9-1.077 3.92.542 5.68.922 1.76.38 9.34-2.977 9.34-2.977a10.34 10.34 0 0 0 1.4 4.323c1.99 3.143 2.06 3.929-1.12 8.069-3.18 4.139-5.42 2.915-9.03 6.899-3.6 3.984-28.62 10.459-40.07 5.767 2.71 4.869 14.88 5.961 14.88 5.961s-7.66 6.956-20.38 3.438c-12.71-3.518-21.89-10.38-33.43-8.554 7.27 1.837 12.64 7.469 13.11 8.275-1.04 2.442.04 3.916.04 3.916s-8.08-1.975-11.89-.636c6.69 1.955 9.95 3.424 11.73 5.744 1.77 2.32 5.2 2.479 7.04 4.979 1.85 2.501 3.88 2.749 7.27 3.457 3.39.708 6.77 2.719 8.64 5.427-6.84-3.662-21.59-3.848-27.46 2.881 7.14-.275 9.36 1.807 15.58 4.744 6.21 2.937 12.66 5.074 15.42 5.56 2.76.485 5.68 3.546 11.19-.16-.04 3.738 2.27 4.868 4.72 4.575 2.45-.293 2.1-1.476 3.79-.9 1.68.577 3.91.576 6.41-1.89 2.49-2.466 3.34-2.471 4.16-2.062.81.409.99 3.232 1.49 4.849s-2.56 2.174-4.68 4.702c-2.11 2.529-3.03 5.501-4.34 6.275-1.3.775-30.85 4.13-62.44-6.633 6.33 7.441 19.43 10.93 19.43 10.93s-28.07-.202-34.76-4.67c-6.69-4.467-9.43-4.282-9.43-4.282a9.964 9.964 0 0 0 3.27 5.162c-1.89.616-1.97 3.618.59 6.188a72.034 72.034 0 0 1-8.79-4.28s5.31 9.814 19.53 15.549c-7.97 1.892-19.03 1.961-23.2.226 19.63 18.524 38.36 21.814 52.15 23.344a36.327 36.327 0 0 1-26.51 5.95c7.78 6.5 24.68 6.88 24.68 6.88l-10.53 2.46s18.77 3.07 28.58-1.35c-7.54 6.72-15.56 7.43-15.56 7.43s11.56 2.81 21.42-1.26c-20.7 9.21-18.65 12.13-39.39 8.27-20.75-3.87-38.15-16.64-38.15-16.64s7.23 14.77 22.22 19.65c-20.1 1.93-53.83-12.48-59.3-16.9 5.41 9.22 15.87 17.64 15.87 17.64s-8.36 2.34-14.13.97c3.33 3.27 9.17 3.06 9.17 3.06l-9.59 10.72s25.25 1.75 39.58-3.55c-10.5 11.45-31 16.98-48.26 19.33 10.82 6.37 28.55 6.47 28.55 6.47l-15.94 5.57s14.61 2.01 33.66-3.57c19.06-5.59 29.64-11.77 40.66-12.29-1.23 3.24-19.38 20.16-33.97 19.94-.11.84-.03 1.7.25 2.5.27.81.73 1.54 1.34 2.13 0 0-6.83 2.65-10.4 2.7 8.16 3.05 17.55.57 23.06-.32 5.52-.89 17.08-3.3 17.08-3.3s-7.78 6.99-14.78 10.62c-6.99 3.63-14.91 7.43-14.91 7.43 2.3-.19 4.61.22 6.71 1.18 3.34 1.61 10.76 3.23 10.76 3.23s-24.05 5.1-34.99 1.61c-10.94-3.48-17.35-2.87-17.35-2.87s2.43 4.22 6.02 4.74c3.6.52 5.87 1.86 6.88 3.44 1 1.57.61 2.9 2.78 5.12 2.18 2.23 11.51 6.99 23.37 7.06-8.93.62-16.2-1.17-22.61.05 4.16 1.46 5.2 4.05 12.37 4.25 7.17.19 25.47 1.62 47.1-5.9-5.09 5.29-12.37 8.18-22.69 9.34-10.32 1.17-17.28 4.4-17.28 4.4 4.41.09 8.8.63 13.1 1.63 7.45 1.68 25.26.64 42.95-3.84-2.29 2.42-10.55 6.26-10.55 6.26s10.45-1.07 25.5-5.42c-6.06 5.7-14.97 11.95-14.97 11.95s13.43-5.75 21.03-7.47c7.59-1.71 13.9-2.47 13.9-2.47l-3.72 23.3s-49.95-5.98-57.39-6.73c-7.43-.75-9.49.01-9.75 1.52-.23 1.32 61.58 11.18 77.8 13.74l15.25 2.49.01-.08c17.48 2.73 77.19 12 77.38 10.7.21-1.52-1.49-2.87-8.82-4.45-7.32-1.58-56.69-11.24-56.69-11.24l3.62-23.31s5.77 2.65 12.47 6.62c6.69 3.97 17.66 13.56 17.66 13.56s-6.56-8.69-10.57-15.99c13 8.77 22.61 13.01 22.61 13.01s-6.68-6.19-8.11-9.21c15.44 9.71 32.07 16.18 39.67 16.87 4.4.37 8.75 1.2 12.98 2.47 0 0-5.64-5.23-15.1-9.51-9.47-4.28-15.51-9.27-18.73-15.86 18.28 13.8 36.14 18.07 43.02 20.08 6.88 2.02 8.68-.12 13.07-.25-5.72-3.13-13.19-3.67-21.5-7 11.33 3.58 21.66 1.91 24.41.47 2.76-1.45 2.78-2.84 4.22-4.02 1.45-1.19 4.03-1.78 7.6-1.16 3.58.61 7.2-2.66 7.2-2.66s-5.91-2.57-17.37-2.6c-11.46-.03-32.8-12.29-32.8-12.29s7.55.72 11.23.24c2.29-.27 4.62.05 6.75.94 0 0-6.37-6.05-11.91-11.66-5.55-5.61-10.8-14.64-10.8-14.64s10.28 5.89 15.25 8.42c4.98 2.54 13.14 7.79 21.85 7.41-3.39-1.14-9.07-5.77-9.07-5.77.76-.37 1.42-.93 1.93-1.61s.85-1.47 1-2.31c-13.94-4.27-26-25.94-26.2-29.41 10.34 3.88 18.5 13.01 34.92 24.19 16.42 11.17 30.9 13.76 30.9 13.76Z" fill="#150330"/></g><g clip-path="url(#d)"><path d="M882.566 1059.03c-2.736-9.26-7.018 17.95-62.742-11.54 27.791 1.14 37.937-9.61 44.005-15.7-14.171 6.57-19.938 1.59-19.938 1.59s27.379-14.97 23.605-22.95c-3.774-7.98-1.755 10.67-35.312 5.93-33.556-4.74-37.879-22.547-37.879-22.547s4.914-2.376 4.663-6.523c14.739 4.031 31.332-2.613 36.669-7.708-14.799 3.492-23.515-1.672-23.515-1.672s7.642-7.245 9.965-14.473c-5.97 4.638-28.987 1.845-49.193-21.209 17.935-3.888 23.633-13.032 14.958-17.226 9.984-.346 19.577-9.752 18.185-12.026-9.014 4.313-21.889 5.005-25.693 1.665-3.803-3.339-13.041-11.487-13.041-11.487s6.726 1.368 10.263-.847c3.538-2.215 3.371-4.534 6.018-4.173 2.646.362 4.103-1.494 1.959-4.156-2.144-2.661-3.475-3.968-7.701-4.951-4.226-.982-10.39-4.298-13.963-12.883-3.573-8.585-6.726-7.935-6.726-7.935s-6.713-43.709-16.454-43.061c-9.74.649.453 24.417-6.326 35.486-6.779 11.068-7.561 13.627-15.691 15.324-8.13 1.698-3.961 10.041 3.936 10.266-3.65 2.93-14.569 2.88-14.569 2.88a23.48 23.48 0 0 0 8.645 3.352c4.412.589 11.463-.917 11.463-.917s-.178 7.482 5.655 8.648c-.044 3.653-13.958 12.415-13.958 12.415s8.754-8.812 4.743-11.281c-4.011-2.469-5.974 1.003-10.565 2.66-4.591 1.657-5.758 1.501-15.097 1.296-9.338-.204-13.872-1.457-22.702-5.252-8.83-3.794-18.14-12.131-18.14-12.131l7.495-1.148-6.195-4.589s13.322-1.462 21.101-3.866 12.288-6.595 10.353-10.238c-1.936-3.643-5.053-3.019-9.518-3.256-4.464-.238-6.356-2.961-11.177-3.935-4.82-.973-7.409 1.536-11.373-1.555-3.964-3.091-21.585-8.582-27.533-16.335 9.638.729 18.336-5.949 17.235-9.44-1.102-3.491-3.867-.166-7.66.108s-5.754-4.19-5.754-4.19 7.123 1.09 13.185-1.912 6.429-9.841 5.685-10.965c-.744-1.124-2.874-.394-7.176.762-4.301 1.155-10.101.004-11.524-4.018-1.423-4.021-6.698-8.664-11.173-9.383a5.812 5.812 0 0 0 3.56-5.634 8.023 8.023 0 0 0 4.02 2.124 8.058 8.058 0 0 0 4.533-.397c4.976-2.014 2.418-8.463-1.036-10.562-3.453-2.099-6.887-4.141-10.347-11.506-3.459-7.366-7.416-9.934-8.305-15.233-.89-5.299-9.039-25.675-13.706-24.468-4.666 1.206-1.64 9.541-1.428 11.711.213 2.169-2.297 7.435-1.431 14.339.867 6.905-7.106 25.364-8.732 30.602-1.625 5.239-16.433 5.852-15.607 16.006.826 10.154 12.105-1.731 12.8 2.413.696 4.143-5.562 8.99-13.486 11.973-7.924 2.982-3.636 3.853-9.779 6.798-6.142 2.945-7.988 9.58-7.662 12.365-6.561.094-10.355-1.867-10.355-1.867a9.735 9.735 0 0 0 2.628 3.315c-4.829 1.325-6.04.128-6.04.128s2.609 5.011 11.937 3.888c9.327-1.123 12.85 1.81 20.038-.203-5.305 3.54-7.733 8.872-12.036 10.078-4.303 1.206-14.45 4.189-18.745 10.5-4.294 6.31-6.605 3.314-5.831 7.384s3.07 1.62 5.406 2.114c2.336.494 7.669 2.176 14.368 1.344 6.7-.833 8.899-3.257 8.899-3.257s.804 6.109 4.766 6.844c-.976 5.199-3.391 6.159-6.383 6.812-2.991.653-5.219 2.79-4.627 5.41.591 2.62 3.224 3.799 8.313 2.944 5.09-.854 14.19-4.295 14.19-4.295s-9.565 20.59-31.537 31.48l-3.575-.84s2.639-3.414 2.029-6.384c10.516-2.651 16.683-8.098 14.97-11.678-1.712-3.58-8.785 3.691-23.66-7.106-14.875-10.796-17.649-15.466-19.567-18.347a8.585 8.585 0 0 0-5.222-3.424 102.971 102.971 0 0 0 11.065-3.952c4.695-2.118 5.048-6.034 2.862-7.984-2.186-1.949-3.565-1.496-5.51-1.169-1.945.326-4.911-1.935-7.43-1.774-2.519.161-3.696-1.253-4.008-3.416-.313-2.163-2.179-3.109-2.768-2.949-.59.159 1.252-4.572-1.482-5.875s-2.913-1.525-2.994-2.368c-.08-.842 2.849-3.791 1.66-6.24-1.189-2.449.45-2.614-.492-5.215-.942-2.602-1.586-3.43-1.957-6.721-.371-3.292-2.377-4.294-2.746-7.153-.369-2.859-1.493-14.484-4.354-14.376-2.861.108-3.259 4.294-2.74 8.407.519 4.112-1.625 13.365-2.753 16.576-1.128 3.21-1.147 6.648-.512 8.142.635 1.495-1.494 4.28-.899 6.194.594 1.915 1.958 2.098 2.318 4.244.361 2.145-3.118 6.153-7.13 7.592-4.011 1.439-6.392.197-7.764 2.25-1.373 2.054.328 5.565 3.979 6.553 3.651.988 6.042 2.35 8.663 1.476-6.68 7.688-14.325 11.611-18.561 10.449-4.236-1.162-2.883.877-5.939.725-3.056-.152-8.563-.577-8.563-.577s8.464 6.908 14.758 7.513c-3.723 3.214-14.054 5.281-14.054 5.281s7.829.78 10.211 2.152c2.382 1.373 19.591-3.289 19.591-3.289a22.795 22.795 0 0 1-6.328 7.317c-4.63 3.647-8.822 6.778-12.222 8.971-3.4 2.192-8.854 4.427-13.872 7.032-5.017 2.605-7.058-.285-8.973-.256-1.914.03-2.419 1.414-4.408.519-1.989-.895-8.545.548-12.171-.827 3.653 7.252 18.249 15.064 28.756 15.254 10.508.189 16.21-2.793 16.21-2.793s5.276 3.747 10.328 2.607c-11.026 13.695-17.247 18.818-28.977 22.117 2.771-7.202 4.202-9.87 3.51-10.741-.692-.871-17.962 11.728-25.902 13.172-7.941 1.444-17.38 2.686-27.695.39-10.316-2.297-27.011-2.635-31.947-8.323 19.934 3.381 29.659-3.318 37.411-4.62 7.752-1.301 16.128-8.75 16.128-8.75a96.591 96.591 0 0 0-16.641 1.787c-6.573-8.162-18.646-8.23-31.693-12.112 26.039 6.112 36.724-3.407 36.724-3.407s-12.092-4.153-15.577-11.071c12.11-1.701 25.639-19.311 25.639-19.311s-43.033.79-68.788-15.481c18.449-2.211 39.867-13.089 37.884-24.902-1.983-11.813-1.152-1.569-20.095-1.037-18.944.532-26.489-2.169-26.489-2.169s16.935-3.287 9.425-12.399c21.455 1.433 32.871-3.314 42.558-15.535-23.04 6.517-37.073 1.814-37.073 1.814s13.964-2.567 18.437-11.485c-9.723.091-15.891.241-29.422 1.415-13.532 1.174-15-2.336-15-2.336s13.357-7.027 11.702-12.489c-1.654-5.463-9.864 1.052-26.127-11.213 13.085 5.013 18.593-.031 18.593-.031a158.917 158.917 0 0 1-13.624-10.805c-4.746-4.5-9.575-7.808-12.09-14.003-2.515-6.194-.013-9.706-3.435-12.516-3.421-2.809-1.75-11.328-5.769-10.653-4.018.675-.811 3.953-2.36 10.548-1.55 6.595-3.198 9.954-1.98 16.366 1.218 6.412-11.773 28.313-14.656 44.538a33.397 33.397 0 0 0 12.762-12.738s-2.974 13.451-4.369 18.318c-1.396 4.867-4.975 7.311-6.476 11.974-1.5 4.663-3.586 4.57-7.246 6.958-3.661 2.387-4 4.277-3.835 6.162.165 1.886 1.839 4.395 7.209 3.826-7.544 5.607-19.628 13.598-23.602 16.763-3.975 3.165-.368 6.175 3.761 6.579 4.129.405 10.508 1.036 17.457-1.924a44.507 44.507 0 0 0 10.459-5.875 25.326 25.326 0 0 0-2.684 7.36c-.719 4.018-33.963 27.557-48.326 31.66 12.781 3.142 50.13-9.968 59.049-18.817-9.865 26.079-23.11 30.287-33.184 36.168-10.074 5.881-17.759 4.996-19.633 8.332-1.875 3.336-.097 17.892 33.319 12.533-3.614 8.553-14.386 7.935-16.466 12.695-2.08 4.761 1.227 11.275 10.897 10.749 9.67-.525 6.132 4.933 6.132 4.933-2.271 5.185-4.45 11.221-6.796 12.713-2.346 1.492-9.002-1.872-12.751-2.24-3.749-.368-11.667.065-16.794-5.439 8.581-1.239 15.391-7.066 13.404-10.418-1.987-3.352-11.264-1.684-17.292-5.456-6.027-3.771-11.63-5.61-15.577-11.313 7.139.886 13.903-6.362 11.079-9.524-2.824-3.161-9.405.482-19.471-6.58 11.02.234 16.485-7.653 14.747-10.241-1.738-2.589-15.949 1.278-25.416-10.467 5.624 1.01 13.642-1.595 13.397-3.478-.246-1.882-7.42-1.775-13.718-9.5-6.297-7.725-4.641-13.32-8.97-16.541-1.295-2.18-6.31-30.061-7.528-29.796-1.218.265-1.644 14.275-.634 18.426 1.01 4.151 2.619 7.718 1.385 11.44a17.216 17.216 0 0 0-.209 9.462c.534 2.76-2.222 4.814-2.357 6.962-.134 2.147-6.292 4.642-5.896 6.096.396 1.454 4.803 1.651 6.22 2.209 1.417.557-7.705 8.262-13.986 9.841-6.281 1.578-4.106 3.278-6.132 3.487-2.026.209-2.719-.732-2.958-.168-.239.563.285 4.464 4.134 3.626 3.85-.838 4.494 2.156 7.653 1.958 2.14-.17 4.259-.546 6.328-1.123 0 0-1.845 4.419-4.133 5.468-2.289 1.049-6.454 1.214-6.777 3.263-.322 2.048 3.2 4.377 7.101 3.843a20.82 20.82 0 0 0 6.939-2.293s-5.712 7.193-10.755 8.503c-5.044 1.31-12.652 2.326-13.736 4.17-1.085 1.844.333 3.972 6.71 4.704 6.376.732 6.936 2.864 6.936 2.864s-6.25 1.644-6.497 2.944c-.246 1.3 1.677 3.968 7.318 3.152 5.642-.816 7.884-2.985 7.884-2.985s-6.141 5.543-9.689 9.26c-3.548 3.718-12.134 4.626-14.148 6.888-2.015 2.262-6.651 2.506-8.74 3.059-2.09.552-4.855 3.997.101 6.62 4.956 2.622 15.443 1.183 15.443 1.183s-4.615 7.412 2.767 8.6c-.394 5.172-13.552 13.622-15.307 14.242-1.755.62-5.72.83-7.576 2.47-1.856 1.64-2.015 6.05 4.43 6.95 6.445.9 11.576 5.89 20.11 3.59-3.356 4.08-16.242 12.29-16.242 12.29s-15.242-5.94-23.289-14.22c-8.047-8.28-15.807-15.926-20.206-18.904 15.396 1.444 26.39-.584 33.33-2.806 6.941-2.223 11.104-4.443 10.892-5.707-.212-1.263-15.615-1.064-17.99-1.733 5.11-4.04 3.545-7.826 3.545-7.826s-10.383 4.765-23.402-3.765c-13.019-8.53-29.164-22.074-36.096-35.443a106.672 106.672 0 0 0 42.056 20.403c7.686 1.731 23.421 1.405 32.286-5.119a99.288 99.288 0 0 1-31.404-10.448s15.65-9.677 10.714-21.206c-11.66 1.857-26.202-.283-35.527-5.879-9.324-5.595-10.429-5.016-10.429-5.016s12.863-11.415 7.225-20.026c-1.184-1.695-9.534 1.701-16.703-1.345-7.168-3.046-8.36-2.625-11.718-5.596 5.974.326 15.608-4.151 13.32-9.468-2.286-5.316-10.492-4.613-15.358-9.828 1.094-2.571.88-4.267-.332-5.524 2.937-1.944 3.6-7.503 2.548-10.58-1.052-3.076-6.27-10.025-11.09-14.121-4.819-4.095-10.647-30.923-12.502-30.481-1.855.443 1.094 6.514-.286 10.331-1.38 3.817-1.184 8.83-.791 13.336.393 4.506-.155 9.785-2.205 13.04-2.05 3.255-4.485 6.201-4.52 8.393-.037 2.191-6.057 3.938-5.715 6.398a10.62 10.62 0 0 0 3.928 6.309c1.573 1.066 4.757.592 4.757.592a27.28 27.28 0 0 1-8.947 10.133c-6.066 3.939-8.315 7.57-8.235 9.611.08 2.041 2.46 4.36 6.411 4.493 3.952.132 4.63 2.244 7.586 1.979 2.956-.265 2.454-3.434 4.615-3.797 2.162-.362 3.728-.424 3.905.271.177.696-5.853 4.367-6.188 7.546-.336 3.178-5.454 4.762-8.583 6.345-3.128 1.583-7.982 1.612-8.602 3.459-.619 1.846-7.18 7.177-7.007 9.405.172 2.227 7.48.929 9.492 2.384 2.012 1.455 13.151 2.636 14.979 2.389 1.827-.246 1.906.285 1.96.608.055.323-5.676-.115-7.925 3.516-2.25 3.631-1.41 6.28-7.027 6.286-5.615.006-5.832 5.693-13.872 8.17-8.04 2.478-41.802 4.935-53.207-5.891 5.884 8.268 13.03 12.738 15.102 16.177 2.072 3.439 8.029 1.432 12.659 4.038 4.63 2.607 13.114 8.554 16.253 7.03-1.906 2.908-17.215 8.661-25.954 5.949 4.692 4.782 15.085 4.829 18.132 6.312 3.047 1.482 13.406 1.626 18.137-.76 4.732-2.385 14.383-4.106 14.383-4.106a3.602 3.602 0 0 0 4.011.545c-.664 2.599-8.579 7.805-12.718 13.475-4.14 5.671-31.895 25.862-41.585 26.392 3.477 4.1 14.668 7.09 22.74 6.43 8.072-.66 21.066-4.13 21.066-4.13s1.303 5.96-8.588 10.1c8.88 3.49 26.727-1.4 26.727-1.4s-5.763 2.56-11.973 12.56c-6.21 10.01-24.115 14.5-27.575 19.46-3.46 4.96-15.47 11.95-20.087 12.73-4.618.77-17.505 5.12-20.73 3.78-3.227-1.34-7.568 3.06 1.305 10.12 8.873 7.06 12.558 7.65 19.839 6.43 7.28-1.22 24.015-5.04 24.015-5.04s-20.916 17.54-21.253 19.68c-.338 2.15 2.885 7.08 12.292 4.81 9.407-2.28 28.736-10.8 34.338-18.41.265 5.73 4.134 6.57 6.744 6.23 2.61-.33 9.864-4.24 16.58-13.03-2.925 7.54-16.572 31.31-31.328 42.52-14.756 11.21-32.3 16.17-32.966 20.26-.667 4.09.988 9.79 13.281 8.53 12.294-1.27 21.088-2.08 21.088-2.08s-16.495 25.46-28.316 35.13c-11.82 9.68-26.595 13.62-31.446 13.25-4.851-.37-5.695 5.73.53 7.97 6.224 2.24 10.346 2.12 12.37 3.1 2.023.98 10.206-1.85 15.98-1.09 5.773.75 23.166-7.87 23.166-7.87-.35.99-.372 2.06-.06 3.06s.94 1.87 1.79 2.49c-9.771 8.41-9.637 17.15-14.204 20.03-4.567 2.88-24.755 12.97-28.328 20.51l874.974-146.92s31.475-23.42 28.691-32.66Zm-744.351 16.37a18.49 18.49 0 0 1-6.578-8.25l14.376 4.76s-4.291 1.7-7.798 3.49Zm15.942-20.39 11.006-1.05-3.975 6.04-7.031-4.99Zm32.496 49.68a37.086 37.086 0 0 1-16.478-8.97c11.362 2.27 26.935-2.51 26.935-2.51l-10.457 11.48Zm240.524-111.041-3.368-5.799 4.754-7.365 8.875 6.467-10.261 6.697Zm144.577-16.51-8.155-5.791 11.653-1.957-3.498 7.748Zm7.111-20.702-11.175-3.502 17.096-2.87-5.921 6.372Zm-.081-19.494-14.311-3.167s20.518-3.848 26.218-7.987c-2.655 4.404-11.912 11.124-11.912 11.124l.005.03Zm140.149-.107c-2.43 1.415-16.545 6.092-18.725 12.964-2.18 6.872 16.689 9.807 16.689 9.807-2.211 4.883-2.515 12.759-2.515 12.759l-21.116-11.45 4.008-.673-20.081-13.347 10.686 1.791-15.65-13.304s15.882-2.939 21.153-.37c5.27 2.57-.859-9.927-4.686-12.084 10.118.819 22.263-3.738 22.263-3.738s-6.36 7.302-10.41 11.698c-4.051 4.397-1.723 7.188 9.797 3.663 11.521-3.526 13.464-4.648 13.464-4.648s-2.461 5.439-4.882 6.903l.005.029Z" fill="#0F0223"/></g><g opacity=".8" clip-path="url(#e)"><path d="M1631.76 1452.74c5.57 1.97 11.93 3.76 18.32 5.41-4-12.2-5.47-28.14-7.33-38.22-.28-1.47-1.94-14.4-1.58-19.46-.23-3.28 11.31-10.09 1.73-12.73-2.49-.68-5.47-1.24-8.38-1.88-1.17 3.36-3.12 6.76-3.67 9.69-3.4 18.21-3.38 38.34.91 57.19Z" fill="#878286"/><path d="M1622.32 1378.19c.33-1.11.22-3.86.68-4.95-25.31 14.85-18.43 43.48-13.18 60.03 1.79 5.65 4 11.08 12.58 15.55 2.67 1.39 5.86 2.69 9.36 3.93-4.28-18.85-4.31-38.99-.9-57.2.55-2.93 2.49-6.33 3.67-9.69-6.21-1.38-12.1-3.19-12.21-7.67Z" fill="#6D696D"/><path d="M1863.99 1391.99c-8.71-8.97-21.56-15.51-39.43-19.69-36.16 24.78-114.18 17.78-168.72 16.42-8.31-.21-21.74-.17-31.13-1.97 2.25 1.88 4.44 3.81 5.18 6.06.72 2.16-.02 4.15 1.68 6.25 3.34 4.11 9.65 5.75 18.02 7.36 27.43 5.27 50.77 10.42 74.36 19.2 21.58 8.02 41.72 16.9 63.84 24.6 11.67 4.06 23.84 7.85 36.83 10.89 7.29 1.71 22.19 5.96 30.8 5.19 9.28-.84 21.81-8.64 27.98-11.63 13.06-6.32 24.86-13.16 35.25-20.51-16.75-12.1-40.91-28-54.66-42.17Z" fill="#999698"/><path d="M1813.99 1370.18c-13.72-2.27-28.17-3.32-42.74-3.84-1.98 3.95-13.1 7.77-21.72 9.63-22.86 4.94-65.79 7.8-88.49 1.06-11.65-3.46-9.69-6.47-3.44-8.89-6.4.47-12.75 1.01-18.96 1.69-14.37 1.57-23.59 4.77-19.01 11.96 1.11 1.74 3.1 3.33 5.05 4.97 9.39 1.8 22.82 1.76 31.13 1.97 54.54 1.36 132.56 8.36 168.72-16.42-3.35-.79-6.82-1.52-10.54-2.13Z" fill="#A5A0A4"/><path d="M1661.04 1377.03c22.7 6.74 65.62 3.87 88.48-1.06 8.62-1.86 19.75-5.68 21.73-9.63-11.55-.4-23.17-.47-34.57-.47-25.82-.01-53.05.36-79.08 2.27-6.25 2.42-8.21 5.42 3.44 8.89Z" fill="#999698"/><path d="M1911.61 1429.15c-23.63 12.13-45.37 18.09-65.97 31.4-.07.05 2.85 5.34 2.8 5.39-.73.27-11.96 5.71 5.48 5.34 16.51-.35 58.84-5.41 65.63-8.42 18.19-8.06 13.21-22.16-7.94-33.71Z" fill="#6D696D"/><path d="M1848.47 1465.94c-19.36-5.17-25.87-13.54-40.05-19.84-16.54-7.35-32.54-15.45-51.55-21.39-16.71-5.21-36.33-8.7-55.36-12.01 3.98 15.49 4.05 44.16 4.94 58.17 25.23 4.33 57.3 7.96 85.51 6.29 17.91-1.33 43.96-5.16 61.99-5.88 3.03-1.42-5.61-3.25-5.48-5.34Z" fill="#878286"/><path d="M1690.24 1410.73c-9.47-1.67-19.03-3.26-28.71-4.64-4.93-.7-17.48-2.42-19.97-4.79-.25-.24-.34-.53-.35-.83-.36 5.06 1.3 17.99 1.58 19.46 1.86 10.08 3.33 26.02 7.33 38.22 7.31 1.9 14.63 3.63 20.79 5.25 7.93 2.09 20.53 4.9 35.53 7.47-.88-14.01-.96-42.68-4.94-58.17-3.79-.66-7.55-1.31-11.26-1.97Z" fill="#6D696D"/><path d="M1869.48 1429.15c-16.06-7.22-42.74-11.84-64.78-8.36 5 5.75 21.45 23.06 29.38 35.05.64.97 17.9-2.54 19.9-3.26 8.36-3.05 27.11-7.65 28.93-12.97 1.37-4-8.04-8.03-13.43-10.46Z" fill="#878286"/><path d="M1859.16 1448.15c-1.97.76-15.79 8.48-23.43-1.2-3.8-4.81-9.46-13.88-11.87-17.8-2.69-4.37-15.7-10.72-26.45-13.2 4.37 3.33 26.19 23.02 18.75 25.64-5.65 1.98-20.92-3.4-24.82-4.71-15.64-5.68-28.1-11.91-44.94-16.74-19.11-6.12-37.69-12.98-63.71-14.44-36.64-2.05-35-12.02-30.02-14.21 3.86-1.7 20.17-.8 22.04-2.16-26.45-2.94-39.5-5.82-46.27-8.7-4.12-1.75-2.77-5.69 8.83-10.64-23.2 2.32-20.77 8.51-18.8 10.9 1.28 1.56 9.97 5.5 9.97 9.78 0 3.04-2.13 7.23 6.11 18.74 1.24 1.74 9.83 26.94 12.81 38.2 7.51-4.32 2.49-23.62.96-34.06 11.21 1.05 23.97 3.37 35.22 3.84 8.68.36 12.69-2.09 25.35.6 10.15 2.17 23.05 3.06 32.27 5.94 6.79 2.26 38.6 17.42 48.19 21.79 11.74 5.35 5.02 10.13 26.25 13.14 8.91 1.26 19.15 4.57 36.8 10.07.97-4.58-1.53-8.36 11.78-13 32.26-11.25 37.11-19.29 47.44-26.77-28.57 4.45-37.26 13.1-52.46 18.99Z" fill="#BCB7BB"/><path d="M1844.24 1378.71c-13.46-8.73-49.57-12.84-58.12-11.48 6.79.92 40.79 6.24 30.39 9.75-28.18 9.53-47.16 9.51-61.06 10.33-18.76 1.09-42.66 3-58.65 2.8 10.76 3.6 50.74 1.23 74.44 1.64 8.23.14 36.39.39 50.18-3.27 8.87-2.36 27.65-6.63 22.82-9.77Z" fill="#BCB7BB"/><path d="M1473.93 1481.5c6.5-1.44 13.44-2.52 20.19-3.41 17.39-2.29 33.54-4.41 49.9-8.1.95-.21 1.93-.45 2.92-.7.2-.04.39-.09.58-.14.99-.25 1.99-.5 3.01-.76.01-.01.02-.01.03-.01-1.81-5.93-5.44-12.04-11.91-16.75-11.11-8.09-31.77-7.31-50.12-8.37-12.03-.69-22.98.38-28.41 2.81-5.78 2.59-6.1-.46-4.49-2.13 3.4-3.56 9.87-2.63 15.59-5.09 5.22-2.24 6.1-6 12.79-7.71 5.44-1.39 11.12.46 22.51-1.66 15.77-2.94 36.66 7.56 49.53 11.77 3.04.99 5.76 2 8.24 3.02-11.3-9.57-25.02-18.59-41.25-26.92-4.66-1.26-9.62-2.42-14.94-3.48-18.46-3.69-54.2-15.33-74.63-16.1-6.6-.25-25.05 1.22-41.3 15.8-8.61 7.73-9.13 17.53-9.01 25.98.24 16.58 21.23 73.89 25.9 81.33 5.8 9.22 12.06 20.03 25.61 27.19 6.27.02 12.54-.03 18.8-.14-.6-.72-1.23-1.51-1.95-2.4-11.51-14.18-24.98-60.07 22.41-64.03Z" fill="#878286"/><path d="M1344.19 1412.48c-17.81 22.24-14.93 61.47 1.44 81.13 3.37-5.22 7.71-11.88 5.3-29.03-1.64-11.66-3.85-28.84.96-35.61 8.2-11.53 30.75-22.34 48.17-31.22 21.96-11.18 41.94-3.2 49.83-1.09 13.54 3.64 34.36 8.2 53.32 11.42-4.23-1.82-8.55-3.62-13.05-5.36-37.01-14.32-84.26-22.62-130.39-13.27-24.98 5.05-47.77 13.03-70.5 19.99-22.16 6.79-46.95 12.92-66.86 21.2a75 75 0 0 0-4.27 1.95c32.88-6.27 51.49-5.45 86.78-11.23 3.88-.63 35.31-8.17 39.27-8.88Z" fill="#BCB7BB"/><path d="M1433.49 1397.77c20.44.77 56.18 12.41 74.64 16.1a244.6 244.6 0 0 1 14.94 3.48c-6.24-3.19-12.87-6.28-19.81-9.27-18.96-3.22-39.79-7.78-53.33-11.42-7.89-2.11-27.87-10.09-49.83 1.09-17.42 8.88-39.96 19.69-48.16 31.22-4.82 6.77-2.61 23.95-.96 35.61 2.4 17.14-1.93 23.81-5.3 29.03-16.38-19.66-19.25-58.89-1.45-81.13-3.96.71-35.39 8.25-39.26 8.88-35.3 5.78-53.9 4.96-86.78 11.23-15.88 7.85-20.26 17.99-22.53 28.79-3.51 16.69-11.34 49.6 1.15 58.71 1.53 1.12 3.3 2.13 5.17 3.1-2.89-5.24 4.45-11.04 13.41-18.04 16.96-13.24 33.72-25.34 61.36-34 .11-.04.19 0 .23.05 6.36-4.78 12.1-9.67 19.35-14.16.5-.32 1.45-.13 1.32.26-4.09 12.14-25.28 24.3-39.26 34.29-7.97 5.7-16.4 11.3-23.81 17.17-9.14 7.23-13.74 12.92-11.72 21.63 0 .03-.02.07-.02.1 4.96 1.23 10.08 2.25 15.13 3.18.62-8.53 14.36-15.07 29.9-18.78 11.12-2.66 23.71-3.12 35.31-5.17 8.34-1.48 15.92-2.89 24.97-2.42 24.59 1.28 28.41 7.57 42.09 15.86 5.78 3.51 16.55-1.35 20.87-5.48 2.98-2.85 8.4-4 14.01-5.34-7.68-18.51-21.73-59.24-21.93-72.79-.12-8.45.41-18.25 9.02-25.98 16.24-14.58 34.69-16.04 41.28-15.8Z" fill="#A5A0A4"/><path d="M1306.52 1434.92c-12.86 1.96-27.48 1.89-38.83 5.71-7.74 2.61-8.94 6.17-13.31 9.92-5.56 4.76-16.07 7.48-23.45 11.51-14.86 8.13-17.83 20.17-22.5 30.29-2.84 6.16-12.35 18.19 3.98 22.04 1.14.27 2.18.02 2.64-.51 10.96-12.62 28.23-23.09 47.87-32.91 11.93-5.98 30.66-15.28 34.72-23.67 1.24-1.4 8.07-14.29 19.61-21.13 5.14-3.05-6.16-1.94-10.73-1.25Z" fill="#969295"/><path d="M1234.55 1508.75c7.41-5.87 15.84-11.46 23.81-17.16 13.98-9.99 35.17-22.16 39.26-34.29.14-.4-.81-.58-1.32-.27-7.24 4.49-12.99 9.39-19.35 14.16-.03-.04-.11-.08-.22-.04-27.65 8.65-44.4 20.76-61.37 34-8.95 6.99-16.3 12.8-13.41 18.04 5.84 3.02 13.1 5.39 20.86 7.3 0-.04.02-.07.01-.11-2.01-8.7 2.59-14.39 11.73-21.63Z" fill="#878286"/><path d="M1602.3 1493.39c-5.21-17.49-29.86-42.23-37.99-49.12-2.48-1.02-5.2-2.03-8.24-3.02-12.87-4.21-33.76-14.71-49.53-11.77-11.39 2.12-17.07.27-22.51 1.66-6.69 1.71-7.57 5.47-12.79 7.72-5.72 2.45-12.18 1.52-15.59 5.08-1.61 1.68-1.29 4.72 4.49 2.13 5.43-2.43 16.38-3.5 28.41-2.81 18.35 1.06 39.01.28 50.12 8.37 6.46 4.71 10.1 10.82 11.91 16.75-.01 0-.02 0-.03.01-1.02.26-2.03.52-3.01.76-.19.05-.39.1-.58.14-1 .25-1.98.49-2.92.7-16.36 3.69-32.51 5.81-49.9 8.1-6.76.89-13.69 1.97-20.19 3.41-47.39 3.96-33.92 49.85-22.42 64.04.72.89 1.35 1.68 1.95 2.4 7.15-.13 14.28-.35 21.39-.67 9.29-.43 21.93-1.96 35.7-4.1 35.79-21.15 45.91-72.87 46.43-72.9 3.28-2.42 12.56-4.04 17.94-5.07 1.39-.26 2.47.39 2.61.95.18.67.38 1.34.58 2.01 8.36 13.69 17.01 40.73 12.72 57.95 6.57-1.97 11.34-3.76 13.42-5.19.01 0 2.96-10.98-1.97-27.53Z" fill="#6D696D"/><path d="M1577.97 1465.73c-4.66-1.45-9.32-3.2-18.05-3.02-4.14.08-11.68-2.05-15.9-1.63-9.89.99-20.32 4.95-46.98 5.18-16.89.15-34.58-1.13-49.14 3.29-6.03 1.83-7.37 3.6-10.9 6.69-7.07 6.17-15.74 5.54-18.37 8.84-3.41 4.26 3.59 11.04 1.83 14.7-.57 1.16 1.68 1.35 3.18.31 9.26-6.45 19.55-14.61 33.94-18.71 10.14-2.88 19.68-5.08 45.64-5.29 18.87-.16 29.8-3.39 44.01-4.04 20.78-.95 17.89-5.71 30.74-6.32Zm-914.439-66.47c5.977-.06 9.536-1.83 9.536-4.27 0-9.26-9.122-18.05.618-26.56 6.639-5.8 19.749-8.85 19.678-16.99-.004-.4-.741-1.75-1.76-3.22-14.632.64-28.046 4.93-41.694 8.36-5.262 1.32-34.177 9.85-43.895 20.45-6.387 6.96-8.377 14.81-8.002 22.12 9.546 6.98 52.228.26 65.519.11Zm79.664-31.68c-8.77 9.44 4.194 12.48-6.33 18.93-3.913 3.19-6.216 7.3-3.203 9.11 6.065 3.65 31.972 6.56 43.944 4.25 13.03-2.51 19.386-9.37 28.116-14.57 7.133-4.25 12.347-8.43 21.994-11.61 2.58-.85 11.12-2.24 20.529-3.73l-.229-.03c8.487-2.52 21.107-5.47 25.364-10.09-9.692-3.52-57.667-6.91-85.845-4.98-15.531 1.05-30.931 3.8-46.471 1.84 3.771 3.6 5.002 7.79 2.131 10.88Z" fill="#A5A0A4"/><path d="M984.772 1442.62c-.415-16.65-3.357-26.91-16.268-36.96 9.832 11.38 1.045 20.17-18.66 26.87-6.528 2.21-9.228 6.68-17.538 7.41-12.25 1.08-23.617 2.63-32.409 9.77-2.845 2.31-11.173 1.14-16.012 3.44-7.23 3.44-18.787 6.89-27.834 8.99-32.995 7.63-122.302 23.43-159.003 11.09-1.861-.62-17.605-9.16-14.87-9.23 30.715-.73 58.381-8.09 80.463-17.28 7.067-2.95 17.526-8.55 26.33-10.13 33.525-6.03 16.458-8.47 20.971-14.79 4.786-6.71 20.053-7.51 33.092-9.92 10.07-1.86 34.984-3.63 37.622-8.96 2.259-4.56 7.768-10.29 3.604-14.54-2.47-2.52-14.411-2.74-19.938-3.49-5.761-1.09-11.57-1.73-17.6-2.39-4.116-.46-3.895-2.87-1.068-3.89 9.55-3.42 20.468-4.75 31.725-4.6-9.533-1.49-19.286-2.8-29.153-4.05-9.405 1.48-17.945 2.88-20.53 3.73-9.647 3.18-14.861 7.36-21.993 11.61-8.73 5.2-13.94 12.87-26.97 15.38-11.972 2.31-39.021-1.41-45.09-5.06-3.013-1.81-.711-5.92 3.202-9.11 10.525-6.45-2.439-9.49 6.33-18.93 2.872-3.09 1.641-7.28-2.139-10.88-.719-.09-1.434-.18-2.148-.29-10.622-1.65-19.312-5.17-29.718-7.06-6.101-1.11-11.932-1.38-17.583-1.13 1.019 1.47 1.76 2.82 1.76 3.22.071 8.14-13.039 11.19-19.678 16.99-9.739 8.51-.617 17.3-.617 26.56 0 2.44-3.56 4.2-9.537 4.27-13.295.15-55.977 6.87-65.523-.11.424 8.34 3.922 15.97 7.618 20.74-.701 4.42-1.429 8.83-2.007 13.26-1.5 11.47-3.74 23.33 4.367 34.41 13.458 18.39 50.64 28.55 84.949 37.07 4.147 1.03 9.109.31 11.121-1.63 1.729.02 3.59-.17 5.54-.67 10.772-2.8 25.968 4.19 41.601 10.66 54.394-1.59 113.679-10.06 163.057-21.13 19.449-4.36 70.132-22.95 70.106-25.23.009 0 .481-21.92.428-24.01Z" fill="#999698"/><path d="M845.653 1378.62c-2.827 1.01-3.048 3.42 1.068 3.88 6.03.67 11.839 1.31 17.6 2.39 5.527.76 17.468.98 19.938 3.5 4.164 4.25-1.349 9.97-3.603 14.53-2.638 5.33-27.552 7.1-37.623 8.96-13.039 2.41-28.306 3.22-33.092 9.92-4.513 6.32 12.554 8.76-20.97 14.79-8.805 1.58-19.264 7.19-26.33 10.13-22.082 9.2-49.749 16.56-80.463 17.29-2.735.06 13.008 8.6 14.869 9.22 36.701 12.34 126.008-3.46 159.003-11.09 9.048-2.09 20.605-5.55 27.834-8.99 4.844-2.3 13.172-1.13 16.013-3.43 8.791-7.14 20.163-8.69 32.408-9.77 8.311-.74 11.01-5.2 17.539-7.42 19.704-6.7 28.491-15.49 18.659-26.86-4.826-3.76-11.006-7.49-19.03-11.52-20.551-10.31-45.447-15.97-72.099-20.14-11.253-.14-22.175 1.18-31.721 4.61Z" fill="#A5A0A4"/><path d="M744.733 1491.73c-11.602-12.29-38.271-21.07-58.968-29.66-41.257-17.13-77.084-47.67-76.784-64.1.101-5.66-4.283-12.87-2.965-20.95-9.62 9.86-10.467 23.7-10.855 28.55-.962 12.09 1.394 24.62 3.061 36.24 1.742 12.13 1.284 25.74 17.684 35.77 16.657 10.19 39.956 20.45 63.564 26.83 22.162 5.99 71.734 8.58 71.734 8.58s-1.425-15.91-6.471-21.26Z" fill="#878286"/><path d="M893.016 1437.3c-13.065 3.67-25.196 6.78-29.303 8.57-4.636 2.02-17.23 3.46-22.686 4.98a441.078 441.078 0 0 1-49.806 10.85c-29.065 4.56-74.583 11.76-101.469 1.99 11.24 11.21 45.699 30.75 50.274 46.99.013.05.07.08.097.13-10.155-1.94-27.12-6.19-35.699-11.35-9.233-5.55-29.577-14.29-40.322-16.42-3.256-.64-14.385-2.07-17.733-3.93-13.308-7.4-16.423-5.76-21.734-7.46-14.212-4.56-22.518-12.59-25.244-20.88 3.445 17.12 12.421 25.06 18.575 28.71 29.55 17.54 52.783 25.02 82.673 29.11 27.521 3.76 50.591 5.25 50.591 5.25s40.159-1.08 66.727-4.74c18.05-2.5 97.626-15.64 113.533-19.54 26.025-6.38 72.16-15.89 74.98-18.05 2.59-6.48 1-17.98-.04-22.56-.9-3.98-2.71-8.26-5.21-12.58-21.697 2.06-55.548 5.5-72.094 11.58-13.172-3.36-30.084-8.39-36.11-10.65Z" fill="#6D696D"/><path d="M927.941 1425.44c-7.856 3.99-21.848 8.2-34.91 11.86 6.026 2.26 22.938 7.29 36.105 10.65 16.542-6.08 50.397-9.51 72.094-11.58-7.462-12.91-22.411-29.32-36.381-35.67-5.32 11.25-22.409 17.37-36.908 24.74Zm-41.042 12.99c-5.813-.86-16.581-2.17-25.743-2.44.472 1.12 3.454 5.68 5.082 11.11 4.023 13.42 12.422 34.59 13.136 35.67 1.09 1.66 15.135-.8 16.626-4.2 1.636-3.72-6.573-30.8-9.101-40.14Z" fill="#5B575B"/><path d="M1153.7 1474.15c-36.54-16.56-91.43-42.71-146.79-39.85-28.5 1.48-59.823 6.36-84.499 12.7-30.234 7.76-64.058 21.89-84.799 32.01-2.929 1.43 7.997 3.53 10.705 3.83 100.358 11.1 204.063 9.56 302.893-4.22 3.98-.56 5.62-3.06 2.49-4.47Z" fill="#999698"/><path d="M885.093 1375.26c-.767-.75-7.446-13.29-11.689-15.41-5.973 2.98-27.371 4.62-32.854 6.64-20.221 7.46-27.455 13.57-46.33 21.71-7.111 3.09-11.261 11.22-24.376 9.9-12.532-1.26-34.42-4.58-43.282 1.67 18.046 2.34 26.864 4.67 44.782 5.66 7.424.42 23.697-1.39 28.311-4.06 11.151-6.47 19.117-11.27 34.812-15.81 15.408-4.46 40.044-1.64 50.626-10.3Z" fill="#6D696D"/><path d="M1159.49 1475.11c-22.49-10.78-48.54-20.39-74.81-29.03-2.79 4.27 29.24 12.95 46.97 24.21 2.64 1.68 1.14 4.82-11.82 5.68-4.39.3-25.18 3.23-39.67-.86-9.75-2.76-15.38-2.31-26.54-3.87-.61 4.54-1.88 11.11-10.17 13.63-6.21 1.89-13.32 2-20.28 1.28-19.9.29-39.77.41-59.704-.28-34.239-1.2-73.816-2.93-107.825-5.08 41.782 5.27 84.768 9.87 129.148 11.07 14.442.4 55.311-2.59 55.491 4.03.12 4.38-5.39 14.97 5.59 22.39 11.77.11 3.77-15.06 7.42-22.06.85-.88 1.75-1.77 2.72-2.66.31-.29.39-.58.35-.85l2.49-.84c2.57-.45 2.87-2.09.4-2.64.03-.02.08-.03.1-.06 1.55.02 3.18-.45 3.38-1.41.59-2.92.52-5.54-.12-8.18v-.05c2.21.86 4.61 1.56 7.67 2.27.51.12.99.16 1.46.18 2.08.66 1.4 1.39 3.56 2.01 1.7.5 75.91-5.37 84.19-8.88Zm-221.609-86.14c10.384 3.81 21.209 13.56 12.457 21.48-11.253 10.19-43.494 19.77-48.209 21.46-12.991-1.35-19.281-2.6-19.85-.7-.119.39 3.776 2.4 4.34 2.89.666.56-2.254 1.57-4.719 1-6.723-1.55-16.432-4.11-21.796-5.65-1.001-.28-10.423-2.99-11.857 0-2.894 6.04.605 9.29-8.262 14.08-9.237 4.99-22.408 8.63-34.481 11.85-12.25 3.27-56.202 13.15-83.018 11.59-11.866-.69-28.112-4.62-36.1-7.32-16.189-5.49-39.51-19.21-51.473-28.44-12.599-9.71-19.312-17.97-24.129-27.81 4.984 1.54 48.721 2.09 61.641-6.73-16.383 2.66-38.434 4.89-51.438-.65-3.331-1.42-4.456-3.44-4.151-5.19.975-5.64 11.257-11.23 16.502-14.9 6.987-4.89 13.427-10.97 21.751-15.87 10.935-2.74 28.438-7.13 35.015-11.76-50.613 2.32-71.49 20.5-85.5 28.72-9.497 14.79-1.893 33.8 12.655 48.61 10.287 10.47 25.364 19.46 42.179 27.73 5.739 2.82 43.701 24.7 52.122 28.69 3.582 2.24 18.977 15.7 20.287 16.06 0-4.53-3.512-16.06 6.4-24.3 34.544-5.42 68.284-12.46 101.337-19.62 8.328-1.8 18.513-5.2 26.533-8.62 1.702-2.83-2.846-8.26-2.916-8.57 7.15 1.55 21.791 3.95 24.252 3.42 1.892-.41 79.669-22.03 81.482-33.35 1.015-6.43-19.744-16.15-31.054-18.1Z" fill="#BCB7BB"/><path d="M873.371 1359.84c-23.431-9.9-72.677-7.16-101.001-3.63 17.826.79 48.381-1.29 70.3 1.55 8.809 1.14 10.124 4.09-.534 6.56-5.765 1.34-11.499 5.2-16.316 7.23-7.601 3.21-26.343 13.27-26.895 13.52-8.412 3.77-11.875 6.98-22.752 8.74-1.919.31-9.7.79-12.06.89-10.119.44-20.733.11-28.152 1.95 10.856.34 28.699 5.43 46.118 2.87 8.253-1.21 16.582-4.78 23.714-10.21 4.588-3.49 14.561-10.12 20.702-13.24 5.363-2.73 29.532-9.33 31.46-9.67 4.733-.84 9.21-1.8 13.824-2.96 1.879-.47 3.207-2.91 1.592-3.6Z" fill="#BCB7BB"/><path d="M190.901 1435.67c-60.52-11.32-58.121-43.03-45.161-68.43 11.416-22.39 43.52-53.59 95.249-60.79.313-.16.675-.29.993-.45-20.393 1.01-40.635 5.41-57.027 11.5-39.237 14.56-70.816 35.83-90.913 59.3-1.994 1.92-3.997 3.84-5.876 5.79-17.565 18.19-36.352 40.07-31.164 60.49 12.219 48.1 154.38 41.56 224.711 34.89 15.046-1.42 37.459-1.43 47.49-7.77 11.896-7.52 11.53-22.6 14.234-31.51 4.716-15.51 8.284-31.23 7.984-46.91-28.42 32.45-87.295 57.59-160.52 43.89Z" fill="#999698"/><path d="M145.735 1367.23c-12.96 25.41-15.359 57.12 45.161 68.44 73.225 13.7 132.1-11.44 160.516-43.89-.137-7.25-1.094-14.49-3.154-21.7-5.536-19.39-19.135-43.99-52.845-56.92-16.074-6.16-34.821-8.08-53.436-7.16-.322.16-.68.29-.993.46-51.729 7.19-83.833 38.39-95.249 60.77Z" fill="#A5A0A4"/><path d="M342.809 1346.37c-14.861-20.82-37.627-34.75-58.253-40.37-18.84-5.13-53.909-4.91-91.138 6.26-14.297 4.29-44.067 18.63-49.237 22.01-15.196 9.95-34.072 26.39-34.072 26.39s42.316-28.4 67.764-31.72c-10.635 9.93-23.661 22.81-29.422 33.49-5.152 9.56-14.283 23.51-15.496 33.36-.781 6.33 1.557 15.91 13.656 20.23 1.659-37.91 26.233-64.44 72.321-85.18 27.256-12.27 62.928-13.37 89.77-.29 34.887 16.99 42.435 56.91 42.483 56.01.75-13.92-1.552-30.63-8.376-40.19Z" fill="#BCB7BB"/><path d="M349.157 1413.88c-4.579 6.2-5.933 22.98-44.729 35.35-29.003 9.25-90.785 11.39-109.58 10.42-27.477-1.41-67.521-9.07-74.879-43.34-.066-.32-19.907-20.95-44.402-9.78 4.142-8.81 14.989-25.53 22.152-33.89-16.996 10.8-61.46 50.11-40.277 78.6 7.83 10.53 23.74 24.05 65.937 28.67 19.056 2.09 72.148 5.8 132.443 1.09 27.927-2.18 61.46 2.01 79.228-9.23 13.551-8.58 20.428-40.62 14.107-57.89Z" fill="#878286"/><path d="M335.556 1389.63c-17.481 7.61-34.742 34.94-51.601 42.19-25.24 10.85-67.971.94-101.486 2.03 22.563 12.75 74.962 16.42 103.903 6.46 9.771-3.37 16.741-7.63 22.656-12.31 7.503-4.01 27.075-34.45 26.528-38.37Z" fill="#BCB7BB"/><path d="M314.455 1475.48c-5.364.63-22.58 2.54-31.354.66-1.755-1.26-1.447-9.31-14.68-15.64 1.487 6.1 1.689 13.44-9.938 17.41-3.004 1.02-6.471 1.68-10.172 2.11-6.899.27-13.807.53-20.71.76-3.582-.02-7.058-.06-10.265-.02-25.659.34-65.232 1.19-89.127-2.74-8.451-1.39-27.82-9.24-30.41-11.29-4.795-3.78-10.714-7.1-16.683-10.49-6.793-3.86-14.786-7.45-19.872-11.89-7.423-6.48-3.136-15.76-6.96-22.57-4.725 6.95-5.519 23.25 1.84 31.23 5.13 8.3 13.396 13.52 26.788 19.15 9.545 4.02 39.581 9.94 61.032 10.82 39.021 1.61 67.3.7 90.035-.04 20.988-.69 42.259-.82 63.114-2.2 17.151-1.13 37.305-3.57 43.397-14.04-11.531 5.06-17.12 7.75-26.035 8.78Z" fill="#6D696D"/><path d="M428.791 1485.84c11.504-1.31 25.024-3.04 23.881-9.89-.886-5.34-13.162-11.16-24.918-15.17-20.763-10.3-53.401-17.4-80.507-15.45-32.872 2.36-52.956 19.07-32.66 32.68 25.876 17.35 77.565 12.02 114.204 7.83Z" fill="#999698"/><path d="M390.627 1463.52c-8.015-7.73-44.164-14.57-60.587-7.62-4.27 1.81-8.518 3.6-9.563 6.24-2.426 6.15 7.821 10.93 18.637 13.29 12.051 2.62 27.543 5.41 40.485 2.65 12.201-2.6 16.961-8.85 11.028-14.56Z" fill="#A5A0A4"/><path d="M398.694 1449.42c-3.533-.77-9.065 1.01-6.092 2.89 5.986 3.79 20.022 10.42 22.179 15.01 1.368 2.91 11.081 13.02-38.945 13.34-29.211.19-55.585-5.34-68.183-19.02-4.641 3.04-3.913 11.23-2.047 13.32 8.906 10.01 27.94 12.98 49.506 14.06 26.273 1.31 58.147 1.51 83.476-2.67 44.645-7.37-20.754-32.77-39.894-36.93Z" fill="#878286"/><path d="M402.147 1449.16c-24.314-8.97-67.45-8.54-84.835 3.86 23.97-5.32 49.837-6.87 71.725.32 5.069 1.66 20.993 6.64 23.591 15.06 2.042 6.62-4.425 9.73-3.864 9.57 25.081-6.89 12.245-21.85-6.617-28.81Z" fill="#BCB7BB"/></g></g><defs><clipPath id="a"><path fill="#fff" d="M0 0h1920v1461H0z"/></clipPath><clipPath id="c"><path fill="#fff" transform="rotate(9.964 -3527.495 9356.491)" d="M0 0h351.949v408.802H0z"/></clipPath><clipPath id="d"><path fill="#fff" transform="rotate(-9.531 4782.083 1010.891)" d="M0 0h928.468v440.222H0z"/></clipPath><clipPath id="e"><path fill="#fff" transform="translate(26.688 606.426)" d="M0 0h1985v941.808H0z"/></clipPath><linearGradient id="b" x1="1505.81" y1="1461" x2="1153.11" y2="-191.327" gradientUnits="userSpaceOnUse"><stop stop-color="#310678"/><stop offset="1" stop-color="#0F0223"/></linearGradient></defs></svg>