<svg width="767" height="1169" fill="none" xmlns="http://www.w3.org/2000/svg"><g clip-path="url(#a)"><path fill="url(#b)" d="M0 0h767v1168.03H0z"/><path d="m157.276 767.084 3.487 1.991c.493.282.907-.446.441-.755-.931-.62-1.863-1.239-2.795-1.857 1.096-.062 2.191-.13 3.287-.144 1.959-.024 3.917-.015 5.874-.093 3.915-.155 7.835-.145 11.75-.277.675-.023.674-1.021 0-1.048-3.918-.155-7.835-.205-11.75-.461-1.957-.128-3.916-.179-5.874-.274-1.433-.069-2.856-.235-4.282-.363.6-.61 1.209-1.211 1.815-1.813l2.735-2.719c.376-.375-.185-.922-.578-.578l-2.909 2.545c-.423.37-.843.743-1.265 1.114-.138-3.479-.422-6.958-.622-10.4-.231-3.974-.333-7.958-.489-11.935-.021-.54-.823-.542-.84 0-.113 3.489-.212 6.978-.338 10.465-.127 3.492-.463 6.974-.569 10.466-.008.282-.01.566-.016.849-.131-.131-.259-.264-.389-.395-.719-.72-1.47-1.406-2.199-2.114-.094-.092-.271.03-.189.146.577.823 1.131 1.666 1.724 2.481.338.465.683.925 1.024 1.387l-.006.38c-1.452.063-2.901.274-4.354.32-1.954.063-3.917.024-5.873.031-3.913.015-7.829.039-11.742-.049-.47-.011-.462.696 0 .725 3.916.248 7.827.571 11.742.844 1.957.136 3.919.226 5.873.39 1.182.099 2.355.3 3.531.448-.771.925-1.548 1.845-2.329 2.762-.151.178-.175.436 0 .61.161.162.45.172.61 0 .854-.911 1.71-1.819 2.575-2.719.036 1.519.097 3.038.203 4.552.12 1.719.397 3.42.509 5.141.115 1.772.151 3.549.166 5.324.035 3.977.018 7.961.18 11.935.025.606.924.608.945 0 .236-6.97-.268-13.995.571-20.931.239-1.983.34-3.979.366-5.981Zm30.062 25.614a211.916 211.916 0 0 0-11.982-1.455c.241-.212.482-.423.724-.638a15.073 15.073 0 0 0 1.839-1.966c.115-.147.143-.346 0-.488-.125-.125-.366-.142-.488 0a15.032 15.032 0 0 1-1.876 1.832 7.977 7.977 0 0 1-1.2.791c-.152-4.872-.462-9.74-.307-14.616.018-.559-.829-.55-.864 0-.311 4.891-.939 9.766-1.252 14.659a95.746 95.746 0 0 0-.59-.522c-.584-.516-1.105-1.091-1.64-1.657-.276-.293-.708.144-.44.44.517.57 1.044 1.127 1.508 1.741l.389.513c-.009.002-.017.005-.026.006-1.106.24-2.267.233-3.393.315-2.291.166-4.577.393-6.861.644-.331.036-.347.546 0 .529 2.166-.1 4.33-.126 6.499-.093 1.078.017 2.184-.017 3.254.135.349.05.689.155 1.03.251-.291.316-.571.644-.832.991-.506.673-.982 1.37-1.425 2.087-.214.347.314.78.579.447a21.874 21.874 0 0 1 1.78-1.991c-.03 2.93.527 5.78.717 8.701.2 3.058.239 6.127.379 9.189.025.552.871.559.864 0-.044-3.062-.124-6.129.002-9.189.125-3.026.724-5.973.703-9.006-.001-.131-.005-.261-.007-.391 1.054.868 2.103 1.741 3.191 2.567.241.183.51-.202.314-.406-.958-1.001-1.961-1.955-2.957-2.918 4.103-.148 8.157-.05 12.258.301.454.039.567-.733.11-.803Zm-45.56-8.102c-1.491-.154-2.99-.255-4.484-.389-.727-.064-1.461-.172-2.196-.26a75.571 75.571 0 0 1 2.286-2.526c.242-.251-.129-.621-.382-.382-.826.778-1.649 1.571-2.453 2.38-.128-1.025-.318-2.046-.381-3.075-.109-1.755-.035-3.527.006-5.284.009-.419-.616-.41-.645 0-.12 1.699-.168 3.407-.333 5.102-.106 1.086-.337 2.177-.476 3.27-.518-.568-1.024-1.145-1.557-1.699-.299-.312-.763.157-.471.471.508.549.992 1.12 1.487 1.682-1.17.134-2.341.449-3.506.576-1.489.162-2.989.242-4.481.367-.364.03-.377.575 0 .575 1.492.001 2.99-.016 4.481.066 1.192.066 2.383.348 3.573.451-.132.154-.268.303-.4.457-.558.659-1.008 1.397-1.545 2.07-.243.304.186.738.431.432.518-.649 1.136-1.213 1.673-1.847.105-.124.215-.246.321-.37.153 1.298.403 2.584.509 3.889.144 1.762.306 3.514.415 5.281.029.456.743.46.714 0-.106-1.71-.121-3.388-.101-5.099.016-1.327.197-2.632.316-3.947.428.581.853 1.165 1.309 1.724.352.431 1.113-.148.777-.6-.539-.728-1.15-1.403-1.762-2.076.798-.092 1.597-.207 2.391-.267 1.495-.111 2.989-.163 4.484-.248.472-.026.459-.677 0-.724Z" opacity=".2" fill="#fff"/><path d="m546.46 392.679 4.728 2.699c.669.383 1.231-.604.599-1.024l-3.79-2.518c1.485-.083 2.97-.176 4.457-.195 2.656-.033 5.311-.021 7.965-.126 5.31-.21 10.625-.196 15.934-.375.915-.031.914-1.385 0-1.421-5.313-.211-10.625-.279-15.934-.626-2.654-.173-5.31-.243-7.965-.371-1.943-.094-3.873-.319-5.807-.493.814-.826 1.64-1.642 2.462-2.458l3.708-3.688c.511-.508-.251-1.249-.783-.783l-3.945 3.451c-.574.501-1.144 1.008-1.716 1.51-.187-4.717-.571-9.434-.843-14.102-.313-5.388-.452-10.791-.663-16.184-.029-.733-1.116-.735-1.139 0-.153 4.73-.288 9.462-.459 14.191-.171 4.735-.628 9.457-.771 14.191-.011.384-.013.768-.022 1.153-.177-.178-.351-.359-.527-.536-.975-.977-1.994-1.907-2.982-2.867-.128-.125-.368.04-.257.198.783 1.116 1.535 2.259 2.338 3.364.459.631.926 1.254 1.389 1.882-.002.172-.007.343-.008.515-1.969.085-3.935.371-5.905.434-2.649.085-5.311.032-7.963.042-5.306.02-10.617.052-15.923-.067-.637-.015-.626.943 0 .983 5.311.337 10.614.775 15.923 1.145 2.653.184 5.314.306 7.963.528 1.604.135 3.194.407 4.789.608a431.159 431.159 0 0 1-3.159 3.745c-.204.241-.236.592 0 .828.219.219.611.232.828 0a406.004 406.004 0 0 1 3.491-3.687c.049 2.059.132 4.119.276 6.172.162 2.331.539 4.638.69 6.971.156 2.404.205 4.813.226 7.22.046 5.393.024 10.795.244 16.184.033.822 1.252.825 1.28 0 .321-9.451-.363-18.977.775-28.383.324-2.689.461-5.396.496-8.11Zm40.763 34.733a286.295 286.295 0 0 0-16.247-1.973c.327-.288.654-.574.981-.866a20.36 20.36 0 0 0 2.494-2.666c.156-.199.194-.468 0-.662-.169-.169-.496-.192-.662 0a20.246 20.246 0 0 1-2.544 2.485c-.498.408-1.054.757-1.627 1.073-.206-6.606-.627-13.208-.416-19.82.025-.758-1.123-.747-1.171 0-.422 6.632-1.274 13.242-1.698 19.878l-.8-.709c-.793-.699-1.499-1.478-2.225-2.246-.374-.397-.959.196-.596.597.701.773 1.416 1.528 2.045 2.361l.527.695c-.012.003-.023.007-.035.009-1.5.325-3.074.316-4.601.426-3.107.226-6.207.534-9.303.873-.449.05-.471.741 0 .719 2.937-.136 5.872-.172 8.812-.126 1.462.022 2.962-.024 4.412.182.474.067.935.211 1.398.34-.396.429-.775.874-1.128 1.344a37.376 37.376 0 0 0-1.933 2.831c-.29.471.426 1.057.785.605a29.604 29.604 0 0 1 2.247-2.529c.057-.056.112-.113.167-.17-.041 3.973.715 7.837.972 11.799.271 4.147.324 8.308.514 12.459.034.75 1.181.758 1.171 0-.059-4.151-.167-8.31.004-12.459.169-4.104.981-8.1.952-12.213-.001-.177-.006-.354-.009-.53 1.429 1.177 2.852 2.36 4.328 3.481.325.247.691-.274.425-.551-1.299-1.357-2.659-2.651-4.01-3.956a136.261 136.261 0 0 1 16.622.407c.617.053.769-.994.149-1.088Zm-61.78-10.987c-2.023-.209-4.055-.346-6.08-.527-.987-.087-1.982-.234-2.979-.352 1.013-1.158 2.032-2.311 3.101-3.426.328-.341-.175-.843-.519-.518a142.174 142.174 0 0 0-3.326 3.226c-.173-1.388-.431-2.774-.517-4.169-.147-2.38-.047-4.783.008-7.165.013-.568-.835-.556-.874 0-.163 2.304-.228 4.62-.452 6.918-.144 1.473-.456 2.952-.645 4.434-.702-.77-1.389-1.552-2.111-2.304-.405-.422-1.035.214-.64.64.69.744 1.346 1.518 2.017 2.28-1.587.182-3.175.61-4.754.781-2.02.22-4.053.329-6.077.498-.493.041-.51.78 0 .78 2.024.001 4.055-.022 6.077.09 1.617.088 3.231.472 4.845.611-.178.209-.364.411-.542.62-.757.893-1.367 1.894-2.096 2.806-.329.413.253 1.001.586.586.701-.88 1.54-1.644 2.267-2.504.144-.169.292-.334.437-.502.206 1.76.545 3.504.689 5.273.196 2.389.415 4.766.564 7.162.038.619 1.006.623.968 0-.144-2.32-.165-4.595-.138-6.914.021-1.8.268-3.57.428-5.353.581.788 1.157 1.579 1.776 2.337.477.585 1.509-.2 1.054-.813-.732-.987-1.56-1.903-2.39-2.814 1.083-.126 2.166-.282 3.243-.363 2.027-.151 4.052-.221 6.08-.336.64-.035.623-.918 0-.982Z" opacity=".3" fill="#fff"/><path d="m715.841 747.408 3.057 1.745c.432.247.796-.391.387-.662l-2.451-1.629c.961-.053 1.921-.113 2.882-.125 1.718-.022 3.435-.014 5.151-.082 3.433-.136 6.87-.127 10.303-.243.591-.02.591-.895 0-.919-3.435-.136-6.871-.18-10.303-.404-1.716-.112-3.434-.157-5.151-.24-1.256-.061-2.504-.207-3.755-.319.527-.534 1.061-1.061 1.592-1.589l2.398-2.385c.33-.328-.162-.808-.506-.506l-2.551 2.231c-.371.324-.74.652-1.11.977-.121-3.05-.369-6.101-.545-9.119-.202-3.484-.292-6.977-.429-10.465-.018-.474-.721-.475-.736 0-.099 3.059-.186 6.118-.297 9.176-.111 3.062-.406 6.115-.499 9.177-.007.248-.008.496-.014.745-.114-.115-.226-.232-.341-.347-.63-.631-1.289-1.233-1.927-1.854-.083-.08-.238.027-.167.129.507.722.993 1.46 1.512 2.175.297.408.599.811.898 1.217l-.005.333c-1.273.055-2.544.24-3.818.28-1.714.055-3.435.021-5.15.028-3.431.012-6.864.033-10.295-.044-.413-.009-.406.61 0 .636 3.433.218 6.863.501 10.295.74 1.716.119 3.436.198 5.15.342 1.037.087 2.065.263 3.096.393-.675.811-1.357 1.617-2.042 2.422-.132.155-.153.382 0 .535.141.141.395.15.535 0 .749-.8 1.5-1.596 2.258-2.384.031 1.331.085 2.663.178 3.991.105 1.507.348 2.998.446 4.508.101 1.554.132 3.111.146 4.668.03 3.487.016 6.98.158 10.465.021.531.809.533.828 0 .207-6.112-.235-12.271.501-18.353.209-1.739.298-3.49.321-5.244Zm26.363 22.458a184.94 184.94 0 0 0-10.506-1.276c.211-.186.423-.371.634-.56a13.091 13.091 0 0 0 1.613-1.724c.101-.128.126-.303 0-.428-.109-.109-.321-.124-.428 0a13.076 13.076 0 0 1-1.645 1.607c-.322.264-.681.49-1.052.694-.133-4.272-.405-8.54-.269-12.816.016-.49-.726-.483-.757 0-.273 4.288-.824 8.562-1.098 12.853l-.518-.458c-.512-.452-.969-.956-1.438-1.453-.242-.256-.62.127-.386.386.454.5.916.988 1.323 1.527l.341.45-.023.005c-.97.21-1.988.205-2.975.276a163.75 163.75 0 0 0-6.016.565c-.29.032-.304.478 0 .464a91.743 91.743 0 0 1 5.698-.081c.946.014 1.916-.015 2.853.117.307.044.605.137.904.22-.256.278-.501.566-.729.869a24.222 24.222 0 0 0-1.25 1.831c-.188.304.275.684.507.391a19.27 19.27 0 0 1 1.454-1.635l.107-.11c-.026 2.569.463 5.068.629 7.629.175 2.682.21 5.373.332 8.057.023.484.764.49.758 0-.039-2.684-.109-5.374.002-8.057.109-2.653.634-5.237.616-7.897l-.006-.342c.924.761 1.844 1.526 2.798 2.25.211.16.447-.177.275-.356-.84-.878-1.719-1.714-2.593-2.558a88.061 88.061 0 0 1 10.748.264c.399.034.498-.643.097-.704Zm-39.955-7.104c-1.307-.135-2.621-.223-3.931-.341-.638-.056-1.281-.151-1.926-.228a66.41 66.41 0 0 1 2.005-2.215c.212-.22-.113-.545-.335-.335a89.906 89.906 0 0 0-2.151 2.087c-.112-.898-.278-1.794-.334-2.696-.095-1.539-.031-3.093.005-4.634.008-.367-.54-.359-.565 0-.105 1.49-.148 2.988-.293 4.474-.092.952-.295 1.909-.417 2.867-.454-.498-.898-1.004-1.365-1.49-.262-.273-.669.138-.413.414.446.481.87.982 1.304 1.474-1.026.118-2.053.395-3.074.505-1.306.142-2.621.213-3.93.323-.318.026-.33.504 0 .504 1.309.001 2.622-.014 3.93.058 1.045.057 2.089.305 3.132.395-.115.135-.235.266-.35.401-.489.577-.884 1.224-1.355 1.815-.213.266.163.647.379.378.453-.568.996-1.063 1.466-1.619.093-.109.188-.216.282-.324.133 1.137.353 2.266.446 3.409.126 1.545.268 3.082.364 4.631.025.4.651.403.626 0a60.632 60.632 0 0 1-.089-4.471c.014-1.163.173-2.308.277-3.461.376.51.748 1.021 1.148 1.512.309.378.976-.13.682-.526-.473-.638-1.009-1.231-1.546-1.82.701-.082 1.401-.182 2.097-.234 1.311-.098 2.62-.143 3.931-.218.415-.023.403-.593 0-.635Z" opacity=".5" fill="#fff"/><path d="m737.099 257.198 2.157 1.232c.305.174.561-.276.273-.468l-1.729-1.148c.677-.038 1.355-.081 2.033-.089 1.212-.015 2.423-.01 3.634-.058 2.422-.095 4.847-.089 7.269-.171.417-.014.417-.632 0-.648-2.424-.096-4.848-.127-7.269-.286-1.211-.079-2.423-.11-3.634-.169-.886-.043-1.767-.146-2.649-.225.371-.377.748-.749 1.123-1.121l1.692-1.682c.233-.232-.115-.571-.358-.358l-1.799 1.574c-.262.229-.522.46-.783.69-.085-2.152-.261-4.304-.385-6.434-.142-2.458-.206-4.922-.302-7.383-.013-.334-.509-.335-.52 0-.069 2.158-.131 4.317-.209 6.474-.078 2.16-.286 4.314-.352 6.474-.005.175-.006.35-.01.526-.081-.081-.16-.164-.24-.245-.445-.445-.91-.87-1.36-1.308-.059-.057-.168.019-.118.091.358.509.7 1.03 1.067 1.534.209.288.422.572.633.859l-.003.235c-.898.039-1.795.169-2.694.198-1.209.039-2.423.014-3.633.019-2.42.009-4.843.024-7.264-.031-.29-.006-.285.431 0 .449 2.423.154 4.843.353 7.264.522 1.21.084 2.424.14 3.633.241.732.062 1.457.186 2.185.277-.477.573-.958 1.141-1.441 1.709-.094.11-.108.27 0 .378.099.099.278.106.377 0 .528-.564 1.058-1.126 1.593-1.682.022.939.06 1.879.126 2.815.074 1.063.246 2.116.315 3.181.071 1.096.093 2.195.102 3.293.022 2.46.012 4.925.112 7.383.015.375.571.377.584 0 .146-4.311-.166-8.657.353-12.948.148-1.227.211-2.462.227-3.7Zm18.598 15.845a131.566 131.566 0 0 0-7.412-.9l.447-.395c.416-.37.796-.778 1.138-1.216.071-.091.089-.214 0-.302-.077-.077-.226-.088-.302 0a9.197 9.197 0 0 1-1.16 1.133 4.92 4.92 0 0 1-.743.49c-.094-3.014-.286-6.025-.189-9.042.011-.346-.513-.341-.535 0-.192 3.026-.581 6.041-.774 9.068l-.365-.323c-.362-.319-.684-.674-1.015-1.025-.171-.181-.438.089-.272.272.32.353.646.698.933 1.078l.24.317-.016.004c-.684.148-1.402.144-2.099.194-1.417.103-2.831.244-4.244.399-.204.022-.215.337 0 .327a64.925 64.925 0 0 1 4.02-.057c.667.01 1.352-.011 2.013.083.216.031.426.096.638.155a7.95 7.95 0 0 0-.515.613c-.313.416-.608.848-.882 1.292-.132.214.194.482.358.276.321-.404.661-.789 1.026-1.154l.076-.078c-.019 1.813.326 3.576.443 5.383.124 1.892.148 3.79.235 5.684.015.342.539.346.534 0-.027-1.894-.077-3.791.002-5.684.077-1.872.447-3.695.434-5.572 0-.08-.003-.161-.004-.241.652.537 1.301 1.077 1.974 1.588.149.113.316-.125.194-.252-.593-.619-1.213-1.209-1.829-1.804a61.939 61.939 0 0 1 7.583.186c.281.024.35-.454.068-.497Zm-28.185-5.011c-.923-.095-1.85-.158-2.774-.241-.45-.039-.904-.106-1.359-.16.462-.529.927-1.054 1.415-1.563.149-.156-.08-.385-.237-.236-.511.481-1.02.971-1.517 1.472-.079-.634-.197-1.266-.236-1.902-.067-1.086-.022-2.183.004-3.269.006-.259-.381-.254-.399 0-.074 1.051-.104 2.107-.206 3.156-.066.672-.208 1.347-.295 2.023-.32-.352-.633-.709-.962-1.051-.185-.193-.473.097-.292.291.314.34.614.693.92 1.04-.724.084-1.449.279-2.169.357-.921.1-1.849.15-2.772.227-.225.019-.233.356 0 .356.923 0 1.85-.01 2.772.041.738.04 1.474.215 2.21.279-.081.095-.166.187-.247.282-.345.408-.624.864-.956 1.281-.151.188.115.456.267.267.32-.401.703-.75 1.034-1.142l.199-.229c.095.802.249 1.598.315 2.405.089 1.09.189 2.174.257 3.267.018.283.459.285.442 0a42.013 42.013 0 0 1-.063-3.154c.01-.821.122-1.628.195-2.442.265.36.528.721.81 1.067.218.266.689-.092.481-.371-.334-.451-.712-.868-1.09-1.284.494-.058.988-.129 1.479-.166.925-.069 1.849-.101 2.774-.153.292-.016.284-.419 0-.448ZM657.677 21.356l4.411 2.518c.624.357 1.149-.563.559-.955l-3.536-2.35c1.386-.077 2.771-.164 4.158-.181 2.478-.031 4.955-.02 7.432-.118 4.953-.195 9.912-.183 14.866-.35.853-.029.852-1.292 0-1.326-4.957-.197-9.914-.26-14.866-.583-2.477-.162-4.955-.227-7.432-.347-1.812-.087-3.613-.298-5.418-.46.76-.77 1.53-1.532 2.297-2.293l3.46-3.44c.476-.475-.234-1.166-.731-.732l-3.68 3.22c-.535.468-1.067.94-1.601 1.41-.174-4.402-.533-8.803-.787-13.158-.292-5.027-.421-10.067-.618-15.099-.027-.684-1.042-.685-1.063 0-.143 4.413-.268 8.828-.428 13.24-.16 4.418-.586 8.823-.72 13.24-.01.358-.012.717-.02 1.075-.165-.166-.327-.335-.492-.5-.909-.911-1.86-1.779-2.781-2.675-.12-.116-.344.038-.241.186.731 1.04 1.432 2.107 2.182 3.138.428.588.864 1.17 1.296 1.755-.002.161-.007.321-.008.48-1.837.08-3.671.347-5.509.406-2.472.08-4.955.03-7.43.04-4.95.018-9.905.048-14.855-.064-.595-.013-.585.88 0 .918 4.955.314 9.903.723 14.855 1.068 2.476.172 4.958.285 7.43.493 1.496.125 2.98.379 4.468.567a420.205 420.205 0 0 1-2.947 3.494c-.191.225-.221.552 0 .773.204.204.57.216.772 0a359.362 359.362 0 0 1 3.258-3.44c.045 1.921.122 3.843.256 5.758.152 2.174.503 4.327.645 6.504.145 2.242.19 4.49.21 6.736.043 5.031.023 10.071.228 15.099.031.767 1.168.77 1.195 0 .299-8.818-.34-17.705.722-26.48.302-2.51.43-5.035.463-7.567Zm38.025 32.406a267.784 267.784 0 0 0-15.159-1.842c.305-.268.61-.535.916-.807a18.999 18.999 0 0 0 2.326-2.487c.146-.186.182-.438 0-.618-.157-.158-.462-.18-.617 0a19.025 19.025 0 0 1-2.373 2.319c-.465.38-.984.706-1.519 1-.192-6.163-.584-12.322-.387-18.49.022-.708-1.049-.698-1.093 0-.394 6.187-1.189 12.354-1.585 18.544l-.746-.66c-.739-.653-1.398-1.38-2.075-2.096-.35-.37-.895.182-.557.556.655.722 1.322 1.426 1.908 2.203l.492.649-.033.008c-1.399.303-2.868.295-4.293.398-2.898.21-5.79.498-8.679.814-.419.047-.439.691 0 .67 2.74-.126 5.478-.16 8.221-.117 1.364.02 2.764-.022 4.117.17.442.063.872.197 1.304.318-.369.4-.723.815-1.053 1.253a34.97 34.97 0 0 0-1.803 2.641c-.271.44.397.987.732.565a27.875 27.875 0 0 1 2.097-2.36c.053-.052.104-.105.156-.158-.038 3.707.667 7.312.907 11.008.253 3.869.302 7.751.479 11.625.032.698 1.103.707 1.093 0-.055-3.874-.156-7.754.003-11.625.158-3.829.916-7.557.889-11.395-.001-.165-.006-.33-.008-.494 1.333 1.098 2.661 2.202 4.037 3.248.304.23.645-.256.397-.515-1.213-1.266-2.481-2.473-3.741-3.69 5.191-.188 10.32-.064 15.508.38.575.05.717-.928.139-1.015ZM638.061 43.51c-1.886-.194-3.782-.322-5.672-.491-.921-.081-1.849-.219-2.779-.329a95.592 95.592 0 0 1 2.892-3.196c.307-.318-.162-.786-.483-.483a130.802 130.802 0 0 0-3.103 3.01c-.162-1.296-.402-2.589-.483-3.89-.137-2.22-.044-4.462.008-6.685.012-.53-.78-.519-.816 0-.151 2.15-.212 4.31-.421 6.454-.134 1.375-.426 2.755-.602 4.138-.655-.719-1.296-1.449-1.97-2.15-.378-.394-.965.199-.596.597.643.694 1.255 1.416 1.881 2.127-1.48.17-2.962.569-4.435.729-1.884.205-3.781.307-5.67.465-.46.038-.476.727 0 .727 1.889.001 3.783-.02 5.67.084 1.508.082 3.014.44 4.52.57-.166.195-.34.384-.506.578-.706.833-1.275 1.767-1.955 2.619-.307.384.236.934.546.546.655-.82 1.437-1.534 2.116-2.336.134-.158.272-.311.407-.468.193 1.641.509 3.27.643 4.92.183 2.229.388 4.446.526 6.681.036.577.939.581.903 0-.134-2.164-.154-4.286-.128-6.45.02-1.68.25-3.331.399-4.994.542.735 1.079 1.473 1.657 2.18.445.546 1.408-.186.983-.758-.682-.921-1.455-1.776-2.23-2.626 1.011-.118 2.021-.263 3.026-.338 1.891-.142 3.78-.207 5.672-.314.598-.033.582-.856 0-.916Z" opacity=".2" fill="#fff"/><path d="m214.905 379.762 3.712 2.119c.525.3.967-.474.471-.804l-2.976-1.977c1.166-.065 2.332-.138 3.499-.153 2.085-.026 4.17-.016 6.254-.099 4.169-.165 8.342-.154 12.511-.295.718-.024.717-1.087 0-1.116-4.171-.165-8.343-.218-12.511-.491-2.084-.136-4.169-.191-6.254-.291-1.525-.074-3.041-.251-4.559-.387.639-.649 1.287-1.289 1.933-1.931l2.911-2.895c.401-.399-.197-.981-.615-.615l-3.097 2.71c-.45.394-.898.791-1.348 1.186-.146-3.704-.448-7.408-.662-11.073-.245-4.231-.354-8.472-.52-12.707-.023-.575-.876-.577-.895 0-.119 3.714-.225 7.429-.36 11.142-.134 3.718-.492 7.425-.605 11.143-.009.301-.011.603-.018.905-.138-.14-.275-.282-.413-.421-.766-.767-1.566-1.498-2.341-2.251-.101-.099-.289.032-.202.156.615.876 1.205 1.773 1.835 2.641.361.495.728.984 1.091 1.477l-.006.404c-1.546.067-3.09.292-4.636.341-2.081.067-4.171.026-6.253.033-4.166.016-8.336.041-12.502-.053-.501-.011-.492.741 0 .773 4.169.264 8.334.608 12.502.898 2.083.145 4.172.241 6.253.415 1.258.106 2.507.319 3.76.477-.821.986-1.649 1.965-2.481 2.941-.16.19-.185.465 0 .65.172.172.48.183.65 0 .909-.971 1.821-1.937 2.742-2.895.038 1.617.103 3.235.216 4.847.127 1.829.423 3.641.542 5.473.122 1.887.16 3.779.177 5.669.036 4.234.019 8.476.192 12.707.026.645.983.648 1.005 0 .252-7.421-.285-14.9.608-22.285.255-2.112.362-4.238.39-6.368Zm32.005 27.271a225.34 225.34 0 0 0-12.757-1.549c.257-.226.514-.451.771-.68a16.025 16.025 0 0 0 1.958-2.093c.122-.156.152-.368 0-.52-.133-.133-.39-.151-.52 0a15.935 15.935 0 0 1-1.997 1.951c-.391.32-.828.595-1.278.843-.161-5.188-.492-10.371-.326-15.562.019-.596-.883-.587-.92 0-.331 5.207-1 10.397-1.333 15.607-.21-.186-.419-.372-.629-.556-.622-.55-1.176-1.161-1.746-1.764-.294-.312-.753.153-.469.468.551.608 1.113 1.2 1.606 1.854l.414.546a.23.23 0 0 1-.028.007c-1.177.255-2.413.248-3.612.335-2.439.177-4.874.419-7.305.685-.352.039-.369.582 0 .564 2.307-.106 4.611-.134 6.92-.099 1.147.018 2.326-.018 3.464.144.372.052.734.165 1.097.267-.31.336-.608.686-.885 1.055a29.218 29.218 0 0 0-1.518 2.222c-.228.37.334.831.616.476a23.417 23.417 0 0 1 1.896-2.12c-.032 3.12.561 6.154.763 9.265.213 3.256.254 6.523.404 9.783.027.588.927.595.919 0-.046-3.26-.131-6.526.003-9.783.133-3.223.77-6.36.748-9.59-.001-.139-.005-.278-.007-.416 1.122.924 2.239 1.854 3.397 2.733.256.195.544-.215.334-.433-1.02-1.065-2.087-2.081-3.148-3.106 4.369-.157 8.685-.053 13.051.321.484.041.604-.781.117-.855Zm-48.507-8.627c-1.588-.164-3.184-.271-4.774-.414-.775-.068-1.556-.184-2.339-.276a79.27 79.27 0 0 1 2.435-2.69c.257-.268-.137-.662-.407-.407-.88.828-1.755 1.673-2.612 2.534-.136-1.091-.338-2.179-.406-3.274-.115-1.869-.037-3.756.006-5.626.011-.446-.656-.437-.686 0-.128 1.809-.179 3.627-.355 5.432-.113 1.156-.358 2.318-.507 3.481-.55-.604-1.09-1.219-1.657-1.809-.318-.331-.813.168-.502.503.541.584 1.057 1.192 1.583 1.79-1.245.143-2.492.479-3.732.613-1.586.173-3.182.259-4.772.391-.387.032-.401.613 0 .613 1.59.001 3.184-.017 4.772.07 1.269.07 2.537.371 3.804.48-.14.164-.286.323-.426.487-.594.701-1.073 1.487-1.645 2.203-.259.324.198.786.459.46.551-.69 1.21-1.291 1.781-1.966.113-.133.229-.262.342-.394.163 1.382.429 2.751.542 4.14.153 1.876.326 3.742.442 5.623.031.486.791.49.76 0-.112-1.821-.129-3.607-.107-5.428.016-1.414.21-2.803.335-4.203.457.619.909 1.24 1.395 1.835.374.459 1.185-.157.827-.638-.574-.775-1.225-1.494-1.876-2.21.85-.099 1.7-.221 2.546-.285 1.591-.119 3.182-.173 4.774-.263.503-.028.489-.721 0-.772Z" opacity=".3" fill="#fff"/><path d="m7.997 526.522 2.451 1.399c.347.198.638-.313.31-.531l-1.964-1.305c.77-.043 1.54-.091 2.31-.101 1.377-.017 2.754-.011 4.13-.065 2.752-.109 5.507-.102 8.26-.195.474-.016.473-.718 0-.737-2.755-.109-5.509-.144-8.26-.324-1.376-.09-2.753-.126-4.13-.192-1.007-.049-2.008-.166-3.01-.256.422-.428.85-.851 1.276-1.274l1.923-1.912c.264-.263-.13-.648-.406-.406l-2.045 1.789c-.298.26-.593.522-.89.783-.097-2.445-.296-4.891-.437-7.311-.162-2.793-.234-5.593-.344-8.389-.015-.38-.578-.381-.59 0-.08 2.452-.15 4.905-.238 7.357-.089 2.454-.325 4.902-.4 7.356-.005.199-.007.398-.011.598-.092-.093-.182-.187-.273-.278-.506-.507-1.034-.989-1.546-1.487-.066-.064-.19.022-.133.103.406.579.795 1.171 1.212 1.744.237.327.48.65.72.976-.001.089-.004.178-.004.266-1.021.045-2.04.193-3.061.226-1.374.044-2.754.016-4.128.021-2.751.011-5.504.027-8.255-.035-.33-.007-.324.49 0 .51 2.753.175 5.503.402 8.255.594 1.375.095 2.754.158 4.128.273.83.07 1.655.211 2.482.315a224.93 224.93 0 0 1-1.637 1.942c-.106.125-.123.307 0 .429.113.114.316.121.429 0 .6-.641 1.202-1.279 1.81-1.911.025 1.067.068 2.135.142 3.199.084 1.208.28 2.404.358 3.614a66.87 66.87 0 0 1 .117 3.743c.024 2.795.013 5.596.127 8.389.017.426.649.428.664 0 .166-4.899-.189-9.837.401-14.713.168-1.394.239-2.797.257-4.204Zm21.133 18.005a147.73 147.73 0 0 0-8.423-1.023c.17-.149.339-.298.508-.449.472-.42.904-.884 1.293-1.382.08-.103.1-.243 0-.343-.087-.088-.257-.1-.343 0a10.48 10.48 0 0 1-1.319 1.288 5.617 5.617 0 0 1-.843.556c-.107-3.424-.325-6.846-.216-10.274.013-.393-.582-.387-.607 0-.219 3.438-.66 6.864-.88 10.304a94.63 94.63 0 0 0-.415-.367c-.41-.363-.777-.767-1.153-1.165-.194-.205-.497.102-.31.31.364.401.735.792 1.06 1.224l.274.36-.018.005c-.777.168-1.594.163-2.385.221-1.61.117-3.218.276-4.823.452-.232.026-.244.384 0 .373a74.02 74.02 0 0 1 4.568-.066c.758.012 1.536-.012 2.288.095.245.035.484.109.724.176a8.975 8.975 0 0 0-.585.697c-.355.473-.69.963-1.002 1.467-.15.244.221.548.407.314a15.425 15.425 0 0 1 1.252-1.399c-.021 2.06.37 4.063.504 6.116.14 2.15.168 4.307.266 6.459.018.388.612.393.607 0-.03-2.152-.087-4.308.002-6.459.088-2.127.509-4.198.494-6.331 0-.092-.004-.183-.005-.274.74.61 1.479 1.223 2.243 1.804.17.128.359-.142.22-.286-.673-.703-1.377-1.374-2.078-2.051a70.629 70.629 0 0 1 8.617.212c.32.027.398-.516.077-.564Z" opacity=".5" fill="#fff"/><path d="m216.583 5.138 2.353 1.344c.333.19.613-.301.298-.51l-1.886-1.253c.739-.042 1.478-.088 2.218-.097 1.322-.017 2.643-.01 3.964-.063 2.642-.104 5.287-.098 7.929-.187.456-.015.455-.689 0-.707-2.643-.105-5.287-.138-7.929-.311-1.321-.086-2.643-.121-3.964-.185-.967-.047-1.928-.159-2.89-.245.405-.411.816-.817 1.225-1.224l1.846-1.835c.254-.253-.125-.622-.39-.39l-1.963 1.718c-.286.25-.569.501-.854.751-.093-2.347-.285-4.694-.42-7.018-.155-2.681-.225-5.37-.33-8.053-.014-.365-.555-.366-.567 0-.076 2.354-.143 4.708-.228 7.062-.085 2.356-.312 4.706-.384 7.062-.005.19-.006.382-.011.574-.088-.089-.174-.18-.262-.267-.485-.486-.992-.95-1.484-1.427-.063-.062-.183.02-.128.099.39.555.764 1.124 1.164 1.674.228.314.461.624.691.936l-.004.256c-.98.043-1.958.185-2.938.217-1.319.042-2.644.016-3.964.02-2.64.01-5.283.026-7.923-.033-.318-.007-.312.47 0 .49 2.642.167 5.282.385 7.923.569 1.321.092 2.645.152 3.964.263.797.067 1.589.202 2.383.302-.52.625-1.045 1.245-1.572 1.864-.102.12-.118.295 0 .412.109.11.304.116.412 0 .576-.615 1.154-1.228 1.737-1.835.024 1.025.066 2.05.137 3.072.081 1.16.268 2.308.344 3.47.077 1.195.102 2.394.112 3.592.023 2.684.012 5.372.121 8.054.017.41.624.41.638 0 .159-4.703-.181-9.444.385-14.125.161-1.338.23-2.685.247-4.036Zm20.287 17.286a142.83 142.83 0 0 0-8.085-.982c.163-.143.325-.285.488-.43.453-.404.868-.85 1.241-1.328.078-.099.097-.233 0-.329-.084-.084-.247-.096-.329 0-.386.448-.809.863-1.266 1.237a5.372 5.372 0 0 1-.81.534c-.102-3.288-.312-6.573-.207-9.864.012-.377-.559-.371-.583 0-.21 3.3-.634 6.59-.845 9.892a97.895 97.895 0 0 0-.398-.352c-.394-.348-.746-.736-1.107-1.118-.186-.198-.477.097-.297.297.349.385.705.76 1.018 1.175l.262.346-.017.004c-.747.162-1.53.157-2.29.212-1.546.113-3.089.266-4.63.435-.223.025-.234.368 0 .357a71.028 71.028 0 0 1 4.386-.062c.727.01 1.474-.012 2.195.09.236.034.466.105.696.17a8.701 8.701 0 0 0-.561.668c-.342.455-.664.925-.962 1.41-.145.233.212.525.39.3.35-.44.721-.86 1.119-1.258l.083-.085c-.021 1.978.356 3.9.484 5.872.134 2.064.161 4.135.255 6.2.017.373.588.378.583 0-.029-2.065-.083-4.135.002-6.2.084-2.042.488-4.03.474-6.078l-.004-.263c.711.585 1.419 1.174 2.153 1.732.162.123.344-.137.212-.275-.647-.675-1.323-1.319-1.996-1.968 2.769-.1 5.505-.034 8.272.203.307.026.383-.495.074-.542Zm-30.745-5.468c-1.006-.104-2.017-.172-3.025-.263-.491-.043-.987-.116-1.483-.175a52.394 52.394 0 0 1 1.543-1.705c.164-.17-.087-.42-.258-.258a71.62 71.62 0 0 0-1.655 1.606c-.086-.691-.214-1.38-.257-2.075-.073-1.184-.024-2.38.004-3.566.006-.282-.416-.276-.435 0-.081 1.147-.113 2.3-.225 3.443-.072.733-.227 1.47-.321 2.207-.349-.383-.691-.773-1.051-1.147-.201-.21-.515.107-.318.319.343.37.67.755 1.004 1.134-.79.09-1.58.304-2.366.389-1.005.11-2.017.164-3.024.248-.246.02-.254.388 0 .388 1.007 0 2.018-.01 3.024.045.804.044 1.608.235 2.411.304-.089.104-.181.204-.27.308-.376.445-.68.943-1.043 1.397-.164.205.126.498.292.291.349-.437.766-.818 1.128-1.246.071-.084.145-.166.217-.25.103.876.272 1.744.343 2.625.098 1.189.207 2.371.281 3.564.019.308.501.31.481 0a47.021 47.021 0 0 1-.068-3.441c.011-.896.133-1.777.213-2.664.289.392.576.786.884 1.163.237.291.751-.1.524-.404-.364-.491-.776-.947-1.189-1.4.539-.064 1.078-.141 1.614-.181 1.008-.076 2.016-.11 3.025-.167.319-.018.31-.457 0-.49Z" opacity=".2" fill="#fff"/><path d="m429.841 593.513 4.412 2.519c.623.356 1.148-.564.558-.956-1.178-.784-2.357-1.567-3.536-2.349 1.386-.078 2.771-.164 4.158-.182 2.478-.031 4.956-.019 7.432-.117 4.953-.196 9.912-.184 14.866-.351.853-.029.852-1.292 0-1.326-4.957-.197-9.914-.259-14.866-.583-2.476-.162-4.955-.227-7.432-.347-1.812-.087-3.613-.298-5.418-.459.76-.771 1.53-1.532 2.297-2.294l3.46-3.44c.476-.475-.234-1.166-.731-.731l-3.68 3.219c-.535.468-1.067.941-1.601 1.41-.174-4.401-.533-8.802-.787-13.158-.292-5.027-.421-10.067-.618-15.099-.027-.683-1.042-.685-1.063 0-.142 4.414-.268 8.828-.428 13.24-.16 4.418-.586 8.823-.72 13.24-.01.358-.012.717-.02 1.076-.165-.166-.327-.336-.492-.5-.909-.912-1.86-1.78-2.781-2.676-.12-.116-.344.038-.241.186.731 1.041 1.432 2.107 2.182 3.138.428.589.864 1.17 1.296 1.756l-.008.48c-1.837.079-3.671.346-5.509.405-2.472.08-4.955.03-7.43.039-4.95.019-9.905.049-14.855-.063-.595-.013-.585.881 0 .918 4.955.314 9.903.723 14.855 1.068 2.476.172 4.958.286 7.43.493 1.496.126 2.98.379 4.468.567a406.238 406.238 0 0 1-2.947 3.495c-.191.224-.221.551 0 .772.204.204.57.216.772 0a353.513 353.513 0 0 1 3.258-3.44c.045 1.921.122 3.843.256 5.758.152 2.174.504 4.327.645 6.504.145 2.243.19 4.49.21 6.736.043 5.031.023 10.071.228 15.099.031.767 1.168.77 1.195 0 .299-8.817-.339-17.705.722-26.48.302-2.509.43-5.035.463-7.567Zm38.025 32.406a267.417 267.417 0 0 0-15.159-1.841c.305-.268.611-.535.916-.808a18.943 18.943 0 0 0 2.326-2.487c.146-.186.182-.437 0-.618-.157-.157-.462-.179-.617 0a19.043 19.043 0 0 1-2.373 2.319c-.465.38-.984.706-1.519 1.001-.192-6.164-.584-12.323-.387-18.492.022-.707-1.049-.697-1.093 0-.394 6.188-1.189 12.355-1.585 18.545l-.746-.66c-.739-.653-1.398-1.38-2.075-2.096-.35-.37-.895.182-.557.556.655.722 1.322 1.426 1.908 2.204l.492.648-.033.008c-1.399.303-2.868.295-4.293.398-2.898.21-5.79.498-8.679.815-.419.046-.439.69 0 .67 2.74-.127 5.478-.16 8.222-.118 1.363.021 2.763-.021 4.116.17.442.063.872.197 1.304.318-.369.4-.723.815-1.052 1.253a34.663 34.663 0 0 0-1.804 2.642c-.271.439.397.986.732.565a27.785 27.785 0 0 1 2.097-2.36l.156-.159c-.038 3.707.667 7.312.907 11.008.253 3.869.302 7.752.48 11.625.031.699 1.102.707 1.092 0-.055-3.873-.156-7.754.003-11.625.158-3.829.916-7.556.889-11.395-.001-.165-.006-.329-.008-.493 1.333 1.098 2.661 2.202 4.037 3.247.304.231.645-.256.397-.514-1.213-1.266-2.481-2.474-3.741-3.691 5.191-.188 10.32-.064 15.508.38.575.05.717-.928.139-1.015Zm-57.641-10.251c-1.886-.195-3.782-.323-5.672-.492-.92-.081-1.849-.218-2.779-.329a95.72 95.72 0 0 1 2.893-3.196c.306-.318-.163-.786-.484-.483a133.14 133.14 0 0 0-3.103 3.01c-.162-1.296-.402-2.588-.482-3.889-.138-2.221-.045-4.463.007-6.686.012-.53-.78-.518-.816 0-.151 2.15-.212 4.31-.421 6.455-.134 1.374-.426 2.754-.602 4.137-.655-.719-1.296-1.449-1.969-2.15-.379-.394-.966.199-.597.597.643.694 1.255 1.417 1.881 2.127-1.48.17-2.962.569-4.435.729-1.884.205-3.781.307-5.67.465-.46.038-.476.728 0 .728 1.889.001 3.784-.021 5.67.083 1.508.083 3.014.44 4.52.57-.166.195-.34.384-.506.579-.706.833-1.275 1.767-1.955 2.618-.307.385.236.934.546.546.655-.82 1.437-1.534 2.116-2.336.134-.157.272-.311.407-.468.193 1.642.509 3.269.643 4.92.183 2.229.388 4.446.526 6.681.036.578.939.582.903 0-.134-2.164-.154-4.286-.128-6.45.02-1.68.25-3.331.399-4.994.542.735 1.079 1.473 1.657 2.18.445.546 1.408-.186.983-.758-.682-.921-1.455-1.776-2.23-2.626 1.011-.118 2.021-.263 3.026-.338 1.891-.141 3.781-.206 5.672-.314.598-.033.582-.856 0-.916Zm260.179 373.224 1.863 1.063c.263.151.485-.238.236-.403l-1.494-.993c.586-.032 1.171-.069 1.756-.076 1.047-.013 2.093-.009 3.139-.05 2.092-.083 4.186-.077 6.278-.148.36-.012.36-.545 0-.56-2.093-.083-4.187-.11-6.278-.246-1.046-.069-2.093-.096-3.139-.147-.765-.037-1.526-.125-2.288-.194.321-.325.646-.647.97-.968l1.461-1.453c.202-.201-.098-.493-.308-.309l-1.554 1.36c-.226.197-.451.397-.677.595-.073-1.859-.225-3.717-.332-5.557-.123-2.123-.178-4.251-.261-6.376-.011-.289-.44-.29-.449 0-.06 1.864-.113 3.728-.181 5.591-.067 1.866-.247 3.726-.303 5.592-.005.151-.006.302-.009.454-.07-.07-.138-.142-.208-.211-.384-.385-.785-.752-1.174-1.13-.051-.049-.145.016-.102.078.309.44.605.89.921 1.326.181.248.365.494.548.741-.001.068-.003.135-.003.203-.776.033-1.551.146-2.327.171-1.044.033-2.093.013-3.138.016-2.091.008-4.183.021-6.274-.026-.251-.006-.246.372 0 .387 2.093.133 4.183.306 6.274.451 1.045.073 2.094.121 3.138.209.632.053 1.258.16 1.887.239-.412.495-.827.986-1.245 1.476-.08.095-.093.233 0 .326.086.086.241.091.326 0 .456-.487.914-.972 1.376-1.453.019.812.052 1.623.108 2.432.064.918.213 1.827.272 2.747.062.947.081 1.896.089 2.845.019 2.124.01 4.256.096 6.376.014.32.494.33.505 0 .126-3.724-.143-7.477.305-11.183.128-1.06.182-2.126.196-3.195Zm16.056 13.688c-2.121-.32-4.264-.58-6.402-.78.129-.11.258-.23.387-.34.359-.32.687-.67.982-1.05.062-.08.077-.19 0-.26-.066-.07-.195-.08-.26 0-.306.35-.64.68-1.003.98a4.72 4.72 0 0 1-.641.42c-.081-2.604-.247-5.205-.164-7.81.01-.299-.442-.294-.461 0-.166 2.613-.502 5.217-.669 7.83-.105-.09-.21-.18-.315-.28-.313-.27-.591-.58-.877-.88-.147-.16-.378.07-.235.23.277.31.558.6.806.93.069.09.138.19.208.28h-.014c-.591.13-1.212.13-1.813.17-1.224.09-2.446.21-3.666.34-.176.02-.185.29 0 .29 1.158-.06 2.314-.07 3.472-.05.576 0 1.168-.01 1.739.07.187.02.368.08.551.13-.156.17-.306.35-.445.53-.27.36-.525.73-.761 1.12-.115.18.167.41.309.24.277-.35.571-.69.885-1 .023-.02.044-.05.066-.07-.016 1.57.282 3.09.383 4.65.107 1.63.128 3.27.203 4.91.013.3.465.3.461 0-.023-1.64-.066-3.27.001-4.91.067-1.62.387-3.19.376-4.81l-.004-.21c.563.46 1.124.93 1.705 1.37.129.1.273-.11.168-.22-.512-.53-1.048-1.04-1.58-1.55 2.192-.08 4.358-.03 6.549.16.243.02.303-.4.059-.43Zm-24.345-4.332c-.797-.083-1.598-.137-2.396-.208-.388-.035-.781-.092-1.173-.139.399-.456.8-.91 1.221-1.35.13-.134-.069-.332-.204-.204-.441.415-.881.84-1.31 1.271-.069-.547-.17-1.093-.204-1.642-.058-.938-.019-1.885.003-2.824.005-.223-.329-.219-.344 0-.064.908-.09 1.821-.179 2.726-.056.581-.179 1.164-.254 1.747-.276-.303-.547-.611-.831-.907-.16-.167-.408.084-.252.252.271.293.53.598.794.898-.625.072-1.251.24-1.873.308-.796.086-1.597.129-2.394.196-.195.016-.202.307 0 .307.797.001 1.597-.008 2.394.036.637.035 1.273.186 1.909.24-.07.083-.143.162-.214.245-.298.352-.538.746-.825 1.11-.13.16.099.39.23.23.277-.35.607-.652.894-.99.056-.067.115-.132.172-.198.081.698.215 1.378.271 2.078.077.94.164 1.88.222 2.82.016.25.397.25.382 0a36.3 36.3 0 0 1-.054-2.72c.008-.71.105-1.41.168-2.112.229.311.456.622.7.922.188.23.595-.08.415-.32-.288-.39-.614-.751-.941-1.11.426-.05.853-.111 1.277-.143.799-.06 1.597-.087 2.396-.132.252-.014.245-.362 0-.387Z" opacity=".3" fill="#fff"/><path d="m633.294 560.032 1.863 1.064c.264.15.485-.238.236-.404l-1.493-.992c.585-.033 1.17-.069 1.756-.077 1.047-.013 2.093-.008 3.138-.049 2.092-.083 4.187-.078 6.279-.148.36-.013.36-.546 0-.56-2.094-.083-4.187-.11-6.279-.247-1.045-.068-2.092-.095-3.138-.146-.766-.037-1.526-.126-2.288-.194.321-.326.646-.647.97-.969l1.461-1.453c.201-.2-.099-.492-.309-.308l-1.554 1.359-.676.596c-.074-1.859-.225-3.718-.332-5.557-.123-2.123-.178-4.252-.261-6.377-.012-.288-.44-.289-.449 0-.06 1.864-.113 3.728-.181 5.592-.067 1.865-.247 3.726-.304 5.591-.004.151-.005.303-.009.454l-.207-.211c-.384-.385-.786-.751-1.175-1.129-.05-.05-.145.016-.101.078.308.44.604.89.921 1.325.181.249.365.494.547.742l-.003.202c-.776.034-1.55.147-2.326.172-1.045.033-2.093.012-3.138.016-2.091.008-4.183.021-6.274-.026-.251-.006-.247.371 0 .387 2.092.133 4.182.305 6.274.451 1.045.073 2.093.121 3.138.208.631.053 1.258.16 1.886.24-.411.494-.827.985-1.244 1.476-.081.094-.093.233 0 .326.086.086.24.091.326 0 .456-.488.914-.973 1.376-1.453.019.811.051 1.623.108 2.432.064.918.212 1.827.272 2.747.061.947.081 1.896.089 2.844.018 2.125.009 4.254.096 6.377.013.324.493.325.505 0 .126-3.724-.144-7.477.305-11.183.127-1.06.181-2.127.195-3.196Zm16.057 13.686a112.59 112.59 0 0 0-6.402-.778c.129-.113.258-.226.386-.341.359-.319.687-.672.983-1.05.061-.079.077-.185 0-.261-.067-.067-.195-.076-.261 0a7.99 7.99 0 0 1-1.002.979 4.23 4.23 0 0 1-.641.423c-.081-2.603-.247-5.204-.164-7.809.01-.299-.443-.295-.461 0-.167 2.613-.502 5.217-.67 7.832a41.94 41.94 0 0 0-.315-.28c-.312-.275-.59-.582-.876-.885-.148-.156-.378.077-.235.235.276.305.558.603.806.931l.207.274-.014.003c-.591.128-1.211.125-1.813.168a102.46 102.46 0 0 0-3.665.344c-.177.02-.185.292 0 .283a56.614 56.614 0 0 1 3.472-.049c.576.008 1.167-.01 1.739.071.186.027.368.084.55.134a6.841 6.841 0 0 0-.444.53c-.271.359-.525.732-.762 1.115-.114.186.168.417.309.239a11.793 11.793 0 0 1 .952-1.064c-.016 1.566.281 3.088.383 4.649.107 1.634.127 3.274.202 4.909.014.296.466.299.462 0-.024-1.635-.066-3.274.001-4.909.067-1.617.387-3.191.375-4.812 0-.07-.002-.139-.003-.209.563.464 1.124.93 1.705 1.372.128.097.272-.108.167-.217-.512-.535-1.047-1.045-1.58-1.559a53.65 53.65 0 0 1 6.55.161c.243.021.303-.392.059-.429Zm-24.346-4.33c-.796-.082-1.597-.136-2.395-.207-.389-.035-.781-.093-1.174-.139.399-.457.801-.911 1.222-1.35.129-.135-.069-.332-.204-.204-.442.415-.881.839-1.311 1.271-.068-.547-.17-1.093-.204-1.643-.057-.937-.018-1.884.004-2.823.005-.224-.33-.219-.345 0-.064.908-.09 1.82-.178 2.726-.057.58-.18 1.163-.254 1.747-.277-.303-.547-.612-.832-.908-.16-.166-.408.084-.252.252.272.293.53.599.795.899-.625.071-1.251.24-1.873.307-.796.087-1.597.13-2.395.197-.194.016-.201.307 0 .307.798.001 1.598-.009 2.395.035.637.035 1.273.186 1.908.241-.07.082-.143.162-.213.244-.298.352-.538.747-.826 1.106-.13.163.1.395.231.231.276-.347.607-.648.893-.987l.172-.197c.082.693.215 1.38.272 2.077.077.942.164 1.878.222 2.822.015.244.397.246.381 0a37.51 37.51 0 0 1-.054-2.724c.009-.709.106-1.407.169-2.109.229.31.456.622.7.921.188.23.594-.079.415-.321-.288-.389-.615-.749-.942-1.109.427-.049.854-.111 1.278-.142.798-.06 1.597-.087 2.395-.133.253-.014.246-.362 0-.387Zm-469.273-32.546 1.275.728c.18.103.332-.163.161-.276l-1.022-.679c.401-.023.801-.048 1.202-.053.716-.009 1.432-.006 2.148-.034 1.431-.056 2.864-.053 4.296-.101.247-.009.246-.373 0-.383-1.433-.057-2.865-.075-4.296-.169-.716-.047-1.432-.065-2.148-.1-.524-.025-1.044-.086-1.566-.133a83 83 0 0 1 .664-.663l1-.994c.137-.137-.068-.337-.211-.211l-1.064.93-.463.407c-.05-1.271-.154-2.543-.227-3.802-.084-1.453-.122-2.91-.179-4.364-.008-.197-.301-.198-.307 0-.041 1.276-.077 2.551-.124 3.827-.046 1.276-.169 2.549-.208 3.826-.003.103-.003.207-.006.311l-.142-.145c-.262-.263-.537-.514-.804-.773-.034-.033-.099.011-.069.054.211.301.414.609.63.907.124.17.25.338.375.507l-.002.139c-.531.023-1.061.1-1.592.117-.715.023-1.432.009-2.148.011-1.43.006-2.862.014-4.293-.018-.172-.004-.169.255 0 .265 1.432.091 2.862.209 4.293.309.716.05 1.433.083 2.148.142.432.037.861.11 1.291.164-.282.339-.566.675-.852 1.01-.055.065-.064.16 0 .223.059.059.165.063.223 0 .313-.333.626-.665.942-.994.013.556.035 1.111.074 1.665.044.628.145 1.25.186 1.879.042.648.055 1.298.061 1.947.013 1.454.007 2.911.066 4.364.009.221.337.222.345 0 .087-2.549-.098-5.117.209-7.653.087-.725.124-1.455.134-2.187Zm10.98 9.365a76.546 76.546 0 0 0-4.381-.533c.089-.077.177-.154.265-.233.246-.219.47-.46.672-.719.042-.053.053-.126 0-.178-.045-.046-.133-.052-.178 0a5.497 5.497 0 0 1-.686.67c-.134.11-.284.204-.439.289-.055-1.781-.169-3.561-.112-5.344.007-.204-.303-.201-.316 0-.113 1.788-.343 3.571-.457 5.36l-.216-.191c-.214-.189-.404-.399-.6-.606-.101-.107-.259.053-.161.161.189.208.382.412.552.637l.142.187a.03.03 0 0 1-.01.002c-.404.088-.829.086-1.24.115-.838.061-1.674.144-2.509.236-.121.013-.127.199 0 .193a39.225 39.225 0 0 1 2.376-.034c.395.006.799-.006 1.19.05.128.018.252.056.377.091a4.598 4.598 0 0 0-.304.363 9.87 9.87 0 0 0-.521.763c-.079.127.114.285.211.163.19-.238.391-.466.606-.682l.045-.046c-.011 1.072.193 2.114.262 3.182.073 1.118.088 2.24.139 3.359.009.202.318.205.316 0-.016-1.119-.046-2.241.001-3.359.045-1.107.264-2.184.256-3.293l-.002-.143c.385.317.769.636 1.167.938.088.067.186-.074.114-.148-.35-.366-.716-.715-1.081-1.067a36.85 36.85 0 0 1 4.482.11c.166.014.207-.268.04-.293Zm-16.657-2.962c-.545-.056-1.093-.093-1.639-.142-.266-.024-.535-.063-.804-.095.274-.312.548-.623.837-.924.088-.092-.048-.227-.14-.14-.302.285-.603.575-.897.87-.047-.374-.116-.748-.139-1.124-.04-.641-.013-1.289.002-1.932.003-.153-.226-.15-.236 0-.044.621-.061 1.246-.122 1.866-.039.397-.123.796-.174 1.195-.189-.207-.374-.418-.569-.621-.109-.114-.279.057-.172.172.185.201.362.41.543.615-.428.049-.856.165-1.281.211-.545.059-1.093.089-1.639.134-.133.011-.138.21 0 .21.546.001 1.093-.005 1.639.025.435.023.871.127 1.306.164-.048.057-.098.111-.146.168-.204.24-.369.51-.565.756-.089.111.068.27.157.158.19-.237.416-.443.612-.675l.117-.135c.056.474.148.945.186 1.422.053.644.112 1.285.152 1.93.011.167.272.169.261 0a25.75 25.75 0 0 1-.037-1.864c.006-.485.073-.962.116-1.443.156.213.312.426.478.63.129.158.407-.054.285-.219a9.87 9.87 0 0 0-.645-.759c.292-.034.584-.076.875-.098.546-.04 1.092-.059 1.639-.09.173-.01.168-.248 0-.265Zm412.107 619.875c.62.35 1.242.71 1.863 1.06.263.15.485-.24.236-.4-.498-.33-.996-.66-1.494-1 .585-.03 1.17-.06 1.756-.07 1.047-.01 2.093-.01 3.139-.05 2.092-.08 4.186-.08 6.278-.15.36-.01.36-.54 0-.56-2.094-.08-4.187-.11-6.278-.25-1.046-.06-2.093-.09-3.139-.14-.765-.04-1.526-.13-2.288-.2.321-.32.646-.64.97-.96.487-.49.975-.97 1.461-1.46.201-.2-.099-.49-.308-.31-.518.46-1.037.91-1.555 1.36l-.676.6c-.073-1.86-.225-3.72-.332-5.56-.123-2.12-.178-4.25-.261-6.37-.012-.29-.44-.29-.449 0-.06 1.86-.113 3.72-.181 5.59-.067 1.86-.247 3.72-.304 5.59-.004.15-.005.3-.008.45l-.208-.21c-.384-.38-.785-.75-1.175-1.13-.05-.05-.145.02-.101.08.309.44.605.89.921 1.33.181.24.365.49.547.74l-.003.2c-.775.03-1.55.15-2.326.17-1.044.03-2.093.01-3.138.02-2.091 0-4.183.02-6.274-.03-.251-.01-.247.37 0 .39 2.093.13 4.182.3 6.274.45 1.045.07 2.094.12 3.138.21.631.05 1.258.16 1.887.24-.412.49-.828.98-1.245 1.47-.081.1-.093.24 0 .33.086.08.241.09.326 0 .456-.49.914-.97 1.376-1.45.019.81.052 1.62.108 2.43.064.92.213 1.83.272 2.74.062.95.081 1.9.089 2.85.018 2.12.01 4.25.096 6.38.013.32.494.32.505 0 .126-3.73-.143-7.48.305-11.19.128-1.06.182-2.12.196-3.19Zm16.056 13.68c-2.121-.32-4.264-.57-6.402-.77.129-.12.258-.23.387-.35.358-.32.687-.67.982-1.05.062-.07.077-.18 0-.26-.066-.06-.195-.07-.261 0a7.3 7.3 0 0 1-1.002.98c-.196.16-.415.3-.641.42-.081-2.6-.247-5.2-.164-7.8.01-.3-.443-.3-.461 0-.167 2.61-.502 5.21-.669 7.83-.105-.1-.21-.19-.316-.28-.312-.28-.59-.58-.876-.89-.148-.15-.378.08-.235.24.276.3.558.6.806.93l.207.27c-.004 0-.009.01-.014.01-.59.12-1.211.12-1.812.16-1.224.09-2.446.21-3.666.35-.177.02-.185.29 0 .28 1.157-.05 2.314-.07 3.472-.05.576.01 1.168-.01 1.739.07.187.03.368.09.55.14a6.35 6.35 0 0 0-.444.53c-.27.36-.525.73-.762 1.11-.114.19.168.42.31.24.277-.35.57-.68.885-1l.066-.06c-.016 1.56.282 3.09.383 4.65.107 1.63.128 3.27.202 4.91.014.29.466.29.462 0-.024-1.64-.066-3.28.001-4.91.067-1.62.387-3.2.376-4.82l-.004-.2c.563.46 1.124.93 1.705 1.37.128.09.273-.11.168-.22-.512-.54-1.048-1.04-1.58-1.56 2.192-.08 4.358-.03 6.549.16.243.02.303-.39.059-.43Zm-24.345-4.33c-.797-.08-1.598-.13-2.396-.2-.389-.04-.781-.1-1.174-.14.4-.46.801-.91 1.222-1.35.129-.14-.069-.34-.204-.21-.442.42-.881.84-1.311 1.27-.068-.54-.169-1.09-.203-1.64-.058-.94-.019-1.88.003-2.82.005-.23-.329-.22-.345 0-.064.91-.089 1.82-.178 2.72-.056.58-.18 1.17-.254 1.75-.276-.3-.547-.61-.832-.91-.159-.16-.407.09-.252.26.272.29.531.59.795.89-.625.08-1.251.24-1.873.31-.796.09-1.597.13-2.395.2-.194.01-.201.31 0 .31.798 0 1.598-.01 2.395.03.637.04 1.273.19 1.909.24-.07.08-.144.16-.214.25-.298.35-.538.74-.826 1.1-.129.16.1.4.231.23.277-.34.607-.65.894-.98.056-.07.114-.14.171-.2.082.69.216 1.38.272 2.08.077.94.164 1.87.222 2.82.015.24.397.24.382 0-.057-.92-.065-1.81-.054-2.73.008-.71.105-1.4.168-2.11.229.31.456.63.7.92.188.24.594-.07.415-.32-.288-.38-.615-.75-.942-1.1.427-.05.854-.12 1.278-.15.799-.06 1.597-.08 2.396-.13.252-.01.245-.36 0-.39Z" opacity=".2" fill="#fff"/><path d="m426.076 942.5 1.863 1.064c.263.15.485-.239.236-.404l-1.494-.992c.585-.033 1.171-.069 1.756-.077 1.047-.013 2.093-.008 3.139-.05 2.092-.082 4.186-.077 6.278-.148.36-.012.36-.545 0-.559-2.093-.084-4.187-.11-6.278-.247-1.046-.068-2.093-.096-3.139-.146-.765-.037-1.526-.126-2.288-.194.321-.326.646-.647.97-.969l1.461-1.453c.202-.2-.098-.492-.308-.309l-1.555 1.36-.676.595c-.073-1.858-.225-3.717-.332-5.556-.123-2.123-.178-4.252-.261-6.377-.011-.289-.44-.289-.449 0-.06 1.864-.113 3.728-.181 5.592-.067 1.865-.247 3.726-.304 5.591-.004.151-.005.303-.008.454l-.208-.211c-.384-.385-.785-.751-1.175-1.13-.05-.049-.145.016-.101.079.309.439.605.89.921 1.325.181.249.365.494.547.741 0 .068-.002.136-.003.203-.775.034-1.55.147-2.326.171-1.044.034-2.093.013-3.138.017-2.091.008-4.183.02-6.274-.027-.251-.005-.247.372 0 .388 2.093.133 4.182.305 6.274.451 1.045.073 2.094.12 3.138.208.631.053 1.258.16 1.887.239-.412.495-.828.986-1.245 1.476-.081.095-.093.233 0 .326.086.087.241.092.326 0 .456-.487.914-.972 1.376-1.452.019.811.052 1.623.108 2.432.064.918.213 1.827.272 2.746.062.947.081 1.896.089 2.845.018 2.125.01 4.253.096 6.377.013.324.494.325.505 0 .126-3.724-.143-7.478.305-11.183.128-1.06.182-2.127.196-3.196Zm16.056 13.686a112.59 112.59 0 0 0-6.402-.778 59.1 59.1 0 0 0 .387-.341c.358-.319.687-.672.982-1.05.062-.079.077-.185 0-.261-.066-.067-.195-.076-.26 0-.306.355-.64.683-1.003.979a4.23 4.23 0 0 1-.641.423c-.081-2.603-.247-5.204-.164-7.81.01-.298-.442-.294-.461 0-.166 2.613-.502 5.218-.669 7.832l-.316-.279c-.312-.275-.59-.582-.876-.885-.148-.156-.378.077-.235.235.276.305.558.602.806.931l.207.273-.013.004c-.591.128-1.212.124-1.813.168-1.224.089-2.446.21-3.666.344-.177.02-.185.292 0 .283a55.829 55.829 0 0 1 3.472-.05c.576.009 1.168-.009 1.739.072.187.027.368.083.551.134a6.854 6.854 0 0 0-.445.53c-.27.359-.525.732-.761 1.115-.115.186.167.417.309.239.277-.349.57-.682.885-.997l.066-.067c-.016 1.566.282 3.088.383 4.649.107 1.634.128 3.274.203 4.909.013.295.465.299.461 0-.023-1.635-.066-3.274.001-4.909.067-1.617.387-3.191.376-4.812l-.004-.209c.563.464 1.124.93 1.705 1.372.129.097.273-.108.168-.218-.512-.534-1.048-1.044-1.58-1.558a53.84 53.84 0 0 1 6.549.16c.243.021.303-.391.059-.428Zm-24.345-4.33c-.797-.082-1.598-.136-2.396-.208-.389-.034-.781-.092-1.174-.139.4-.456.801-.91 1.222-1.349.129-.135-.069-.332-.204-.204-.442.415-.881.839-1.311 1.271-.068-.547-.169-1.093-.203-1.643-.058-.938-.019-1.885.003-2.823.005-.224-.329-.219-.345 0-.064.908-.089 1.82-.178 2.726-.056.58-.179 1.163-.254 1.747-.276-.304-.547-.612-.831-.908-.16-.166-.408.084-.253.252.272.293.531.598.795.898-.625.072-1.251.241-1.873.308-.796.087-1.597.13-2.395.196-.194.017-.201.308 0 .308.798 0 1.598-.009 2.395.035.637.035 1.273.186 1.909.241-.07.082-.144.162-.214.244-.298.352-.538.746-.826 1.106-.129.162.1.394.231.231.277-.347.607-.648.894-.987.056-.066.115-.131.172-.198.081.694.215 1.381.271 2.078.077.941.164 1.878.222 2.822.016.244.397.245.382 0a36.418 36.418 0 0 1-.054-2.724c.008-.71.105-1.407.168-2.109.229.31.456.622.7.92.188.231.595-.078.415-.32a14.37 14.37 0 0 0-.942-1.109c.427-.049.854-.111 1.278-.143.799-.059 1.597-.087 2.396-.132.252-.014.245-.362 0-.387Z" opacity=".3" fill="#fff"/><path d="m202.292 1070.85 1.666.96c.235.13.433-.22.211-.37-.445-.29-.89-.59-1.335-.88.523-.03 1.046-.06 1.57-.07.935-.01 1.871-.01 2.806-.05 1.87-.07 3.742-.06 5.613-.13.322-.01.321-.49 0-.5-1.872-.07-3.743-.1-5.613-.22-.935-.06-1.871-.08-2.806-.13-.685-.03-1.365-.11-2.046-.17.287-.29.578-.58.867-.87.436-.43.871-.86 1.307-1.3.179-.18-.089-.44-.276-.27-.464.4-.927.81-1.39 1.21-.202.18-.403.36-.604.53-.066-1.66-.202-3.32-.297-4.96-.111-1.9-.16-3.8-.234-5.7-.01-.26-.393-.26-.401 0-.054 1.66-.101 3.33-.162 4.99-.06 1.67-.221 3.34-.272 5l-.007.41c-.063-.06-.124-.13-.186-.19-.343-.34-.702-.67-1.05-1.01-.045-.04-.13.01-.091.07.276.39.541.8.824 1.19.161.22.326.44.489.66l-.003.18c-.693.03-1.386.13-2.08.15-.933.03-1.871.01-2.805.02-1.869 0-3.74.02-5.609-.03-.225 0-.221.34 0 .35 1.871.12 3.739.27 5.609.4.935.07 1.872.11 2.805.19.565.05 1.125.14 1.687.21-.368.45-.739.88-1.113 1.32-.072.09-.083.21 0 .29.077.08.216.09.292 0 .408-.43.817-.86 1.23-1.29.017.72.046 1.45.097 2.17.057.82.19 1.63.243 2.46.055.84.072 1.69.08 2.54.016 1.9.008 3.8.086 5.7.011.29.441.29.451 0 .113-3.33-.128-6.68.273-10 .114-.95.162-1.9.174-2.86Zm14.351 12.24a91.613 91.613 0 0 0-5.723-.69c.115-.11.23-.21.345-.31.321-.28.614-.6.879-.94.055-.07.068-.16 0-.23-.06-.06-.175-.07-.233 0a6.69 6.69 0 0 1-.896.87 3.32 3.32 0 0 1-.574.38c-.072-2.33-.22-4.65-.146-6.98.008-.27-.396-.26-.413 0-.148 2.34-.449 4.66-.598 7a6.327 6.327 0 0 1-.282-.25c-.279-.24-.528-.52-.783-.79-.132-.14-.338.07-.211.21.248.27.499.54.721.83.062.09.124.17.186.25h-.013c-.528.12-1.083.11-1.621.15-1.094.08-2.186.19-3.277.31-.158.02-.166.26 0 .25 1.035-.05 2.069-.06 3.104-.04.515.01 1.044-.01 1.555.06.167.03.329.08.492.12-.139.15-.273.31-.397.48-.242.32-.47.65-.681.99-.102.17.15.37.276.22.248-.32.511-.61.792-.9l.059-.06c-.015 1.4.252 2.77.342 4.16.096 1.46.114 2.93.181 4.39.012.26.416.27.413 0-.021-1.46-.059-2.93.001-4.39.06-1.44.346-2.85.336-4.3l-.003-.19c.503.42 1.004.83 1.524 1.23.115.09.243-.1.15-.2-.458-.47-.937-.93-1.413-1.39 1.96-.07 3.897-.02 5.855.14.218.02.271-.35.053-.38Zm-21.766-3.87c-.712-.07-1.428-.12-2.142-.19-.347-.03-.698-.08-1.049-.12.357-.41.716-.81 1.092-1.21.116-.12-.061-.29-.182-.18-.395.37-.788.75-1.172 1.14-.061-.49-.152-.98-.182-1.47-.052-.84-.017-1.69.003-2.53.004-.2-.295-.19-.308 0-.058.82-.081 1.63-.16 2.44-.05.52-.16 1.04-.227 1.56-.247-.27-.489-.54-.743-.81-.143-.15-.365.08-.226.23.243.26.474.53.711.8-.559.06-1.119.21-1.675.28-.711.07-1.428.11-2.141.17-.173.02-.18.28 0 .28.713 0 1.429-.01 2.141.03.57.03 1.138.16 1.707.21-.063.08-.128.15-.191.22-.267.32-.482.67-.739.99-.116.14.09.35.207.21.247-.31.542-.58.798-.89.051-.06.103-.11.154-.17.073.62.193 1.23.243 1.85.069.85.146 1.68.199 2.53.013.22.354.22.341 0-.051-.82-.058-1.62-.049-2.44.008-.63.095-1.26.151-1.88.205.27.408.55.626.82.168.21.531-.07.371-.29-.258-.34-.55-.67-.842-.99.381-.04.763-.1 1.142-.13.714-.05 1.428-.07 2.142-.11.226-.02.22-.33 0-.35Z" opacity=".1" fill="#fff"/><path d="m42.943 957.967 1.47.84c.209.119.384-.188.187-.318l-1.18-.784c.463-.026.925-.054 1.387-.06.827-.011 1.653-.007 2.478-.039 1.652-.066 3.306-.062 4.957-.117.285-.01.285-.431 0-.442-1.652-.066-3.305-.087-4.957-.195-.825-.054-1.652-.076-2.478-.115-.604-.03-1.205-.1-1.806-.154.253-.257.51-.511.766-.765l1.153-1.147c.16-.158-.078-.389-.243-.243-.41.357-.819.715-1.227 1.073-.179.156-.356.314-.534.47-.058-1.468-.178-2.935-.263-4.387-.097-1.676-.14-3.357-.206-5.035-.009-.228-.347-.228-.354 0-.048 1.472-.09 2.944-.143 4.415-.053 1.473-.195 2.942-.24 4.415l-.007.358-.164-.167c-.303-.303-.62-.593-.927-.892-.04-.038-.115.013-.08.062.243.348.477.703.727 1.047.143.196.288.39.432.585l-.002.16c-.613.027-1.224.116-1.837.135-.825.027-1.653.01-2.478.013-1.65.007-3.302.017-4.953-.02-.198-.005-.195.293 0 .305 1.652.105 3.302.241 4.953.357.826.057 1.653.095 2.478.164.498.042.993.126 1.49.189-.326.39-.654.778-.983 1.165-.064.075-.074.184 0 .258.068.068.19.072.257 0 .36-.385.722-.768 1.087-1.147.015.64.04 1.281.085 1.92.05.725.168 1.443.215 2.169.048.747.063 1.497.07 2.246.014 1.677.008 3.358.076 5.034.01.256.39.257.398 0 .1-2.94-.113-5.903.241-8.829.101-.837.144-1.679.155-2.524Zm12.685 10.806a89.185 89.185 0 0 0-5.054-.614l.305-.269c.283-.252.542-.531.776-.829.048-.062.06-.146 0-.206-.053-.053-.154-.06-.206 0a6.35 6.35 0 0 1-.791.773 3.385 3.385 0 0 1-.507.334c-.064-2.056-.195-4.109-.129-6.166.008-.236-.35-.233-.364 0-.132 2.063-.397 4.119-.529 6.183l-.249-.22c-.246-.218-.466-.46-.692-.699-.116-.123-.298.061-.185.186.218.24.44.475.636.734l.164.217-.01.002c-.467.101-.957.099-1.432.133-.967.07-1.931.166-2.894.272-.14.015-.147.23 0 .223a44.749 44.749 0 0 1 2.741-.039c.455.007.922-.007 1.373.057.147.021.29.065.434.106a5.22 5.22 0 0 0-.35.418c-.214.283-.415.578-.602.88-.09.147.133.329.244.189a9.16 9.16 0 0 1 .7-.787l.052-.053c-.013 1.236.222 2.438.302 3.67.084 1.29.1 2.585.16 3.876.01.234.367.236.364 0-.018-1.291-.052-2.585.001-3.876.053-1.276.305-2.519.296-3.799l-.002-.165c.444.366.887.734 1.346 1.083.101.077.215-.085.132-.171-.404-.423-.827-.825-1.247-1.231a42.313 42.313 0 0 1 5.17.127c.193.016.24-.31.047-.339Zm-19.225-3.418c-.629-.065-1.261-.107-1.891-.164-.307-.027-.617-.073-.927-.109.315-.361.632-.719.965-1.066.102-.106-.055-.262-.162-.161a43.79 43.79 0 0 0-1.034 1.003c-.054-.432-.134-.863-.161-1.297-.046-.74-.015-1.488.002-2.229.004-.176-.26-.173-.272 0-.05.717-.07 1.437-.14 2.152-.045.459-.142.919-.201 1.38-.218-.24-.432-.483-.657-.717-.126-.131-.322.067-.199.199.215.232.419.473.628.709-.494.057-.988.19-1.48.243-.627.069-1.26.103-1.89.155-.153.013-.159.243 0 .243.63.001 1.262-.007 1.89.028.504.028 1.006.147 1.508.19-.055.065-.113.128-.169.193-.235.278-.425.589-.652.873-.102.128.08.312.183.182.218-.273.479-.511.705-.779l.136-.156c.064.548.17 1.09.214 1.641.061.743.13 1.482.175 2.227.013.193.314.194.302 0a28.936 28.936 0 0 1-.043-2.15c.007-.56.083-1.111.133-1.665.18.245.36.491.552.727.149.181.47-.063.328-.253a11.524 11.524 0 0 0-.743-.876c.337-.039.674-.088 1.009-.113.63-.047 1.26-.068 1.891-.104.2-.011.194-.286 0-.306Z" opacity=".5" fill="#fff"/><path d="m384.766 151.65 2.697 1.54c.381.218.702-.345.341-.584l-2.162-1.437c.848-.047 1.695-.1 2.542-.111 1.516-.018 3.03-.012 4.544-.071 3.029-.12 6.06-.113 9.089-.215.522-.017.521-.789 0-.81-3.031-.121-6.061-.159-9.089-.357-1.514-.099-3.029-.139-4.544-.212-1.108-.053-2.209-.182-3.312-.281.465-.471.936-.936 1.405-1.402l2.115-2.103c.291-.29-.143-.713-.447-.447l-2.25 1.968c-.327.286-.653.575-.979.862-.107-2.691-.326-5.382-.481-8.045-.178-3.073-.258-6.154-.378-9.231-.016-.418-.637-.419-.65 0-.087 2.699-.164 5.397-.261 8.095-.098 2.701-.358 5.394-.44 8.095-.007.218-.008.438-.013.657-.101-.101-.2-.205-.301-.306-.556-.557-1.137-1.088-1.7-1.635-.073-.071-.21.023-.147.113.447.637.875 1.289 1.334 1.919.261.36.528.715.792 1.073-.001.098-.004.196-.004.294-1.124.048-2.245.212-3.369.248-1.511.048-3.029.018-4.542.024-3.027.011-6.056.029-9.082-.039-.364-.008-.358.538 0 .561 3.029.192 6.054.442 9.082.653 1.513.105 3.031.175 4.542.301.915.077 1.822.232 2.732.347-.596.716-1.198 1.427-1.802 2.137-.117.137-.135.337 0 .472.125.124.349.132.472 0a220.61 220.61 0 0 1 1.992-2.104c.027 1.175.075 2.35.157 3.521.092 1.329.307 2.645.394 3.977.088 1.37.116 2.744.128 4.118.027 3.076.014 6.157.139 9.231.019.469.715.471.731 0 .183-5.391-.207-10.825.442-16.189.184-1.535.263-3.079.283-4.627Zm23.255 19.812c-3.07-.466-6.173-.836-9.267-1.126.186-.164.373-.327.559-.493.52-.463.995-.973 1.423-1.521.089-.113.111-.267 0-.378-.097-.096-.283-.109-.378 0-.442.514-.926.989-1.451 1.418a6.077 6.077 0 0 1-.928.612c-.117-3.769-.357-7.534-.237-11.305.014-.433-.641-.426-.668 0-.241 3.783-.727 7.553-.969 11.338l-.456-.404c-.452-.399-.855-.844-1.269-1.282-.214-.226-.547.112-.34.341.4.441.808.871 1.166 1.347l.301.396-.02.005c-.855.185-1.754.18-2.625.243-1.771.129-3.54.305-5.306.498-.256.029-.268.423 0 .41a81.007 81.007 0 0 1 5.027-.072c.833.013 1.689-.013 2.516.104.271.039.533.121.798.194-.226.245-.442.499-.644.767-.391.52-.76 1.06-1.102 1.614-.166.269.242.604.447.346.401-.505.826-.987 1.282-1.443l.095-.097c-.023 2.267.408 4.471.555 6.73.154 2.366.185 4.739.293 7.107.02.428.674.433.668 0-.034-2.368-.096-4.74.002-7.107.096-2.341.56-4.62.543-6.966 0-.101-.003-.202-.005-.302.815.671 1.627 1.346 2.468 1.985.186.141.395-.156.243-.314-.741-.774-1.516-1.512-2.287-2.257a77.753 77.753 0 0 1 9.481.233c.352.03.439-.567.085-.621Zm-35.243-6.267c-1.153-.119-2.312-.198-3.468-.301-.562-.05-1.13-.134-1.699-.201a57.187 57.187 0 0 1 1.769-1.954c.187-.195-.1-.481-.296-.295a80.108 80.108 0 0 0-1.897 1.84c-.099-.792-.246-1.583-.295-2.378-.084-1.358-.027-2.729.005-4.087.007-.324-.477-.318-.499 0-.093 1.314-.13 2.635-.258 3.946-.082.84-.26 1.684-.368 2.529-.4-.439-.792-.886-1.204-1.314-.231-.241-.59.122-.365.365.394.424.768.866 1.151 1.3-.906.104-1.811.348-2.712.446-1.152.125-2.312.188-3.466.284-.282.023-.292.445 0 .445 1.154.001 2.313-.013 3.466.051.922.05 1.843.269 2.763.349-.101.119-.207.234-.309.353-.431.509-.779 1.08-1.195 1.601-.188.235.144.571.334.334.4-.502.878-.938 1.293-1.428.082-.097.167-.191.249-.286.118 1.003.311 1.998.393 3.007.112 1.363.237 2.719.322 4.085.022.353.574.356.552 0a52.931 52.931 0 0 1-.078-3.943c.012-1.027.152-2.037.244-3.053.331.449.66.9 1.013 1.333.272.333.861-.115.601-.464-.417-.563-.89-1.086-1.363-1.606.617-.072 1.235-.16 1.849-.206 1.156-.087 2.312-.126 3.468-.192.366-.02.356-.524 0-.56Zm-269.734-40.747 4.412 2.518c.623.357 1.148-.564.558-.955l-3.536-2.35c1.386-.077 2.771-.164 4.158-.181 2.478-.031 4.956-.02 7.432-.118 4.953-.196 9.912-.183 14.866-.35.853-.029.852-1.292 0-1.326-4.957-.197-9.914-.26-14.866-.584-2.476-.161-4.955-.226-7.432-.346-1.812-.088-3.613-.298-5.417-.46.759-.771 1.53-1.532 2.297-2.294a5609.33 5609.33 0 0 0 3.459-3.44c.477-.474-.234-1.166-.731-.731l-3.68 3.22c-.535.468-1.067.94-1.601 1.409-.174-4.401-.533-8.802-.787-13.157-.291-5.027-.421-10.067-.618-15.1-.027-.683-1.041-.685-1.063 0-.142 4.414-.268 8.828-.428 13.241-.16 4.417-.585 8.822-.72 13.24-.01.358-.012.716-.02 1.075-.165-.166-.327-.335-.492-.5-.91-.911-1.86-1.779-2.781-2.675-.12-.117-.344.038-.24.185.73 1.042 1.432 2.108 2.181 3.139.428.588.864 1.17 1.296 1.755-.002.161-.006.321-.007.481-1.838.079-3.672.346-5.51.405-2.472.079-4.955.03-7.43.039-4.95.019-9.904.048-14.855-.063-.595-.013-.584.88 0 .918 4.955.314 9.903.722 14.856 1.068 2.475.172 4.957.285 7.43.492 1.495.126 2.979.38 4.467.567a401.926 401.926 0 0 1-2.947 3.495c-.19.225-.22.552 0 .772.204.204.57.217.772 0a373.293 373.293 0 0 1 3.258-3.44c.045 1.922.123 3.843.257 5.759.151 2.174.503 4.327.644 6.504.145 2.242.191 4.49.21 6.736.043 5.031.023 10.071.228 15.099.031.767 1.168.77 1.195 0 .299-8.818-.339-17.705.723-26.48.302-2.51.429-5.035.462-7.567Zm38.025 32.405a268.333 268.333 0 0 0-15.159-1.841c.306-.268.611-.535.916-.807a19.022 19.022 0 0 0 2.327-2.488c.145-.185.181-.437 0-.617-.158-.158-.463-.18-.618 0a18.967 18.967 0 0 1-2.373 2.318 9.944 9.944 0 0 1-1.519 1.001c-.191-6.163-.584-12.322-.387-18.491.022-.707-1.049-.697-1.093 0-.394 6.187-1.189 12.354-1.585 18.545-.248-.221-.496-.441-.746-.661-.739-.652-1.398-1.379-2.075-2.096-.35-.37-.895.183-.557.557.655.722 1.322 1.426 1.908 2.203l.492.649-.033.008c-1.399.303-2.868.295-4.293.398-2.897.21-5.79.498-8.679.814-.418.047-.439.691 0 .67 2.74-.127 5.478-.16 8.222-.117 1.364.02 2.764-.022 4.116.17.442.063.872.197 1.304.317-.369.4-.722.816-1.052 1.254a34.345 34.345 0 0 0-1.803 2.641c-.272.439.396.987.732.565a27.754 27.754 0 0 1 2.252-2.518c-.038 3.707.667 7.312.907 11.008.253 3.869.302 7.751.48 11.624.032.699 1.102.707 1.092 0-.055-3.873-.156-7.753.004-11.624.157-3.829.915-7.557.888-11.395-.001-.165-.006-.33-.008-.494 1.333 1.098 2.661 2.202 4.037 3.248.304.23.645-.256.397-.515-1.212-1.266-2.48-2.473-3.741-3.691 5.191-.187 10.32-.063 15.508.381.575.049.717-.928.139-1.016Zm-57.641-10.251c-1.886-.194-3.782-.322-5.672-.491-.92-.082-1.85-.219-2.78-.329a94.3 94.3 0 0 1 2.894-3.196c.306-.319-.163-.787-.484-.483a129.426 129.426 0 0 0-3.103 3.01c-.162-1.296-.402-2.589-.482-3.89-.137-2.22-.045-4.463.007-6.685.012-.53-.78-.519-.816 0-.151 2.149-.212 4.31-.421 6.454-.134 1.374-.426 2.755-.602 4.137-.655-.718-1.296-1.448-1.97-2.149-.378-.394-.965.199-.596.597.643.694 1.255 1.416 1.881 2.127-1.48.17-2.962.569-4.435.728-1.884.206-3.781.308-5.67.465-.46.038-.476.728 0 .728 1.889.001 3.784-.02 5.67.084 1.508.082 3.015.44 4.52.57-.166.195-.34.383-.505.578-.707.833-1.276 1.767-1.956 2.619-.307.384.236.934.546.546.655-.821 1.437-1.534 2.116-2.336.134-.158.272-.311.407-.468.193 1.641.51 3.269.643 4.919.183 2.229.388 4.447.526 6.682.036.577.94.581.903 0-.134-2.164-.154-4.287-.128-6.451.02-1.679.25-3.331.4-4.993.541.735 1.079 1.473 1.656 2.18.445.545 1.408-.187.983-.759-.682-.92-1.455-1.775-2.23-2.625 1.01-.118 2.021-.263 3.026-.339 1.891-.141 3.78-.206 5.672-.313.598-.033.582-.857 0-.917Z" opacity=".3" fill="#fff"/><ellipse cx="216.018" cy="906.205" rx="553.601" ry="351.096" transform="rotate(-14.233 216.018 906.205)" fill="#050912"/><ellipse cx="346.393" cy="1001.32" rx="553.601" ry="398.448" transform="rotate(-25.047 346.393 1001.32)" fill="#080D18"/><g clip-path="url(#c)"><path d="m711.222 593.195-5.195-3.943s6.524 2.067 11.265 1.012c-6.07-2.906-12.95-7.383-15.455-12.838 4.638 3.65 14.129 6.003 14.129 6.003l-2.256-5.079s2.123.766 3.736-.037c-2.289-.19-5.076-2.038-5.076-2.038s4.852-1.853 7.932-4.6c-2.533.976-16.655 2.268-23.812-.836 6.091-.009 10.502-4.586 10.502-4.586s-7.913 2.63-16.002 1.587c-8.09-1.043-6.985-1.875-13.504-7.718 3.144 2.671 7.736 3.011 7.736 3.011s-2.876-1.216-4.85-4.582c3.085 2.791 10.35 3.89 10.35 3.89l-3.554-2.17s6.257 1.86 9.894.393a14.024 14.024 0 0 1-9.035-5.328c5.254 1.076 12.53 2.091 21.946-2.39-1.736.145-5.794-1.194-8.502-2.837 5.912-.421 9.029-3.398 9.029-3.398a27.71 27.71 0 0 1-3.739.525c1.246-.642 1.574-1.754.95-2.206a3.846 3.846 0 0 0 1.818-1.506s-.995-.395-3.986.454-13.336-2.412-13.336-2.412 5.222.271 8.444-1.711c-12.894.204-23.361-4.537-23.75-4.977-.389-.441-.371-1.641-.85-2.822s-1.535-1.76-1.161-2.287c.374-.527.774-1.544 1.124-1.602.351-.059.659.048 1.284 1.251.625 1.203 1.446 1.467 2.135 1.456.689-.011.417.381 1.284.781.866.4 1.851.258 2.278-1.12 1.583 2.023 3.022 1.236 4.087 1.384 1.064.147 3.69.128 6.334-.211 2.643-.339 3.689-.836 6.29.105-1.359-3.171-6.806-4.854-9.755-4.321 1.011-.781 2.494-1.111 3.824-.968 1.331.143 2.104.292 3.081-.408.977-.701 2.256-.35 3.181-.993.926-.643 2.305-.794 4.989-.72-1.238-.947-4.445-1.175-4.445-1.175s.572-.414.478-1.434c.271-.242 2.916-1.676 5.805-1.487-4.026-2.041-8.213-.608-13.307-.826-5.094-.217-7.085-3.684-7.085-3.684s4.601 1.042 6.175-.426c-4.769.366-13.2-4.987-14.05-6.879-.85-1.892-1.82-1.714-2.499-3.609-.678-1.895-.553-2.181.545-3.1.449-.392.804-.88 1.038-1.429 0 0 2.38 2.134 3.08 2.204.7.069 1.625-.288 2.199.335.573.622 1.254.633 1.812.739.558.106.636 1.175 1.109 1.528s2.286.934 2.77.528c.485-.405.517-3.703.517-3.703 3.18 2.724 4.776 2.04 4.825 1.661.049-.38-2.866-2.503-4.666-5.286 2.09 1.621 5.597 3.226 9.268 1.506-5.694.037-9.445-7.094-12.586-8.363-3.14-1.268-5.318-2.858-7.909-5.193 7.146.767 9.425-3.006 9.425-3.006s-4.857.181-7.745-1.25c.113-2.044-1.228-2.26-1.194-2.712.034-.453.754-1.298-.203-2.202 1.963.475 3.127.122 3.127.122s-2.29-1.406-3.768-1.67c-1.479-.264-2.578-.587-3.734-1.922 1.852.03 1.103-1.563 1.436-1.688.332-.124 1.206-1.891 1.042-2.967-.163-1.076-1.161-.704-1.263-1.6-.103-.897-.844-1.748-1.996-1.479-1.151.268-2.431-1.227-2.297-3.011.135-1.784 1.221-1.774 1.282-2.624.061-.85-1.191-1.71-1.144-3.078.043-1.193.142-2.029-.675-2.34a5.263 5.263 0 0 0-.704-.123c-.94-.004-1.104.836-1.441 2.017-.374 1.313-1.83 1.75-2.027 2.578-.197.828.833 1.152.413 2.892s-2.096 2.767-3.111 2.157c-1.014-.609-1.978-.03-2.353.796-.376.826-1.209.16-1.694 1.14-.485.98-.2 2.928.078 3.148.279.22-.926 1.507.849 2.049-1.513.916-2.657.884-4.146.68-1.489-.205-4.1.432-4.1.432s1 .693 3.014.844c-1.192.569-.768 1.592-.875 2.034-.107.442-1.45.234-1.963 2.215-3.189.475-7.755-1.191-7.755-1.191s1 4.289 8.041 5.756c-3.183 1.426-5.746 2.271-9.124 2.511-3.377.24-9.14 5.877-14.546 4.09 2.964 2.764 6.795 2.316 9.282 1.414-2.568 2.095-5.999 3.219-6.065 3.596-.066.376 1.243 1.512 5.104-.088 0 0-.984 3.149-.647 3.683.337.533 2.247.538 2.798.347.551-.19.956-1.183 1.518-1.111.562.071 1.218.271 1.952-.146.734-.416 1.516.209 2.195.356.678.147 3.608-1.15 3.608-1.15.053.591.238 1.161.541 1.671.77 1.214.796 1.518-.434 3.117-1.229 1.6-2.095 1.127-3.487 2.666-1.392 1.54-11.059 4.041-15.483 2.228 1.047 1.882 5.747 2.304 5.747 2.304s-2.959 2.687-7.872 1.328c-4.914-1.359-8.46-4.011-12.917-3.305 2.807.71 4.883 2.886 5.064 3.198-.402.943.016 1.513.016 1.513s-3.123-.764-4.594-.246c2.585.755 3.843 1.323 4.53 2.219.687.897 2.01.958 2.724 1.924.714.966 1.496 1.062 2.806 1.336 1.31.273 2.618 1.05 3.339 2.097-2.64-1.415-8.34-1.487-10.61 1.113 2.758-.106 3.617.698 6.019 1.833s4.894 1.961 5.961 2.148c1.067.188 2.195 1.371 4.322-.061-.015 1.444.878 1.881 1.825 1.767.947-.113.81-.57 1.462-.347.652.223 1.514.222 2.478-.731.964-.953 1.289-.955 1.606-.796.317.158.385 1.249.578 1.873.193.625-.99.84-1.807 1.817s-1.172 2.126-1.677 2.425c-.506.299-11.923 1.595-24.129-2.563 2.447 2.875 7.508 4.223 7.508 4.223s-10.845-.078-13.431-1.804c-2.585-1.727-3.645-1.655-3.645-1.655a3.857 3.857 0 0 0 1.265 1.995c-.73.238-.763 1.398.228 2.391a27.799 27.799 0 0 1-3.396-1.654s2.05 3.792 7.546 6.008c-3.08.731-7.355.758-8.963.087 7.582 7.157 14.819 8.428 20.149 9.02a14.019 14.019 0 0 1-10.244 2.298c3.009 2.514 9.538 2.66 9.538 2.66l-4.069.949s7.251 1.188 11.044-.519c-2.914 2.596-6.014 2.87-6.014 2.87s4.467 1.086 8.278-.487c-7.999 3.557-7.206 4.689-15.222 3.194-8.016-1.495-14.739-6.43-14.739-6.43s2.791 5.711 8.584 7.593c-7.765.749-20.8-4.82-22.914-6.528 2.09 3.561 6.133 6.815 6.133 6.815s-3.231.905-5.46.376c1.287 1.262 3.543 1.183 3.543 1.183l-3.703 4.141s9.755.678 15.291-1.37c-4.056 4.421-11.976 6.56-18.647 7.467 4.18 2.461 11.031 2.499 11.031 2.499l-6.158 2.154s5.644.777 13.007-1.382c7.363-2.158 11.451-4.547 15.711-4.748-.478 1.253-7.491 7.79-13.126 7.705a2.106 2.106 0 0 0 .613 1.79s-2.638 1.025-4.02 1.042c3.155 1.18 6.781.221 8.912-.124 2.131-.344 6.599-1.272 6.599-1.272s-3.005 2.701-5.709 4.103a247.068 247.068 0 0 1-5.764 2.87 5.203 5.203 0 0 1 2.594.456c1.292.621 4.157 1.248 4.157 1.248s-9.294 1.971-13.52.624c-4.227-1.348-6.705-1.109-6.705-1.109s.942 1.628 2.33 1.829c1.387.2 2.266.721 2.655 1.328.389.608.236 1.121 1.077 1.982.84.86 4.445 2.7 9.027 2.728-3.448.237-6.259-.452-8.735.019 1.605.563 2.011 1.562 4.78 1.639 2.769.077 9.843.628 18.201-2.277-1.969 2.043-4.78 3.16-8.769 3.609-3.989.449-6.678 1.698-6.678 1.698 1.704.034 3.401.246 5.062.631 2.877.649 9.761.248 16.594-1.485-.883.937-4.075 2.418-4.075 2.418s4.04-.412 9.855-2.094c-2.343 2.205-5.786 4.621-5.786 4.621s5.192-2.223 8.126-2.887a58.585 58.585 0 0 1 5.371-.954l-1.438 9.002s-19.3-2.312-22.173-2.602c-2.873-.29-3.667.003-3.77.59-.089.508 23.794 4.318 30.063 5.307l5.892.962.006-.032c6.751 1.058 29.826 4.64 29.897 4.136.082-.588-.574-1.109-3.405-1.719-2.831-.609-21.907-4.343-21.907-4.343l1.4-9.008s2.228 1.025 4.816 2.559c2.588 1.534 6.823 5.237 6.823 5.237s-2.535-3.357-4.084-6.176c5.023 3.387 8.74 5.025 8.74 5.025s-2.583-2.391-3.134-3.555c5.965 3.749 12.392 6.249 15.328 6.515 1.7.143 3.38.463 5.014.955 0 0-2.178-2.019-5.835-3.673-3.657-1.655-5.991-3.581-7.235-6.129 7.06 5.332 13.963 6.982 16.621 7.76 2.657.778 3.353-.047 5.052-.097-2.212-1.21-5.097-1.419-8.307-2.704 4.375 1.383 8.367.738 9.432.178 1.064-.559 1.074-1.095 1.631-1.552.556-.458 1.555-.686 2.936-.449 1.381.236 2.78-1.026 2.78-1.026s-2.284-.992-6.712-1.004c-4.427-.012-12.673-4.749-12.673-4.749s2.919.279 4.339.091a5.209 5.209 0 0 1 2.609.364s-2.463-2.339-4.605-4.505c-2.142-2.167-4.17-5.656-4.17-5.656s3.971 2.273 5.893 3.253c1.922.979 5.076 3.01 8.441 2.861-1.31-.441-3.505-2.226-3.505-2.226a2.091 2.091 0 0 0 1.132-1.516c-5.387-1.652-10.045-10.026-10.121-11.366 3.993 1.501 7.145 5.03 13.491 9.346 6.345 4.317 11.941 5.32 11.941 5.32Z" fill="#03060C"/></g><g clip-path="url(#d)"><path d="M341.021 562.189c-1.057-3.578-2.712 6.935-24.243-4.459 10.738.442 14.658-3.711 17.003-6.066-5.476 2.538-7.704.613-7.704.613s10.579-5.785 9.121-8.867c-1.458-3.083-.678 4.122-13.644 2.291-12.967-1.831-14.637-8.711-14.637-8.711s1.899-.918 1.802-2.521c5.695 1.558 12.106-1.009 14.169-2.978-5.719 1.349-9.087-.646-9.087-.646s2.954-2.8 3.851-5.593c-2.307 1.792-11.2.713-19.008-8.195 6.93-1.502 9.132-5.035 5.78-6.656 3.857-.134 7.564-3.768 7.026-4.647-3.483 1.667-8.458 1.934-9.927.644-1.47-1.291-5.039-4.439-5.039-4.439s2.598.529 3.965-.327c1.367-.856 1.303-1.752 2.325-1.612 1.023.139 1.586-.578.757-1.606-.828-1.029-1.342-1.534-2.975-1.913-1.633-.38-4.015-1.661-5.395-4.978-1.381-3.318-2.6-3.066-2.6-3.066s-2.593-16.89-6.357-16.639c-3.764.251.175 9.435-2.444 13.712-2.62 4.276-2.922 5.265-6.064 5.921-3.141.656-1.53 3.88 1.521 3.967-1.41 1.132-5.629 1.112-5.629 1.112a9.068 9.068 0 0 0 3.34 1.296c1.705.227 4.43-.355 4.43-.355s-.069 2.891 2.185 3.342c-.017 1.411-5.394 4.797-5.394 4.797s3.383-3.405 1.833-4.359c-1.55-.954-2.308.388-4.082 1.028s-2.225.58-5.834.501c-3.608-.079-5.36-.563-8.772-2.03-3.412-1.466-7.009-4.687-7.009-4.687l2.896-.444-2.394-1.773s5.148-.565 8.154-1.494c3.005-.929 4.748-2.548 4-3.956-.748-1.407-1.952-1.166-3.678-1.258-1.725-.092-2.456-1.144-4.318-1.52-1.863-.376-2.863.593-4.395-.601-1.532-1.194-8.34-3.316-10.639-6.312 3.725.282 7.085-2.299 6.66-3.647-.426-1.349-1.494-.065-2.96.041-1.465.106-2.223-1.619-2.223-1.619s2.752.421 5.095-.739c2.342-1.16 2.484-3.802 2.196-4.237-.287-.434-1.111-.152-2.773.295-1.662.446-3.903.001-4.453-1.552-.549-1.554-2.588-3.348-4.317-3.626a2.251 2.251 0 0 0 1.376-2.177 3.109 3.109 0 0 0 3.305.667c1.922-.778.934-3.27-.4-4.081-1.335-.811-2.662-1.6-3.998-4.446-1.337-2.846-2.866-3.838-3.21-5.886-.344-2.048-3.492-9.921-5.296-9.454-1.803.466-.634 3.686-.551 4.525.082.838-.888 2.873-.553 5.541.334 2.667-2.746 9.8-3.374 11.824-.628 2.024-6.35 2.261-6.031 6.185.319 3.923 4.677-.669 4.946.932.269 1.601-2.149 3.474-5.211 4.626-3.062 1.153-1.405 1.489-3.778 2.627-2.374 1.138-3.087 3.702-2.961 4.778-2.535.036-4.001-.721-4.001-.721.24.496.587.933 1.015 1.281-1.866.511-2.334.049-2.334.049s1.008 1.936 4.613 1.502c3.604-.434 4.965.7 7.743-.078-2.05 1.368-2.989 3.428-4.651 3.894-1.663.466-5.584 1.618-7.243 4.057-1.66 2.438-2.553 1.281-2.253 2.853.299 1.573 1.186.626 2.088.817.903.191 2.964.841 5.552.519 2.589-.322 3.439-1.258 3.439-1.258s.31 2.36 1.841 2.644c-.377 2.009-1.31 2.38-2.466 2.633-1.156.252-2.016 1.078-1.788 2.09.229 1.012 1.246 1.468 3.212 1.138 1.967-.331 5.483-1.66 5.483-1.66s-3.696 7.956-12.185 12.164l-1.382-.325s1.02-1.319.784-2.466c4.063-1.025 6.446-3.13 5.785-4.513-.662-1.383-3.395 1.426-9.143-2.746-5.747-4.171-6.819-5.976-7.56-7.089a3.322 3.322 0 0 0-2.018-1.323 39.736 39.736 0 0 0 4.275-1.527c1.815-.818 1.951-2.332 1.106-3.085-.845-.753-1.377-.578-2.129-.452-.752.126-1.898-.747-2.871-.685-.973.062-1.428-.484-1.549-1.32-.12-.836-.841-1.201-1.069-1.14-.228.062.484-1.766-.573-2.27-1.056-.503-1.125-.589-1.156-.914-.032-.326 1.1-1.466.641-2.412-.46-.946.174-1.01-.19-2.015-.364-1.005-.613-1.325-.756-2.597-.144-1.272-.919-1.659-1.062-2.764-.142-1.104-.576-5.596-1.682-5.555-1.105.042-1.259 1.66-1.059 3.249.201 1.589-.628 5.164-1.063 6.405-.436 1.24-.443 2.568-.198 3.146.245.578-.577 1.654-.348 2.393.23.74.757.811.896 1.64.139.829-1.205 2.378-2.755 2.934-1.55.556-2.47.076-3 .869-.53.794.127 2.15 1.538 2.532 1.41.382 2.334.908 3.347.57-2.581 2.971-5.535 4.487-7.172 4.038-1.637-.449-1.114.339-2.295.28-1.181-.059-3.308-.223-3.308-.223s3.27 2.669 5.702 2.903c-1.439 1.242-5.431 2.04-5.431 2.04s3.025.302 3.946.832c.92.531 7.57-1.271 7.57-1.271a8.81 8.81 0 0 1-2.445 2.827c-1.789 1.41-3.409 2.62-4.723 3.467s-3.421 1.711-5.36 2.717c-1.939 1.007-2.727-.11-3.467-.099-.74.012-.935.546-1.703.201-.769-.346-3.302.212-4.703-.32 1.411 2.802 7.051 5.821 11.111 5.894 4.06.073 6.264-1.079 6.264-1.079s2.038 1.448 3.99 1.007c-4.26 5.292-6.664 7.272-11.196 8.546 1.07-2.783 1.623-3.813 1.356-4.15-.267-.336-6.941 4.532-10.009 5.09-3.068.558-6.715 1.038-10.701.15-3.986-.887-10.437-1.018-12.344-3.216 7.702 1.307 11.46-1.282 14.455-1.785 2.996-.503 6.232-3.381 6.232-3.381-2.159.044-4.31.275-6.43.691-2.54-3.154-7.205-3.18-12.246-4.68 10.061 2.361 14.19-1.317 14.19-1.317s-4.672-1.605-6.019-4.278c4.679-.657 9.907-7.461 9.907-7.461s-16.628.305-26.579-5.982c7.128-.855 15.404-5.058 14.638-9.622-.766-4.565-.445-.606-7.765-.401-7.319.206-10.235-.838-10.235-.838s6.544-1.27 3.642-4.791c8.29.554 12.701-1.28 16.444-6.003-8.902 2.519-14.325.701-14.325.701s5.396-.992 7.124-4.438c-3.757.036-6.14.093-11.368.547-5.229.454-5.796-.902-5.796-.902s5.161-2.715 4.521-4.826c-.639-2.111-3.811.406-10.095-4.333 5.056 1.937 7.184-.012 7.184-.012a61.14 61.14 0 0 1-5.264-4.175c-1.834-1.739-3.7-3.017-4.672-5.41-.971-2.394-.005-3.751-1.327-4.837-1.322-1.085-.676-4.377-2.229-4.116-1.553.261-.313 1.527-.912 4.076-.599 2.548-1.236 3.846-.765 6.323.47 2.478-4.549 10.94-5.663 17.21a12.91 12.91 0 0 0 4.931-4.922s-1.149 5.197-1.688 7.078c-.539 1.881-1.923 2.825-2.502 4.627-.58 1.802-1.386 1.766-2.8 2.688-1.415.923-1.546 1.653-1.482 2.381.064.729.711 1.698 2.785 1.478-2.915 2.167-7.584 5.255-9.119 6.478-1.536 1.223-.142 2.386 1.453 2.542 1.595.156 4.06.4 6.745-.743a17.194 17.194 0 0 0 4.042-2.271 9.746 9.746 0 0 0-1.037 2.844c-.278 1.553-13.124 10.648-18.674 12.234 4.94 1.214 19.37-3.852 22.817-7.271-3.812 10.077-8.93 11.702-12.822 13.975-3.893 2.272-6.862 1.93-7.587 3.219-.724 1.29-.037 6.914 12.875 4.843-1.397 3.305-5.559 3.066-6.363 4.906-.803 1.839.474 4.356 4.211 4.153 3.737-.203 2.369 1.906 2.369 1.906-.877 2.004-1.719 4.336-2.626 4.912-.906.577-3.478-.723-4.927-.865-1.448-.142-4.508.025-6.489-2.102 3.316-.479 5.947-2.73 5.18-4.025-.768-1.296-4.353-.651-6.682-2.108-2.329-1.458-4.494-2.168-6.019-4.372 2.759.343 5.372-2.458 4.28-3.68-1.09-1.221-3.633.186-7.522-2.542 4.258.09 6.37-2.957 5.698-3.958-.672-1-6.163.494-9.821-4.044 2.173.39 5.271-.616 5.177-1.344-.095-.727-2.868-.686-5.301-3.671-2.433-2.984-1.793-5.147-3.466-6.391-.5-.842-2.438-11.615-2.909-11.513-.47.102-.635 5.516-.245 7.12s1.012 2.982.535 4.42a6.652 6.652 0 0 0-.08 3.656c.206 1.067-.86 1.86-.911 2.69-.052.83-2.431 1.794-2.278 2.356.152.562 1.855.638 2.403.853.547.216-2.977 3.193-5.404 3.803-2.427.61-1.587 1.266-2.37 1.347-.782.081-1.05-.283-1.142-.065-.093.218.11 1.725 1.597 1.401 1.488-.323 1.736.834 2.957.757a12.92 12.92 0 0 0 2.445-.434s-.713 1.708-1.597 2.113-2.494.469-2.618 1.261c-.125.791 1.236 1.691 2.743 1.485a8.046 8.046 0 0 0 2.681-.886s-2.207 2.779-4.155 3.285c-1.949.506-4.889.899-5.308 1.611-.419.713.13 1.535 2.593 1.818 2.464.283 2.68 1.107 2.68 1.107s-2.415.635-2.51 1.137c-.096.503.648 1.534 2.827 1.218 2.18-.315 3.047-1.153 3.047-1.153s-2.373 2.141-3.744 3.578c-1.371 1.437-4.689 1.787-5.467 2.661-.778.874-2.57.969-3.377 1.182-.807.214-1.876 1.545.039 2.558 1.915 1.013 5.967.457 5.967.457s-1.783 2.864 1.07 3.323c-.153 1.999-5.237 5.265-5.915 5.504-.679.238-2.21.32-2.928.954-.717.634-.778 2.337 1.712 2.686 2.49.348 4.473 2.276 7.77 1.388-1.296 1.576-6.275 4.747-6.275 4.747s-5.89-2.296-8.999-5.494c-3.11-3.198-6.108-6.154-7.808-7.305 5.95.558 10.197-.225 12.88-1.084 2.681-.859 4.29-1.717 4.208-2.205-.082-.488-6.034-.411-6.952-.67 1.975-1.561 1.37-3.024 1.37-3.024s-4.012 1.841-9.042-1.454c-5.031-3.296-11.27-8.53-13.948-13.695a41.224 41.224 0 0 0 16.25 7.883c2.97.669 9.05.543 12.476-1.978a38.355 38.355 0 0 1-12.135-4.037s6.047-3.739 4.14-8.194c-4.505.718-10.124-.109-13.727-2.271-3.603-2.162-4.03-1.939-4.03-1.939s4.97-4.411 2.791-7.738c-.457-.655-3.683.658-6.453-.519-2.77-1.178-3.23-1.015-4.528-2.163 2.308.126 6.03-1.604 5.147-3.658-.884-2.054-4.055-1.783-5.935-3.798.423-.993.34-1.649-.128-2.134 1.135-.751 1.391-2.899.985-4.088-.407-1.189-2.423-3.874-4.285-5.456-1.862-1.583-4.114-11.949-4.831-11.778-.717.171.422 2.517-.11 3.992-.534 1.474-.458 3.411-.306 5.153.151 1.741-.06 3.781-.852 5.038-.792 1.258-1.733 2.396-1.747 3.243-.014.847-2.34 1.522-2.208 2.472a4.102 4.102 0 0 0 1.518 2.438c.607.412 1.837.229 1.837.229a10.54 10.54 0 0 1-3.456 3.915c-2.344 1.522-3.214 2.925-3.183 3.714.031.789.95 1.685 2.478 1.736 1.527.051 1.789.867 2.93.765 1.143-.103.95-1.327 1.784-1.467.835-.14 1.44-.164 1.509.104.069.269-2.262 1.688-2.391 2.916-.13 1.228-2.107 1.84-3.316 2.452-1.21.611-3.085.623-3.324 1.336-.24.714-2.774 2.774-2.708 3.634.067.861 2.89.359 3.668.921.777.563 5.081 1.019 5.788.924.706-.095.736.11.757.235.021.124-2.193-.045-3.062 1.358-.87 1.403-.545 2.427-2.715 2.429-2.17.002-2.254 2.2-5.36 3.157-3.107.958-16.153 1.907-20.56-2.276 2.274 3.194 5.035 4.922 5.836 6.25.8 1.329 3.102.554 4.891 1.561 1.79 1.007 5.068 3.305 6.28 2.716-.736 1.124-6.651 3.347-10.028 2.299 1.813 1.847 5.829 1.866 7.006 2.439 1.178.572 5.18.628 7.008-.294 1.828-.922 5.558-1.587 5.558-1.587a1.388 1.388 0 0 0 1.55.211c-.257 1.004-3.315 3.016-4.915 5.207s-12.324 9.992-16.068 10.197c1.343 1.584 5.668 2.741 8.787 2.486 3.118-.255 8.14-1.596 8.14-1.596s.503 2.301-3.319 3.903c3.431 1.347 10.327-.543 10.327-.543s-2.226.989-4.626 4.855c-2.4 3.867-9.318 5.6-10.655 7.518-1.337 1.917-5.977 4.618-7.762 4.918-1.784.3-6.763 1.98-8.01 1.462-1.246-.519-2.924 1.183.505 3.912 3.428 2.728 4.852 2.956 7.665 2.483 2.814-.472 9.28-1.947 9.28-1.947s-8.082 6.778-8.212 7.605c-.13.828 1.115 2.736 4.75 1.857 3.634-.879 11.103-4.172 13.268-7.112.102 2.213 1.597 2.538 2.605 2.407 1.009-.13 3.812-1.64 6.407-5.037-1.13 2.914-6.404 12.1-12.105 16.431-5.702 4.331-12.48 6.248-12.738 7.828-.258 1.581.381 3.785 5.132 3.295 4.75-.491 8.148-.804 8.148-.804S4.22 604.096-.347 607.836c-4.568 3.74-10.277 5.263-12.151 5.119-1.875-.145-2.2 2.214.205 3.079 2.405.864 3.998.819 4.78 1.197.781.379 3.943-.713 6.174-.422 2.23.291 8.951-3.04 8.951-3.04a1.873 1.873 0 0 0 .669 2.145c-3.776 3.249-3.724 6.626-5.489 7.739-1.764 1.114-9.565 5.012-10.945 7.925l338.088-56.768s12.162-9.05 11.086-12.621Zm-287.616 6.327a7.167 7.167 0 0 1-2.541-3.189l5.554 1.838s-1.658.656-3.013 1.351Zm6.16-7.879 4.253-.407-1.536 2.336-2.717-1.929Zm12.557 19.197a14.35 14.35 0 0 1-6.368-3.468c4.39.877 10.408-.97 10.408-.97l-4.04 4.438Zm92.938-42.907-1.302-2.241 1.837-2.846 3.429 2.498-3.964 2.589Zm55.864-6.38-3.151-2.238 4.502-.756-1.351 2.994Zm2.748-7.999-4.318-1.353 6.605-1.109-2.287 2.462Zm-.032-7.533-5.529-1.223s7.928-1.487 10.13-3.087c-1.026 1.702-4.603 4.299-4.603 4.299l.002.011Zm54.153-.041c-.938.547-6.392 2.354-7.235 5.009-.842 2.655 6.449 3.789 6.449 3.789-.854 1.887-.972 4.931-.972 4.931l-8.159-4.425 1.549-.26-7.76-5.157 4.129.692-6.047-5.141s6.137-1.135 8.173-.142c2.037.993-.331-3.836-1.81-4.67 3.91.317 8.603-1.444 8.603-1.444s-2.458 2.821-4.023 4.52c-1.565 1.699-.666 2.778 3.786 1.415 4.451-1.362 5.202-1.795 5.202-1.795s-.951 2.101-1.886 2.667l.001.011Z" fill="#03060C"/></g></g><defs><clipPath id="a"><path fill="#fff" d="M0 0h767v1168.03H0z"/></clipPath><clipPath id="c"><path fill="#fff" transform="rotate(9.964 -2240.455 3691.827)" d="M0 0h135.992v157.96H0z"/></clipPath><clipPath id="d"><path fill="#fff" transform="rotate(-9.531 2765.284 467.103)" d="M0 0h358.758v170.101H0z"/></clipPath><linearGradient id="b" x1="601.538" y1="1168.03" x2="102.576" y2="0" gradientUnits="userSpaceOnUse"><stop stop-color="#070D1C"/><stop offset="1" stop-color="#090F1E"/></linearGradient></defs></svg>