<svg width="20" height="18" fill="none" xmlns="http://www.w3.org/2000/svg"><g clip-path="url(#a)"><mask id="b" style="mask-type:luminance" maskUnits="userSpaceOnUse" x="0" y="0" width="20" height="18"><path d="M0 0h20v18H0V0Z" fill="#fff"/></mask><g mask="url(#b)"><path fill-rule="evenodd" clip-rule="evenodd" d="M7.812 17.73c5.02 1.203 10.102-1.731 11.353-6.553C20.417 6.356 17.363 1.47 12.344.27 7.326-.933 2.242 2.002.992 6.824c-1.252 4.82 1.803 9.705 6.82 10.907v-.001Zm4.337-12.283c1.298.43 2.247 1.073 2.06 2.27-.135.877-.64 1.302-1.312 1.45.922.462 1.392 1.17.944 2.395-.554 1.523-1.872 1.652-3.625 1.333l-.425 1.638-1.028-.246.42-1.616a41.25 41.25 0 0 1-.82-.204l-.42 1.623-1.027-.246.425-1.64-.29-.073-.443-.11-1.337-.32.51-1.13s.757.194.747.18c.29.068.42-.114.47-.235l.673-2.59.074.018.035.009a.877.877 0 0 0-.107-.033l.48-1.848c.012-.21-.063-.475-.48-.575.017-.01-.746-.178-.746-.178L7.2 4.264l1.418.34-.001.005c.213.05.432.1.656.149l.42-1.622 1.029.246-.413 1.59c.276.06.553.12.823.186l.41-1.58 1.028.247-.421 1.622Zm-3.25 5.88c.838.214 2.67.679 2.962-.446.299-1.15-1.48-1.533-2.346-1.72l-.253-.056-.564 2.173.2.05v-.001Zm3.28-3.627c-.266 1.023-1.792.632-2.49.453l-.17-.043.512-1.971c.059.014.13.029.212.046.724.154 2.208.47 1.936 1.515Z" fill="#14203B"/></g></g><defs><clipPath id="a"><path fill="#fff" d="M0 0h20v18H0z"/></clipPath></defs></svg>