<svg width="290" height="189" fill="none" xmlns="http://www.w3.org/2000/svg"><g clip-path="url(#a)"><g filter="url(#b)"><path d="M122.298 57.925a69.558 69.558 0 0 1 20.15 26.84 69.415 69.415 0 0 1 5.217 33.129c-3.308 38.19-36.711 66.539-74.547 63.258-37.837-3.28-65.953-36.843-62.615-75.023 3.339-38.18 36.65-66.479 74.527-63.26a68.245 68.245 0 0 1 37.268 15.056Z" fill="#D0C8DF"/></g><path d="M124.816 45.112c.733 1.85-1.222 11.244-1.558 12.808-10.18-2.35-19.098-6.03-23.414-12.502l.153-.5s7.238-7.923 9.162-7.76c1.924.164 14.842 5.93 15.657 7.954Z" fill="#31293A"/><path d="M115.148 39.375s.255-.725.805-2.042c.549-1.316 1.435-3.144 2.718-5.43a62.908 62.908 0 0 1 5.263-7.85 51.387 51.387 0 0 1 8.735-8.768 36.83 36.83 0 0 1 13.388-6.125 35.205 35.205 0 0 1 16.289-.418 57.266 57.266 0 0 1 8.338 2.092 28.678 28.678 0 0 1 7.951 4.042l1.782 1.389c.57.49 1.119 1.02 1.679 1.5 1.151.95 2.22 1.97 3.36 2.93a423.62 423.62 0 0 0 6.566 5.88 47.507 47.507 0 0 0 6.781 4.98 25.278 25.278 0 0 0 3.746 1.634c.637.243 1.286.45 1.945.623l2.036.418.499.102.254.062h.194l1.069.112h1.924a14.074 14.074 0 0 0 3.695-.756 18.645 18.645 0 0 0 3.411-1.551 32.659 32.659 0 0 0 3.217-2.042 50.186 50.186 0 0 0 6.017-5.022c1.853-1.848 3.451-3.889 5.09-5.829 3.217-3.868 6.434-7.706 10.69-9.932.539-.245 1.069-.52 1.618-.714a12.232 12.232 0 0 1 1.68-.5l.845-.184h.835l1.507-.163a10.493 10.493 0 0 1 1.517-.113l1.517-.05c1.018 0 1.944.081 2.881.112a28.176 28.176 0 0 1 9.295 2.296 23.504 23.504 0 0 1 5.314 3.165c.56.449.957.837 1.232 1.102l.295.306.112.123a.755.755 0 0 1-.498 1.25.752.752 0 0 1-.52-.148l-.061-.05-.367-.307a21.61 21.61 0 0 0-1.211-.868 24.937 24.937 0 0 0-5.09-2.562 30.126 30.126 0 0 0-8.664-1.766 39.603 39.603 0 0 0-5.447.123l-1.517.163h-.702l-.692.123c-.953.212-1.881.523-2.77.929-3.685 1.735-7.034 5.155-10.18 9.003-1.578 1.95-3.207 3.96-4.816 6.124a45.544 45.544 0 0 1-5.436 6.41 18.147 18.147 0 0 1-7.982 4.35c-1.541.361-3.12.536-4.703.52l-1.232-.061h-.601l-.539-.082-1.069-.133h-.346l-.285-.071-.55-.123-2.23-.52a21.35 21.35 0 0 1-2.189-.745 28.072 28.072 0 0 1-4.204-1.96 36.043 36.043 0 0 1-7.076-5.747c-2.036-2.144-4.011-4.318-6.108-6.278a26.846 26.846 0 0 0-7.066-4.675c-1.201-.684-2.494-1.184-3.705-1.837-1.212-.654-2.505-1.083-3.737-1.664a49.77 49.77 0 0 0-7.778-2.368 28.431 28.431 0 0 0-15.026-.072 24.036 24.036 0 0 0-6.414 2.868c-.489.276-.957.592-1.425.909-.469.316-.927.602-1.354.939l-1.324.94c-.427.336-.855.642-1.283.959a56.819 56.819 0 0 0-8.48 7.9 77.82 77.82 0 0 0-5.63 7.146 68.375 68.375 0 0 0-3.227 4.91c-.693 1.163-1.018 1.776-1.018 1.776a.765.765 0 0 1-1.355-.078.771.771 0 0 1-.03-.545l-.153-.061Z" fill="#A59789"/><path d="M85.513 52.046c-.928-4.026-10.074-5.006-19.19-2.835-8.228 1.95-15.508 7.482-15.65 11.17-.092 2.614 9.553-1.759 18.679-3.108 7.372-1.075 17.558.759 16.161-5.227Z" fill="#fff" style="mix-blend-mode:soft-light"/><path d="M57.214 96.45a2.895 2.895 0 0 0-.46-1.86c-.364-.569-.917-1.031-1.588-1.33a4.38 4.38 0 0 0-2.182-.35 4.17 4.17 0 0 0-2.04.749c-.58.416-1.002.971-1.213 1.593a2.832 2.832 0 0 0 .024 1.903c.227.618.663 1.165 1.253 1.571.59.406 1.306.653 2.06.71 1.01.074 2.015-.199 2.792-.759.777-.559 1.264-1.36 1.354-2.226Zm46.992 12.616a3.824 3.824 0 1 0-7.62-.657 3.824 3.824 0 0 0 7.62.657Zm-42.74-9.306c.042.197.074.395.093.595.048.508.048 1.02 0 1.528a9.39 9.39 0 0 1-.426 2.133 8.324 8.324 0 0 1-.469 1.149 7.94 7.94 0 0 1-.614 1.128 9.775 9.775 0 0 1-.77 1.026 8.029 8.029 0 0 1-.865.902 9.484 9.484 0 0 1-.906.739 6.612 6.612 0 0 1-.874.554c-.25.153-.51.286-.781.4l-.625.246-.552.184a.544.544 0 0 1-.697-.328.515.515 0 0 1 .166-.595l.417-.338.479-.359c.197-.123.364-.328.583-.492.229-.191.448-.393.656-.605.218-.226.468-.452.687-.708.218-.257.458-.513.656-.8a9.08 9.08 0 0 0 .614-.882 14.68 14.68 0 0 0 1.624-3.631c.167-.523.271-1.025.344-1.302a4.89 4.89 0 0 0 .114-.493.557.557 0 0 1 1.041 0l.105-.05Z" fill="#000"/><path d="m60.4 105.055.25.248.702.643c.33.269.702.621 1.163.974a53.89 53.89 0 0 0 1.573 1.16c.572.404 1.223.86 1.945 1.243.721.384 1.443.86 2.245 1.233.802.373 1.634.788 2.495 1.13l2.647.953 2.756.705a9.58 9.58 0 0 0 1.353.248l1.293.197a21.41 21.41 0 0 0 2.516.207c.754.053 1.51.053 2.265 0 .712 0 1.333-.134 1.914-.186.582-.052 1.003-.187 1.454-.259l.912-.228.3-.093h.06a.491.491 0 0 1 .4.037.516.516 0 0 1 .252.325.555.555 0 0 1-.016.379.53.53 0 0 1-.255.274l-.35.166c-.22.083-.541.248-1.003.393-.46.145-.932.332-1.533.456a13.85 13.85 0 0 1-2.005.384c-.803.121-1.613.187-2.425.197h-2.015l-.712-.073-1.443-.166a9.295 9.295 0 0 1-1.453-.238l-2.867-.705-2.816-1.036c-.912-.373-1.764-.87-2.616-1.274-.852-.404-1.584-.974-2.316-1.43-.731-.456-1.353-1.036-2.004-1.471-.652-.435-1.093-.964-1.554-1.378-.46-.415-.802-.839-1.102-1.161-.301-.321-.521-.621-.672-.808l-.22-.29a.573.573 0 0 1 .446-.899c.127 0 .25.047.346.132l.09.011Z" fill="#000"/><path d="m91.957 109.049-.228.422a17.39 17.39 0 0 0-.585 1.126 13.537 13.537 0 0 0-1.084 3.528 5.982 5.982 0 0 0-.13 1.005v1.859c0 .292.065.563.097.814.033.252 0 .493.098.704l.12.543.086.482v.06a.515.515 0 0 1-.105.397.596.596 0 0 1-.708.17.564.564 0 0 1-.25-.215l-.292-.462-.314-.553a4.995 4.995 0 0 1-.315-.744 4.5 4.5 0 0 1-.292-.924 8.135 8.135 0 0 1-.206-1.066 8.28 8.28 0 0 1 0-1.166c.009-.4.045-.8.108-1.196.066-.397.16-.79.282-1.176a9.329 9.329 0 0 1 1.496-2.854 7.557 7.557 0 0 1 1.019-1.076c.142-.131.294-.252.455-.362a.576.576 0 0 1 .392-.174.603.603 0 0 1 .41.134.526.526 0 0 1 .188.364.49.49 0 0 1-.032.203.529.529 0 0 1-.113.177l-.097-.02Z" fill="#000"/><path d="M46.719 61.437c-1.452-1.03-6.733 1.482-5.766 3.508.968 2.026 8.74-1.34 5.766-3.508Z" fill="#fff" style="mix-blend-mode:soft-light"/><path d="M129.896 89.626c-2.929-.9 2.776 43.368-42.395 59.699-30.311 10.958-54.316-3.612-55.377.698-1.061 4.311 25.913 33.816 64.675 22.099 48.028-14.53 46.732-78.287 33.097-82.496Z" fill="#22182A" style="mix-blend-mode:multiply" opacity=".2"/><path d="M264.013 9.857c.27.027.538.076.8.149a8.652 8.652 0 0 1 1.895.765c.398.207.781.441 1.147.7.39.277.79.596 1.2.915a13.829 13.829 0 0 0 2.801 1.678c.494.245 1.052.468 1.494.723.473.252.93.532 1.369.839.842.616 1.621 1.2 2.263 1.753.729.606 1.409 1.27 2.032 1.986a.197.197 0 0 1 .059.144.206.206 0 0 1-.059.143.231.231 0 0 1-.179 0 17.566 17.566 0 0 1-2.663-.988c-.769-.34-1.632-.786-2.548-1.285a12.574 12.574 0 0 1-1.347-.871c-.432-.33-.864-.701-1.295-1.063a13.989 13.989 0 0 0-2.716-1.795c-.463-.245-.926-.457-1.337-.69a11.212 11.212 0 0 1-1.137-.734 9.098 9.098 0 0 1-1.495-1.392 4.218 4.218 0 0 1-.494-.669.246.246 0 0 1 .094-.33.22.22 0 0 1 .116.022Z" fill="#EECA54"/><path d="M273.403 6.744c.069.265.116.534.143.805a8.53 8.53 0 0 1 0 2.02c-.059.44-.147.877-.264 1.307-.132.46-.297.942-.45 1.433a13.53 13.53 0 0 0-.616 3.139c-.055.554-.077 1.108-.153 1.642a11.85 11.85 0 0 1-.319 1.57c-.286.993-.571 1.924-.879 2.698-.32.89-.713 1.754-1.176 2.584a.187.187 0 0 1-.053.059.219.219 0 0 1-.307-.052.202.202 0 0 1-.035-.09 16.612 16.612 0 0 1 0-2.804c0-.837.165-1.8.319-2.814.085-.527.206-1.047.362-1.559.154-.523.352-1.046.538-1.57.374-1.015.629-2.068.759-3.137.054-.524.098-1.047.175-1.486.075-.441.177-.878.308-1.308.188-.65.453-1.279.791-1.872a4.17 4.17 0 0 1 .472-.68.249.249 0 0 1 .352 0c.019.036.03.075.033.115Z" fill="#EECA54"/><path d="M268.458 7.65c.201.133.388.288.559.462a6.99 6.99 0 0 1 1.138 1.397c.209.336.396.687.559 1.05.18.378.34.809.519 1.24.356.902.826 1.75 1.398 2.52.279.41.579.81.839 1.219.253.398.477.816.668 1.25.371.77.704 1.558.999 2.363.287.798.508 1.62.659 2.458a.21.21 0 0 1-.089.205.188.188 0 0 1-.071.026.21.21 0 0 1-.16 0 14.205 14.205 0 0 1-1.627-1.9 26.569 26.569 0 0 1-1.398-2.102 9.981 9.981 0 0 1-.639-1.27c-.199-.452-.359-.925-.529-1.398-.32-.92-.753-1.792-1.288-2.594-.249-.378-.509-.746-.718-1.114a8.832 8.832 0 0 1-.54-1.05 7.655 7.655 0 0 1-.519-1.754 4.052 4.052 0 0 1-.07-.746.253.253 0 0 1 .158-.226.226.226 0 0 1 .092-.016.195.195 0 0 1 .06-.02Z" fill="#E5803C"/><path d="M266.003 21.502c.054-.267.131-.527.232-.779.236-.636.544-1.24.917-1.8a10 10 0 0 1 .787-1.052c.292-.358.645-.716 1.008-1.053a13.557 13.557 0 0 0 1.875-2.589c.282-.473.555-.958.847-1.41.285-.443.598-.865.937-1.263.666-.78 1.301-1.484 1.896-2.053a16.21 16.21 0 0 1 2.077-1.81.183.183 0 0 1 .238 0 .21.21 0 0 1 .054.242c-.34.873-.744 1.718-1.21 2.526a36.979 36.979 0 0 1-1.482 2.39c-.312.434-.649.848-1.008 1.241-.353.4-.746.79-1.129 1.18a13.788 13.788 0 0 0-2.016 2.504c-.273.432-.525.863-.797 1.253a9.73 9.73 0 0 1-.806 1.052 9.104 9.104 0 0 1-1.472 1.347 4.253 4.253 0 0 1-.676.41.22.22 0 0 1-.178-.002.23.23 0 0 1-.124-.134.216.216 0 0 1 .03-.2Z" fill="#E5803C"/><path d="M278.991 14.09a3.19 3.19 0 0 1-.571.43 5.198 5.198 0 0 1-1.546.653 8.1 8.1 0 0 1-2.254.172 7.85 7.85 0 0 0-2.549.444 9.477 9.477 0 0 1-2.55.603h-2.264a9.996 9.996 0 0 1-2.244-.382.162.162 0 0 1-.069-.035.203.203 0 0 1-.051-.068.257.257 0 0 1-.024-.087.261.261 0 0 1 .006-.093.239.239 0 0 1 .033-.096.182.182 0 0 1 .065-.064 10.61 10.61 0 0 1 2.127-.985 18.212 18.212 0 0 1 2.205-.628 9.021 9.021 0 0 1 2.589-.11 7.731 7.731 0 0 0 2.569-.284 8.548 8.548 0 0 1 2.224-.443 4.92 4.92 0 0 1 1.625.21c.215.063.426.15.63.258a.3.3 0 0 1 .119.176.37.37 0 0 1-.011.23.3.3 0 0 1-.059.099Z" fill="#E5803C"/></g><defs><clipPath id="a"><path fill="#fff" transform="translate(.398)" d="M0 0h288.848v188.34H0z"/></clipPath><filter id="b" x="6.234" y="42.62" width="145.695" height="146.791" filterUnits="userSpaceOnUse" color-interpolation-filters="sRGB"><feFlood flood-opacity="0" result="BackgroundImageFix"/><feColorMatrix in="SourceAlpha" values="0 0 0 0 0 0 0 0 0 0 0 0 0 0 0 0 0 0 127 0" result="hardAlpha"/><feOffset dy="4"/><feGaussianBlur stdDeviation="2"/><feComposite in2="hardAlpha" operator="out"/><feColorMatrix values="0 0 0 0 0 0 0 0 0 0 0 0 0 0 0 0 0 0 0.3 0"/><feBlend in2="BackgroundImageFix" result="effect1_dropShadow_3004_1191"/><feBlend in="SourceGraphic" in2="effect1_dropShadow_3004_1191" result="shape"/></filter></defs></svg>