<svg width="44" height="45" fill="none" xmlns="http://www.w3.org/2000/svg"><g filter="url(#a)"><path d="M28.296 13.645a13.15 13.15 0 0 1 3.83 5.072c.84 1.976 1.18 4.125.99 6.261-.628 7.218-6.976 12.576-14.166 11.956-7.19-.62-12.533-6.964-11.899-14.18.635-7.215 6.965-12.563 14.163-11.955a13.01 13.01 0 0 1 7.082 2.846Z" fill="#E1E1E1"/><path d="M32.868 24.956c-.617 7.082-6.845 12.337-13.896 11.729-7.053-.609-12.294-6.83-11.672-13.909.623-7.079 6.833-12.325 13.893-11.728a12.76 12.76 0 0 1 6.946 2.79 12.901 12.901 0 0 1 3.756 4.977 12.801 12.801 0 0 1 .973 6.141Z" stroke="#fff" stroke-width=".5"/></g><path d="M28.59 11.247c.138.346-.232 2.105-.296 2.398-1.928-.44-3.617-1.13-4.435-2.34l.03-.094s1.37-1.483 1.735-1.453c.364.03 2.811 1.11 2.965 1.489Z" fill="#31293A"/><path d="M26.688 10.323s.02-.136.067-.382a17.641 17.641 0 0 1 .67-2.486c.215-.61.461-1.162.734-1.64.337-.547.72-.937 1.125-1.147.447-.264.916-.29 1.368-.078.238.091.472.222.7.392.24.173.465.428.668.756l.15.26c.048.092.094.191.141.28.097.178.187.37.282.549.184.372.369.745.552 1.1.177.348.368.66.57.932.1.121.206.223.314.306.054.046.108.084.163.117l.172.078.042.02.02.01h.017l.09.022h.161a.669.669 0 0 0 .311-.142c.1-.075.196-.172.286-.29.094-.116.184-.243.27-.382a7.96 7.96 0 0 0 .506-.94c.156-.346.29-.728.428-1.09.27-.725.54-1.443.898-1.86.045-.045.09-.097.136-.133a.701.701 0 0 1 .14-.094l.072-.034h.07l.126-.03a.41.41 0 0 1 .128-.022l.127-.01c.086 0 .164.016.242.022.27.043.534.188.781.43.16.152.31.351.446.592.047.084.08.156.104.206l.025.057.01.023c.01.027.015.06.015.095a.26.26 0 0 1-.017.094c-.01.026-.025.042-.04.045-.016.003-.032-.007-.044-.027l-.006-.01-.03-.057a2.984 2.984 0 0 0-.102-.163 2.268 2.268 0 0 0-.428-.48 1.444 1.444 0 0 0-.728-.33 1.505 1.505 0 0 0-.457.023l-.127.03h-.059l-.059.024a.88.88 0 0 0-.232.174c-.31.324-.591.964-.855 1.684-.133.365-.27.742-.405 1.147a10.3 10.3 0 0 1-.456 1.2c-.19.393-.42.673-.671.813a.805.805 0 0 1-.395.097l-.104-.011h-.05l-.045-.015-.09-.025h-.029l-.024-.014-.046-.023-.188-.097a2.365 2.365 0 0 1-.537-.506 5.6 5.6 0 0 1-.594-1.076c-.171-.4-.337-.808-.513-1.174a3.305 3.305 0 0 0-.594-.875c-.1-.128-.21-.222-.31-.344-.103-.122-.211-.203-.315-.311a2.907 2.907 0 0 0-.653-.444c-.413-.256-.849-.26-1.262-.013-.19.12-.372.3-.54.537a2.4 2.4 0 0 0-.119.17c-.04.059-.078.112-.114.176l-.11.175-.108.18c-.26.437-.499.933-.713 1.478-.169.425-.327.872-.473 1.337-.123.383-.213.702-.27.92-.059.217-.086.332-.086.332-.008.03-.021.053-.036.063-.015.011-.031.009-.046-.005a.145.145 0 0 1-.032-.073.308.308 0 0 1-.003-.102l-.012-.011Z" fill="#A59789"/><path d="M21.128 12.603c-.176-.731-1.905-.909-3.629-.515-1.556.354-2.933 1.359-2.96 2.029-.017.474 1.807-.32 3.533-.565 1.394-.195 3.32.138 3.056-.949Zm-7.245 1.65c-.277-.236-1.288.338-1.103.802.185.463 1.672-.307 1.103-.802Z" fill="#fff" style="mix-blend-mode:hard-light"/><path d="M29.58 19.624c-.554-.17.524 8.2-8.01 11.29-5.727 2.072-10.262-.684-10.463.131-.2.815 4.896 6.395 12.22 4.18 9.074-2.748 8.829-14.805 6.253-15.601Z" fill="#22182A" style="mix-blend-mode:multiply" opacity=".2"/><path d="M35.246 2.557a2.7 2.7 0 0 1 .455.084c.375.1.737.243 1.078.428.227.115.445.247.653.392.222.155.45.333.683.511.492.374 1.027.69 1.594.94.281.136.599.261.85.404a7.7 7.7 0 0 1 .78.47c.479.344.922.671 1.287.98.415.34.802.711 1.157 1.112a.113.113 0 0 1 .025.124.113.113 0 0 1-.025.037.132.132 0 0 1-.102 0 10.127 10.127 0 0 1-1.516-.553c-.437-.19-.928-.44-1.45-.72a7.202 7.202 0 0 1-.767-.487c-.245-.184-.49-.392-.736-.595a7.975 7.975 0 0 0-1.546-1.004c-.264-.137-.527-.256-.76-.387a6.375 6.375 0 0 1-.648-.41 5.125 5.125 0 0 1-.85-.779c-.107-.115-.2-.24-.282-.374a.136.136 0 0 1 .054-.185.127.127 0 0 1 .066.012Z" fill="#EECA54"/><path d="M40.562.737c.038.15.064.304.078.458a5 5 0 0 1-.144 1.891c-.072.261-.162.535-.245.814a7.98 7.98 0 0 0-.336 1.784c-.03.315-.042.63-.084.933a6.82 6.82 0 0 1-.174.892 17.67 17.67 0 0 1-.479 1.533c-.174.506-.388.997-.64 1.469a.114.114 0 0 1-.157.042.119.119 0 0 1-.06-.09 9.788 9.788 0 0 1 0-1.593c0-.476.09-1.022.174-1.6.047-.298.113-.594.198-.885.084-.297.192-.594.294-.892A8.203 8.203 0 0 0 39.4 3.71c.03-.297.054-.595.096-.844.04-.251.096-.5.167-.744a5 5 0 0 1 .432-1.064 2.38 2.38 0 0 1 .257-.386.132.132 0 0 1 .148-.03.132.132 0 0 1 .044.03c.01.02.017.042.018.065Z" fill="#EECA54"/><path d="M37.553 1.432c.12.075.233.163.335.261.262.233.491.5.683.79.126.191.238.39.336.595.108.214.204.458.311.702.214.511.496.991.84 1.427.167.232.346.458.502.69.152.224.287.461.402.707.222.435.422.882.599 1.337.172.452.305.917.395 1.392a.112.112 0 0 1-.096.13.133.133 0 0 1-.096 0 8.188 8.188 0 0 1-.976-1.076 15.02 15.02 0 0 1-.839-1.189 5.486 5.486 0 0 1-.383-.719c-.12-.256-.216-.523-.318-.79a6.355 6.355 0 0 0-.773-1.47c-.15-.213-.305-.421-.43-.63a4.81 4.81 0 0 1-.324-.594 4.141 4.141 0 0 1-.312-.993 2.122 2.122 0 0 1-.042-.422.143.143 0 0 1 .15-.136.12.12 0 0 1 .036-.012Z" fill="#E5803C"/><path d="M36.228 9.162a2.44 2.44 0 0 1 .138-.44c.14-.359.323-.7.545-1.016a5.65 5.65 0 0 1 .467-.595c.174-.202.384-.404.6-.594a7.68 7.68 0 0 0 1.114-1.463c.168-.267.33-.54.503-.796.17-.25.355-.489.557-.714.395-.44.773-.838 1.126-1.159a9.52 9.52 0 0 1 1.235-1.023.114.114 0 0 1 .181.063.112.112 0 0 1-.008.074c-.202.494-.442.97-.719 1.427-.24.41-.545.868-.88 1.35-.186.245-.386.48-.6.701-.21.226-.443.446-.67.666a7.892 7.892 0 0 0-1.199 1.415c-.161.244-.311.487-.473.707a5.54 5.54 0 0 1-.479.595c-.263.284-.556.54-.875.76-.126.09-.26.168-.401.233a.139.139 0 0 1-.18-.078.119.119 0 0 1 .018-.113Z" fill="#E5803C"/><path d="M43.947 5.038c-.108.081-.225.15-.347.208a3.65 3.65 0 0 1-.94.315 6.181 6.181 0 0 1-1.373.083 5.913 5.913 0 0 0-1.551.214 7.046 7.046 0 0 1-1.552.292h-1.378a7.542 7.542 0 0 1-1.366-.185.108.108 0 0 1-.088-.092.106.106 0 0 1 .004-.044.1.1 0 0 1 .06-.078 7.327 7.327 0 0 1 1.294-.475c.442-.124.89-.225 1.342-.303a6.9 6.9 0 0 1 1.576-.054 5.872 5.872 0 0 0 1.563-.137 6.42 6.42 0 0 1 1.354-.214c.333-.01.665.024.989.101.13.031.26.073.383.125a.149.149 0 0 1 .03.244Z" fill="#E5803C"/><defs><filter id="a" x="0" y="4.752" width="40.164" height="40.23" filterUnits="userSpaceOnUse" color-interpolation-filters="sRGB"><feFlood flood-opacity="0" result="BackgroundImageFix"/><feColorMatrix in="SourceAlpha" values="0 0 0 0 0 0 0 0 0 0 0 0 0 0 0 0 0 0 127 0" result="hardAlpha"/><feOffset dy="1"/><feGaussianBlur stdDeviation="3.5"/><feComposite in2="hardAlpha" operator="out"/><feColorMatrix values="0 0 0 0 0 0 0 0 0 0 0 0 0 0 0 0 0 0 0.5 0"/><feBlend in2="BackgroundImageFix" result="effect1_dropShadow_3015_33294"/><feBlend in="SourceGraphic" in2="effect1_dropShadow_3015_33294" result="shape"/></filter></defs></svg>