<svg width="168" height="138" fill="none" xmlns="http://www.w3.org/2000/svg"><g clip-path="url(#a)"><path d="m66.09 20.042-.516-.439c-.34-.295-.848-.707-1.501-1.238-1.297-1.054-3.146-2.528-5.486-4.104a39.57 39.57 0 0 0-3.85-2.292 17.31 17.31 0 0 0-4.629-1.685 11.772 11.772 0 0 0-5.087.1 8.226 8.226 0 0 0-1.246.397l-.28.1-.331.152-.661.304c-.797.419-1.562.895-2.29 1.424a27.242 27.242 0 0 0-4.129 3.775c-1.272 1.382-2.4 2.882-3.493 4.331-1.094 1.45-2.069 2.941-3.137 4.273a17.929 17.929 0 0 1-3.451 3.472 13.448 13.448 0 0 1-3.79 1.896 13.313 13.313 0 0 1-3.23.573 12.721 12.721 0 0 1-2.086-.093l-.721-.101a.623.623 0 0 1-.43-.201.614.614 0 0 1 .49-1.03h.728a14.438 14.438 0 0 0 1.865-.16c.942-.13 1.864-.373 2.747-.724a13.588 13.588 0 0 0 3.205-1.812 32.82 32.82 0 0 0 3.392-3 39.812 39.812 0 0 0 3.391-3.935c1.085-1.458 2.187-2.992 3.391-4.525a25.718 25.718 0 0 1 4.121-4.315A16.452 16.452 0 0 1 41.672 9.5l.653-.32.322-.16c.186-.085.263-.11.398-.16.481-.21.977-.381 1.484-.515a13.98 13.98 0 0 1 6.037-.236c1.832.344 3.615.91 5.308 1.686a23.901 23.901 0 0 1 4.24 2.435 30.585 30.585 0 0 1 5.315 4.888 20.195 20.195 0 0 1 1.696 2.182.63.63 0 0 1-.083.85.638.638 0 0 1-.858-.007l-.093-.101Z" fill="#A59789"/><g filter="url(#b)"><path d="M158.535 72.784a57.128 57.128 0 0 0-9.734-31.875A57.66 57.66 0 0 0 122.89 19.78a58.063 58.063 0 0 0-33.356-3.261 57.843 57.843 0 0 0-29.557 15.705 57.27 57.27 0 0 0-15.798 29.378 57.05 57.05 0 0 0 3.287 33.15 57.453 57.453 0 0 0 21.263 25.749 57.99 57.99 0 0 0 32.074 9.669c7.582 0 15.09-1.484 22.095-4.368a57.755 57.755 0 0 0 18.731-12.44 57.356 57.356 0 0 0 12.514-18.618 57.07 57.07 0 0 0 4.392-21.96Z" fill="#D0C8DF"/></g><path d="M115.022 49.561a2.926 2.926 0 0 1-1.286 2.886 2.956 2.956 0 0 1-3.176.044 2.914 2.914 0 0 1-.704-4.358c.361-.43.839-.747 1.376-.914a3.189 3.189 0 0 1 2.38.396 3.157 3.157 0 0 1 1.41 1.946ZM76.592 67.51a2.917 2.917 0 0 1-.214 1.638 2.94 2.94 0 0 1-1.07 1.264 2.964 2.964 0 0 1-4.296-1.186 2.917 2.917 0 0 1 .406-3.144c.363-.43.844-.748 1.384-.915a3.196 3.196 0 0 1 2.378.4 3.161 3.161 0 0 1 1.412 1.943Z" fill="#000"/><path d="M62.46 33.382c-2.281-.708-3.892-10.618-3.748-11.443.322-1.905 9.157-8.967 13.32-8.006 2.332.548 7.775 5.52 8.055 8.284.28 2.764-13.193 12.547-17.627 11.165Z" fill="#352F3B"/><path d="m109.01 69.515.331.203c-2.459 2.393-5.935.775-11.141 3.37-3.799 1.939-5.215 4.02-6.851 4.947l-.458-.64s-.466-7.77 5.638-10.365c6.639-2.764 12.481 2.485 12.481 2.485Z" fill="#CEA5D6"/><path d="M96.526 67.071c-6.104 2.596-5.638 10.365-5.638 10.365l.458.64a3.79 3.79 0 0 1-2.908.354c-3.722-.842-7.284-14.199 3.391-19.668 12.498-6.395 20.782 5.183 18.781 9.152a6.604 6.604 0 0 1-1.264 1.803l-.33-.202s-5.851-5.25-12.49-2.444Z" fill="#000"/><path d="M104.993 25.721c-.093 2.048 5.893 1.534 14.457 5.056 5.647 2.334 10.768 6.919 13.413 4.332 2.239-2.183-3.697-8.351-13.21-11.115-7.453-2.149-14.533-1.07-14.66 1.727Zm-5.118-2.587c.187-2.393-8.478-4.044-8.699-.556-.22 3.489 8.436 3.902 8.7.556Z" fill="#fff" style="mix-blend-mode:soft-light"/><path d="M8.986 27.441c.24-.044.484-.07.73-.076.618-.009 1.237.04 1.848.144.373.067.771.16 1.195.278.415.118.848.278 1.297.421a14.3 14.3 0 0 0 2.892.64c.5.068 1.008.118 1.5.211.48.077.953.187 1.416.329.907.27 1.755.54 2.468.842.803.294 1.585.643 2.34 1.045a.16.16 0 0 1-.077.295c-.85.015-1.7-.03-2.543-.134a36.146 36.146 0 0 1-2.544-.397 13.319 13.319 0 0 1-1.407-.362c-.475-.143-.95-.329-1.433-.497a14.53 14.53 0 0 0-2.866-.75c-.466-.076-.924-.135-1.348-.22a9.939 9.939 0 0 1-1.179-.303 8.386 8.386 0 0 1-1.696-.716 4.186 4.186 0 0 1-.61-.396.193.193 0 0 1 0-.27.2.2 0 0 1 .017-.084Z" fill="#F2C05C"/><path d="M11.148 23.387c.223.088.438.192.645.312.52.305 1.009.66 1.458 1.062.3.263.583.545.848.842.28.312.56.666.848 1.02a13.687 13.687 0 0 0 2.06 2.014c.382.312.772.615 1.128.935.355.315.692.65 1.009 1.003.61.691 1.162 1.357 1.602 1.947.51.658.97 1.35 1.382 2.073a.16.16 0 0 1-.018.18.16.16 0 0 1-.05.039.163.163 0 0 1-.152 0c-.719-.424-1.405-.9-2.052-1.424a21.183 21.183 0 0 1-1.916-1.686c-.351-.317-.68-.657-.984-1.02-.322-.37-.61-.766-.924-1.154a13.327 13.327 0 0 0-1.975-2.09c-.348-.303-.696-.59-1-.842a8.57 8.57 0 0 1-.849-.843 8.218 8.218 0 0 1-1.034-1.475 3.906 3.906 0 0 1-.306-.649.186.186 0 0 1 .061-.201.186.186 0 0 1 .067-.034.17.17 0 0 1 .152-.009Z" fill="#F2D463"/><path d="M16.554 23.033c.11.18.198.372.263.573.184.489.307.998.364 1.517.04.338.056.679.051 1.02 0 .37 0 .75-.05 1.146a9.938 9.938 0 0 0 .152 2.485c.068.413.16.843.203 1.248.052.405.074.813.068 1.221 0 .843-.05 1.543-.127 2.175a13.65 13.65 0 0 1-.382 2.132.169.169 0 0 1-.203.11.153.153 0 0 1-.11-.094 12.688 12.688 0 0 1-.552-2.098 21.2 21.2 0 0 1-.313-2.157 9.617 9.617 0 0 1 0-1.222c0-.413.068-.843.102-1.264.1-.84.1-1.688 0-2.528-.06-.396-.12-.775-.153-1.138a8.46 8.46 0 0 1 0-1.02 6.44 6.44 0 0 1 .237-1.541 3.17 3.17 0 0 1 .212-.59.212.212 0 0 1 .272-.093.218.218 0 0 1-.034.118Z" fill="#F2C05C"/><path d="M23.022 22.603a4.15 4.15 0 0 1-.289.683 9.345 9.345 0 0 1-1 1.567c-.265.325-.548.634-.848.927-.305.312-.644.624-.992.96A14.964 14.964 0 0 0 17.95 29c-.297.42-.585.842-.899 1.238-.29.387-.602.758-.932 1.112-.67.674-1.314 1.298-1.9 1.795a18.5 18.5 0 0 1-2.034 1.593.17.17 0 0 1-.23-.05.16.16 0 0 1 0-.152c.396-.766.844-1.504 1.34-2.208.433-.64.975-1.349 1.569-2.09.305-.37.636-.733.992-1.087s.746-.683 1.12-1.028a14.47 14.47 0 0 0 2.034-2.191c.288-.38.56-.758.848-1.096.263-.32.546-.624.848-.91a9.56 9.56 0 0 1 1.45-1.18c.205-.136.42-.258.644-.362a.186.186 0 0 1 .255.101.218.218 0 0 1-.034.118Z" fill="#F2D463"/><path d="M55.717 92.073c-3.756 5.216 13.99 29.915 43.666 32.021 21.197 1.5 47.015-16.01 43.666-25.28-3.815-10.533-27.352 5.528-44.09 3.371-32.643-4.213-39.002-16.011-43.242-10.112Z" fill="#22182A" style="mix-blend-mode:multiply" opacity=".2"/></g><defs><clipPath id="a"><path fill="#fff" transform="translate(.07 .714)" d="M0 0h167.204v136.605H0z"/></clipPath><filter id="b" x="38.07" y="15.415" width="125.461" height="124.755" filterUnits="userSpaceOnUse" color-interpolation-filters="sRGB"><feFlood flood-opacity="0" result="BackgroundImageFix"/><feColorMatrix in="SourceAlpha" values="0 0 0 0 0 0 0 0 0 0 0 0 0 0 0 0 0 0 127 0" result="hardAlpha"/><feOffset dy="5"/><feGaussianBlur stdDeviation="2.5"/><feComposite in2="hardAlpha" operator="out"/><feColorMatrix values="0 0 0 0 0 0 0 0 0 0 0 0 0 0 0 0 0 0 0.5 0"/><feBlend in2="BackgroundImageFix" result="effect1_dropShadow_3004_1166"/><feBlend in="SourceGraphic" in2="effect1_dropShadow_3004_1166" result="shape"/></filter></defs></svg>