<svg width="83" height="80" fill="none" xmlns="http://www.w3.org/2000/svg"><path d="M56.622 19.297a26.32 26.32 0 0 1 7.663 10.152 26.12 26.12 0 0 1 1.985 12.53c-1.258 14.446-13.962 25.17-28.353 23.928-14.39-1.24-25.084-13.936-23.815-28.377 1.27-14.442 13.94-25.146 28.345-23.928a26.035 26.035 0 0 1 14.175 5.695Z" fill="#E1E1E1"/><path d="M57.209 14.499c.277.693-.464 4.213-.59 4.798-3.86-.88-7.24-2.259-8.877-4.683l.058-.188s2.744-2.968 3.473-2.906c.73.06 5.627 2.22 5.936 2.979Z" fill="#31293A"/><path d="M53.406 12.65s.043-.272.136-.765c.092-.493.24-1.177.456-2.034a34.2 34.2 0 0 1 .885-2.94 19.955 19.955 0 0 1 1.469-3.284c.673-1.094 1.439-1.875 2.25-2.294.895-.528 1.833-.582 2.739-.156.475.182.944.444 1.402.783.478.346.929.857 1.336 1.514l.3.52c.096.184.188.383.282.562.194.356.373.738.565 1.097.368.746.738 1.491 1.104 2.203.355.695.736 1.32 1.14 1.865.202.242.413.446.63.612.107.09.216.169.327.233l.342.157.084.038.043.023h.032l.18.042h.323c.212-.032.421-.127.622-.283.2-.15.391-.345.573-.58a7.68 7.68 0 0 0 .54-.766 16.12 16.12 0 0 0 1.013-1.88c.311-.692.58-1.457.855-2.183.541-1.45 1.082-2.887 1.797-3.72.091-.092.18-.195.272-.268.093-.077.187-.14.283-.187l.142-.07h.14l.254-.06a.822.822 0 0 1 .255-.042l.255-.02c.17 0 .326.031.484.043.539.086 1.068.376 1.563.86.32.305.62.704.893 1.185.094.168.161.313.207.413l.05.115.019.045a.53.53 0 0 1 .031.19c0 .07-.013.138-.034.189-.021.051-.05.083-.081.09-.031.006-.063-.014-.087-.056l-.01-.019-.062-.114a5.92 5.92 0 0 0-.204-.325 4.537 4.537 0 0 0-.856-.96c-.468-.379-.959-.602-1.456-.661a3.011 3.011 0 0 0-.916.045l-.255.062H75.6l-.117.046a1.76 1.76 0 0 0-.465.347c-.62.65-1.183 1.931-1.712 3.372-.265.73-.539 1.484-.81 2.294-.27.862-.576 1.666-.913 2.401-.379.788-.84 1.348-1.342 1.629a1.61 1.61 0 0 1-.79.195l-.208-.023h-.1l-.091-.03-.18-.05h-.058l-.048-.027-.093-.046-.375-.195a2.699 2.699 0 0 1-.368-.28c-.244-.2-.48-.446-.707-.733a11.214 11.214 0 0 1-1.189-2.153c-.342-.802-.674-1.617-1.027-2.35-.352-.721-.753-1.312-1.188-1.752-.202-.256-.42-.443-.623-.688-.203-.245-.42-.405-.628-.623a5.812 5.812 0 0 0-1.307-.887c-.826-.514-1.699-.523-2.527-.027-.38.239-.744.6-1.078 1.074-.082.104-.16.222-.24.34-.078.12-.155.226-.227.352l-.223.352c-.072.126-.144.241-.215.36a20.49 20.49 0 0 0-1.426 2.959 37.31 37.31 0 0 0-.947 2.676 37.925 37.925 0 0 0-.713 2.504c-.016.06-.042.106-.072.127-.03.022-.063.017-.091-.011a.29.29 0 0 1-.065-.145.62.62 0 0 1-.005-.204l-.026-.023Z" fill="#A59789"/><path d="M42.273 17.214c-.351-1.463-3.813-1.82-7.263-1.03-3.114.708-5.87 2.719-5.924 4.059-.034.95 3.616-.64 7.07-1.13 2.79-.39 6.645.276 6.117-1.9Z" fill="#fff" style="mix-blend-mode:hard-light"/><path d="M31.57 33.808a1.358 1.358 0 0 0-.737-1.33 1.387 1.387 0 0 0-1.521.166 1.366 1.366 0 0 0-.428 1.457c.082.258.239.486.451.655a1.384 1.384 0 0 0 1.748-.02 1.37 1.37 0 0 0 .488-.928Zm17.844 4.722a1.359 1.359 0 0 0-.738-1.331 1.387 1.387 0 0 0-1.522.167 1.366 1.366 0 0 0-.425 1.46 1.383 1.383 0 0 0 2.686-.296Zm-15.962-3.351c.015.073.027.148.034.222a3.532 3.532 0 0 1-.158 1.367 3.12 3.12 0 0 1-.174.43 2.96 2.96 0 0 1-.227.42 3.658 3.658 0 0 1-.286.383 3.535 3.535 0 0 1-1.27.969l-.231.092-.205.07a.201.201 0 0 1-.258-.123.193.193 0 0 1 .061-.223l.155-.126.177-.134c.074-.046.136-.122.216-.184.085-.07.166-.146.244-.226.08-.084.173-.168.254-.264.081-.096.17-.191.244-.299.082-.105.158-.215.227-.329.261-.423.464-.879.602-1.356.062-.195.1-.383.127-.486.018-.06.032-.122.043-.184a.202.202 0 0 1 .193-.136.206.206 0 0 1 .193.136l.039-.019Z" fill="#000"/><path d="m32.856 37.132.096.092.27.237c.128.1.27.23.448.36.178.13.386.28.606.43.22.148.471.317.749.459.278.141.556.318.864.455.309.138.63.291.961.418l1.019.352 1.061.26c.172.043.346.074.521.092l.498.073c.321.044.645.07.969.077.29.02.581.02.872 0 .274 0 .513-.05.737-.07.224-.018.386-.068.56-.095l.35-.084.117-.035h.023a.197.197 0 0 1 .25.134.197.197 0 0 1-.104.242l-.135.061c-.085.03-.208.092-.386.145-.177.054-.359.123-.59.169a5.523 5.523 0 0 1-.772.142 7.07 7.07 0 0 1-.934.072h-.776l-.274-.026-.555-.062a3.71 3.71 0 0 1-.56-.088l-1.103-.26-1.085-.383c-.351-.138-.68-.322-1.007-.471-.328-.15-.61-.36-.892-.529-.281-.168-.52-.383-.771-.543-.251-.161-.421-.357-.599-.51-.177-.153-.308-.31-.424-.429-.116-.118-.2-.23-.259-.298l-.084-.108a.206.206 0 0 1 .038-.283.205.205 0 0 1 .266 0l.035.004Z" fill="#000"/><path d="m44.86 38.698-.08.161a5.43 5.43 0 0 0-.594 1.773 2.443 2.443 0 0 0-.047.383v.709c0 .11.023.214.035.31.011.096 0 .187.034.268l.043.207.03.184v.022a.206.206 0 0 1-.289.216.204.204 0 0 1-.088-.081l-.105-.177-.112-.21a1.966 1.966 0 0 1-.111-.284 1.797 1.797 0 0 1-.105-.352 3.29 3.29 0 0 1-.073-.406 3.36 3.36 0 0 1 0-.444 3.42 3.42 0 0 1 .139-.904c.115-.39.295-.757.532-1.088a2.82 2.82 0 0 1 .525-.547.202.202 0 0 1 .341.2.2.2 0 0 1-.04.068l-.035-.008Z" fill="#000"/><path d="M27.776 20.515c-.556-.471-2.578.677-2.208 1.604.37.927 3.346-.613 2.208-1.604Z" fill="#fff" style="mix-blend-mode:hard-light"/><path d="M59.185 31.265c-1.108-.34 1.05 16.414-16.03 22.595-11.463 4.147-20.54-1.367-20.94.264-.402 1.631 9.798 12.799 24.455 8.364 18.16-5.5 17.67-29.63 12.515-31.223Z" fill="#22182A" style="mix-blend-mode:multiply" opacity=".2"/><path d="M76.377 1.236c.099.01.197.028.293.054.242.065.475.157.695.276.146.074.286.159.42.253.143.1.29.214.44.329.317.241.662.444 1.027.605.181.088.386.169.548.26.173.091.34.192.502.303.308.222.594.433.83.632.267.218.516.458.744.716a.072.072 0 0 1 0 .103.085.085 0 0 1-.066 0 6.523 6.523 0 0 1-.976-.356 13.161 13.161 0 0 1-.934-.463 4.634 4.634 0 0 1-.494-.314c-.158-.119-.316-.253-.474-.383a5.135 5.135 0 0 0-.996-.647c-.17-.088-.34-.165-.49-.25a4.107 4.107 0 0 1-.417-.263 3.304 3.304 0 0 1-.548-.502 1.537 1.537 0 0 1-.181-.241.088.088 0 0 1 .035-.12.082.082 0 0 1 .042.008Z" fill="#EECA54"/><path d="M79.808.065a3.25 3.25 0 0 1-.043 1.513c-.046.168-.104.344-.158.524-.115.374-.188.76-.216 1.149-.02.203-.027.406-.054.601a4.455 4.455 0 0 1-.112.575c-.1.363-.2.704-.308.988a6.56 6.56 0 0 1-.413.946.072.072 0 0 1-.045.034.074.074 0 0 1-.056-.008.077.077 0 0 1-.038-.057 6.303 6.303 0 0 1 0-1.026c0-.307.058-.66.112-1.03.03-.193.072-.384.127-.571.054-.192.123-.383.189-.575.131-.372.22-.757.266-1.149.02-.191.035-.383.062-.543.026-.162.062-.322.108-.479.066-.238.16-.468.278-.686a1.54 1.54 0 0 1 .166-.248.085.085 0 0 1 .095-.02.09.09 0 0 1 .028.02.102.102 0 0 1 .012.042Z" fill="#EECA54"/><path d="M77.862.513c.077.048.15.105.216.168.168.15.316.322.44.51.08.122.153.25.216.382.07.138.131.295.2.452.138.33.32.639.54.92.109.149.225.294.325.444.098.145.184.297.259.455.143.281.272.569.386.862.11.29.196.59.254.896a.074.074 0 0 1-.013.055.073.073 0 0 1-.049.03.085.085 0 0 1-.061 0 5.272 5.272 0 0 1-.63-.694 9.661 9.661 0 0 1-.54-.766 3.53 3.53 0 0 1-.246-.463c-.078-.165-.14-.337-.205-.51a4.096 4.096 0 0 0-.498-.945c-.096-.138-.197-.272-.278-.406a3.181 3.181 0 0 1-.208-.383 2.665 2.665 0 0 1-.2-.64 1.364 1.364 0 0 1-.028-.272.092.092 0 0 1 .097-.088.077.077 0 0 1 .023-.007Z" fill="#E5803C"/><path d="M77.008 5.491c.02-.097.05-.191.09-.283.09-.231.207-.451.35-.655a4.112 4.112 0 0 1 .687-.766c.276-.284.517-.6.718-.942.108-.172.212-.348.324-.513a4.32 4.32 0 0 1 .359-.46c.255-.283.498-.54.725-.746.246-.242.512-.462.796-.659a.074.074 0 0 1 .117.04.073.073 0 0 1-.006.048c-.13.318-.285.625-.463.92-.154.263-.35.558-.567.869-.12.158-.248.308-.386.451-.135.146-.285.288-.432.43a5.083 5.083 0 0 0-.772.91c-.104.158-.2.315-.305.457a3.56 3.56 0 0 1-.872.873 1.653 1.653 0 0 1-.258.149.09.09 0 0 1-.116-.05.076.076 0 0 1 .011-.073Z" fill="#E5803C"/><path d="M81.982 2.834c-.07.052-.144.097-.224.134a2.35 2.35 0 0 1-.605.203c-.292.05-.588.069-.884.054a3.81 3.81 0 0 0-1 .138c-.325.1-.66.162-1 .187h-.887a4.86 4.86 0 0 1-.88-.119.07.07 0 0 1-.056-.059c-.001-.01 0-.02.002-.029a.066.066 0 0 1 .039-.05 4.72 4.72 0 0 1 .834-.306c.284-.08.573-.145.864-.195.336-.05.676-.062 1.015-.035.338.016.677-.013 1.007-.088.285-.077.577-.123.872-.138.215-.006.429.016.637.066.085.02.167.046.247.08a.096.096 0 0 1 .02.157Z" fill="#E5803C"/><circle opacity=".2" cx="39.717" cy="39.72" r="30" transform="rotate(27.083 39.717 39.72)" stroke="#fff" stroke-linecap="round" stroke-linejoin="round" stroke-dasharray="16 16"/></svg>