<svg width="203" height="196" fill="none" xmlns="http://www.w3.org/2000/svg"><g opacity=".9" clip-path="url(#a)"><path d="M23.468 128.44c-1.85.74-3.45 6.41 0 8.13a4.842 4.842 0 0 0 7.14-4.19c0-3.45-3.45-5.39-7.14-3.94Z" fill="#A39793"/><path d="M80.663 133.64c-1.11-8.73-2.07-14.62-2.07-14.62l-.21-.61a21.318 21.318 0 0 0 10.86-9.08s3.58 5 9.58 5.85c10 1.46 13.55-3.34 13.55-3.34s1.91 6.38 7.82 8.86l-.32.73c-2.51 33.77 8.75 64.2 8.75 64.2-12.5-10-17.09-25-17.09-25-2.08 12.09 0 34.61 0 34.61-12.5-16.68-14.18-44.61-14.18-44.61.84 15.42-13.12 34.52-13.12 29.1 0-15.25-1.96-33.59-3.57-46.09Z" fill="#DFA24D"/><path d="M177.407 78.49c-12.1-16.67-30-5-30-5s12.92-30.85-7.09-41.68c-20.01-10.83-40.44 3.75-40.44 3.75s-4.58-21.68-25.84-26.27c-21.26-4.59-39.63 14.59-40.88 30.85a30.79 30.79 0 0 0 10.43 25.42 50.24 50.24 0 0 0-22.94 30.43c-5.87 21.69 31.13 25.36 31.13 25.36s-10.82 6-6.45 14.32c7.89 14.93 30.13 6 35.37-2-1.11-8.73-2.07-14.62-2.07-14.62l-.21-.61a21.323 21.323 0 0 0 10.86-9.08s3.58 5 9.58 5.85c10 1.46 13.55-3.34 13.55-3.34s1.91 6.38 7.82 8.86a12.64 12.64 0 0 0 11.76-1.07l.21.35a78.703 78.703 0 0 0 19.39 3.11c32.87 1.16 37.9-27.95 25.82-44.63Z" fill="#C4BAB7"/><path d="M146.966 85.99c.77 3.09-15 3.33-17.51-6.67 0 0-5.83 7.09-16.26 2.92-10.43-4.17-5.46-14-13.55-14.38-5.21-.21-8.55 6.88-14.8 6.88s-5.42-3.8-9.79-2.3c-5.43 1.88-12.63 6.51-15.43-2.29-2.7-8.55 5.42-9.38 5-12.5-.42-3.12-13.34.2-12.51-13.76.83-13.96 14.76-18.85 27.51-13.14 12.09 5.43 12.51 17.93 16.47 17.51 3.96-.42 11.46-8.12 27.1-2.08 15.64 6.04.2 21.26 4.17 24.81 2.07 1.85 6.16-5.37 13.13.2 4.17 3.34.39 8.86 1.45 10.64 1.89 3.16 4.6 2.5 5.02 4.16Zm6.876 22.94c.42 10.21-9.79 7.71-9.79 7.71-4.85-2.15-8.24.79-12.1 3a12.639 12.639 0 0 1-11.76 1.07c-5.91-2.48-7.82-8.86-7.82-8.86s-3.54 4.8-13.55 3.34c-6-.88-9.58-5.85-9.58-5.85a21.323 21.323 0 0 1-10.86 9.08 19.552 19.552 0 0 1-6.66 1.14c-10.63 0-12.71-7.92-12.09-11.26.62-3.34-22.93-1.66-20.43-18.13.92-6 10-11 19.81-9.38 9.81 1.62 13.77 12.4 18.33 12.08 6-.42 4.81-8.34 15.22-8.34s17.09 14.59 17.09 14.59 7.31-8.12 14-7.71c6.69.41 8.75 11.67 8.75 11.67 9.15-6.87 21.03-4.37 21.44 5.85Z" fill="#DDD4D3"/><path d="M88.782 114.34a58.38 58.38 0 0 1 2 7.37c.25 1.12.48 2.34.7 3.63.22 1.29.42 2.66.61 4.08s.36 2.89.46 4.39c.1 1.5.25 3 .28 4.55.03 1.55.08 3.06.06 4.56-.02 1.5-.07 3-.15 4.42-.08 1.42-.2 2.81-.35 4.12-.15 1.31-.28 2.54-.49 3.67-.21 1.13-.37 2.17-.54 3.08-.17.91-.4 1.7-.56 2.35-.33 1.3-.53 2-.53 2a.392.392 0 0 1-.47.27.398.398 0 0 1-.28-.39s0-.76.11-2.07c0-.66.1-1.46.17-2.37.07-.91.07-2 .12-3.07.05-1.07.07-2.35.1-3.63v-6.2c0-.72-.02-1.45-.06-2.19 0-1.47-.08-3-.16-4.45-.1-3-.35-6-.54-8.78-.12-1.4-.24-2.75-.35-4-.11-1.25-.24-2.49-.35-3.61-.45-4.49-.8-7.49-.8-7.49a.502.502 0 0 1 .44-.56.519.519 0 0 1 .58.32Zm7.21 2.41.14.29c.08.19.22.46.35.83.39.997.723 2.015 1 3.05.2.64.39 1.33.55 2.08.16.75.34 1.52.5 2.34.16.82.27 1.66.37 2.53.1.87.26 1.74.29 2.63.113 1.737.136 3.48.07 5.22 0 .84-.13 1.65-.19 2.41-.04.719-.13 1.434-.27 2.14-.54 2.64-1.08 4.32-1.08 4.32a.394.394 0 0 1-.19.222.395.395 0 0 1-.29.028.37.37 0 0 1-.26-.33s-.17-1.78-.16-4.34c0-.64-.08-1.34-.11-2.08s-.1-1.5-.12-2.3c-.02-.8-.11-1.63-.18-2.47-.07-.84-.13-1.69-.19-2.54-.06-.85-.17-1.7-.24-2.54-.07-.84-.13-1.67-.22-2.47-.21-1.59-.29-3.11-.43-4.39a51.65 51.65 0 0 1-.15-1.77c-.06-.52-.09-1-.11-1.36 0-.77-.08-1.21-.08-1.21a.514.514 0 1 1 1-.25v-.04Zm10.616 3.93s-.05.79-.1 2.13c0 .68-.08 1.49-.1 2.44-.02.95 0 2-.11 3.16-.11 1.16 0 2.42-.06 3.75s-.08 2.72-.06 4.17c.02 1.45 0 2.94 0 4.46s.08 3.06.08 4.6c0 1.54.05 3.09.07 4.61.02 1.52.15 3 .22 4.45.07 1.45.1 2.85.15 4.18.05 1.33.17 2.58.24 3.74.34 4.64.39 7.77.39 7.77a.366.366 0 0 1-.37.39.403.403 0 0 1-.38-.29s-.75-3-1.61-7.66c-.2-1.16-.51-2.4-.62-3.74-.11-1.34-.34-2.75-.47-4.21-.13-1.46-.33-3-.44-4.52-.11-1.52-.11-3.11-.16-4.68-.05-1.57-.12-3.13-.06-4.68.06-1.55.11-3.06.16-4.53.05-1.47.18-2.89.32-4.23.14-1.34.25-2.62.42-3.78.17-1.16.35-2.24.51-3.18.16-.94.34-1.77.48-2.44.29-1.35.52-2.1.52-2.1a.514.514 0 0 1 .63-.34.522.522 0 0 1 .35.53Z" fill="#F5DD6B"/><path d="M158.641 135.18c-2 1.35 0 9.18 4.59 7.09s-.84-9.59-4.59-7.09Z" fill="#A39793"/><path d="M5.783 119.71a3.661 3.661 0 0 0-5 1.28c-2.12 3.11 1.36 4.34 1.36 4.34s-2.93 2.53-2 5.3c.93 2.77 5.31 6.62 10.32 2.09a4 4 0 0 0 5 .8c2.9-1.61 1.45-5.3 1.45-5.3s4-4 1.08-8.79c-2.44-4.07-6.62-.61-6.62-.61s-1.14-2.53-2.77-2.41a3.052 3.052 0 0 0-2.82 3.3Z" fill="#928784"/><path d="M5.539 56.19s-3.76 4.37-2.76 5c1 .63 25 3.12 27.82 2.5 2.82-.62-25.06-7.5-25.06-7.5Zm22.514 1.51c.59 1.58-22-13.34-24-14-2-.66-3.29-9-1-8.69 2.29.31 23.91 19.7 25 22.69Zm76.494-31.42c-.31 1.17-2.5 1.87-2.5.83s3.13-21 5.21-23.55c2.08-2.55 4.59-4.17 5-3.34.41.83-3.54 10.42-7.71 26.06Zm86.586 6.71c-1.23-.4-36 31.38-36 31.38l5.37-.57s29.28-20.64 29.51-22.31c.63-4.69 1.12-8.5 1.12-8.5Z" fill="#F5DD6B"/><path d="M194.698 88.99c-1.48-1.18 6.88-6.56 8.13-3.75 1.25 2.81-6.57 5.03-8.13 3.75Z" fill="#928784"/><path d="M160.312 128.72c-.68 1.7 2.5 4.38 4.38 2.5s-3.76-4.06-4.38-2.5Z" fill="#A39793"/><path d="M129.399 127.99c-1.57 0 .31 4.69.31 4.69s17.7 20.9 20.63 20.63c3.44-.31 7.19-3.75 5.94-4.69-1.25-.94-26.88-20.63-26.88-20.63Z" fill="#F5DD6B"/><path d="M42.219 109.67c-1-.44-1.92-.18-3-.38-1.28-.25-1.57-1.94-1.64-3a1.31 1.31 0 0 0-2-1.09c-1 .61-2.52 1.39-3.58.44-.86-.77-.43-2.64-.45-3.64a.32.32 0 0 0-.381-.292.329.329 0 0 0-.16.082c-1.52 1.29-2.12 3.89-.61 5.47a4.358 4.358 0 0 0 4.72.92 4.86 4.86 0 0 0 2.18 3.55c1.7 1 4.07 1.18 5.27-.59a1.069 1.069 0 0 0-.35-1.47Zm129.682-9.8c-.72-1-2.64-.73-2.56.72.09 1.61.4 3.13-1.08 4.26s-2.79-.41-4.32-.61a.687.687 0 0 0-.84.65c-.12 1.49 1.34 2.62 2.59 3.12.65.236 1.342.331 2.032.28.69-.052 1.36-.25 1.968-.58 2.61-1.22 3.88-5.43 2.21-7.84Zm2.69-7.8a.998.998 0 0 0-1.349-.33 3.497 3.497 0 0 0-1.291 1.62c-.14.32-.279.63-.399 1 .09-.24-.091.17-.151.3-.26 0-.799-.07-.909.17-.6 1.42 1.1 2.5 2.36 2a3.502 3.502 0 0 0 1.739-4.76ZM55.4 75.07a17.324 17.324 0 0 1-2.86-1.6c-1.18-1 .62-2.78 1.28-3.38 1.06-1 .07-2.32-1.05-2.46-3.22-.37-3.87-3.33-3-6a.169.169 0 0 0-.157-.201.17.17 0 0 0-.093.021c-3.41 2.64-2.5 6.48.57 8.23a5.421 5.421 0 0 0-1 4.23c.44 2.94 3.86 3.8 6.17 2.9a.94.94 0 0 0 .14-1.74Z" fill="#B3A9A6"/><path d="M129.277 74.73c-2.11 1-4.54 2.33-6.11-.33a1.521 1.521 0 0 0-2.74.38c-1.74 4.35-4.45 3.72-6.7.3-1-1.57-1.33-4-2.87-5.06a.148.148 0 0 0-.095-.034.152.152 0 0 0-.095.034c-2.47 2.56 1.44 7.94 3.48 9.63 3.19 2.62 6.17.85 8-1.91 2.76 2.18 7.12 1.85 8.49-2 .31-.82-.71-1.33-1.36-1.01Zm-26.851 31.74c-1.34-.25-2.63.17-4 0a7.43 7.43 0 0 1-3.71-2.36.126.126 0 0 0-.066-.033.13.13 0 0 0-.154.123c-.12.896.067 1.805.53 2.58a5.591 5.591 0 0 0 2.15 1.71c1.77.89 4.17 1.07 5.65-.4.112-.121.192-.269.234-.429a1.007 1.007 0 0 0-.228-.919.995.995 0 0 0-.406-.272Zm8.075-1.34a1.509 1.509 0 0 0-1.77-.2 2.31 2.31 0 0 0-.54.38 1.229 1.229 0 0 0-.33.39l-.16.14a.896.896 0 0 0-.31.71 1.353 1.353 0 0 0 1.13 1.23h1.06a2.26 2.26 0 0 0 1.19-1 1.426 1.426 0 0 0-.27-1.65Zm27.495 5.19a12.936 12.936 0 0 0-5.89-.41c-1.64.33-2.69 2.33-4.34 2.83-1.37.41-2.65 1.18-4 1.69-2.55 1-2.36-.84-3.18-2.89a.541.541 0 0 0-1-.12c-2.33 4.42 1.32 7.47 5.59 6a24.476 24.476 0 0 0 5.81-2.46c1.75-1.21 2-1.42 4.08-1.12a3.87 3.87 0 0 0 3.54-1.16 1.413 1.413 0 0 0 .365-1.353 1.431 1.431 0 0 0-.975-1.007Zm8.675 2.38v-.31a.826.826 0 0 0-.84-.81h-.18a1.392 1.392 0 0 0-.93.12l-.37.19s-.36.17-.16.1a1.854 1.854 0 0 1-.87 0 .77.77 0 0 0-.65 1.15 2.333 2.333 0 0 0 1.683 1.154 2.328 2.328 0 0 0 1.947-.614 1.122 1.122 0 0 0 .33-1l.04.02ZM49.248 96.27a10.78 10.78 0 0 1-2.63-1.36c-.84-.81-1.09-1.9-1.72-2.84a1.27 1.27 0 0 0-2.28.32c-1 3.25 2.32 7.59 5.66 7.55a2 2 0 0 0 .97-3.67Zm5.342 2.2a3.32 3.32 0 0 0-1.85 0 1.5 1.5 0 0 0-1 1 1.44 1.44 0 0 0 .62 1.57c-.12-.1-.1-.08 0 0 .146.377.418.692.77.89a1.996 1.996 0 0 0 2 0 1.936 1.936 0 0 0 .94-1.67 1.88 1.88 0 0 0-1.48-1.79Zm-1.157-3.92a2.589 2.589 0 0 0-1.33-1 1.18 1.18 0 0 0-1.13 2 2.421 2.421 0 0 0 1.82.62c.89.01 1.11-1.05.64-1.62Zm8.348-46.38c-.3-1.06-1.41-1.37-2.17-2-1.4-1.11-1.41-2.77-1.68-4.38-.15-.8-1.15-.8-1.67-.39-1.37 1.14-1.28 3.33-.8 4.88.57 1.83 2.77 4.54 5 3.86.9-.27 1.63-.96 1.32-1.97Zm5.637.24a1.87 1.87 0 0 0-1.55-.87c.48.06-.08 0-.17 0l-.42-.12a1 1 0 0 0-.99 0c-.9.67-.46 2.1.11 2.85a1.86 1.86 0 0 0 1.56.86 1.79 1.79 0 0 0 1.53-.89 1.75 1.75 0 0 0-.07-1.83Zm-3.425-5.91a2.86 2.86 0 0 0-1.58-.76 1.25 1.25 0 0 0-1.2 2.09c.176.303.373.594.59.87a1.72 1.72 0 0 0 1.5.44c.47.08 1.07-.21 1-.78a1.68 1.68 0 0 0-.31-1.86Z" fill="#D0C7C6"/><path d="M78.414 34.1v-.3a1.66 1.66 0 0 0-.42-.68 2.92 2.92 0 0 0-1.3-.56 6 6 0 0 0-2.06-.1 1.28 1.28 0 0 0-1.18.91 1.22 1.22 0 0 0 .58 1.37c.56.241 1.138.439 1.73.59a2.22 2.22 0 0 0 2.44-.47.59.59 0 0 0 .21-.76Zm3.088 3.55a1.62 1.62 0 0 0-.43-1.44 3.8 3.8 0 0 0-1-.72 1.62 1.62 0 0 0-2.16.59 1.58 1.58 0 0 0 .59 2.14c.2.12.42.22.62.35.263.151.557.24.86.26l.11.09c.53.46 1.6.19 1.52-.64-.03-.21-.07-.42-.11-.63ZM61.33 84.82a7.38 7.38 0 0 0-5.32-.85 1.279 1.279 0 0 0-.29 2.32c1.15.76 2.47 1.21 3.63 2 .56.37 1 1 1.57 1.27a3.53 3.53 0 0 0 2.25.38 1.18 1.18 0 0 0 1.15-1.15c.16-2.12-1.29-3.1-2.99-3.97Zm-2.108 5.17h-.3a1.57 1.57 0 0 0-.55-.23 3.18 3.18 0 0 0-.43-.06h-.16c-.33 0-1-.41-1.26 0a1.57 1.57 0 0 0 .43 1.88 1.46 1.46 0 0 0 2.35-.22c.157-.17.297-.355.42-.55a.57.57 0 0 0-.5-.82Zm33.439-.95c0-.09-.08-.19-.13-.28.07.15.09.18.06.07a1.56 1.56 0 0 0-1.52-1.11 2.4 2.4 0 0 0-2.35 1.88c-.11.55.29 1.29 1 1.2h1.02a1.61 1.61 0 0 0 1.75-.73c-.28.4-.42.44-.16.26a.93.93 0 0 0 .46-.8 2.143 2.143 0 0 0-.13-.49ZM72.629 14.21c-.66-2.51-3.81-3.07-6.06-3.09a9.11 9.11 0 0 0-6.79 2.73c-.59.7-.25 2.08.85 2 1.81-.18 3.5-.81 5.33-.87 1.83-.06 3.24 1.29 5.06 1.35a1.66 1.66 0 0 0 1.61-2.12Zm2.021 1.26a1.29 1.29 0 1 0 0 2.579 1.29 1.29 0 0 0 0-2.58Zm-5.248 2.52a1.529 1.529 0 0 0-1-.63 1.65 1.65 0 0 0-.73 0c-.155.05-.317.08-.48.09-.33 0-.68.2-.57.58a1.58 1.58 0 0 0 2.76.52.57.57 0 0 0 .02-.56Zm61.54 16.26a3.174 3.174 0 0 0-1.43-.65 7.833 7.833 0 0 0-1.91.21.908.908 0 0 0-.867 1.08.91.91 0 0 0 .237.46c.22.19.46.36.67.57.326.257.706.438 1.11.53a2.604 2.604 0 0 0 2.21-.58.997.997 0 0 0 .289-1.268.998.998 0 0 0-.309-.352Z" fill="#E5DDDC"/><path d="M86.677 120.99a7.543 7.543 0 0 0-1.61-3.62.622.622 0 0 0-.84.02.62.62 0 0 0-.16.26 10.543 10.543 0 0 0 .11 3.71c.059 1.57.321 3.126.78 4.63a1.18 1.18 0 0 0 2.3-.33 12.999 12.999 0 0 0-.58-4.67Zm30.563 37c-2.31-10.86-2.75-21.39-3.67-32.38a.64.64 0 1 0-1.28 0c-.88 10.71-.82 23 3.57 33 .36.82 1.54.19 1.38-.62Zm-44.793-13.08c-.58.14-.77.74-1 1.23-.6 1.47-1.16 2.95-1.75 4.42-.36.89-2.42 6 .5 5.35 1.09-.24 1.5-1.18 1.75-2.18.39-1.6.75-3.25 1-4.87.12-.37.74-4.25-.5-3.95ZM165.78 36.69c-1.54 3-2.69 6.2-4 9.26-.8 1.78-3.19 5.14-2.58 7.19a.624.624 0 0 0 .75.41c2.19-.39 3.61-4.41 4.48-6.11a56.222 56.222 0 0 0 4.26-9.59 1.564 1.564 0 0 0-.875-2.035 1.567 1.567 0 0 0-2.035.875Zm-5.387 2.63c-1.21-.44-2 1-2.31 1.91a4.502 4.502 0 0 0 0 3.51.74.74 0 0 0 1 .25c.94-.53 1.3-1.71 1.72-2.64.42-.93.87-2.58-.41-3.03Zm-136.771.22c-1.32-1.48-2.56-3.32-4.43-4.13a.87.87 0 0 0-1.27.74c0 1.92 1.43 3.37 2.69 4.65 1.26 1.28 2.55 3 4.15 3.67.6.26 1.57 0 1.48-.85-.18-1.63-1.59-2.92-2.62-4.08Z" fill="#F4B060"/><path d="M27.526 69.3a2.56 2.56 0 0 1-1.26-.1c-.66-.29-1.17-.84-2-.73a1.19 1.19 0 0 0-1.15 1.16c-.12 1.33 1.3 2.08 2.42 2.18a3.22 3.22 0 0 0 2.57-1.07.85.85 0 0 0-.58-1.44Zm71.307-50.1-.06-.07.07.1-.01-.03Z" fill="#928784"/><path d="M101.028 16.88a1.47 1.47 0 0 0-2 0 1.84 1.84 0 0 0-.43 1.85c.04.133.097.261.17.38 0-.1 0-.1.06.07.047.07.101.138.16.2l-.15-.17c.108.247.253.476.43.68a1.101 1.101 0 0 0 1.56 0 2.41 2.41 0 0 0 .3-.41c0-.09.07-.18.11-.27l.1-.14a1.832 1.832 0 0 0-.31-2.19Zm56.465-1.65a1.22 1.22 0 1 0 .001 2.44 1.22 1.22 0 0 0-.001-2.44Zm12.356 5.17a.882.882 0 0 0-.88.88.88.88 0 1 0 .88-.88ZM56.516 132.99a1.618 1.618 0 0 0-1.493 1.615 1.62 1.62 0 0 0 1.493 1.615 1.621 1.621 0 0 0 0-3.23Z" fill="#928784"/><path d="M56.519 132.99a1.59 1.59 0 0 0 0 3.17 1.586 1.586 0 0 0 1.464-1.585 1.59 1.59 0 0 0-1.464-1.585Zm3.331 10.17a2.513 2.513 0 0 0-1.1-1.4 2.338 2.338 0 0 0-3.13.84 2.27 2.27 0 0 0 2.563 3.31 2.319 2.319 0 0 0 1.387-1.01 1.998 1.998 0 0 0 .28-1.74Zm89.586-15.5a1.03 1.03 0 1 0 .002 2.06 1.03 1.03 0 0 0-.002-2.06Zm32.963-56.01a.995.995 0 0 0-1.111-.227.995.995 0 0 0-.329.227 1.392 1.392 0 0 0-.12 2.296 1.388 1.388 0 0 0 2.132-1.619 1.383 1.383 0 0 0-.572-.677ZM17.56 89.2a1.12 1.12 0 0 0-1-.54 1.001 1.001 0 0 0-.87.47l-.36.26a.74.74 0 0 0 .59 1.34l.26-.07c0 .07.07.13.1.2a.59.59 0 0 0 1 0 1.75 1.75 0 0 0 .28-1.66Z" fill="#928784"/></g><defs><clipPath id="a"><path fill="#fff" d="M0 0h202.96v195.21H0z"/></clipPath></defs></svg>