<svg width="93" height="28" fill="none" xmlns="http://www.w3.org/2000/svg"><rect y="2.526" width="93" height="25.258" rx="12.629" fill="#CF8A00"/><rect width="93" height="25.258" rx="12.629" fill="#F2A100"/><path d="M36.441 18.473V8.559h1.383v4.406h.514l1.775-4.406h1.383l-1.959 4.712 2.204 5.202h-1.383l-2.008-4.835h-.526v4.835h-1.383Zm7.378.098a1.21 1.21 0 0 1-.734-.233 1.745 1.745 0 0 1-.502-.612 1.805 1.805 0 0 1-.184-.796c0-.44.074-.811.22-1.113.147-.302.347-.555.6-.76.261-.211.56-.395.894-.55a22.63 22.63 0 0 1 1.077-.453v-.502a4.25 4.25 0 0 0-.05-.71c-.032-.187-.101-.326-.207-.415-.098-.098-.25-.147-.453-.147a.74.74 0 0 0-.44.122.696.696 0 0 0-.233.355 1.67 1.67 0 0 0-.074.526v.355l-1.297-.049c.016-.783.196-1.358.538-1.726.343-.375.873-.563 1.592-.563.701 0 1.199.192 1.493.576.293.383.44.938.44 1.664v3.231c0 .22.004.433.012.637.017.204.033.396.05.575.024.171.044.335.06.49h-1.199c-.024-.13-.057-.294-.098-.49a9.529 9.529 0 0 1-.073-.55c-.082.277-.24.538-.477.783-.229.236-.547.355-.955.355Zm.514-1.126a.67.67 0 0 0 .367-.11 1.48 1.48 0 0 0 .49-.478V14.85a10.93 10.93 0 0 0-.575.343c-.18.114-.34.236-.478.367-.13.122-.236.265-.318.428-.074.155-.11.335-.11.539 0 .285.053.51.159.673a.52.52 0 0 0 .465.245Zm5.358 1.126c-.58 0-1.02-.115-1.322-.343-.294-.237-.493-.567-.6-.992a6.637 6.637 0 0 1-.146-1.48v-1.628c0-.596.053-1.102.159-1.518.106-.424.306-.746.6-.967.301-.228.738-.343 1.309-.343.514 0 .91.086 1.187.258.286.163.482.412.588.746.106.326.159.735.159 1.224v.416h-1.187v-.428c0-.31-.02-.555-.062-.735-.04-.179-.114-.31-.22-.391-.106-.082-.257-.123-.453-.123-.212 0-.375.05-.49.147-.114.098-.191.266-.232.502a7.023 7.023 0 0 0-.049.942v2.228c0 .604.057 1.008.171 1.212.115.204.319.306.612.306.22 0 .38-.05.478-.147a.737.737 0 0 0 .196-.44c.032-.189.049-.4.049-.637v-.575h1.187v.49c0 .472-.057.88-.172 1.223a1.368 1.368 0 0 1-.587.783c-.277.18-.67.27-1.175.27Zm4.371 0c-.277 0-.522-.078-.734-.233a1.745 1.745 0 0 1-.502-.612 1.805 1.805 0 0 1-.184-.796c0-.44.074-.811.22-1.113.147-.302.347-.555.6-.76.261-.211.56-.395.894-.55.342-.155.701-.306 1.077-.453v-.502a4.25 4.25 0 0 0-.05-.71c-.032-.187-.101-.326-.207-.415-.098-.098-.25-.147-.453-.147a.74.74 0 0 0-.44.122.696.696 0 0 0-.233.355 1.67 1.67 0 0 0-.074.526v.355l-1.297-.049c.016-.783.196-1.358.538-1.726.343-.375.874-.563 1.592-.563.701 0 1.199.192 1.493.576.294.383.44.938.44 1.664v3.231c0 .22.005.433.013.637.016.204.032.396.049.575.024.171.044.335.06.49h-1.199c-.024-.13-.057-.294-.098-.49a9.529 9.529 0 0 1-.073-.55c-.082.277-.24.538-.477.783-.229.236-.547.355-.955.355Zm.514-1.126a.67.67 0 0 0 .367-.11 1.48 1.48 0 0 0 .49-.478V14.85a10.93 10.93 0 0 0-.575.343c-.18.114-.34.236-.478.367-.13.122-.236.265-.318.428-.073.155-.11.335-.11.539 0 .285.053.51.159.673a.52.52 0 0 0 .465.245Z" fill="#fff"/></svg>