<svg width="93" height="28" fill="none" xmlns="http://www.w3.org/2000/svg"><rect y="2.526" width="93" height="25.258" rx="12.629" fill="#CF8A00"/><rect width="93" height="25.258" rx="12.629" fill="#F2A100"/><path d="M39.11 18.583c-.7 0-1.248-.147-1.64-.44a2.32 2.32 0 0 1-.807-1.188 5.87 5.87 0 0 1-.22-1.664v-3.5c0-.67.073-1.253.22-1.751.155-.498.424-.881.808-1.15.391-.278.938-.417 1.64-.417.62 0 1.11.115 1.469.343.367.228.628.555.783.98.163.423.245.933.245 1.529v.783h-1.31v-.697c0-.367-.02-.69-.061-.967-.033-.286-.13-.506-.294-.661-.163-.155-.436-.233-.82-.233-.392 0-.677.086-.857.257-.18.164-.297.4-.355.71a6.736 6.736 0 0 0-.073 1.065v3.929c0 .498.04.893.122 1.187.082.286.217.49.404.612.188.122.44.184.76.184.374 0 .644-.082.807-.245.163-.172.265-.404.306-.698a7.7 7.7 0 0 0 .061-1.028v-.734h1.31v.734c0 .604-.074 1.138-.22 1.603-.148.457-.4.816-.76 1.077-.358.253-.864.38-1.517.38Zm4.978-.012c-.278 0-.522-.078-.735-.233a1.746 1.746 0 0 1-.501-.612 1.805 1.805 0 0 1-.184-.796c0-.44.074-.811.22-1.113.147-.302.347-.555.6-.76a4.26 4.26 0 0 1 .894-.55 22.63 22.63 0 0 1 1.077-.453v-.502c0-.285-.017-.522-.05-.71-.032-.187-.101-.326-.207-.415-.098-.098-.25-.147-.453-.147a.74.74 0 0 0-.44.122.697.697 0 0 0-.233.355 1.67 1.67 0 0 0-.074.526v.355l-1.297-.049c.016-.783.196-1.358.538-1.726.343-.375.873-.563 1.591-.563.702 0 1.2.192 1.494.576.293.383.44.938.44 1.664v3.231c0 .22.004.433.013.637.016.204.032.396.048.575.025.171.045.335.062.49h-1.2a25.71 25.71 0 0 0-.098-.49 9.449 9.449 0 0 1-.073-.55c-.082.277-.24.538-.478.783-.228.236-.546.355-.954.355Zm.514-1.126a.67.67 0 0 0 .367-.11 1.48 1.48 0 0 0 .49-.478V14.85c-.204.114-.396.228-.576.343-.18.114-.338.236-.477.367-.13.122-.237.265-.318.428-.074.155-.11.335-.11.539 0 .285.053.51.159.673a.52.52 0 0 0 .465.245Zm5.064 1.126c-.58 0-1.044-.18-1.395-.539-.35-.367-.55-.849-.6-1.444l1.09-.33c.065.448.175.787.33 1.015.155.22.383.33.685.33.237 0 .416-.065.539-.195.122-.139.184-.322.184-.55 0-.205-.045-.389-.135-.552a1.847 1.847 0 0 0-.44-.502l-1.212-1.04a3.418 3.418 0 0 1-.625-.71c-.163-.26-.244-.6-.244-1.015 0-.376.073-.69.22-.943.155-.261.367-.457.636-.587.278-.14.6-.209.967-.209.563 0 .992.184 1.285.551.302.36.474.796.514 1.31l-.88.33a3.059 3.059 0 0 0-.148-.636.969.969 0 0 0-.269-.428.64.64 0 0 0-.453-.16.655.655 0 0 0-.514.22.732.732 0 0 0-.184.502c0 .123.025.245.074.368.057.114.15.228.282.342l1.248 1.15c.171.156.33.323.477.503.155.18.282.383.38.612.097.228.146.493.146.795 0 .4-.081.735-.244 1.004a1.564 1.564 0 0 1-.686.612c-.293.13-.636.196-1.028.196Zm4.21 0c-.277 0-.521-.078-.734-.233a1.746 1.746 0 0 1-.501-.612 1.805 1.805 0 0 1-.184-.796c0-.44.073-.811.22-1.113.147-.302.347-.555.6-.76.261-.211.559-.395.893-.55a22.63 22.63 0 0 1 1.078-.453v-.502c0-.285-.017-.522-.05-.71-.032-.187-.101-.326-.208-.415-.097-.098-.248-.147-.452-.147a.74.74 0 0 0-.44.122.696.696 0 0 0-.233.355 1.674 1.674 0 0 0-.074.526v.355l-1.297-.049c.016-.783.196-1.358.538-1.726.343-.375.873-.563 1.591-.563.702 0 1.2.192 1.494.576.293.383.44.938.44 1.664v3.231c0 .22.004.433.012.637.017.204.033.396.05.575.024.171.044.335.06.49H55.48a25.71 25.71 0 0 0-.098-.49 9.449 9.449 0 0 1-.073-.55 1.908 1.908 0 0 1-.478.783c-.228.236-.546.355-.954.355Zm.515-1.126a.67.67 0 0 0 .367-.11c.114-.074.216-.156.306-.245.09-.098.15-.176.184-.233V14.85c-.204.114-.396.228-.576.343-.18.114-.338.236-.477.367-.13.122-.237.265-.318.428-.074.155-.11.335-.11.539 0 .285.053.51.159.673a.52.52 0 0 0 .465.245Z" fill="#fff"/></svg>