<svg width="101" height="85" fill="none" xmlns="http://www.w3.org/2000/svg"><path fill-rule="evenodd" clip-rule="evenodd" d="M80.293 66.022c.79-.933 1.613-1.848 1.59-3.188-.017-.977-.008-1.955-.032-2.932-.074-2.99-.164-5.98-.238-8.971-.069-2.77-.049-5.54-.012-8.31.007-.51.078-.89.646-1.09.498-.172.635-.647.628-1.15-.022-1.446-.03-2.893-.07-4.338-.012-.419.074-.609.536-.49 1.666.429 3.262-.236 4.893-.347a12.966 12.966 0 0 0 5.777-1.77c3.773-2.224 5.888-5.596 6.567-9.857.623-3.914-.08-7.652-2.167-11.015-1.186-1.91-2.568-3.705-3.79-5.604-1.124-1.751-2.875-2.296-4.86-2.446-2.683-.204-5.37-.212-8.054-.29-3.969-.112-7.936-.213-11.903-.332-.944-.028-.938-.052-1.115-.967-.109-.559-.215-1.119-.367-1.666C68.17.707 67.786.352 67.218.24c-1.348-.262-2.712-.288-4.073-.185-.633.048-1.016.465-1.186 1.073-.213.76-.122 1.538-.11 2.309.004.39-.065.556-.517.596-3.237.282-6.47-.001-9.705-.035-2.728-.03-5.456-.153-8.184-.123-2.169.024-3.615 1.386-4.694 3.079-1.45 2.278-2.76 4.646-4.134 6.974-.98 1.663-1.973 3.318-2.946 4.986-.432.74-.768 1.524-.898 2.38-.036.248-.134.409-.379.495-1.618.57-2.737 1.736-3.602 3.152-.57.934-1.324 1.55-2.361 1.893-1.343.444-2.706 1.012-3.59 2.109-.95 1.18-2.216 1.528-3.502 2.007-1.35.502-2.523 1.388-3.875 1.911-1.097.426-2.244.714-3.307 1.235-.606.297-1.165.66-1.728 1.026-.57.371-.822.892-.785 1.55.113 1.97.243 3.94.36 5.91.036.609.337 1.048.868 1.297.494.231.742.569.795 1.114.257 2.633.52 5.264.807 7.893.375 3.42.759 6.837 1.17 10.251.185 1.524.217 1.5-1.3 1.701-1.269.17-2.531.4-3.772.73-.97.26-1.441.787-1.475 1.618-.05 1.204.312 1.812 1.35 2.175.557.194 1.132.33 1.699.492 1.81.745 3.686.736 5.58.463.525-.076.902-.392 1.086-.884.25-.67.226-.785 1.2-.595 2.34.458 4.659 1.016 6.98 1.56 7.72 1.806 15.47 3.467 23.268 4.906 2.263.418 4.526.85 6.786 1.288.605.118 1.215.123 1.821.186 1.286.136 2.424.678 3.551 1.26 1.428.734 2.859.695 4.289-.005.606-.295 1.176-.651 1.751-.999 2.808-1.697 5.661-3.32 8.365-5.184 2.08-1.435 4.179-2.844 6.172-4.4.511-.398 1.044-.79 1.3-1.428Z" fill="#010101"/><path fill-rule="evenodd" clip-rule="evenodd" d="M80.29 66.022c-4.117 3.68-8.803 6.545-13.487 9.414-1.179.722-2.386 1.4-3.563 2.123-1.711 1.055-3.425 1.137-5.187.124-1.271-.733-2.647-1.035-4.118-1.15-1.428-.113-2.836-.472-4.248-.745-4.337-.835-8.678-1.654-13.006-2.53-5.043-1.022-10.052-2.195-15.066-3.347-2.072-.475-4.134-.996-6.228-1.372-.323-.058-.446.007-.515.303-.224.973-.842 1.314-1.837 1.409-1.67.16-3.275-.104-4.892-.397.39.282.291.793.584 1.16.838 1.053 1.995 1.316 3.21 1.518.858.142 1.696.009 2.53-.145.632-.117 1.056-.59 1.487-1.013.232-.228.393-.314.724-.156a22.095 22.095 0 0 0 6.744 1.985c2.09.264 4.165.645 6.27.816 1.957.159 3.896.527 5.853.684 2.33.188 4.622.613 6.914 1.016 2.476.436 5 .588 7.436 1.222 1.447.377 2.909.731 4.25 1.452 2.154 1.156 4.445 1.676 6.877 1.205.892-.173 1.738-.56 2.557-.97 1.561-.778 3.16-1.48 4.662-2.38 1.331-.798 2.79-1.315 4.273-1.766 1.752-.532 3.391-1.362 4.761-2.523 1.114-.945 2.227-1.981 2.984-3.28.498-.854.338-1.767.03-2.657Z" fill="#C8C8C8"/><path fill-rule="evenodd" clip-rule="evenodd" d="M86.546 79.13c-.373-.935-1.169-1.29-2.066-1.51-.157-.038-.312-.107-.47-.122-.79-.075-1.212-.455-1.286-1.285-.052-.584-.485-1-1.002-1.225-2.744-1.189-5.541-1.516-8.395-.381-.732.293-1.09.888-1.175 1.643-.08.708.292 1.182.865 1.553.838.544 1.81.68 2.742.93.253.067.376.131.256.387-.572 1.218.043 2.072 1.324 2.36.056.013.105.061.156.094.444.396 1.02.367 1.551.462 2.054.367 4.086.165 6.1-.293.82-.185 1.387-.658 1.576-1.51.087-.388.085-.766-.176-1.102Z" fill="#020102"/><path fill-rule="evenodd" clip-rule="evenodd" d="M1.787 76.923c.06.69.44 1.207 1.029 1.483 1.683.787 3.437 1.325 5.331 1.214 1.533-.089 2.967-.931 3.38-2.465.307-1.145-.257-2.293-1.43-2.67-.17.154-.165.367-.172.567-.039.96-.587 1.539-1.428 1.87-1.326.52-2.71.523-4.098.382a11.198 11.198 0 0 1-1.974-.405c-.211-.061-.433-.152-.638.024ZM86.55 79.13c.021.243.065.486.06.728-.014.86-.539 1.511-1.456 1.716-2.425.54-4.86.676-7.296.048-.116-.03-.24-.032-.36-.048.395 1.25 1.37 1.955 2.66 1.974 1.236.017 2.47.073 3.707.106.985.026 1.933-.207 2.86-.493 1.086-.334 1.907-1.787 1.509-2.686-.317-.714-.9-1.175-1.685-1.344Z" fill="#C8C8C8"/><path fill-rule="evenodd" clip-rule="evenodd" d="M89.364 69.873c-1.906-.176-3.77.01-5.577.668-.824.3-1.273.81-1.29 1.507-.02.748.385 1.314 1.228 1.621 2.002.728 4.023 1.39 6.202 1.21.786-.065 1.576-.123 2.352-.255.69-.117 1.25-.49 1.486-1.193.272-.805-.024-1.458-.605-2.015-.098-.283-.31-.475-.554-.62-.997-.595-2.03-1.079-3.242-.923Z" fill="#5F5F5F"/><path fill-rule="evenodd" clip-rule="evenodd" d="M25.246 77.048c.375-.805.148-1.5-.425-2.103-1.114-1.176-2.566-1.641-4.107-1.932-1.334-.25-2.67-.186-4.008-.109-1.05.06-2.434 1.44-2.546 2.492-.064.608.166 1.09.61 1.513.898.857 2.023 1.246 3.159 1.63a1 1 0 0 0 .406.254c1.76.542 3.519.556 5.243-.114.762-.297 1.424-.77 1.668-1.631Z" fill="#020102"/><path fill-rule="evenodd" clip-rule="evenodd" d="M1.79 76.922c1.465.437 2.953.683 4.488.596.548-.032 1.089-.073 1.623-.207 1.665-.415 2.215-1.118 2.2-2.827-.27-.716-.848-1.08-1.5-1.416-2.56-1.326-5.06-1.216-7.551.183-.663.372-1.075.876-1.056 1.64.02.795.388 1.39 1.15 1.706.223.093.432.217.647.326Zm51.328 2.842c-.945-1.692-2.587-2.164-4.324-2.447-1.568-.256-3.114-.106-4.635.346-.646.192-1.171.522-1.442 1.189-.405.995-.198 1.712.73 2.29.707.44 1.484.731 2.262 1.015.143.158.337.235.532.275 1.99.424 3.953.344 5.874-.358a2.476 2.476 0 0 0 1.127-.806c.405-.522.357-1.03-.124-1.504Z" fill="#020202"/><path fill-rule="evenodd" clip-rule="evenodd" d="M53.114 79.763c.396 1.045.28 1.448-.737 1.966-1.335.681-2.793.806-4.266.769-.813-.02-1.61-.185-2.406-.341.767 1.161 1.865 1.795 3.235 1.858 1.01.044 2.03.094 3.04-.102 1.172-.231 2.153-.833 3.033-1.588.47-.403.646-1.028.373-1.618-.274-.592-.737-1.022-1.48-.967-.264.02-.528.016-.792.023Z" fill="#C8C8C8"/><path fill-rule="evenodd" clip-rule="evenodd" d="M97.04 68.224c.378-.9.218-1.707-.6-2.151-2.54-1.377-5.166-1.867-7.897-.512-.584.29-.999.719-.986 1.405.014.68.448 1.1 1.019 1.4.141.072.286.14.43.213.153.254.424.288.677.36 1.177.326 2.387.543 3.596.59 1.202.05 2.342-.404 3.443-.883.175-.076.276-.234.318-.422Z" fill="#020202"/><path fill-rule="evenodd" clip-rule="evenodd" d="M25.24 77.048c-1.543 2.068-3.683 2.176-5.962 1.8-.456-.076-.904-.204-1.355-.308.043 1.14.542 1.754 1.623 2.049.921.25 1.85.384 2.809.395 1.3.014 2.297-.548 3.105-1.504.517-.612.386-1.881-.22-2.432Zm71.805-8.824c-.602.576-1.417.633-2.154.875-1.88.621-3.664-.053-5.47-.423-.138-.029-.275-.064-.412-.097-.127.497.092.9.352 1.295 1.413.15 2.72.563 3.795 1.542.188-.185.424-.094.639-.103.686-.03 1.368-.03 2.056-.138 1.43-.221 2.02-2.01 1.194-2.951Z" fill="#C8C8C8"/><path fill-rule="evenodd" clip-rule="evenodd" d="M53.962 8.305c4.44.03 8.88.12 13.319.187 3.38.051 6.762.02 10.14.097 3.277.076 6.554.145 9.829.236.648.019 1.294.114 1.937.203.314.043.496-.065.643-.33.421-.759.344-1.978-.171-2.668-.351-.47-.855-.61-1.394-.63-1.669-.062-3.338-.09-5.005-.153-2.97-.114-5.942-.157-8.91-.275-3.709-.149-7.406.044-11.11.113-2.338.044-4.679.039-7.017.04-4.076.003-8.15.015-12.225-.022-1.657-.017-2.816.664-3.796 1.997-2.272 3.085-3.922 6.516-5.739 9.856-.544 1-1.157 1.965-1.752 2.938-.193.316-.322.655-.443 1.002-.04.117-.053.252.055.34.113.092.229.028.335-.042.394-.256.762-.54 1.092-.878 1.324-1.355 2.9-2.219 4.805-2.41a4.754 4.754 0 0 1 1.034-.004c.967.115 1.474-.137 1.938-1.004 1.105-2.063 2.21-4.126 3.327-6.183.204-.374.449-.729.7-1.073.598-.817 1.444-1.125 2.428-1.202 1.992-.15 3.986-.162 5.98-.135Z" fill="#7A4C10"/><path fill-rule="evenodd" clip-rule="evenodd" d="M10.953 46.477c.173 1.782.346 3.565.517 5.346.235 2.452.459 4.904.707 7.355.212 2.066.598 4.105 1.052 6.132.244 1.09.93 1.743 2.007 1.965 3.704.764 7.4 1.566 11.078 2.444 8.804 2.102 17.673 3.888 26.575 5.525.823.152 1.65.274 2.478.31 1.04.042 2.007.279 2.918.774.23-.228.192-.526.194-.807.009-1.12.033-2.24-.003-3.36-.07-2.147.126-4.26.5-6.377.278-1.562.31-3.164.095-4.743-.261-1.918-.35-3.853-.587-5.771-.082-.66-.192-.797-.843-.78-.678.018-1.384-.196-2.03.187.143 2.66.307 5.32.423 7.982.122 2.823.474 5.64.19 8.475-.132 1.32-.523 1.699-1.844 1.53-2.967-.379-5.89-1.005-8.832-1.538-5.541-1.004-10.981-2.47-16.48-3.666-2.76-.6-5.567-.974-8.311-1.657-2.607-.65-4.55-2.034-5.278-4.756-.294-1.105-.338-2.252-.457-3.384-.36-3.44-.685-6.883-1.025-10.325.008-.464-.215-.666-.684-.705-.559-.048-1.116-.148-1.67-.244-.237-.041-.479-.092-.69.088Z" fill="#F3C058"/><path fill-rule="evenodd" clip-rule="evenodd" d="M55.614 54.675c.753 0 1.508.005 2.261-.004.272-.003.391.076.42.374.197 1.994.34 3.993.585 5.983.304 2.455-.017 4.892-.521 7.3a3.75 3.75 0 0 0-.068.787c-.004 2.404-.003 4.807-.004 7.211 1.218.955 2.56 1.046 4.03.178 1.996-1.181 3.97-2.4 5.938-3.628 3.003-1.875 6.062-3.664 8.905-5.785a20.226 20.226 0 0 0 2.21-1.922c.851-.847 1.325-1.864 1.31-3.057-.047-3.237-.156-6.471-.187-9.709-.019-1.953.062-3.908.102-5.862.013-.713.038-1.424.058-2.135-.339-.206-.626.014-.915.128-1.698.662-1.702.667-1.693 2.465.002.524-.056 1.051.041 1.574.04 3.97.16 7.939.132 11.91-.006.796-.254 1.391-.83 1.934-1.58 1.493-3.436 2.603-5.215 3.815-2.621 1.789-5.254 3.564-8.003 5.15-1.755 1.014-1.63.722-1.797-.967-.178-1.798-.125-3.618-.17-5.428-.09-3.52-.177-7.039-.265-10.558-.1-.64-.165-.69-.774-.51a14.1 14.1 0 0 1-2.148.445c-.44.059-.679-.085-.712-.58-.026-.399-.01-.903-.631-.928-.562-.058-1.128-.092-1.684-.186-.302-.05-.393.05-.426.32-.07.566.055 1.124.051 1.685ZM79.54 35.08c-1.913.737-3.882 1.326-5.75 2.188a4077.75 4077.75 0 0 1-14.356 6.586c-.49.224-.723.53-.67 1.085.184 1.884.343 3.77.515 5.655.043.472.25.62.739.457 2.443-.815 4.736-1.964 6.972-3.211 4.516-2.52 9.213-4.67 13.858-6.927.698-.34 1.028-.733.954-1.542-.143-1.54-.2-3.087-.292-4.63-.076-.177-.222-.25-.386-.17-.505.243-1.074.283-1.584.51Z" fill="#BF9745"/><path fill-rule="evenodd" clip-rule="evenodd" d="M34.213 42.05c.632.334 1.24.694 1.721 1.235.393.417.953.613 1.359.996.578.544.873 1.241.908 2.056.023.536.004 1.09.29 1.583 4.485.78 8.9 1.906 13.365 2.78 1.915.376 3.84.693 5.778.923.456.054.647-.036.697-.537.179-1.823-.146-3.606-.34-5.403-.072-.685-.354-.943-1.01-1.091-3.967-.895-7.973-1.574-11.977-2.266-3.305-.572-6.616-1.108-9.944-1.531-.24-.031-.485-.034-.727-.05-.055.433-.123.866-.12 1.305Z" fill="#F3C058"/><path fill-rule="evenodd" clip-rule="evenodd" d="M26.741 61.766c-2.031-.598-4.104-1-6.19-1.34-1.101-.178-2.196-.407-3.314-.487-.434-.03-.566.135-.571.549-.008.602.097 1.113.632 1.498.235.17.373.474.562.713 1.03 1.299 2.438 1.953 4.019 2.234 3.841.68 7.696 1.321 11.463 2.342 6.406 1.737 12.97 2.688 19.463 4 .593.12 1.215.096 1.82.153.354.034.513-.059.5-.459a40.709 40.709 0 0 1-.003-2.568c.008-.347-.087-.48-.45-.558-2.942-.615-5.873-1.295-8.82-1.89a511.298 511.298 0 0 1-12.936-2.77c-.177-.04-.36-.057-.54-.085-.83-.02-1.626.253-2.463.226-.965-.032-1.766-.368-2.449-1.02a3.074 3.074 0 0 0-.723-.538Z" fill="#AE6A03"/><path fill-rule="evenodd" clip-rule="evenodd" d="M90.935 5.916c.655 1.475.325 2.843-.186 4.2-2.13 5.668-4.42 11.273-6.714 16.878-.424 1.038-1 2-1.571 2.961-.734 1.239-1.882 1.536-3.215 1.325a9.565 9.565 0 0 0-1.277-.099c-.172-.005-.389-.07-.446.19-.047.214-.001.427.192.54.19.11.405.188.62.243.903.236 1.81.461 2.716.686.53.132.955.41 1.33.813.878.942 2 1.079 3.196.872.561-.097.76-.577.955-1.024a555.846 555.846 0 0 0 2.51-5.824 270.265 270.265 0 0 0 4.59-11.625c.61-1.648.9-3.374 1.266-5.082.136-.64-.01-1.247-.26-1.839-.44-1.035-1.223-1.818-1.963-2.624-.42-.457-1.023-.55-1.743-.591Z" fill="#BF9745"/><path fill-rule="evenodd" clip-rule="evenodd" d="M69.476 12.963c-3.804.155-7.612.207-11.417.103-2.217-.06-4.435-.072-6.652-.12-.77-.018-1.529-.169-2.303-.006-.348.073-.399.197-.256.491.266.548.507 1.11.78 1.655.209.415.647.408 1.015.43 1.886.105 3.774.178 5.662.266 2.678.125 5.359.225 8.035.39 2.714.165 5.422.396 8.133.596 3.458.254 6.906.58 10.323 1.192.997.18 2 .317 3 .488.306.053.498-.017.62-.322.537-1.339 1.085-2.674 1.63-4.009.248-.606-.297-.488-.53-.51a44.022 44.022 0 0 0-2.74-.147c-2.478-.077-4.954-.232-7.435-.29-.952-.022-1.909-.088-2.863-.077-1.67.02-3.331-.215-5.002-.13Z" fill="#5B3802"/><path fill-rule="evenodd" clip-rule="evenodd" d="M50.94 18.295c1.645-.207 3.253-.329 4.859.152 1.008.301 2.006.65 2.781 1.34.94.834 2.044.909 3.174 1 2.508.207 5.014.427 7.524.597a89.88 89.88 0 0 1 6.111.63c2.81.383 5.642.626 8.395 1.36.39.105.566.065.712-.35a54.467 54.467 0 0 1 1.2-3.065c.158-.372.076-.547-.273-.71-.862-.403-1.797-.497-2.713-.645-1.9-.305-3.805-.583-5.713-.838a40.572 40.572 0 0 0-2.91-.264c-2.372-.141-4.747-.237-7.12-.392a424.457 424.457 0 0 0-6.079-.37c-2.21-.115-4.42-.27-6.63-.39-.909-.051-1.832.018-2.731-.187-.078-.018-.163-.007-.245-.008-1.11-.008-1.142.03-.935 1.096.046.239.086.479.148.714.06.237.169.427.444.33Zm12.582-5.808c5.05-.206 10.101-.184 15.151-.111 2.946.043 5.883.363 8.833.372.71.001 1.108-.226 1.31-.88.12-.388.255-.773.412-1.148.162-.386-.011-.506-.36-.557-1.955-.282-3.917-.369-5.892-.4-3.007-.05-6.018-.027-9.021-.135-3.113-.113-6.223-.262-9.336-.182-3.067.078-6.134-.014-9.197-.071a245.572 245.572 0 0 0-5.736-.058 11.02 11.02 0 0 0-2.115.208c-.357.073-.452.2-.287.534.217.436.428.879.608 1.331.183.458.548.648.987.706.524.067 1.052.111 1.578.122 3.074.058 6.149.076 9.221.166 1.282.036 2.563.105 3.844.103Z" fill="#5B3802"/><path fill-rule="evenodd" clip-rule="evenodd" d="M21.24 39.012c-2.043-.305-4.107-.457-6.137-.856-.895-.174-1.795-.32-2.687-.503a2.612 2.612 0 0 1-1.575-.96c-.345-.535-.844-.761-1.47-.737-.426.286-.466.735-.483 1.184-.031.898.11 1.785.17 2.677.036.547.09 1.095.086 1.643-.008 1.124.19 1.403 1.302 1.582 1.844.297 3.693.574 5.539.856 2.83.43 5.664.847 8.494 1.293.5.08.759.004.928-.538.377-1.22.991-2.278 2.337-2.677.25-.074.398-.276.516-.493.242-.445.473-.895.709-1.343 0-.292-.258-.232-.398-.246-1.046-.1-2.092-.212-3.136-.331a97.244 97.244 0 0 1-4.195-.551Z" fill="#F3C058"/><path fill-rule="evenodd" clip-rule="evenodd" d="M9.363 35.956c.512.2 1.028.394 1.469.738.22-.27.481-.12.72-.053 2.77.797 5.624 1.091 8.477 1.385 3.197.33 6.391.68 9.581 1.076 4.36.539 8.697 1.222 13.02 1.998 3.678.66 7.353 1.348 11.032 2.002 1.04.184 2.078.394 3.137.453 1.038.13 1.252-.147.84-1.108-.142-.335-.352-.638-.486-.976-.109-.274-.34-.313-.58-.353-3.869-.634-7.736-1.276-11.606-1.9a256.558 256.558 0 0 0-11.232-1.553c-3.776-.44-7.55-.89-11.33-1.296-2.405-.258-4.817-.45-7.228-.654-.958-.08-1.208-.227-1.511-1.2-.128-.413-.27-.533-.715-.409-1.33.368-2.564.902-3.588 1.85Z" fill="#A7853D"/><path fill-rule="evenodd" clip-rule="evenodd" d="M33.964 62.613c2.534.678 5.107 1.179 7.672 1.708 4.275.882 8.57 1.672 12.82 2.663.539.126.689-.028.667-.545-.036-.852-.014-1.705-.085-2.56-.05-.576-.325-.877-.803-1.006a35.385 35.385 0 0 0-2.55-.592c-4.867-.946-9.735-1.878-14.603-2.813-.139-.026-.284-.024-.426-.034-.203-.064-.234.11-.297.224-.554 1.003-1.199 1.926-2.18 2.566-.13.084-.278.186-.215.39Z" fill="#AE6A03"/><path fill-rule="evenodd" clip-rule="evenodd" d="M23.751 53.282c-.005 1.926.468 3.702 1.763 5.184 1.464 1.675 4.405 2.058 6.584.88 2.116-1.142 3.887-4.592 3.607-6.977-.035-.297-.127-.426-.4-.499-1.922-.517-3.847-1.022-5.826-1.275-.321-.041-.655-.094-.971-.053-1.063.142-2.098.082-3.114-.279-.526-.186-.845.078-1.063.543a6.146 6.146 0 0 0-.58 2.476Z" fill="#E0C472"/><path fill-rule="evenodd" clip-rule="evenodd" d="M82.272 27.409c.289.04.441-.078.547-.355.29-.759.597-1.512.924-2.257.154-.349.088-.504-.288-.612-1.754-.508-3.535-.884-5.333-1.196-1.658-.287-3.326-.494-4.996-.684-1.37-.156-2.741-.293-4.116-.4a366.724 366.724 0 0 0-6.679-.457c-.564-.033-1.134.05-1.7.08-.105.005-.213.02-.235.145-.034.195.128.25.256.282.609.149 1.22.303 1.837.411 1.217.21 2.262.782 3.218 1.524 1.04.807 2.156 1.3 3.463 1.639 2.115.55 4.256.81 6.398 1.1 1.907.259 3.826.433 5.74.65.322.034.643.084.964.13Z" fill="#5B3802"/><path fill-rule="evenodd" clip-rule="evenodd" d="M36.892 58.69c3.758.888 7.569 1.507 11.36 2.218 2.056.386 4.107.802 6.156 1.223.42.087.638.088.573-.452a16.752 16.752 0 0 1-.104-2.072c.002-.359-.183-.446-.458-.505a262.556 262.556 0 0 0-8.909-1.736c-2.32-.404-4.643-.797-6.966-1.19-.18-.031-.364-.034-.546-.05-.386-.144-.61 0-.72.386-.14.484-.322.955-.464 1.439-.073.254-.14.513.078.74Z" fill="#AE6A03"/><path fill-rule="evenodd" clip-rule="evenodd" d="M88.74 33.893c2.784-.496 5.319-1.483 7.29-3.617 2.283-2.468 3.603-5.358 3.683-8.738.067-2.727-.495-5.332-1.835-7.739-.377-.674-.743-1.354-1.132-2.022-.078-.135-.122-.374-.387-.299-.196.056-.3.193-.367.376-.381 1.022-.474 1.91.24 2.956 2.198 3.22 2.043 6.71.759 10.219-.922 2.516-2.537 4.478-4.928 5.752-.731.39-1.527.543-2.348.595-1.412.087-1.78 1-1.89 1.998-.069.628.574.367.915.52Z" fill="#BF9745"/><path fill-rule="evenodd" clip-rule="evenodd" d="M63.204 67.47c.044.913.108 1.746.113 2.58.005.507.142.534.55.297 2.505-1.449 4.911-3.052 7.34-4.621 1.749-1.13 3.28-2.545 4.985-3.734.76-.533.861-1.385.814-2.253-.021-.384-.254-.222-.427-.171-1.096.327-2.136.797-3.146 1.326-3.208 1.683-6.39 3.416-9.503 5.275-.583.349-.928.684-.726 1.3Z" fill="#8F5704"/><path fill-rule="evenodd" clip-rule="evenodd" d="M54.734 56.918c0-1.286.005-1.313-1.267-1.574-3.822-.782-7.668-1.417-11.522-2.014-1.485-.23-2.98-.404-4.466-.622-.451-.066-.578.087-.633.534-.191 1.566-.19 1.6 1.371 1.933 5.127 1.09 10.283 2.031 15.451 2.899 1.064.177 1.066.163 1.066-1.156Z" fill="#AE6A03"/><path fill-rule="evenodd" clip-rule="evenodd" d="M63.183 65.537c1.808-.766 3.423-1.709 5.076-2.576 2.63-1.383 5.183-2.91 7.892-4.14.599-.272.907-.718.87-1.4-.03-.507-.05-1.02-.007-1.525.05-.576-.203-.494-.552-.32-.437.218-.879.425-1.315.643-3.605 1.8-7.298 3.419-10.817 5.393-.821.461-1.265 1.019-1.16 1.995.066.604.013 1.22.013 1.93Zm13.695-16.152c0-.17.004-.354 0-.537-.022-.86-.114-.94-.91-.57a190.028 190.028 0 0 0-4.451 2.155c-2.46 1.223-4.898 2.495-7.375 3.682-.83.398-1.283.882-1.076 1.83.047.217.055.443.092.663.133.8.2.845.964.478 3.964-1.898 7.92-3.815 11.891-5.7.906-.43 1.005-1.142.865-2ZM63.354 61.25c4.382-2.231 8.918-4.012 13.082-6.548.487-.296.657-.653.666-1.18.01-.567-.16-1.125.054-1.825-.76.333-1.392.593-2.008.883-3.383 1.592-6.805 3.107-10.122 4.835-2.11 1.1-2.151 1.287-1.672 3.834Z" fill="#8E5704"/><path fill-rule="evenodd" clip-rule="evenodd" d="M56.581 41.117c.656.55.916 1.307 1.09 2.102.05.226-.102.322-.323.321-.18-.001-.36.01-.541.014.629.283 1.205.023 1.755-.218 2.085-.913 4.15-1.876 6.237-2.784 2.985-1.299 5.837-2.884 8.86-4.1a68.612 68.612 0 0 1 4.879-1.753c.702-.223.98-.11 1.008.382.558.091 1.063-.093 1.54-.343.169-.09.286-.099.43.003-.029-.387-.235-.687-.594-.764-.947-.206-1.848-.624-2.844-.602-.512.011-.961.137-1.305.542-.52.615-1.294.745-1.992.99a503.43 503.43 0 0 0-15.702 5.8c-.805.314-1.628.505-2.498.41Z" fill="#846930"/><path fill-rule="evenodd" clip-rule="evenodd" d="M46.82 22.45c-.468 0-.937-.01-1.404.003-.982.028-1.685.5-2.16 1.352-.168.301-.134.489.112.736 1.068 1.073 2.348 1.647 3.854 1.735 1.378.08 2.76.154 4.139.243.89.06 1.68-.183 2.408-.69.293-.205.39-.364.213-.735-.578-1.203-1.452-1.974-2.802-2.184-1.447-.224-2.892-.444-4.36-.46Z" fill="#F78682"/><path fill-rule="evenodd" clip-rule="evenodd" d="M54.517 54.56c.225-.55.148-1.12.058-1.67-.07-.432-.473-.581-.864-.667-1.485-.326-2.97-.656-4.458-.966-3.809-.795-7.623-1.57-11.429-2.383-.575-.122-1.027-.044-1.467.327-.292.248-.617.456-.929.68-.171.328.057.514.277.644.295.174.648.343.984.202.86-.36 1.662-.067 2.5.099 2.018.398 4.01.888 5.965 1.525.677.221 1.393.312 2.094.4 2.254.284 4.363 1.148 6.581 1.563.245.046.459.167.688.245Z" fill="#794902"/><path fill-rule="evenodd" clip-rule="evenodd" d="M76.752 46.963c.25-.416.072-.873.128-1.307.026-.201.027-.406.055-.606.037-.255.191-.573-.06-.735-.235-.153-.556-.072-.82.067-.757.397-1.512.798-2.267 1.2-3.519 1.876-7.032 3.764-10.564 5.617-.474.25-.586.521-.49 1.013.082.414.059.85.091 1.275.01.144-.034.376.252.23.093-.345.448-.312.676-.46 1.432-.927 2.983-1.666 4.357-2.695.95-.712 2.029-1.209 3.132-1.633 1.635-.63 3.25-1.297 4.776-2.163.356-.205.58-.21.734.197Z" fill="#633C03"/><path fill-rule="evenodd" clip-rule="evenodd" d="M59.148 22.067c-1.34-1.803-3.081-2.646-5.238-2.633-.957.006-1.915-.024-2.867.122-.817.125-1.318.828-1.161 1.632.074.373.337.52.68.604 1.303.32 2.603.649 3.903.98.372.095.751.198.88.683l-1.023.115c.353 1.141 1.008 1.45 2.033.99.116-.05.219-.1.251-.239.269-1.134 1.224-1.556 2.12-2.037.125-.066.252-.13.422-.217Z" fill="#FCDC4E"/><path fill-rule="evenodd" clip-rule="evenodd" d="M42.684 17.346c.963.113 1.824-.103 2.695-.116 1.372-.02 2.629.44 3.918.78.113.031.233.128.342.035.127-.108.004-.222-.032-.327a70.546 70.546 0 0 0-2.691-6.59c-.325-.693-.344-.704-.813-.08-.823 1.093-1.407 2.325-2.01 3.546-.447.906-.92 1.799-1.41 2.752Z" fill="#5B3802"/><path fill-rule="evenodd" clip-rule="evenodd" d="M70.602 35.088c-.672-.435-1.273-.812-1.861-1.209-1.064-.717-1.88-1.577-1.644-3.01.021-.122.01-.23-.12-.312-1.27-.824-2.56-1.6-4.125-1.698-.892-.058-1.351.23-1.728 1.049-.382.838-.3 1.647.287 2.203.708.671 1.511 1.169 2.535 1.191 2.009.043 3.796.826 5.562 1.673.498.24.492.252 1.094.113Z" fill="#FCDC4E"/><path fill-rule="evenodd" clip-rule="evenodd" d="M15.078 48.521c.061.75.137 1.499.179 2.251.018.322.168.453.46.54a50.65 50.65 0 0 0 6.17 1.436c.341.057.474-.013.56-.331.212-.785.428-1.57.683-2.34.114-.346-.01-.5-.302-.596-.211-.071-.426-.161-.643-.176-2.198-.166-4.316-.805-6.493-1.075-.244-.03-.63-.26-.614.291Z" fill="#AE6A03"/><path fill-rule="evenodd" clip-rule="evenodd" d="M96.108 17.458c.027-.668-.303-1.185-.714-1.644-.313-.349-.344.07-.407.22-.49 1.161-.965 2.328-1.441 3.495-1.368 3.348-2.725 6.7-4.107 10.043-.196.475-.153.643.399.649.575.007.975-.188 1.23-.708 1.135-2.298 2.103-4.67 3.153-7.007.575-1.278 1.094-2.581 1.644-3.872.163-.38.253-.77.243-1.176Z" fill="#8E5704"/><path fill-rule="evenodd" clip-rule="evenodd" d="M54.516 54.558c-.02-.206-.117-.344-.336-.368-1.806-.203-3.455-1.064-5.244-1.3-3.509-.463-6.82-1.749-10.284-2.404-.693-.13-1.296-.114-1.944.06-.65.177-1.012-.029-1.28-.665-.813.087-1.595.106-1.987-.82-.715-.388-1.53-.335-2.292-.52a6.421 6.421 0 0 0-1.143-.157c-.245-.015-.488-.008-.686.175-.24.478-.116.745.427.862 1.986.429 3.967.882 5.952 1.32.607.133 1.139.364 1.603.811.518.497 1.263.401 1.908.523 4.634.873 9.274 1.713 13.915 2.546.454.082.94.22 1.39-.063Z" fill="#AE6903"/><path fill-rule="evenodd" clip-rule="evenodd" d="M26.023 60.775c-.947-1.042-1.841-2.09-2.795-3.084-.438-.456-1.072-.453-1.648-.547-1.542-.253-3.087-.484-4.631-.721-.75-.116-.853-.027-.856.729l.001.428c.006 1.006.217 1.288 1.224 1.494 1.869.38 3.743.738 5.614 1.103 1.032.202 2.062.4 3.091.598Z" fill="#AE6A03"/><path fill-rule="evenodd" clip-rule="evenodd" d="M24.414 34.49v-.121c-.009-1.122-.262-1.353-1.356-1.178a2.654 2.654 0 0 1-1.658-.246c-.296-.148-.595-.341-.739-.622-.444-.868-1.131-.854-1.922-.64-1.294.347-2.354 1.084-3.34 1.951-.228.2-.384.495-.308.75.06.202.394.09.605.11 2.655.248 5.308.494 7.964.729.754.066.755.049.754-.732Z" fill="#FCDC4E"/><path fill-rule="evenodd" clip-rule="evenodd" d="m15.57 53.263.001.06c.05 1.863.178 2.043 1.976 2.384 1.512.286 3.037.518 4.557.776.439.074.659-.071.597-.555-.069-.523-.113-1.049-.16-1.574-.044-.522-.34-.803-.836-.9-1.85-.366-3.698-.74-5.549-1.094-.565-.109-.603-.033-.586.903Z" fill="#AE6A03"/><path fill-rule="evenodd" clip-rule="evenodd" d="M68.303 31.418c-.26.073-.294.259-.223.477.067.212.136.428.239.624.77 1.464 3.76 2.327 5.18 1.485.585-.346 1.23-.518 1.857-.75.529-.196 1.043-.451 1.117-1.086.075-.636-.227-1.135-.73-1.518a4.637 4.637 0 0 0-1.636-.786c-.465-.123-.885-.149-1.07.444-.06.187-.207.345-.313.518a.697.697 0 0 0-.11.215c-.299.953-.51 1.104-1.507 1.078-.744-.02-1.421-.302-2.106-.548-.227-.08-.444-.199-.698-.153ZM41.922 21.89l-.572-.778c-.259-.354-.482-.744-.33-1.182.142-.408-.018-.509-.367-.62-2.317-.746-5.163.408-6.324 2.557-.227.417-.175.644.265.817.317.125.616.298.924.45.508.11 1.011.174 1.486-.12.261-.467.697-.579 1.187-.586.302-.004.607.005.911.015.351.093.685.01 1.008-.117.584-.229 1.254-.102 1.812-.435Zm-11.228 7.712c.966-.02 1.61-.377 2.098-1 .298-.38.292-.794-.046-1.167a4.34 4.34 0 0 0-1.307-.987c-.913-.448-1.835-.873-2.74-1.336-.306-.155-.48-.163-.685.16-.47.737-.993 1.44-1.482 2.164-.317.47-.262.901.206 1.065 1.342.466 2.714.837 3.956 1.101Z" fill="#FCDC4E"/><path fill-rule="evenodd" clip-rule="evenodd" d="M25.018 49.027c.261-.79.069-1.595.086-2.394.006-.264-.263-.253-.459-.298-1.579-.364-3.185-.577-4.784-.824-1.46-.226-2.928-.405-4.388-.638-.369-.058-.518-.021-.494.391.034.609.019 1.218.026 1.829 1.175.337 2.388.424 3.596.547 1.823.187 3.655.128 5.484.129.695 0 .697-.001.753.692.017.203.022.407.18.566Z" fill="#794902"/><path fill-rule="evenodd" clip-rule="evenodd" d="M50.535 36.115c.491-.026.978-.032 1.456-.155.302-.078.57-.218.789-.439.494-.498.47-.722-.075-1.155-1.222-.974-2.595-1.464-4.171-1.41-.889.031-1.775-.202-2.67-.053-.239.04-.483.073-.713.148-.327.107-.561.314-.606.687-.045.375.141.614.44.797a10.09 10.09 0 0 0 3.915 1.423c.541.075 1.09.105 1.635.157Zm4.944-6.533c.905.234 1.804.494 2.716.697 1.13.25 1.527.065 2.154-.898.643-.987.643-.987-.412-1.555-.853-.46-1.574-1.084-2.201-1.817-.344-.4-.763-.591-1.293-.538-.807.08-.993.279-1.099 1.1-.057.443-.162.878-.246 1.316.166.398.265.805.18 1.243-.037.187-.017.367.201.452Zm10.869-2.317c.17-.428.026-.79-.223-1.14-1.258-1.777-2.964-2.73-5.147-2.825-.426-.019-.85-.074-1.275-.103-.724-.05-1.387.048-1.77.777-.03.032-.066.084-.05.101.526.539.929 1.246 1.79 1.34 1.305.602 2.688 1 4.018 1.536.868.256 1.733.53 2.657.314Z" fill="#FCDC4E"/><path fill-rule="evenodd" clip-rule="evenodd" d="M79.57 30.333c1.202-.004 2.15-.822 2.37-1.894.06-.297-.084-.305-.275-.329-.925-.115-1.85-.235-2.776-.342-1.974-.229-3.949-.448-5.922-.677-.14-.016-.31-.108-.403.012-.119.152.034.308.112.437.315.513.704.934 1.315 1.12.564.17 1.139.358 1.6.732.854.69 1.888.676 2.886.815.401.057.806.093 1.094.126Z" fill="#5B3802"/><path fill-rule="evenodd" clip-rule="evenodd" d="M42.126 20.321c-.009.476.379.682.651.975.435.468.816.676 1.47.24.723-.48 1.615-.266 2.443-.232.222.01.443.06.666.076 1.351.092 1.718-.22 1.875-1.552.024-.211-.078-.289-.224-.374-1.796-1.063-3.685-1.31-5.67-.63-.506.173-1.211 1.074-1.211 1.497ZM60.492 38.04c-.25-.513-.718-.777-1.206-.973-1.487-.599-2.993-1.157-4.483-1.75-.246-.099-.403-.078-.597.094-.457.403-.933.786-1.402 1.177.253.681.857.942 1.455 1.207.95.173 1.77.686 2.664 1.004l.628.225c.596.144 1.194.236 1.797.025.519-.183.944-.468 1.144-1.01Z" fill="#FCDC4E"/><path fill-rule="evenodd" clip-rule="evenodd" d="M6.325 66.673c-.53.734-.411 1.318.366 1.757 1.177.664 2.475.904 3.794 1.01.808.065 1.625.026 2.438.015.22-.004.45-.043.656-.117.656-.233.83-.893.384-1.409-.131-.151-.28-.285-.42-.428-2.323.27-4.555-.314-6.804-.733-.139-.024-.277-.06-.414-.095Z" fill="#AE9836"/><path fill-rule="evenodd" clip-rule="evenodd" d="M52.313 32.875c.574.253 1.165.482 1.55 1.022.065.092.158.122.262.12.913-.005 1.832.071 2.726-.166.84-.222 1.154-.911.764-1.703-.606-1.232-1.737-1.681-2.992-1.921-.338.082-.49.349-.595.641-.18.505-.535.842-.974 1.129-.327.214-.721.393-.74.878Z" fill="#FCDC4E"/><path fill-rule="evenodd" clip-rule="evenodd" d="M27.122 29.778c-.763.01-1.393.343-2.033.657-.254.126-.245.298-.154.5.152.348.458.515.8.605 1.57.414 3.134.843 4.713 1.214.755.177 1.493.003 2.176-.374.197-.11.3-.216.043-.383-1.707-1.1-3.613-1.692-5.545-2.219Z" fill="#3BD468"/><path fill-rule="evenodd" clip-rule="evenodd" d="M33.707 27.797c.05 1.15.05 1.152 1.17 1.452.981.264 1.961.534 2.946.781.505.127 1.042.217 1.353-.35.237-.436-.014-1.05-.526-1.418-1.121-.803-2.317-1.424-3.721-1.563-1.192-.118-1.273-.052-1.222 1.098Z" fill="#FBDC4E"/><path fill-rule="evenodd" clip-rule="evenodd" d="M37.635 33.033c.323.021.593-.12.844-.297.529-.373.577-.83.087-1.256-1.615-1.402-3.543-1.797-5.615-1.662-.379.025-.714.244-1.06.453.471.39.983.672 1.511.931.371.182.708.403.825.838 0 .414.117.54.6.479.678-.087 1.32.293 1.993.398.272.042.524.217.815.116Z" fill="#FCDC4E"/><path fill-rule="evenodd" clip-rule="evenodd" d="M65.612 3.974c.61 0 1.218-.009 1.827.003.29.007.405-.057.326-.383-.103-.433-.138-.88-.221-1.32-.127-.664-.546-1.017-1.214-1.08-.914-.086-1.828-.029-2.738.04-.307.023-.578.198-.624.5-.092.627-.073 1.261.2 1.851.153.328.442.456.799.453.548-.004 1.097 0 1.645 0v-.064Z" fill="#E0C471"/><path fill-rule="evenodd" clip-rule="evenodd" d="M32.05 22.764c-.978.015-1.756.35-2.455.93-.362.297-.295.465.058.709.915.633 1.949.886 3.023 1.037.582.08 1.169.151 1.752.23.397.053 1.368-.615 1.45-.996.027-.13-.063-.176-.136-.24-1.08-.944-2.264-1.65-3.692-1.67Z" fill="#FCDC4E"/><path fill-rule="evenodd" clip-rule="evenodd" d="M35.928 46.625c.027-.953-.303-1.801-.809-2.58-.467-.72-1.195-1.025-2.028-1.068-.493-.026-.989 1.038-.717 1.549.131.247.323.468.514.676.67.735 1.183 1.542 1.354 2.546.068.398.219.884.684.9.498.017.75-.402.872-.876.098-.377.138-.758.13-1.147Z" fill="#E0C471"/><path fill-rule="evenodd" clip-rule="evenodd" d="m96.28 19.867-4.152 9.173c1.898-.348 5.184-5.23 4.153-9.173Z" fill="#8E5704"/><path fill-rule="evenodd" clip-rule="evenodd" d="M29.173 43.638c.034.343.05.69.107 1.03.177 1.097.983 1.602 2.043 1.297.22-.064.41-.158.27-.415-.697-1.29-.214-2.417.412-3.565.558-1.024.513-1.06-.661-1.218-1.019-.138-1.699.301-1.97 1.296a6.253 6.253 0 0 0-.2 1.575Z" fill="#FBDC4E"/><path fill-rule="evenodd" clip-rule="evenodd" d="M64.046 35.824c.133.05.284.072.395.151 1.628 1.145 3.075.34 4.582-.363-.234-.292-.458-.489-.743-.6-1.574-.623-3.154-1.207-4.902-.961-.257.036-.528-.034-.79-.022-.362.017-.658.174-.844.5.666.61 1.319 1.247 2.302 1.295Z" fill="#FADB4D"/><path fill-rule="evenodd" clip-rule="evenodd" d="M32.953 34.836c-.287.287-.561.586-.864.856-.374.333-.152.506.171.557 1.344.21 2.692.399 4.041.57.52.066.836-.233 1-.71.218-.63.065-1.294-.422-1.655-.392-.291-.83-.506-1.322-.584-.516-.177-.955.046-1.379.288-.405.233-.817.452-1.225.678Zm3.964-9.386c-.19.916-.2.94.677 1.298 1.459.595 2.97.826 4.54.537.247-.046.43-.103.37-.423-.168-.878-.322-1.76-.482-2.64-.307-.194-.543.033-.783.15-.728.355-1.444.724-2.258.87-.483.088-.95.186-1.44.075-.22-.05-.448-.058-.624.133Z" fill="#FBDC4E"/><path fill-rule="evenodd" clip-rule="evenodd" d="M33.965 62.613c.904-.682 1.743-1.425 2.282-2.449.13-.247.273-.488.41-.73-.53-.115-1.057-.255-1.593-.333a.958.958 0 0 0-.839.275c-1.212 1.27-2.814 1.694-4.623 2.112 1.541.466 2.939.842 4.363 1.125Z" fill="#784902"/><path fill-rule="evenodd" clip-rule="evenodd" d="M76.757 46.963c0-.144.003-.285-.001-.428-.005-.287-.113-.286-.34-.157a30.116 30.116 0 0 1-4.337 2.06c-1.548.58-3.053 1.234-4.389 2.215-1.41 1.033-2.965 1.817-4.476 2.678-.173.098-.36.162-.133.386a44.57 44.57 0 0 0 5.504-2.58c2.523-1.394 5.104-2.666 7.707-3.9.161-.077.31-.182.465-.274Z" fill="#8D5604"/><path fill-rule="evenodd" clip-rule="evenodd" d="M21.07 31.133c-.002.69.465 1.201 1.15 1.259.874.072 1.608-.441 1.715-1.207.037-.26.058-.525.093-.787.09-.636.411-1.094 1.032-1.312.314-.11.54-.27.517-.652-.026-.412-.102-.64-.626-.485-1.192.35-2.266.891-3.174 1.745-.413.387-.693.849-.706 1.44Z" fill="#FBDC4E"/><path fill-rule="evenodd" clip-rule="evenodd" d="M54.297 26.794c-.541.044-.926.281-1.338.424-.538.187-1.072.39-1.656.224-.142-.04-.285-.072-.342.127-.433 1.486-1.033 2.942-.83 4.637 1.983-1.37 3.322-3.134 4.166-5.412Z" fill="#AA5D5A"/><path fill-rule="evenodd" clip-rule="evenodd" d="M26.27 48.02c0 .122-.006.245.001.366.03.495.168.948.719 1.06.562.114.868-.26 1.05-.723.458-1.178.825-2.357.225-3.619-.206-.433-.3-.925-.402-1.398-.08-.372-.247-.36-.505-.192-.408.268-.68.622-.767 1.117-.198 1.121-.211 2.259-.321 3.39Z" fill="#E0C471"/><path fill-rule="evenodd" clip-rule="evenodd" d="M59.631 25.192c-.116-.013-.202.18-.323.068-.465-.424-.921-.857-1.38-1.285-.302.51-.059.934.23 1.337 1.218 1.71 2.957 2.546 4.957 2.94.6.118 1.2.152 1.816.03.638-.13 1.137-.405 1.413-1.017-.88-.17-1.798-.127-2.642-.487-1.629.168-2.878-.636-4.07-1.586Z" fill="#AE9836"/><path fill-rule="evenodd" clip-rule="evenodd" d="M6.33 66.673c.025.251.251.265.409.293 2.048.37 4.082.857 6.187.797.237-.006.503.037.62-.262l-.032-.052c-1.28-2.002-3.206-1.932-5.196-1.594-.714.12-1.455.232-1.987.818Z" fill="#FBDC4D"/><path fill-rule="evenodd" clip-rule="evenodd" d="M51.563 37.795c-.211-.599-.639-.905-1.267-.965-1.725-.162-3.384-.596-5.025-1.148-.89-.298-1.789-.148-2.637.26-.016.502.37.613.725.647.528.052.956.281 1.402.536.927.53 1.916.875 3.01.857 1.015-.018 2.031.001 3.047-.008.258-.002.535.037.745-.18Z" fill="#AF9936"/><path fill-rule="evenodd" clip-rule="evenodd" d="M47.51 27.131c-.307-.078-.36.085-.264.503.274 1.206.495 2.425.748 3.637.04.196.114.39.2.57.112.235.334.276.57.265.267-.014.304-.213.354-.42.311-1.302.625-2.604.947-3.903.068-.274.032-.399-.292-.422-.71-.049-1.416-.142-2.264-.23Z" fill="#AA5C5A"/><path fill-rule="evenodd" clip-rule="evenodd" d="M51.563 37.795c-1.237.003-2.474-.007-3.71.01-1.197.019-2.268-.358-3.256-.994-.351-.226-.694-.398-1.125-.374-.374.021-.663-.153-.838-.496-.452.446-.239.985-.167 1.482.032.22.348.17.532.206 2.349.449 4.71.82 7.08 1.142.678.093 1.356.18 2.14.284l-.656-1.26Z" fill="#F9DA4D"/><path fill-rule="evenodd" clip-rule="evenodd" d="M60.48 34.976c.026-.563.126-1.102.6-1.474.207-.163.135-.29.014-.453-.216-.294-.465-.576-.623-.9-.39-.803-.997-1.074-1.864-.956-.353.05-.57.053-.34.47.057.105.08.23.122.344.536 1.423.37 1.894-.934 2.63.305.351 2.435.863 2.812.684.153-.073.151-.225.212-.345Z" fill="#FBDC4E"/><path fill-rule="evenodd" clip-rule="evenodd" d="M66.832 28.129c-.088.11-.171.221-.262.328-.53.616-.531.617.154 1.011 1.274.73 2.633 1.139 4.113 1.118 1.044-.016 1.515-.716 1.15-1.72-.865-.286-1.751-.34-2.652-.249-.206.082-.237.203-.07.355a.94.94 0 0 0 .49.247c-.725-.044-1.322-.416-1.892-.847-.346-.072-.623-.443-1.031-.243Z" fill="#AE9836"/><path fill-rule="evenodd" clip-rule="evenodd" d="M43.344 33.26c.2-.477.644-.695 1.14-.966-1.52-1.023-3.062-1.63-4.873-1.437.089.525.427.984.31 1.529-.115.332.036.51.351.564.867.15 1.684.449 2.483.805.536.24.552-.138.59-.494Z" fill="#FBDC4E"/><path fill-rule="evenodd" clip-rule="evenodd" d="M43.426 25.768c-.11.362-.032.6.12.832 1.054 1.622 2.101 3.246 3.159 4.866.102.154.177.432.439.329.235-.093.18-.366.143-.543a29.565 29.565 0 0 0-1.053-3.753c-.08-.23-.285-.396-.506-.514-.751-.4-1.504-.796-2.302-1.217Z" fill="#AA5C5A"/><path fill-rule="evenodd" clip-rule="evenodd" d="M69.162 28.759c.949-.107 1.882.204 2.83.106-.662-1.652-2.56-2.698-4.296-2.376-.206.037-.31.132-.376.332-.147.44-.321.873-.483 1.308l1 .37c.239-.21.404.038.598.096.238.071.437.316.727.164Z" fill="#FBDC4E"/><path fill-rule="evenodd" clip-rule="evenodd" d="M25.018 49.027c-.023-.484.2-1.112-.091-1.409-.223-.227-.865-.04-1.322-.04-1.724-.004-3.449.04-5.169-.127-1.144-.112-2.288-.239-3.432-.358-.017.198.118.213.269.243 3.018.602 6.041 1.181 9.078 1.682.217.035.445.007.667.01Z" fill="#AD6903"/><path fill-rule="evenodd" clip-rule="evenodd" d="M39.294 34.595c-.204 0-.408.004-.61 0-.193-.008-.3.051-.313.269a58.8 58.8 0 0 1-.138 1.826c-.021.247.044.355.321.382.77.07 1.54.16 2.303.285.298.048.356-.1.393-.312.069-.38.123-.763.184-1.144.15-.903.145-.927-.749-1.132-.455-.106-.919-.186-1.391-.174Z" fill="#FBDC4E"/><path fill-rule="evenodd" clip-rule="evenodd" d="M57.676 52.856c.533.217.456.724.468 1.13.012.462.161.6.61.571a9.15 9.15 0 0 0 2.428-.48c.422-.147.667-.115.76.353.062-.73-.044-1.452-.088-2.178-.023-.393-.19-.423-.51-.28-.425.185-.87.326-1.297.509-.76.326-1.556.401-2.37.375Z" fill="#836930"/><path fill-rule="evenodd" clip-rule="evenodd" d="M10.963 46.476c.893.126 1.786.264 2.682.371.328.04.191.366.363.49-.066-.723-.134-1.446-.195-2.17-.015-.177-.074-.315-.256-.366-.802-.229-1.605-.407-2.451-.297-.316.04-.422.172-.371.477.083.496.152.996.228 1.495Z" fill="#A7843D"/><path fill-rule="evenodd" clip-rule="evenodd" d="M40.446 29.816c.925.298 1.84.63 2.78.883.915.248 1.515 1.142 2.587 1.25-.443-1.202-1.178-2.12-1.825-3.091-.435-.038-.82.18-1.225.273-.61.141-1.206.305-1.84.309-.213 0-.566-.058-.477.375Z" fill="#FBDB4D"/><path fill-rule="evenodd" clip-rule="evenodd" d="M78.098 48.573c.004-.87.019-1.74.007-2.609-.006-.373.119-.589.484-.733.694-.271 1.34-.657 2.075-.825-.005-.57-.007-1.137-.014-1.706-.006-.378-.167-.456-.502-.278-.52.273-1.055.519-1.578.789-.352.18-.573.477-.573.872-.003 1.441.014 2.883.029 4.325 0 .055.047.11.072.165Z" fill="#836830"/><path fill-rule="evenodd" clip-rule="evenodd" d="M38.492 47.92c-.048-.662-.043-1.335-.16-1.984-.172-.96-.572-1.8-1.584-2.179-.292-.11-.43-.505-.812-.472.735 1.075.983 2.308 1.06 3.566.042.68.26 1.013.958.983.179-.006.359.056.538.086Z" fill="#A7853D"/><path fill-rule="evenodd" clip-rule="evenodd" d="M36.92 25.45c1.725.31 3.247-.257 4.707-1.092.118-.068.264-.091.396-.135.079-.49-.135-.586-.587-.501-1.276.237-2.553.476-3.84.646-.737.1-.555.66-.677 1.082Z" fill="#AE9836"/><path fill-rule="evenodd" clip-rule="evenodd" d="M29.316 48.559c1.1-.062 2.152.255 3.222.412.3.045.601.046.9.09-.432-1.54-.244-1.614-2.327-1.727-.223-.01-.448-.004-.67 0-.704.01-1 .333-1.125 1.225Z" fill="#794902"/><path fill-rule="evenodd" clip-rule="evenodd" d="M54.26 37.797c-.447-.448-1.053-.705-1.454-1.208-.58.462-.608.713-.169 1.246 1.2 1.452 2.686 2.197 4.691 1.905-.533-.412-1.116-.573-1.623-.87-.518-.306-1.113-.515-1.445-1.073Z" fill="#AD9736"/><path fill-rule="evenodd" clip-rule="evenodd" d="M40.45 29.816c.113-.391.435-.198.66-.213 1.008-.072 1.98-.267 2.882-.744-.553-1.005-.67-1.052-1.772-.835a17.8 17.8 0 0 1-1.562.226c-.274.03-.428.118-.365.413.08.38-.097.797.158 1.153Z" fill="#AE9836"/><path fill-rule="evenodd" clip-rule="evenodd" d="M43.346 33.261c-.115.367-.252.512-.685.286-.733-.38-1.513-.686-2.352-.74-.313-.022-.358-.19-.387-.42-.163.325-.111.717-.329 1.028-.135.195-.014.283.172.337 1.106.326 2.211.658 3.317.981.2.06.443.085.58-.065.165-.178-.073-.324-.161-.463-.19-.297-.145-.622-.155-.944Z" fill="#AD9836"/><path fill-rule="evenodd" clip-rule="evenodd" d="M64.037 35.824c-.642-.21-1.221-.521-1.716-.993-.153-.146-.389-.205-.587-.302-.386.395-.284.817-.022 1.209.575.856 1.42 1.316 2.4 1.552a.633.633 0 0 0 .362-.008c.268-.107.701-.086.728-.426.024-.298-.394-.274-.618-.376-.386-.174-.794-.302-1.206-.455.166-.312.45-.125.659-.2Z" fill="#AD9736"/><path fill-rule="evenodd" clip-rule="evenodd" d="M29.727 33.68c-.613-.145-1.209-.27-1.794-.43-.298-.08-.466-.014-.54.286-.171.695-.03 1.346.352 1.924.277.416.96.307 1.287-.2.308-.479.521-1.007.695-1.58Z" fill="#299248"/><path fill-rule="evenodd" clip-rule="evenodd" d="M26.732 61.766c1.283 1.761 3.038 1.99 5 1.53.215-.05.423-.13.635-.198-1.867-.49-3.743-.949-5.635-1.332Z" fill="#794902"/><path fill-rule="evenodd" clip-rule="evenodd" d="M52.315 32.874a3.25 3.25 0 0 1 .949-.839c.409-.236.746-.57.868-1.052.08-.314.343-.495.493-.757-.605-.299-1.14-.187-1.604.289-.51.522-1.01 1.056-1.524 1.574-.27.271-.292.453.127.563.234.06.46.148.69.222Z" fill="#AD9836"/><path fill-rule="evenodd" clip-rule="evenodd" d="M26.754 34.62c.001-.864-.093-1.677-1.043-2.072-.317-.131-.494-.154-.588.269-.192.878.209 1.638.462 2.41.112.347.66.305.996.3.315-.003.12-.39.17-.602.022-.097.003-.202.003-.304Z" fill="#299248"/><path fill-rule="evenodd" clip-rule="evenodd" d="M36.894 58.691c-.023-.859.474-1.58.634-2.393.047-.24.313-.113.472-.17-1.098-.318-1.921.064-2.351 1.091-.455 1.089-.456 1.089.715 1.361.175.041.353.075.53.111Z" fill="#784903"/><path fill-rule="evenodd" clip-rule="evenodd" d="M41.922 21.891a5.032 5.032 0 0 0-1.94.307 1.576 1.576 0 0 1-.915.078c-.378.432-.882.537-1.422.564-.216.01-.443-.096-.648.05-.478.174-.98.203-1.479.244.544.312 1.145.46 1.755.383 1.146-.148 2.302-.282 3.4-.665.505-.175 1.03-.385 1.249-.96Z" fill="#AE9836"/><path fill-rule="evenodd" clip-rule="evenodd" d="M60.474 34.976c-.135.262-.371.306-.618.237-.795-.222-1.628-.282-2.405-.575a2.8 2.8 0 0 0-1.03.48c.994.413 1.873.912 2.901.974 1.092.066 1.17-.018 1.152-1.116Z" fill="#AD9836"/><path fill-rule="evenodd" clip-rule="evenodd" d="M32.469 33.891c-.4 0-.748-.029-1.089.006-.889.09-1.623.95-1.58 1.802.01.19.105.242.267.255.267.02.523.003.766-.139.533-.31 1.317-1.205 1.636-1.924Z" fill="#289147"/><path fill-rule="evenodd" clip-rule="evenodd" d="M68.297 31.418c.95.47 1.919.875 3.008.866 1.139-.008 1.425-.298 1.413-1.459-.688.767-1.546.837-2.502.672-.627-.108-1.261-.543-1.919-.08Z" fill="#AD9836"/><path fill-rule="evenodd" clip-rule="evenodd" d="M21.235 39.012c1.097.348 2.242.444 3.372.614 1.34.201 2.685.362 4.043.367.126 0 .24.03.313.147.221-.37-.156-.279-.276-.314-.844-.25-1.721-.304-2.592-.38-1.621-.146-3.232-.387-4.86-.434Z" fill="#A9863D"/><path fill-rule="evenodd" clip-rule="evenodd" d="M61.093 36.92c-.138.024-.34-.052-.43.112-.096.177.104.282.184.41.074.122.173.228.258.34.424.557.927.637 1.488.241.183-.128.162-.25.033-.399-.272-.318-1.102-.707-1.533-.703Z" fill="#AC9635"/><path fill-rule="evenodd" clip-rule="evenodd" d="M37.633 33.033c-.76-.358-1.607-.413-2.391-.693-.164-.06-.413-.106-.53-.026-.404.277-.348-.151-.486-.274-.128.498.063.733.576.817.94.156 1.871.38 2.83.176Z" fill="#AB9535"/><path fill-rule="evenodd" clip-rule="evenodd" d="M60.492 38.04c-.764.973-1.83 1.048-2.941.985.98.543 1.908.482 2.82-.19.346-.256.477-.47.12-.796Z" fill="#AE9836"/><path fill-rule="evenodd" clip-rule="evenodd" d="M55.482 29.582c-.169-.183-.024-.368-.014-.557.02-.42.161-.891-.366-1.138-.193.28-.365.577-.582.836-.295.354-.18.534.212.642.251.07.5.144.75.217Z" fill="#AC9635"/><path fill-rule="evenodd" clip-rule="evenodd" d="M34.212 42.05c.252-.415.312-.85.12-1.306-.811-.353-.709.336-.816.74-.174.663.394.463.696.566Z" fill="#A6843D"/><path fill-rule="evenodd" clip-rule="evenodd" d="M32.95 34.836c.52-.051.958-.3 1.372-.59.374-.26.766-.433 1.233-.377-1.099-.296-1.899.208-2.605.967Z" fill="#A89434"/><path fill-rule="evenodd" clip-rule="evenodd" d="M73.1 76.068c-.085.76.307 1.274 1.191 1.47.874.192 1.778.264 2.632.513 1.392.404 2.698.017 4.016-.294.436-.102.793-.344.855-.844.063-.496-.015-.937-.53-1.18-1.016.067-1.995.38-3.011.455a.594.594 0 0 0-.376.184c-.12.296.112.277.282.33-.584-.163-1.152.05-1.73.074-.346.015-.442-.139-.479-.42-.957-.043-1.89-.298-2.85-.288Z" fill="#AE9836"/><path fill-rule="evenodd" clip-rule="evenodd" d="M77.834 76.465c.962-.171 1.924-.347 2.887-.512.202-.034.391-.077.545-.22-1.97-.946-3.994-1.613-6.206-.996-.786.217-1.623.423-1.96 1.331.95.34 1.93.452 2.934.382.6.205 1.198.226 1.8.015Zm7.736 2.788c-.365-.81-1.374-1.302-2.586-1.128-1.12.16-2.225.432-3.331.673a6.597 6.597 0 0 1-1.511.133c-.46-.008-.83.114-1.145.44-.003.3.24.354.444.417.523.162 1.058.342 1.6.346 1.657.012 3.325.162 4.972-.118.575-.098 1.237-.103 1.557-.763Z" fill="#FBDC4E"/><path fill-rule="evenodd" clip-rule="evenodd" d="M85.574 79.252c-.857.602-1.855.67-2.845.721-.83.046-1.668-.01-2.5.03-.99.048-1.934-.173-2.88-.412-.133-.033-.278-.072-.349-.22-.42.497-.382.766.124 1.124.693.49 1.505.561 2.303.708 1.664.303 3.31.144 4.957-.12 1.085-.176 1.553-.898 1.19-1.831Z" fill="#AE9836"/><path fill-rule="evenodd" clip-rule="evenodd" d="M92.672 72.386c-.049-.258-.222-.428-.416-.579-1.36-1.055-2.956-1.47-4.617-1.428-.948.023-1.888.421-2.831.65-.098.025-.197.043-.297.065-.214.298.082.352.23.408 1.513.577 3.002 1.2 4.674 1.219.865.008 1.734.144 2.605.102.285-.016.643.017.652-.437Z" fill="#FBDC4E"/><path fill-rule="evenodd" clip-rule="evenodd" d="M92.66 72.386c-.09.184-.24.26-.442.257-2.138-.033-4.298.06-6.298-.909-.468-.227-1.06-.182-1.42-.64-.116.033-.232.068-.348.1-.389.112-.625.343-.664.767-.038.43.183.687.524.879.856.478 1.773.79 2.737.956 1.712.293 3.425.326 5.124-.072.753-.176.983-.603.787-1.338Zm-77.44 2.319c-.4.764-.25 1.576.556 2.045 2.175 1.263 4.476 1.94 7.003 1.163a2.91 2.91 0 0 0 1.149-.67c.636-.596.67-1.064.14-1.807-.716.646-1.509 1.044-2.508.769-.935.143-1.843-.045-2.755-.213-.752-.138-1.41-.464-2.037-.88-.527-.095-1.02-.315-1.549-.407Z" fill="#AE9836"/><path fill-rule="evenodd" clip-rule="evenodd" d="M15.22 74.704c.422.428.984.433 1.523.511.278-.05.51.103.754.181 1.344.434 2.716.702 4.125.778.028.001.095-.069.081.011-.008.043-.078.086-.095.145.882.408 2.202-.153 2.462-.894-.654-.88-1.603-1.275-2.616-1.532-.783-.2-1.575-.398-2.375-.496-1.474-.178-2.795.203-3.858 1.296ZM9 74.485c-.119-.326-.364-.533-.66-.684-2.236-1.156-4.498-1.27-6.782-.14-.296.146-.559.335-.64.688-.104.218-.056.442.152.52.943.355 1.89.735 2.922.346.011-.25.024-.465.388-.449.565.027 1.13.005 1.718.009-.394.311-.968-.084-1.266.421a.406.406 0 0 0 .31.171c1.17.07 2.342.149 3.454-.34.221-.099.537-.164.404-.542Z" fill="#FCDC4E"/><path fill-rule="evenodd" clip-rule="evenodd" d="M9.01 74.485c-.252.526-.801.493-1.24.596a6.416 6.416 0 0 1-2.911.028c-.295-.247-.586-.255-.873.013-1.003.229-1.934-.114-2.873-.37-.206-.054-.156-.255-.186-.404-.27.648.148 1.025.573 1.373.88.718 1.968.818 3.037.96 1.21.16 2.385-.102 3.551-.35.96-.201 1.271-.888.921-1.846Z" fill="#AE9836"/><path fill-rule="evenodd" clip-rule="evenodd" d="M52.07 79.74a2.612 2.612 0 0 0-1.515-1.234c-1.74-.573-3.489-.988-5.324-.48a5.16 5.16 0 0 0-1.186.47c-.293.166-.541.367-.531.748.614.426 1.36.422 2.04.63.19.058.392.081.585.132 1.26.142 2.52.313 3.794.282a4.561 4.561 0 0 0 1.605-.2c.208-.067.435-.107.532-.348Z" fill="#FCDC4E"/><path fill-rule="evenodd" clip-rule="evenodd" d="m46.065 79.837-2.557-.594c-.172.731.144 1.219.776 1.542 2.377 1.216 4.827 1.296 7.322.438.758-.26.88-.749.458-1.483a5.826 5.826 0 0 1-2.11.38c-.344.395-.818.333-1.244.291a19.072 19.072 0 0 0-2.012-.108 2.042 2.042 0 0 1-.656-.127c-.465-.154.02-.227.023-.34Z" fill="#AE9836"/><path fill-rule="evenodd" clip-rule="evenodd" d="M89.082 66.138c-.407.267-.523.668-.434 1.111.092.454.467.644.88.735.987.215 1.97.499 2.97.599 1.006.1 2.02-.117 2.964-.488.588-.232.716-.658.506-1.204-.82.267-1.644.166-2.466.008-.816-.159-1.64-.284-2.472-.304-.681-.018-1.27-.428-1.948-.457Z" fill="#AE9936"/><path fill-rule="evenodd" clip-rule="evenodd" d="M89.082 66.138c.56.395 1.211.587 1.868.62 1.158.06 2.288.28 3.425.46.477.076.926-.02 1.387-.072.156-.017.182-.133.207-.255a.888.888 0 0 0-.39-.456c-1.848-1.122-4.495-1.446-6.41-.38-.034.019-.058.055-.087.083Z" fill="#FBDC4E"/><path fill-rule="evenodd" clip-rule="evenodd" d="M30.951 53.95c0-.101.006-.204-.002-.305-.07-.9-.487-1.521-1.106-1.649-.643-.131-1.41.344-1.768 1.136-.286.63-.39 1.27-.042 1.93.29.549.206 1.15.156 1.737-.06.715.111.981.688 1.054.723.092 1.185-.214 1.293-.863.131-.804.273-1.604.689-2.323.13-.224.102-.473.092-.718Z" fill="#000"/><path fill-rule="evenodd" clip-rule="evenodd" d="M37.008 22.89c.718.27 1.369.08 1.992-.296.136-.083.23-.167.079-.317-.643.002-1.308-.143-1.898.242-.114.074-.419.11-.173.37Z" fill="#080704"/><path fill-rule="evenodd" clip-rule="evenodd" d="M46.684 34.445c.812.46 1.737.634 3.543.698-.43-.585-1.437-.79-3.543-.698Z" fill="#080605"/><path fill-rule="evenodd" clip-rule="evenodd" d="M59.632 25.192c.98 1.112 2.152 1.81 3.69 1.719.14-.01.288.008.381-.134-1.34-.572-2.779-.893-4.071-1.585Z" fill="#080604"/><path fill-rule="evenodd" clip-rule="evenodd" d="M69.158 28.76 67.7 28.1l.132.399c.804.696 1.25.868 2.276.844-.356-.217-.654-.4-.951-.584Z" fill="#0D0A05"/><path fill-rule="evenodd" clip-rule="evenodd" d="M77.834 76.465c-.6-.072-1.199-.098-1.799-.015l-.533.215c.956.582 1.883.004 2.787.122-.058-.26-.343-.168-.455-.322Z" fill="#0A0804"/><path fill-rule="evenodd" clip-rule="evenodd" d="M81.092 80.615c.469 0 .938.005 1.406-.002.221-.004.436-.094.423-.337-.01-.217-.245-.167-.397-.175-.937-.056-1.873-.049-2.803.097-.147.023-.367.001-.324.255.035.205.221.14.35.143.448.007.897.002 1.346.002v.017Z" fill="#020202"/><path fill-rule="evenodd" clip-rule="evenodd" d="M90.844 72.944c-1.536-.215-3.071-.434-4.607-.642-.143-.019-.356-.116-.41.113-.038.168.141.241.27.278 1.554.452 3.117.818 4.747.251Z" fill="#050403"/><path fill-rule="evenodd" clip-rule="evenodd" d="M21.605 76.33c.102-.053.203-.106.387-.205-.94-.147-1.791-.274-2.638-.415-.823-.138-1.613-.398-2.396-.676-.19-.067-.34-.112-.218.182 1.444 1.145 3.124 1.265 4.865 1.115Z" fill="#060503"/><path fill-rule="evenodd" clip-rule="evenodd" d="m3.973 75.123.872-.013 1.396-.134c.137-.013.312.006.297-.209-.012-.17-.158-.158-.277-.158-.867-.003-1.736-.002-2.617-.002-.003.288.171.396.329.516Zm42.097 4.714c-.19.069-.4-.075-.597.061.17.435.57.52.941.55.932.073 1.868.097 2.802.132.289.011.57-.069.82-.204.297-.16-.045-.17-.075-.255l-3.891-.284Z" fill="#050403"/></svg>