<svg width="734" height="321" fill="none" xmlns="http://www.w3.org/2000/svg"><g opacity=".8"><path d="M601.614 317.21c2.087.736 4.473 1.405 6.867 2.026-1.5-4.573-2.052-10.547-2.75-14.325-.102-.552-.726-5.396-.592-7.294-.086-1.23 4.239-3.781.648-4.771-.93-.257-2.048-.464-3.139-.706-.44 1.26-1.168 2.533-1.374 3.631-1.275 6.828-1.267 14.373.34 21.439Z" fill="#878286"/><path d="M598.073 289.264c.126-.415.083-1.445.256-1.853-9.487 5.567-6.909 16.297-4.94 22.497.673 2.12 1.501 4.155 4.715 5.829 1.001.521 2.198 1.01 3.51 1.473-1.607-7.066-1.615-14.611-.337-21.439.205-1.098.933-2.371 1.374-3.631-2.328-.517-4.537-1.197-4.578-2.876Z" fill="#6D696D"/><path d="M688.644 294.441c-3.265-3.363-8.079-5.815-14.777-7.38-13.553 9.287-42.797 6.664-63.238 6.154-3.115-.077-8.148-.064-11.668-.738.841.705 1.665 1.426 1.943 2.27.269.811-.009 1.557.628 2.342 1.251 1.543 3.616 2.156 6.754 2.76 10.28 1.974 19.028 3.907 27.87 7.195 8.088 3.008 15.637 6.335 23.929 9.221 4.373 1.523 8.934 2.943 13.803 4.083 2.732.641 8.317 2.235 11.546 1.943 3.477-.314 8.174-3.238 10.485-4.356 4.896-2.369 9.318-4.935 13.215-7.689-6.279-4.535-15.335-10.496-20.49-15.805Z" fill="#999698"/><path d="M669.908 286.263c-5.14-.849-10.557-1.244-16.018-1.436-.74 1.48-4.912 2.91-8.142 3.607-8.568 1.851-24.656 2.925-33.166.397-4.367-1.298-3.631-2.422-1.288-3.331-2.401.177-4.78.378-7.109.632-5.385.589-8.841 1.791-7.125 4.483.415.652 1.163 1.25 1.893 1.863 3.52.674 8.553.66 11.668.738 20.442.511 49.686 3.133 63.238-6.155a61.323 61.323 0 0 0-3.951-.798Z" fill="#A5A0A4"/><path d="M612.586 288.831c8.51 2.529 24.597 1.454 33.166-.397 3.229-.697 7.402-2.126 8.143-3.607-4.329-.151-8.684-.177-12.956-.178-9.679-.001-19.886.135-29.641.852-2.343.907-3.078 2.033 1.288 3.33Z" fill="#999698"/><path d="M706.497 308.369c-8.856 4.544-17.004 6.78-24.725 11.769-.027.017 1.068 2.002 1.046 2.019-.271.1-4.482 2.14 2.054 2.001 6.188-.131 22.055-2.028 24.6-3.155 6.82-3.022 4.953-8.307-2.975-12.634Z" fill="#6D696D"/><path d="M682.817 322.157c-7.257-1.936-9.695-5.074-15.009-7.436-6.2-2.757-12.197-5.792-19.323-8.016-6.264-1.956-13.616-3.264-20.751-4.504 1.492 5.807 1.52 16.553 1.852 21.805 9.459 1.62 21.477 2.984 32.052 2.358 6.712-.502 16.475-1.937 23.232-2.205 1.136-.535-2.101-1.219-2.053-2.002Z" fill="#878286"/><path d="M623.513 301.464a324.128 324.128 0 0 0-10.76-1.739c-1.847-.263-6.551-.907-7.485-1.798a.442.442 0 0 1-.132-.309c-.134 1.898.489 6.742.592 7.294.698 3.777 1.25 9.752 2.749 14.325 2.74.71 5.483 1.36 7.792 1.968 2.972.782 7.693 1.836 13.318 2.8-.332-5.251-.36-15.996-1.852-21.804-1.42-.247-2.832-.492-4.222-.737Z" fill="#6D696D"/><path d="M690.703 308.369c-6.022-2.709-16.023-4.441-24.281-3.135 1.873 2.157 8.038 8.643 11.011 13.139.24.362 6.709-.952 7.458-1.225 3.133-1.142 10.162-2.864 10.844-4.86.513-1.499-3.015-3.011-5.032-3.919Z" fill="#878286"/><path d="M686.832 315.489c-.737.286-5.917 3.179-8.779-.449-1.424-1.804-3.548-5.202-4.451-6.67-1.007-1.641-5.883-4.018-9.913-4.949 1.64 1.249 9.817 8.628 7.026 9.609-2.114.744-7.838-1.274-9.3-1.765-5.862-2.13-10.531-4.464-16.844-6.276-7.165-2.292-14.128-4.864-23.879-5.409-13.734-.768-13.121-4.505-11.254-5.327 1.446-.638 7.56-.3 8.263-.809-9.917-1.104-14.805-2.182-17.343-3.261-1.546-.657-1.039-2.133 3.31-3.99-8.697.869-7.788 3.191-7.049 4.088.48.581 3.739 2.059 3.739 3.664 0 1.138-.797 2.71 2.289 7.024.467.651 3.686 10.098 4.8 14.317 2.817-1.619.936-8.852.361-12.764 4.204.393 8.985 1.261 13.203 1.438 3.252.137 4.753-.785 9.498.226 3.805.811 8.642 1.146 12.098 2.225 2.543.847 14.467 6.528 18.059 8.166 4.403 2.007 1.885 3.797 9.841 4.925 3.338.473 7.179 1.716 13.792 3.775.364-1.716-.572-3.131 4.416-4.871 12.091-4.217 13.911-7.23 17.78-10.036-10.709 1.669-13.962 4.911-19.663 7.119Z" fill="#BCB7BB"/><path d="M681.239 289.463c-5.042-3.271-18.578-4.815-21.784-4.305 2.546.345 15.288 2.341 11.393 3.658-10.565 3.572-17.679 3.564-22.887 3.868-7.033.41-15.989 1.126-21.984 1.052 4.032 1.348 19.018.46 27.903.614 3.085.054 13.64.146 18.807-1.227 3.326-.884 10.364-2.483 8.552-3.66Z" fill="#BCB7BB"/><path d="M542.432 327.988c2.435-.538 5.036-.946 7.567-1.278 6.519-.858 12.571-1.652 18.705-3.035.353-.08.72-.169 1.094-.262l.218-.054c.369-.092.744-.188 1.128-.286l.011-.003c-.679-2.222-2.041-4.513-4.465-6.278-4.165-3.033-11.908-2.74-18.784-3.136-4.512-.26-8.615.142-10.649 1.053-2.166.971-2.286-.171-1.685-.799 1.277-1.333 3.702-.985 5.843-1.906 1.959-.841 2.287-2.249 4.795-2.891 2.039-.522 4.168.171 8.439-.624 5.91-1.099 13.74 2.835 18.563 4.412 1.139.373 2.158.749 3.087 1.134-4.234-3.586-9.376-6.969-15.459-10.09a87.112 87.112 0 0 0-5.6-1.304c-6.919-1.383-20.314-5.746-27.972-6.034-2.474-.094-9.388.456-15.479 5.921-3.227 2.897-3.424 6.569-3.378 9.736.091 6.215 7.958 27.697 9.709 30.483 2.174 3.458 4.52 7.509 9.596 10.194 2.352.007 4.7-.011 7.046-.054-.223-.268-.459-.564-.729-.899-4.315-5.316-9.363-22.516 8.399-24Z" fill="#878286"/><path d="M493.806 302.119c-6.672 8.334-5.596 23.041.543 30.408 1.263-1.957 2.888-4.454 1.985-10.879-.615-4.373-1.443-10.812.361-13.349 3.073-4.32 11.522-8.373 18.053-11.7 8.232-4.193 15.718-1.202 18.676-.408 5.075 1.361 12.881 3.073 19.987 4.279a136.83 136.83 0 0 0-4.892-2.008c-13.874-5.368-31.582-8.48-48.873-4.977-9.363 1.896-17.902 4.886-26.422 7.495-8.308 2.545-17.6 4.844-25.061 7.945-.57.237-1.095.483-1.601.732 12.324-2.349 19.298-2.044 32.528-4.209 1.452-.237 13.232-3.063 14.716-3.329Z" fill="#BCB7BB"/><path d="M527.267 296.608c7.659.288 21.054 4.651 27.973 6.034a87.27 87.27 0 0 1 5.6 1.304 121.537 121.537 0 0 0-7.425-3.476c-7.106-1.205-14.912-2.916-19.987-4.279-2.958-.794-10.446-3.785-18.676.409-6.531 3.327-14.98 7.38-18.053 11.7-1.805 2.537-.976 8.975-.361 13.349.903 6.423-.722 8.921-1.985 10.878-6.139-7.366-7.215-22.072-.542-30.408-1.487.267-13.265 3.092-14.715 3.329-13.23 2.165-20.204 1.859-32.528 4.21-5.95 2.941-7.594 6.741-8.445 10.79-1.316 6.254-4.251 18.589.431 22.005.574.419 1.237.799 1.938 1.162-1.083-1.964 1.67-4.14 5.028-6.761 6.357-4.963 12.636-9.499 23-12.745.041-.013.071 0 .084.018 2.382-1.789 4.537-3.624 7.253-5.307.188-.118.544-.049.494.099-1.534 4.549-9.475 9.109-14.714 12.853-2.988 2.135-6.149 4.233-8.925 6.432-3.424 2.714-5.148 4.845-4.395 8.108.004.014-.005.026-.005.04 1.859.459 3.778.841 5.671 1.192.234-3.198 5.38-5.65 11.205-7.041 4.168-.996 8.89-1.167 13.235-1.938 3.128-.554 5.969-1.082 9.36-.905 9.217.48 10.65 2.838 15.776 5.944 2.165 1.314 6.205-.507 7.823-2.056 1.115-1.066 3.146-1.497 5.25-2.001-2.879-6.936-8.145-22.203-8.218-27.282-.046-3.166.151-6.839 3.378-9.736 6.088-5.465 13.002-6.015 15.475-5.921Z" fill="#A5A0A4"/><path d="M479.679 310.531c-4.821.732-10.3.707-14.554 2.139-2.902.977-3.351 2.313-4.988 3.716-2.083 1.786-6.025 2.806-8.789 4.316-5.572 3.046-6.685 7.561-8.434 11.354-1.063 2.307-4.628 6.816 1.491 8.26.427.1.819.007.991-.192 4.108-4.729 10.581-8.653 17.94-12.335 4.474-2.239 11.492-5.725 13.017-8.871.464-.524 3.022-5.354 7.349-7.92 1.926-1.142-2.31-.727-4.023-.467Z" fill="#969295"/><path d="M452.709 338.204c2.776-2.2 5.937-4.297 8.925-6.433 5.239-3.743 13.178-8.304 14.714-12.853.05-.147-.306-.216-.494-.099-2.716 1.683-4.871 3.519-7.253 5.307-.013-.017-.043-.03-.084-.017-10.364 3.245-16.643 7.781-23 12.744-3.356 2.621-6.111 4.798-5.028 6.762 2.188 1.133 4.911 2.02 7.819 2.737 0-.014.008-.026.005-.041-.754-3.262.97-5.393 4.396-8.107Z" fill="#878286"/><path d="M590.541 332.443c-1.951-6.556-11.191-15.825-14.24-18.408a43.037 43.037 0 0 0-3.087-1.133c-4.822-1.576-12.653-5.512-18.563-4.412-4.271.795-6.4.101-8.439.624-2.506.641-2.835 2.049-4.795 2.891-2.141.92-4.564.573-5.842 1.906-.602.628-.482 1.77 1.684.799 2.034-.912 6.139-1.313 10.649-1.054 6.877.396 14.619.104 18.784 3.137a12 12 0 0 1 4.466 6.277l-.012.003c-.384.098-.761.194-1.128.286l-.218.054c-.374.093-.741.182-1.094.262-6.134 1.383-12.185 2.177-18.705 3.035-2.531.332-5.13.74-7.567 1.277-17.762 1.485-12.714 18.685-8.402 24.003.271.334.506.63.729.899 2.68-.049 5.355-.129 8.02-.251 3.479-.16 8.219-.732 13.381-1.534 13.412-7.927 17.204-27.315 17.403-27.324 1.227-.909 4.705-1.516 6.721-1.9.52-.099.925.146.98.355.066.25.141.502.215.755 3.135 5.129 6.379 15.263 4.768 21.72 2.465-.74 4.253-1.412 5.03-1.946.005-.002 1.109-4.115-.738-10.321Z" fill="#6D696D"/><path d="M581.429 322.077c-1.746-.542-3.491-1.2-6.763-1.133-1.552.031-4.378-.767-5.96-.609-3.707.371-7.618 1.856-17.608 1.942-6.33.054-12.962-.424-18.421 1.233-2.257.685-2.76 1.35-4.086 2.507-2.648 2.313-5.897 2.076-6.884 3.312-1.277 1.599 1.347 4.14.686 5.511-.212.437.632.506 1.192.117 3.47-2.418 7.329-5.478 12.722-7.013 3.8-1.081 7.378-1.906 17.107-1.984 7.072-.058 11.167-1.269 16.496-1.513 7.785-.357 6.704-2.142 11.519-2.37Zm-342.715-24.913c2.24-.024 3.574-.686 3.574-1.601 0-3.47-3.419-6.765.232-9.955 2.488-2.173 7.402-3.318 7.375-6.366-.001-.152-.277-.657-.659-1.21-5.484.242-10.512 1.85-15.628 3.133-1.972.495-12.81 3.695-16.452 7.665-2.394 2.61-3.14 5.553-2.999 8.293 3.578 2.614 19.575.096 24.557.041Zm29.861-11.874c-3.287 3.539 1.572 4.678-2.373 7.096-1.466 1.195-2.329 2.735-1.2 3.414 2.273 1.367 11.983 2.458 16.47 1.593 4.884-.941 7.267-3.513 10.539-5.463 2.673-1.593 4.627-3.157 8.243-4.35.968-.32 4.168-.841 7.695-1.398l-.086-.011c3.181-.946 7.911-2.051 9.507-3.78-3.633-1.323-21.614-2.591-32.176-1.87-5.821.396-11.593 1.425-17.418.69 1.414 1.349 1.875 2.92.799 4.079Z" fill="#A5A0A4"/><path d="M359.118 313.416c-.156-6.242-1.259-10.085-6.098-13.852 3.685 4.264.392 7.559-6.993 10.068-2.447.832-3.459 2.506-6.574 2.78-4.591.405-8.852.986-12.147 3.662-1.067.865-4.188.425-6.002 1.288-2.71 1.29-7.041 2.584-10.432 3.369-12.367 2.859-45.841 8.782-59.596 4.158-.698-.235-6.599-3.434-5.574-3.459 11.512-.273 21.882-3.032 30.159-6.479 2.648-1.103 6.568-3.204 9.869-3.797 12.565-2.26 6.168-3.174 7.859-5.543 1.794-2.513 7.517-2.815 12.404-3.717 3.774-.697 13.112-1.361 14.101-3.359.847-1.71 2.912-3.855 1.351-5.448-.926-.945-5.402-1.027-7.473-1.309-2.16-.408-4.337-.648-6.597-.898-1.543-.17-1.46-1.075-.4-1.455 3.579-1.283 7.671-1.78 11.891-1.726-3.573-.559-7.229-1.048-10.927-1.518-3.525.557-6.726 1.079-7.695 1.398-3.616 1.193-5.57 2.758-8.243 4.351-3.272 1.95-5.225 4.826-10.109 5.768-4.487.865-14.625-.531-16.9-1.899-1.129-.679-.266-2.219 1.2-3.413 3.945-2.417-.914-3.557 2.373-7.097 1.076-1.159.615-2.729-.802-4.078-.27-.034-.538-.067-.805-.108-3.982-.617-7.239-1.938-11.139-2.646a29.318 29.318 0 0 0-6.59-.425c.382.553.66 1.057.66 1.209.026 3.049-4.888 4.194-7.376 6.367-3.651 3.19-.231 6.485-.231 9.955 0 .915-1.335 1.576-3.575 1.601-4.983.055-20.981 2.573-24.559-.042.159 3.126 1.47 5.988 2.856 7.775-.263 1.655-.536 3.308-.753 4.968-.562 4.301-1.402 8.747 1.637 12.897 5.045 6.893 18.981 10.702 31.84 13.894 1.554.386 3.414.118 4.168-.608a7.935 7.935 0 0 0 2.077-.254c4.037-1.047 9.733 1.572 15.592 3.996 20.388-.597 42.608-3.771 61.116-7.919 7.289-1.633 26.286-8.601 26.276-9.456.004-.001.181-8.216.161-8.999Z" fill="#999698"/><path d="M306.978 289.426c-1.06.38-1.143 1.285.4 1.455 2.26.25 4.437.49 6.597.898 2.071.282 6.547.364 7.473 1.309 1.56 1.593-.506 3.738-1.351 5.448-.989 1.998-10.327 2.662-14.101 3.359-4.888.902-10.61 1.204-12.404 3.717-1.691 2.368 4.706 3.283-7.86 5.543-3.3.594-7.22 2.694-9.868 3.797-8.277 3.447-18.647 6.206-30.159 6.479-1.025.025 4.876 3.224 5.574 3.459 13.755 4.624 47.229-1.299 59.596-4.158 3.391-.784 7.722-2.079 10.432-3.369 1.816-.863 4.937-.423 6.002-1.288 3.295-2.676 7.557-3.257 12.147-3.662 3.115-.274 4.127-1.948 6.573-2.78 7.386-2.509 10.679-5.804 6.994-10.068-1.809-1.409-4.125-2.808-7.132-4.317-7.703-3.865-17.035-5.985-27.024-7.548-4.218-.054-8.311.443-11.889 1.726Z" fill="#A5A0A4"/><path d="M269.145 331.824c-4.348-4.609-14.344-7.898-22.102-11.118-15.464-6.422-28.892-17.868-28.779-24.025.038-2.121-1.606-4.826-1.111-7.852-3.606 3.693-3.924 8.882-4.069 10.701-.361 4.531.522 9.226 1.147 13.582.653 4.548.481 9.647 6.628 13.407 6.243 3.818 14.976 7.665 23.825 10.056 8.306 2.244 26.886 3.216 26.886 3.216s-.534-5.963-2.425-7.967Z" fill="#878286"/><path d="M324.718 311.423c-4.897 1.373-9.444 2.539-10.983 3.21-1.738.757-6.458 1.297-8.503 1.867a164.732 164.732 0 0 1-18.668 4.066c-10.894 1.712-27.954 4.41-38.031.747 4.212 4.203 17.128 11.527 18.843 17.612.005.019.026.031.036.049-3.806-.727-10.165-2.321-13.38-4.254-3.461-2.079-11.086-5.356-15.114-6.153-1.22-.241-5.391-.778-6.646-1.475-4.988-2.771-6.155-2.158-8.146-2.797-5.327-1.707-8.44-4.715-9.462-7.824 1.291 6.416 4.656 9.392 6.962 10.761 11.076 6.573 19.784 9.378 30.987 10.91 10.315 1.41 18.962 1.97 18.962 1.97s15.052-.407 25.01-1.78c6.766-.934 36.592-5.862 42.554-7.324 9.754-2.39 27.045-5.954 28.105-6.763.97-2.431.373-6.739-.017-8.456-.339-1.491-1.017-3.097-1.953-4.716-8.132.774-20.82 2.06-27.022 4.341-4.936-1.259-11.275-3.144-13.534-3.991Z" fill="#6D696D"/><path d="M337.803 306.977c-2.944 1.496-8.189 3.075-13.084 4.447 2.258.846 8.597 2.731 13.532 3.991 6.2-2.28 18.89-3.567 27.022-4.34-2.797-4.839-8.4-10.99-13.636-13.373-1.994 4.217-8.399 6.514-13.834 9.275Zm-15.373 4.87c-2.179-.323-6.215-.815-9.649-.917.177.421 1.295 2.13 1.905 4.166 1.508 5.03 4.656 12.964 4.924 13.37.408.621 5.672-.3 6.231-1.577.613-1.395-2.464-11.544-3.411-15.042Z" fill="#5B575B"/><path d="M422.432 325.232c-13.695-6.204-34.271-16.006-55.018-14.933-10.682.553-22.423 2.382-31.672 4.758-11.332 2.91-24.009 8.204-31.783 11.997-1.098.536 2.997 1.325 4.012 1.437 37.615 4.158 76.485 3.581 113.528-1.584 1.491-.207 2.105-1.143.933-1.675Z" fill="#999698"/><path d="M321.747 288.169c-.287-.28-2.791-4.981-4.381-5.778-2.239 1.118-10.259 1.734-12.314 2.492-7.579 2.793-10.29 5.085-17.365 8.137-2.665 1.158-4.221 4.204-9.136 3.709-4.697-.474-12.901-1.716-16.223.626 6.764.877 10.069 1.749 16.785 2.122 2.782.155 8.881-.52 10.611-1.524 4.179-2.423 7.165-4.221 13.048-5.923 5.775-1.673 15.009-.615 18.975-3.861Z" fill="#6D696D"/><path d="M417.62 324.707c-1.916-2.437-5.056-3.875-7.956-3.977-6.926.39-16.289 1.907-23.328 1.344-4.207-.336-9.215-1.147-13.523-.849-1.996.138-3.165.404-4.606 1.017-.622.264-.491.814-.908 1.085-2.366 1.541-4.915 2.072-8.624 2.646-11.441 1.77-25.752 2.72-37.654 2.593-.505-.005 37.707 3.1 49.401 2.594 7.05-.306 13.9-1.104 16.538-4.3 9.912 1.836 20.216 1.438 29.681-1.013.764-.197 1.296-.735.979-1.14Z" fill="#A5A0A4"/><path d="M424.597 325.593c-8.43-4.04-18.194-7.644-28.038-10.879-1.047 1.597 10.958 4.852 17.603 9.073.99.629.428 1.806-4.431 2.13-1.645.11-9.437 1.211-14.867-.324-3.656-1.034-5.767-.867-9.948-1.45-.23 1.703-.704 4.164-3.811 5.108-2.328.708-4.993.749-7.604.48-7.456.109-14.905.154-22.376-.106-12.833-.449-27.667-1.097-40.414-1.901 15.66 1.975 31.772 3.698 48.406 4.149 5.413.146 20.733-.974 20.799 1.508.043 1.641-2.02 5.611 2.095 8.394 4.411.04 1.412-5.647 2.782-8.268.318-.333.654-.665 1.017-.999.118-.108.147-.216.134-.318l.931-.315c.966-.168 1.078-.785.151-.989.011-.008.029-.013.039-.021.581.007 1.192-.171 1.265-.53a6.888 6.888 0 0 0-.043-3.066v-.018c.825.32 1.728.583 2.873.851.191.044.372.06.548.065.78.248.524.521 1.334.756.637.185 28.451-2.015 31.555-3.33Zm-83.058-32.286c3.892 1.429 7.949 5.083 4.669 8.052-4.218 3.818-16.302 7.407-18.069 8.042-4.869-.507-7.227-.973-7.44-.261-.045.146 1.415.897 1.627 1.08.249.214-.845.589-1.769.376a194.558 194.558 0 0 1-8.17-2.116c-.375-.107-3.906-1.12-4.444-.001-1.084 2.264.227 3.48-3.096 5.277-3.462 1.871-8.399 3.233-12.924 4.442-4.592 1.226-21.066 4.927-31.116 4.343-4.448-.259-10.537-1.73-13.531-2.744-6.068-2.057-14.809-7.199-19.293-10.657-4.722-3.641-7.238-6.736-9.044-10.423 1.869.574 18.261.781 23.104-2.523-6.14.994-14.405 1.833-19.279-.244-1.249-.531-1.67-1.291-1.556-1.947.365-2.112 4.219-4.207 6.185-5.583 2.619-1.832 5.033-4.111 8.153-5.948 4.098-1.028 10.659-2.675 13.124-4.409-18.971.87-26.796 7.684-32.047 10.765-3.56 5.543-.709 12.668 4.744 18.219 3.855 3.926 9.506 7.294 15.809 10.394 2.151 1.058 16.379 9.256 19.535 10.752 1.343.84 7.113 5.886 7.604 6.022 0-1.699-1.316-6.022 2.399-9.109 12.947-2.033 25.594-4.671 37.982-7.354 3.122-.676 6.939-1.948 9.945-3.231.638-1.059-1.066-3.094-1.093-3.213 2.68.582 8.168 1.48 9.09 1.281.709-.153 29.861-8.257 30.541-12.5.38-2.407-7.401-6.053-11.64-6.782Z" fill="#BCB7BB"/><path d="M317.362 282.391c-8.782-3.711-27.24-2.686-37.856-1.364 6.681.296 18.134-.48 26.349.582 3.302.426 3.795 1.533-.2 2.461-2.161.502-4.31 1.947-6.116 2.71-2.848 1.203-9.873 4.972-10.08 5.065-3.153 1.413-4.451 2.615-8.528 3.277-.719.116-3.636.295-4.52.334-3.793.163-7.771.039-10.552.73 4.069.129 10.757 2.036 17.286 1.076 3.093-.455 6.215-1.791 8.888-3.826 1.72-1.309 5.458-3.793 7.759-4.964 2.011-1.023 11.069-3.497 11.792-3.625a72.864 72.864 0 0 0 5.182-1.108c.704-.178 1.201-1.092.596-1.348Z" fill="#BCB7BB"/><path d="M61.562 310.812c-22.683-4.244-21.784-16.13-16.926-25.652 4.278-8.389 16.311-20.082 35.7-22.781.117-.061.253-.109.372-.169-7.643.376-15.23 2.028-21.374 4.309-14.707 5.459-26.543 13.43-34.075 22.225-.748.721-1.498 1.442-2.203 2.172-6.583 6.816-13.625 15.017-11.68 22.671 4.58 18.028 57.863 15.579 84.224 13.08 5.639-.535 14.04-.539 17.799-2.915 4.459-2.819 4.322-8.471 5.336-11.808 1.767-5.814 3.105-11.705 2.992-17.585-10.652 12.163-32.72 21.587-60.165 16.453Z" fill="#999698"/><path d="M44.64 285.16c-4.858 9.522-5.757 21.408 16.926 25.652 27.446 5.134 49.513-4.29 60.163-16.452-.051-2.717-.41-5.431-1.182-8.134-2.075-7.267-7.172-16.486-19.807-21.333-6.024-2.311-13.051-3.027-20.028-2.682-.12.059-.255.108-.372.169-19.389 2.698-31.422 14.391-35.7 22.78Z" fill="#A5A0A4"/><path d="M118.5 277.34c-5.571-7.803-14.103-13.024-21.834-15.129-7.062-1.923-20.206-1.842-34.16 2.345-5.358 1.607-16.517 6.981-18.454 8.25-5.696 3.728-12.77 9.89-12.77 9.89s15.86-10.645 25.398-11.887c-3.986 3.722-8.869 8.547-11.028 12.552-1.931 3.584-5.354 8.81-5.808 12.503-.293 2.373.584 5.962 5.119 7.583.621-14.21 9.832-24.152 27.106-31.928 10.216-4.599 23.586-5.009 33.647-.108 13.076 6.37 15.905 21.332 15.923 20.995.281-5.22-.582-11.482-3.139-15.066Z" fill="#BCB7BB"/><path d="M120.885 302.645c-1.717 2.322-2.224 8.612-16.765 13.25-10.87 3.467-34.028 4.267-41.072 3.905-10.299-.53-25.308-3.398-28.066-16.247-.024-.118-7.461-7.851-16.642-3.665 1.552-3.299 5.618-9.569 8.303-12.701-6.37 4.05-23.036 18.783-15.097 29.46 2.935 3.947 8.899 9.015 24.714 10.747 7.143.782 27.042 2.171 49.642.409 10.467-.817 23.036.751 29.695-3.463 5.079-3.213 7.657-15.224 5.288-21.695Z" fill="#878286"/><path d="M115.777 293.556c-6.552 2.851-13.021 13.094-19.34 15.81-9.46 4.067-25.477.356-38.039.762 8.457 4.778 28.097 6.156 38.945 2.421 3.662-1.262 6.274-2.858 8.491-4.612 2.813-1.505 10.148-12.911 9.943-14.381Z" fill="#BCB7BB"/><path d="M107.872 325.734c-2.011.234-8.463.949-11.752.244-.658-.472-.542-3.487-5.502-5.86.557 2.286.633 5.037-3.725 6.525-1.126.384-2.426.63-3.813.792-2.586.101-5.175.197-7.762.282-1.343-.007-2.646-.02-3.847-.004-9.618.126-24.45.444-33.406-1.029-3.168-.521-10.428-3.464-11.398-4.229-1.797-1.419-4.016-2.664-6.253-3.934-2.546-1.447-5.542-2.791-7.448-4.455-2.783-2.431-1.176-5.908-2.61-8.461-1.77 2.604-2.068 8.716.69 11.706 1.923 3.112 5.021 5.066 10.04 7.178 3.579 1.505 14.836 3.724 22.876 4.056 14.626.603 25.225.262 33.746-.016 7.867-.257 15.84-.306 23.656-.824 6.429-.426 13.983-1.34 16.266-5.261-4.322 1.894-6.417 2.901-9.758 3.29Z" fill="#6D696D"/><path d="M150.722 329.617c4.311-.492 9.379-1.139 8.951-3.709-.333-2-4.934-4.184-9.34-5.683-7.782-3.863-20.015-6.524-30.175-5.794-12.321.885-19.848 7.149-12.241 12.249 9.698 6.503 29.072 4.507 42.805 2.937Z" fill="#999698"/><path d="M136.42 321.25c-3.004-2.896-16.553-5.462-22.709-2.857-1.6.678-3.192 1.35-3.584 2.34-.909 2.304 2.931 4.098 6.985 4.981 4.517.984 10.324 2.03 15.175.995 4.573-.975 6.357-3.316 4.133-5.459Z" fill="#A5A0A4"/><path d="M139.446 315.966c-1.324-.288-3.397.377-2.283 1.083 2.244 1.419 7.505 3.907 8.313 5.627.513 1.088 4.153 4.879-14.597 5-10.948.071-20.834-2.003-25.556-7.131-1.739 1.14-1.466 4.209-.767 4.995 3.338 3.749 10.472 4.865 18.556 5.269 9.847.492 21.794.564 31.287-1.002 16.734-2.76-7.779-12.281-14.953-13.841Z" fill="#878286"/><path d="M140.734 315.867c-9.113-3.362-25.281-3.199-31.796 1.447 8.984-1.992 18.679-2.576 26.883.119 1.899.625 7.868 2.488 8.842 5.645.765 2.481-1.659 3.647-1.449 3.589 9.401-2.583 4.59-8.192-2.48-10.8Z" fill="#BCB7BB"/></g></svg>