<svg width="22" height="26" fill="none" xmlns="http://www.w3.org/2000/svg"><path d="M21.037 7.667 13.664.293A1 1 0 0 0 12.957 0H9.664a3.667 3.667 0 0 0-3.667 3.667v1.666H4.331A3.667 3.667 0 0 0 .664 9v13.333A3.667 3.667 0 0 0 4.331 26h9.333a3.667 3.667 0 0 0 3.667-3.667v-1.666h.333A3.666 3.666 0 0 0 21.331 17V8.333a1 1 0 0 0-.294-.666Zm-7.04-4.254 3.92 3.92h-3.92v-3.92Zm1.334 18.92A1.667 1.667 0 0 1 13.664 24H4.331a1.667 1.667 0 0 1-1.667-1.667V9a1.667 1.667 0 0 1 1.667-1.667h1.666V17a3.666 3.666 0 0 0 3.667 3.667h5.667v1.666Zm2.333-3.666h-8A1.667 1.667 0 0 1 7.997 17V3.667A1.667 1.667 0 0 1 9.664 2h2.333v6.333a1.013 1.013 0 0 0 1 1h6.334V17a1.667 1.667 0 0 1-1.667 1.667Z" fill="#5E88B7"/></svg>