<svg width="83" height="115" fill="none" xmlns="http://www.w3.org/2000/svg"><g clip-path="url(#a)"><mask id="b" style="mask-type:luminance" maskUnits="userSpaceOnUse" x="0" y="0" width="83" height="115"><path d="M82.805.884H0v113.312h82.805V.884Z" fill="#fff"/></mask><g mask="url(#b)"><path d="m14.684 106.369 54.684.769 5.634-70.269-16.39-19.349-17.342-4.369-20.96 7.409L8.234 41.118l6.45 65.25Z" fill="#332A33"/><path d="M41.404 100.04h20.623l4.675-57.145c-2.53-10.463-14.513-19.341-25.298-19.341-10.784 0-22.768 8.868-25.287 19.33l4.675 57.146 20.612.01Z" fill="url(#c)"/><g opacity=".5" fill="#C76B2C"><path d="M45.829 24.023c-.546 2.857 2.198 5.813 3.308 8.21 1.066 2.31 1.544 4.777 1.858 7.273l-.117-5.356a26.052 26.052 0 0 0-1.121-2.078c-.879-1.478-1.955-2.92-2.585-4.525a8.013 8.013 0 0 1-.543-2.597c-.005-.243.01-.487.044-.727a12.338 12.338 0 0 0-.844-.2Zm5.253 19.403-.036-1.645c-1.343-1.298-3.215-1.924-4.124-3.714-1.16-2.286-1.881-4.761-2.49-7.237-.431-1.756-1.142-3.73-2.909-4.488v.52c1.234.932 1.796 2.475 2.28 3.958a33.439 33.439 0 0 1 1.016 3.795c.26 1.255.282 2.616.783 3.803.873 2.078 3.003 2.662 4.31 4.33.5.684.855 1.461 1.045 2.286l.125-1.608Zm-2.199 15.079a21.096 21.096 0 0 1-2.9-7.595c-.225-1.32-.37-2.642-.8-3.92a16.689 16.689 0 0 0-1.88-3.597 33.411 33.411 0 0 1-1.975-3.291l-.023 1.592c.36.6.74 1.176 1.087 1.72 1.544 2.415 2.5 4.836 2.814 7.701.3 2.753.366 5.182 1.69 7.7a22.618 22.618 0 0 0 1.997 3.116c.335.442.677.925 1.045 1.392l.06-3.197a23.761 23.761 0 0 1-1.115-1.621Zm.948 10.589c-1.272-1.218-2.785-1.847-4.225-2.81a9.889 9.889 0 0 1-3.02-3.377 24.602 24.602 0 0 1-1.093-2.159 4.488 4.488 0 0 0-.188-.371l.018 2.044c.115.244.233.489.36.725a9.682 9.682 0 0 0 2.93 3.403c1.34.927 2.7 1.735 3.846 2.911.516.547.979 1.14 1.383 1.772l-.01-2.138Zm-8.461-1.197.013 1.36c2.89 3.728 5.145 7.93 4.124 12.874-.628 3.039-2.245 5.878-4.027 8.39l-.175.244v1.93c.475-.78.977-1.543 1.466-2.353 1.586-2.626 3.196-5.47 3.82-8.5 1.05-5.117-1.442-10.47-5.221-13.945Z" style="mix-blend-mode:multiply" opacity=".25"/><path d="M41.357 75.965v.82c.141 1.653.784 3.162 0 4.858l-.029.057v1.619a16.9 16.9 0 0 0 1.121-1.967c.742-1.732.332-4.023-.86-5.455-.079.016-.157.04-.232.068Zm7.662 10.213c-1.286 2.029-3.186 3.582-4.581 5.53-1.186 1.655-1.965 3.561-2.927 5.346l-.23.426v1.59c1.707-2.026 2.742-4.832 4.066-6.951 1.325-2.12 3.227-3.684 4.584-5.73v-1.834c-.272.558-.576 1.1-.912 1.623Z" style="mix-blend-mode:multiply" opacity=".25"/></g><g opacity=".3" fill="#8E208E"><path d="M28.562 40.054a2.358 2.358 0 0 0-.873.346l-.154.065a.679.679 0 0 1 .096-.029c-.872.58-1.58 1.756-1.15 3.338l.152-.055a29.33 29.33 0 0 0 .157 3.775c.11 1.184.261 4.156 1.191 4.587.28.124.614-.044.881-.174h.018l.037-.016c.912-.485 1.173-1.74 1.356-3.117.28-2.171.902-9.15-1.711-8.72Zm.917 9.268c-.13.956-.261 2.026-.802 2.564-1.059-.156-1.244-2.78-1.401-4.099-.22-1.867-.06-3.636-.055-5.455.112-.779.285-1.465.784-1.932 1.43.078 1.722 3.187 1.738 4.974.005 1.32-.083 2.64-.264 3.948Z" style="mix-blend-mode:multiply" opacity=".3"/><path d="M27.026 57.668c.784.294 1.68-.124 2.435-.504 1.404-.701 2.274-2.493 2.783-4.532l.024-.107-.19-4.647c-.022.172-.04.343-.064.52-.452 3.343-.987 7.39-3.177 8.948-4.275.535-4.23-11.408-3.614-15.543.345-2.317 1.568-5.89 3.41-5.715.805.078 1.529.68 2.054 1.597.07.122.136.26.199.372.257.541.433 1.117.522 1.71.034.238.173 1.22 0 1.345a2.29 2.29 0 0 1 .36-.148l.043-.026-.144-3.515-.091-.104a.07.07 0 0 0-.053-.018 4.054 4.054 0 0 0-.488-.748c-.886-.98-1.882-.927-2.875-.52-2.775 1.138-3.841 4.767-4.011 8.928-.105 2.58-.06 5.28.379 7.793.33 1.995 1.048 4.38 2.498 4.914Zm4.994 5.436c-.83 1.138-1.776 2.468-3.049 3.177-2.44.044-4.118-2.543-4.782-4.657-.2-.643-.363-1.297-.486-1.959l.196 3.995c.815 1.613 2.122 3.086 3.99 2.964a5.778 5.778 0 0 0 1.8-.426l.056-.016h-.034a5.551 5.551 0 0 0 1.777-1.153c.439-.44.853-.904 1.24-1.39l-.06-1.527c-.206.343-.417.673-.647.992Zm.438 9.087c-.737 1.699-1.529 4.242-3.021 5.598-.891-.335-1.667-1.374-2.156-2.04a15.926 15.926 0 0 1-1.8-3.337 59.253 59.253 0 0 1-1.223-3.294l.353 4.626c.713 1.754 2.19 4.847 4.18 4.53h-.018l.105-.028h.063c.444-.084.88-.2 1.306-.35l.052-.016h-.026a2.25 2.25 0 0 0 .225-.11c1.236-.688 1.766-2.337 2.245-3.569.068-.168.136-.34.206-.519l-.044-2.543c-.15.356-.298.704-.447 1.052ZM29.29 88.359a.972.972 0 0 1-.117.054l.2-.052c.725-.036 1.195-.696 1.522-1.252.8-1.356 1.5-2.771 2.202-4.177l-.036-2.171c-.374.797-.737 1.6-1.105 2.384-.486 1.04-.996 2.058-1.456 3.1-.274.625-.452 1.51-1 1.965-.641-.194-.644-.833-1.127-1.298-.02-.021-.16.07-.178.049.497.543.314 1.374 1.095 1.398Zm1.944 9.108c-.475-1.298-.938-2.647-1.599-3.862-.54-.995-1.432-1.818-2.187-2.644a12.737 12.737 0 0 1-1.495-2.042l.186 2.114c.899.982 1.95 1.894 2.639 2.8a10.276 10.276 0 0 1 1.665 3.614c.235.875.284 1.87.452 2.81l1.55-.106c-.359-.917-.892-1.816-1.21-2.684Z" style="mix-blend-mode:multiply" opacity=".3"/></g><g opacity=".4"><path d="M59.053 50.251c-.507-1.901-.405-3.914-1.045-5.784-.56-1.63-1.675-3.042-2.843-4.286-1.168-1.245-2.297-2.655-3-4.268a15.474 15.474 0 0 1-.935-3.099c-.037-.182-.068-.364-.102-.545l-.034 2.176c.088.325.188.645.3.961.604 1.67 1.66 3.047 2.676 4.484.946 1.34 1.92 2.73 2.44 4.299.623 1.865.468 3.87.873 5.776a8.6 8.6 0 0 0 1.26 2.964c.277.431.59.831.907 1.234l.157-2.078a12.405 12.405 0 0 1-.654-1.834Zm1.353-9.338c-.852-1.153-1.994-2.023-2.908-3.117-1.699-2.044-2.112-4.813-2.66-7.322a41.13 41.13 0 0 1-.476-2.39 16.503 16.503 0 0 1-.094-.72c-.195-.116-.394-.23-.596-.343.02.307.057.61.091.904.095.723.228 1.44.398 2.149a47.853 47.853 0 0 0 1.045 3.88 20.016 20.016 0 0 0 1.541 3.6 27.2 27.2 0 0 0 2.167 3.26 8.779 8.779 0 0 1 1.134 1.878c.128.314.23.637.306.967l.196-2.548-.144-.198Zm-8.487 9.442c-.28-.491-.565-.982-.784-1.5-.162-.36-.3-.729-.444-1.095l-.105 1.631c.13.275.277.546.418.813.5.93 1 1.855 1.411 2.826.81 1.977 1.307 4.055 1.819 6.117.287 1.17.496 2.356.805 3.517 0 0 .17-.036.167-.044a37.673 37.673 0 0 0-1.02-6.356 22.959 22.959 0 0 0-2.267-5.91Zm2.979 13.815a6.138 6.138 0 0 1-.486 1.53c-.224.51-.486 1.001-.784 1.471a16.067 16.067 0 0 1-2.232 2.618c-.523.538-1.084 1.076-1.615 1.629l.016 1.558c.193-.28.397-.555.609-.826 1.264-1.602 2.77-2.976 3.75-4.792.29-.475.51-.989.658-1.525.052-.26.107-.52.144-.797.02-.29.02-.582 0-.873 0 0-.057 0-.06.008Zm-3.74-5.082a17.196 17.196 0 0 0-1.074-2.122l-.073 1.19c.097.246.194.493.285.737.386.942.602 1.943.64 2.959a6.508 6.508 0 0 1-.554 2.844 2.502 2.502 0 0 1-.648.797v.964l.09-.101a5.474 5.474 0 0 1 1.024-.86c.392-.224.732-.528.995-.893.481-.78.418-1.733.235-2.585-.224-1-.532-1.98-.92-2.93Zm6.689 8.472c-.417.847-.88 1.671-1.385 2.468-.99 1.606-2.057 3.198-2.642 5.006a11.638 11.638 0 0 0-.523 3.195 15.58 15.58 0 0 0 .32 3.273c.2 1.101.488 2.184.71 3.28.222 1.097.42 2.193.716 3.278.327 1.198.698 2.38 1.02 3.577.164.618.339 1.231.477 1.855 0 .028.013.057.021.085l.384-5.062-.031-.075c-.47-1.04-.936-2.078-1.482-3.081a11.994 11.994 0 0 1-1.126-3.166c-.457-2.13-.583-4.453-.04-6.577.477-1.87 1.498-3.536 2.504-5.164.552-.889 1.103-1.78 1.568-2.712.079-.153.146-.312.22-.468l.138-1.818c-.11.26-.22.543-.316.82a12.33 12.33 0 0 1-.533 1.287Zm-3.793 29.605a8.076 8.076 0 0 0-.198-.995c-.136-.631-.238-1.273-.35-1.91-.452-2.597-1.093-5.148-2.245-7.532a27.293 27.293 0 0 0-1.027-1.93c-.193-.325-.387-.655-.598-.969l-.05 1.008c.293.52.57 1.07.826 1.618a32.354 32.354 0 0 1 1.432 3.637c.408 1.26.715 2.551.92 3.86.108.65.16 1.31.154 1.969-.016.672-.094 1.34-.123 2.013a42.589 42.589 0 0 1-.13 2.104h1.439a17.628 17.628 0 0 0-.05-2.873Zm-3.946 2.875h.797c0-.091.02-.182.028-.273a10.12 10.12 0 0 0-.198-2.735 12.67 12.67 0 0 0-.87-2.61 9.713 9.713 0 0 0-.602-1.188 2.322 2.322 0 0 0-.09-.13l-.056 1.112c.053.122.107.242.154.364.334.855.582 1.74.74 2.644a10.4 10.4 0 0 1 .104 2.761l-.007.055Z" fill="#8E208E" style="mix-blend-mode:multiply" opacity=".3"/></g><g style="mix-blend-mode:multiply" opacity=".35" fill="#8E208E"><path d="M31.459 29.915c.348.946.697 1.888 1.045 2.827.614 1.592 1.306 3.355 2.631 4.498.327.28.714.57 1.163.572.217-.012.43-.055.635-.127.873-.245 1.346-.988 1.65-1.788.347-.932.522-1.927.765-2.885.266-1.003.568-1.995.904-2.977.33-.959.716-1.896 1.12-2.824l.017-1.997c-.223.465-.419.943-.612 1.397-.37.865-.7 1.74-.998 2.632a48.503 48.503 0 0 0-1.484 5.454c-.183.878-.39 1.819-.957 2.536a1.922 1.922 0 0 1-.313.32c-.066.051-.139.09-.21.137H36.8a.572.572 0 0 0-.089 0 2.098 2.098 0 0 1-.58-.156 2.975 2.975 0 0 1-.59-.413c-1.276-1.088-1.934-2.626-2.462-4.174-.355-1.04-.698-2.078-1.064-3.117l-.596-1.689a4.905 4.905 0 0 1-.067-.207l.107 1.981Z" style="mix-blend-mode:multiply" opacity=".3"/><path d="M34.796 32.835a.564.564 0 0 0 .439.091l.063-.016.214-.054c.16-.033.318-.076.473-.13a.665.665 0 0 0 .167-.096 2.19 2.19 0 0 0 .536-.907 8.91 8.91 0 0 0 .45-2.046 40.61 40.61 0 0 1 .373-2.289c.167-.852.366-1.701.593-2.54.103-.366.213-.73.33-1.091-.301.041-.6.09-.9.145-.114.434-.209.876-.313 1.3a36.149 36.149 0 0 0-.598 2.833c-.152.89-.23 1.79-.38 2.678a6.16 6.16 0 0 1-.318 1.218c-.086.251-.204.49-.353.71a1.63 1.63 0 0 1-.431-.52 7.452 7.452 0 0 1-.523-1.04 9.659 9.659 0 0 1-.622-2.29 20.841 20.841 0 0 1-.151-3.915c-.238.08-.473.167-.711.26-.097 2.37-.044 4.85 1.129 6.956.121.284.303.537.533.743Zm6.408 4.51a84.167 84.167 0 0 0-.954 2.982c-.285.935-.567 1.867-.854 2.8a8.543 8.543 0 0 1-.975 2.309 3.386 3.386 0 0 1-.724.78 3.05 3.05 0 0 1-.476.3l-.148.068a2.144 2.144 0 0 1-1.898-.904 7.308 7.308 0 0 1-1.068-2.39c-.262-.878-.445-1.779-.698-2.66a12.701 12.701 0 0 0-1.134-2.667c-.136-.26-.277-.489-.408-.733l.107 1.873c.221.474.406.964.554 1.465.262.92.45 1.857.709 2.777.258.92.543 1.818 1.105 2.558a2.126 2.126 0 0 0 2.09.881 5.074 5.074 0 0 0 2.023-.717 4.545 4.545 0 0 0 1.52-2.055c.39-.92.649-1.901.95-2.857.12-.382.242-.764.368-1.148l.02-2.977a7.426 7.426 0 0 1-.11.315ZM39.516 62.5a16.563 16.563 0 0 0-.69 3.418 40.61 40.61 0 0 0-.139 1.781c-.034.595 0 1.219-.039 1.819a25.87 25.87 0 0 1-.183 1.95c-.057.426-.047 1.094-.434 1.37-.488-.03-.888-.484-1.12-.876a8.545 8.545 0 0 1-.709-1.782 36.358 36.358 0 0 1-.87-3.8 24.098 24.098 0 0 0-1.063-3.816c-.468-1.226-1.03-2.413-1.51-3.636l-.095-.24.037 1.845c.188.457.381.914.57 1.369a23.348 23.348 0 0 1 1.19 3.608c.28 1.197.492 2.41.811 3.597.156.609.36 1.203.611 1.78.13.266.275.526.432.779.135.278.303.54.499.779a1.17 1.17 0 0 0 1.045.465h-.026l.052-.013h.013c.079-.018.152-.039.225-.06l.078-.02h-.018a.919.919 0 0 0 .564-.504c.262-.57.325-1.26.416-1.876.107-.704.17-1.413.261-2.117.201-1.382.261-2.78.541-4.156.3-1.446.738-2.86 1.307-4.223l.039-.091v-1.756a31.29 31.29 0 0 0-1.795 4.405Z" style="mix-blend-mode:multiply" opacity=".3"/><path d="M39.203 54.862c-.99 1.444-1.43 3.158-2.091 4.756a8.17 8.17 0 0 1-.536 1.111c-.045.08-.097.156-.156.227.099.015.164.134.039.093-.037-.016-.073-.023-.107-.036-.055.041-.115.088-.123.114a.327.327 0 0 1 .076-.13.451.451 0 0 1-.1-.052c-.58-.395-.627-1.343-.768-1.95a26.997 26.997 0 0 0-1.678-4.936 24.518 24.518 0 0 0-1.22-2.371l.026 1.345c.115.226.23.452.337.68a26.997 26.997 0 0 1 2.078 6.162c.053.372.191.727.402 1.039.345.447.912.309 1.372.106.34-.15.523-.537.693-.844.235-.418.441-.85.637-1.299.384-.864.687-1.763 1.077-2.626a9.206 9.206 0 0 1 1.377-2.241 5.48 5.48 0 0 1 .784-.751v-.286c-.182.083-.357.18-.523.291a5.873 5.873 0 0 0-1.596 1.598Zm2.362 36.064-.026-1.998a134.614 134.614 0 0 1-1.735-3.356 16.676 16.676 0 0 0-2.352-3.594c-1.045-1.188-2.197-2.276-3.183-3.52a11.04 11.04 0 0 1-1.074-1.605l.066 1.33c.872 1.285 2.033 2.337 3.099 3.467 1.016 1.07 1.996 2.216 2.634 3.559.577 1.215.943 2.514 1.484 3.745.287.665.637 1.3 1.045 1.9l.042.072Zm-5.204-.221a19.793 19.793 0 0 0-1.738-4.364 35.37 35.37 0 0 0-1.045-1.797l.076 1.51a26.24 26.24 0 0 1 1.92 4.28c.273.797.486 1.613.636 2.441.148.855.235 1.72.407 2.57.173.849.288 1.628.392 2.449.073.745.184 1.487.332 2.221v.039h.73a11.635 11.635 0 0 1-1.028-4.182 24.845 24.845 0 0 0-.682-5.167Z" style="mix-blend-mode:multiply" opacity=".3"/></g><path d="m41.399 23.295-.126 17.494.05 26.518.128 16.853-.178 16.141 14.506-.26 1.23-13.499 1.24-14.492.948-16.6 2.002-23.066-3.863-3.258-4.951-3.093-4.579-1.837-4.296-.901H41.4Z" fill="#C76B2C" style="mix-blend-mode:multiply" opacity=".25"/><g opacity=".35"><path d="M24.795 80.182c.146.045.297.07.45.075l-.024-.29h-.026a2.294 2.294 0 0 1-.784-.626 6.906 6.906 0 0 1-1.045-1.946 40.679 40.679 0 0 1-1.307-4.278c-.408-1.476-.75-2.974-1.306-4.416-.523-1.322-1.24-2.545-1.919-3.787a18.295 18.295 0 0 1-1.107-2.338l.067.826c.202.48.432.948.672 1.403.716 1.371 1.529 2.686 2.072 4.14 1.15 3.078 1.307 6.427 2.653 9.44.326.735.768 1.524 1.604 1.797Zm1.841 16.478a28.081 28.081 0 0 0-.33-1c-.603-1.719-1.88-3.072-2.424-4.818-.523-1.675-.59-3.447-1.02-5.143a31.133 31.133 0 0 0-1.889-5.09 43.68 43.68 0 0 0-1.364-2.741c-.26-.468-.494-.95-.757-1.424l.06.743c.083.148.167.296.245.447.422.795.825 1.6 1.21 2.418a21.654 21.654 0 0 1 1.727 5.195c.325 1.736.345 3.52.737 5.245.186.862.512 1.69.967 2.447.476.779 1.095 1.46 1.534 2.265.47.95.855 1.937 1.152 2.953.129.377.262.756.382 1.133l-.23-2.63Zm-2.686 2.845a115.98 115.98 0 0 1-.818-1.571 36.842 36.842 0 0 1-1.492-3.268 12.457 12.457 0 0 1-.8-3.553 14.111 14.111 0 0 0-.661-3.515 12.828 12.828 0 0 0-.523-1.239l.11 1.34c.341.977.572 1.989.687 3.016a25.806 25.806 0 0 0 1.775 6.933c.26.631.554 1.25.865 1.86.091.177.177.361.26.543h.897c-.097-.19-.201-.366-.3-.546Zm.22-33.56a30.15 30.15 0 0 1-2.689-2.857c-1.066-1.299-1.688-3.016-2.448-4.496a30.698 30.698 0 0 0-1.924-3.393l.194 2.364c.261.418.522.844.765 1.286.82 1.467 1.803 2.945 2.454 4.494.784 1.846 2.033 3.865 3.768 5.05l-.023-.313-.097-2.135Zm-3.35-13.572c.522-1.096.14-2.631.153-3.805.01-1.396.154-2.788.429-4.156a19.65 19.65 0 0 1 1.129-3.637l-.12-1.447-.013-1.473a16.453 16.453 0 0 0-1.006 2.995c-.374 1.5-.784 2.99-1.082 4.51a18.496 18.496 0 0 0-.39 4.416c.055 1.19.426 2.665-.58 3.467-1.016-.236-1.544-2.003-1.933-2.792-.296-.592-.565-1.198-.837-1.803l.243 2.995c.385.844.897 1.759 1.592 1.891a2.418 2.418 0 0 0 1.44-.296 2.22 2.22 0 0 0 .974-.865Zm-2.696-14.58c-.11.842-.167 1.691-.232 2.535-.063.78.112 2.504-.61 3.008a.638.638 0 0 1-.402-.143c-.013 0-.057.026-.067.019 1.58 1.22 2.11-3.182 2.166-3.84.085-1.275.265-2.543.538-3.792a23.83 23.83 0 0 0-1.393 2.213Z" fill="#8E208E" style="mix-blend-mode:multiply" opacity=".3"/></g><path d="M22.36 32.178 24 65.628l.62 8.141 2.354 26.76 7.04-.488-.899-16.69-.298-17.722-1.5-36.6-.198-3.311-4.492 2.634-4.268 3.826Z" fill="#C76B2C" style="mix-blend-mode:multiply" opacity=".25"/><path d="m21.602 32.993 1.374 15.923.899 17.884 1.432 15.422 1.665 17.819h.26l-.66-11.058-1.498-12.881-.846-14.69-.617-7.911-.758-9.723-.496-11.6-.755.815ZM34.33 100.04l-.668-10.574-.55-13.775-.072-15.224-1.077-23.46-.42-11.21-.988.458.386 3.403 1.223 20.346.429 19.35.295 14.12.787 16.566h.656Zm26.872-67.046-.288 3.831-1.487 17.897-1.04 19.206-1.481 16.141-.75 9.972h-.586v-4.088l1.633-13.46 1.461-22.191 1.438-16.243.885-11.296.215.23Zm-12.733 67.047.867-12.58-.175-14.003.674-16.3 1.048-14.476-.19-17.146 1.037.48-.322 9.15-.175 14.332-1.134 14.5-.243 15.294-.22 13.751-.512 6.998h-.655Zm-7.332-76.494.14 12.346-.323 20.105.177 10.73.272 16.65-.45 12.575-.148 4.088h.873l-.016-10.743.19-13.388-.4-13.218.15-16.697-.199-18.295.167-4.153h-.433Z" fill="#663535"/><path d="M63.013 73.063H19.274l-.25-4.977h44.493l-.504 4.977Z" fill="#73377F" style="mix-blend-mode:multiply" opacity=".35"/><path d="M63.266 72.575H19.528l-.505-4.977h44.494l-.25 4.977Z" fill="url(#d)"/><path d="m22.105 38.817-.16 5.767 1.262 8.917-.405-6.634-.697-8.05ZM32.23 53.161l-.52 7.873.814 5.37-.293-13.243Zm-7.472 23.133.22 8.733.914 8.322.598 6.692h.484l-2.216-23.747Zm16.46-45.622-.413 6.14.407 3.045.006-9.185Zm18.838 13.912L58.601 61.26l-.366 5.564-.204-6.38 2.025-15.86ZM47.81 29.417l.305-4.808-.998-.286.693 5.094Z" fill="#D9772F" style="mix-blend-mode:screen" opacity=".5"/><path d="m45.36 89.475.935 10.566h-.617l-.319-10.566Z" fill="#663535"/><path d="m45.678 100.041-.32-10.566-.561 10.566h.88Z" fill="#D9772F" style="mix-blend-mode:screen" opacity=".5"/><path d="M27.986 33.523a1.292 1.292 0 0 1-.688 1.305 1.314 1.314 0 0 1-1.472-.174 1.298 1.298 0 0 1-.36-1.429 1.3 1.3 0 0 1 1.214-.844 1.234 1.234 0 0 1 1.184.68c.07.145.113.302.122.462Z" fill="#73377F" style="mix-blend-mode:multiply" opacity=".35"/><path d="M28.346 33.256a1.293 1.293 0 0 1-.689 1.305 1.313 1.313 0 0 1-1.471-.174 1.298 1.298 0 0 1-.361-1.43 1.3 1.3 0 0 1 1.214-.844 1.234 1.234 0 0 1 1.184.681c.071.145.113.302.123.462Z" fill="url(#e)"/><path d="M27.279 33.895a1.029 1.029 0 0 1-.737-.255 1.016 1.016 0 0 1-.343-.696.922.922 0 0 1 .447-.779 1.16 1.16 0 0 0-.889 1.08c.041.314.195.602.433.811a1.311 1.311 0 0 0 1.727 0 1.29 1.29 0 0 0 .433-.81v-.117a1.065 1.065 0 0 1-1.071.766Z" fill="#46395B" style="mix-blend-mode:multiply" opacity=".45"/><path d="M27.792 32.619c0 .166-.188.301-.418.301-.23 0-.42-.135-.42-.301 0-.166.187-.299.42-.299.232 0 .418.135.418.299Z" fill="#8D85A0"/><path d="M36.359 34.669c.715 0 1.296-.512 1.296-1.143 0-.632-.58-1.143-1.296-1.143-.716 0-1.297.511-1.297 1.143 0 .63.58 1.143 1.297 1.143Z" fill="#73377F" style="mix-blend-mode:multiply" opacity=".35"/><path d="M38.01 33.256a1.292 1.292 0 0 1-.688 1.305 1.313 1.313 0 0 1-1.472-.174 1.296 1.296 0 0 1 .853-2.274 1.234 1.234 0 0 1 1.184.681c.071.145.113.302.123.462Z" fill="url(#f)"/><path d="M36.943 33.895a1.029 1.029 0 0 1-.737-.255 1.016 1.016 0 0 1-.343-.696.92.92 0 0 1 .447-.779 1.172 1.172 0 0 0-.888 1.08c.04.314.194.602.432.811a1.311 1.311 0 0 0 2.16-.81c0-.042 0-.078-.013-.117a1.052 1.052 0 0 1-1.058.766Z" fill="#46395B" style="mix-blend-mode:multiply" opacity=".45"/><path d="M37.456 32.619c0 .166-.186.301-.418.301-.233 0-.42-.135-.42-.301 0-.166.187-.299.42-.299.233 0 .418.135.418.299Z" fill="#8D85A0"/><path d="M47.315 33.523a1.292 1.292 0 0 1-.689 1.305 1.313 1.313 0 0 1-1.472-.174 1.297 1.297 0 0 1 .854-2.273 1.234 1.234 0 0 1 1.184.68c.07.145.113.302.123.462Z" fill="#73377F" style="mix-blend-mode:multiply" opacity=".35"/><path d="M47.674 33.256a1.291 1.291 0 0 1-.688 1.305 1.313 1.313 0 0 1-1.472-.174 1.298 1.298 0 0 1-.361-1.43 1.3 1.3 0 0 1 1.214-.844 1.234 1.234 0 0 1 1.184.681c.071.145.113.302.123.462Z" fill="url(#g)"/><path d="M46.607 33.895a1.028 1.028 0 0 1-.737-.255 1.016 1.016 0 0 1-.342-.696.92.92 0 0 1 .446-.779 1.16 1.16 0 0 0-.889 1.08c.041.314.195.602.433.811a1.311 1.311 0 0 0 1.728 0c.238-.209.392-.497.432-.81v-.117a1.05 1.05 0 0 1-1.071.766Z" fill="#46395B" style="mix-blend-mode:multiply" opacity=".45"/><path d="M47.12 32.619c0 .166-.185.301-.418.301-.233 0-.42-.135-.42-.301 0-.166.187-.299.42-.299.233 0 .418.135.418.299Z" fill="#8D85A0"/><path d="M55.687 34.669c.716 0 1.296-.512 1.296-1.143 0-.632-.58-1.143-1.296-1.143-.716 0-1.296.511-1.296 1.143 0 .63.58 1.143 1.296 1.143Z" fill="#73377F" style="mix-blend-mode:multiply" opacity=".35"/><path d="M57.338 33.256a1.293 1.293 0 0 1-.688 1.305 1.313 1.313 0 0 1-1.472-.174 1.298 1.298 0 0 1-.361-1.43 1.3 1.3 0 0 1 1.215-.844 1.234 1.234 0 0 1 1.183.681c.071.145.113.302.123.462Z" fill="url(#h)"/><path d="M56.27 33.895a1.029 1.029 0 0 1-.736-.255 1.016 1.016 0 0 1-.342-.696.922.922 0 0 1 .447-.779 1.16 1.16 0 0 0-.889 1.08c.04.314.194.602.432.811a1.311 1.311 0 0 0 1.728 0c.238-.209.392-.497.432-.81a.85.85 0 0 0-.013-.117 1.04 1.04 0 0 1-1.058.766Z" fill="#46395B" style="mix-blend-mode:multiply" opacity=".45"/><path d="M56.366 32.923c.232 0 .42-.135.42-.301 0-.167-.188-.302-.42-.302-.232 0-.42.135-.42.302 0 .166.188.3.42.3Z" fill="#8D85A0"/><path d="M27.921 61.034c.716 0 1.296-.512 1.296-1.143s-.58-1.143-1.296-1.143c-.716 0-1.296.512-1.296 1.143s.58 1.143 1.296 1.143Z" fill="#73377F" style="mix-blend-mode:multiply" opacity=".35"/><path d="M28.28 60.766c.716 0 1.297-.511 1.297-1.143 0-.63-.58-1.142-1.297-1.142-.715 0-1.296.511-1.296 1.142 0 .632.58 1.143 1.296 1.143Z" fill="url(#i)"/><path d="M28.508 60.263a1.028 1.028 0 0 1-.738-.256 1.016 1.016 0 0 1-.341-.698.913.913 0 0 1 .444-.766 1.157 1.157 0 0 0-.888 1.078c.04.313.193.602.432.81a1.311 1.311 0 0 0 1.727 0 1.29 1.29 0 0 0 .433-.81.837.837 0 0 0 0-.114 1.05 1.05 0 0 1-1.069.756Z" fill="#46395B" style="mix-blend-mode:multiply" opacity=".45"/><path d="M29.018 58.987c0 .166-.188.299-.42.299-.233 0-.418-.133-.418-.3 0-.165.188-.3.418-.3.23 0 .42.135.42.3Z" fill="#8D85A0"/><path d="M21.588 59.89a1.293 1.293 0 0 1-.688 1.306 1.313 1.313 0 0 1-1.472-.174 1.298 1.298 0 0 1-.361-1.43 1.311 1.311 0 0 1 1.215-.845 1.234 1.234 0 0 1 1.183.682c.071.144.113.301.123.462Z" fill="#73377F" style="mix-blend-mode:multiply" opacity=".35"/><path d="M20.648 60.766c.715 0 1.296-.511 1.296-1.143 0-.63-.58-1.142-1.296-1.142-.716 0-1.296.511-1.296 1.142 0 .632.58 1.143 1.296 1.143Z" fill="url(#j)"/><path d="M20.872 60.263a1.028 1.028 0 0 1-.737-.256 1.016 1.016 0 0 1-.342-.698.912.912 0 0 1 .444-.766 1.166 1.166 0 0 0-.885 1.078c.042.311.196.597.434.804a1.311 1.311 0 0 0 2.155-.804.859.859 0 0 0-.013-.114 1.04 1.04 0 0 1-1.056.756Z" fill="#46395B" style="mix-blend-mode:multiply" opacity=".45"/><path d="M21.393 58.987c0 .166-.188.299-.418.299-.23 0-.413-.123-.413-.3 0-.176.189-.3.421-.3.233 0 .41.135.41.3Z" fill="#8D85A0"/><path d="M38.361 59.89a1.292 1.292 0 0 1-.688 1.306 1.314 1.314 0 0 1-1.472-.174 1.298 1.298 0 0 1-.36-1.43 1.3 1.3 0 0 1 1.214-.844 1.234 1.234 0 0 1 1.184.681c.07.144.113.301.123.462Z" fill="#73377F" style="mix-blend-mode:multiply" opacity=".35"/><path d="M37.421 60.766c.716 0 1.296-.511 1.296-1.143 0-.63-.58-1.142-1.296-1.142-.716 0-1.296.511-1.296 1.142 0 .632.58 1.143 1.296 1.143Z" fill="url(#k)"/><path d="M37.646 60.263a1.028 1.028 0 0 1-.737-.256 1.016 1.016 0 0 1-.342-.698.916.916 0 0 1 .447-.766 1.157 1.157 0 0 0-.889 1.078c.04.313.194.602.432.81a1.311 1.311 0 0 0 1.728 0c.238-.208.392-.496.432-.81v-.114a1.055 1.055 0 0 1-1.071.756Z" fill="#46395B" style="mix-blend-mode:multiply" opacity=".45"/><path d="M38.16 58.987c0 .166-.189.299-.419.299-.23 0-.42-.133-.42-.3 0-.165.188-.3.42-.3.233 0 .418.135.418.3Z" fill="#8D85A0"/><path d="M45.452 61.034c.716 0 1.297-.512 1.297-1.143s-.58-1.143-1.297-1.143c-.715 0-1.296.512-1.296 1.143s.58 1.143 1.296 1.143Z" fill="#73377F" style="mix-blend-mode:multiply" opacity=".35"/><path d="M45.812 60.766c.716 0 1.296-.511 1.296-1.143 0-.63-.58-1.142-1.296-1.142-.716 0-1.296.511-1.296 1.142 0 .632.58 1.143 1.296 1.143Z" fill="url(#l)"/><path d="M46.04 60.263a1.028 1.028 0 0 1-.738-.256 1.016 1.016 0 0 1-.342-.698.912.912 0 0 1 .444-.766 1.157 1.157 0 0 0-.889 1.078c.04.313.194.602.433.81a1.311 1.311 0 0 0 1.727 0 1.29 1.29 0 0 0 .433-.81.859.859 0 0 0-.013-.114 1.04 1.04 0 0 1-1.056.756Z" fill="#46395B" style="mix-blend-mode:multiply" opacity=".45"/><path d="M46.55 58.987c0 .166-.188.299-.421.299-.232 0-.418-.133-.418-.3 0-.165.188-.3.418-.3.23 0 .42.135.42.3Z" fill="#8D85A0"/><path d="M54.6 61.034c.717 0 1.297-.512 1.297-1.143s-.58-1.143-1.296-1.143c-.716 0-1.296.512-1.296 1.143s.58 1.143 1.296 1.143Z" fill="#73377F" style="mix-blend-mode:multiply" opacity=".35"/><path d="M54.96 60.766c.716 0 1.296-.511 1.296-1.143 0-.63-.58-1.142-1.296-1.142-.716 0-1.296.511-1.296 1.142 0 .632.58 1.143 1.296 1.143Z" fill="url(#m)"/><path d="M55.185 60.263a1.028 1.028 0 0 1-.737-.256 1.016 1.016 0 0 1-.342-.698.915.915 0 0 1 .447-.766 1.157 1.157 0 0 0-.888 1.078c.04.313.193.602.432.81a1.311 1.311 0 0 0 1.727 0c.238-.208.392-.496.432-.81 0-.039 0-.075-.013-.114a1.052 1.052 0 0 1-1.058.756Z" fill="#46395B" style="mix-blend-mode:multiply" opacity=".45"/><path d="M55.69 58.987c0 .166-.185.299-.418.299-.232 0-.42-.133-.42-.3 0-.165.188-.3.42-.3.233 0 .418.135.418.3Z" fill="#8D85A0"/><path d="M62.234 61.034c.715 0 1.296-.512 1.296-1.143s-.58-1.143-1.296-1.143c-.716 0-1.297.512-1.297 1.143s.58 1.143 1.297 1.143Z" fill="#73377F" style="mix-blend-mode:multiply" opacity=".35"/><path d="M63.885 59.621a1.292 1.292 0 0 1-.688 1.305 1.313 1.313 0 0 1-1.472-.174 1.297 1.297 0 0 1-.361-1.43 1.3 1.3 0 0 1 1.214-.844 1.236 1.236 0 0 1 1.184.681c.071.145.113.302.123.462Z" fill="url(#n)"/><path d="M62.81 60.263a1.028 1.028 0 0 1-.737-.256 1.016 1.016 0 0 1-.342-.698.915.915 0 0 1 .447-.766 1.157 1.157 0 0 0-.888 1.078c.04.313.193.602.432.81a1.311 1.311 0 0 0 1.727 0c.238-.208.392-.496.432-.81 0-.039 0-.075-.013-.114a1.055 1.055 0 0 1-1.058.756Z" fill="#46395B" style="mix-blend-mode:multiply" opacity=".45"/><path d="M63.323 58.987c0 .166-.188.299-.418.299-.23 0-.42-.133-.42-.3 0-.165.188-.3.42-.3.233 0 .418.135.418.3Z" fill="#8D85A0"/><path d="M29.234 82.492c.715 0 1.296-.512 1.296-1.143s-.58-1.143-1.296-1.143c-.716 0-1.297.512-1.297 1.143s.58 1.143 1.297 1.143Z" fill="#73377F" style="mix-blend-mode:multiply" opacity=".35"/><path d="M30.893 81.08a1.293 1.293 0 0 1-.689 1.304 1.313 1.313 0 0 1-1.471-.174 1.298 1.298 0 0 1-.361-1.43 1.3 1.3 0 0 1 1.214-.844 1.236 1.236 0 0 1 1.184.681c.071.145.113.302.123.462Z" fill="url(#o)"/><path d="M29.818 81.72a1.028 1.028 0 0 1-.738-.255 1.016 1.016 0 0 1-.341-.698.912.912 0 0 1 .446-.766 1.157 1.157 0 0 0-.888 1.078c.04.313.194.602.432.81a1.311 1.311 0 0 0 1.728 0c.238-.208.392-.496.432-.81v-.114a1.055 1.055 0 0 1-1.071.755Z" fill="#46395B" style="mix-blend-mode:multiply" opacity=".45"/><path d="M30.331 80.445c0 .166-.188.299-.418.299-.23 0-.42-.133-.42-.3 0-.165.187-.3.42-.3.232 0 .418.135.418.3Z" fill="#8D85A0"/><path d="M22.062 82.492c.716 0 1.296-.512 1.296-1.143s-.58-1.143-1.296-1.143c-.716 0-1.296.512-1.296 1.143s.58 1.143 1.296 1.143Z" fill="#73377F" style="mix-blend-mode:multiply" opacity=".35"/><path d="M23.713 81.08a1.293 1.293 0 0 1-.688 1.304 1.313 1.313 0 0 1-1.472-.174 1.298 1.298 0 0 1-.361-1.43 1.3 1.3 0 0 1 1.215-.844 1.236 1.236 0 0 1 1.183.681c.071.145.113.302.123.462Z" fill="url(#p)"/><path d="M22.646 81.72a1.028 1.028 0 0 1-.737-.255 1.016 1.016 0 0 1-.342-.698.913.913 0 0 1 .447-.766 1.157 1.157 0 0 0-.889 1.078c.04.313.194.602.433.81a1.311 1.311 0 0 0 1.727 0c.238-.208.392-.496.432-.81 0-.039 0-.078-.013-.114a1.055 1.055 0 0 1-1.058.755Z" fill="#46395B" style="mix-blend-mode:multiply" opacity=".45"/><path d="M23.151 80.445c0 .166-.188.299-.418.299-.23 0-.42-.133-.42-.3 0-.165.188-.3.42-.3.233 0 .418.135.418.3Z" fill="#8D85A0"/><path d="M37.421 82.492c.716 0 1.296-.512 1.296-1.143s-.58-1.143-1.296-1.143c-.716 0-1.296.512-1.296 1.143s.58 1.143 1.296 1.143Z" fill="#73377F" style="mix-blend-mode:multiply" opacity=".35"/><path d="M37.78 82.224c.716 0 1.297-.511 1.297-1.143 0-.63-.58-1.142-1.296-1.142-.716 0-1.297.511-1.297 1.142 0 .632.58 1.143 1.297 1.143Z" fill="url(#q)"/><path d="M38.008 81.72a1.028 1.028 0 0 1-.74-.254 1.016 1.016 0 0 1-.342-.699.912.912 0 0 1 .447-.766 1.157 1.157 0 0 0-.888 1.078c.04.313.193.602.432.81a1.311 1.311 0 0 0 1.727 0c.239-.208.392-.496.433-.81a.797.797 0 0 0-.014-.114 1.04 1.04 0 0 1-1.055.755Z" fill="#46395B" style="mix-blend-mode:multiply" opacity=".45"/><path d="M38.519 80.445c0 .166-.189.299-.421.299-.233 0-.418-.133-.418-.3 0-.165.185-.3.418-.3.232 0 .42.135.42.3Z" fill="#8D85A0"/><path d="M45.1 82.492c.717 0 1.297-.512 1.297-1.143s-.58-1.143-1.296-1.143c-.716 0-1.296.512-1.296 1.143s.58 1.143 1.296 1.143Z" fill="#73377F" style="mix-blend-mode:multiply" opacity=".35"/><path d="M46.752 81.08a1.292 1.292 0 0 1-.688 1.304 1.313 1.313 0 0 1-1.472-.174 1.298 1.298 0 0 1-.361-1.43 1.3 1.3 0 0 1 1.215-.844 1.236 1.236 0 0 1 1.183.681c.071.145.113.302.123.462Z" fill="url(#r)"/><path d="M45.688 81.72a1.028 1.028 0 0 1-.74-.254 1.016 1.016 0 0 1-.342-.699.912.912 0 0 1 .447-.766 1.157 1.157 0 0 0-.888 1.078c.04.313.193.602.432.81a1.311 1.311 0 0 0 1.727 0c.238-.208.392-.496.432-.81a.797.797 0 0 0-.013-.114 1.04 1.04 0 0 1-1.056.755Z" fill="#46395B" style="mix-blend-mode:multiply" opacity=".45"/><path d="M46.198 80.445c0 .166-.188.299-.42.299-.233 0-.419-.133-.419-.3 0-.165.188-.3.419-.3.23 0 .42.135.42.3Z" fill="#8D85A0"/><path d="M53.288 82.492c.716 0 1.296-.512 1.296-1.143s-.58-1.143-1.296-1.143c-.715 0-1.296.512-1.296 1.143s.58 1.143 1.296 1.143Z" fill="#73377F" style="mix-blend-mode:multiply" opacity=".35"/><path d="M53.648 82.224c.715 0 1.296-.511 1.296-1.143 0-.63-.58-1.142-1.296-1.142-.716 0-1.296.511-1.296 1.142 0 .632.58 1.143 1.296 1.143Z" fill="url(#s)"/><path d="M53.872 81.72a1.028 1.028 0 0 1-.737-.255 1.016 1.016 0 0 1-.342-.698.91.91 0 0 1 .444-.766 1.166 1.166 0 0 0-.885 1.078c.042.312.196.597.434.804a1.311 1.311 0 0 0 2.155-.804.812.812 0 0 0-.013-.114 1.04 1.04 0 0 1-1.056.755Z" fill="#46395B" style="mix-blend-mode:multiply" opacity=".45"/><path d="M54.386 80.445c0 .166-.189.299-.418.299-.23 0-.421-.133-.421-.3 0-.165.188-.3.42-.3.233 0 .419.135.419.3Z" fill="#8D85A0"/><path d="M61.76 81.349a1.292 1.292 0 0 1-.688 1.305 1.313 1.313 0 0 1-1.472-.174 1.297 1.297 0 0 1 .853-2.274 1.234 1.234 0 0 1 1.184.681c.071.144.113.301.123.462Z" fill="#73377F" style="mix-blend-mode:multiply" opacity=".35"/><path d="M60.82 82.224c.715 0 1.296-.511 1.296-1.143 0-.63-.58-1.142-1.296-1.142-.716 0-1.297.511-1.297 1.142 0 .632.58 1.143 1.297 1.143Z" fill="url(#t)"/><path d="M61.044 81.72a1.028 1.028 0 0 1-.737-.255 1.016 1.016 0 0 1-.342-.698.91.91 0 0 1 .444-.766 1.155 1.155 0 0 0-.886 1.078c.043.311.197.597.435.804a1.31 1.31 0 0 0 2.155-.804.777.777 0 0 0 0-.114 1.05 1.05 0 0 1-1.069.756Z" fill="#46395B" style="mix-blend-mode:multiply" opacity=".45"/><path d="M61.557 80.445c0 .166-.188.299-.418.299-.23 0-.42-.133-.42-.3 0-.165.188-.3.42-.3.233 0 .418.135.418.3Z" fill="#8D85A0"/><path d="M31.338 96.223a1.293 1.293 0 0 1-.688 1.305 1.313 1.313 0 0 1-1.472-.175 1.298 1.298 0 0 1-.361-1.429 1.3 1.3 0 0 1 1.215-.844 1.234 1.234 0 0 1 1.183.681c.071.144.113.301.123.462Z" fill="#73377F" style="mix-blend-mode:multiply" opacity=".35"/><path d="M31.697 95.953a1.292 1.292 0 0 1-.688 1.305 1.313 1.313 0 0 1-1.472-.174 1.297 1.297 0 0 1 .854-2.274 1.234 1.234 0 0 1 1.184.681c.07.145.113.302.122.462Z" fill="url(#u)"/><path d="M30.622 96.591a1.029 1.029 0 0 1-.736-.254 1.016 1.016 0 0 1-.343-.696.92.92 0 0 1 .447-.78 1.174 1.174 0 0 0-.888 1.08 1.3 1.3 0 0 0 .432.812 1.311 1.311 0 0 0 2.16-.811v-.117a1.063 1.063 0 0 1-1.071.766Z" fill="#46395B" style="mix-blend-mode:multiply" opacity=".45"/><path d="M31.136 95.319c0 .163-.188.299-.418.299-.23 0-.421-.135-.421-.3 0-.163.188-.308.42-.308.233 0 .419.143.419.309Z" fill="#8D85A0"/><path d="M24.62 96.222a1.291 1.291 0 0 1-.689 1.306 1.313 1.313 0 0 1-1.472-.175 1.298 1.298 0 0 1-.36-1.429 1.3 1.3 0 0 1 1.214-.844c.326-.021.646.088.891.302.245.215.395.517.415.84Z" fill="#73377F" style="mix-blend-mode:multiply" opacity=".35"/><path d="M24.979 95.953a1.292 1.292 0 0 1-.689 1.305 1.313 1.313 0 0 1-1.472-.174 1.298 1.298 0 0 1-.36-1.43 1.311 1.311 0 0 1 1.215-.845 1.233 1.233 0 0 1 1.183.683c.071.144.113.3.123.461Z" fill="url(#v)"/><path d="M23.904 96.591a1.029 1.029 0 0 1-.737-.254 1.016 1.016 0 0 1-.343-.696.922.922 0 0 1 .447-.78 1.163 1.163 0 0 0-.889 1.08c.041.314.195.603.433.812a1.311 1.311 0 0 0 1.727 0c.24-.21.393-.498.433-.811v-.117a1.057 1.057 0 0 1-1.071.766Z" fill="#46395B" style="mix-blend-mode:multiply" opacity=".45"/><path d="M24.417 95.319c0 .163-.188.299-.418.299-.23 0-.42-.135-.42-.3 0-.163.187-.3.42-.3.232 0 .418.135.418.3Z" fill="#8D85A0"/><path d="M39.072 96.223a1.292 1.292 0 0 1-.688 1.305 1.313 1.313 0 0 1-1.472-.175 1.296 1.296 0 0 1 .854-2.273 1.234 1.234 0 0 1 1.184.681c.07.144.112.301.122.462Z" fill="#73377F" style="mix-blend-mode:multiply" opacity=".35"/><path d="M39.432 95.953a1.291 1.291 0 0 1-.689 1.305 1.313 1.313 0 0 1-1.471-.174 1.298 1.298 0 0 1-.361-1.43 1.3 1.3 0 0 1 1.214-.844 1.234 1.234 0 0 1 1.184.681c.071.145.113.302.123.462Z" fill="url(#w)"/><path d="M38.36 96.591a1.031 1.031 0 0 1-.738-.254 1.018 1.018 0 0 1-.344-.696.92.92 0 0 1 .446-.78 1.164 1.164 0 0 0-.888 1.081c.04.313.194.602.432.81a1.311 1.311 0 0 0 1.728 0c.238-.208.392-.497.432-.81a.901.901 0 0 0-.013-.117 1.05 1.05 0 0 1-1.056.766Z" fill="#46395B" style="mix-blend-mode:multiply" opacity=".45"/><path d="M38.87 95.319c0 .163-.188.299-.42.299-.233 0-.419-.135-.419-.3 0-.163.188-.3.419-.3.23 0 .42.135.42.3Z" fill="#8D85A0"/><path d="M46.291 96.223a1.293 1.293 0 0 1-.688 1.305 1.313 1.313 0 0 1-1.472-.175 1.298 1.298 0 0 1-.361-1.429 1.3 1.3 0 0 1 1.215-.844 1.233 1.233 0 0 1 1.183.681c.072.144.113.301.123.462Z" fill="#73377F" style="mix-blend-mode:multiply" opacity=".35"/><path d="M46.65 95.952a1.292 1.292 0 0 1-.69 1.307 1.313 1.313 0 0 1-1.475-.18 1.297 1.297 0 0 1-.352-1.434 1.3 1.3 0 0 1 1.224-.835c.324-.018.641.092.884.306.242.214.39.515.41.836Z" fill="url(#x)"/><path d="M45.583 96.591a1.029 1.029 0 0 1-.736-.254 1.016 1.016 0 0 1-.343-.696.918.918 0 0 1 .444-.78 1.17 1.17 0 0 0-.886 1.08c.043.312.197.598.436.805a1.31 1.31 0 0 0 2.154-.804.884.884 0 0 0-.013-.117c-.062.228-.2.428-.392.567a1.05 1.05 0 0 1-.664.2Z" fill="#46395B" style="mix-blend-mode:multiply" opacity=".45"/><path d="M46.097 95.319c0 .163-.189.299-.419.299-.23 0-.42-.135-.42-.3 0-.163.188-.3.42-.3.233 0 .419.135.419.3Z" fill="#8D85A0"/><path d="M54.026 96.223a1.293 1.293 0 0 1-.689 1.305 1.313 1.313 0 0 1-1.472-.175 1.298 1.298 0 0 1-.36-1.429 1.3 1.3 0 0 1 1.214-.844 1.234 1.234 0 0 1 1.184.681c.07.144.113.301.123.462Z" fill="#73377F" style="mix-blend-mode:multiply" opacity=".35"/><path d="M54.385 95.953a1.292 1.292 0 0 1-.688 1.305 1.313 1.313 0 0 1-1.472-.174 1.297 1.297 0 0 1 .853-2.274 1.234 1.234 0 0 1 1.184.681c.071.145.113.302.123.462Z" fill="url(#y)"/><path d="M53.313 96.591a1.028 1.028 0 0 1-.739-.253 1.016 1.016 0 0 1-.343-.697.92.92 0 0 1 .447-.78 1.174 1.174 0 0 0-.889 1.08c.04.314.194.603.433.812a1.311 1.311 0 0 0 2.16-.811.884.884 0 0 0-.014-.117 1.05 1.05 0 0 1-1.056.766Z" fill="#46395B" style="mix-blend-mode:multiply" opacity=".45"/><path d="M53.405 95.62c.232 0 .42-.135.42-.301 0-.166-.188-.301-.42-.301-.232 0-.42.135-.42.3 0 .167.188.302.42.302Z" fill="#8D85A0"/><path d="M60.752 96.223a1.292 1.292 0 0 1-.688 1.305 1.313 1.313 0 0 1-1.472-.175 1.296 1.296 0 0 1 .854-2.273 1.234 1.234 0 0 1 1.183.681c.071.144.113.301.123.462Z" fill="#73377F" style="mix-blend-mode:multiply" opacity=".35"/><path d="M61.104 95.953a1.292 1.292 0 0 1-.689 1.305 1.313 1.313 0 0 1-1.472-.174 1.298 1.298 0 0 1-.36-1.43 1.311 1.311 0 0 1 1.215-.845 1.233 1.233 0 0 1 1.183.683c.071.144.113.3.123.461Z" fill="url(#z)"/><path d="M60.031 96.591a1.028 1.028 0 0 1-.738-.253 1.016 1.016 0 0 1-.344-.697.922.922 0 0 1 .447-.78 1.164 1.164 0 0 0-.888 1.081c.04.313.194.602.432.81a1.311 1.311 0 0 0 1.727 0c.24-.208.393-.497.433-.81a.884.884 0 0 0-.013-.117 1.04 1.04 0 0 1-1.056.766Z" fill="#46395B" style="mix-blend-mode:multiply" opacity=".45"/><path d="M60.542 95.319c0 .163-.188.299-.42.299-.233 0-.419-.135-.419-.3 0-.163.188-.3.418-.3.23 0 .42.135.42.3Z" fill="#8D85A0"/><path d="M27.452 47.137c.716 0 1.297-.511 1.297-1.142 0-.632-.58-1.143-1.297-1.143-.716 0-1.296.511-1.296 1.143 0 .63.58 1.142 1.296 1.142Z" fill="#73377F" style="mix-blend-mode:multiply" opacity=".35"/><path d="M29.104 45.725a1.292 1.292 0 0 1-.689 1.305 1.314 1.314 0 0 1-1.472-.175 1.298 1.298 0 0 1-.36-1.429 1.3 1.3 0 0 1 1.214-.844 1.235 1.235 0 0 1 1.184.681c.071.144.113.301.123.462Z" fill="url(#A)"/><path d="M28.037 46.366a1.028 1.028 0 0 1-.738-.255 1.016 1.016 0 0 1-.342-.698.91.91 0 0 1 .444-.766 1.155 1.155 0 0 0-.886 1.078 1.31 1.31 0 0 0 2.59 0 .811.811 0 0 0-.013-.115 1.04 1.04 0 0 1-1.055.756Z" fill="#46395B" style="mix-blend-mode:multiply" opacity=".45"/><path d="M28.55 45.09c0 .167-.188.3-.418.3-.23 0-.421-.133-.421-.3 0-.166.188-.3.42-.3.233 0 .419.134.419.3Z" fill="#8D85A0"/><path d="M19.374 47.137c.716 0 1.296-.511 1.296-1.142 0-.632-.58-1.143-1.296-1.143-.716 0-1.296.511-1.296 1.143 0 .63.58 1.142 1.296 1.142Z" fill="#73377F" style="mix-blend-mode:multiply" opacity=".35"/><path d="M21.026 45.725a1.293 1.293 0 0 1-.689 1.305 1.313 1.313 0 0 1-1.472-.175 1.298 1.298 0 0 1-.36-1.429 1.3 1.3 0 0 1 1.214-.844 1.236 1.236 0 0 1 1.184.681c.07.144.113.301.123.462Z" fill="url(#B)"/><path d="M19.961 46.366a1.028 1.028 0 0 1-.737-.255 1.016 1.016 0 0 1-.342-.698.91.91 0 0 1 .444-.766 1.157 1.157 0 0 0-.889 1.078c.04.313.194.601.433.81a1.311 1.311 0 0 0 1.727 0c.239-.209.393-.497.433-.81a.811.811 0 0 0-.013-.115 1.04 1.04 0 0 1-1.056.756Z" fill="#46395B" style="mix-blend-mode:multiply" opacity=".45"/><path d="M20.472 45.09c0 .167-.189.3-.421.3-.233 0-.418-.133-.418-.3 0-.166.188-.3.418-.3.23 0 .42.134.42.3Z" fill="#8D85A0"/><path d="M56.22 45.994a1.293 1.293 0 0 1-.688 1.305 1.313 1.313 0 0 1-1.471-.174 1.298 1.298 0 0 1-.361-1.43 1.3 1.3 0 0 1 1.214-.844 1.234 1.234 0 0 1 1.184.681c.071.145.113.302.123.462Z" fill="#73377F" style="mix-blend-mode:multiply" opacity=".35"/><path d="M55.288 46.87c.716 0 1.296-.512 1.296-1.143s-.58-1.143-1.296-1.143c-.715 0-1.296.512-1.296 1.143s.58 1.143 1.296 1.143Z" fill="url(#C)"/><path d="M55.516 46.366a1.028 1.028 0 0 1-.74-.255 1.016 1.016 0 0 1-.342-.698.912.912 0 0 1 .447-.766 1.157 1.157 0 0 0-.888 1.078c.04.313.193.601.432.81a1.311 1.311 0 0 0 1.727 0c.239-.209.392-.497.432-.81a.797.797 0 0 0-.013-.115 1.04 1.04 0 0 1-1.055.756Z" fill="#46395B" style="mix-blend-mode:multiply" opacity=".45"/><path d="M56.026 45.09c0 .167-.188.3-.42.3-.233 0-.419-.133-.419-.3 0-.166.189-.3.419-.3.23 0 .42.134.42.3Z" fill="#8D85A0"/><path d="M64.643 45.994a1.293 1.293 0 0 1-.689 1.305 1.313 1.313 0 0 1-1.471-.174 1.297 1.297 0 0 1-.361-1.43 1.3 1.3 0 0 1 1.214-.844 1.234 1.234 0 0 1 1.184.681c.071.145.113.302.123.462Z" fill="#73377F" style="mix-blend-mode:multiply" opacity=".35"/><path d="M63.702 46.87c.716 0 1.297-.512 1.297-1.143s-.58-1.143-1.297-1.143c-.715 0-1.296.512-1.296 1.143s.58 1.143 1.296 1.143Z" fill="url(#D)"/><path d="M63.93 46.366a1.028 1.028 0 0 1-.74-.255 1.016 1.016 0 0 1-.342-.698.913.913 0 0 1 .447-.766 1.17 1.17 0 0 0-.889 1.078c.04.313.194.601.433.81a1.311 1.311 0 0 0 1.727 0 1.3 1.3 0 0 0 .433-.81.811.811 0 0 0-.014-.115 1.04 1.04 0 0 1-1.055.756Z" fill="#46395B" style="mix-blend-mode:multiply" opacity=".45"/><path d="M64.44 45.09c0 .167-.188.3-.42.3-.233 0-.418-.133-.418-.3 0-.166.185-.3.418-.3.232 0 .42.134.42.3Z" fill="#8D85A0"/><path d="m49.185 89.674-.716-5.644.716-8.808.151 12.24-.151 2.212ZM19.023 67.598l.855.522h26.667l-2.036.735-5.176.499 5.427-.177 4.359-1.057H62.9l.616-.522H19.023Z" fill="#D9772F" style="mix-blend-mode:screen" opacity=".5"/><path d="m19.023 67.598.855.522.248 3.89 42.79.115-.015-4.005.616-.522-.25 4.977h-43.74l-.504-4.977Z" fill="#663535"/><path d="M57.014 79.03a4.147 4.147 0 0 1-2.265-.745 4.11 4.11 0 0 1-1.473-1.865 4.083 4.083 0 0 1 .965-4.438 4.154 4.154 0 0 1 4.488-.842c.748.314 1.387.84 1.837 1.513.449.673.689 1.462.689 2.27a4.135 4.135 0 0 1-1.263 2.928 4.183 4.183 0 0 1-2.978 1.178Zm0-6.754a2.666 2.666 0 0 0-1.45.485 2.625 2.625 0 0 0-.314 4.045 2.66 2.66 0 0 0 2.88.54 2.646 2.646 0 0 0 1.625-2.423 2.665 2.665 0 0 0-.82-1.886 2.696 2.696 0 0 0-1.921-.754v-.007Z" fill="#73377F" style="mix-blend-mode:multiply" opacity=".45"/><path d="M57.014 77.561a4.147 4.147 0 0 1-2.264-.744 4.111 4.111 0 0 1-1.474-1.863 4.083 4.083 0 0 1 .963-4.438 4.154 4.154 0 0 1 4.486-.846 4.126 4.126 0 0 1 1.838 1.511c.45.672.69 1.461.692 2.269a4.134 4.134 0 0 1-1.262 2.931 4.183 4.183 0 0 1-2.98 1.18Zm0-6.753a2.665 2.665 0 0 0-1.45.486 2.625 2.625 0 0 0-.311 4.047 2.661 2.661 0 0 0 2.88.536 2.633 2.633 0 0 0 1.622-2.427 2.666 2.666 0 0 0-.822-1.88 2.694 2.694 0 0 0-1.92-.752v-.01Z" fill="url(#E)"/><path d="M57.017 70.818a2.711 2.711 0 0 1 1.839.693 2.68 2.68 0 0 1 .879 1.749v-.198a2.705 2.705 0 0 0-.828-1.863 2.737 2.737 0 0 0-3.798 0 2.705 2.705 0 0 0-.828 1.864v.197a2.674 2.674 0 0 1 .885-1.756 2.707 2.707 0 0 1 1.851-.686Z" fill="#46395B" style="mix-blend-mode:multiply" opacity=".25"/><path d="M57.014 77.245c-2.63 0-4.045-2.02-4.222-4.125 0 .112-.019.224-.019.338a4.207 4.207 0 0 0 1.294 2.886 4.257 4.257 0 0 0 2.947 1.184c1.1 0 2.157-.424 2.948-1.184a4.207 4.207 0 0 0 1.294-2.886c0-.114 0-.226-.019-.338-.175 2.104-1.591 4.125-4.223 4.125Z" fill="#46395B" style="mix-blend-mode:multiply" opacity=".25"/><path d="M55.987 76.826a3.699 3.699 0 0 1-1.63-.982 3.666 3.666 0 0 1-.92-1.66.22.22 0 0 1 .041-.191.261.261 0 0 1 .18-.104.263.263 0 0 1 .262.19 3.17 3.17 0 0 0 .796 1.43c.386.4.871.692 1.407.847.41.122.839.162 1.264.12a3.196 3.196 0 0 0 2.032-.966 3.16 3.16 0 0 0 .882-2.06.241.241 0 0 1 .225-.24.263.263 0 0 1 .099 0 .245.245 0 0 1 .18.237 3.657 3.657 0 0 1-1.016 2.38 3.699 3.699 0 0 1-2.342 1.122c-.49.047-.987 0-1.46-.138v.015Z" fill="#7E7693" style="mix-blend-mode:screen" opacity=".3"/><path d="M57.016 73.77c1.312 0 2.375-1.248 2.375-2.787 0-1.54-1.063-2.788-2.375-2.788s-2.375 1.248-2.375 2.788c0 1.539 1.063 2.787 2.375 2.787Z" fill="#73377F" style="mix-blend-mode:multiply" opacity=".45"/><path d="M57.013 72.424c1.206 0 2.184-.947 2.184-2.114 0-1.168-.978-2.115-2.184-2.115-1.207 0-2.185.947-2.185 2.115 0 1.167.978 2.114 2.185 2.114Z" fill="url(#F)"/><path fill-rule="evenodd" clip-rule="evenodd" d="M57.525 71.43a1.835 1.835 0 0 1-1.293-.517 1.813 1.813 0 0 1-.552-1.27 1.746 1.746 0 0 1 .622-1.333 2.134 2.134 0 0 0-1.061.763 2.114 2.114 0 0 0-.413 1.237c.02.555.253 1.081.651 1.47a2.194 2.194 0 0 0 3.005.061 2.17 2.17 0 0 0 .71-1.443 1.844 1.844 0 0 1-1.67 1.031Z" fill="#46395B" style="mix-blend-mode:multiply" opacity=".35"/><path fill-rule="evenodd" clip-rule="evenodd" d="M58.401 69.641c-.11.26-.473.333-.805.193-.332-.14-.522-.458-.405-.704.118-.247.473-.333.808-.192.334.14.514.454.402.703Z" fill="#7E7693" style="mix-blend-mode:screen"/><path d="m47.805 29.416.8-4.644-.495-.164-.305 4.808ZM46.444 68.12l-1.931.735-5.177.499 7.108-1.234Zm-14.319 3.923 5.302-.507-2.652.514-2.65-.007Z" fill="#663535"/><path d="M48.542 55.05H33.611l-.4-14.26h15.331v14.26Z" fill="#73377F" style="mix-blend-mode:multiply" opacity=".35"/><path d="M34.742 42.012h13.069l-.48 11.488H35.22l-.478-11.49Z" fill="#9C410E"/><path d="m34.742 41.805.089 2.127h1.453l.374 10.213h1.126l-.21-10.213h4.169l-.21 10.213h1.127l.374-10.213h2.68l-.41 9.57h2.284l.489-11.697H34.742Z" fill="#73377F" style="mix-blend-mode:multiply" opacity=".35"/><path d="m33.422 40.79.58 13.932h14.537l.58-13.933H33.422Zm13.904 12.709H35.215l-.479-11.479h13.066l-.476 11.48Z" fill="url(#G)"/><path d="m33.422 40.79.31.21.594 13.387H48.22l.319.335H34.002l-.58-13.933Z" fill="#46395B" style="mix-blend-mode:multiply" opacity=".35"/><path d="m34.328 41.563.41.449h13.069L47.328 53.5l.262.273.632-12.212H34.328Z" fill="#46395B" style="mix-blend-mode:multiply" opacity=".35"/><path d="m33.733 41 14.806.08.58-.29H33.422l.31.21Zm1.484 12.501-.342.273H47.59l-.26-.273H35.216Z" fill="#635B72"/><path d="M37.852 42.012 38.27 53.5h1.212l-.235-11.49h-1.395Z" fill="#382E38"/><path d="m38.148 42.778.515 10.383h.366l-.1-10.383h-.78Z" fill="#493A48"/><path d="M45.146 42.012 44.728 53.5h-1.212l.235-11.49h1.395Z" fill="#382E38"/><path d="m44.844 42.778-.517 10.383h-.366l.1-10.383h.783Z" fill="#493A48"/><path d="M36.404 60.963a.13.13 0 0 0-.115.042l.047.015.068-.057Z" fill="#8E208E" style="mix-blend-mode:multiply" opacity=".3"/><g opacity=".5"><path d="M25.53 67.657c.572.242 1.155.455 1.74.67.502.182 1.046.4 1.385.844.293.395.426.956.09 1.364a1.729 1.729 0 0 1-.432.317l-.238.029c-.177.02-.355.03-.522.049-.97.1-1.928.291-2.862.569-.908.268-1.784.633-2.613 1.088h.16c.788-.447 1.622-.81 2.487-1.083.708-.223 1.438-.37 2.177-.439a8.506 8.506 0 0 0 1.359-.166c.45-.081.879-.248 1.265-.491.418-.31.682-.826.444-1.328-.238-.5-.763-.779-1.283-.958-.52-.18-1.001-.338-1.498-.52h-1.784l.125.055Zm-4.26.67c.465.452 1.079.896.883 1.624a1.11 1.11 0 0 1-.452.654 2.06 2.06 0 0 1-.863.325c-.48.093-.967.161-1.455.203v.067c.42-.047.841-.12 1.252-.205.624-.135 1.306-.288 1.805-.707a1.303 1.303 0 0 0 .51-.922c0-.436-.34-.725-.622-1.01-.282-.286-.507-.501-.75-.761h-1.045c.23.26.475.504.736.732Zm16.496-.732a1.987 1.987 0 0 0-.13.59c-.032.447.039.948-.233 1.338a1.135 1.135 0 0 1-.434.358l-.047.024h-.06a21.042 21.042 0 0 0-5.247 1.727 12.07 12.07 0 0 0-1.568.94h.24c.414-.297.845-.57 1.291-.815.916-.496 1.879-.9 2.875-1.208.784-.26 1.614-.408 2.425-.608a1.45 1.45 0 0 0 .42-.107 2.35 2.35 0 0 0 1.006-.446c.35-.32.405-.798.437-1.245.01-.184.03-.368.063-.55l-1.038.002Zm2.504 3.955c-.863.38-1.767.658-2.637 1.024h.465c.16-.08.321-.16.483-.231.918-.397 1.88-.678 2.791-1.088.862-.385 1.704-.902 2.248-1.691a2.692 2.692 0 0 0 .47-1.97h-.575c.008 1.855-1.657 3.258-3.245 3.957Zm9.638-3.48c.262.347.428.756.483 1.187a1.494 1.494 0 0 1-.35 1.174 4.981 4.981 0 0 1-1.233.844 13.92 13.92 0 0 1-3.097 1.3h.19a17.815 17.815 0 0 0 2.729-.998c.563-.26 1.11-.555 1.638-.88.497-.307.949-.624 1.074-1.224a2.157 2.157 0 0 0-.277-1.502 4.178 4.178 0 0 0-.245-.376h-1.286c.136.149.26.308.374.475Zm-6.268 4.505.26-.174a9.913 9.913 0 0 0 1.453-1.25c.22-.23.434-.47.63-.719.165-.208.436-.491.468-.761 0 .023-.196.039-.217.06-.403.405-.782.832-1.137 1.28-.358.394-.744.762-1.155 1.102a9.943 9.943 0 0 1-.606.462h.303Zm9.24-4.907c.073.202.172.397.24.602.139.407.18.84.123 1.265a3.758 3.758 0 0 1-1.194 2.057 6.85 6.85 0 0 1-1.307.982h.463a6.35 6.35 0 0 0 1.071-.636c.732-.54 1.442-1.283 1.688-2.18a2.22 2.22 0 0 0-.102-1.407c-.09-.24-.2-.47-.329-.691l-.047-.065h-.627a.737.737 0 0 0 .02.073Zm6.996.096a3.498 3.498 0 0 1 .867 2.545c-.078 1.18-.854 1.818-1.813 2.265h.261c1.16-.431 2.182-1.086 2.524-2.382a2.873 2.873 0 0 0-.635-2.597h-1.353c.044.057.099.111.149.169Zm-25.141-.169c-.12.283-.271.552-.45.803a3.497 3.497 0 0 1-1.507 1.015l-.204.086h-.058a.763.763 0 0 1-.454-.125c-.3-.202-.243-.485-.03-.722a.896.896 0 0 0 .228-.353 1.2 1.2 0 0 0-.02-.561c0-.047-.027-.099-.04-.148h-.303c0 .028.018.057.026.086a1.08 1.08 0 0 1-.08.909c-.147.192-.403.353-.33.634a.553.553 0 0 0 .575.402c.24-.025.477-.08.705-.16a8.37 8.37 0 0 0 .863-.318 4.104 4.104 0 0 0 1.596-1.008 3.54 3.54 0 0 0 .374-.545l-.891.005Z" fill="#8E208E" style="mix-blend-mode:multiply" opacity=".3"/></g><path d="m4.323 98.148 10.889-.47 1.006.948 1.2 14.045-1.861 1.233-12.82-.342-1.378-1.097 1.377-13.237 1.587-1.08Z" fill="#7F6660"/><path d="m15.214 97.677.825-1.037v-4.452l-.825-.805-11.924.53-1.032 1.096.62 4.668 1.447.47 10.889-.47Z" fill="#AD9F8C"/><path d="m15.216 91.383.335-1.428-1.798-17.832-.88-1.31-9.479.408-1.097 1.367L3.724 90.92l.833.938 10.66-.476Z" fill="#917E71"/><path d="m3.392 71.221-1.738-.504L0 62.2l.672-1.8 11.646-1.026.698.878.525 9.398-.671 1.163-9.478.408Zm8.923-11.847.415-.925-.896-15.517-.97-1.43-7.891.255-1.121 1.77L3.39 59.373l1.16.683 7.764-.683Z" fill="#AD9F8C"/><path d="m2.976 41.76-.972-.576s-.758-7.533 4.066-13.393a7.632 7.632 0 0 1 1.83-.548l7.857 5.138v1.44l-3.823 7.192-1.071.49-7.887.258Z" fill="#917E71"/><path d="M15.77 32.38h.998l6.721-6.883.335-1.818-8.187-11.455-1.853-.447c-2.874 1.04-8.61 6.445-10.73 10.463.097.91.364 2.063.364 2.063L15.77 32.38Z" fill="#7F6660"/><path d="M23.817 23.681h1.18l8.47-4.52.784-1.527-4.181-9.956-1.463-.34c-3.207 0-7.892 2.455-10.735 5.429l-.599 1.787 6.544 9.127Z" fill="#AD9F8C"/><path d="m78.477 98.148-10.889-.47-1.006.948-1.2 14.045 1.861 1.233 12.82-.342 1.377-1.097-1.377-13.237-1.586-1.08Z" fill="#7F6660"/><path d="m78.483 98.147 1.448-.47.619-4.668-1.032-1.096-11.924-.53-.828.805v4.452l.828 1.037 10.889.47Z" fill="#AD9F8C"/><path d="m67.592 91.383-.334-1.428 1.798-17.832.88-1.31 9.478.408 1.098 1.367-1.427 18.333-.834.938-10.659-.476Z" fill="#7F6660"/><path d="m79.415 71.221 1.738-.504 1.654-8.517-.672-1.8-11.646-1.026-.698.878-.525 9.398.671 1.163 9.478.408Z" fill="#917E71"/><path d="m70.486 59.374-.416-.925.897-15.517.97-1.43 7.89.255 1.122 1.77-1.54 15.847-1.16.683-7.763-.683Z" fill="#AD9F8C"/><path d="m79.828 41.76.959-.572s.76-7.533-4.066-13.393a9.516 9.516 0 0 0-1.73-.608l-7.952 5.196v1.439l3.826 7.192 1.071.491 7.892.255Z" fill="#7F6660"/><path d="M67.038 32.38h-.998l-6.721-6.883-.335-1.818 8.187-11.455 1.853-.447c2.874 1.04 8.61 6.445 10.73 10.463-.097.91-.364 2.063-.364 2.063L67.038 32.38Z" fill="#917E71"/><path d="M58.988 23.681h-1.181l-8.47-4.52-.509-.981 4.32-10.6 1.045-.242c3.206 0 7.892 2.455 10.735 5.429l.598 1.787-6.538 9.127Z" fill="#7F6660"/><path d="m34.262 17.64 1.489.779c2.24-.41 5.859-1.3 11.647.309a3.811 3.811 0 0 0 1.43-.52L54.013 5.48l-.308-1.574c-5.101-3.21-15.439-4.745-23.71-.07-.378.585-.621 2.031-.621 2.031l.708 1.819 4.179 9.953Z" fill="#917E71"/><path d="m14.678 81.346-.065-.641-1.406-.831-.065-.042-.068.005-2.587.127-2.253-3.088 2.08 3.294.032.052.076.005 1.536.075-.517 1.338-2.002.802 2.166-.542.07-.016.027-.075.536-1.494.758.037 1.682.994Z" fill="#69504B"/><path d="m16.219 98.626 1.2-.949 2.29-.49.325 4.467-3.306 2.899-.51-5.927Zm-.179-1.986h1.379l2.208-.457-.392-4.8-2.36.332-.836.473v4.452Zm-.492-6.686.993.427 2.579-.388-1.552-18.982-2.355.21-1.463.901 1.798 17.832ZM13.54 69.65l1.673.537 2.253-.228-.802-10.022h-1.676l-1.972.315.525 9.398Zm-.808-11.201 2.154.125 1.651-.148-1.325-15.957-2.48-.205-.896.667.896 15.518Zm-.794-17.435 3.391.743 1.82-4.535 1.063-1.787-1.132-1.187-1.317-.429-3.825 7.195Z" fill="#54413E"/><path d="m16.766 32.383.862 1.047 1.442.774 3.102-3.507 3.21-2.76-.905-1.679-.99-.76-6.721 6.885ZM25 23.682l.517 1.816 1.218 1.49 4.02-2.27 4.272-1.595-.575-2.797-.983-1.156-5.19 2.764L25 23.682Zm41.583 74.944-1.199-.949-2.292-.49-.326 4.467 3.308 2.899.51-5.927Zm.182-1.986h-1.377l-2.208-.457.392-4.8 2.36.332.833.473v4.452Zm.495-6.686-.993.427-2.58-.388 1.553-18.982 2.354.21 1.464.901-1.798 17.832Zm2.003-20.304-1.672.537-2.255-.228.805-10.022h1.675l1.973.315-.526 9.398Zm.807-11.201-2.153.125-1.651-.148 1.325-15.957 2.48-.205.896.667-.897 15.518Zm.798-17.435-3.392.743-1.819-4.535-1.063-1.787 1.129-1.187 1.32-.429 3.825 7.195Zm-4.825-8.631-.86 1.047-1.443.774-3.101-3.507-3.21-2.76.905-1.679.99-.76 6.719 6.885Zm-8.235-8.701-.517 1.816-1.218 1.49-4.02-2.27-4.272-1.595.575-2.797.983-1.156 5.19 2.764 3.279 1.748Z" fill="#443534"/><path d="m1.772 108.494.484 3.296 1.86 1.052 10.027.104 1.275-.753.468-5.276.724-.205.548 6.13-1.602 1.062-12.82-.342-1.377-1.097.413-3.971Zm64.076 1.695 1.547 2.167 7.395.35h4.704l1.777-1.865.17 1.624-1.378 1.096-12.82.343-1.86-1.234.465-2.481Z" fill="#7F6660" style="mix-blend-mode:multiply" opacity=".35"/><path d="m35.745 18.406-.136 1.644.47 2.798 5.041-.652 4.43.407 1.361.325.481-4.213-2.806-.738-2.587-.166-2.53-.073-3.724.668Z" fill="#443534"/><path d="M61.506 101.041s3.774 2.517 5.015 3.392c1.241.876 1.069 2.26-.052 6.832-.784 3.249-1.032 2.878-4.91 2.878-4.547 0-16.696.052-20.158.052-3.463 0-15.61-.052-20.158-.052-3.878 0-4.115.371-4.91-2.878-1.12-4.572-1.306-5.959-.052-6.832 1.254-.872 4.91-3.392 4.91-3.392h40.315Z" fill="#917E71"/><path d="m61.455 113.904-7.431-.172-2.789-.779-13.107.189-5.963-1.2-9.259.762-5.487-.032-1.38-2.623c.125.561.123.519.295 1.218.784 3.25 1.032 2.878 4.91 2.878 4.547 0 16.696.052 20.158.052 3.462 0 15.61-.052 20.158-.052 3.878 0 4.115.372 4.91-2.878l-1.294 2.185-3.72.452Z" fill="#7F6660" style="mix-blend-mode:multiply" opacity=".35"/><path d="m65.235 109.064-1.192-.418h-.002l-.008-.003-1.594-.33-.029-.007-.036.013-2.577.828-2.608.102-.075.002-.06.057-3.636 3.616-2.059 1.244 1.432-.005 1.022-.683.042-.029.023-.026 1.947-2.163 1.49.317.812 1.116.021.032.024.01 1.918.816-1.785-.998-.71-1.26-.035-.059-.083-.024-1.275-.371 1.087-1.208 2.553-.099h.031l.024-.01 2.534-.951 1.57.229 1.221.345.013.005.013-.005 1.252-.501-1.265.418Z" fill="#69504B"/><path d="M67.258 105.399c-.134-.405-.421-.646-.735-.953-1.24-1.221-3.77-3.392-3.77-3.392H20.054s-2.286 1.888-3.737 2.997c-.26.208-.522.813-.66 1.091l3.882-.8 6.306.411 3.8-.616s20.96.052 21.113 0c.155-.052 9.7 0 9.7 0l5.24.483 1.56.779Z" fill="#AD9F8C"/><path d="M2.508 101.467s1.599-2.265 3.713-1.641c2.114.623 5.038.109 6.308-.148 1.91-.382 3.324.181 4.084 3.535-.167-1.977-.392-4.59-.392-4.59l-1.005-.948-10.89.472-1.586 1.081-.232 2.239Zm13.809 2.572h3.429l5.777.343 4.767-.72 10.251.481-10.907-.019-3.8.616-6.305-.41-3.873.81c.162-.431.494-1.016.661-1.101Z" fill="#8C7367" style="mix-blend-mode:screen" opacity=".5"/><path d="M66.915 109.381s.434-2.997.19-3.306c-.242-.309-1.635-1.06-1.635-1.06l-3.627-.462-4.965-.172-3.658.925-3.275-1.169.81-.013h9.7l5.24.496 1.568.761s.478 1.19-.348 4Zm-10.712 1.461 1.228-1.078 2.412-.229-2.553.099-1.087 1.208Zm-2.351 2.61 1.97-2.189 1.49.317-1.425-.185-2.035 2.057Z" fill="#8C7367" style="mix-blend-mode:screen"/><path d="m2.438 94.363-.172-1.353 1.045-1.097 11.903-.54.825.805v4.247c-.379-1.85-.619-3.938-3.658-3.475-3.039.462-3.841-.12-5.375-.31-1.534-.189-4.44-.451-4.568 1.723Z" fill="#8C7367" style="mix-blend-mode:screen" opacity=".5"/><path d="m2.665 77.346-.368-4.748 1.097-1.367 9.478-.405.88 1.299.798 7.819c-.452-2.3-1.343-7.837-3.983-7.793a52.27 52.27 0 0 0-5.884.431c-1.699.19-2.245 1.834-2.018 4.764Z" fill="#8C7367" style="mix-blend-mode:screen" opacity=".7"/><path d="M.601 65.297 0 62.197.672 60.4l11.646-1.039.698.88.387 6.908c-.507-4.242-1.83-6.107-4.288-5.938-2.46.169-4.2.273-5.368.335-1.453.088-3.656-.346-3.146 3.75Zm1.575-18.43-.324-3.343 1.12-1.763 7.892-.26.97 1.429.444 7.701c-.834-3.117-.332-8.008-3.1-7.855-2.767.154-3.694.06-4.512.154-1.244.142-2.713.142-2.49 3.938ZM3.43 32.321c.828-1.79 1.372-2.971 2.655-4.53a4.06 4.06 0 0 1 1.829-.548l7.857 5.138v1.44l-2.563 4.823c1.476-3.697 1.218-6.523-1.884-7.395-3.102-.873-3.813-1.725-4.027-2.213-.214-.489-1.604-.782-3.867 3.285Zm12.197-20.094-1.853-.447c-.616.164-1.829.977-1.829.977 2.956-.836 4.2 2.507 4.33 4.818.06 1.104.706 2.13 1.547 2.993l-1.293 2.25 1.617-1.936a11.286 11.286 0 0 0 2.65 1.805c1.706.824 1.189 3.52-.899 6.479l3.58-3.668.334-1.819-8.184-11.452Z" fill="#8C7367" style="mix-blend-mode:screen" opacity=".5"/><path d="m20.513 19.11-.303-.395c-.46.45-.915.883-1.383 1.325v.013c-.744.932-1.481 1.87-2.276 2.758l-4.722-.348c.042-.07.087-.137.131-.208.3-.472.606-.94.915-1.407.308-.468.622-.93.948-1.385l.045-.062-.042-.073-1.793-3.078-.065-3.499-.426.356.232 3.184v.06l1.772 3.042c-.261.462-.54.917-.82 1.371-.28.455-.59.948-.894 1.419-.303.47-.606.942-.917 1.405-.311.462-.627.927-.946 1.387l-.024.034v.046l.173 3.637.522.338-.426-3.951c.262-.468.552-.935.84-1.398.221-.366.451-.724.679-1.085l4.847.485h.07l.042-.052c.753-.945 1.568-1.839 2.37-2.74.5-.4.947-.785 1.45-1.18Z" fill="#69504B"/><path d="m9.969 24.983 3.577-5.582-1.772-3.045 1.459 2.967-3.264 5.66Z" fill="#8C7367" style="mix-blend-mode:screen" opacity=".5"/><path d="m66.29 102.633.302-4.01 1.006-.948 10.89.472 1.585 1.081 1.072 10.305c-.865-4.502-1.32-9.232-3.865-9.232-2.613 0-4.374.067-6.272-.852-1.897-.92-4.243-.023-4.719 3.184Z" fill="#8C7367" style="mix-blend-mode:screen" opacity=".7"/><path d="M66.766 94.49v-2.296l.83-.821 11.924.532 1.032 1.097-.6 4.52c-.053-2.57.188-4.144-2.674-3.939-2.861.206-4.442-.309-5.65-.779-1.207-.47-4.62-1.405-4.862 1.686Zm1.75-17.032.538-5.335.88-1.299 9.478.405 1.098 1.367-.915 11.759c-.125-4.47.735-10.985-.841-11.084-2.352-.148-3.659.14-5.03-.14-1.372-.28-3.962-1.863-5.208 4.327Z" fill="#8C7367" style="mix-blend-mode:screen" opacity=".5"/><path d="m69.469 65.977.321-5.715.698-.88 11.647 1.039.671 1.797-1.024 5.258c.48-3.897-.324-6.175-2.543-6.008-2.135.158-4.233-.31-5.72-.7-1.299-.345-3.439-.825-4.05 5.209Zm1.304-19.681.194-3.377.97-1.429 7.89.26 1.122 1.769-.813 8.504c.019-4.699.784-8.27-.964-8.091-1.748.18-2.911.13-4.155-.463-1.244-.592-4.207-1.19-4.244 2.827Z" fill="#8C7367" style="mix-blend-mode:screen" opacity=".7"/><path d="m68.693 36.919-1.654-3.1v-1.438l7.952-5.195 1.73.607c.836.78 2.417 3.637 3.034 5.733-1.628-2.41-3.397-5.218-4.858-3.673-1.461 1.546-2.352 1.237-3.259 1.161-.907-.075-5.038.665-2.945 5.905Zm.245-21.389-.172 3.665 3.033 3.17-2.749-3.294-.112-3.54Z" fill="#8C7367" style="mix-blend-mode:screen" opacity=".5"/><path d="M75.287 16.513c-1.662-1.634-3.54-3.535-6.258-4.733l-1.853.447-2.715 3.834 4.103-2.662a1.947 1.947 0 0 1 2.383.184c1.664 1.577 1.267 3.065 2.613 3.169l.1.015-.288.824-1.607 1.382 1.829-1.25.473-.779c1.52.86 4.092 4.486 3.724 5.975-.413 1.68-4.393 5.298-4.393 5.298l5.994-3.92.364-2.062a25.246 25.246 0 0 0-4.469-5.722Z" fill="#8C7367" style="mix-blend-mode:screen" opacity=".5"/><path d="m74.697 15.915-1.1 1.818-1.837 1.252-.066.044.008.073.353 3.356-2.749-3.486-.368-3.442.112 3.502v.039l.029.034 3 3.597.378 3.85-.546 2.646.502-.327.306-2.29.002-.022v-.015l-.514-3.876-.238-3.512 1.798-1.226.018-.013.018-.02 1.205-1.678-.311-.304Z" fill="#69504B"/><path d="m52.383 9.46.763-1.876 1.045-.241c3.102.101 6.086 1.841 7.016 2.454.93.614 2.977 2.136 3.719 2.975.308.924.598 1.787.598 1.787l-4.949 6.91s4.202-7.368 3.136-8.313c-2.496-2.213-5.135-1.665-5.893-3.24-.758-1.573-4.583-2.547-5.435-.456Zm-1.143 2.805 2.766-6.808-.308-1.574C48.605.696 38.268-.839 29.997 3.836c-.379.585-.622 2.032-.622 2.032l1.902 4.65s-1.33-3.736-.316-5.173C32.513 3.153 43.61 2.467 46.193 2.81c.993.133 2.072.338 3.031 1.198l.484 4.041-2.977 3.484 3.309-3.377-.215-2.166v-.05a6.488 6.488 0 0 1 1.602 4.024l-1.612-.037-1.699.465 1.699-.275 1.623.117a8.882 8.882 0 0 1-.199 2.031Z" fill="#8C7367" style="mix-blend-mode:screen" opacity=".5"/><path d="m49.786 9.67-.016.006-1.406.49 1.926-1.83.047-.045-.005-.067L50.2 6.01l.188-1.712 2.24-1.023-.578-.28-1.955.97-.11.055-.01.117-.14 1.852v.031l.203 2.159-3.306 3.364-.018.018-.003.02-.473 3.686-2.401 2.71.585.085 2.041-2.657.026-.034.005-.033.345-3.718 1.289-1.226 1.698-.464 2.344.049.15-.366-2.51.057h-.023Z" fill="#69504B"/><path d="m17.976 15.525-.695-.953.599-1.787c2.43-2.484 3.616-2.858 5.176-3.803 1.56-.946 4.913-1.777 5.558-1.626l1.464.34 2.676 6.377c-2.796-3.567-3.486-5.348-6.517-4.561-3.032.787-9.214 4.065-8.26 6.013Z" fill="#8C7367" style="mix-blend-mode:screen" opacity=".5"/><path d="m11.958 80.302-.28-.016-1.332-.064-2.112-3.346 2.033 3.569 1.338.06-.34 1.026-1.826.911 2.002-.802.433-1.122.084-.216Zm.206.237h.813l1.711 1.117-.005-.31L13 80.353l-.758-.037-.078.224Z" fill="#8C7367" style="mix-blend-mode:screen" opacity=".7"/><path d="m2.68 96.223 1.502 1.14 6.823.312h4.205l-10.89.472-1.447-.472-.193-1.452ZM1.148 68.12l1.555 1.966 4.963.489 3.791-.24 2.018-1.859.065 1.174-.672 1.164-9.478.408-1.737-.504-.505-2.598Zm1.969-11.619.97 2.486h5.918l1.592-.745.99-2.364.15 2.569-.416.925-7.764.685s-1.147-.556-1.16-.685l-.28-2.87ZM2.06 38.098l.494 2.675 1.552.436 6.588-.436 2.035-1.252-.783 1.491-1.072.491-7.891.26-.983-.58c-.17-.924.06-3.085.06-3.085Zm15.466-7.018H15.46l-4.442-2.227-2.773-2.468-4.18-2.498-.293-1.806.59-1.906c-.484.661-.92 1.355-1.306 2.078.096.909.363 2.062.363 2.062l12.352 8.076h.998l2.14-2.19-1.382.878Zm.684-15.223 4.145 5.037 2.666 1.759 2.767-.46-2.79 1.488h-1.182l-5.605-7.824Z" fill="#7F6660" style="mix-blend-mode:multiply" opacity=".35"/><path d="m31.273 10.527 3.27 5.551 2.239 1.66h2.689l-3.724.668-1.487-.764-2.987-7.115Z" fill="#7F6660"/><path d="m66.766 95.986 1.586 1.2 9.441.491h2.138l-1.448.47-10.889-.47-.828-1.036v-.655Zm.492-6.031 2.007 1 6.564.429 2.859-.715.473-.714-.076.966-.834.938-10.659-.475-.334-1.429Zm2.93-33.526 1.095 1.956 5.955.602 1.448-.413s.92-1.22.91-1.12c-.011.102-.186 1.918-.186 1.918l-1.16.685-7.764-.685-.416-.925.118-2.018Zm.164-16.377 3.044.86 5.116.137 2.318-.997-.042 1.135-.961.571-7.892-.254-1.071-.489-.512-.963ZM62.46 28.713l3.578 2.88 1.864-.342 2.963-2.052 2.156-.727-5.982 3.912h-1l-3.578-3.67ZM50.72 13.541l-.873 3.805.873 1.6 5.328 2.949 2.903.862 1.315-.862-1.278 1.787h-1.181l-8.47-4.512-.509-.985 1.892-4.644Z" fill="#7F6660" style="mix-blend-mode:multiply" opacity=".35"/><path d="m69.38 67.598.693 2.257 4.442.72h4.38l2.496-1.081-.238 1.223-1.738.504-9.478-.408-.671-1.163.115-2.052ZM3.445 87.326l1.262 3.055 1.997.693 7.05-.306 1.035-.722.499-2.72.264 2.629-.335 1.428-10.658.476-.834-.938-.28-3.595ZM63.23 17.738l-2.343 5.19-.311 1.68.88 2.575.766 1.288-2.903-2.974-.335-1.816 4.247-5.943Z" fill="#7F6660"/><path d="m16.104 95.617 1.056.605 2.446-.3.02.261-2.207.458h-1.38l.065-1.024Zm-.823-8.291 1.15 2.265 3.193-.247v.72l-3.086.317-.993-.426-.264-2.629Zm-1.804-18.85 2.072 1.036 2.182-.158v.592l-2.517.241-1.672-.537-.065-1.174Zm-.883-12.457.883 1.779h3.494v.683l-2.083.093-2.153-.124-.141-2.431Zm.138-16.496.274.873 2.595.683-.272.678-3.392-.743.795-1.49Zm6.174-9.332-1.02 1.923.555 1.143 1.293.768-.358.374-1.748-.968-.862-1.047 2.14-2.193Zm8.884-7.998-1.653 2.13 1.447 2.689-.724.369-1.343-1.884L25 23.682l2.79-1.489Zm11.402-4.455-2.838 1.25v1.486l.494 2.63-.724.19-.515-3.244.136-1.644 3.447-.668Zm9.42 5.697.614-2.917.88-.514 1.631.444-2.398-1.278-.983 1.156-.575 2.797.831.312Zm7.43-.691 1.762.938-.518 1.816-1.217 1.49-1.022-.633 1.735-1.268.39-1.405-1.13-.938Zm2.519 5.979.797-1.54h1.346l1.283 1.041-2.663-2.727-.99.761-.904 1.678 1.131.787Zm4.22 4.197h1.863l.607-.537-1.678-2.532 2.47 2.532-.86 1.047-1.443.774-.959-1.283Zm6.862 5.788.431 1.826-1.455.372-1.29.028.402.824 3.138-.743-1.226-2.307Zm-2.867 18.643 1.239.618h1.448l.72-1.537-.117 2.018-2.153.125-1.233-.032.096-1.192Zm2.598 10.247-.763 1.433-1.053.377-1.748-.236-.068.828 1.845.187 1.672-.537.115-2.052ZM67.471 87.84l-1.186 1.635-2.482-.335-.115.854 2.579.387.993-.426.211-2.114Zm-4.082 7.777 2.19.605 1.186-.236v.655h-1.377l-2.208-.458.209-.566Zm-.209 5.252 2.209 1.8.896-.034-.162 1.411-3.217-2.748.275-.429Zm-46.672 1.149.65.584 2.467-1.558-.052.296-2.914 2.431-.151-1.753Z" fill="#7F6660" style="mix-blend-mode:multiply" opacity=".35"/><path d="M41.399 23.544c10.784 0 22.768 8.878 25.297 19.341l-4.674 57.146H20.776L16.11 42.885c2.53-10.463 14.514-19.341 25.298-19.341h-.01Zm0-1.299c-5.462 0-11.498 2.192-16.536 6.01-5.185 3.926-8.75 9.014-10.032 14.326l-.05.203.019.205 4.672 57.146.1 1.194h43.654l.1-1.194 4.672-57.146.018-.205-.05-.203c-1.283-5.312-4.847-10.39-10.031-14.325-5.049-3.819-11.075-6.01-16.536-6.01Z" fill="url(#H)"/><path d="m59.812 101.339 2.597-55.616c-4.377-8.855-25.841-19.151-43.339-11.52 5.122-6.532 12.669-11.855 22.784-11.842 8.255.013 21.883 5.897 26.15 20.627-1.192 13.302-4.772 58.351-4.772 58.351l2.888 2.704-6.308-2.704Z" fill="#73377F" style="mix-blend-mode:multiply" opacity=".45"/></g></g><defs><radialGradient id="e" cx="0" cy="0" r="1" gradientUnits="userSpaceOnUse" gradientTransform="matrix(1.155 0 0 1.3318 27.418 33.215)"><stop stop-color="#716E75"/><stop offset="1" stop-color="#634F60"/></radialGradient><radialGradient id="f" cx="0" cy="0" r="1" gradientUnits="userSpaceOnUse" gradientTransform="matrix(1.155 0 0 1.3318 37.082 33.215)"><stop stop-color="#716E75"/><stop offset="1" stop-color="#634F60"/></radialGradient><radialGradient id="g" cx="0" cy="0" r="1" gradientUnits="userSpaceOnUse" gradientTransform="matrix(1.155 0 0 1.3318 46.746 33.215)"><stop stop-color="#716E75"/><stop offset="1" stop-color="#634F60"/></radialGradient><radialGradient id="h" cx="0" cy="0" r="1" gradientUnits="userSpaceOnUse" gradientTransform="matrix(1.155 0 0 1.3318 56.41 33.215)"><stop stop-color="#716E75"/><stop offset="1" stop-color="#634F60"/></radialGradient><radialGradient id="i" cx="0" cy="0" r="1" gradientUnits="userSpaceOnUse" gradientTransform="matrix(1.155 0 0 1.3318 28.652 59.68)"><stop stop-color="#716E75"/><stop offset="1" stop-color="#634F60"/></radialGradient><radialGradient id="j" cx="0" cy="0" r="1" gradientUnits="userSpaceOnUse" gradientTransform="matrix(1.155 0 0 1.3318 21.016 59.68)"><stop stop-color="#716E75"/><stop offset="1" stop-color="#634F60"/></radialGradient><radialGradient id="k" cx="0" cy="0" r="1" gradientUnits="userSpaceOnUse" gradientTransform="matrix(1.155 0 0 1.3318 37.79 59.68)"><stop stop-color="#716E75"/><stop offset="1" stop-color="#634F60"/></radialGradient><radialGradient id="l" cx="0" cy="0" r="1" gradientUnits="userSpaceOnUse" gradientTransform="matrix(1.155 0 0 1.3318 46.183 59.68)"><stop stop-color="#716E75"/><stop offset="1" stop-color="#634F60"/></radialGradient><radialGradient id="m" cx="0" cy="0" r="1" gradientUnits="userSpaceOnUse" gradientTransform="matrix(1.155 0 0 1.3318 55.329 59.68)"><stop stop-color="#716E75"/><stop offset="1" stop-color="#634F60"/></radialGradient><radialGradient id="n" cx="0" cy="0" r="1" gradientUnits="userSpaceOnUse" gradientTransform="matrix(1.155 0 0 1.33181 62.957 59.68)"><stop stop-color="#716E75"/><stop offset="1" stop-color="#634F60"/></radialGradient><radialGradient id="o" cx="0" cy="0" r="1" gradientUnits="userSpaceOnUse" gradientTransform="matrix(1.155 0 0 1.3318 29.965 81.217)"><stop stop-color="#716E75"/><stop offset="1" stop-color="#634F60"/></radialGradient><radialGradient id="p" cx="0" cy="0" r="1" gradientUnits="userSpaceOnUse" gradientTransform="matrix(1.155 0 0 1.3318 22.785 81.217)"><stop stop-color="#716E75"/><stop offset="1" stop-color="#634F60"/></radialGradient><radialGradient id="q" cx="0" cy="0" r="1" gradientUnits="userSpaceOnUse" gradientTransform="matrix(1.155 0 0 1.3318 38.149 81.217)"><stop stop-color="#716E75"/><stop offset="1" stop-color="#634F60"/></radialGradient><radialGradient id="r" cx="0" cy="0" r="1" gradientUnits="userSpaceOnUse" gradientTransform="matrix(1.155 0 0 1.3318 45.825 81.217)"><stop stop-color="#716E75"/><stop offset="1" stop-color="#634F60"/></radialGradient><radialGradient id="s" cx="0" cy="0" r="1" gradientUnits="userSpaceOnUse" gradientTransform="matrix(1.155 0 0 1.3318 54.016 81.217)"><stop stop-color="#716E75"/><stop offset="1" stop-color="#634F60"/></radialGradient><radialGradient id="t" cx="0" cy="0" r="1" gradientUnits="userSpaceOnUse" gradientTransform="matrix(1.155 0 0 1.3318 61.188 81.217)"><stop stop-color="#716E75"/><stop offset="1" stop-color="#634F60"/></radialGradient><radialGradient id="u" cx="0" cy="0" r="1" gradientUnits="userSpaceOnUse" gradientTransform="matrix(1.155 0 0 1.3318 30.77 96.145)"><stop stop-color="#716E75"/><stop offset="1" stop-color="#634F60"/></radialGradient><radialGradient id="v" cx="0" cy="0" r="1" gradientUnits="userSpaceOnUse" gradientTransform="matrix(1.155 0 0 1.3318 24.051 96.145)"><stop stop-color="#716E75"/><stop offset="1" stop-color="#634F60"/></radialGradient><radialGradient id="w" cx="0" cy="0" r="1" gradientUnits="userSpaceOnUse" gradientTransform="matrix(1.155 0 0 1.3318 38.507 96.145)"><stop stop-color="#716E75"/><stop offset="1" stop-color="#634F60"/></radialGradient><radialGradient id="x" cx="0" cy="0" r="1" gradientUnits="userSpaceOnUse" gradientTransform="matrix(1.155 0 0 1.3318 45.725 96.144)"><stop stop-color="#716E75"/><stop offset="1" stop-color="#634F60"/></radialGradient><radialGradient id="y" cx="0" cy="0" r="1" gradientUnits="userSpaceOnUse" gradientTransform="matrix(1.155 0 0 1.3318 53.457 96.145)"><stop stop-color="#716E75"/><stop offset="1" stop-color="#634F60"/></radialGradient><radialGradient id="z" cx="0" cy="0" r="1" gradientUnits="userSpaceOnUse" gradientTransform="matrix(1.155 0 0 1.3318 60.176 96.145)"><stop stop-color="#716E75"/><stop offset="1" stop-color="#634F60"/></radialGradient><radialGradient id="A" cx="0" cy="0" r="1" gradientUnits="userSpaceOnUse" gradientTransform="matrix(1.155 0 0 1.3318 28.179 45.73)"><stop stop-color="#716E75"/><stop offset="1" stop-color="#634F60"/></radialGradient><radialGradient id="B" cx="0" cy="0" r="1" gradientUnits="userSpaceOnUse" gradientTransform="matrix(1.155 0 0 1.3318 20.1 45.73)"><stop stop-color="#716E75"/><stop offset="1" stop-color="#634F60"/></radialGradient><radialGradient id="C" cx="0" cy="0" r="1" gradientUnits="userSpaceOnUse" gradientTransform="matrix(1.155 0 0 1.3318 55.66 45.729)"><stop stop-color="#716E75"/><stop offset="1" stop-color="#634F60"/></radialGradient><radialGradient id="D" cx="0" cy="0" r="1" gradientUnits="userSpaceOnUse" gradientTransform="matrix(1.155 0 0 1.3318 64.07 45.729)"><stop stop-color="#716E75"/><stop offset="1" stop-color="#634F60"/></radialGradient><radialGradient id="E" cx="0" cy="0" r="1" gradientUnits="userSpaceOnUse" gradientTransform="matrix(4.24111 0 0 4.08931 57.014 73.151)"><stop stop-color="#706D75"/><stop offset="1" stop-color="#493A48"/></radialGradient><radialGradient id="F" cx="0" cy="0" r="1" gradientUnits="userSpaceOnUse" gradientTransform="matrix(2.18457 0 0 2.10639 57.34 69.36)"><stop stop-color="#706D75"/><stop offset="1" stop-color="#493A48"/></radialGradient><radialGradient id="G" cx="0" cy="0" r="1" gradientUnits="userSpaceOnUse" gradientTransform="matrix(7.53104 0 0 7.26149 41.272 47.55)"><stop stop-color="#706D75"/><stop offset="1" stop-color="#493A48"/></radialGradient><linearGradient id="c" x1="41.404" y1="100.04" x2="41.404" y2="23.543" gradientUnits="userSpaceOnUse"><stop offset=".02" stop-color="#CC8233"/><stop offset=".99" stop-color="#B34A20"/></linearGradient><linearGradient id="d" x1="19.023" y1="70.086" x2="63.52" y2="70.086" gradientUnits="userSpaceOnUse"><stop offset=".01" stop-color="#B34A20"/><stop offset=".98" stop-color="#CC8233"/></linearGradient><linearGradient id="H" x1="41.399" y1="101.34" x2="41.399" y2="22.245" gradientUnits="userSpaceOnUse"><stop stop-color="#423742"/><stop offset="1" stop-color="#3B2438"/></linearGradient><clipPath id="a"><path fill="#fff" d="M0 0h83v115H0z"/></clipPath></defs></svg>