<svg width="83" height="115" fill="none" xmlns="http://www.w3.org/2000/svg"><g clip-path="url(#a)"><mask id="b" style="mask-type:luminance" maskUnits="userSpaceOnUse" x="0" y="0" width="83" height="115"><path d="M82.836.884H.031v113.312h82.805V.884Z" fill="#fff"/></mask><g mask="url(#b)"><path d="m14.715 106.369 54.685.769 5.634-70.269-16.39-19.349-17.343-4.369-20.96 7.409L8.266 41.118l6.449 65.25Z" fill="#332A33"/><g opacity=".5"><path d="M25.561 67.657c.573.242 1.155.455 1.74.67.502.182 1.046.4 1.386.844.292.395.426.956.088 1.364a1.729 1.729 0 0 1-.43.317l-.238.029c-.178.02-.356.03-.523.049-.97.1-1.928.291-2.861.569-.908.268-1.784.633-2.614 1.088h.16a12.89 12.89 0 0 1 2.488-1.083c.707-.223 1.437-.37 2.176-.439a8.505 8.505 0 0 0 1.359-.166 3.55 3.55 0 0 0 1.265-.491c.418-.31.682-.826.444-1.328-.238-.5-.763-.779-1.283-.958-.52-.18-1-.338-1.497-.52h-1.785l.125.055Zm-4.261.67c.466.452 1.08.896.884 1.624a1.11 1.11 0 0 1-.452.654 2.06 2.06 0 0 1-.862.325c-.482.093-.968.161-1.456.203v.067c.42-.047.841-.12 1.252-.205.624-.135 1.306-.288 1.805-.707a1.3 1.3 0 0 0 .51-.922c0-.436-.34-.725-.622-1.01-.282-.286-.507-.501-.75-.761h-1.045c.23.26.476.504.737.732Zm16.497-.732a1.987 1.987 0 0 0-.13.59c-.032.447.039.948-.233 1.338a1.135 1.135 0 0 1-.434.358l-.047.024h-.06a21.044 21.044 0 0 0-5.247 1.727 12.07 12.07 0 0 0-1.568.94h.24c.414-.297.845-.57 1.291-.815a15.91 15.91 0 0 1 2.875-1.208c.784-.26 1.615-.408 2.425-.608a1.45 1.45 0 0 0 .42-.107 2.35 2.35 0 0 0 1.007-.446c.35-.32.405-.798.436-1.245.01-.184.03-.368.063-.55l-1.038.002ZM40.3 71.55c-.862.38-1.766.658-2.636 1.024h.465c.16-.08.322-.16.484-.231.917-.397 1.879-.678 2.79-1.088.863-.385 1.704-.902 2.248-1.691a2.692 2.692 0 0 0 .47-1.97h-.575c.008 1.855-1.657 3.258-3.245 3.957Zm9.639-3.48c.262.347.429.756.483 1.187a1.492 1.492 0 0 1-.35 1.174 4.981 4.981 0 0 1-1.233.844 13.9 13.9 0 0 1-3.097 1.3h.19a17.816 17.816 0 0 0 2.73-.998c.563-.26 1.11-.555 1.638-.88.496-.307.948-.624 1.074-1.224a2.158 2.158 0 0 0-.278-1.502 4.222 4.222 0 0 0-.245-.376h-1.286c.136.149.261.308.374.475Zm-6.269 4.505.262-.174a9.908 9.908 0 0 0 1.453-1.25c.219-.23.433-.47.63-.719.164-.208.436-.491.467-.761 0 .023-.196.039-.217.06-.403.405-.782.832-1.137 1.28-.358.394-.744.762-1.155 1.102a9.975 9.975 0 0 1-.606.462h.303Zm9.241-4.907c.073.202.172.397.24.602.139.407.18.84.123 1.265a3.759 3.759 0 0 1-1.194 2.057 6.847 6.847 0 0 1-1.307.982h.463a6.35 6.35 0 0 0 1.071-.636c.732-.54 1.443-1.283 1.688-2.18a2.22 2.22 0 0 0-.101-1.407 4.61 4.61 0 0 0-.33-.691l-.047-.065h-.627a.737.737 0 0 0 .021.073Zm6.996.096a3.5 3.5 0 0 1 .868 2.545c-.079 1.18-.855 1.818-1.814 2.265h.261c1.16-.431 2.182-1.086 2.524-2.382a2.87 2.87 0 0 0-.635-2.597h-1.353c.044.057.1.111.149.169Zm-25.141-.169c-.12.283-.27.552-.45.803a3.498 3.498 0 0 1-1.507 1.015l-.204.086h-.057a.763.763 0 0 1-.455-.125c-.3-.202-.243-.485-.029-.722a.895.895 0 0 0 .227-.353 1.21 1.21 0 0 0-.02-.561c0-.047-.027-.099-.04-.148h-.303c0 .028.018.057.026.086a1.082 1.082 0 0 1-.08.909c-.147.192-.403.353-.33.634a.554.554 0 0 0 .575.402c.24-.025.478-.08.706-.16a8.37 8.37 0 0 0 .862-.318 4.103 4.103 0 0 0 1.596-1.008c.142-.17.267-.352.374-.545l-.89.005Z" fill="#8E208E" style="mix-blend-mode:multiply" opacity=".3"/></g><path d="m4.354 98.148 10.889-.47 1.006.948 1.2 14.045-1.861 1.233-12.82-.342-1.377-1.097 1.377-13.237 1.586-1.08Z" fill="#7F6660"/><path d="m15.245 97.677.826-1.037v-4.452l-.826-.805-11.924.53-1.032 1.096.62 4.668 1.447.47 10.889-.47Z" fill="#AD9F8C"/><path d="m15.247 91.383.335-1.428-1.798-17.832-.88-1.31-9.478.408-1.098 1.367L3.755 90.92l.833.938 10.66-.476Z" fill="#917E71"/><path d="m3.423 71.221-1.738-.504L.031 62.2l.672-1.8 11.647-1.026.697.878.525 9.398-.671 1.163-9.478.408Zm8.923-11.847.415-.925-.896-15.517-.97-1.43-7.891.255-1.121 1.77 1.539 15.847 1.16.683 7.764-.683Z" fill="#AD9F8C"/><path d="m3.008 41.76-.973-.576s-.757-7.533 4.067-13.393a7.632 7.632 0 0 1 1.829-.548l7.857 5.138v1.44l-3.823 7.192-1.071.49-7.886.258Z" fill="#917E71"/><path d="M15.801 32.38h.999l6.72-6.883.335-1.818-8.187-11.455-1.853-.447c-2.874 1.04-8.61 6.445-10.73 10.463.098.91.364 2.063.364 2.063l12.352 8.078Z" fill="#7F6660"/><path d="M23.848 23.681h1.181l8.47-4.52.783-1.527-4.18-9.956-1.464-.34c-3.207 0-7.892 2.455-10.735 5.429l-.598 1.787 6.543 9.127Z" fill="#AD9F8C"/><path d="m78.508 98.148-10.888-.47-1.007.948-1.199 14.045 1.86 1.233 12.82-.342 1.378-1.097-1.377-13.237-1.587-1.08Z" fill="#7F6660"/><path d="m78.514 98.147 1.448-.47.62-4.668-1.033-1.096-11.924-.53-.828.805v4.452l.828 1.037 10.89.47Z" fill="#AD9F8C"/><path d="m67.624 91.383-.335-1.428 1.798-17.832.88-1.31 9.478.408 1.098 1.367-1.427 18.333-.834.938-10.658-.476Z" fill="#7F6660"/><path d="m79.446 71.221 1.738-.504 1.654-8.517-.671-1.8-11.647-1.026-.698.878-.525 9.398.672 1.163 9.477.408Z" fill="#917E71"/><path d="m70.517 59.374-.415-.925.896-15.517.97-1.43 7.891.255 1.121 1.77-1.54 15.847-1.16.683-7.763-.683Z" fill="#AD9F8C"/><path d="m79.859 41.76.959-.572s.76-7.533-4.066-13.393a9.519 9.519 0 0 0-1.73-.608l-7.952 5.196v1.439l3.826 7.192 1.071.491 7.892.255Z" fill="#7F6660"/><path d="M67.07 32.38h-.999l-6.72-6.883-.335-1.818 8.187-11.455 1.852-.447c2.875 1.04 8.61 6.445 10.73 10.463-.097.91-.363 2.063-.363 2.063L67.069 32.38Z" fill="#917E71"/><path d="M59.02 23.681h-1.182l-8.47-4.52-.509-.981 4.32-10.6 1.045-.242c3.206 0 7.892 2.455 10.735 5.429l.598 1.787-6.538 9.127Z" fill="#7F6660"/><path d="m34.293 17.64 1.49.779c2.239-.41 5.858-1.3 11.646.309a3.81 3.81 0 0 0 1.43-.52L54.044 5.48l-.308-1.574c-5.1-3.21-15.438-4.745-23.709-.07-.379.585-.622 2.031-.622 2.031l.709 1.819 4.178 9.953Z" fill="#917E71"/><path d="m14.71 81.346-.066-.641-1.406-.831-.065-.042-.068.005-2.587.127-2.252-3.088 2.08 3.294.031.052.076.005 1.536.075-.517 1.338-2.002.802 2.167-.542.07-.016.026-.075.536-1.494.758.037 1.683.994Z" fill="#69504B"/><path d="m16.25 98.626 1.2-.949 2.291-.49.324 4.467-3.305 2.899-.51-5.927Zm-.18-1.986h1.38l2.208-.457-.392-4.8-2.36.332-.836.473v4.452Zm-.49-6.686.992.427 2.58-.388-1.553-18.982-2.354.21-1.464.901 1.798 17.832ZM13.572 69.65l1.673.537 2.252-.228-.802-10.022H15.02l-1.973.315.525 9.398Zm-.808-11.201 2.153.125 1.651-.148-1.325-15.957-2.48-.205-.896.667.896 15.518Zm-.795-17.435 3.392.743 1.818-4.535 1.064-1.787-1.132-1.187-1.317-.429-3.825 7.195Z" fill="#54413E"/><path d="m16.797 32.383.862 1.047 1.443.774 3.101-3.507 3.21-2.76-.905-1.679-.99-.76-6.721 6.885Zm8.234-8.701.518 1.816 1.217 1.49 4.02-2.27 4.272-1.595-.575-2.797-.982-1.156-5.19 2.764-3.28 1.748Zm41.584 74.944-1.2-.949-2.292-.49-.326 4.467 3.308 2.899.51-5.927Zm.181-1.986H65.42l-2.208-.457.392-4.8 2.36.332.833.473v4.452Zm.494-6.686-.992.427-2.58-.388 1.553-18.982 2.354.21 1.464.901-1.798 17.832Zm2.005-20.304-1.673.537-2.255-.228.805-10.022h1.675l1.973.315-.525 9.398Zm.807-11.201-2.154.125-1.651-.148 1.325-15.957 2.48-.205.896.667-.896 15.518Zm.798-17.435-3.393.743-1.819-4.535-1.063-1.787 1.129-1.187 1.32-.429 3.825 7.195Zm-4.826-8.631-.86 1.047-1.442.774-3.102-3.507-3.21-2.76.905-1.679.99-.76 6.719 6.885Zm-8.234-8.701-.518 1.816-1.218 1.49-4.019-2.27-4.273-1.595.575-2.797.983-1.156 5.19 2.764 3.28 1.748Z" fill="#443534"/><path d="m1.804 108.494.483 3.296 1.86 1.052 10.027.104 1.275-.753.468-5.276.724-.205.549 6.13-1.602 1.062-12.82-.342-1.377-1.097.413-3.971Zm64.076 1.695 1.546 2.167 7.395.35h4.704l1.777-1.865.17 1.624-1.377 1.096-12.82.343-1.86-1.234.464-2.481Z" fill="#7F6660" style="mix-blend-mode:multiply" opacity=".35"/><path d="m35.776 18.406-.135 1.644.47 2.798 5.04-.652 4.43.407 1.361.325.481-4.213-2.806-.738-2.587-.166-2.53-.073-3.724.668Z" fill="#443534"/><path d="M61.538 101.041s3.773 2.517 5.014 3.392c1.241.876 1.069 2.26-.052 6.832-.784 3.249-1.032 2.878-4.91 2.878-4.547 0-16.695.052-20.158.052-3.462 0-15.61-.052-20.158-.052-3.877 0-4.115.371-4.91-2.878-1.12-4.572-1.306-5.959-.052-6.832 1.255-.872 4.91-3.392 4.91-3.392h40.316Z" fill="#917E71"/><path d="m61.486 113.904-7.431-.172-2.788-.779-13.108.189-5.963-1.2-9.258.762-5.488-.032-1.38-2.623c.126.561.123.519.296 1.218.784 3.25 1.032 2.878 4.91 2.878 4.547 0 16.695.052 20.157.052 3.463 0 15.611-.052 20.158-.052 3.878 0 4.116.372 4.91-2.878l-1.293 2.185-3.721.452Z" fill="#7F6660" style="mix-blend-mode:multiply" opacity=".35"/><path d="m65.266 109.064-1.191-.418h-.003l-.008-.003-1.594-.33-.028-.007-.037.013-2.577.828-2.608.102-.075.002-.06.057-3.635 3.616-2.06 1.244 1.433-.005 1.021-.683.042-.029.024-.026 1.947-2.163 1.489.317.813 1.116.02.032.024.01 1.918.816-1.785-.998-.71-1.26-.034-.059-.084-.024-1.275-.371 1.087-1.208 2.553-.099h.031l.024-.01 2.535-.951 1.57.229 1.22.345.013.005.013-.005 1.252-.501-1.265.418Z" fill="#69504B"/><path d="M67.289 105.399c-.133-.405-.42-.646-.734-.953-1.242-1.221-3.771-3.392-3.771-3.392H20.085s-2.286 1.888-3.736 2.997c-.262.208-.523.813-.662 1.091l3.884-.8 6.305.411 3.8-.616s20.96.052 21.114 0c.154-.052 9.7 0 9.7 0l5.239.483 1.56.779Z" fill="#AD9F8C"/><path d="M2.54 101.467s1.598-2.265 3.712-1.641c2.114.623 5.038.109 6.308-.148 1.91-.382 3.324.181 4.085 3.535l-.392-4.59-1.006-.948-10.89.472-1.585 1.081-.233 2.239Zm13.809 2.572h3.428l5.778.343 4.766-.72 10.251.481-10.907-.019-3.8.616-6.305-.41-3.872.81c.162-.431.493-1.016.66-1.101Z" fill="#8C7367" style="mix-blend-mode:screen" opacity=".5"/><path d="M66.946 109.381s.434-2.997.191-3.306c-.243-.309-1.636-1.06-1.636-1.06l-3.627-.462-4.965-.172-3.658.925-3.274-1.169.81-.013h9.7l5.239.496 1.568.761s.478 1.19-.348 4Zm-10.712 1.461 1.228-1.078 2.412-.229-2.553.099-1.087 1.208Zm-2.351 2.61 1.97-2.189 1.49.317-1.425-.185-2.035 2.057Z" fill="#8C7367" style="mix-blend-mode:screen"/><path d="m2.47 94.363-.173-1.353 1.045-1.097 11.903-.54.826.805v4.247c-.38-1.85-.62-3.938-3.659-3.475-3.039.462-3.841-.12-5.375-.31-1.534-.189-4.44-.451-4.568 1.723Z" fill="#8C7367" style="mix-blend-mode:screen" opacity=".5"/><path d="m2.697 77.346-.369-4.748 1.098-1.367 9.477-.405.881 1.299.797 7.819c-.452-2.3-1.343-7.837-3.982-7.793a52.27 52.27 0 0 0-5.885.431c-1.699.19-2.245 1.834-2.017 4.764Z" fill="#8C7367" style="mix-blend-mode:screen" opacity=".7"/><path d="m.632 65.297-.6-3.1.67-1.797 11.648-1.039.697.88.387 6.908c-.507-4.242-1.83-6.107-4.288-5.938-2.46.169-4.2.273-5.368.335-1.452.088-3.655-.346-3.146 3.75Zm1.575-18.43-.324-3.343 1.12-1.763 7.893-.26.969 1.429.444 7.701c-.833-3.117-.332-8.008-3.099-7.855-2.767.154-3.695.06-4.513.154-1.244.142-2.712.142-2.49 3.938ZM3.46 32.321c.83-1.79 1.373-2.971 2.656-4.53a4.06 4.06 0 0 1 1.83-.548l7.857 5.138v1.44l-2.564 4.823c1.477-3.697 1.218-6.523-1.884-7.395-3.102-.873-3.812-1.725-4.027-2.213-.214-.489-1.604-.782-3.867 3.285Zm12.199-20.094-1.853-.447c-.617.164-1.83.977-1.83.977 2.956-.836 4.2 2.507 4.33 4.818.06 1.104.706 2.13 1.547 2.993l-1.293 2.25 1.617-1.936a11.288 11.288 0 0 0 2.65 1.805c1.707.824 1.19 3.52-.899 6.479l3.58-3.668.335-1.819-8.184-11.452Z" fill="#8C7367" style="mix-blend-mode:screen" opacity=".5"/><path d="m20.544 19.11-.303-.395c-.46.45-.915.883-1.382 1.325v.013c-.745.932-1.482 1.87-2.276 2.758l-4.722-.348c.041-.07.086-.137.13-.208.3-.472.607-.94.915-1.407.308-.468.622-.93.948-1.385l.045-.062-.042-.073-1.792-3.078-.066-3.499-.426.356.233 3.184v.06l1.772 3.042c-.262.462-.541.917-.821 1.371-.28.455-.59.948-.894 1.419-.303.47-.606.942-.917 1.405-.31.462-.627.927-.946 1.387l-.023.034v.046l.172 3.637.523.338-.426-3.951c.261-.468.551-.935.838-1.398.223-.366.453-.724.68-1.085l4.847.485h.07l.043-.052c.752-.945 1.567-1.839 2.37-2.74.499-.4.946-.785 1.45-1.18Z" fill="#69504B"/><path d="m10 24.983 3.577-5.582-1.771-3.045 1.458 2.967L10 24.983Z" fill="#8C7367" style="mix-blend-mode:screen" opacity=".5"/><path d="m66.32 102.633.303-4.01 1.006-.948 10.89.472 1.586 1.081 1.071 10.305c-.865-4.502-1.32-9.232-3.865-9.232-2.613 0-4.374.067-6.271-.852-1.898-.92-4.244-.023-4.72 3.184Z" fill="#8C7367" style="mix-blend-mode:screen" opacity=".7"/><path d="M66.797 94.49v-2.296l.83-.821 11.925.532 1.032 1.097-.601 4.52c-.053-2.57.188-4.144-2.674-3.939-2.86.206-4.442-.309-5.65-.779-1.206-.47-4.62-1.405-4.862 1.686Zm1.75-17.032.538-5.335.88-1.299 9.479.405 1.097 1.367-.915 11.759c-.125-4.47.735-10.985-.84-11.084-2.353-.148-3.66.14-5.031-.14-1.372-.28-3.962-1.863-5.208 4.327Z" fill="#8C7367" style="mix-blend-mode:screen" opacity=".5"/><path d="m69.5 65.977.321-5.715.698-.88 11.647 1.039.671 1.797-1.024 5.258c.48-3.897-.324-6.175-2.543-6.008-2.134.158-4.233-.31-5.72-.7-1.298-.345-3.438-.825-4.05 5.209Zm1.305-19.681.193-3.377.97-1.429 7.891.26 1.121 1.769-.813 8.504c.019-4.699.784-8.27-.964-8.091-1.748.18-2.91.13-4.155-.463-1.243-.592-4.207-1.19-4.243 2.827Z" fill="#8C7367" style="mix-blend-mode:screen" opacity=".7"/><path d="m68.724 36.919-1.654-3.1v-1.438l7.952-5.195 1.73.607c.836.78 2.417 3.637 3.034 5.733-1.628-2.41-3.397-5.218-4.858-3.673-1.46 1.546-2.352 1.237-3.259 1.161-.906-.075-5.038.665-2.945 5.905Zm.246-21.389-.173 3.665 3.034 3.17-2.75-3.294-.112-3.54Z" fill="#8C7367" style="mix-blend-mode:screen" opacity=".5"/><path d="M75.318 16.513c-1.662-1.634-3.54-3.535-6.258-4.733l-1.853.447-2.715 3.834 4.103-2.662a1.948 1.948 0 0 1 2.383.184c1.665 1.577 1.267 3.065 2.613 3.169l.1.015-.288.824-1.607 1.382 1.83-1.25.472-.779c1.52.86 4.092 4.486 3.724 5.975-.413 1.68-4.393 5.298-4.393 5.298l5.995-3.92.363-2.062a25.243 25.243 0 0 0-4.469-5.722Z" fill="#8C7367" style="mix-blend-mode:screen" opacity=".5"/><path d="m74.728 15.915-1.1 1.818-1.837 1.252-.066.044.008.073.353 3.356-2.749-3.486-.368-3.442.112 3.502v.039l.029.034 3 3.597.379 3.85-.547 2.646.502-.327.306-2.29.002-.022v-.015l-.514-3.876L72 19.156l1.798-1.226.018-.013.018-.02 1.205-1.678-.31-.304Z" fill="#69504B"/><path d="m52.414 9.46.763-1.876 1.045-.241c3.102.101 6.086 1.841 7.017 2.454.93.614 2.976 2.136 3.718 2.975.308.924.599 1.787.599 1.787l-4.95 6.91s4.202-7.368 3.136-8.313c-2.496-2.213-5.135-1.665-5.893-3.24-.757-1.573-4.583-2.547-5.435-.456Zm-1.144 2.805 2.768-6.808-.309-1.574C48.636.696 38.3-.839 30.03 3.836c-.38.585-.623 2.032-.623 2.032l1.903 4.65s-1.33-3.736-.317-5.173C32.545 3.153 43.64 2.467 46.224 2.81c.993.133 2.073.338 3.032 1.198l.483 4.041-2.976 3.484 3.308-3.377-.214-2.166v-.05a6.488 6.488 0 0 1 1.602 4.024l-1.613-.037-1.698.465 1.698-.275 1.623.117a8.877 8.877 0 0 1-.199 2.031Z" fill="#8C7367" style="mix-blend-mode:screen" opacity=".5"/><path d="m49.817 9.67-.015.006-1.406.49 1.926-1.83.047-.045-.006-.067-.133-2.213.188-1.712 2.24-1.023-.578-.28-1.954.97-.11.055-.01.117-.142 1.852v.031l.204 2.159-3.305 3.364-.019.018-.002.02-.473 3.686-2.402 2.71.586.085 2.04-2.657.026-.034.006-.033.345-3.718 1.288-1.226 1.698-.464 2.344.049.15-.366-2.51.057h-.023Z" fill="#69504B"/><path d="m18.008 15.525-.695-.953.598-1.787c2.43-2.484 3.616-2.858 5.176-3.803 1.56-.946 4.913-1.777 5.559-1.626l1.463.34 2.676 6.377c-2.796-3.567-3.486-5.348-6.517-4.561-3.032.787-9.214 4.065-8.26 6.013Z" fill="#8C7367" style="mix-blend-mode:screen" opacity=".5"/><path d="m11.99 80.302-.28-.016-1.333-.064-2.111-3.346 2.033 3.569 1.338.06-.34 1.026-1.827.911 2.002-.802.434-1.122.083-.216Zm.205.237h.813l1.712 1.117-.006-.31-1.683-.994-.757-.037-.079.224Z" fill="#8C7367" style="mix-blend-mode:screen" opacity=".7"/><path d="m2.71 96.223 1.503 1.14 6.823.312h4.205l-10.889.472-1.448-.472-.193-1.452ZM1.18 68.12l1.555 1.966 4.962.489 3.792-.24 2.017-1.859.065 1.174-.671 1.164-9.478.408-1.738-.504-.504-2.598Zm1.968-11.619.97 2.486h5.919l1.591-.745.99-2.364.15 2.569-.416.925-7.764.685s-1.147-.556-1.16-.685l-.28-2.87ZM2.091 38.098l.494 2.675 1.552.436 6.588-.436 2.036-1.252-.784 1.491-1.072.491-7.891.26-.983-.58c-.17-.924.06-3.085.06-3.085Zm15.467-7.018H15.49l-4.443-2.227-2.772-2.468-4.181-2.498-.293-1.806.59-1.906c-.484.661-.92 1.355-1.306 2.078.097.909.363 2.062.363 2.062L15.8 32.391h.999l2.14-2.19-1.383.878Zm.684-15.223 4.145 5.037 2.665 1.759 2.767-.46-2.79 1.488h-1.182l-5.605-7.824Z" fill="#7F6660" style="mix-blend-mode:multiply" opacity=".35"/><path d="m31.305 10.527 3.269 5.551 2.24 1.66h2.688l-3.724.668-1.486-.764-2.987-7.115Z" fill="#7F6660"/><path d="m66.797 95.986 1.586 1.2 9.441.491h2.138l-1.448.47-10.889-.47-.828-1.036v-.655Zm.493-6.031 2.006 1 6.564.429 2.859-.715.473-.714-.076.966-.834.938-10.658-.475-.335-1.429Zm2.93-33.526 1.094 1.956 5.955.602 1.448-.413s.92-1.22.91-1.12c-.011.102-.186 1.918-.186 1.918l-1.16.685-7.764-.685-.415-.925.117-2.018Zm.163-16.377 3.044.86 5.117.137 2.318-.997-.042 1.135-.962.571-7.892-.254-1.071-.489-.512-.963Zm-7.891-11.339 3.578 2.88 1.863-.342 2.963-2.052 2.156-.727-5.982 3.912h-1l-3.578-3.67ZM50.751 13.541l-.872 3.805.872 1.6 5.328 2.949 2.904.862 1.314-.862-1.278 1.787h-1.18l-8.47-4.512-.51-.985 1.892-4.644Z" fill="#7F6660" style="mix-blend-mode:multiply" opacity=".35"/><path d="m69.412 67.598.692 2.257 4.443.72h4.38l2.495-1.081-.238 1.223-1.738.504-9.477-.408-.672-1.163.115-2.052ZM3.477 87.326l1.262 3.055 1.996.693 7.05-.306 1.035-.722.5-2.72.263 2.629-.334 1.428-10.66.476-.833-.938-.28-3.595Zm59.785-69.588-2.344 5.19-.311 1.68.88 2.575.766 1.288-2.903-2.974-.334-1.816 4.246-5.943Z" fill="#7F6660"/><path d="m16.136 95.617 1.055.605 2.446-.3.021.261-2.208.458h-1.38l.066-1.024Zm-.823-8.291 1.15 2.265 3.192-.247v.72l-3.086.317-.993-.426-.264-2.629Zm-1.805-18.85 2.072 1.036 2.182-.158v.592l-2.517.241-1.672-.537-.065-1.174Zm-.883-12.457.883 1.779h3.494v.683l-2.083.093-2.153-.124-.141-2.431Zm.138-16.496.274.873 2.595.683-.271.678-3.392-.743.794-1.49Zm6.174-9.332-1.02 1.923.555 1.143 1.293.768-.358.374-1.748-.968-.862-1.047 2.14-2.193Zm8.885-7.998-1.654 2.13 1.448 2.689-.724.369-1.343-1.884-.518-1.815 2.791-1.489Zm11.401-4.455-2.838 1.25v1.486l.494 2.63-.724.19-.514-3.244.136-1.644 3.446-.668Zm9.421 5.697.614-2.917.88-.514 1.63.444-2.398-1.278-.983 1.156-.575 2.797.832.312Zm7.43-.691 1.761.938-.517 1.816-1.218 1.49-1.022-.633 1.735-1.268.39-1.405-1.13-.938Zm2.518 5.979.797-1.54h1.346l1.283 1.041-2.663-2.727-.99.761-.904 1.678 1.131.787Zm4.221 4.197h1.863l.606-.537-1.678-2.532 2.47 2.532-.86 1.047-1.442.774-.96-1.283Zm6.862 5.788.43 1.826-1.455.372-1.29.028.402.824 3.138-.743-1.225-2.307Zm-2.867 18.643 1.238.618h1.448l.721-1.537-.117 2.018-2.154.125-1.233-.032.097-1.192Zm2.598 10.247-.763 1.433-1.053.377-1.749-.236-.068.828 1.845.187 1.673-.537.115-2.052ZM67.503 87.84l-1.187 1.635-2.482-.335-.115.854 2.579.387.993-.426.212-2.114Zm-4.083 7.777 2.19.605 1.186-.236v.655H65.42l-2.208-.458.209-.566Zm-.208 5.252 2.208 1.8.896-.034-.162 1.411-3.216-2.748.274-.429Zm-46.672 1.149.65.584 2.466-1.558-.052.296-2.913 2.431-.152-1.753Z" fill="#7F6660" style="mix-blend-mode:multiply" opacity=".35"/><path d="M41.43 23.544c10.784 0 22.768 8.878 25.298 19.341l-4.675 57.146H20.807l-4.664-57.146c2.53-10.463 14.513-19.341 25.297-19.341h-.01Zm0-1.299c-5.462 0-11.498 2.192-16.536 6.01-5.184 3.926-8.749 9.014-10.032 14.326l-.05.203.019.205 4.672 57.146.1 1.194h43.654l.1-1.194 4.672-57.146.018-.205-.05-.203c-1.282-5.312-4.847-10.39-10.031-14.325-5.049-3.819-11.075-6.01-16.536-6.01Z" fill="url(#c)"/><path d="m59.843 101.339 2.597-55.616c-4.377-8.855-25.84-19.151-43.338-11.52 5.121-6.532 12.668-11.855 22.783-11.842 8.255.013 21.883 5.897 26.15 20.627-1.192 13.302-4.772 58.351-4.772 58.351l2.888 2.704-6.308-2.704Z" fill="#73377F" style="mix-blend-mode:multiply" opacity=".45"/></g></g><defs><linearGradient id="c" x1="41.43" y1="101.34" x2="41.43" y2="22.245" gradientUnits="userSpaceOnUse"><stop stop-color="#423742"/><stop offset="1" stop-color="#3B2438"/></linearGradient><clipPath id="a"><path fill="#fff" d="M0 0h83v115H0z"/></clipPath></defs></svg>