<svg width="73" height="68" fill="none" xmlns="http://www.w3.org/2000/svg"><path fill-rule="evenodd" clip-rule="evenodd" d="M5.003 47.11c-.343-.512-.442-1.09-.443-1.695-.01-5.008-.017-10.016-.033-15.024a17.47 17.47 0 0 0-.085-1.47c-.058-.653.231-1.08.796-1.343.232-.108.465-.214.733-.337-1.218-.75-1.53-2.033-1.938-3.228-.644-1.885-.739-3.852-.606-5.824.224-3.332.895-6.565 2.259-9.617.803-1.798 1.824-3.46 3.283-4.793.796-.728 1.74-1.249 2.632-1.837.446-.295 1.017-.23 1.532-.305 1.558-.227 3.121-.414 4.672-.702.364-.068.754.006 1.134.007a76.99 76.99 0 0 0 9.078-.54c2.114-.25 4.25-.216 6.376-.33 3.532-.192 7.058.054 10.587.12 2.12.039 3.904.96 5.467 2.38 1.905 1.733 3.36 3.775 4.23 6.244.25.703.123 1.257-.323 1.812-2.282 2.841-4.87 5.377-7.511 7.858-.29.272-.576.546-.916.869 1.154.37 2.215.704 3.273 1.05.525.173 1.052.348 1.543.613.657.354.884.824.78 1.577-.12.87-.234 1.74-.364 2.608-.034.235.016.35.262.405.326.073.645.183.959.3.716.27 1.256.73 1.534 1.482.195.527.577.848 1.116.964.761.165 1.31.582 1.658 1.312.331.694.867 1.183 1.607 1.42.346.11.678.275 1.028.371.433.12.79.274.77.829-.008.239.159.21.305.147.592-.256 1.138-.146 1.658.205.18.12.344.145.561.02.896-.512 1.792-.45 2.644.116.212.14.314.14.496-.048.533-.549 1.216-.696 1.939-.591.919.133 1.331 1.332.737 2.086-.055.069-.124.126-.183.192-.475.535-.495.73-.12 1.423.21-.283.401-.555.604-.816.478-.613 1.003-.808 1.646-.607.68.211 1.15.626 1.249 1.388.096.741-.19 1.408-.796 1.743-.343.19-.57.457-.68.828-.661 2.223-1.142 4.49-1.553 6.772-.104.578-.072.587.518.63.552.04 1.106.064 1.658.11.704.057 1.23.425 1.612 1.017.294.454.284.756-.065 1.17-.454.538-.98.966-1.677 1.146-.433.112-.855.269-1.283.405a4.087 4.087 0 0 1-2.178.514c-.752-.029-1.28-.37-1.536-1.098-.104-.294-.245-.429-.575-.395-1.457.148-2.909.051-4.355-.174a37.502 37.502 0 0 1-3.551-.751c-.506-.13-.51-.126-.669.394-.052.172-.115.337-.244.465-.245.911-.419.762.56.769.912.007 1.8.041 2.652.4.502.212.894.55 1.142 1.05.262.529.18.924-.283 1.286a7.484 7.484 0 0 1-1.897 1.072c-.387.325-.862.35-1.325.367-.67.024-1.342-.002-2.014.008-.756.012-1.3-.303-1.566-1.04-.11-.308-.275-.412-.599-.32-3.738 1.077-7.54 1.882-11.336 2.711-4.053.885-8.075 1.914-12.146 2.717-1.418.28-2.833.547-4.295.503-1.534-.045-2.975-.388-4.315-1.15-3.875-2.206-7.696-4.508-11.522-6.801-.906-.544-1.8-1.108-2.717-1.633-.5-.286-.934-.66-1.37-1.034-.114-.101-.207-.21-.22-.371Z" fill="#010001"/><path fill-rule="evenodd" clip-rule="evenodd" d="M5 47.11c1.53 1.456 3.426 2.335 5.192 3.414a478.707 478.707 0 0 0 10.56 6.244c1.94 1.117 4.027 1.438 6.199 1.121 4.2-.613 8.304-1.72 12.442-2.646 2.99-.668 5.985-1.322 8.97-2.016 1.554-.362 3.095-.79 4.637-1.206.342-.093.52-.056.609.338.15.663.625.994 1.266 1.04 1.193.089 2.385.097 3.551-.247-.214.577-.62 1.038-1.191 1.113-1.362.177-2.732.363-4.114.205-.058-.007-.128.003-.17-.028-.43-.323-.819-.137-1.239.057-1.093.508-2.297.616-3.438.955a36.61 36.61 0 0 1-3.208.803c-.144.028-.288.05-.395.165-.186.116-.331-.03-.486-.086-.482-.179-.961-.197-1.442-.002-.809.328-1.612.668-2.311 1.213-.113.088-.231.186-.394.15-1.991.506-3.91 1.241-5.838 1.947a25.275 25.275 0 0 1-5.227 1.304c-1.317.184-2.567.005-3.836-.215-.157.048-.239-.08-.34-.154-1.117-.835-2.369-1.16-3.74-1.024-.143.014-.292.056-.4-.09-1.162-.596-2.217-1.389-3.4-1.947-.01-.01-.03-.017-.033-.028-.472-1.486-1.72-1.66-2.966-1.806-.446-.051-.902-.003-1.353-.012-.17-.003-.355.025-.483-.14.302-.168.647-.014 1.004-.13-.536-.287-1.082-.446-1.56-.757-1.124-.735-2.34-1.317-3.43-2.113-.077-.056-.17-.251-.323-.087-.169-.031-.224-.18-.284-.308-.253-.551-.684-.848-1.26-.968-.166-.034-.386-.02-.453-.258-.269-.326-.543-.648-.806-.981-.54-.688-.867-1.988-.31-2.82Z" fill="#C8C8C8"/><path fill-rule="evenodd" clip-rule="evenodd" d="M40.045 57.698c.715-.617 1.557-.99 2.403-1.374.781-.354 1.503-.327 2.23.1.752.48 1.113 1.275 1.538 2.014a38.76 38.76 0 0 1 2.593 5.414c.345.898.145 1.241-.785 1.446-.327.071-.656.128-.983.192a1.7 1.7 0 0 1-.654.228c-1.132.19-2.262.093-3.395.018-1.453-.096-2.9-.278-4.358-.303-.265-.004-.536-.004-.757.164-1.112.847-2.367.712-3.616.539-.638-.088-1.25-.294-1.759-.735a1.832 1.832 0 0 1-.645-1.18c-.044-.341.01-.656.288-.89.756-.918 1.828-1.08 2.891-1.245.298-.045.61-.024.914-.006.378.022.676-.118.815-.467.453-1.135 1.224-1.997 2.141-2.756a7.966 7.966 0 0 0 1.139-1.16Z" fill="#020101"/><path fill-rule="evenodd" clip-rule="evenodd" d="M32.136 63.331c-.38 1.081.01 1.962 1.125 2.4 1.079.425 2.206.487 3.345.313.395-.06.76-.225 1.062-.489.29-.252.615-.314.975-.287 2.03.154 4.06.325 6.092.449.769.047 1.53-.142 2.296-.226-.517 1.063-1.407 1.509-2.518 1.496a31.654 31.654 0 0 1-3.52-.232c-.477-.059-.958-.07-1.436-.11-.352-.03-.654.075-.937.288-1.026.774-2.213.864-3.416.745-.588-.058-1.182-.043-1.772-.199a4.273 4.273 0 0 1-2.104-1.275c-.82-.899-.353-2.467.808-2.873Zm24.13-14.756c.095-.368.083-.864.318-1.068.222-.196.665.095 1.007.18 2.278.561 4.57.994 6.93.87.058-.003.116 0 .174-.006.275-.029.57-.135.82-.068.299.08.207.474.334.714.261.492.647.752 1.178.797.48.042.955.021 1.422-.135.301-.101.616-.16.925-.238-.372.383-.845.608-1.312.83-.855.405-1.705.88-2.701.709-.597-.103-1.201-.206-1.645-.714-.197-.225-.254-.497-.343-.76-.072-.212-.15-.293-.405-.27-1.324.114-2.638.065-3.94-.259-.619-.153-1.257-.229-1.89-.309-.312-.04-.578-.195-.872-.273Z" fill="#C8C8C8"/><path fill-rule="evenodd" clip-rule="evenodd" d="M12.41 55.533c.942.035 1.892-.081 2.826.166a4.98 4.98 0 0 1 1.165.473c.525.292.852.71.844 1.348-.01.64-.37 1.008-.923 1.212-.246.091-.501.155-.752.231-.457.314-.994.322-1.507.367-.935.082-1.86-.043-2.765-.293-.543-.149-.967-.478-1.293-.935-.355-.498-.357-1.165-.026-1.559.606-.85 1.5-.975 2.43-1.01Zm-6.3-4.619c.038.02.073.056.111.06.918.106 1.556.585 1.886 1.473.074.764-.145 1.122-.848 1.392l-.528.206c-.082.06-.153.139-.254.169-1.596.475-3.173.583-4.686-.292-.495-.286-.842-.683-.754-1.326.002-.83.41-1.339 1.174-1.593 1.145-.38 2.295-.539 3.473-.174.138.043.284.057.427.085Zm45.047 8.726c-.34-.9-.14-1.395.735-1.763 1.206-.507 2.466-.671 3.761-.61.51.023 1.02.03 1.528.057.522.027.949.269 1.3.653.527.579.47 1.244-.153 1.725-.194.149-.415.261-.625.39a.585.585 0 0 1-.344.257c-1.794.53-3.59.752-5.391.037-.36-.144-.692-.325-.811-.745Z" fill="#020202"/><path fill-rule="evenodd" clip-rule="evenodd" d="M51.17 59.64c.612.708 1.454.893 2.306.996 1.452.175 2.868-.026 4.24-.545.013.716-.593 1.457-1.363 1.617-1.181.247-2.367.464-3.586.37a3.005 3.005 0 0 1-1.165-.34c-.511-.265-.75-1.02-.578-1.633.044-.156.097-.31.145-.465Z" fill="#C8C8C8"/><path fill-rule="evenodd" clip-rule="evenodd" d="M20.658 59.466c.989-.125 1.966-.092 2.904.285.579.233 1.135.515 1.575.984.213.63.12.933-.394 1.398-.277.25-.596.42-.926.577-.193.173-.432.228-.673.294-1.189.325-2.361.226-3.533-.1-.72-.2-1.143-.663-1.288-1.41-.055-.281-.03-.53.137-.76.26-.753.868-1.009 1.56-1.147.212-.042.425-.08.638-.121Z" fill="#020102"/><path fill-rule="evenodd" clip-rule="evenodd" d="M18.455 60.733c-.127 1.34.307 1.844 1.594 2.161 1.29.32 2.521.13 3.762-.184-.215.655-.69.97-1.323 1.156-1.327.39-2.638.393-3.932-.086a1.693 1.693 0 0 1-1.117-1.42c-.084-.753.408-1.258 1.016-1.627Zm-8.468-4.189c-.356 1.14.235 2.102 1.454 2.404 1.38.343 2.758.329 4.138.016-.266.863-.999 1.018-1.72 1.128a7.004 7.004 0 0 1-3.344-.304c-.702-.239-1.225-.726-1.468-1.477-.224-.687.268-1.616.94-1.767Z" fill="#C8C8C8"/><path fill-rule="evenodd" clip-rule="evenodd" d="M61.936 54.75c.59-.392 1.233-.673 1.924-.79 1.365-.232 2.404.387 3.248 1.413.29.353.212.823-.142 1.206-.415.45-.941.683-1.532.775-.29.084-.595-.038-.88.072-.054.022.02.008-.036.023-.568.158-2.348-.107-2.785-.698-.487-.66-.437-1.57.203-2Z" fill="#020102"/><path fill-rule="evenodd" clip-rule="evenodd" d="M61.944 54.75c-.827 1.15-.331 2.322 1.063 2.5.517.067 1.037.117 1.556.175-.374.692-1.018.654-1.645.613a11.16 11.16 0 0 1-1.335-.186c-.987-.188-1.484-1.3-1.069-2.218.298-.659.727-.97 1.43-.885ZM1.045 52.595c.272 1.392 1.407 1.56 2.474 1.781 1.097.228 2.16-.074 3.22-.333-.232.55-.761.677-1.231.818-1.063.319-2.152.26-3.24.111a2.658 2.658 0 0 1-1.136-.41c-.676-.443-.727-1.442-.087-1.967Z" fill="#C8C8C8"/><path fill-rule="evenodd" clip-rule="evenodd" d="M64.547 57.427c.285-.127.587-.036.88-.072-.282.171-.585.067-.88.072Z" fill="#C8C8C8"/><path fill-rule="evenodd" clip-rule="evenodd" d="M24.414 53.756c-.035-2.03-.058-4.309.027-6.587.115-3.107.2-6.22.837-9.279.045-.217.094-.443.087-.662-.016-.441.158-.635.592-.569.043.007.087-.002.131-.006 1.19-.103 1.244-.096 1.113 1.128-.216 2.029-.417 4.057-.466 6.097-.026 1.043-.057 2.086-.042 3.128.02 1.325-.085 2.648-.015 3.975.039.763.154 1.508.293 2.253.033.18.11.346.26.452.8.571 1.647.923 2.661.734 4.03-.751 7.975-1.867 11.952-2.84 2.366-.58 4.77-.975 7.129-1.58a86.905 86.905 0 0 0 2.61-.727c.906-.262 1.475-.852 1.678-1.807.69-3.239 1.368-6.48 2.164-9.695.411-1.658.886-3.296 1.367-4.934.097-.33.274-.45.6-.447.422.004.847-.01 1.267-.053.28-.028.378.031.378.342.003.758-.228 1.468-.383 2.191-1.017 4.75-2.26 9.442-3.406 14.158-.253 1.046-.882 1.64-1.878 1.96-3.006.962-6.094 1.58-9.157 2.3-4.98 1.171-9.964 2.324-14.97 3.374-1.415.297-2.854.429-4.301.45-.33.006-.415-.108-.435-.428a40.018 40.018 0 0 1-.093-2.928Z" fill="#9F9281"/><path fill-rule="evenodd" clip-rule="evenodd" d="M5.146 34.381c-.036-1.74.023-3.349-.058-4.957-.033-.667.294-.994.939-.997.499-.002.986.074 1.476.154.4.065.572.272.54.701-.124 1.69-.255 3.381-.334 5.074-.093 1.994-.156 3.99-.115 5.987.026 1.266-.024 2.531.085 3.796.115 1.326.64 2.328 1.87 2.942 2.802 1.399 5.637 2.732 8.326 4.356.39.235.769.49 1.169.703.78.414 1.389.155 1.702-.682.3-.798.286-1.64.325-2.466.123-2.512.181-5.027.3-7.54.092-1.945.203-3.89.401-5.828.038-.38.133-.485.513-.309.794.369 1.611.691 2.421 1.024.204.083.282.187.25.431a351.97 351.97 0 0 0-.573 4.64c-.084.709-.174 1.419-.208 2.13-.084 1.74-.123 3.48-.206 5.22-.053 1.1-.033 2.197-.004 3.297.039 1.473-.04 2.946-.137 4.417-.027.39-.204.491-.548.376-1.169-.391-2.27-.94-3.34-1.546-4.502-2.55-8.938-5.216-13.335-7.951-.858-.534-1.195-1.162-1.212-2.162-.064-3.647-.315-7.29-.247-10.81Z" fill="#5E564B"/><path fill-rule="evenodd" clip-rule="evenodd" d="M29.537 53.526c-.456.009-.903-.036-1.328-.223-.27-.12-.503-.307-.515-.613-.044-1.126-.297-2.243-.13-3.381.037-.255.118-.341.363-.39 2.767-.56 5.52-1.192 8.305-1.653 1.78-.295 3.573-.508 5.362-.743a181.69 181.69 0 0 0 5.876-.854c1.55-.255 3.102-.512 4.655-.75.761-.117.776-.08.697.682-.078.762-.313 1.48-.56 2.195-.15.433-.517.576-.91.68-1.928.51-3.854 1.023-5.812 1.408-3.83.75-7.589 1.814-11.378 2.747-1.258.31-2.528.567-3.796.833-.27.056-.552.043-.829.062Zm-1.942-7.758v-1.206c.004-.642.113-.786.728-.893 1.233-.216 2.467-.426 3.702-.63 1.565-.261 3.13-.524 4.697-.764a7.642 7.642 0 0 1 1.265-.07c.443.007.638.384.842.701.536.83 1.216 1.486 2.116 1.875a4.477 4.477 0 0 0 5.967-2.544c.34-.909.907-1.269 1.819-1.379 1.53-.184 3.048-.476 4.57-.726.617-.102.657-.061.53.562-.195.944-.394 1.887-.572 2.835-.09.48-.413.659-.825.731-.745.132-1.493.246-2.24.367-1.725.277-3.447.566-5.173.83-1.784.273-3.57.544-5.359.774-2.022.26-4.024.622-6.024 1.02-1.87.372-3.765.604-5.646.912-.314.05-.293-.162-.322-.342-.107-.681-.068-1.368-.075-2.053Z" fill="#7E5D44"/><path fill-rule="evenodd" clip-rule="evenodd" d="M58.812 38.47c.728.437.65 1.452 1.329 1.958.748-1.678 1.484-3.342 2.23-5.002.28-.621.6-1.217.433-1.952-.07-.315.16-.512.458-.529.499-.03.993.034 1.441.282.42.231.632.719.328 1.042-.76.809-.637 1.813-.722 2.768-.123 1.378-.187 2.761-.274 4.142-.007.12-.035.247-.003.355.045.152.104.36.217.413.144.069.219-.155.308-.26 1.28-1.526 2.551-3.061 3.836-4.584.288-.343.423-.737.507-1.166.124-.63.456-.973.913-.96.572.017 1.15.54 1.21 1.104.04.402-.155.686-.522.764-.501.107-.677.438-.783.894-.425 1.836-.88 3.665-1.297 5.503-.119.526-.404.753-.908.866-2.514.563-4.986.22-7.454-.31-.656-.14-1.312-.281-1.972-.402-.37-.068-.516-.188-.4-.624.36-1.332.666-2.678.991-4.02.024-.1.027-.206.134-.282Z" fill="#FEDD43"/><path fill-rule="evenodd" clip-rule="evenodd" d="M44.77 2.588c.473-.1.923.254 1.353.654.693.647 1.25 1.413 1.787 2.192.238.343.156.548-.25.6-.968.12-1.94.213-2.909.317-.449.048-.9.079-1.345.146-.382.057-.645-.077-.844-.407-.638-1.062-1.297-1.304-2.43-.844-.389.158-.6.099-.877-.239-.901-1.093-2.103-1.461-3.455-1.237-.862.143-1.409.807-1.9 1.481-.228.313-.404.442-.84.331-.941-.24-1.823-.073-2.463.785-.141.189-.346.26-.58.254-2.06-.054-4.106.14-6.15.366-.578.064-1.156.141-1.73.237-.39.065-.637.021-.785-.44-.254-.789-.586-1.553-.907-2.318-.126-.3-.07-.379.247-.463.702-.185 1.417-.179 2.126-.229 3.197-.224 6.397-.426 9.597-.617 1.514-.09 3.03-.139 4.544-.208l7.812-.36Z" fill="#7E5D44"/><path fill-rule="evenodd" clip-rule="evenodd" d="M5.994 26.39c-.94-1.37-1.513-2.841-1.698-4.42-.578-4.942.404-9.612 2.55-14.044.802-1.657 1.997-3.005 3.418-4.133 1.516-1.204 3.605-1.28 5.058-.214a4.323 4.323 0 0 1 1.484 1.951c.488 1.258 1.001 2.506 1.348 3.817.135.508.096.962-.238 1.386-.3.382-.572.79-.862 1.182-.093.125-.157.324-.345.298-.23-.032-.205-.275-.233-.432-.243-1.363-.576-2.7-1.08-3.99-.33-.847-.745-1.632-1.587-2.053-1.047-.523-2.07-.363-3.05.205-.849.49-1.461 1.22-1.952 2.065-.996 1.712-1.786 3.51-2.185 5.47-.208 1.021-.225 2.066-.329 3.1-.23 2.291.287 4.461 1.021 6.59.24.695.25 1.272-.276 1.84-.377.409-.677.89-1.044 1.381Z" fill="#5E564B"/><path fill-rule="evenodd" clip-rule="evenodd" d="M46.874 36.873c.047 1.595.028 3.168-.53 4.706-.842 2.318-3.37 3.143-5.141 2.424-1.024-.416-1.579-1.287-2.03-2.234-.63-1.328-.836-2.774-1.064-4.213a12.302 12.302 0 0 1-.128-2.225c.006-.243.072-.345.34-.382a828.29 828.29 0 0 0 8.005-1.132c.325-.047.443.056.473.38.084.89.057 1.783.075 2.676Z" fill="#E0C472"/><path fill-rule="evenodd" clip-rule="evenodd" d="M32.012 16.11c-.981-.012-1.769-.171-2.568-.216a14.482 14.482 0 0 0-2.821.135c-1.552.217-3.104.48-4.58 1.052-.734.285-1.461.583-2.251.671-.418.047-.837.119-1.256.123-1.502.018-3.005.012-4.508.01-.11 0-.259.058-.322-.062-.071-.133.083-.204.15-.289.827-1.054 1.683-2.086 2.48-3.164.423-.571 1.007-.516 1.57-.581.289-.034.584-.007.876-.012 1.909-.031 3.818-.032 5.726-.104 2.344-.088 4.688-.129 7.032-.193.814-.022 1.63-.03 2.443-.07.368-.018.484.124.404.464-.08.341-.048.674.003 1.016.097.65-.076.856-.709.945-.617.087-1.214.314-1.669.275Z" fill="#45342A"/><path fill-rule="evenodd" clip-rule="evenodd" d="M21.453 23.075c-.41-.42-.6-.977-.886-1.475-.34-.589-.684-1.175-1.034-1.758-.172-.287-.161-.479.151-.689 1.276-.856 2.701-1.303 4.162-1.67 1.628-.407 3.266-.762 4.956-.738.45.007.902.043 1.353.066.395.02.654.226.772.608.35 1.134.463 2.3.411 3.48-.018.397-.26.685-.568.912-.72.533-1.43 1.08-2.164 1.59-.39.27-.568.563-.393 1.045.09.248.121.52.166.782.11.651.107.652-.536.89a1.82 1.82 0 0 1-.383-.84c-.116-.593-.393-1.05-.94-1.314a.203.203 0 0 1-.104-.136c.022-.15.146-.199.261-.274-.392.043-.74.231-1.125.27-1.421.061-2.806-.08-4.1-.75Z" fill="#FEDD43"/><path fill-rule="evenodd" clip-rule="evenodd" d="M20.48 43.309a21.226 21.226 0 0 0-.085 2.469c.009.382-.138.371-.412.252a4477.46 4477.46 0 0 0-8.088-3.496c-1.006-.434-2.012-.868-3.021-1.295-.19-.08-.32-.16-.316-.409.016-1.292-.162-2.584.01-3.878.045-.344.112-.462.476-.302 3.348 1.469 6.644 3.052 9.956 4.599.211.098.411.225.616.338.883.485.883.485.865 1.722Zm-11.9-.283v-.756c-.006-.513-.009-.505.452-.358 1.31.418 2.55 1.012 3.809 1.559 2.036.885 4.066 1.787 6.098 2.681.014.006.029.008.042.015 1.061.579 1.464.606 1.274 2.116-.11.879-.05 1.777-.287 2.65-.11.404-.232.433-.593.259-2.412-1.167-4.666-2.637-7.076-3.808-.645-.313-1.29-.627-1.94-.927-1.182-.548-1.79-1.471-1.78-2.806v-.625Z" fill="#634638"/><path fill-rule="evenodd" clip-rule="evenodd" d="M17.281 13.212c.233-.465.607-.785.863-1.19.14-.225.303-.439.42-.675.297-.593.77-.885 1.408-.87.975.022 1.958.06 2.925.028 1.175-.037 2.355.023 3.533-.1.762-.08 1.54-.09 2.31-.111 1.135-.032 2.254-.212 3.378-.342 1.307-.152 2.619-.11 3.93-.107.195 0 .238.093.136.248-.602.913-1.21 1.82-1.81 2.735-.102.157-.238.14-.382.144-2.009.063-4.02.077-6.024.2-3.102.189-6.205.157-9.31.149-.444-.001-.89-.07-1.377-.11Z" fill="#45342A"/><path fill-rule="evenodd" clip-rule="evenodd" d="M8.542 35.293c.082-.906.154-1.615.205-2.325.02-.262.153-.182.296-.148.943.227 1.804.669 2.687 1.052 2.411 1.046 4.818 2.104 7.224 3.161.566.249 1.042.651 1.558.984.321.208.257.575.232.9-.048.622-.111 1.242-.162 1.863-.043.546-.165.62-.648.396-3.553-1.648-7.102-3.3-10.66-4.934-.515-.236-.858-.513-.732-.949Z" fill="#634638"/><path fill-rule="evenodd" clip-rule="evenodd" d="M53.763 9.67c-.228.5-.472.942-.796 1.314-1.373 1.579-2.735 3.171-4.254 4.607-1.238 1.17-2.432 2.39-3.74 3.483-.144.12-.295.217-.47.188-.759-.127-1.236.29-1.653.848a15.249 15.249 0 0 0-1.113 1.756c-.13.233-.254.24-.449.103-.347-.245-.7-.48-1.05-.719-.177-.12-.224-.232-.055-.425 1.648-1.88 3.3-3.758 4.925-5.66 1.247-1.46 2.606-2.807 3.926-4.193.492-.515.957-1.042 1.693-1.174.128-.023.26-.052.388-.043.87.063 1.732-.14 2.648-.085Z" fill="#31261C"/><path fill-rule="evenodd" clip-rule="evenodd" d="M44.05 1.894c-.267.207-.538.21-.792.225-1.849.106-3.697.192-5.545.3-2.328.134-4.654.289-6.981.424-1.368.08-2.737.127-4.104.209-1.861.11-3.726.163-5.576.428-.907.13-1.221-.038-1.684-.838-.133-.228-.286-.444-.47-.727.63-.072 1.21-.179 1.795-.198 1.822-.06 3.644-.127 5.457-.306 1.9-.187 3.803-.328 5.71-.413 1.965-.088 3.935-.17 5.903-.153 1.615.013 3.234.034 4.847.19.604.059.991.453 1.44.859Z" fill="#7E5D44"/><path fill-rule="evenodd" clip-rule="evenodd" d="M7.09 17.575c-.048-.784.065-1.49.175-2.193a2.61 2.61 0 0 1 .596-1.27c1.75-2.112 3.499-4.223 5.253-6.33.121-.146.285-.253.423-.385.433-.413.45-.425.737.084.388.686.634 1.435.85 2.191.093.325-.068.61-.257.867-.822 1.118-1.712 2.18-2.592 3.25-1.431 1.742-2.945 3.415-4.2 5.302-.121.182-.283.338-.431.502-.088.098-.18.213-.334.137-.123-.061-.135-.186-.133-.308.006-.639-.162-1.27-.088-1.848Zm13.807 17.913c.075.517-.076.939-.057 1.371.015.344-.098.414-.414.278a105.38 105.38 0 0 0-2.988-1.252c-2.7-1.075-5.322-2.334-7.998-3.465-.66-.28-.738-.491-.655-1.206.059-.5.042-1.01.059-1.514.017-.554.045-.582.541-.39 1.69.65 3.328 1.425 4.971 2.187 1.949.904 3.887 1.832 5.804 2.805.542.275.985.544.737 1.186Z" fill="#634638"/><path fill-rule="evenodd" clip-rule="evenodd" d="M27.747 42.35c.043-.721.094-1.403.122-2.086.019-.485.293-.657.717-.726 1.406-.231 2.81-.476 4.214-.72 1.289-.225 2.577-.453 3.864-.688.648-.118.7-.09.83.569.154.786.297 1.574.468 2.356.06.276.016.392-.276.464-1.628.395-3.274.682-4.922.97-1.46.257-2.924.505-4.403.625-.631.05-.633.03-.614-.624.002-.06 0-.119 0-.14Z" fill="#7E5D44"/><path fill-rule="evenodd" clip-rule="evenodd" d="M49.296 9.753c-.528.758-1.143 1.311-1.683 1.93-1.105 1.264-2.253 2.488-3.375 3.737a912.046 912.046 0 0 0-4.56 5.102c-.26.292-.401.343-.68-.015-.387-.5-.864-.928-1.316-1.372-.206-.202-.248-.348-.026-.587 1.694-1.828 3.41-3.638 5.205-5.36.924-.886 1.767-1.849 2.69-2.732.56-.533 1.2-.637 1.876-.692.591-.05 1.19-.011 1.869-.011Z" fill="#31261C"/><path fill-rule="evenodd" clip-rule="evenodd" d="M37.532 9.125c-1.984 0-3.967.003-5.95-.002-.52-.001-.669-.17-.668-.71 0-.373.063-.74.15-1.102.23-.959.976-1.336 1.877-.956.849.358.849.358 1.292-.46.735-1.355 2.214-1.813 3.57-1.104.492.257.797.674 1.008 1.187.285.69.559.76 1.164.313.238-.175.475-.344.763-.423.47-.13.86.024 1.047.479.31.754.358 1.525.06 2.303-.087.229-.219.304-.462.301-1.284-.013-2.569-.006-3.852-.006v.18Z" fill="#E0C472"/><path fill-rule="evenodd" clip-rule="evenodd" d="M19.617 21.784c-.629.541-1.261 1.079-1.884 1.627-.46.405-1.003.573-1.593.655-.851.118-1.566.546-2.2 1.113a3.657 3.657 0 0 1-1.185.735c-.77.28-1.466.729-2.251.97-.639.195-1.263.146-1.888-.05-.32-.1-.639-.203-.96-.294-.436-.123-.487-.243-.215-.63.278-.4.578-.782.871-1.171.283-.377.6-.733.847-1.134.453-.736 1.198-.76 1.907-.882 1.702-.294 3.401-.605 5.108-.864 1.118-.17 2.247-.262 3.38-.196l.063.12Z" fill="#45342A"/><path fill-rule="evenodd" clip-rule="evenodd" d="M45.386 20.201a16.48 16.48 0 0 1 4.868 1.633c.333.172.459.499.41.868-.122.898-.264 1.792-.386 2.69-.025.177-.13.205-.266.228-.746.127-1.46.262-2.205-.15-.817-.453-1.702-.307-2.535.051-.236.1-.421.117-.651-.005a9.603 9.603 0 0 0-1.193-.546c-.32-.117-.316-.274-.229-.564.352-1.162.747-2.305 1.31-3.381.047-.548.454-.695.877-.824Z" fill="#E2AC02"/><path fill-rule="evenodd" clip-rule="evenodd" d="M15.672 12.897c.172.717-.278 1.265-.717 1.808-2.047 2.534-4.03 5.12-5.993 7.723-.151.2-.31.395-.475.582-.183.208-.35.22-.44-.086-.172-.598-.354-1.193-.504-1.796a1.176 1.176 0 0 1 .237-1.08c1.78-2.256 3.607-4.472 5.437-6.687l1.688-2.045c.102-.124.203-.295.38-.253.17.041.219.232.25.392.088.45.161.906.137 1.442Z" fill="#634638"/><path fill-rule="evenodd" clip-rule="evenodd" d="M63.2 47.902c-1.056-.011-2.378-.355-3.72-.538-.836-.115-1.673-.24-2.464-.574-.2-.085-.267-.15-.205-.384.179-.674.319-1.36.48-2.038.125-.53.308-.66.813-.517 2.046.585 4.137.855 6.251.99 1.114.071 2.213-.063 3.31-.233.315-.049.37.045.365.338-.014.679-.16 1.324-.384 1.959-.091.256-.282.37-.516.43-1.19.302-2.389.548-3.93.567Z" fill="#FEDD43"/><path fill-rule="evenodd" clip-rule="evenodd" d="M43.593 9.842c.481 0 .963-.002 1.444.002.095.001.224-.048.277.068.056.122-.069.182-.135.25-.296.31-.596.615-.895.92-1.063 1.085-2.11 2.187-3.194 3.25-1.218 1.193-2.467 2.355-3.707 3.524-.38.358-.396.337-.668-.09-.292-.46-.605-.908-.926-1.348-.13-.177-.129-.286.026-.451.976-1.042 1.938-2.097 2.911-3.142.744-.798 1.5-1.584 2.24-2.383.396-.427.869-.628 1.444-.608.394.014.789.003 1.182.003v.005Z" fill="#31261C"/><path fill-rule="evenodd" clip-rule="evenodd" d="M47.74 39.457c0-.848.003-1.696-.001-2.543 0-.183.026-.295.247-.333a685.94 685.94 0 0 0 6.662-1.19c.39-.073.448.119.388.413-.213 1.031-.44 2.06-.669 3.087-.08.362-.338.563-.673.624-1.934.353-3.87.69-5.803 1.043-.204.037-.263-.006-.258-.208.009-.297.003-.595.003-.893h.104Z" fill="#7E5D44"/><path fill-rule="evenodd" clip-rule="evenodd" d="M37.214 36.395c.01 1.117.012 1.129-1.063 1.332-2.403.456-4.808.903-7.213 1.346-.883.162-1.004.03-.898-.877.052-.443.079-.889.113-1.333.026-.344.236-.494.54-.537 1.962-.273 3.924-.543 5.885-.815.649-.09 1.295-.206 1.947-.264.627-.054.675.015.69.657.003.163 0 .327 0 .491Z" fill="#7E5D43"/><path fill-rule="evenodd" clip-rule="evenodd" d="M17.031 18.328c.496 0 .993-.002 1.49.002.094 0 .228-.034.257.1.022.098-.082.146-.157.192-.345.212-.382.476-.181.828.211.372.365.78.581 1.15.165.283.043.363-.199.402-.945.155-1.888.329-2.837.455-1.166.156-2.32.375-3.474.598-.633.122-1.271.146-1.913.133-.215-.005-.312-.036-.149-.274.653-.947 1.402-1.82 2.043-2.778.338-.504.866-.734 1.481-.711 1.02.038 2.036-.163 3.058-.097Z" fill="#45342A"/><path fill-rule="evenodd" clip-rule="evenodd" d="M33.563 29.366c1.58-1.42 3.389-1.959 5.434-1.774.971.087 1.95.078 2.918.22.395.059.77.168 1.092.415.52.397.52.773-.01 1.156a6.19 6.19 0 0 1-1.427.76c-1.627.623-3.283.508-4.957.245-1.06-.166-2.081-.411-3.05-1.022Z" fill="#3CD469"/><path fill-rule="evenodd" clip-rule="evenodd" d="M30.219 8.222v.09c0 .995.001 1.014-.993 1.077-1.716.107-3.433.19-5.15.281l-1.529.08c-.4.02-.63-.187-.71-.576-.053-.261-.085-.527-.134-.79-.13-.694-.171-.573.476-.67a46.538 46.538 0 0 1 6.136-.532c.523-.008 1.048.052 1.57.047.281-.004.358.105.337.367-.016.208-.002.417-.003.626Z" fill="#7E5D44"/><path fill-rule="evenodd" clip-rule="evenodd" d="M51.641 8.87c-1.227.013-1.201.003-1.655-1.16-.873-2.233-2.15-4.177-4.021-5.678-.195-.155-.375-.329-.56-.496-.085-.077-.21-.15-.128-.29.07-.124.18-.031.275-.022 1.314.134 2.465.7 3.509 1.48 1.928 1.44 3.271 3.363 4.253 5.564.197.443.145.51-.32.534l-1.353.067Z" fill="#9F9281"/><path fill-rule="evenodd" clip-rule="evenodd" d="M47.805 34.885c0-.298.016-.596-.006-.893-.02-.28.087-.411.355-.441 1.56-.18 3.12-.36 4.68-.545.88-.104 1.76-.208 2.64-.33.304-.044.509-.053.34.356a1.441 1.441 0 0 0-.112.429c-.075.998-.67 1.337-1.57 1.524-1.995.413-3.998.762-5.999 1.133-.26.048-.342-.04-.332-.296.014-.312.004-.625.004-.937Z" fill="#7E5D44"/><path fill-rule="evenodd" clip-rule="evenodd" d="M16.56 1.984c.205 0 .41-.007.614.001.54.02.995.21 1.293.7 1.216 2.006 2.378 4.031 2.615 6.456.038.389-.054.478-.414.489-1.396.042-1.395.052-1.913-1.271-.415-1.063-.837-2.124-1.247-3.19-.43-1.118-1.124-2.007-2.135-2.634-.118-.074-.316-.13-.273-.3.036-.147.236-.148.37-.165.362-.046.726-.069 1.09-.1v.014Z" fill="#9F9281"/><path fill-rule="evenodd" clip-rule="evenodd" d="M39.175 9.837c.423 0 .846-.005 1.269.003.108.001.261-.064.311.078.045.129-.103.195-.174.282-1.365 1.651-2.936 3.092-4.472 4.568-.191.184-.37.38-.56.567-.141.141-.224.164-.267-.091-.369-2.168.466-3.85 2.01-5.252.201-.183.46-.173.704-.186.202-.011.406.02.61.026.189.005.38.001.569.001a.01.01 0 0 1 0 .004Z" fill="#31261C"/><path fill-rule="evenodd" clip-rule="evenodd" d="M45.529 8.934h-2.452c-.302 0-.453-.086-.364-.458.088-.372.094-.766.122-1.151.016-.203.068-.32.3-.35 1.591-.2 3.184-.366 4.79-.374.517-.003.83.2.998.68.127.364.235.74.4 1.085.202.422-.02.467-.34.49-.947.07-1.893.11-2.842.1-.204-.003-.408 0-.613 0v-.022Z" fill="#7E5D44"/><path fill-rule="evenodd" clip-rule="evenodd" d="M28.9 32.483c.375.002.716.138 1.033.318.602.34.737 1.206.278 1.782-.358.45-.809.803-1.374.892-.877.139-1.753.293-2.645.308-.699.012-1.343-.182-2.005-.505.504-.494.934-1.015 1.04-1.728.435-.22.923-.238 1.386-.342.785-.177 1.529-.47 2.287-.725Z" fill="#FEDD43"/><path fill-rule="evenodd" clip-rule="evenodd" d="M13.53 6.575a5180.177 5180.177 0 0 1-5.546 6.638c-.09.106-.15.314-.315.248-.187-.076-.055-.268-.031-.396A12.249 12.249 0 0 1 9.993 7.76c.524-.685 1.138-1.227 2.022-1.366.493-.077.944.111 1.515.18Z" fill="#624638"/><path fill-rule="evenodd" clip-rule="evenodd" d="M64.576 39.885c-.116-1.434.132-2.836.365-4.238.039-.233.15-.467.345-.606.615-.436.917-1.044 1.029-1.784.058-.377.547-.574 1.148-.502.434.052.598.245.595.697-.725.58-.896 1.314-.684 2.218.122.516-.026.989-.43 1.417a17.087 17.087 0 0 0-1.949 2.462c-.096.15-.177.358-.419.336Z" fill="#E2AC02"/><path fill-rule="evenodd" clip-rule="evenodd" d="M36.56 34.35c-.433.025-.764-.176-1.001-.524-.543-.794-1.171-1.515-1.78-2.254-.322-.392-.587-.813-.65-1.336-.028-.242-.034-.414.31-.29.987.352 1.983.676 2.977 1.01a.56.56 0 0 1 .316.22c.411.618.75 1.26.868 2.018.132.857.084 1.037-1.04 1.156Z" fill="#299248"/><path fill-rule="evenodd" clip-rule="evenodd" d="M24.42 27.28c.52.034 1.066.025 1.556.294.767.42.81.86.16 1.428-.434.379-.927.553-1.495.441a1.252 1.252 0 0 0-.84.125c-.624.31-1.502.154-2.002-.32-.397-.377-.335-.951.156-1.286.74-.5 1.575-.664 2.465-.682Zm2.66.858c-.196-.604.236-.966.74-1.289.93-.595 1.89-1.002 3.01-.563.518.203.619.392.411.91-.378.937-1.198 1.3-2.053 1.583-.454.15-.935.221-1.405.318-.65.134-.703.086-.703-.584v-.375Z" fill="#E2AC02"/><path fill-rule="evenodd" clip-rule="evenodd" d="M31.635 30.95c-1.074 0-1.074 0-1.385-1.057-.022-.07-.032-.147-.064-.212-.187-.388-.125-.62.298-.838.589-.304.93-.882 1.183-1.494.086-.206.154-.298.406-.218.286.091.598.105.901.136.254.027.486.106.676.278.383.346.377.58-.002.925-.229.209-.47.393-.745.537-.333.176-.437.438-.391.844.118 1.04.388 1.055-.877 1.1Z" fill="#FEDD43"/><path fill-rule="evenodd" clip-rule="evenodd" d="M19.63 29.173c-.596.034-1.116-.161-1.572-.544-.304-.255-.454-.574-.385-.98.064-.376.358-.454.66-.544.723-.216 1.379-.632 2.133-.762.246-.043.49-.034.738-.032.484.004.595.4.769.731.074.142-.065.177-.142.226-.498.32-.73.791-.744 1.379-.005.216-.092.307-.298.355-.383.09-.763.186-1.16.17Z" fill="#E2AC02"/><path fill-rule="evenodd" clip-rule="evenodd" d="M30.749 31.412c.61.03 1.22.066 1.831.086.418.013.755.144 1.003.515.263.392.564.757.848 1.134.08.105.196.206-.01.308-.746.374-1.495.734-2.357.7-.687-.026-.884-.18-1.073-.869a1.913 1.913 0 0 0-.802-1.125c-.106-.072-.333-.059-.294-.26a.63.63 0 0 1 .34-.44c.168-.087.341-.055.514-.049Z" fill="#FEDD43"/><path fill-rule="evenodd" clip-rule="evenodd" d="M34.152 18.698c-.553 0-1.107-.006-1.66.003-.216.004-.342-.032-.386-.294-.08-.48-.208-.952-.319-1.427-.05-.215.034-.327.239-.39a7.232 7.232 0 0 1 2.407-.319c.13.005.214.06.284.17.442.678.892 1.352 1.329 2.034.158.247-.046.222-.189.222-.568.002-1.136.001-1.705.001Z" fill="#45342A"/><path fill-rule="evenodd" clip-rule="evenodd" d="M33.56 23.162c-.128-.553-.503-.807-1.025-.888-.344-.054-.688-.116-1.043-.177 1.063-1.313 3.346-1.625 4.595-.644.485.382.657.766.53 1.187-.835.238-1.61.714-2.52.662-.19-.01-.381.002-.537-.14Zm26.03 15.286c-.556-.903-.465-1.87-.257-2.843.105-.492.221-.982.336-1.471.123-.528.462-.888.908-1.139.368-.207.787-.09 1.036.278.146.217.287.446.337.715-.282.668-.66 1.282-1.01 1.91-.354.634-.623 1.302-.89 1.975-.09.224-.118.542-.46.575Z" fill="#E2AC02"/><path fill-rule="evenodd" clip-rule="evenodd" d="M36.703 23.35c.118-.221.235-.44.35-.662.542-1.042 1.39-1.351 2.45-.876.659.295 1.191.787 1.745 1.24.248.204.054.49.001.74-.083.17-.235.218-.4.22-1.153.014-2.302-.037-3.437-.252-.257-.05-.597-.055-.709-.41Z" fill="#FEDD43"/><path fill-rule="evenodd" clip-rule="evenodd" d="M54.476 51.441c.52-.26.971-.6 1.278-1.116.172-.29.482-.323.758-.389.93-.221 1.829-.094 2.678.336.383.194.732.452.698.975-.19.217-.45.262-.711.296-1.241.164-2.483.327-3.719.528-.231.038-.474.06-.68-.075-.189-.123-.416-.249-.302-.555Z" fill="#E2AC02"/><path fill-rule="evenodd" clip-rule="evenodd" d="M41.105 25.53c.716-.012 1.521.104 2.323.24.276.046.514.195.748.348.352.23.485.532.344.948-.146.432-.467.554-.864.485-.902-.155-1.8-.33-2.7-.5-.214-.04-.439-.06-.638-.14-.375-.15-.502-.474-.47-.865.034-.396.334-.438.633-.468.174-.017.349-.027.624-.048Z" fill="#FDDD42"/><path fill-rule="evenodd" clip-rule="evenodd" d="M47.13 31.575c-.185-.208-.206-.413.007-.617.042-.04.07-.095.105-.143.77-1.049.77-1.056 2.183-1.184.814-.075 1.47.287 2.045.838.138.132.28.263.318.466 0 .225-.185.255-.328.291-1.182.298-2.348.698-3.597.579-.267-.026-.518-.053-.733-.23Z" fill="#FEDD43"/><path fill-rule="evenodd" clip-rule="evenodd" d="M20.575 25.675c-.28.02-.578-.09-.846-.332a31.564 31.564 0 0 0-1.24-1.06c-.155-.126-.193-.213-.042-.381.325-.364.657-.716 1.066-.983.415-.27.77-.252 1.095.119.486.552.935 1.138 1.407 1.702.132.157.062.268-.04.382-.356.4-.81.559-1.4.553Z" fill="#E1AC02"/><path fill-rule="evenodd" clip-rule="evenodd" d="M66.32 48.4c.241-.303.601-.368.937-.418.58-.086.907-.426.973-.978.061-.519.34-.653.786-.678.662-.037 1.311.07 1.95.207.356.077.644.334.807.694-.049.136-.16.206-.275.27-1.482.823-3.04 1.334-4.753 1.194-.167-.013-.487.11-.425-.29ZM10.758 28.177c.44-.854 1.193-1.195 2.08-1.244.77-.044 1.545-.01 2.318-.018.468-.004.85.17 1.152.532.029.098-.008.186-.083.231-.583.348-1.17.69-1.866.741-.207-.126-.418-.07-.63-.018-.408.098-.81.217-1.231.253-.466-.04-.917-.17-1.374-.259-.142-.027-.284-.076-.366-.218Z" fill="#E2AC02"/><path fill-rule="evenodd" clip-rule="evenodd" d="M43.369 29.893c.064.23-.025.37-.105.508-.55.948-1.103 1.892-1.656 2.837-.099.168-.215.319-.394.407-.303.149-.623.1-.887-.04-.266-.143-.151-.464-.114-.695.083-.512.221-1.013.328-1.521a.566.566 0 0 1 .351-.424c.815-.356 1.632-.707 2.477-1.072Z" fill="#299248"/><path fill-rule="evenodd" clip-rule="evenodd" d="M26.45 23.797c.657.273 1.043.765 1.132 1.487.036.297.284.52.268.834-.187.206-.357.204-.526-.03-.12-.167-.294-.302-.384-.482-.292-.58-.767-.713-1.367-.75-1.507-.088-2.938-.424-4.014-1.637-.038-.043-.066-.095-.098-.143.272-.039.512.083.75.178 1.115.445 2.28.463 3.45.452.078.044-.17.318.144.203.205-.077.4-.254.645-.112Z" fill="#AF992E"/><path fill-rule="evenodd" clip-rule="evenodd" d="M28.743 24.418a.653.653 0 0 1 .216-.599c1.009-.941 2.144-1.389 3.505-.91.273.095.548.202.645.527-.07.36-.362.534-.621.699-1.056.673-2.183.977-3.424.59-.173-.054-.289-.122-.321-.307Z" fill="#E2AC02"/><path fill-rule="evenodd" clip-rule="evenodd" d="M38.18 26.92c-1.13.007-2.13.23-3.088.656-.107.047-.214.105-.326.125-.232.041-.34-.114-.41-.311-.085-.24.127-.242.239-.276.915-.28 1.63-.835 2.168-1.63.164-.243.356-.305.632-.236.48.12.969.201 1.448.32.336.082.67.81.545 1.132-.049.124-.161.106-.253.135-.34.106-.69.088-.956.084Zm-18.321 3.397c.258-.687.859-.995 1.495-.708.843.38 1.704.559 2.628.478.601-.052 1.01.43.94 1.031a2.818 2.818 0 0 1-1.967.24c-.25-.103-.495-.249-.784-.138-.733-.046-1.42-.301-2.121-.492-.195-.054-.288-.196-.191-.411Z" fill="#FDDD42"/><path fill-rule="evenodd" clip-rule="evenodd" d="M44.836 27.55c.105-.355.187-.718.319-1.06.171-.443.877-.76 1.496-.702.16.015.32.04.475.077.581.145.61.21.37.772-.327.766-.235 1.08.502 1.72-.027.24-.23.217-.364.203-1.011-.105-1.997-.294-2.798-1.01Z" fill="#FEDD43"/><path fill-rule="evenodd" clip-rule="evenodd" d="M42.951 33.362c-.646.02-.69-.048-.476-.582.227-.569.593-.913 1.24-.94.68-.03 1.36-.128 2.04-.203a1.24 1.24 0 0 1 .518.025c.394.122.459.47.492.812.034.343-.289.29-.465.335-1.129.291-2.28.457-3.349.553Z" fill="#FDDD42"/><path fill-rule="evenodd" clip-rule="evenodd" d="M38.057 20.632c-.7.495-.895.51-1.474.118-1.134-.766-2.34-.915-3.62-.464-.068.024-.138.057-.21.063-.19.017-.443.206-.514-.168-.099-.528-.002-.715.382-.769 1.17-.167 2.346-.205 3.526-.186a1 1 0 0 1 .742.307c.372.373.767.724 1.168 1.099Z" fill="#443529"/><path fill-rule="evenodd" clip-rule="evenodd" d="M48.37 26.571c.479-.393 1.037-.443 1.606-.335.652.125 1.3.28 1.94.456.425.115.803.33 1.02.756.074.173-.028.247-.165.296a2.56 2.56 0 0 1-.421.12c-1.276.218-2.533.317-3.62-.616-.207-.178-.472-.323-.36-.677Z" fill="#FDDD42"/><path fill-rule="evenodd" clip-rule="evenodd" d="M37.36 30.967c.818.12 1.548.237 2.28.33.23.028.286.14.296.347.028.633-.088 1.244-.26 1.844-.123.434-.655.582-1.04.292-.257-.194-.478-.431-.586-.758-.216-.659-.442-1.315-.69-2.055Z" fill="#299248"/><path fill-rule="evenodd" clip-rule="evenodd" d="M54.49 51.441c.125.357.353.582.745.526 1.5-.217 3-.445 4.5-.67.056-.01.11-.033.166-.05-.208.558-.676.845-1.16 1.075-1.12.535-2.326.588-3.535.53-.4-.02-.724-.302-.975-.618-.248-.312-.158-.554.259-.793Zm-9.115-31.238c-.28.288-.748.367-.877.823-.01-.152-.056-.235-.209-.113-.19.15-.31.352-.406.572-.43.977-.861 1.953-1.296 2.927-.095.212-.163.453-.488.4-.53-.085-.6-.188-.408-.7.406-1.082.781-2.174 1.455-3.134.58-.826 1.33-.985 2.23-.775Zm-31.055 8.15c.704-.194 1.402-.405 1.97-.908.317.182.338.407.103.677-.097.11-.178.236-.28.34-1.039 1.066-2.953 1.432-4.295.818-.331-.152-.643-.35-.975-.5-.355-.159-.393-.345-.103-.605l1.775.365c-.02.224-.191.106-.289.135.22.035.45.05.677.082.369.052.717-.007 1.03-.234.115-.083.224-.193.386-.17Z" fill="#9C7701"/><path fill-rule="evenodd" clip-rule="evenodd" d="M19.236 30.496c.056.917.025.963-.86 1.115-1.005.173-1.954.067-2.842-.512-.485-.317-1.028-.542-1.62-.848l1.052-.45c.875.052 1.724.242 2.56.494.37.112.751.062 1.128.077.2.008.412-.034.582.124Zm17.47-7.146c.481.31 1.034.383 1.573.414.908.052 1.815.168 2.726.105.085-.006.165-.05.247-.077-.25 1.053-.67 1.331-1.726 1.213a16.31 16.31 0 0 1-2.148-.395c-.709-.178-.967-.688-.672-1.26Z" fill="#AF982E"/><path fill-rule="evenodd" clip-rule="evenodd" d="M19.246 30.495a6.929 6.929 0 0 1-2.858-.373c-.347-.122-.738-.111-1.11-.16-.12-.016-.276.04-.301-.162.707-.332 1.378-.718 1.846-1.383.099-.14.176-.108.27-.003a5.004 5.004 0 0 0 1.983 1.346c.377.14.122.486.17.735Z" fill="#FDDD42"/><path fill-rule="evenodd" clip-rule="evenodd" d="M66.311 48.401c.04.255.24.162.382.172 1.6.115 3.079-.303 4.484-1.054.193-.102.392-.194.588-.291.162.326.064.592-.175.834a2.506 2.506 0 0 1-.991.628c-1.02.336-2.033.71-3.126.698a1.43 1.43 0 0 1-1.082-.49c-.123-.136-.272-.296-.08-.497Z" fill="#9D7701"/><path fill-rule="evenodd" clip-rule="evenodd" d="M19.422 31.925c.35-.187.686-.081.994.094.996.566 2.082.738 3.197.79.716.034 1.118.437.992 1.008-.21-.134-.432-.145-.671-.091-.942.214-1.847.143-2.71-.341-.24-.135-.525-.176-.781-.283-.527-.221-.918-.57-1.021-1.177Z" fill="#AF992E"/><path fill-rule="evenodd" clip-rule="evenodd" d="M25.483 30.858c-.004-.06-.017-.12-.012-.178.022-.267-.265-.597.004-.786.354-.249.799-.456 1.235-.329.63.184 1.232.123 1.855.022.426-.068.849-.033 1.136.379-.296.26-.587.526-.89.777-.152.125-.331.277-.534.06-.106-.166-.268-.154-.427-.127-.568.095-1.139.18-1.697.332-.259.112-.532.295-.67-.15Z" fill="#FDDD42"/><path fill-rule="evenodd" clip-rule="evenodd" d="M25.49 30.857c.2.308.405.226.614.012.162.21.389.234.625.224a4.117 4.117 0 0 0 1.18-.246c.146-.05.288-.144.456-.085.326.115.454-.186.646-.335.221-.173.371-.45.696-.462.311.528-.083 1.349-.811 1.619-.687.255-1.41.356-2.132.436-.36.04-.724.079-1.086.086-.253.005-.4-.096-.306-.416.078-.266.081-.555.118-.833Z" fill="#AF982E"/><path fill-rule="evenodd" clip-rule="evenodd" d="M36.094 24.51c.283.25.26.505.061.81-.747 1.153-1.85 1.447-3.11 1.382-.086-.005-.173-.036-.259-.033-.588.022-1.002-.209-1.161-.818.247-.2.525-.116.79-.076.32.047.632.051.949-.025.116-.03.17-.086.191-.196.172-.113.368-.1.56-.119.588.042.971-.385 1.422-.655.18-.107.301-.328.557-.27Z" fill="#9C7701"/><path fill-rule="evenodd" clip-rule="evenodd" d="M19.864 30.316c.021.132.027.257.2.298.72.167 1.42.425 2.158.51.251-.033.466.243.73.087.52.22 1.03.024 1.543-.033.145-.016.288-.04.432-.06-.067.39-.31.6-.66.75-1.457.619-2.803.421-4.042-.558-.312-.247-.532-.553-.36-.994Z" fill="#AF982E"/><path fill-rule="evenodd" clip-rule="evenodd" d="M19.433 31.926c.085.022.177.035.185.152.027.374.261.62.561.74.95.383 1.85.966 2.93.895.347-.023.688-.115 1.034-.15.197-.02.467-.119.473.255-.322.777-.924 1.048-1.747.745-.422-.155-.827-.363-1.233-.563-1.083-.535-2.163-1.079-3.316-1.655l1.113-.42Z" fill="#FCDC42"/><path fill-rule="evenodd" clip-rule="evenodd" d="M36.092 24.51c-.452.32-.882.676-1.382.92-.17.082-.34.265-.548.066-.053-.127.031-.188.13-.26-.4.059-.784.133-1.184.156.174.026.356.01.433.215l.192.12a1.969 1.969 0 0 1-1.375.16c-.237-.053-.49-.026-.735-.035-.15-.15-.109-.261.075-.32.621-.197 1.117-.606 1.636-.982.486-.35 1.044-.494 1.643-.466.128.007.275.025.385-.025.466-.209.617.082.73.45Z" fill="#E1AC02"/><path fill-rule="evenodd" clip-rule="evenodd" d="M64.578 39.884c.58-.627.947-1.422 1.548-2.035.256-.26.438-.61.718-.835.58-.467.484-1.073.387-1.669-.15-.924.058-1.446.829-1.894-.019.306-.205.518-.409.707-.32.298-.388.651-.251 1.051.408 1.194.244 2.232-.72 3.106-.424.384-.712.897-1.04 1.37-.26.376-.559.71-.982 1.002l-.08-.803Z" fill="#9C7702"/><path fill-rule="evenodd" clip-rule="evenodd" d="M19.075 25.502c.272.257.297.456-.08.656-.874.463-1.786.65-2.738.368-.51-.15-1.01-.26-1.54-.25-.15.003-.374.03-.434-.116-.074-.177.109-.32.225-.449.108-.117.208-.25.37-.3a5.952 5.952 0 0 1 2.207.13c.658.16 1.33.138 1.99-.04Z" fill="#9C7701"/><path fill-rule="evenodd" clip-rule="evenodd" d="M47.117 31.575c1.625.33 3.147-.107 4.658-.64.161.342-.043.559-.259.764-.529.508-1.222.59-1.887.724-.511.103-1.036.138-1.55.23-.346.061-.543-.058-.657-.394-.08-.236-.201-.457-.305-.684Z" fill="#AF992E"/><path fill-rule="evenodd" clip-rule="evenodd" d="M52.379 29.078c.505-.435 1.037-.343 1.595-.109.372.157.775.24 1.147.394.283.117.546.293.408.692-.873.294-1.766.274-2.659.145-.226-.033-.427-.18-.611-.329-.47-.38-.442-.566.12-.793Z" fill="#FDDC42"/><path fill-rule="evenodd" clip-rule="evenodd" d="M59.586 38.448c.365-.389.44-.92.658-1.383.5-1.063 1.001-2.128 1.701-3.077.243.307.197.63.05.96-.51 1.148-1.015 2.3-1.529 3.446-.1.223-.142.57-.41.582-.254.01-.337-.323-.47-.528Z" fill="#9C7702"/><path fill-rule="evenodd" clip-rule="evenodd" d="M48.352 26.571c.33.751 1.015 1.046 1.705 1.223.914.234 1.842.04 2.75-.169.085-.02.09-.106.11-.177.135.426.031.715-.37.824-1.49.407-2.923.22-4.265-.542-.524-.298-.478-.704.07-1.159Z" fill="#AF992E"/><path fill-rule="evenodd" clip-rule="evenodd" d="M22.484 25.476c.302-.325.687-.292 1.062-.232.805.13 1.608.279 2.41.427.399.075.932.65.938 1.063.005.288-.293.19-.454.267-.28-.254-.605-.383-.98-.436a10.63 10.63 0 0 1-2.154-.542c-.318-.116-.624-.246-.822-.547Z" fill="#9C7701"/><path fill-rule="evenodd" clip-rule="evenodd" d="M52.21 32.025c.13-.424.371-.62.75-.634.943-.035 1.833-.292 2.692-.675.54-.24.893-.044 1.031.536.061.256-.13.222-.25.26-.853.27-1.739.346-2.622.414-.52.04-1.038.142-1.6.1Z" fill="#AE982D"/><path fill-rule="evenodd" clip-rule="evenodd" d="M46.61 29.678c.417.428.418.585-.03.942-.748.594-1.597.799-2.532.669-.31-.043-.443-.16-.288-.489.085-.183.129-.385.193-.578.738-.024 1.474-.065 2.161-.39.158-.074.32-.137.496-.154Z" fill="#AF992E"/><path fill-rule="evenodd" clip-rule="evenodd" d="M22.477 25.479c1.023.622 2.166.838 3.322 1.018.29.046.568.149.634.506-.272.092-.512-.05-.76-.115-.733-.196-1.466-.136-2.195.004-.469.09-.816-.057-1.1-.434-.297-.392-.281-.623.099-.98Z" fill="#E1AB02"/><path fill-rule="evenodd" clip-rule="evenodd" d="M52.386 29.08c-.084.057-.164.123-.253.167-.173.084-.165.173-.037.298.355.347.736.595 1.264.605.729.015 1.45-.084 2.177-.093-.025.152-.14.218-.262.269-.79.33-1.602.539-2.466.438-.113-.013-.249-.024-.333-.09-.58-.458-1.149-.93-1.82-1.477.67-.053 1.207-.018 1.73-.117Z" fill="#AF992E"/><path fill-rule="evenodd" clip-rule="evenodd" d="M19.095 25.502c-.102.257-.332.263-.544.261-.492-.003-.989.057-1.474-.088-.594-.177-1.203-.193-1.815-.177-.124.003-.267.047-.364-.087 1.062-.641 2.18-.855 3.375-.458.32.107.618.257.822.549Z" fill="#E1AC02"/><path fill-rule="evenodd" clip-rule="evenodd" d="M28.75 24.415c.643.34 1.322.453 2.032.299.897-.197 1.698-.585 2.335-1.28.201.383.019.711-.26.889-.939.597-1.91 1.144-3.075 1.105-.742-.025-.952-.232-1.032-1.013Z" fill="#9C7702"/><path fill-rule="evenodd" clip-rule="evenodd" d="M44.817 27.552c.256-.035.365.232.554.296.777.261 1.527.652 2.38.605.088-.005.176-.003.229-.093l.852.528c-.626.161-1.174.113-1.716.093a5.545 5.545 0 0 1-1.912-.425c-.675-.277-.679-.298-.387-1.004Z" fill="#AF992E"/><path fill-rule="evenodd" clip-rule="evenodd" d="M46.618 29.678c-.622.504-1.372.579-2.118.636-.166.013-.424.29-.54-.091.105-.417.118-.973.415-1.186.287-.206.758.137 1.142.248.373.107.778.138 1.101.393Z" fill="#FCDC42"/><path fill-rule="evenodd" clip-rule="evenodd" d="M35.424 34.534c-1.018.152-1.978.302-2.94.438-.535.075-1.072.128-1.607.19-.252.03-.27-.077-.176-.283.142-.312.394-.32.665-.262.869.183 1.71.116 2.52-.267.105-.05.21-.103.31-.163.698-.416.697-.417 1.228.347Z" fill="#AC972D"/><path fill-rule="evenodd" clip-rule="evenodd" d="M28.907 32.482c-1.128.704-2.392.916-3.674 1.066-.055-.444.25-.636.575-.71 1.018-.234 2.044-.446 3.1-.356Z" fill="#AF992E"/><path fill-rule="evenodd" clip-rule="evenodd" d="M33.563 23.16c.734.056 1.448-.01 2.126-.345.29-.142.602-.222.931-.176-.538.877-1.938 1.042-2.652.926-.22-.036-.361-.174-.406-.404Z" fill="#9B7601"/><path fill-rule="evenodd" clip-rule="evenodd" d="M37.137 62.644c-.033-.573.174-1.046.446-1.494.42-.69.96-1.275 1.551-1.808.773-.697 1.425-1.548 2.398-1.992.71-.324 1.441-.58 2.238-.463.879.128 1.107.609.701 1.413-1.158 2.294-2.92 4.03-4.91 5.556-.093.071-.191.137-.284.208-.87.663-1.769.34-2.053-.74-.06-.23-.106-.465-.087-.68Z" fill="#F78682"/><path fill-rule="evenodd" clip-rule="evenodd" d="M48.042 64.083c-.43-.092-.798-.298-1.13-.558-1.052-.822-2.088-1.664-3.142-2.484-.215-.167-.258-.28-.085-.52a57.86 57.86 0 0 0 1.342-1.982c.152-.23.255-.278.432-.014a22.215 22.215 0 0 1 2.565 5.196.97.97 0 0 1 .043.217c.003.041-.014.084-.025.145Zm-8.628.541c.423-.39.845-.726 1.292-1.03.212-.142.458-.11.682-.066 1.7.333 3.4.678 5.098 1.027.125.026.343-.023.337.192-.005.161-.199.148-.313.181-.812.24-1.65.206-2.478.169-1.382-.063-2.768-.114-4.14-.327-.156-.024-.306-.046-.478-.146Zm7.434-.476c-.834-.045-1.616-.218-2.393-.402-.877-.208-1.746-.455-2.622-.665-.23-.054-.319-.097-.156-.33.384-.55.874-.994 1.348-1.455.105-.102.207-.083.315-.017 1.26.779 2.444 1.659 3.483 2.733.014.017.01.053.025.136Z" fill="#AA5D5A"/><path fill-rule="evenodd" clip-rule="evenodd" d="M32.84 63.68c.066-.353.317-.52.623-.61.77-.227 1.55-.399 2.342-.52.335-.05.586.06.69.393.162.512.418.978.645 1.458-.248.327-.674.389-1.067.154.006-.137.11-.15.206-.186-.415.162-.868-.037-1.28.154-.83.241-1.48-.184-2.128-.605-.074-.048-.089-.149-.032-.237Z" fill="#FDDD42"/><path fill-rule="evenodd" clip-rule="evenodd" d="M32.823 63.68c.383.537 1.578.94 2.116.714.381.02.764.019 1.14.112.365.142.707.038 1.045-.106.443.688.405.793-.376.998-1.137.3-2.246.245-3.312-.285-.586-.29-.78-.753-.613-1.433Z" fill="#AF992D"/><path fill-rule="evenodd" clip-rule="evenodd" d="M10.943 56.451c1.487-.632 3.005-.817 4.546-.248.456.168.928.386 1.069.955-.214.355-.568.361-.916.383-.978-.021-1.944.138-2.917.194-.605.043-1.152-.103-1.593-.55-.201-.202-.385-.42-.19-.734Z" fill="#FDDD42"/><path fill-rule="evenodd" clip-rule="evenodd" d="M15.654 57.44c.334.013.612-.159.906-.282.111.509-.082.846-.632 1.088-.518.228-1.08.224-1.623.325-.846.158-1.681.03-2.506-.163a1.821 1.821 0 0 1-1.02-.654c-.36-.453-.298-.923.165-1.303.02.555.682 1.133 1.326 1.159.145.005.29.007.435.01-.005.112-.086.142-.172.174.9-.145 1.817-.088 2.72-.218.144-.02.287-.027.401-.135Zm-8.647-5.573c.697.636.593 1.225-.268 1.551-1.303.494-2.618.643-3.955.152-.82-.3-1.153-.838-.94-1.49.014-.04.05-.071.077-.106.071-.008.145-.028.215-.006 1.635.504 3.258.447 4.871-.1Z" fill="#AE982D"/><path fill-rule="evenodd" clip-rule="evenodd" d="M7 51.868c-.405.393-.959.487-1.447.512-1.17.062-2.366.171-3.496-.314-.052-.022-.096-.06-.143-.091.077-.085.14-.205.235-.25 1.515-.698 3.043-.907 4.585-.079.099.054.178.147.266.222Z" fill="#FDDD42"/><path fill-rule="evenodd" clip-rule="evenodd" d="M51.93 58.579c.11-.24.335-.325.551-.406a7.145 7.145 0 0 1 3.917-.356c.26.05.52.058.782.074.327.02.64.083.82.415.005.241-.197.26-.346.329-.28.128-.585.156-.882.215-.535.017-1.064.167-1.57.107.11.038.3.014.342.233-.074.111-.188.14-.303.146-.929.04-1.857.052-2.756-.235-.253-.08-.55-.15-.555-.522Z" fill="#E2AC02"/><path fill-rule="evenodd" clip-rule="evenodd" d="M51.947 58.579c.064.142.17.243.313.294 1.072.387 2.17.432 3.285.26.18-.194.435-.085.643-.164.194-.073.432-.022.582-.217.415-.151.89-.124 1.247-.445.305.561.243.865-.26 1.199-.485.32-1.024.475-1.597.55-1 .13-1.993.18-2.993-.014a2.773 2.773 0 0 1-1.002-.417c-.439-.286-.487-.554-.218-1.046Z" fill="#9D7701"/><path fill-rule="evenodd" clip-rule="evenodd" d="M19.632 60.31c1.58-.75 3.09-.54 4.554.336a3.17 3.17 0 0 1-1.343.622c-.651-.156-1.223.155-1.82.324a1.33 1.33 0 0 1-.852.013c-.65-.19-.842-.654-.539-1.296Z" fill="#FCDD42"/><path fill-rule="evenodd" clip-rule="evenodd" d="M22.856 61.181c.458-.129.848-.432 1.317-.535.508.429.453 1.06-.158 1.278-1.335.48-2.703.702-4.105.295-.456-.132-.756-.44-.808-.941-.045-.436.086-.79.517-.968l-.003.132c-.027.92.528 1.323 1.405 1.019.035.046.076.119.126.11.576-.107 1.181-.073 1.709-.39Z" fill="#AF992D"/><path fill-rule="evenodd" clip-rule="evenodd" d="M66.308 55.28c.417.59.345.99-.288 1.263-1.118.482-2.251.34-3.35-.062-.525-.193-.752-1.098.05-1.551.807.838 1.802.639 2.78.515.272-.035.527-.174.808-.165Z" fill="#9C7702"/><path fill-rule="evenodd" clip-rule="evenodd" d="M66.316 55.279c-.569.346-1.204.414-1.837.39-.371-.015-.76.035-1.123-.125-.288-.126-.55-.27-.63-.616 1.285-.863 2.652-.73 3.59.351Z" fill="#E1AC02"/><path fill-rule="evenodd" clip-rule="evenodd" d="M55.853 40.515c.071-.438.235-.879.456-1.298.066-.127.17-.214.315-.196.158.02.28.132.3.284.08.568.006 1.121-.266 1.624-.112.206-.338.206-.547.129-.236-.088-.269-.287-.258-.543Z" fill="#020203"/><path fill-rule="evenodd" clip-rule="evenodd" d="M58.164 34.306c-.025.427-.117.828-.462 1.114-.292.24-.562.147-.66-.22-.122-.465.357-1.46.78-1.649.133-.059.195-.013.231.098.068.213.127.428.111.657Z" fill="#030203"/><path fill-rule="evenodd" clip-rule="evenodd" d="M55.145 44.16c.36.641.416 1.268.226 1.917-.072.25-.214.482-.52.433-.308-.051-.28-.317-.287-.559-.02-.656.134-1.245.58-1.79Z" fill="#020202"/><path fill-rule="evenodd" clip-rule="evenodd" d="M25.218 50.29c-.025-.45.002-.824.29-1.132.144-.154.238-.162.372.02.24.322.242 1.367-.027 1.677-.092.105-.219.244-.363.19a.427.427 0 0 1-.269-.371c-.013-.147-.003-.295-.003-.385Z" fill="#030203"/><path fill-rule="evenodd" clip-rule="evenodd" d="M26.133 43.778c-.015.411-.197.737-.495 1.002-.046.04-.114.042-.15-.022-.181-.327-.317-.667-.24-1.056.003-.015.009-.029.012-.043.085-.332.214-.834.494-.794.294.041.35.552.379.913Z" fill="#020202"/><path fill-rule="evenodd" clip-rule="evenodd" d="M26.447 39.17c-.017.29-.047.568-.312.746-.135.09-.266.047-.358-.048-.216-.225-.21-.503-.139-.789.078-.309.24-.756.468-.725.3.04.316.497.34.816Z" fill="#040303"/><path fill-rule="evenodd" clip-rule="evenodd" d="M7.1 31.45c.007.3-.026.59-.118.875-.137.427-.244.461-.592.171-.482-.403-.374-.96-.34-1.483.018-.263.178-.445.447-.54.322-.112.53-.1.549.316.01.22.035.44.054.661Z" fill="#010102"/><path fill-rule="evenodd" clip-rule="evenodd" d="M7.156 37.31c-.1.458-.002.93-.3 1.313-.167.217-.315.26-.533.04-.292-.298-.36-.647-.27-1.026.067-.287.188-.561.304-.833.053-.127.083-.309.277-.3.197.01.321.139.386.316.06.166.096.34.136.49Z" fill="#010101"/><path fill-rule="evenodd" clip-rule="evenodd" d="M22.372 48.709c.56.686.722 1.373.568 2.14-.047.23-.157.431-.431.412-.273-.02-.408-.201-.438-.467-.077-.691.127-1.339.3-2.085Z" fill="#020102"/><path fill-rule="evenodd" clip-rule="evenodd" d="M23.569 38.064a2.45 2.45 0 0 1-.172.907c-.06.159-.16.292-.341.302-.193.01-.325-.103-.42-.266-.267-.454-.064-1.398.355-1.704.187-.137.315-.072.444.085.167.202.146.439.134.676Z" fill="#010101"/><path fill-rule="evenodd" clip-rule="evenodd" d="M22.323 43.187c-.026-.477.113-.922.513-1.267.142-.122.218-.104.283.07.182.482.248.97.11 1.476-.088.322-.24.609-.62.543-.364-.062-.264-.397-.284-.65-.004-.044-.002-.089-.002-.172Z" fill="#020101"/><path fill-rule="evenodd" clip-rule="evenodd" d="M6.75 42.466c.019.321-.034.611-.27.856-.204.21-.342.171-.468-.067-.26-.493-.195-1.003-.041-1.502.056-.18.247-.236.432-.235.194 0 .215.152.266.293.078.214.068.435.08.655Z" fill="#010101"/><path fill-rule="evenodd" clip-rule="evenodd" d="m5.856 22.574-.067.348c-.032.17.006.419-.175.466-.196.05-.326-.175-.431-.323a1.149 1.149 0 0 1-.144-1.099c.062-.173.16-.325.372-.317.193.007.274.16.329.314.068.195.13.395.116.611Z" fill="#020202"/><path fill-rule="evenodd" clip-rule="evenodd" d="M4.906 17.087V16.6c-.001-.168.066-.282.235-.321.143-.034.25.016.343.129.322.391.059 1.23-.428 1.356-.128.033-.147-.052-.148-.146-.003-.177-.001-.354-.002-.531Z" fill="#040303"/><path fill-rule="evenodd" clip-rule="evenodd" d="M13.529 4.575a1.51 1.51 0 0 1-.635-.143c-.184-.08-.247-.243-.199-.441.05-.202.2-.234.373-.211.173.022.346.04.515.075.23.045.478.082.436.423-.04.314-.275.29-.49.297Zm3.369 3.72c-.042.123-.061.228-.11.316-.07.121-.081.314-.264.32-.207.008-.192-.202-.23-.325-.084-.266-.202-.525-.208-.814-.003-.184.043-.329.238-.367.172-.034.27.065.327.222.082.22.167.44.247.648Z" fill="#030202"/><path fill-rule="evenodd" clip-rule="evenodd" d="M9.128 6.003c.157-.012.167.092.135.2-.072.242-.153.482-.35.654-.139.122-.29.357-.462.233-.13-.093-.087-.373-.022-.549.116-.318.388-.463.699-.538Z" fill="#030302"/><path fill-rule="evenodd" clip-rule="evenodd" d="M42.432 39.697c.036-.437-.173-.834-.454-1.21a1.933 1.933 0 0 1 .085-2.418c.605-.705 1.633-.573 2.017.277.313.694.391 1.41-.044 2.085-.348.54-.26 1.14-.302 1.727-.038.52-.22.674-.729.645-.438-.025-.596-.314-.573-1.106Z" fill="#010101"/><path fill-rule="evenodd" clip-rule="evenodd" d="M23.455 21.735c.065.376-.037.685-.362.842-.34.163-.611-.058-.861-.266-.335-.28-.473-.684-.54-1.088-.047-.288.263-.389.464-.514.297-.184.611-.213.892.027.304.261.49.587.407 1Z" fill="#F78782"/><path fill-rule="evenodd" clip-rule="evenodd" d="M23.36 23.213c1.844-.795 3.666-1.417 5.705-1.329-.475.374-5.18 1.47-5.706 1.33Z" fill="#050403"/><path fill-rule="evenodd" clip-rule="evenodd" d="M27.151 20.782c-.022.225-.042.532-.463.516-.616-.023-.956-.392-.946-1.025.007-.437.21-.68.574-.683.454-.005.841.511.835 1.192Zm3.066-1.24c-.006.104 0 .21-.019.31-.08.443-.339.673-.698.632-.377-.043-.615-.355-.601-.788.01-.328.163-.6.358-.838.15-.184.383-.213.603-.148.201.06.29.243.334.434.03.127.017.265.023.398Z" fill="#F78782"/><path fill-rule="evenodd" clip-rule="evenodd" d="M26.451 23.796c-.215.077-.426.166-.645.227-.122.033-.276.21-.377.03-.122-.215.156-.228.233-.348.36-.097.72-.195 1.08-.29.076-.02.176-.1.223.022.058.147-.073.157-.163.195-.12.05-.235.108-.35.164Z" fill="#0E0B05"/><path fill-rule="evenodd" clip-rule="evenodd" d="M37.305 7.038v.045c.011.384-.13.715-.43.924-.208.144-.368-.103-.516-.22-.301-.237-.497-.541-.407-.959.104-.487.562-.973.87-.929.29.042.485.502.483 1.14Z" fill="#030303"/><path fill-rule="evenodd" clip-rule="evenodd" d="M40.725 7.385c-.055.2-.118.428-.393.427-.183 0-.325-.122-.385-.301-.032-.09.423-.583.502-.554.179.068.274.207.276.428Z" fill="#080604"/><path fill-rule="evenodd" clip-rule="evenodd" d="M32.767 7.344c-.018.238-.089.445-.37.456-.2.007-.342-.095-.342-.315 0-.333.264-.412.502-.454.2-.036.204.157.21.313Z" fill="#080606"/><path fill-rule="evenodd" clip-rule="evenodd" d="M61.758 46.102c-.002.431-.276.777-.615.777-.332 0-.71-.423-.697-.78.013-.374.333-.663.737-.665.383-.003.577.223.575.668Zm-2.878-.646c-.004.463-.282.807-.645.79-.407-.02-.495-.315-.5-.649-.008-.449.27-.776.62-.767.327.008.529.248.525.626Z" fill="#F78782"/><path fill-rule="evenodd" clip-rule="evenodd" d="M64.29 45.798c.177-.002.436.224.428.515-.009.32-.321.664-.608.638-.358-.033-.492-.311-.493-.62 0-.308.164-.532.672-.533Zm2.227-.275c.197.007.382.102.397.378.022.356-.305.806-.568.79-.265-.018-.433-.18-.46-.447-.034-.313.303-.713.632-.721Z" fill="#F78881"/><path fill-rule="evenodd" clip-rule="evenodd" d="M51.607 7.405c-.074.198-.013.492-.378.387-.419-.12-.767-.905-.556-1.269.055-.097.086-.175.22-.09.37.23.58.57.714.972Z" fill="#040303"/><path fill-rule="evenodd" clip-rule="evenodd" d="M48.883 4.126c-.221-.013-.38-.207-.47-.45-.101-.264-.126-.55.004-.813.052-.104.169-.114.256-.013.222.255.462.502.602.813.117.257-.052.475-.392.463Z" fill="#040404"/><path fill-rule="evenodd" clip-rule="evenodd" d="M19.266 7.165c.424.128.645.382.76.745.069.217.018.4-.201.469-.201.064-.336-.048-.383-.258-.068-.3-.172-.596-.176-.956Z" fill="#070605"/><path fill-rule="evenodd" clip-rule="evenodd" d="M19.04 4.834c-.747-.352-.843-.58-.495-1.098l.495 1.098Z" fill="#090807"/><path fill-rule="evenodd" clip-rule="evenodd" d="M26.008 34.47c.791-.103 1.425-.666 2.2-.15-.71.193-1.355.52-2.2.15Z" fill="#0B0904"/><path fill-rule="evenodd" clip-rule="evenodd" d="M23.445 28.792c.154-.308.31-.456.578-.438.098.007.22-.022.248.117.031.159-.104.146-.196.17-.18.044-.36.086-.63.15Z" fill="#140E04"/><path fill-rule="evenodd" clip-rule="evenodd" d="M28.453 27.968c.113-.527.393-.563.848-.46l-.848.46Z" fill="#171102"/><path fill-rule="evenodd" clip-rule="evenodd" d="M57.751 51.305a2.696 2.696 0 0 1-1.188.211c.366-.226.788-.142 1.188-.211Z" fill="#4A3804"/><path fill-rule="evenodd" clip-rule="evenodd" d="M14.334 28.353c-.61.653-1.322.653-2.13.342l.326-.154 1.437-.336c.158-.037.324-.103.367.148Z" fill="#070502"/><path fill-rule="evenodd" clip-rule="evenodd" d="M30.352 24.363c.15-.524.395-.523.718-.343-.175.211-.428.193-.718.343Z" fill="#2C1F03"/><path fill-rule="evenodd" clip-rule="evenodd" d="M22.95 31.212c-.002.114-.026.224-.166.173-.194-.07-.425-.068-.565-.26.274-.24.486.062.73.087Z" fill="#140F05"/><path fill-rule="evenodd" clip-rule="evenodd" d="M17.887 30.776c-.643.363-1.27-.002-1.903-.029.635-.398 1.27-.281 1.903.029Z" fill="#060403"/><path fill-rule="evenodd" clip-rule="evenodd" d="M28.38 30.763a3.86 3.86 0 0 1-1.951.448c-.233-.01-.359-.083-.309-.341.62-.116 1.242-.23 1.861-.35.21-.04.374-.022.4.243Z" fill="#0A0804"/><path fill-rule="evenodd" clip-rule="evenodd" d="M33.522 25.605 33 25.409v-.08l1.362-.226c.014.211-.153.27-.219.393-.192.123-.41.095-.621.11Z" fill="#090603"/><path fill-rule="evenodd" clip-rule="evenodd" d="M36.092 64.508c-.397.137-.77.04-1.139-.113.457-.182.922-.013 1.395-.013l-.256.126Z" fill="#322B0D"/><path fill-rule="evenodd" clip-rule="evenodd" d="M15.644 57.44c.04.24-.1.25-.282.263-.959.064-1.917.145-2.876.21-.125.01-.342.121-.353-.105-.01-.19.207-.078.317-.117.08-.028.164-.049.245-.073.84-.073 1.683-.144 2.524-.218.145-.013.29-.046.425.04Z" fill="#060503"/><path fill-rule="evenodd" clip-rule="evenodd" d="m2.945 52.756 3.63-.259.01.123c-1.17.603-2.41.291-3.64.136Z" fill="#050502"/><path fill-rule="evenodd" clip-rule="evenodd" d="M56.752 58.751c-.046.179-.078.215-.245.272-.319.108-.652.083-.98.11l-.811-.143a3.744 3.744 0 0 1-.005-.086l2.04-.153Z" fill="#191202"/><path fill-rule="evenodd" clip-rule="evenodd" d="M22.85 61.181c.037.185-.032.255-.22.281-.47.067-.936.16-1.403.247-.217.041-.31-.017-.212-.249.457-.12.89-.335 1.371-.353a.978.978 0 0 1 .463.074Z" fill="#0D0B04"/><path fill-rule="evenodd" clip-rule="evenodd" d="M64.974 55.95c-.42.164-.825.157-1.224.192.344-.367.75-.357 1.224-.191Z" fill="#1E1702"/></svg>