<svg width="46" height="18" fill="none" xmlns="http://www.w3.org/2000/svg"><g clip-path="url(#a)"><mask id="b" style="mask-type:luminance" maskUnits="userSpaceOnUse" x="0" y="0" width="46" height="18"><path d="M0 0h46v18H0V0Z" fill="#fff"/></mask><g mask="url(#b)"><path d="M15.363 7.659c0-.51-.043-1.02-.13-1.522H8.18V9.02h4.04a3.464 3.464 0 0 1-1.494 2.274v1.872h2.412c1.41-1.303 2.225-3.23 2.225-5.507Z" fill="#FBBC04"/><path d="M8.184 14.974c2.018 0 3.718-.664 4.957-1.807l-2.411-1.872c-.671.456-1.536.716-2.546.716-1.952 0-3.608-1.316-4.2-3.09H1.5v1.928a7.48 7.48 0 0 0 6.684 4.125Z" fill="#34A853"/><path d="M3.984 8.918a4.488 4.488 0 0 1 0-2.865V4.125H1.5a7.49 7.49 0 0 0 0 6.722l2.484-1.929Z" fill="#FBBC04"/><path d="M8.184 2.963a4.06 4.06 0 0 1 2.869 1.123l2.135-2.136A7.184 7.184 0 0 0 8.184 0 7.48 7.48 0 0 0 1.5 4.125l2.484 1.928c.593-1.773 2.249-3.09 4.2-3.09Z" fill="#34A853"/><path fill-rule="evenodd" clip-rule="evenodd" d="M22.124 14.07V8.797h2.764c1.14 0 2.096-.37 2.872-1.11a3.609 3.609 0 0 0 1.2-2.765 3.626 3.626 0 0 0-1.2-2.75 4.01 4.01 0 0 0-2.87-1.13h-4.437v13.03h1.671Zm-.002-6.875v-4.55h2.805a2.18 2.18 0 0 1 1.655.69 2.22 2.22 0 0 1 0 3.186 2.21 2.21 0 0 1-1.655.674h-2.805Zm13.62-1.337c-.716-.661-1.692-.992-2.928-.992-1.588 0-2.788.582-3.598 1.747l1.473.928c.544-.79 1.284-1.183 2.218-1.183a2.368 2.368 0 0 1 1.615.61c.44.365.694.91.69 1.482v.382c-.642-.364-1.46-.545-2.453-.545-1.164 0-2.094.274-2.79.819-.698.545-1.046 1.278-1.046 2.2a2.789 2.789 0 0 0 .991 2.184c.66.582 1.482.873 2.463.873 1.15 0 2.071-.51 2.764-1.528h.072v1.237h1.6V8.578c.001-1.152-.355-2.06-1.07-2.72Zm-4.538 6.577a1.334 1.334 0 0 1-.554-1.092c0-.485.227-.89.685-1.223.454-.327 1.02-.491 1.7-.491.933 0 1.66.208 2.182.623 0 .703-.277 1.316-.832 1.838-.498.5-1.175.78-1.88.78-.47.01-.93-.144-1.3-.435Z" fill="#14203C"/><path d="M45.995 5.155 40.41 18h-1.726l2.072-4.494-3.672-8.35h1.818l2.654 6.404h.037l2.58-6.405h1.822ZM15.363 7.657c0-.51-.043-1.02-.13-1.522H8.18v2.883h4.04a3.465 3.465 0 0 1-1.494 2.274v1.872h2.412c1.412-1.303 2.225-3.23 2.225-5.507Z" fill="#14203C"/><path d="M8.184 14.974c2.018 0 3.718-.664 4.957-1.807l-2.411-1.872c-.671.456-1.536.716-2.546.716-1.952 0-3.608-1.316-4.2-3.09H1.5v1.928a7.48 7.48 0 0 0 6.684 4.125Z" fill="#14203C"/><path d="M3.984 8.918a4.488 4.488 0 0 1 0-2.865V4.125H1.5a7.49 7.49 0 0 0 0 6.722l2.484-1.929Z" fill="#14203C"/><path d="M8.184 2.963a4.06 4.06 0 0 1 2.869 1.123l2.135-2.136A7.184 7.184 0 0 0 8.184 0 7.48 7.48 0 0 0 1.5 4.125l2.484 1.928c.593-1.773 2.249-3.09 4.2-3.09Z" fill="#14203C"/></g></g><defs><clipPath id="a"><path fill="#fff" d="M0 0h46v18H0z"/></clipPath></defs></svg>