<svg width="285" height="442" fill="none" xmlns="http://www.w3.org/2000/svg"><g clip-path="url(#a)" fill-rule="evenodd" clip-rule="evenodd"><path d="M142.466 395.443c78.699 0 142.495 13.895 142.495 31.021 0 20.878-285 20.552-285 0 .04-17.126 63.837-31.021 142.505-31.021Z" fill="#D9D9D9"/><path d="M64.034 102.238c-.612-1.916-1.233-3.823-1.844-5.74-1.14-3.608-2.271-7.237-3.148-10.938-.62-2.579-1.415-6.208-.876-8.818C60.57 65.04 70.39 53.918 79.456 46.608a84.536 84.536 0 0 1 8.006-5.719 31.553 31.553 0 0 1-.153-3.119 31.452 31.452 0 0 1 1.67-10.133c2.822-8.38 8.914-15.18 16.299-19.848a54.145 54.145 0 0 1 55.953 0c7.405 4.669 13.496 11.468 16.297 19.848a31.715 31.715 0 0 1 1.671 10.133 30.717 30.717 0 0 1-.194 3.497 81.91 81.91 0 0 1 10.951 9.95c6.59 7.135 13.099 16.85 14.973 26.555.148 1.047.179 2.107.092 3.16-.061 1.55-.183 3.11-.316 4.659a183.9 183.9 0 0 1-1.548 12.743 27.392 27.392 0 0 1-.397 1.967c-.102.469-.214.948-.336 1.427.941.067 1.875.218 2.791.449 4.96 1.244 9.167 4.078 11.327 8.818 3.239 7.136.631 15.893-3.637 22.03-4.441 6.391-11.775 11.529-19.873 10.642a20.578 20.578 0 0 1-4.187-.887 43.761 43.761 0 0 1-9.89 13.345 32.206 32.206 0 0 1-5.236 3.822c-5.48 3.201-11.684 4.741-17.928 5.566a186.222 186.222 0 0 1-20.24 1.152c-20.27.469-46.164-1.733-56.167-22.519a72.67 72.67 0 0 1-1.11-2.395 18.814 18.814 0 0 1-5.47 1.386 16.56 16.56 0 0 1-4.38-.102c-6.193-1.019-11.49-5.229-14.994-10.265-7.538-10.837-7.436-26.322 7.517-30.073a15.254 15.254 0 0 1 3.087-.459Z" fill="#0F0E0E"/><path d="M204.919 103.522c4.553 1.142 8.424 3.67 10.41 8.043 3.056 6.677.458 14.945-3.514 20.664-4.156 5.963-11.001 10.887-18.58 10.051-4.91-.54-9.29-2.579-11.113-7.452a18.362 18.362 0 0 1-.744-8.267c1.09-11.03 10.625-26.281 23.541-23.039Z" fill="#0F0E0E"/><path d="M204.419 105.55c20.719 5.199 5.949 36.516-10.96 34.661-9.87-1.091-10.553-7.901-10.013-13.436.978-9.838 9.514-24.099 20.973-21.225Z" fill="#E9BC9D"/><path d="M192.582 120.445c-1.681 1.264-3.168 6.534-3.168 6.534s5.521-2.467 7.314-.133c1.793 2.335-1.243 6.555-1.243 6.555s10.96-.622 13.476-9.694c2.516-9.073-3.259-10.296-5.021-10.46-1.763-.163-8.109-.244-11.358 7.198Z" fill="#D17F59"/><path d="M61.342 104.042c12.57-3.16 21.85 11.662 22.908 22.427a23.41 23.41 0 0 1 .123 3.589c-.316 7.136-4.584 10.938-11.674 11.723-1.336.14-2.685.106-4.013-.102-5.806-.907-10.787-4.964-14.067-9.684-6.968-10.021-7.253-24.446 6.723-27.953Z" fill="#0F0E0E"/><path d="M61.837 106.07c-20.097 5.098-5.765 35.415 10.625 33.641 9.575-1.019 10.247-7.655 9.707-13.028-.937-9.572-9.218-23.406-20.331-20.613Z" fill="#E9BC9D"/><path d="M73.63 120.445c1.68 1.264 3.167 6.534 3.167 6.534s-5.52-2.467-7.313-.133c-1.793 2.335 1.242 6.555 1.242 6.555s-10.96-.622-13.476-9.694c-2.516-9.073 3.26-10.296 5.022-10.46 1.762-.163 8.108-.244 11.357 7.198Z" fill="#D17F59"/><path d="M57.92 117.631c1.67-4.078 4.31-5.393 8.822-2.926 3.055 1.641 4.818 4.394 6.223 7.421 1.508 3.263.214 1.947 2.924 3.701.54-1.937.621-2.039-.591-4.751-5.541-12.508-19.13-10.194-17.378-3.445Zm17.969 8.155.53.347c-.184-.092-.367-.163-.55-.245v-.102h.02Zm0 .102c-.153.54-.336 1.223-.54 2.141-2.455-1.336-6.59-2.895-6.203 1.651.193 2.294 1.823 2.793 2.505 3.884-1.517.174-3.422-2.171-3.748-3.69-1.263-5.719 3.983-5.556 7.935-3.945l.05-.041Zm132.601-8.41c-1.731-4.261-4.441-5.566-9.096-3.059-3.056 1.703-4.961 4.527-6.417 7.666-1.559 3.354-.224 2.039-3.056 3.803-.55-2.039-.632-2.039.611-4.904 5.715-12.895 19.721-10.52 17.918-3.537l.04.031Zm-18.528 8.44-.54.357.57-.244v-.113h-.03Zm0 .113c.153.56.336 1.264.55 2.202 2.526-1.377 6.794-2.977 6.397 1.702-.194 2.375-1.885 2.885-2.588 4.017 1.569.173 3.535-2.243 3.861-3.813 1.324-5.984-4.125-5.77-8.19-4.108h-.03ZM133.296 1.396c24.62 0 44.575 16.311 44.575 36.373 0 20.063-19.975 36.373-44.575 36.373S88.711 57.832 88.711 37.77s19.945-36.373 44.585-36.373Z" fill="#0F0E0E"/><path d="M133.294 3.486c-23.429 0-42.497 15.292-42.497 34.283 0 18.992 19.028 34.283 42.497 34.283S175.77 56.7 175.77 37.77c0-18.93-19.048-34.283-42.476-34.283Z" fill="#C5C5C5"/><path d="M133.297 3.486c-16.533 0-30.854 7.605-37.883 18.727 7.029 4.618 21.391 7.788 37.883 7.788 16.491 0 30.843-3.17 37.872-7.788-7.049-11.122-21.371-18.727-37.872-18.727Z" fill="#fff"/><path d="M131.833 3.507c-.723 0-1.436.05-2.149.102l-1.833 1.61c-5.297 4.68-8.088 11.448-9.423 18.35-2.231 11.51-.346 23.447.499 26.23-.88.088-1.767.088-2.648 0a21.458 21.458 0 0 1-6.407-1.631c-4.421-1.917-8.485-5.79-7.375-13.029a47.732 47.732 0 0 1 10.482-22.62 41.444 41.444 0 0 1 8.098-7.636 45.23 45.23 0 0 0-3.576 1.02 45.231 45.231 0 0 0-5.592 5.647 49.182 49.182 0 0 0-10.797 23.304c-1.233 8.053 3.28 12.366 8.2 14.506a22.988 22.988 0 0 0 6.824 1.733c2.119.194 3.739-.081 4.075-.53a.797.797 0 0 0 0-1.02c-.622-.917-2.893-13.456-.509-25.74 1.283-6.605 3.942-13.1 8.974-17.554a148.193 148.193 0 0 0 3.055-2.742h.102ZM148.671 5.8a56.752 56.752 0 0 0-3.056-.857 53.259 53.259 0 0 1 11.623 13.579 45.694 45.694 0 0 1 6.448 17.962c1.181 9.99 1.018 12.162.937 12.62-1.956.653-14.76 4.231-14.76-13.68a54.062 54.062 0 0 0-10.39-31.602 56.174 56.174 0 0 0-1.884-.184 52.43 52.43 0 0 1 10.878 31.827c0 21.407 16.838 14.914 16.889 14.893a.703.703 0 0 0 .448-.744c.184-1.02.326-4.21-.733-13.252a47.261 47.261 0 0 0-6.641-18.543 55.317 55.317 0 0 0-9.759-12.02Z" fill="#AFB0B0"/><path d="M80.682 143.524c-13.242-27.422-10.665-60.523 5.093-86.335 4.92-8.053 13.242-13.364 22.002-16.453a71.448 71.448 0 0 1 30.702-3.384c16.124 1.671 32.595 8.787 41.59 22.865a91.337 91.337 0 0 1 11.286 26.026 94 94 0 0 1 3.056 26.749c-.479 14.792-4.961 31.868-16.349 42.103a30.515 30.515 0 0 1-5.011 3.649c-5.307 3.058-11.358 4.598-17.409 5.393a189.065 189.065 0 0 1-20.087 1.142c-19.68.448-45.166-1.57-54.873-21.755Z" fill="#0F0E0E"/><path d="M82.563 142.637c8.821 18.35 31.761 21.041 52.968 20.552 16.39-.378 31.17-.673 41.163-9.654 19.211-17.249 22.002-60.33 1.65-92.166-19.109-29.9-75.195-28.544-90.77-3.058-15.39 25.149-17.927 57.495-5.011 84.326Z" fill="#D17F59"/><path d="M192.379 107.579a91.327 91.327 0 0 0-14.016-46.21c-19.109-29.9-75.195-28.544-90.77-3.058a91.372 91.372 0 0 0-13.241 45.048 74.914 74.914 0 0 0 8.26 32.234c8.822 17.085 31.761 19.603 52.969 19.155 16.389-.357 31.17-.632 41.162-8.992 9.606-8.104 15.117-22.294 15.636-38.177Z" fill="#E9BC9D"/><path d="M74.848 119.537c4.777-10.317 12.508-20.99 27.228-22.652 14.719-1.661 23.744-4.608 27.971-8.655l4.237-4.077a34.287 34.287 0 0 0 17.48 10.867c11.408 2.946 15.452.927 23.55 4.975 8.098 4.047 16.746 15.658 16.746 15.658s-15.819-38.473-26.168-46.21c-10.349-7.738-34.633-16.943-48.578-11.418-13.945 5.525-48.914 11.417-42.466 61.512Z" fill="#D17F59"/><path d="M110.945 88.74c3.728-1.162 5.267 5.016 2.445 6.81-2.822 1.794-12.59 3.211-13.354.387-.764-2.823 5.134-7.197 10.909-7.197Zm45.608 0c-3.718-1.162-5.256 5.016-2.435 6.81 2.822 1.794 12.58 3.211 13.354.387.775-2.823-5.133-7.197-10.919-7.197Z" fill="#fff"/><path d="M134.695 78.282a29.396 29.396 0 0 1-5.257 7.33 30.21 30.21 0 0 1-11.204 7.35c-1.671.59-3.566.733-4.88-.704-1.538-1.703-.804-4.006.112-5.882-1.13.367-2.271.713-3.412 1.02a77.895 77.895 0 0 0-9.504 3.353c-8.668 3.905-14.495 11.295-19.282 19.369-.122.245-.224.51-.336.765a101.874 101.874 0 0 0-2.72 6.911c-.611 1.744-1.834 5.301-1.711 7.136v.571l-.56.153c-1.549.398-2.975-2.232-3.566-3.303a62.928 62.928 0 0 1-3.25-7.472 187.353 187.353 0 0 1-3.92-11.132c-.805-2.488-1.61-4.965-2.405-7.452-1.14-3.599-2.261-7.218-3.137-10.888-.59-2.467-1.375-6.045-.866-8.522 2.373-11.53 12.101-22.53 21.045-29.736 7.864-6.331 18.131-12.233 28.165-13.987 6.723-1.172 14.108-1.274 20.535 1.254a21.965 21.965 0 0 1 5.562 3.089 30.694 30.694 0 0 1 7.731-3.762c6.173-1.947 12.794-1.794 19.099-.622 10.461 1.947 21.503 10.827 28.522 18.523 6.498 7.136 12.946 16.647 14.8 26.22.134.993.162 1.998.082 2.997-.061 1.55-.184 3.058-.316 4.628a185.79 185.79 0 0 1-1.538 12.702 30.548 30.548 0 0 1-.387 1.906c-.235 1.02-.479 2.039-.744 3.059-.672 2.65-1.416 5.29-2.231 7.9a68.78 68.78 0 0 1-3.28 8.93c-.57 1.213-2.098 4.496-3.901 3.772l-.346-.143-.072-.377c-.417-2.171-.794-4.332-1.273-6.494a30.632 30.632 0 0 0-1.772-5.933c-2.903-6.188-7.283-11.968-13.191-15.536a50.458 50.458 0 0 0-10.044-4.72c-2.73-.927-5.541-2.558-8.302-3.384l-.835-.255c.764 1.743 1.222 3.762-.153 5.291-1.375 1.53-3.209 1.295-4.879.703a30.115 30.115 0 0 1-10.645-6.88 29.368 29.368 0 0 1-5.734-7.748Z" fill="#0F0E0E"/><path d="M134.047 38.401a30.187 30.187 0 0 1 7.996-3.955c6.112-1.917 12.56-1.743 18.753-.591 10.319 1.916 21.259 10.754 28.175 18.35 6.397 6.972 12.814 16.453 14.638 25.882.117.94.137 1.89.061 2.834 0 1.54-.173 3.058-.306 4.598-.356 4.23-.876 8.46-1.528 12.65-.529 3.385-6.437 26.271-9.595 24.997-.581-3.007-1.66-9.542-3.056-12.59-2.964-6.31-7.436-12.233-13.466-15.842a51.21 51.21 0 0 0-10.186-4.78c-2.751-.928-5.552-1.58-8.322-2.417a43.724 43.724 0 0 1-2.415-.795c.051.082.092.163.133.245.876 1.651 2.037 4.128.57 5.79-1.1 1.213-2.75 1.02-4.135.51a29.465 29.465 0 0 1-10.441-6.728 28.543 28.543 0 0 1-6.204-8.93 28.446 28.446 0 0 1-5.755 8.481 29.636 29.636 0 0 1-10.889 7.136c-1.385.49-3.056.703-4.135-.51-1.539-1.702-.245-4.291.662-5.974l.377-.672c-1.671.59-3.372 1.11-5.094 1.63a75.852 75.852 0 0 0-9.585 3.375c-8.79 3.955-14.719 10.459-19.608 18.655-.122.214-5.093 11.52-4.849 15.149-2.954.765-9.88-21.143-9.942-21.357-.804-2.487-1.61-4.965-2.404-7.452-1.13-3.568-2.25-7.197-3.127-10.836-.54-2.304-1.334-5.892-.855-8.227 2.332-11.367 12.01-22.254 20.81-29.329 7.752-6.239 17.938-12.11 27.839-13.843 6.59-1.152 13.863-1.264 20.169 1.223a20.828 20.828 0 0 1 5.714 3.323Z" fill="#0F0E0E"/><path d="M134.192 72.338c-2.038 9.807-10.299 16.597-16.848 18.931-4.289 1.53-1.243-3.507 3.28-10.194-11.297 7.299-27.259 3.364-41.764 27.585-4.38 7.34-3.433 8.982-4.176 10.837-.57 1.437-3.566-6.402-6.835-16.606-2.964-9.257-7.13-21.47-6.326-25.486 3.657-17.81 28.083-38.249 46.959-41.541 17.785-3.11 24.559 4.332 25.282 5.189 3.748-2.6 11.021-8.084 26.616-5.19 15.595 2.896 37.689 24.722 41.142 42.53.54 2.825-2.719 36.843-8.149 38.097-1.242.285-.702-3.293-2.403-6.892-2.404-5.097-6.856-12.233-14.261-16.739-12.631-7.635-18.814-5.566-27.676-11.335 4.339 6.442 7.13 11.213 2.954 9.704-6.265-2.232-14.047-8.542-16.543-17.656a38.613 38.613 0 0 1-.672-2.865h-.326c-.03.5-.132 1.04-.254 1.632Z" fill="#C5C5C5"/><path d="M121.352 146.939c13.028 6.32 25.852-.357 25.852-.357-6.713 12.631-21.177 12.61-25.852.357Z" fill="#D17F59"/><path d="M121.07 56.363c6.203-3.18 6.906-2.375 4.788 0-2.425 2.742-8.557 7.544-14.383 10.816-.764.428-1.518.826-2.251 1.193l-.296.143c-7.426 3.588-2.383 3.833 4.329 1.733a71.328 71.328 0 0 0 3.056-1.02 29.77 29.77 0 0 0 7.477-4.2c4.828-3.863 7.13-6.728 8.149-8.45.39-.571.686-1.201.876-1.866.25.695.539 1.376.866 2.039a26.494 26.494 0 0 0 9.809 11.213c5.806 3.507 1.803-4.679-.744-9.287-.916-1.672-1.65-2.874-1.65-2.874a129.317 129.317 0 0 0 19.476 8.206c.815.279 1.64.544 2.475.795a102.974 102.974 0 0 0 19.629 4.17c.805.091 1.62.163 2.435.214 3.17.229 6.353.229 9.524 0a37.898 37.898 0 0 0 3.535-.418c-4.533-9.175-12.55-18.268-21.015-24.65a56.172 56.172 0 0 0-1.854-1.346c-5.093-3.578-10.277-6.116-14.882-6.942-9.717-1.804-16.196-.357-20.606 1.621a26.673 26.673 0 0 0-3.311 1.764c-1.069.662-1.956 1.294-2.699 1.804a12.04 12.04 0 0 0-2.333-2.039 20.035 20.035 0 0 0-3.83-2.039c-4.013-1.59-10.186-2.69-19.119-1.131a53.522 53.522 0 0 0-17.317 6.79 52.09 52.09 0 0 0-1.905 1.151c-8.841 5.525-17.072 13.252-22.338 21.275 4.63.941 9.36 1.284 14.077 1.02.795 0 1.59-.082 2.384-.143a117.18 117.18 0 0 0 17.836-2.793c.845-.204 1.701-.408 2.526-.622 1.65-.418 3.249-.867 4.788-1.325a87.585 87.585 0 0 0 9.452-3.364c1.09-.5 2.099-.928 3.046-1.438Z" fill="#fff"/><path d="M107.341 86.488a1.02 1.02 0 0 1 1.324.642c.194.54-1.324 1.02-1.864 1.203-4.848 1.692-9.167 3.629-14.678 4.964a56.672 56.672 0 0 1-15.768 1.907 1.02 1.02 0 0 1-.864-1.462 1.021 1.021 0 0 1 .976-.577 54.601 54.601 0 0 0 15.177-1.855c5.399-1.346 10.889-3.14 15.697-4.822Zm53.46 1.682a1.02 1.02 0 0 1-.499-1.387c.245-.52 1.11 0 1.63.234 4.074 1.907 10.807 3.262 17.439 4.17 5.093.683 9.85.693 12.865-.622a1.016 1.016 0 0 1 1.365.54 1.008 1.008 0 0 1 .02.798 1.017 1.017 0 0 1-.56.568c-3.402 1.478-8.587 1.509-13.965.775a70.892 70.892 0 0 1-18.295-5.077Z" fill="#0F0E0E"/><path d="M127.376 72.664a1.04 1.04 0 1 1 1.569 1.366 48.095 48.095 0 0 1-12.397 10.103 70.251 70.251 0 0 1-15.931 6.585c-3.932 1.121-5.684.765-6.04-.5-.55-1.926 4.023-5.81 7.945-9.174a35.909 35.909 0 0 0 4.746-4.384 1.053 1.053 0 0 1 1.427-.407 1.052 1.052 0 0 1 .407 1.427c-.54 1.02-2.76 2.864-5.236 4.974-3.453 2.936-7.466 6.351-7.283 6.984 0 0 1.019-.225 3.463-.938a68.732 68.732 0 0 0 15.463-6.341 46.412 46.412 0 0 0 11.867-9.695Zm14.945 2.956a1.04 1.04 0 1 1 1.579-1.356 43.465 43.465 0 0 0 11.979 9.583 65.16 65.16 0 0 0 15.748 6.025c1.148.339 2.314.611 3.494.815.173-.662-3.83-3.935-7.263-6.738-2.486-2.039-4.706-3.843-5.246-4.822a1.043 1.043 0 0 1-.093-.794 1.039 1.039 0 0 1 .883-.754 1.045 1.045 0 0 1 1.033.529 34.809 34.809 0 0 0 4.727 4.21c3.921 3.2 8.475 6.922 7.986 8.869-.326 1.284-2.037 1.702-6.03.703a67.697 67.697 0 0 1-16.237-6.228 45.587 45.587 0 0 1-12.56-10.042Zm12.203 22.958c3.484 0 6.305 3.874 6.305 8.635 0 4.76-2.821 8.634-6.305 8.634-3.484 0-6.305-3.864-6.305-8.634 0-4.771 2.821-8.635 6.305-8.635Z" fill="#0F0E0E"/><path d="M100.886 121.617c5.369 0 9.728 2.691 9.728 6.025 0 3.333-4.359 6.015-9.728 6.015-5.368 0-9.738-2.692-9.738-6.015 0-3.323 4.36-6.025 9.738-6.025Zm64.907 0c5.378 0 9.738 2.691 9.738 6.025 0 3.333-4.36 6.015-9.738 6.015-5.379 0-9.738-2.692-9.738-6.015 0-3.323 4.359-6.025 9.738-6.025Z" fill="#D17F59"/><path d="M158.763 100.464a1.936 1.936 0 1 1 .002 3.872 1.936 1.936 0 0 1-.002-3.872Z" fill="#fff"/><path d="M112.032 98.578c-3.484 0-6.305 3.874-6.305 8.635 0 4.76 2.821 8.634 6.305 8.634 3.484 0 6.295-3.864 6.295-8.634 0-4.771-2.822-8.635-6.295-8.635Z" fill="#0F0E0E"/><path d="M107.771 100.464a1.933 1.933 0 0 0-1.898 2.315 1.939 1.939 0 0 0 2.639 1.411 1.935 1.935 0 0 0-.741-3.726Z" fill="#fff"/><path d="M120.348 138.366a1.046 1.046 0 0 1 .619-1.827c.276-.018.548.075.756.257 4.859 4.282 11.531 4.19 11.541 4.19 0 0 6.682.092 11.551-4.19a1.049 1.049 0 0 1 .754-.253 1.033 1.033 0 0 1 .966 1.11 1.056 1.056 0 0 1-.355.713c-5.409 4.75-12.753 4.699-12.916 4.699-.163 0-7.497.051-12.916-4.699Z" fill="#0F0E0E"/><path d="M133.479 130.109c8.312 0 11.521-6.484 11.521-2.885s-4.971 8.665-11.622 8.665c-6.652 0-11.745-5.25-11.745-8.848 0-3.599 3.514 3.068 11.846 3.068Z" fill="#D17F59"/><path d="M124.645 120.077c-3.616 3.13-3.402 4.802 1.385 7.493 6.367 3.578 11.297 2.793 17.317-1.376 2.567-1.784.122-4.71-1.436-6.117.708.065 1.37.384 1.864.897 5.836 5.322-4.757 10.011-8.047 10.776-7.141 1.671-20.984-8.197-11.083-11.673Z" fill="#0F0E0E"/><path d="M110.934 143.932a1.037 1.037 0 0 1-1.232-.805 1.043 1.043 0 0 1 .805-1.234 7.604 7.604 0 0 0 4.074-2.681 7.58 7.58 0 0 0 1.447-4.699 1.02 1.02 0 1 1 2.037-.153 9.31 9.31 0 0 1-7.212 9.582l.081-.01Zm45.423-2.039a1.039 1.039 0 0 1 .804 1.233 1.04 1.04 0 0 1-1.232.806 9.31 9.31 0 0 1-7.212-9.583 1.011 1.011 0 0 1 .352-.698 1.024 1.024 0 0 1 1.441.108 1.023 1.023 0 0 1 .244.743 7.583 7.583 0 0 0 1.447 4.7 7.56 7.56 0 0 0 4.156 2.691Zm-18.422-20.796a1.936 1.936 0 1 1 .002 3.872 1.936 1.936 0 0 1-.002-3.872Z" fill="#D17F59"/><path d="M113.057 112.544a6.112 6.112 0 0 0-6.007 4.911 6.121 6.121 0 0 0 3.644 6.853 6.106 6.106 0 0 0 7.425-2.243 6.117 6.117 0 0 0-5.062-9.521Zm-45.9-8.155c4.605-.673 11.878.785 18.988 2.967a103.22 103.22 0 0 1 18.182 7.38 9.589 9.589 0 0 1 3.533-4.095 9.566 9.566 0 0 1 10.373 0 9.575 9.575 0 0 1 3.533 4.095 33.364 33.364 0 0 1 13.13-1.794c3.79.183 7.365.958 9.738 2.345a9.586 9.586 0 0 1 11.669-5.777 9.584 9.584 0 0 1 6.147 5.542 93.274 93.274 0 0 1 17.917-7.676c6.825-2.182 13.823-3.639 18.254-2.967l-.407 2.753c-3.993-.602-10.533.785-17.011 2.854-7.62 2.437-15.035 5.76-18.071 7.87v.816a9.587 9.587 0 0 1-2.804 6.776 9.572 9.572 0 0 1-13.541 0 9.588 9.588 0 0 1-2.805-6.776v-.479c-1.711-1.479-5.296-2.315-9.259-2.508a29.93 29.93 0 0 0-12.223 1.692c.061.429.092.861.091 1.295a9.59 9.59 0 0 1-6.352 8.966 9.566 9.566 0 0 1-10.592-2.906 9.587 9.587 0 0 1-2.134-7.284c-3.505-2.11-10.767-5.168-18.213-7.452-6.774-2.038-13.62-3.476-17.796-2.864l-.387-2.753.04-.02Zm86.431 8.155a6.11 6.11 0 0 0-6.007 4.911 6.121 6.121 0 0 0 3.644 6.853 6.106 6.106 0 0 0 7.425-2.243 6.117 6.117 0 0 0-.753-7.726 6.047 6.047 0 0 0-4.309-1.795Z" fill="#fff"/><path d="M67.557 108.151a.697.697 0 0 1-.728-.658.692.692 0 0 1 .657-.729 39.704 39.704 0 0 1 15.198 2.447l.214.081c7.68 2.692 20.831 7.819 20.871 7.83a.694.694 0 0 1 .438.683c0 .54.133 8.665 8.078 9.592.389.041.78.061 1.171.062a7.692 7.692 0 0 0 5.572-2.223 9.33 9.33 0 0 0 2.557-5.617c.053-.467.08-.937.082-1.407a.688.688 0 0 1 .499-.662c.641-.255 6.244-2.386 10.94-2.386a.69.69 0 0 1 .692.694.694.694 0 0 1-.692.693 33.066 33.066 0 0 0-10.054 2.14c0 .367 0 .724-.082 1.081a10.853 10.853 0 0 1-2.913 6.422 9.04 9.04 0 0 1-6.55 2.631 12.39 12.39 0 0 1-1.334-.082c-8.21-.958-9.168-8.522-9.28-10.52-2.322-.898-13.537-5.25-20.372-7.646l-.234-.082a37.942 37.942 0 0 0-14.73-2.344Z" fill="#0F0E0E"/><path d="M198.365 106.825a.702.702 0 0 1 .587.998.688.688 0 0 1-.668.388 36.36 36.36 0 0 0-14.974 2.539l-.448.173c-6.866 2.436-17.072 6.381-19.425 7.299a9.924 9.924 0 0 1-1.141 5.841 8.885 8.885 0 0 1-3.056 3.191 10.246 10.246 0 0 1-4.156 1.458 11.09 11.09 0 0 1-6.815-1.305 9.863 9.863 0 0 1-3.646-3.456 10.743 10.743 0 0 1-1.437-5.27 32.922 32.922 0 0 0-10.064-2.141.69.69 0 0 1-.692-.693.695.695 0 0 1 .692-.694c4.706 0 10.309 2.131 10.94 2.386a.69.69 0 0 1 .51.662 9.492 9.492 0 0 0 1.242 5.026 8.396 8.396 0 0 0 3.128 2.967 9.648 9.648 0 0 0 5.969 1.141 9.01 9.01 0 0 0 3.595-1.253 7.518 7.518 0 0 0 2.598-2.702 8.716 8.716 0 0 0 .927-5.505.706.706 0 0 1 .438-.764s12.223-4.761 19.944-7.503l.428-.153a37.506 37.506 0 0 1 15.524-2.63Zm21.25 289.046.642-.163a3.53 3.53 0 0 1 1.782.051c9.168 2.712 21.116 8.951 23.938 18.839.886 3.058.866 6.372-1.019 9.124-5.022 7.34-19.588 5.24-27.054 3.711a92.382 92.382 0 0 1-13.059-3.67c-4.075-1.489-7.986-3.425-11.908-5.311-2.984-1.448-7.802-3.487-9.84-6.117-1.151-1.478-.662-4.465-.275-6.188a3.8 3.8 0 0 1 .815-1.774c-.132-.621-.265-1.253-.407-1.886a539.958 539.958 0 0 0-.876-3.608 160.958 160.958 0 0 0-1.325-4.965 33.774 33.774 0 0 0-1.079-3.293 660.173 660.173 0 0 1-5.348-13.252 21.643 21.643 0 0 1-13.802 1.815 51.976 51.976 0 0 1-10.024-3.711 29.128 29.128 0 0 0-8.963-2.396 14.654 14.654 0 0 0-3.27 0 3.518 3.518 0 0 1-1.131 0 14.654 14.654 0 0 0-3.27 0 29.226 29.226 0 0 0-8.964 2.396l-1.303.581v57.465c0 2.711-2.038 3.292-4.768 3.517-3.147.275-7.13 0-8.749 0a3.474 3.474 0 0 1-3.474-3.477v-52.857a4830.06 4830.06 0 0 1-4.074 9.94 30.903 30.903 0 0 0-1.08 3.293 117.353 117.353 0 0 0-1.324 4.964c-.153.581-.296 1.183-.438 1.764-.16.74-.28 1.489-.357 2.242-.061.541-.112 1.081-.173 1.621.361.485.605 1.047.713 1.642.377 1.722.866 4.709-.275 6.187-2.037 2.61-6.855 4.649-9.85 6.117a129.498 129.498 0 0 1-11.908 5.311 91.966 91.966 0 0 1-13.059 3.67c-7.456 1.529-22.032 3.629-27.054-3.711-1.874-2.752-1.895-6.014-1.019-9.123 2.812-9.889 14.77-16.128 23.938-18.839a3.47 3.47 0 0 1 1.772-.051l.54.132 1.436-.418a59.394 59.394 0 0 1 2.302-.571c2.384-.54 4.727-1.274 7.13-1.855a17.892 17.892 0 0 0-.447-1.804 156.672 156.672 0 0 1-4.533-20.46 11.123 11.123 0 0 1-4.075-1.886 34.058 34.058 0 0 1-3.697-3.476 19.624 19.624 0 0 0-4.299-3.252 6.278 6.278 0 0 0-5.43-.836 18.114 18.114 0 0 1-5.327.795 17.738 17.738 0 0 1-8.087-2.61c-3.331-1.886-6.296-4.72-6.336-8.807-.051-4.904 4.308-9.083 8.149-12.325a248.248 248.248 0 0 1 4.573-32.183c3.127-15.495 6.805-30.929 11.287-46.119a27.73 27.73 0 0 1-9.545-.346 16.892 16.892 0 0 1-8.577-4.731 3.691 3.691 0 0 1-.438-.55c-3.056-3.058-3.982-8.431-4.268-12.457a53.771 53.771 0 0 1 .398-11.071 5.401 5.401 0 0 1-2.13-1.02c-1.914-1.539-.763-4.404-.142-6.3 6.112-18.461 15.208-37.453 31.343-49.146a69.247 69.247 0 0 1 15.992-8.481c.245-.214.504-.412.775-.592v-.122c.018-1.183.134-2.363.346-3.527a2.039 2.039 0 0 0 0-.439 5.561 5.561 0 0 0-.285-1.345c0-.102-.072-.194-.102-.296-.073-.147-.13-.3-.173-.459-.245-.632-.53-1.274-.774-1.906a7.824 7.824 0 0 1-.56-5.525c.967-2.824 3.768-3.833 6.468-4.2a3.439 3.439 0 0 1 2.108.377c13.395 7.136 31.506 9.175 46.51 8.849l3.545-.123a15.048 15.048 0 0 1 3.29-3.221 8.011 8.011 0 0 1 5.093-1.764c1.157.072 2.317.072 3.474 0a65.333 65.333 0 0 0 4.696-.418 38.3 38.3 0 0 0 7.507-1.468 14.064 14.064 0 0 1 10.094 0c.347.143.673.296 1.019.459a72.787 72.787 0 0 0 8.149-3.476 3.346 3.346 0 0 1 2.037-.347c2.71.367 5.368 1.448 6.479 4.159 1.181 2.875-.153 5.801-.948 8.564a7.522 7.522 0 0 0-.387 2.436c1.691.489 3.372 1.019 5.093 1.499 10.818 3.343 19.68 7.411 28.145 15.118 12.335 11.213 20.882 27.524 27.309 42.744.422 1.22.561 2.52.408 3.802-.316 1.02-1.579 1.519-2.516 1.835a3.518 3.518 0 0 1-.469.153c.204 1.183.397 2.365.581 3.558.595 3.878.759 7.809.489 11.723-.286 4.027-1.213 9.369-4.258 12.458a4.634 4.634 0 0 1-.438.55 16.932 16.932 0 0 1-8.608 4.73 30.35 30.35 0 0 1-12.6-.143c4.553 15.343 8.261 30.94 11.439 46.608a253.848 253.848 0 0 1 4.574 32.194l1.161 1.019c3.198 2.844 6.988 6.698 6.937 11.295 0 4.078-3.005 6.922-6.326 8.808a17.83 17.83 0 0 1-8.098 2.61 18.179 18.179 0 0 1-5.327-.795 6.252 6.252 0 0 0-5.419.835 19.176 19.176 0 0 0-4.299 3.252l-.316.306a156.892 156.892 0 0 1-5.225 25.486 21.12 21.12 0 0 0-.448 1.804c2.383.581 4.726 1.315 7.13 1.855.774.174 1.538.367 2.302.571l1.518.428Z" fill="#0F0E0E"/><path d="M240.73 218.227c-4.074-1.264-9.167-1.08-13.405-.652-3.946.419-7.864 1.07-11.734 1.947-1.783.398-3.606.826-5.358 1.325a2.036 2.036 0 0 0-1.471 2.389c.071.338.226.653.452.914a294.321 294.321 0 0 0 13.242 15.597 102.474 102.474 0 0 0 9.86 9.644c2.109 1.723 3.616 6.82 6.509 5.383 6.764-3.385 6.173-18.003 5.195-24.314-.54-3.557-1.212-7.085-1.854-10.612a2.04 2.04 0 0 0-1.436-1.621Z" fill="#0F0E0E"/><path d="M240.123 220.215c1.976 10.887 3.962 28.39-1.314 31.031-5.277 2.64-28.012-28.391-28.012-28.391s19.771-5.607 29.326-2.64Z" fill="#D17F59"/><path d="M207.077 394.097c.438.092.968.174 1.253.245 2.384.581 4.747 1.325 7.131 1.866.754.173 1.497.356 2.231.56 8.77 2.406 20.902 8.563 23.601 18.044.845 2.967 1.08 6.392-1.1 8.859-2.557 2.895-7.181 2.987-10.726 2.65a71.775 71.775 0 0 1-13.996-3.16c-3.596-1.121-7.13-2.375-10.696-3.67a542.16 542.16 0 0 1-6.784-2.518c-1.67-.642-3.341-1.305-4.96-2.039-2.201-1.019-4.564-2.283-6.02-4.271a7.133 7.133 0 0 1-.836-1.417 11.669 11.669 0 0 1-.692-2.63 94.7 94.7 0 0 0-.917-4.414c-.275-1.213-.57-2.426-.876-3.629a142.269 142.269 0 0 0-1.334-5.016 33.085 33.085 0 0 0-1.131-3.435 894.573 894.573 0 0 1-5.47-13.559 1459.876 1459.876 0 0 1-14.414-38.095 2.053 2.053 0 0 1 .069-1.634 2.044 2.044 0 0 1 1.245-1.058l46.786-15.169a2.08 2.08 0 0 1 1.724.204 2.079 2.079 0 0 1 .975 1.438 156.374 156.374 0 0 1-4.37 68.556 23.094 23.094 0 0 0-.693 3.292Z" fill="#0F0E0E"/><path d="M210.094 322.585c4.38 25.975.662 50.726-4.319 67.618a25.306 25.306 0 0 0-.836 4.17c-.193 1.671 1.101 1.559 2.904 2.038 2.241.551 5.266 1.448 7.13 1.876 11.307 2.559 22.043 9.267 24.284 17.137 4.38 15.403-19.354 7.431-33.788 2.15-10.441-3.822-14.882-5.494-16.817-8.155-1.172-1.59-.795-2.212-2.038-7.686a112.674 112.674 0 0 0-3.402-12.427c-9.096-21.897-19.853-51.562-19.853-51.562l46.735-15.159Z" fill="#E9BC9D"/><path d="M95.992 411.407a9.55 9.55 0 0 1-2.75 1.927c-1.793.968-3.667 1.845-5.52 2.681a159.627 159.627 0 0 1-16.564 6.34 79.996 79.996 0 0 1-16.573 3.762c-3.952.367-9.442.316-12.152-3.058-1.884-2.365-1.742-5.444-.957-8.206 2.71-9.481 14.83-15.638 23.601-18.044a54.184 54.184 0 0 1 2.23-.561c2.395-.54 4.758-1.284 7.131-1.865.296-.072.825-.153 1.263-.245-.16-1.116-.4-2.22-.713-3.303a156.365 156.365 0 0 1-4.37-68.556 2.085 2.085 0 0 1 .975-1.438 2.083 2.083 0 0 1 1.725-.203l46.785 15.169a2.038 2.038 0 0 1 1.314 2.691 1483.469 1483.469 0 0 1-14.413 38.096 742.008 742.008 0 0 1-5.47 13.558 32.926 32.926 0 0 0-1.131 3.435 125.184 125.184 0 0 0-1.345 5.006c-.142.601-.295 1.193-.438 1.794-.682 2.987-.417 8.716-2.628 11.02Z" fill="#0F0E0E"/><path d="M72.72 322.585c-4.38 25.975-.652 50.726 4.32 67.618.394 1.364.674 2.759.835 4.17.193 1.671-1.1 1.559-2.903 2.038-2.241.551-5.267 1.448-7.13 1.876-11.307 2.559-22.034 9.267-24.285 17.137-6.162 21.642 50.137-3.212 50.931-5.363 1.59-1.457 1.467-7.074 2.21-10.194a93.537 93.537 0 0 1 3.056-10.551c9.097-21.897 19.843-51.562 19.843-51.562L72.72 322.585Z" fill="#E9BC9D"/><path d="M86.443 372.404c4.421 1.224 10.309 5.159 8.587 12.029-1.406 5.648-1.497 15.424-4.736 21.602h.091c.387-.163.785-.306 1.182-.428a11.196 11.196 0 0 1 4.35-.591c.224-1.805.376-3.721.712-5.098a93.598 93.598 0 0 1 3.056-10.551c1.61-3.873 3.27-7.992 4.91-12.141a34.77 34.77 0 0 1-8.149-4.129 71.884 71.884 0 0 0-6.865-4.179 8.45 8.45 0 0 0-3.413-1.02 14.272 14.272 0 0 0-3.34.449c-2.038.428-4.075.846-6.215 1.162-1.347.213-2.71.325-4.074.337.163 1.019.326 2.11.51 3.139 5.775.245 10.175-1.478 13.394-.581Zm90.76 2.101a765.803 765.803 0 0 0 5.969 14.802 112.778 112.778 0 0 1 3.443 12.416c.306 1.295.52 2.324.672 3.15a8.147 8.147 0 0 1 4.228.714l.764.316c-3.178-6.178-3.28-15.862-4.676-21.469-1.721-6.871 4.166-10.806 8.587-12.029 3.26-.908 7.721.856 13.578.469.306-1.795.581-3.619.836-5.495l-.479.367c-3.188 2.345-6.998 2.212-10.747 1.662-2.098-.316-4.135-.734-6.203-1.163a14.41 14.41 0 0 0-3.351-.448 8.454 8.454 0 0 0-3.413 1.019 70.487 70.487 0 0 0-6.855 4.18c-.784.561-1.569 1.04-2.353 1.509Z" fill="#D17F59"/><path d="M181.377 161.354c3.371 1.02 6.774 1.978 10.186 3.058 10.645 3.283 19.272 7.208 27.625 14.813 12.152 11.06 20.647 27.32 26.963 42.255a8.31 8.31 0 0 1 .356 2.864c-.203.683-3.432 1.438-3.443 1.438-.56-.143-1.069-1.876-1.64-2.039a108.256 108.256 0 0 0-6.111-1.224 76.26 76.26 0 0 0-18.458-1.019c-4.37.347-8.464 1.611-12.671 2.722-3.178.836-7.538 1.978-10.553.143a5.684 5.684 0 0 1-1.162-.928l-53.375-54.509 41.763-7.706.52.132Z" fill="#0F0E0E"/><path d="M180.762 163.352c21.992 6.687 42.477 9.348 63.43 58.902 0 .061-13.66-3.966-27.503-2.855-10.135.806-19.089 6.28-22.735 2.559l-50.626-51.705 37.434-6.901Z" fill="#CD591C"/><path d="M38.168 218.227c4.075-1.264 9.168-1.08 13.416-.652 3.946.419 7.864 1.07 11.734 1.947 1.783.398 3.596.826 5.358 1.325a2.042 2.042 0 0 1 1.517 2.378c-.068.342-.222.66-.447.925a277.057 277.057 0 0 1-13.293 15.597 102.35 102.35 0 0 1-9.86 9.644c-2.11 1.723-3.617 6.82-6.51 5.383-6.763-3.385-6.183-18.003-5.205-24.314.55-3.557 1.222-7.085 1.864-10.612a2.04 2.04 0 0 1 1.426-1.621Z" fill="#0F0E0E"/><path d="M38.787 220.215c-1.976 10.887-3.962 28.39 1.314 31.031 5.277 2.64 28.002-28.391 28.002-28.391s-19.761-5.607-29.316-2.64Z" fill="#D17F59"/><path d="M38.91 220.327c-1.14 6.321-2.28 14.853-2.036 21.408.193 4.669 1.11 8.329 3.26 9.399 4.95 2.477 25.964-25.822 27.716-28.187-2.037-.56-19.965-5.341-28.97-2.609l.03-.011Zm-2.291 21.408c-.275-6.606.886-15.199 2.037-21.54v-.082h.082c9.595-2.976 29.336 2.62 29.397 2.641l.194.051-.123.163c-.06.091-22.806 31.123-28.185 28.431-2.24-1.152-3.198-4.913-3.402-9.664Z" fill="#0F0E0E"/><path d="m101.239 160.304-14.373 63.928-1.853-.204c-3.464-.367-7.13-.479-10.604-.561a265.195 265.195 0 0 0-28.593 1.019 21.487 21.487 0 0 0-7.212 2.039c-.774.357-2.037 2.539-2.852 2.895a3.606 3.606 0 0 1-3.596-.652c-1.181-.938-.112-3.527.296-4.771 5.979-18.156 14.963-36.954 30.844-48.453a69.03 69.03 0 0 1 17.52-8.991c5.592-2.039 11.317-3.476 16.99-5.199l3.433-1.05Z" fill="#0F0E0E"/><path d="M98.419 163.352c-21.992 6.687-47.08 9.898-63.98 61.297-1.273 3.864 2.822-1.488 11.205-2.232 24.192-2.121 39.604-.459 39.604-.459l13.17-58.606Z" fill="#CD591C"/><path d="M44.237 335.838h187.518a3.39 3.39 0 0 1 2.241.815c1.069.908 2.149 1.795 3.188 2.732 3.199 2.845 6.988 6.698 6.937 11.296 0 4.077-3.005 6.922-6.326 8.807a17.818 17.818 0 0 1-8.098 2.61 18.113 18.113 0 0 1-5.327-.795 6.244 6.244 0 0 0-5.419.836 19.176 19.176 0 0 0-4.299 3.252 35.024 35.024 0 0 1-3.708 3.476c-3.514 2.589-7.649 2.528-11.775 1.917-2.108-.316-4.197-.745-6.285-1.183a13.692 13.692 0 0 0-3.056-.418 7.226 7.226 0 0 0-2.831.918 64.556 64.556 0 0 0-6.723 4.077c-5.99 3.925-12.224 6.504-19.497 4.975a51.925 51.925 0 0 1-10.023-3.711 29.125 29.125 0 0 0-8.964-2.395 14.535 14.535 0 0 0-3.27 0 3.512 3.512 0 0 1-1.13 0 14.535 14.535 0 0 0-3.27 0 29.196 29.196 0 0 0-8.964 2.395 51.9 51.9 0 0 1-10.023 3.711c-7.253 1.529-13.507-1.019-19.486-4.975a67.052 67.052 0 0 0-6.723-4.077 7.278 7.278 0 0 0-2.842-.918 13.824 13.824 0 0 0-3.056.418c-2.037.438-4.176.867-6.285 1.183-4.125.611-8.26.672-11.775-1.917a34.058 34.058 0 0 1-3.698-3.476 19.624 19.624 0 0 0-4.298-3.252 6.278 6.278 0 0 0-5.43-.836 18.114 18.114 0 0 1-5.327.795 17.738 17.738 0 0 1-8.088-2.61c-3.33-1.885-6.295-4.719-6.336-8.807-.05-5.811 6.112-10.613 10.125-14.028a3.39 3.39 0 0 1 2.323-.815Z" fill="#0F0E0E"/><path d="M44.236 337.214h187.518c.496-.009.976.169 1.345.499 1.019.887 2.129 1.774 3.158 2.702 2.842 2.528 6.519 6.116 6.468 10.194 0 3.558-2.75 5.984-5.623 7.615a16.511 16.511 0 0 1-7.446 2.436 16.824 16.824 0 0 1-4.95-.764 7.555 7.555 0 0 0-6.438 1.019 20.635 20.635 0 0 0-4.594 3.466 33.543 33.543 0 0 1-3.555 3.354c-3.188 2.345-6.998 2.212-10.747 1.662-2.098-.316-4.135-.734-6.203-1.162a14.358 14.358 0 0 0-3.351-.449 8.47 8.47 0 0 0-3.413 1.019 70.487 70.487 0 0 0-6.855 4.18c-5.674 3.731-11.582 6.229-18.447 4.781a51.418 51.418 0 0 1-9.748-3.619 30.753 30.753 0 0 0-9.402-2.508 16.468 16.468 0 0 0-3.606 0c-.23.036-.463.036-.693 0a15.958 15.958 0 0 0-3.616 0 30.607 30.607 0 0 0-9.392 2.508 51.742 51.742 0 0 1-9.758 3.619c-6.855 1.448-12.773-1.019-18.437-4.781a71.869 71.869 0 0 0-6.865-4.18 8.463 8.463 0 0 0-3.413-1.019 14.218 14.218 0 0 0-3.34.449c-2.038.428-4.075.846-6.215 1.162-3.748.55-7.558.683-10.746-1.662a34.43 34.43 0 0 1-3.555-3.354 20.64 20.64 0 0 0-4.594-3.466 7.56 7.56 0 0 0-6.438-1.019c-1.6.499-3.264.757-4.94.764a16.513 16.513 0 0 1-7.456-2.436c-2.863-1.631-5.593-4.078-5.623-7.615-.051-5.179 5.959-9.848 9.626-12.937a2.035 2.035 0 0 1 1.344-.458Z" fill="#0F0E0E"/><path d="M44.24 339.313c-5.858 4.945-14.19 11.54-4.32 17.147 9.87 5.607 10.492-1.978 18.814 2.63s6.479 9.899 17.582 8.247c11.103-1.651 9.249-3.955 21.279 3.956 12.03 7.91 17.887 4.618 26.219 1.019 8.332-3.598 14.189-2.64 14.189-2.64s5.857-1.02 14.18 2.64c8.322 3.66 14.189 6.922 26.219-1.019 12.03-7.942 10.186-5.607 21.279-3.956 11.093 1.652 9.259-3.629 17.581-8.247s8.944 2.977 18.814-2.63c9.871-5.607 1.548-12.233-4.319-17.147H44.239Z" fill="#E6AD3F"/><path d="M230.062 306.447a249.037 249.037 0 0 1 4.635 33.386c.479 7.666-6.478 9.909-12.611 12.447-8.882 3.66-38.432 7.707-78.169 7.993-44.3.326-99.356-5.617-102.36-16.015a10.204 10.204 0 0 1-.367-3.375 243.577 243.577 0 0 1 4.706-34.436 490.97 490.97 0 0 1 17.836-66.364 269.013 269.013 0 0 1 16.674-38.381c1.702-3.14 1.274 8.155 3.148 5.097 11.205-18.054 29.54-42.816 52.714-42.816 23.173 0 37.77 15.73 48.975 33.784.886 1.437 6.733 5.974 7.293 3.711.561-2.263 1.08-1.591 1.477-.897a244.969 244.969 0 0 1 18.223 39.461 493.406 493.406 0 0 1 17.826 66.405Z" fill="#0F0E0E"/><path d="M228.026 306.865a247.27 247.27 0 0 1 4.604 33.091c1.579 25.23-190.482 22.009-189.352 1.019a244.202 244.202 0 0 1 4.666-34.14c10.848-53.591 25.781-92.941 42.64-118.018.57-.846-10.645-15.169-10.075-15.985 11.205-15.923 33.238 4.628 46.47 2.335 41.396-7.177 78.637 20.969 101.047 131.698Z" fill="#CD591C"/><path d="M116.309 357.266c-39.4-1.702-73.514-7.391-73.014-16.26a244.192 244.192 0 0 1 4.665-34.14 521.71 521.71 0 0 1 14.26-55.691c5.48-.927 9.677-1.356 9.677-1.356-18.162 45.67-19.629 93.787 24.529 103.125 7.639 1.6 14.22 3.048 19.883 4.322Zm111.716-50.4a247.28 247.28 0 0 1 4.605 33.09c.692 11.092-35.998 16.678-77.263 17.687a1491.58 1491.58 0 0 1 21.524-4.699c44.167-9.328 42.69-57.455 24.538-103.125 0 0 5.44.561 12.02 1.774a436.563 436.563 0 0 1 14.576 55.273Z" fill="#A74618"/><path d="M58.46 263.53c2.419-8.373 4.945-16.253 7.58-23.64 8.454-6.657 16.654-11.122 19.384-11.754 5.398-1.234 39.257 2.446 49.077 2.446s69.185 6.392 72.139 7.136c.977.501 1.87 1.151 2.648 1.927 3.036 8.155 5.905 16.848 8.607 26.077-15.707-5.566-43.647-22.601-43.647-22.601l-3.678 1.968-7.13-4.669-32.881-3.191-14.261 13.997-10.054-8.594s-2.21 1.957-14.973 8.838c-10.013 5.444-18.427 10.888-32.81 12.06Zm22.625-87.079c2.037-2.834 16.807 2.518 18.915.112l71.304 4.19 13.242 38.055s-28.226 4.669-27.727 2.946c.306-1.091.621-10.744.805-17.677.377-14.068-11.755-3.863-36.141-7.37-18.386-2.64-44.36-14.822-40.398-20.256Z" fill="#A74618"/><path d="M108.29 433.519v-148.53c0-1.019-.072-2.12-.133-3.17-.631-10.826-.753-21.734 1.783-32.346a48.597 48.597 0 0 1 4.94-12.937 33.278 33.278 0 0 1 4.227-5.8 30.452 30.452 0 0 1 16.298-9.562 29.431 29.431 0 0 1 20.933 3.659 41.8 41.8 0 0 1 7.212 5.312 31.007 31.007 0 0 1 8.047 11.784 44.88 44.88 0 0 1 2.913 15.037 2.037 2.037 0 0 1-.57 1.498 1.957 1.957 0 0 1-1.457.653l-9.992.316a2.057 2.057 0 0 1-.815-.122 2.054 2.054 0 0 1-1.17-1.11 2.055 2.055 0 0 1-.165-.807 30.943 30.943 0 0 0-1.905-10.266 17.156 17.156 0 0 0-4.39-6.494 27.499 27.499 0 0 0-4.757-3.486 15.565 15.565 0 0 0-10.991-2.1 16.3 16.3 0 0 0-8.658 5.179 18.616 18.616 0 0 0-2.404 3.354c-5.888 10.275-5.551 25.954-4.889 37.422.071 1.305.183 2.661.183 3.966v148.53a2.088 2.088 0 0 1-2.088 2.038h-10.064a2.087 2.087 0 0 1-2.088-2.018Z" fill="#0F0E0E"/><path d="M110.378 433.518V284.989c0-.846-.061-1.927-.143-3.293-.54-9.266-1.731-29.828 6.448-44.12a31.617 31.617 0 0 1 3.973-5.444 28.516 28.516 0 0 1 15.147-8.92 27.286 27.286 0 0 1 19.466 3.435 38.942 38.942 0 0 1 6.845 5.098 28.945 28.945 0 0 1 7.517 10.999 42.86 42.86 0 0 1 2.761 14.333l-9.993.316a33.021 33.021 0 0 0-2.037-10.959 19.185 19.185 0 0 0-4.93-7.278 29.785 29.785 0 0 0-5.094-3.752 17.497 17.497 0 0 0-12.457-2.324 18.329 18.329 0 0 0-9.779 5.821 20.838 20.838 0 0 0-2.669 3.711c-6.713 11.733-5.643 30.236-5.164 38.585.102 1.743.183 3.119.183 3.843v148.529l-10.074-.051Z" fill="#7C6052"/><path d="M166.065 258.831a.69.69 0 0 1-.41.646.661.661 0 0 1-.263.057.69.69 0 0 1-.713-.673 24.677 24.677 0 0 0-5.225-14.904 21.59 21.59 0 0 0-12.855-7.757 35.437 35.437 0 0 0-3.667-.52c-4.879-.439-10.186.122-14.566 2.528-4.38 2.406-7.844 6.616-9.168 13.517a31.56 31.56 0 0 0-.458 3.252c-1.712 19.125 0 180.438 0 180.907a.677.677 0 0 1-.419.64.684.684 0 0 1-.264.053.693.693 0 0 1-.703-.683c0-.469-1.711-161.854 0-181.039.097-1.139.253-2.272.469-3.395 1.446-7.37 5.205-11.896 9.901-14.475 4.696-2.58 10.186-3.15 15.351-2.692a39.41 39.41 0 0 1 3.809.541 22.952 22.952 0 0 1 13.67 8.267 25.927 25.927 0 0 1 5.511 15.73ZM79.92 159.325a1.654 1.654 0 0 1-.143-.397c-.855-2.233-2.19-4.557-1.355-6.993.836-2.437 3.494-3.405 5.909-3.731a2.778 2.778 0 0 1 1.69.295c13.507 7.218 31.72 9.257 46.857 8.93 15.137-.326 33.431-3.15 47.132-10.082a2.666 2.666 0 0 1 1.629-.275c2.455.326 4.93 1.264 5.939 3.731 1.1 2.671-.234 5.536-1.019 8.155a7.213 7.213 0 0 0-.377 2.896c.204 1.124.316 2.262.337 3.404v.51l.101.061c2.425 1.438 3.576 4.496 3.515 7.208a10.425 10.425 0 0 1-5.205 8.542c-12.58 7.891-36.875 12.631-51.685 12.631-14.811 0-39.105-4.74-51.685-12.631a10.38 10.38 0 0 1-5.205-8.542c-.072-2.712 1.08-5.77 3.504-7.208l.112-.061v-.51c.023-1.142.14-2.281.346-3.404.02-.197.02-.395 0-.592a6.118 6.118 0 0 0-.316-1.529l-.081-.408Z" fill="#0F0E0E"/><path d="m185.834 166.104.469.276c2.2 1.305 3.229 4.128 3.157 6.585a9.686 9.686 0 0 1-4.869 7.972c-12.417 7.788-36.68 12.539-51.297 12.539-14.618 0-38.902-4.74-51.319-12.529a9.707 9.707 0 0 1-4.879-7.972c-.06-2.456.968-5.28 3.168-6.585l.459-.275v-.887a19.94 19.94 0 0 1 .326-3.303c.025-.244.025-.49 0-.734a7.148 7.148 0 0 0-.347-1.713c-.723-2.253-2.455-4.883-1.62-7.299.775-2.263 3.21-2.987 5.348-3.282.432-.058.871.024 1.253.234 13.62 7.258 31.985 9.328 47.203 9.002 15.218-.327 33.686-3.191 47.437-10.195a2.11 2.11 0 0 1 1.223-.204c2.19.296 4.482 1.101 5.388 3.314 1.019 2.426-.316 5.29-1.018 7.645a7.651 7.651 0 0 0-.398 3.201c.196 1.091.305 2.195.326 3.303.021.296 0 .612-.01.907Z" fill="#0F0E0E"/><path d="M84.705 150.956c-7.904 1.08-.764 6.218-1.64 11.315-.876 5.097.723 4.425-1.762 5.903-2.486 1.478-3.8 7.513 1.762 10.999 11.857 7.432 35.744 12.233 50.208 12.233 14.464 0 38.351-4.771 50.208-12.233 5.562-3.486 4.247-9.521 1.752-10.999-2.496-1.478-.876-.806-1.752-5.903-.876-5.097 5.694-11.376-2.211-12.447-24.732 12.519-70.987 14.782-96.565 1.132Z" fill="#E6AD3F"/><path d="M86.164 180.917a60.348 60.348 0 0 0 3.79 1.763c.358-.82.763-1.62 1.212-2.395 1.925-3.477 3.962-7.136 2.353-16.637-.612-3.578-1.02-5.77-.652-7.473.097-.504.258-.993.478-1.457a63.163 63.163 0 0 1-3.89-1.509 9.983 9.983 0 0 0-.683 2.202c-.459 2.416 0 4.893.641 8.92 1.365 8.074-.305 11.081-1.884 13.925-.479.867-.957 1.723-1.365 2.661Zm12.05 4.74a96.62 96.62 0 0 0 4.075 1.172c.377-.9.813-1.776 1.304-2.62 1.935-3.476 3.962-7.135 2.353-16.636-.611-3.579-1.019-5.77-.652-7.463.134-.72.396-1.411.774-2.038a87.75 87.75 0 0 1-4.207-.898c-.3.687-.522 1.405-.662 2.141-.458 2.426 0 4.893.642 8.93 1.365 8.064-.296 11.071-1.885 13.926a26.655 26.655 0 0 0-1.7 3.466l-.042.02Zm14.261 3.517c1.396.255 2.781.5 4.156.724a18.137 18.137 0 0 1 1.599-3.476c1.936-3.477 3.963-7.136 2.353-16.637-.601-3.579-1.018-5.77-.652-7.462a6.763 6.763 0 0 1 1.019-2.366 119.726 119.726 0 0 1-4.492-.356 9.934 9.934 0 0 0-.581 1.947c-.448 2.426 0 4.893.642 8.92 1.365 8.073-.295 11.081-1.874 13.925a20.726 20.726 0 0 0-2.129 4.781h-.041Zm19.507 2.192h1.314c.947 0 1.945 0 2.974-.061-.173-.877-.367-1.723-.56-2.569a42.372 42.372 0 0 1-.795-16.892c.489-3.966.785-6.392.459-8.726a12.07 12.07 0 0 0-.785-2.957c-1.528 0-3.056.072-4.573.072a9.981 9.981 0 0 1 1.242 3.445c.245 1.774 0 4.017-.489 7.666a45.925 45.925 0 0 0 .887 18.299c.132.571.254 1.132.377 1.713l-.051.01Zm17.866-1.468c1.375-.224 2.761-.469 4.156-.724a20.67 20.67 0 0 0-2.119-4.781c-1.578-2.844-3.249-5.852-1.874-13.925.683-4.078 1.09-6.494.632-8.92a10.291 10.291 0 0 0-.897-2.671c-1.5.211-3.008.394-4.522.55a7.262 7.262 0 0 1 1.324 2.896c.326 1.692 0 3.883-.652 7.462-1.609 9.501.428 13.16 2.353 16.637a16.939 16.939 0 0 1 1.599 3.476Zm14.414-3.058c1.365-.367 2.709-.765 4.074-1.173a25.403 25.403 0 0 0-1.701-3.466c-1.579-2.854-3.239-5.861-1.874-13.925.682-4.078 1.09-6.504.631-8.93a10.353 10.353 0 0 0-1.222-3.273c-1.406.367-2.832.704-4.288 1.02a7.595 7.595 0 0 1 1.426 3.058c.316 1.692-.051 3.884-.652 7.462-1.62 9.501.417 13.161 2.343 16.637.495.842.931 1.717 1.303 2.62l-.04-.03Zm12.294-4.149a60.062 60.062 0 0 0 3.8-1.764c-.418-.938-.886-1.794-1.375-2.661-1.579-2.844-3.239-5.851-1.874-13.925.682-4.027 1.089-6.504.641-8.92a10.592 10.592 0 0 0-1.293-3.395c-1.284.53-2.608 1.02-3.973 1.519a6.98 6.98 0 0 1 1.171 2.641c.316 1.702 0 3.894-.651 7.472-1.61 9.491.417 13.161 2.353 16.637.459.769.87 1.566 1.232 2.385l-.031.011Z" fill="#fff"/><path d="M156.805 188.613a141.784 141.784 0 0 0 7.64-1.825c-1.365-9.929-5.643-26.189-19.008-27.382a119.65 119.65 0 0 1-4.726.428 40.233 40.233 0 0 1 15.911 27.3l.183 1.479Z" fill="#D08B3B"/><path d="M78.638 169.305a.705.705 0 0 1 .601-.785.692.692 0 0 1 .774.592c.47 3.374 4.228 6.799 10.706 9.878 6.479 3.078 15.544 5.719 26.749 7.584 17.449 2.895 27.014.551 36.121-1.692 1.415-.347 2.811-.693 4.278-1.019.866-.204 11.683-3.884 20.128-7.616 4.492-2.038 8.261-3.975 9.361-5.382a.693.693 0 0 1 .485-.277.71.71 0 0 1 .533.165.69.69 0 0 1 .112.968c-1.263 1.611-5.225 3.721-9.901 5.791-8.495 3.771-19.486 7.502-20.372 7.706-1.395.316-2.811.663-4.248 1.02-9.249 2.273-18.946 4.659-36.67 1.712-11.347-1.885-20.566-4.587-27.136-7.696-6.957-3.293-10.98-7.095-11.52-10.949Zm2.01-10.133a1.043 1.043 0 0 1-.082-1.151 1.04 1.04 0 0 1 1.416-.389c.118.068.222.158.306.266 4.074 5.24 4.563 6.524 4.563 6.524a1.043 1.043 0 0 1-1.935.775s-.387-1.019-4.268-6.025Zm104.462-6.096a1.046 1.046 0 0 1 1.35-.596 1.043 1.043 0 0 1 .596 1.35c-2.363 6.117-4.462 8.665-4.472 8.676a1.019 1.019 0 0 1-1.467.153 1.024 1.024 0 0 1-.152-1.458s1.915-2.335 4.145-8.125Z" fill="#0F0E0E"/><path d="M190.736 223.202c-8.781.091-17.592.224-26.372.224a3.576 3.576 0 0 1-1.925-.54c-1.569-1.02-1.926-2.906-2.038-4.618-.026-2.045.097-4.09.367-6.117a151.418 151.418 0 0 0 1.294-16.912c0-16.902-6.234-29.288-22.705-35.558-.581-.224-2.19-.275-2.404-.856-.387-1.019 4.176-6.116 7.68-5.821 1.218.082 2.439.082 3.657 0a67.949 67.949 0 0 0 4.788-.418c2.641-.26 5.25-.775 7.792-1.539a12.695 12.695 0 0 1 9.168 0c3.942 1.6 6.672 5.25 8.709 8.838a113.612 113.612 0 0 1 5.989 13.253 93.166 93.166 0 0 1 3.79 11.54 139.664 139.664 0 0 1 3.85 21.632c.295 2.905.509 5.841.581 8.777.09 2.084.042 4.171-.143 6.249a2.038 2.038 0 0 1-2.078 1.866Z" fill="#0F0E0E"/><path d="M140.133 157.735c40.001 15.22 16.063 63.601 24.233 63.601 4.614 0 26.352-.224 26.352-.224.763-7.299-.968-30.052-7.925-47.158-5.093-12.611-9.789-24.844-21.218-20.919a58.15 58.15 0 0 1-17.082 2.039c-2.792-.204-4.36 2.661-4.36 2.661Z" fill="#E6AD3F"/><path d="M140.133 157.735c40.001 15.219 16.063 63.601 24.233 63.601 4.614 0 26.352-.224 26.352-.224.376-3.629.142-11.102-1.019-19.807-3.861.224-8.76 1.896-14.77 2.65-9.809 1.223-7.355-9.572-10.797-25.047-3.056-13.925-13.742-20.684-22.105-23.151a6.171 6.171 0 0 0-1.894 1.978Z" fill="#D08B3B"/><path d="M147.484 161.324a34.967 34.967 0 0 1 3.759 2.619c.458-.295.835-.581 1.192-.825 1.324-.948 1.915-1.376 5.684-.255 5.959 1.763 9.167-.163 11.857-1.794a15.013 15.013 0 0 1 1.792-1.02c1.661-.693 4.655.948 5.491 1.438a26.822 26.822 0 0 0-3.973-5.689 6.6 6.6 0 0 0-3.117.408c-.812.357-1.595.776-2.343 1.254-1.986 1.203-4.339 2.62-8.536 1.376-5.714-1.702-6.814-.907-9.29.856a19.898 19.898 0 0 1-2.516 1.632Zm8.813 7.686a33.018 33.018 0 0 1 2.394 3.425l.122-.092c1.324-.948 1.915-1.376 5.684-.255 5.959 1.764 9.167-.163 11.857-1.794a14.735 14.735 0 0 1 1.792-1.019 4.29 4.29 0 0 1 2.822.183 118.315 118.315 0 0 0-1.956-4.475 6.168 6.168 0 0 0-2.465.438c-.812.361-1.595.783-2.343 1.264-2.037 1.193-4.329 2.61-8.536 1.366-5.714-1.692-6.814-.907-9.279.857l-.092.102Zm5.601 10.448a40.116 40.116 0 0 1 1.151 4.282l.184-.122c1.324-.948 1.915-1.376 5.674-.255 5.969 1.763 9.167-.163 11.866-1.794a16.518 16.518 0 0 1 1.793-1.02 4.073 4.073 0 0 1 2.638.123 95.616 95.616 0 0 0-1.497-4.404 6.407 6.407 0 0 0-2.74.428c-.812.36-1.595.783-2.343 1.264-1.986 1.193-4.339 2.61-8.536 1.366-4.808-1.386-6.356-1.05-8.19.132Zm2.204 12.621c.081 1.692.101 3.364.061 5.005a24.137 24.137 0 0 0 1.772-1.192c1.324-.948 1.915-1.366 5.674-.255 5.969 1.774 9.167-.163 11.867-1.794.574-.38 1.173-.72 1.793-1.02a4.532 4.532 0 0 1 3.055.265 120.732 120.732 0 0 0-.957-4.455 6.93 6.93 0 0 0-3.677.337c-.811.364-1.594.787-2.343 1.264-1.986 1.193-4.339 2.61-8.536 1.366-5.256-1.509-6.621-.979-8.709.479Zm-.318 11.764c-.163 1.866-.356 3.65-.55 5.312a24.316 24.316 0 0 0 2.659-1.713c1.324-.958 1.915-1.376 5.674-.265 5.969 1.774 9.167-.153 11.867-1.794.574-.379 1.173-.72 1.792-1.02 1.386-.581 3.698.459 4.91 1.112-.163-1.53-.356-3.12-.591-4.751a8.689 8.689 0 0 0-5.918-.214c-.81.365-1.593.787-2.343 1.264-1.986 1.203-4.339 2.61-8.536 1.366-5.46-1.59-6.692-.917-8.964.703Z" fill="#fff"/><path d="M148.121 154.809a.703.703 0 0 1-.499-.846.71.71 0 0 1 .855-.499 48.157 48.157 0 0 0 6.835 1.325c2.248.268 4.512.363 6.774.285a.693.693 0 0 1 .314 1.324.686.686 0 0 1-.263.063 45.965 45.965 0 0 1-6.988-.296 48.12 48.12 0 0 1-7.028-1.356Zm-72.887 28.809a1.02 1.02 0 0 1 1.019-1.019 1.019 1.019 0 0 1 1.019 1.019c.132 6.657 4.38 19.553 4.39 19.593a1.041 1.041 0 0 1-1.46 1.248 1.04 1.04 0 0 1-.516-.605s-4.268-13.253-4.452-20.236Zm117.793-2.253a1.028 1.028 0 0 1 .861-1.177 1.028 1.028 0 0 1 1.176.861c1.019 6.932-.142 19.196-.153 19.227a1.018 1.018 0 0 1-1.13.937 1.012 1.012 0 0 1-.905-.732 1.028 1.028 0 0 1-.032-.409s1.212-12.009.183-18.707Z" fill="#0F0E0E"/><path d="M101.872 232.214c-10.034 5.77-41.764 21.673-56.187 21.408-.785 0-1.528-.051-2.251-.092a44.257 44.257 0 0 1-2.13-.184 9.99 9.99 0 0 0 1.274 1.02c3.32 2.365 8.556 3.242 15.9 1.692a48.888 48.888 0 0 0 2.364-.561l1.11-.316c17.072-4.934 38.27-16.626 42.589-19.063a31.628 31.628 0 0 1-2.669-3.904Z" fill="#D17F59"/><path d="M101.069 232.978a1.056 1.056 0 1 1 2.037-.56c.54 1.926 8.149 9.103 8.21 9.123a1.025 1.025 0 0 1 .317.739 1.025 1.025 0 0 1-.317.74 1.018 1.018 0 0 1-1.466 0s-8.129-7.554-8.781-10.042ZM35.51 219.655a.705.705 0 0 1-.526.069.708.708 0 0 1-.42-.324.704.704 0 0 1 .264-.948c3.24-1.835 7.508-2.549 11.592-2.62 5.99-.102 11.653 1.203 12.977 2.263a.683.683 0 0 1 .278.468.698.698 0 0 1-.147.525.69.69 0 0 1-.755.225.7.7 0 0 1-.241-.137c-1.151-.928-6.397-2.039-12.091-1.958-3.881.072-7.874.724-10.93 2.437Zm176.661-3.436a.702.702 0 0 1-.527.07.702.702 0 0 1-.421-.325.69.69 0 0 1 .058-.771.704.704 0 0 1 .207-.177c4.136-2.354 9.606-3.252 14.831-3.343 7.681-.143 14.923 1.519 16.604 2.864a.696.696 0 0 1 .172 1.016.693.693 0 0 1-1.028.065c-1.518-1.213-8.342-2.691-15.727-2.559-5.012.082-10.258.938-14.169 3.16ZM74.213 408.073c.257.93.834 1.739 1.63 2.284 2.037 1.019 7.13-1.193 8.964-1.968 1.304-.54 2.608-1.111 3.912-1.672l1.7-.723c.388-.164.785-.306 1.182-.429 1.335-.428 4.146-2.038 5.42-1.08 1.018.785 1.497.438 1.843 1.988.245 1.08.784 4.006 0 5.025-1.813 2.325-6.733 4.425-9.35 5.699a128.142 128.142 0 0 1-11.786 5.26 90.384 90.384 0 0 1-12.855 3.609c-6.672 1.366-21.045 3.568-25.629-3.13-1.64-2.395-1.589-5.26-.825-7.961 2.669-9.369 14.373-15.292 22.99-17.881a2.13 2.13 0 0 1 1.07 0c6.04 1.397 9.606 5.27 11.734 10.979Z" fill="#0F0E0E"/><path d="M72.228 408.797c-1.752-4.76-4.645-8.379-10.268-9.694-10.36 3.058-19.486 9.174-21.574 16.453-4.075 14.506 22.134 10.194 36.589 4.944 2.414-.887 19.965-8.828 20.107-10.52.072-.816 0-3.375-.937-3.436-1.212-.091-3.514.785-4.96 1.377-.51.214-1.02.448-1.66.713-1.417.612-2.73 1.172-3.953 1.682-7.283 3.038-11.358 3.843-13.344-1.519Z" fill="#7C6052"/><path d="M38.43 419.614a.7.7 0 0 1-.09-.784.695.695 0 0 1 .963-.27c.081.048.15.112.206.187 1.66 2.039 11.592 3.405 25.527.612a104.717 104.717 0 0 0 32.229-12.56.702.702 0 0 1 .55-.116.688.688 0 0 1 .455.33.698.698 0 0 1-.081.809.695.695 0 0 1-.231.17 106.108 106.108 0 0 1-32.647 12.723c-14.475 2.905-25.007 1.243-26.882-1.101Zm170.396-11.54a4.076 4.076 0 0 1-1.63 2.283c-2.037 1.019-7.13-1.193-8.954-1.967-1.314-.541-2.618-1.112-3.921-1.672l-1.702-.724a12.545 12.545 0 0 0-1.181-.428c-1.324-.428-4.136-2.039-5.419-1.081-1.019.785-1.498.439-1.844 1.988-.244 1.081-.784 4.006 0 5.026 1.823 2.324 6.733 4.424 9.361 5.698 3.871 1.866 7.742 3.793 11.776 5.261a90.758 90.758 0 0 0 12.855 3.608c6.671 1.366 21.044 3.568 25.628-3.129 1.64-2.396 1.599-5.261.825-7.962-2.669-9.368-14.373-15.291-22.99-17.881a2.109 2.109 0 0 0-1.07 0c-6.071 1.397-9.636 5.271-11.734 10.98Z" fill="#0F0E0E"/><path d="M210.795 408.797c1.742-4.76 4.635-8.379 10.258-9.694 10.359 3.058 19.496 9.174 21.574 16.453 4.136 14.506-22.124 10.194-36.588 4.944-2.415-.887-19.955-8.828-20.108-10.52-.061-.816 0-3.375.937-3.436 1.222-.091 3.524.785 4.961 1.377l1.67.713a235.22 235.22 0 0 0 3.953 1.682c7.334 3.038 11.367 3.843 13.343-1.519Z" fill="#7C6052"/><path d="M244.581 419.614a.709.709 0 0 0 .174-.533.69.69 0 0 0-.276-.487.703.703 0 0 0-1.019.112c-1.65 2.039-11.581 3.405-25.516.612a104.733 104.733 0 0 1-32.229-12.559.67.67 0 0 0-.525-.078.683.683 0 0 0-.423.322.694.694 0 0 0 .245.948 106.033 106.033 0 0 0 32.657 12.723c14.505 2.946 25.038 1.284 26.912-1.06ZM133.02 247.504a4.991 4.991 0 0 1-4.288 2.906 6.41 6.41 0 0 1-3.851-1.264l-.061.142a2.746 2.746 0 0 1-2.974 1.611 18.143 18.143 0 0 1-1.284-.234c-3.83-.826-8.2-3.945-10.94-6.688l-4.757-4.771c-2.516 1.407-5.093 2.753-7.619 4.078-6.896 3.578-13.914 6.932-21.106 9.878a135.293 135.293 0 0 1-13.415 4.771c-5.154 1.488-10.98 2.345-16.298 1.121a16.187 16.187 0 0 1-8.22-4.526 1.554 1.554 0 0 1-.55-1.529c.428-1.284 2.872-.948 3.361-3.058.321-1.628.475-3.285.459-4.944 0-1.866-.061-3.731-.123-5.607v-1.896c0-.622.082-1.193.714-1.325a.736.736 0 0 1 .264 0c.58.091.907.672 1.11 1.315l-.122-.867a17.34 17.34 0 0 1-.305-3.823c1.731-16.698 29.234-21.632 42.7-23.161 12.224-1.386 26.199-1.825 37.934 2.304 8.78 3.058 15.839 8.624 18.488 17.86.883 3.119.94 6.415.163 9.562a2.685 2.685 0 0 1-.632 1.203 3.766 3.766 0 0 1-2.75 1.234 6.235 6.235 0 0 1-3.168 5.148 5.092 5.092 0 0 1-2.74.55l.01.01Zm-89.109-6.799c.082 1.131.122 2.273.163 3.384 0 .673.071 3.252.204 5.098.227-2.351.162-4.72-.194-7.055-.05-.53-.112-.989-.173-1.458v.031Z" fill="#0F0E0E"/><path d="M138.276 241.072a5.766 5.766 0 0 1-2.832 5.23 4.38 4.38 0 0 1-2.842.418 4.375 4.375 0 0 1-3.911 2.956 6.479 6.479 0 0 1-4.217-1.723 4.106 4.106 0 0 1-.286 1.02 2.04 2.04 0 0 1-2.241 1.213 27.106 27.106 0 0 1-1.242-.235c-3.688-.795-7.956-3.863-10.594-6.493l-5.093-5.098a278.108 278.108 0 0 1-8.047 4.323c-6.866 3.558-13.894 6.911-21.045 9.847a132.358 132.358 0 0 1-13.354 4.741c-5.032 1.457-10.757 2.314-15.921 1.121a15.572 15.572 0 0 1-7.884-4.333c-1.67-1.763 2.292-.927 2.984-3.945 1.09-4.74-.091-13.334.52-13.252 1.711.275.764 16.117 2.037 14.404 2.404-3.292-.815-15.556-.52-18.349 1.518-14.71 24.213-20.511 42.09-22.54 12.122-1.376 26.046-1.804 37.628 2.263 8.302 2.916 15.371 8.207 18.05 17.402a18.42 18.42 0 0 1 .153 9.175c-.08.338-.245.65-.479.907a3.34 3.34 0 0 1-2.954.948Z" fill="#0F0E0E"/><path d="M130.322 218.105c6.693 5.219 11.205 12.345 9.29 20.582-.866.968-3.972-.571-3.972-.571 1.742 4.006-.693 8.686-4.696 5.586 0 0 .356 3.721-2.384 3.895-2.74.173-7.792-6.729-7.792-6.729s2.414 5.24 1.518 7.259l-1.141-.214c-4.615-1.02-9.555-5.933-9.555-5.933l-6.254-6.27s-24.284 13.987-43.343 19.512c-32.596 9.419-29.713-23.997-3.453-35.833 24.427-11.02 61.107-9.603 71.782-1.284Z" fill="#E9BC9D"/><path d="M114.184 234.946a1.044 1.044 0 0 1-.279-1.121 1.033 1.033 0 0 1 .927-.687 1.035 1.035 0 0 1 .748.268c8.332 7.585 9.697 13.406 9.697 13.416a1.048 1.048 0 1 1-2.037.489s-1.151-5.209-9.056-12.365Zm7.538-1.469a1.039 1.039 0 0 1-.066-1.473 1.043 1.043 0 0 1 1.472-.066c8.332 7.574 9.687 13.395 9.697 13.416a1.057 1.057 0 0 1-.126.792 1.047 1.047 0 0 1-1.911-.303s-1.202-5.22-9.066-12.366Zm4.242-6.442a1.011 1.011 0 0 1-.353-.724 1.023 1.023 0 0 1 .281-.755 1.026 1.026 0 0 1 1.121-.286c.129.048.247.121.346.215 8.312 7.564 10.594 15.291 10.604 15.291a1.07 1.07 0 0 1-.086.809 1.059 1.059 0 0 1-1.759.16 1.067 1.067 0 0 1-.192-.367s-2.078-7.126-9.962-14.343Z" fill="#0F0E0E"/><path d="M145.877 247.505a5 5 0 0 1-2.73-.55 6.224 6.224 0 0 1-3.168-5.149 3.762 3.762 0 0 1-2.75-1.233 2.61 2.61 0 0 1-.642-1.203 18.772 18.772 0 0 1 .163-9.562c2.659-9.236 9.718-14.782 18.488-17.86 11.745-4.129 25.72-3.691 37.933-2.304 13.477 1.529 40.979 6.463 42.711 23.161a18.708 18.708 0 0 1-.305 3.823l-.123.866c.204-.642.53-1.223 1.111-1.315a.78.78 0 0 1 .264 0c.622.133.693.816.713 1.326.021.509 0 1.274 0 1.896-.061 1.875-.132 3.741-.112 5.606a24.35 24.35 0 0 0 .459 4.945c.489 2.1 2.933 1.763 3.361 3.058a1.558 1.558 0 0 1-.55 1.529 16.173 16.173 0 0 1-8.23 4.526c-5.287 1.224-11.113.367-16.298-1.121a136.375 136.375 0 0 1-13.426-4.771c-7.181-2.946-14.209-6.3-21.095-9.878a288.012 288.012 0 0 1-7.62-4.078l-4.757 4.771c-2.74 2.742-7.13 5.862-10.94 6.687-.427.092-.855.174-1.283.235a2.74 2.74 0 0 1-2.974-1.611l-.061-.143a6.428 6.428 0 0 1-3.851 1.265 5.022 5.022 0 0 1-4.298-2.906l.01-.01Zm89.119-6.8-.183 1.397a28.538 28.538 0 0 0-.184 7.044c.122-1.804.173-4.383.194-5.097.041-1.101.091-2.243.173-3.374v.03Z" fill="#0F0E0E"/><path d="M140.634 241.072a5.74 5.74 0 0 0 2.832 5.23 4.38 4.38 0 0 0 2.842.418 4.37 4.37 0 0 0 3.912 2.956 6.448 6.448 0 0 0 4.207-1.723c.058.35.157.692.295 1.02a2.036 2.036 0 0 0 2.231 1.213c.417-.072.835-.143 1.253-.235 3.677-.795 7.955-3.863 10.593-6.493l5.093-5.098a276.97 276.97 0 0 0 8.048 4.323c6.865 3.558 13.893 6.911 21.044 9.847a131.544 131.544 0 0 0 13.354 4.741c5.022 1.457 10.747 2.314 15.921 1.121a15.494 15.494 0 0 0 7.874-4.333c1.681-1.763-2.281-.927-2.974-3.945-1.09-4.74.081-13.334-.52-13.252-1.711.275-.763 16.117-2.037 14.404-2.404-3.292.815-15.556.52-18.349-1.528-14.71-24.213-20.511-42.09-22.54-12.121-1.376-26.046-1.804-37.628 2.263-8.301 2.916-15.381 8.207-18.05 17.402a18.192 18.192 0 0 0-.152 9.175c.078.336.239.648.468.907a3.365 3.365 0 0 0 2.964.948Z" fill="#0F0E0E"/><path d="M148.577 218.105c-6.693 5.219-11.205 12.345-9.29 20.582.866.968 3.972-.571 3.972-.571-1.741 4.006.693 8.686 4.686 5.586 0 0-.346 3.721 2.394 3.895 2.74.173 7.792-6.729 7.792-6.729s-2.414 5.24-1.517 7.259l1.14-.214c4.615-1.02 9.555-5.933 9.555-5.933l6.254-6.27s24.284 13.987 43.384 19.512c32.544 9.419 29.713-23.997 3.453-35.833-24.457-11.02-61.138-9.603-71.823-1.284Z" fill="#E9BC9D"/><path d="M164.723 234.946a1.02 1.02 0 0 0 .072-1.468 1.028 1.028 0 0 0-.724-.354 1.024 1.024 0 0 0-.753.282c-8.333 7.585-9.688 13.406-9.688 13.416a1.053 1.053 0 0 0 .775 1.264 1.044 1.044 0 0 0 1.263-.775s1.192-5.209 9.055-12.365Zm-7.54-1.469a1.023 1.023 0 0 0 .348-.726 1.018 1.018 0 0 0-.287-.752 1.003 1.003 0 0 0-.72-.343 1.009 1.009 0 0 0-.746.282c-8.333 7.574-9.698 13.395-9.698 13.416a1.01 1.01 0 0 0 .116.789.998.998 0 0 0 .277.298c.111.08.237.137.371.166a1.01 1.01 0 0 0 .796-.111 1.024 1.024 0 0 0 .467-.653s1.212-5.22 9.076-12.366Zm-4.234-6.442a1.046 1.046 0 1 0-1.406-1.549c-8.301 7.564-10.593 15.291-10.593 15.291a1.049 1.049 0 0 0 .086.809c.066.122.156.231.265.318a1.044 1.044 0 0 0 .779.23 1.057 1.057 0 0 0 .907-.756s2.078-7.125 9.962-14.343Z" fill="#0F0E0E"/><path d="M177.026 232.214c10.043 5.77 41.763 21.673 56.197 21.408.784 0 1.528-.051 2.241-.092a44.228 44.228 0 0 0 2.129-.184 9.903 9.903 0 0 1-1.263 1.02c-3.321 2.365-8.567 3.242-15.901 1.692a52.285 52.285 0 0 1-2.373-.561l-1.1-.316c-17.072-4.934-38.28-16.626-42.589-19.063a30.447 30.447 0 0 0 2.659-3.904Z" fill="#D17F59"/><path d="M177.832 232.978a1.019 1.019 0 0 0-.723-1.284 1.007 1.007 0 0 0-.797.087 1.019 1.019 0 0 0-.487.636c-.53 1.927-8.149 9.104-8.2 9.124a1.034 1.034 0 0 0-.328.727 1.054 1.054 0 0 0 .282.746 1.034 1.034 0 0 0 .727.328 1.038 1.038 0 0 0 .745-.282s8.047-7.595 8.781-10.082Z" fill="#0F0E0E"/></g><defs><clipPath id="a"><path fill="#fff" d="M0 0h285v442H0z"/></clipPath></defs></svg>