<svg width="33" height="52" fill="none" xmlns="http://www.w3.org/2000/svg"><path fill-rule="evenodd" clip-rule="evenodd" d="M20.932 46.283a2.137 2.137 0 0 1-.442 1.229 3.194 3.194 0 0 1-1.252.926c-.5.21-1.052.303-1.604.272-.032.238-.12.468-.257.675a1.846 1.846 0 0 1-.54.529 1.47 1.47 0 0 1-.662.234c-1.68.197-3.389.004-4.96-.558-4.648-1.69-7.128-5.219-8.228-9.411-1.476-5.615-.452-12.025.965-17.577 1.563-6.126 5.695-18.536 14.472-18.49.667.051 1.327.163 1.969.334l.443.1c-.322-.127-.605-.306-.62-.578a.32.32 0 0 1 .015-.122c.104-.28.463-.277.73-.261.266.016.662.064.985.096.971.123 1.937.25 2.907.334a14.36 14.36 0 0 0 2.596.039c1.119-.12 1.084-1.261 1.78-1.393.15-.012.3.012.435.07a.792.792 0 0 1 .33.26c1.061 1.145 1.717 2.543 1.882 4.017.335 2.496-.443 5.134-1.512 7.446a60.4 60.4 0 0 1-3.244 5.938c-1.94 3.157-4.085 6.223-6.337 9.212a133.77 133.77 0 0 1-2.553 3.301l2.208 2.43c1.27 1.4 2.64 3.579 2.852 5.374.023.201.041.402.049.602.019.284-.07.565-.252.798a1.435 1.435 0 0 1-.755.49l-.078.021c.366.555.52 1.199.438 1.836a2.21 2.21 0 0 1-.59 1.132 2.66 2.66 0 0 1-1.165.7l-.005-.005ZM22.48 4.919l.715.155a16.75 16.75 0 0 0 3.65.44c-.93-.148-2.268-.301-2.637-.347-.57-.074-1.16-.155-1.744-.25l.016.002Z" fill="#0F0E0E"/><path fill-rule="evenodd" clip-rule="evenodd" d="M17.275 48.37a3.35 3.35 0 0 0 1.603-.163 2.98 2.98 0 0 0 1.276-.876c.286-.379.42-.832.38-1.287a2.374 2.374 0 0 0 1.165-.586c.314-.294.52-.665.593-1.065a2.745 2.745 0 0 0-.655-2.023 2.7 2.7 0 0 0 .546-.085c.232-.06.433-.19.57-.365a.865.865 0 0 0 .188-.6 11.007 11.007 0 0 0-.05-.589c-.204-1.733-1.555-3.857-2.771-5.204l-2.359-2.602a129.244 129.244 0 0 0 2.705-3.485c2.24-2.98 4.384-6.047 6.318-9.19a58.182 58.182 0 0 0 3.224-5.907c1.044-2.238 1.816-4.83 1.49-7.272-.158-1.41-.786-2.748-1.802-3.843-.82-.863-.612 1.003-2.22 1.17-2.525.262-6.925-.711-6.916-.43.045.801 8.332 1.165 7.37 1.665-1.849.94-8.039-1.16-9.507-1.166-7.732-.04-12.04 10.11-14.113 18.236-1.406 5.51-2.423 11.897-.969 17.434 1.042 3.968 3.388 7.494 8.014 9.187 1.51.535 3.148.719 4.76.533.18-.019.35-.077.498-.17.222-.155.398-.357.513-.586a1.4 1.4 0 0 0 .149-.73Z" fill="#0F0E0E"/><path fill-rule="evenodd" clip-rule="evenodd" d="M5.826 43.557c2.33 3.344 5.777 5.78 10.166 5.315.553-.35-.07-1.857-.07-1.857 1.983 1.004 4.553.12 3.17-1.875 0 0 1.915.347 2.16-.905.247-1.253-3.051-3.927-3.051-3.927s2.585 1.376 3.685 1.065l-.046-.536c-.267-2.175-2.539-4.697-2.539-4.697L16.4 32.944s8.652-10.471 12.613-18.983C35.763-.544 18.235-.928 10.588 10.562 3.467 21.263 2.112 38.218 5.826 43.557Z" fill="#E9BC9D"/><path fill-rule="evenodd" clip-rule="evenodd" d="M15.495 36.974a.51.51 0 0 0-.154-.13.577.577 0 0 0-.412-.059.565.565 0 0 0-.193.082.502.502 0 0 0-.149.137.42.42 0 0 0-.066.368c.018.062.05.12.094.171 3.467 4.218 6.415 5.136 6.42 5.136a.614.614 0 0 0 .419-.017.512.512 0 0 0 .282-.275.434.434 0 0 0-.02-.371.53.53 0 0 0-.31-.25s-2.64-.811-5.91-4.792Zm-1.218 3.396a.512.512 0 0 0-.156-.13.579.579 0 0 0-.416-.057.565.565 0 0 0-.193.084.502.502 0 0 0-.146.138.42.42 0 0 0-.063.365.46.46 0 0 0 .094.17c3.461 4.217 6.408 5.14 6.42 5.14a.595.595 0 0 0 .416-.013.533.533 0 0 0 .17-.112.462.462 0 0 0 .108-.163.424.424 0 0 0-.012-.372.481.481 0 0 0-.128-.152.555.555 0 0 0-.185-.096s-2.643-.821-5.909-4.802Zm-3.582 1.625a.53.53 0 0 0-.156-.128.593.593 0 0 0-.414-.058.581.581 0 0 0-.194.079.512.512 0 0 0-.145.138.43.43 0 0 0-.066.366.46.46 0 0 0 .09.172c3.458 4.203 7.343 5.648 7.343 5.648a.618.618 0 0 0 .606-.105.492.492 0 0 0 .12-.159.442.442 0 0 0 .002-.376.492.492 0 0 0-.12-.16.568.568 0 0 0-.18-.107s-3.584-1.316-6.886-5.31Z" fill="#0F0E0E"/><path fill-rule="evenodd" clip-rule="evenodd" d="M14.753 31.173c3.571-4.332 13.644-18.13 14.33-24.787.044-.36.06-.706.08-1.036.019-.33.024-.676.025-.989.172.2.325.411.458.633 1.04 1.648 1.196 4.107-.027 7.404-.128.344-.269.7-.427 1.065l-.227.49c-3.537 7.609-10.823 16.78-12.334 18.64a15.568 15.568 0 0 0-1.878-1.42Z" fill="#D17F59"/><path fill-rule="evenodd" clip-rule="evenodd" d="M15.205 30.841a.595.595 0 0 0-.42 0 .538.538 0 0 0-.175.108.469.469 0 0 0-.114.16.427.427 0 0 0 0 .371.47.47 0 0 0 .122.156.548.548 0 0 0 .181.1c.971.341 4.267 4.21 4.274 4.235a.53.53 0 0 0 .159.126.593.593 0 0 0 .413.051.579.579 0 0 0 .191-.081.509.509 0 0 0 .142-.14.428.428 0 0 0 .058-.365.462.462 0 0 0-.092-.17s-3.488-4.088-4.739-4.551Z" fill="#0F0E0E"/></svg>