<svg width="31" height="51" fill="none" xmlns="http://www.w3.org/2000/svg"><path fill-rule="evenodd" clip-rule="evenodd" d="M9.466 45.592a2.605 2.605 0 0 1-1.122-.75 2.17 2.17 0 0 1-.52-1.158 2.714 2.714 0 0 1 .548-1.813l-.077-.024c-.3-.1-.554-.284-.722-.526a1.157 1.157 0 0 1-.205-.808 7.53 7.53 0 0 1 .085-.6c.319-1.791 1.82-3.892 3.171-5.23l2.352-2.322c-.808-1.127-1.586-2.284-2.351-3.418-2.07-3.096-4.025-6.254-5.772-9.502a58.954 58.954 0 0 1-2.882-6.08C1.043 11.018.426 8.347.91 5.857c.255-1.463.994-2.826 2.123-3.918a.806.806 0 0 1 .344-.244.913.913 0 0 1 .438-.05c.683.165.578 1.304 1.694 1.475.86.107 1.729.135 2.594.084a99.923 99.923 0 0 0 2.924-.201l.99-.049c.324-.016.624.007.712.295a.34.34 0 0 1 .008.123c-.031.27-.325.436-.654.547l.448-.079a10.17 10.17 0 0 1 1.987-.24c8.767.37 12.145 12.957 13.336 19.143 1.08 5.616 1.717 12.066-.096 17.598-1.34 4.138-4.04 7.546-8.783 9.01-1.602.488-3.321.6-4.987.322a1.497 1.497 0 0 1-.646-.261 1.812 1.812 0 0 1-.508-.553 1.601 1.601 0 0 1-.216-.687 3.598 3.598 0 0 1-1.585-.347 3.136 3.136 0 0 1-1.195-.984 2.151 2.151 0 0 1-.367-1.253l-.005.005Zm.949-41.374c-.589.067-1.183.115-1.762.163-.351.017-1.696.117-2.655.226a16.81 16.81 0 0 0 3.677-.272c.275-.037.513-.077.756-.118l-.016.001Z" fill="#0F0E0E"/><path fill-rule="evenodd" clip-rule="evenodd" d="M12.965 47.856a3.358 3.358 0 0 1-1.59-.24 2.938 2.938 0 0 1-1.222-.934 1.838 1.838 0 0 1-.301-1.303 2.336 2.336 0 0 1-1.13-.641 1.914 1.914 0 0 1-.528-1.091c-.022-.726.254-1.435.776-1.994a2.369 2.369 0 0 1-.54-.106 1.05 1.05 0 0 1-.549-.394.856.856 0 0 1-.15-.61c.025-.196.05-.386.087-.581.307-1.726 1.784-3.778 3.08-5.066l2.512-2.486a126.99 126.99 0 0 1-2.491-3.61c-2.058-3.081-4.013-6.244-5.755-9.474A57.674 57.674 0 0 1 2.3 13.274C1.393 10.985.78 8.361 1.25 5.942c.245-1.402.952-2.708 2.032-3.757.872-.818.551 1.036 2.146 1.278 2.507.382 6.958-.387 6.933-.102-.094.798-8.39.77-7.46 1.314 1.79 1.026 8.097-.779 9.564-.714 7.723.321 11.413 10.664 12.993 18.876 1.073 5.569 1.702 11.996-.083 17.455-1.28 3.914-3.835 7.319-8.556 8.795-1.54.459-3.187.565-4.785.308a1.133 1.133 0 0 1-.488-.198 1.56 1.56 0 0 1-.477-.607 1.383 1.383 0 0 1-.104-.734Z" fill="#0F0E0E"/><path fill-rule="evenodd" clip-rule="evenodd" d="M24.73 43.583c-2.529 3.229-6.117 5.5-10.472 4.827-.531-.376.182-1.852.182-1.852-2.04.909-4.554-.096-3.053-2.026 0 0-1.932.26-2.102-1.002-.17-1.262 3.284-3.776 3.284-3.776s-2.665 1.251-3.744.889l.078-.533c.398-2.16 2.818-4.57 2.818-4.57l3.09-3.054S6.801 21.62 3.361 12.95c-5.867-14.827 11.66-14.357 18.604-2.523 6.465 11.009 6.796 28.004 2.765 33.155Z" fill="#E9BC9D"/><path fill-rule="evenodd" clip-rule="evenodd" d="M15.488 36.559c.045-.05.1-.09.163-.12a.596.596 0 0 1 .6.049.5.5 0 0 1 .136.144.443.443 0 0 1 .044.366.466.466 0 0 1-.1.166c-3.715 4.048-6.714 4.83-6.719 4.83a.613.613 0 0 1-.417-.037.503.503 0 0 1-.265-.288.435.435 0 0 1 .042-.37.54.54 0 0 1 .325-.234s2.686-.667 6.19-4.506Zm.982 3.446a.595.595 0 0 1 .767-.069.445.445 0 0 1 .078.679c-3.71 4.048-6.71 4.825-6.72 4.83a.615.615 0 0 1-.418-.037.503.503 0 0 1-.265-.288.435.435 0 0 1 .043-.369.54.54 0 0 1 .325-.235s2.69-.69 6.19-4.51Zm3.485 1.795a.52.52 0 0 1 .162-.123.584.584 0 0 1 .607.053.493.493 0 0 1 .139.143.434.434 0 0 1 .043.367.46.46 0 0 1-.102.166c-3.705 4.038-7.672 5.293-7.672 5.298a.623.623 0 0 1-.425-.019.556.556 0 0 1-.174-.114.484.484 0 0 1-.111-.165.441.441 0 0 1 .021-.376.5.5 0 0 1 .13-.154.575.575 0 0 1 .185-.098s3.66-1.145 7.197-4.977Z" fill="#0F0E0E"/></svg>