<svg width="149" height="205" fill="none" xmlns="http://www.w3.org/2000/svg"><path d="M135 184c0 .725-.311 1.51-1.061 2.362-.755.859-1.915 1.735-3.49 2.6-3.148 1.731-7.77 3.322-13.567 4.671C105.304 196.325 89.258 198 71.5 198s-33.804-1.675-45.382-4.367c-5.797-1.349-10.419-2.94-13.567-4.671-1.575-.865-2.735-1.741-3.49-2.6C8.311 185.51 8 184.725 8 184c0-.725.311-1.51 1.061-2.362.755-.859 1.915-1.735 3.49-2.6 3.148-1.731 7.77-3.322 13.567-4.671C37.696 171.675 53.742 170 71.5 170s33.804 1.675 45.382 4.367c5.797 1.349 10.419 2.94 13.567 4.671 1.575.865 2.735 1.741 3.49 2.6.75.852 1.061 1.637 1.061 2.362Z" fill="#232323" stroke="#272727" stroke-width="2"/><mask id="a" style="mask-type:luminance" maskUnits="userSpaceOnUse" x="0" y="0" width="149" height="205"><path d="M149 0H0v204.67h149V0Z" fill="#fff"/></mask><g mask="url(#a)" fill-rule="evenodd" clip-rule="evenodd"><path d="M35.422 47.421c-.304-.889-.612-1.773-.916-2.662-.567-1.674-1.128-3.357-1.563-5.073-.309-1.197-.703-2.88-.435-4.09 1.194-5.429 6.07-10.587 10.573-13.978a42.076 42.076 0 0 1 3.976-2.652 13.715 13.715 0 0 1 .754-6.147c1.4-3.887 4.426-7.041 8.094-9.207C60.098 1.25 64.902 0 69.799 0c4.896 0 9.7 1.249 13.894 3.612 3.677 2.166 6.703 5.32 8.094 9.207.548 1.514.828 3.101.83 4.7 0 .542-.032 1.083-.097 1.622a39.843 39.843 0 0 1 5.439 4.615c3.273 3.31 6.505 7.816 7.436 12.317a6.2 6.2 0 0 1 .045 1.466c-.03.719-.091 1.442-.156 2.16a79.93 79.93 0 0 1-.769 5.911c-.051.303-.122.61-.198.913-.05.217-.106.44-.167.662.468.031.932.1 1.387.208 2.463.577 4.553 1.891 5.625 4.09 1.609 3.31.314 7.372-1.806 10.218-2.206 2.965-5.848 5.348-9.87 4.937a10.87 10.87 0 0 1-2.079-.412 20.46 20.46 0 0 1-4.912 6.19c-.8.671-1.672 1.265-2.6 1.773-2.722 1.485-5.803 2.199-8.904 2.582a99.02 99.02 0 0 1-10.052.534c-10.067.218-22.926-.804-27.894-10.445a32.756 32.756 0 0 1-.551-1.111 9.876 9.876 0 0 1-2.717.643 8.808 8.808 0 0 1-2.175-.047c-3.076-.473-5.706-2.426-7.447-4.762-3.743-5.026-3.693-12.209 3.734-13.949a8.08 8.08 0 0 1 1.533-.213Z" fill="#0F0E0E"/><path d="M105.306 47.898c2.349.525 4.346 1.686 5.371 3.696 1.577 3.07.237 6.869-1.813 9.497-2.144 2.741-5.676 5.004-9.586 4.62-2.533-.248-4.793-1.186-5.734-3.425a7.566 7.566 0 0 1-.383-3.8c.562-5.069 5.481-12.078 12.145-10.588Z" fill="#0F0E0E"/><path d="M105.056 48.795c10.746 2.4 3.085 16.854-5.684 15.998-5.12-.504-5.473-3.647-5.193-6.202.507-4.54 4.934-11.122 10.877-9.796Z" fill="#E9BC9D"/><path d="M33.433 48.357c5.722-1.453 9.946 5.364 10.428 10.316.06.548.079 1.1.056 1.65-.144 3.283-2.087 5.032-5.314 5.393a7.003 7.003 0 0 1-1.827-.047c-2.643-.418-4.91-2.284-6.403-4.455-3.171-4.609-3.301-11.244 3.06-12.857Z" fill="#0F0E0E"/><path d="M33.887 49.255c-9.361 2.354-2.686 16.36 4.949 15.54 4.46-.47 4.773-3.536 4.522-6.018-.437-4.422-4.294-10.813-9.471-9.522Z" fill="#E9BC9D"/><path d="M32 54.478c.748-1.937 1.931-2.562 3.955-1.39 1.37.78 2.16 2.087 2.791 3.525.676 1.55.096.925 1.311 1.758.242-.92.279-.968-.265-2.256-2.485-5.942-8.579-4.843-7.793-1.637Zm8.057 3.874.238.164c-.083-.043-.165-.077-.247-.116v-.048h.01Zm0 .048c-.069.257-.15.581-.242 1.017-1.1-.634-2.956-1.375-2.782.784.087 1.09.818 1.327 1.124 1.845-.68.083-1.535-1.031-1.681-1.753-.567-2.716 1.786-2.639 3.558-1.874l.023-.019Zm67.049-3.911c-.896-1.955-2.299-2.554-4.709-1.403-1.582.78-2.568 2.076-3.322 3.517-.807 1.538-.116.935-1.582 1.744-.285-.935-.327-.935.316-2.25 2.959-5.916 10.21-4.826 9.276-1.622l.021.014Zm-9.592 3.872-.28.164.296-.112v-.052h-.016Zm0 .052c.079.257.174.58.285 1.01 1.307-.632 3.517-1.366 3.311.78-.1 1.09-.975 1.324-1.339 1.843.812.08 1.83-1.029 1.999-1.749.685-2.745-2.136-2.647-4.24-1.884h-.016Z" fill="#0F0E0E"/><path d="M42.188 66.461c-6.923-12.698-5.576-28.025 2.662-39.977 2.572-3.73 6.923-6.189 11.503-7.62a41.902 41.902 0 0 1 16.051-1.566c8.43.774 17.041 4.069 21.744 10.588 2.663 3.72 4.654 7.786 5.9 12.051a38.812 38.812 0 0 1 1.598 12.387c-.25 6.849-2.594 14.756-8.547 19.495a16 16 0 0 1-2.62 1.69c-2.775 1.416-5.938 2.129-9.102 2.497-3.487.342-6.993.518-10.501.529-10.29.208-23.613-.727-28.688-10.074Z" fill="#0F0E0E"/><path d="M43.158 66.048c4.612 8.497 16.605 9.743 27.692 9.517 8.57-.175 16.296-.312 21.52-4.47 10.044-7.988 11.503-27.936.863-42.678C83.243 14.57 53.921 15.199 45.778 27c-8.046 11.646-9.372 26.624-2.62 39.048Z" fill="#D17F59"/><path d="M39.13 55.353c2.497-4.777 6.539-9.72 14.234-10.489 7.695-.77 12.414-2.133 14.624-4.007l2.215-1.889c2.393 2.467 5.583 4.224 9.139 5.032 5.964 1.365 8.078.43 12.312 2.304 4.234 1.874 8.755 7.25 8.755 7.25s-8.27-17.814-13.681-21.397c-5.41-3.583-18.106-7.846-25.397-5.287-7.29 2.558-25.573 5.287-22.202 28.483Z" fill="#D17F59"/><path d="M70.453 36.248a13.795 13.795 0 0 1-2.748 3.394c-1.64 1.509-3.642 2.672-5.858 3.403-.873.274-1.864.34-2.55-.325-.805-.788-.421-1.855.058-2.724-.591.17-1.188.33-1.784.472a44.384 44.384 0 0 0-4.969 1.553c-4.532 1.808-7.578 5.23-10.08 8.97-.065.112-.118.235-.176.353a43.91 43.91 0 0 0-1.422 3.2c-.32.808-.959 2.455-.895 3.305v.264l-.293.071c-.81.184-1.555-1.034-1.864-1.53a27.49 27.49 0 0 1-1.699-3.46 80.235 80.235 0 0 1-2.05-5.154c-.42-1.152-.841-2.3-1.257-3.45-.596-1.667-1.182-3.343-1.64-5.042-.309-1.143-.719-2.8-.453-3.947 1.241-5.338 6.327-10.432 11.003-13.77 4.11-2.93 9.479-5.664 14.724-6.476 3.515-.543 7.376-.59 10.737.58 1.042.35 2.021.832 2.907 1.431a17.002 17.002 0 0 1 4.042-1.742c3.227-.901 6.689-.83 9.985-.288 5.47.902 11.242 5.013 14.912 8.577 3.397 3.305 6.768 7.709 7.737 12.141.071.46.085.926.043 1.388a42.585 42.585 0 0 1-.165 2.143 76.727 76.727 0 0 1-.804 5.882 12.15 12.15 0 0 1-.203.883 64.508 64.508 0 0 1-1.555 5.075 29.666 29.666 0 0 1-1.714 4.135c-.299.561-1.097 2.081-2.04 1.746l-.181-.066-.037-.175c-.219-1.005-.416-2.006-.666-3.007a12.98 12.98 0 0 0-.927-2.747c-1.517-2.865-3.807-5.542-6.896-7.194a28.03 28.03 0 0 0-5.251-2.185c-1.427-.43-2.897-1.185-4.34-1.568l-.437-.118c.4.807.64 1.742-.08 2.45-.719.708-1.677.6-2.55.326-2.09-.7-3.987-1.786-5.566-3.186a13.85 13.85 0 0 1-2.998-3.588Zm55.423 64.804c-2.13-.585-4.792-.5-7.008-.302a59.268 59.268 0 0 0-6.135.902c-.932.184-1.885.382-2.801.613a1.117 1.117 0 0 0-.464.232.931.931 0 0 0-.28.402.844.844 0 0 0-.025.472.907.907 0 0 0 .237.424 142.005 142.005 0 0 0 6.923 7.222 51.008 51.008 0 0 0 5.155 4.466c1.102.798 1.89 3.158 3.403 2.492 3.536-1.567 3.227-8.336 2.716-11.258-.283-1.648-.634-3.281-.97-4.914a.91.91 0 0 0-.253-.471 1.088 1.088 0 0 0-.498-.28Z" fill="#0F0E0E"/><path d="M125.535 101.973c1.033 5.042 2.072 13.147-.687 14.369-2.759 1.223-14.645-13.146-14.645-13.146s10.337-2.596 15.332-1.223Z" fill="#D17F59"/><path d="M108.296 182.488c.229.042.506.08.655.113.35 2.62-6.708 16.28-11.146 7.557a3.234 3.234 0 0 1-.437-.656 4.894 4.894 0 0 1-.362-1.218 39.37 39.37 0 0 0-.48-2.044 61.299 61.299 0 0 0-.457-1.68 59.18 59.18 0 0 0-.698-2.323 14.095 14.095 0 0 0-.591-1.59 391.256 391.256 0 0 1-2.86-6.279 629.58 629.58 0 0 1-7.535-17.64.847.847 0 0 1 .036-.756.98.98 0 0 1 .267-.306 1.11 1.11 0 0 1 .384-.184l24.459-7.024a1.225 1.225 0 0 1 .902.094c.134.072.249.169.337.284a.9.9 0 0 1 .173.382c1.904 10.601 1.124 21.444-2.285 31.745a9.494 9.494 0 0 0-.362 1.525Z" fill="#0F0E0E"/><path d="M109.831 149.372c2.29 12.028.347 23.489-2.258 31.311a10.57 10.57 0 0 0-.436 1.931c8.919-5.498-8.334 18.581-8.516 6.967-.014-.914-.415-1.024-1.065-3.559a47.578 47.578 0 0 0-1.778-5.754c-4.756-10.14-10.38-23.877-10.38-23.877l24.433-7.019Z" fill="#E9BC9D"/><path d="M49.944 190.086c-.416.37-1.034.937-1.569 1.157-6.946 1.48-10.456-1.621-8.78-8.734a10.192 10.192 0 0 0-.373-1.529c-3.409-10.301-4.189-21.145-2.284-31.746a.908.908 0 0 1 .173-.382c.088-.115.203-.212.336-.284a1.203 1.203 0 0 1 .902-.094l24.46 7.024c.14.038.271.101.383.185a.966.966 0 0 1 .268.305.854.854 0 0 1 .036.757 641.406 641.406 0 0 1-7.536 17.64 317.794 317.794 0 0 1-2.86 6.278c-.23.521-.427 1.052-.59 1.591a52.794 52.794 0 0 0-.704 2.318c-.074.278-.154.552-.229.831-.356 1.383-.478 3.616-1.633 4.683Z" fill="#0F0E0E"/><path d="M38.022 149.372c-2.29 12.028-.34 23.489 2.258 31.311.207.632.353 1.277.437 1.931-2.695 11.172 9.737 9.32 9.475 4.226-.087-1.695 1.324-4.968 1.964-6.568 4.756-10.139 10.374-23.876 10.374-23.876l-24.508-7.024Z" fill="#E9BC9D"/><path d="M45.222 172.442c2.312.566 5.39 2.388 4.49 5.57-.735 2.615-.783 7.142-2.477 10.003h.048c.203-.076.41-.142.618-.199a6.551 6.551 0 0 1 2.274-.273c.117-.836.197-1.723.373-2.361a39.618 39.618 0 0 1 1.597-4.885c.842-1.794 1.71-3.701 2.567-5.622a19.22 19.22 0 0 1-4.26-1.912 38.658 38.658 0 0 0-3.59-1.935 4.858 4.858 0 0 0-1.784-.473 8.386 8.386 0 0 0-1.746.208c-1.065.198-2.13.392-3.249.538a16.13 16.13 0 0 1-2.13.156c.085.472.17.977.266 1.454 3.02.113 5.32-.684 7.003-.269Zm47.442.975a333.636 333.636 0 0 0 3.12 6.854 47.63 47.63 0 0 1 1.8 5.749c.16.6.272 1.077.352 1.459a4.74 4.74 0 0 1 2.21.331l.4.146c-1.662-2.861-1.715-7.345-2.445-9.941-.9-3.182 2.178-5.004 4.49-5.571 1.704-.42 4.036.397 7.098.218.16-.831.304-1.676.437-2.545l-.25.17c-1.667 1.086-3.659 1.024-5.618.77a66.66 66.66 0 0 1-3.244-.539 8.496 8.496 0 0 0-1.752-.207 4.837 4.837 0 0 0-1.784.472 37.915 37.915 0 0 0-3.584 1.935c-.41.26-.82.482-1.23.699Z" fill="#D17F59"/><path d="M94.856 74.717c1.763.472 3.541.915 5.325 1.416 5.565 1.52 10.076 3.337 14.443 6.859 6.353 5.121 10.794 12.65 14.096 19.566.149.429.212.878.187 1.326-.107.317-1.795.666-1.8.666-.293-.066-.56-.869-.858-.944a63.665 63.665 0 0 0-3.195-.567 44.944 44.944 0 0 0-9.65-.472c-2.284.161-4.425.746-6.625 1.261-1.661.387-3.94.916-5.517.066a2.919 2.919 0 0 1-.607-.43L72.75 78.224l21.834-3.569.272.062Z" fill="#0F0E0E"/><path d="M94.516 75.64c11.498 3.096 22.207 4.328 33.162 27.275 0 .028-7.142-1.837-14.379-1.322-5.299.373-9.98 2.908-11.886 1.185L74.945 78.835l19.571-3.195Z" fill="#CD591C"/><path d="M19.989 101.052c2.13-.585 4.793-.5 7.014-.302 2.063.194 4.111.495 6.135.902.931.184 1.88.382 2.8.613.177.039.34.116.473.226a.932.932 0 0 1 .29.401.842.842 0 0 1 .03.475.906.906 0 0 1-.233.428 133.923 133.923 0 0 1-6.95 7.222 51.074 51.074 0 0 1-5.155 4.466c-1.102.798-1.89 3.158-3.403 2.492-3.536-1.567-3.232-8.336-2.721-11.258.288-1.648.639-3.281.975-4.914a.902.902 0 0 1 .25-.47 1.09 1.09 0 0 1 .495-.281Z" fill="#0F0E0E"/><path d="M20.292 101.973c-1.033 5.042-2.071 13.147.687 14.369 2.759 1.223 14.64-13.146 14.64-13.146s-10.331-2.596-15.327-1.223Z" fill="#D17F59"/><path d="M20.368 102.024c-.596 2.927-1.193 6.878-1.065 9.913.101 2.162.58 3.857 1.704 4.353 2.588 1.147 13.575-11.957 14.49-13.052-1.065-.26-10.437-2.474-15.145-1.209l.016-.005Zm-1.198 9.913c-.144-3.058.463-7.038 1.065-9.974v-.038h.043c5.016-1.378 15.337 1.213 15.369 1.223l.1.024-.063.075c-.032.043-11.924 14.412-14.735 13.165-1.172-.533-1.673-2.275-1.78-4.475Z" fill="#0F0E0E"/><path d="m52.922 74.228-7.514 29.602-.97-.095c-1.81-.17-3.727-.222-5.543-.259-4.989-.082-9.979.076-14.948.472a12.33 12.33 0 0 0-3.77.944c-.405.165-1.066 1.175-1.492 1.34a2.11 2.11 0 0 1-.986.075 1.998 1.998 0 0 1-.894-.377c-.617-.434-.058-1.633.155-2.209 3.126-8.407 7.823-17.112 16.125-22.436a37.991 37.991 0 0 1 9.16-4.164c2.924-.944 5.916-1.61 8.883-2.407l1.794-.486Z" fill="#0F0E0E"/><path d="M51.451 75.64c-11.497 3.096-24.614 4.583-33.449 28.384-.665 1.789 1.475-.689 5.858-1.034 12.648-.982 20.705-.212 20.705-.212l6.886-27.138Z" fill="#CD591C"/><path d="M23.14 155.509h98.036c.43-.004.846.13 1.172.377.559.42 1.124.831 1.667 1.265 1.672 1.317 3.653 3.102 3.626 5.231 0 1.888-1.571 3.205-3.307 4.078a10.18 10.18 0 0 1-4.233 1.209 10.65 10.65 0 0 1-2.786-.369 3.681 3.681 0 0 0-1.467-.096c-.49.067-.958.233-1.366.484a9.987 9.987 0 0 0-2.247 1.505 17.625 17.625 0 0 1-1.938 1.61c-1.838 1.199-4 1.171-6.157.887a63.713 63.713 0 0 1-3.285-.547 8.007 8.007 0 0 0-1.598-.194 4.128 4.128 0 0 0-1.48.425 35.176 35.176 0 0 0-3.515 1.888c-3.132 1.818-6.39 3.012-10.193 2.304a29.477 29.477 0 0 1-5.24-1.718 16.826 16.826 0 0 0-4.687-1.11 8.718 8.718 0 0 0-1.71 0 2.02 2.02 0 0 1-.59 0 8.718 8.718 0 0 0-1.71 0c-1.619.147-3.2.521-4.686 1.11a29.48 29.48 0 0 1-5.24 1.718c-3.792.708-7.062-.472-10.188-2.304a36.342 36.342 0 0 0-3.515-1.888 4.178 4.178 0 0 0-1.486-.425 8.151 8.151 0 0 0-1.597.194 59.324 59.324 0 0 1-3.286.547c-2.157.284-4.319.312-6.156-.887a17.064 17.064 0 0 1-1.933-1.61 10.25 10.25 0 0 0-2.248-1.505 3.516 3.516 0 0 0-1.369-.484 3.694 3.694 0 0 0-1.469.096c-.902.246-1.841.37-2.785.369-1.5-.094-2.95-.509-4.229-1.209-1.741-.873-3.29-2.185-3.312-4.078-.027-2.691 3.195-4.914 5.293-6.496.338-.256.77-.391 1.215-.377Z" fill="#0F0E0E"/><path d="M23.134 156.146h98.036c.259-.004.51.078.703.231.532.411 1.113.822 1.651 1.251 1.485 1.171 3.408 2.832 3.381 4.721 0 1.647-1.438 2.77-2.939 3.526a9.424 9.424 0 0 1-3.893 1.128 9.834 9.834 0 0 1-2.588-.354 4.436 4.436 0 0 0-1.744-.102 4.265 4.265 0 0 0-1.622.574c-.881.433-1.69.973-2.402 1.605a16.887 16.887 0 0 1-1.858 1.553c-1.667 1.086-3.659 1.024-5.619.769a65.619 65.619 0 0 1-3.243-.538 8.438 8.438 0 0 0-1.752-.207 4.837 4.837 0 0 0-1.784.472 37.902 37.902 0 0 0-3.584 1.935c-2.966 1.728-6.055 2.884-9.644 2.214a29.167 29.167 0 0 1-5.097-1.676 17.71 17.71 0 0 0-4.915-1.161 9.733 9.733 0 0 0-1.885 0c-.12.016-.242.016-.362 0a9.331 9.331 0 0 0-1.891 0 17.67 17.67 0 0 0-4.91 1.161 29.33 29.33 0 0 1-5.102 1.676c-3.584.67-6.678-.472-9.639-2.214a38.658 38.658 0 0 0-3.59-1.935 4.837 4.837 0 0 0-1.783-.472 8.319 8.319 0 0 0-1.747.207c-1.065.199-2.13.392-3.248.538-1.96.255-3.952.317-5.619-.769a17.334 17.334 0 0 1-1.858-1.553 10.766 10.766 0 0 0-2.402-1.605 4.263 4.263 0 0 0-1.622-.574 4.432 4.432 0 0 0-1.744.102 9.88 9.88 0 0 1-2.583.354 9.416 9.416 0 0 1-3.898-1.128c-1.496-.756-2.923-1.888-2.94-3.526-.026-2.398 3.116-4.56 5.033-5.991a1.16 1.16 0 0 1 .703-.212Z" fill="#0F0E0E"/><path d="M23.147 157.121c-3.063 2.29-7.419 5.344-2.258 7.94 5.16 2.596 5.485-.916 9.836 1.218 4.35 2.133 3.387 4.583 9.191 3.819 5.805-.765 4.836-1.832 11.125 1.831 6.29 3.663 9.352 2.139 13.708.472 4.356-1.666 7.418-1.222 7.418-1.222s3.062-.472 7.413 1.222c4.35 1.695 7.418 3.205 13.708-.472 6.289-3.677 5.325-2.596 11.124-1.831 5.8.764 4.841-1.681 9.192-3.819 4.351-2.139 4.676 1.378 9.836-1.218 5.161-2.596.81-5.665-2.258-7.94H23.147Z" fill="#E6AD3F"/><path d="M120.292 141.904a102.889 102.889 0 0 1 2.423 15.46c.251 3.55-3.387 4.588-6.593 5.763-4.643 1.695-20.092 3.569-40.867 3.701-23.16.151-51.944-2.601-53.515-7.416a4.21 4.21 0 0 1-.192-1.562 100.75 100.75 0 0 1 2.46-15.946 207.04 207.04 0 0 1 9.326-30.73 117.652 117.652 0 0 1 8.717-17.773c.89-1.454.666 3.777 1.646 2.36 5.858-8.36 15.444-19.825 27.559-19.825s19.746 7.283 25.604 15.643c.464.666 3.521 2.766 3.813 1.719.293-1.049.565-.737.773-.416a107.979 107.979 0 0 1 9.527 18.273 207.989 207.989 0 0 1 9.319 30.749Z" fill="#0F0E0E"/><path d="M119.246 142.094a102.121 102.121 0 0 1 2.407 15.323c.826 11.683-99.585 10.192-98.994.472a100.949 100.949 0 0 1 2.439-15.809c5.672-24.815 13.479-43.036 22.292-54.649.298-.391-5.565-7.024-5.267-7.401 5.858-7.374 17.377 2.143 24.295 1.08 21.642-3.323 41.112 9.71 52.828 60.984Z" fill="#CD591C"/><path d="M60.832 165.433c-20.599-.788-38.434-3.422-38.173-7.529a100.967 100.967 0 0 1 2.44-15.809 219.399 219.399 0 0 1 7.455-25.787c2.865-.43 5.059-.628 5.059-.628-9.495 21.147-10.262 43.428 12.824 47.752 3.994.741 7.434 1.411 10.395 2.001Zm58.396-23.338a102.252 102.252 0 0 1 2.408 15.323c.362 5.136-18.821 7.723-40.394 8.19a869.205 869.205 0 0 1 11.253-2.176c23.091-4.319 22.319-26.605 12.829-47.752 0 0 2.844.259 6.284.821a184.022 184.022 0 0 1 7.62 25.594Z" fill="#A74618"/><path d="M41.78 73.778a.721.721 0 0 1-.075-.184c-.447-1.034-1.145-2.11-.708-3.238.436-1.128 1.826-1.577 3.089-1.728.303-.038.613.01.883.137 7.062 3.342 16.584 4.286 24.497 4.135 7.914-.15 17.479-1.458 24.641-4.668.262-.122.56-.166.852-.128 1.284.151 2.578.586 3.105 1.728.575 1.237-.122 2.563-.533 3.776-.168.43-.235.887-.197 1.341.107.52.166 1.048.176 1.577v.236l.053.028c1.268.665 1.87 2.082 1.838 3.337a4.442 4.442 0 0 1-.79 2.287 5.202 5.202 0 0 1-1.932 1.67c-6.576 3.653-19.278 5.848-27.02 5.848-7.744 0-20.445-2.195-27.022-5.849a5.182 5.182 0 0 1-1.934-1.668 4.423 4.423 0 0 1-.787-2.288c-.038-1.255.564-2.671 1.832-3.337l.058-.028v-.236a8.739 8.739 0 0 1 .181-1.577 1.142 1.142 0 0 0 0-.274 2.557 2.557 0 0 0-.165-.708l-.042-.189Z" fill="#0F0E0E"/><path d="m97.17 76.916.245.128c1.15.604 1.689 1.912 1.651 3.05a4.128 4.128 0 0 1-.737 2.135 4.838 4.838 0 0 1-1.808 1.556c-6.492 3.606-19.177 5.806-26.819 5.806-7.642 0-20.338-2.195-26.83-5.802a4.855 4.855 0 0 1-1.809-1.555 4.144 4.144 0 0 1-.741-2.136c-.032-1.138.506-2.445 1.656-3.05l.24-.127v-.41a8.212 8.212 0 0 1 .17-1.53 1.442 1.442 0 0 0 0-.34 2.983 2.983 0 0 0-.181-.793c-.378-1.043-1.284-2.261-.847-3.38.405-1.048 1.678-1.383 2.796-1.52.226-.027.455.011.655.109 7.12 3.36 16.722 4.319 24.678 4.168 7.956-.151 17.611-1.478 24.8-4.72.198-.088.42-.121.64-.095 1.144.137 2.343.51 2.817 1.534.532 1.124-.165 2.45-.533 3.54a3.168 3.168 0 0 0-.207 1.483c.102.505.159 1.016.17 1.53.01.136 0 .282-.005.42Z" fill="#0F0E0E"/><path d="M44.303 69.904c-4.132.5-.4 2.88-.857 5.24-.458 2.36.378 2.048-.921 2.733-1.3.684-1.987 3.479.92 5.093 6.2 3.441 18.688 5.665 26.25 5.665 7.562 0 20.05-2.21 26.249-5.665 2.907-1.614 2.22-4.409.916-5.093-1.305-.685-.458-.373-.916-2.733-.458-2.36 2.977-5.269-1.156-5.764-12.93 5.797-37.113 6.845-50.485.524Z" fill="#E6AD3F"/><path d="M45.063 83.774c.623.284 1.283.553 1.98.817.188-.38.4-.75.634-1.11 1.007-1.609 2.072-3.304 1.23-7.703-.32-1.657-.532-2.672-.34-3.46.05-.234.135-.46.25-.675a35.704 35.704 0 0 1-2.034-.699 4.26 4.26 0 0 0-.357 1.02c-.24 1.118 0 2.266.335 4.13.714 3.739-.16 5.131-.985 6.448-.25.401-.5.798-.714 1.232Zm6.3 2.195c.692.19 1.395.373 2.13.543.197-.417.424-.822.681-1.213 1.012-1.61 2.072-3.304 1.23-7.704-.32-1.657-.532-2.672-.34-3.455.07-.334.207-.654.404-.944a50.822 50.822 0 0 1-2.199-.416c-.157.318-.273.65-.346.992-.24 1.123 0 2.265.335 4.135.714 3.734-.154 5.126-.985 6.448-.34.515-.637 1.052-.89 1.605l-.02.01Zm7.455 1.629c.73.118 1.454.231 2.173.335a7.99 7.99 0 0 1 .836-1.61c1.012-1.61 2.072-3.304 1.23-7.703-.314-1.657-.532-2.672-.34-3.456.096-.392.277-.764.532-1.095a75.32 75.32 0 0 1-2.349-.165c-.135.29-.237.593-.303.901-.235 1.124 0 2.266.335 4.13.714 3.74-.154 5.132-.98 6.449a9.092 9.092 0 0 0-1.113 2.214h-.02Zm10.198 1.015h.687c.495 0 1.017 0 1.555-.028a33.38 33.38 0 0 0-.293-1.19 17.44 17.44 0 0 1-.415-7.822c.256-1.836.41-2.96.24-4.04a5.145 5.145 0 0 0-.41-1.37c-.8 0-1.598.034-2.392.034a4.3 4.3 0 0 1 .65 1.595c.128.821 0 1.86-.256 3.55a18.899 18.899 0 0 0 .464 8.473c.07.264.133.524.197.793l-.027.005Zm9.341-.68a132.51 132.51 0 0 0 2.173-.335 9.08 9.08 0 0 0-1.108-2.214c-.825-1.317-1.699-2.71-.98-6.448.357-1.888.57-3.007.33-4.13a4.413 4.413 0 0 0-.468-1.237c-.785.097-1.573.182-2.365.255.34.395.577.853.693 1.34.17.784 0 1.799-.341 3.456-.842 4.399.223 6.094 1.23 7.703a7.47 7.47 0 0 1 .836 1.61Zm7.535-1.416c.714-.17 1.417-.354 2.13-.543a11.31 11.31 0 0 0-.889-1.605c-.825-1.322-1.693-2.714-.98-6.448.357-1.888.57-3.012.33-4.135a4.463 4.463 0 0 0-.638-1.516c-.735.17-1.48.326-2.242.473.365.416.62.9.745 1.416.165.783-.026 1.798-.34 3.455-.847 4.4.218 6.094 1.224 7.704.26.39.487.795.682 1.213l-.022-.014Zm6.428-1.921a33.558 33.558 0 0 0 1.987-.817c-.219-.434-.464-.83-.72-1.232-.825-1.317-1.693-2.71-.98-6.448.358-1.865.57-3.012.336-4.13a4.58 4.58 0 0 0-.676-1.572c-.671.245-1.363.471-2.077.703.298.365.507.782.613 1.222.165.789 0 1.804-.341 3.46-.842 4.395.218 6.095 1.23 7.704.24.356.455.725.644 1.105l-.016.005Z" fill="#fff"/><path d="M41.112 78.396a.3.3 0 0 1 .073-.239.38.38 0 0 1 .241-.124c.095-.01.19.012.266.063a.315.315 0 0 1 .14.21c.244 1.563 2.21 3.15 5.596 4.575 3.387 1.425 8.127 2.648 13.985 3.512 9.122 1.34 14.123.255 18.884-.784.74-.16 1.47-.32 2.236-.472.453-.094 6.109-1.798 10.523-3.526 2.349-.944 4.32-1.841 4.895-2.492a.356.356 0 0 1 .111-.088.4.4 0 0 1 .29-.028.384.384 0 0 1 .131.064.295.295 0 0 1 .059.448c-.66.746-2.732 1.723-5.177 2.681-4.441 1.747-10.187 3.475-10.65 3.569-.73.146-1.47.307-2.221.472-4.836 1.053-9.906 2.157-19.172.793-5.932-.873-10.752-2.124-14.187-3.564-3.637-1.525-5.74-3.285-6.023-5.07Zm1.064-4.69a.461.461 0 0 1-.094-.168.429.429 0 0 1 .052-.365.503.503 0 0 1 .138-.142.61.61 0 0 1 .602-.038.529.529 0 0 1 .16.123c2.13 2.426 2.386 3.02 2.386 3.02a.432.432 0 0 1-.005.37.52.52 0 0 1-.299.259.61.61 0 0 1-.417-.005.516.516 0 0 1-.291-.264s-.203-.472-2.232-2.79ZM96.8 70.883a.515.515 0 0 1 .288-.268.61.61 0 0 1 .417-.008.522.522 0 0 1 .302.255c.059.118.062.25.01.37-1.236 2.833-2.333 4.013-2.338 4.017a.52.52 0 0 1-.162.124.582.582 0 0 1-.417.039.556.556 0 0 1-.188-.092.493.493 0 0 1-.138-.143.422.422 0 0 1-.043-.367.458.458 0 0 1 .101-.165s1.001-1.08 2.168-3.762ZM70.09 17.78a16.684 16.684 0 0 1 4.18-1.831c3.196-.888 6.567-.808 9.805-.274 5.394.887 11.114 4.98 14.73 8.497 3.344 3.228 6.699 7.619 7.652 11.985.062.435.072.875.032 1.312 0 .713-.09 1.416-.159 2.13a75.14 75.14 0 0 1-.799 5.857c-.277 1.567-3.366 12.165-5.017 11.575-.303-1.393-.868-4.419-1.597-5.83-1.55-2.922-3.888-5.665-7.04-7.336a28.452 28.452 0 0 0-5.326-2.213c-1.438-.43-2.902-.732-4.35-1.12-.43-.112-.851-.235-1.263-.367.027.037.048.075.07.113.457.765 1.064 1.912.297 2.681-.575.562-1.438.472-2.162.236-2.048-.683-3.909-1.745-5.458-3.115a13.318 13.318 0 0 1-3.243-4.136 13.235 13.235 0 0 1-3.01 3.928c-1.597 1.462-3.542 2.59-5.692 3.304-.724.227-1.598.326-2.162-.236-.805-.788-.128-1.987.346-2.766l.197-.312c-.873.274-1.763.515-2.663.756a43.13 43.13 0 0 0-5.011 1.562c-4.596 1.832-7.695 4.843-10.252 8.639-.063.099-2.662 5.334-2.534 7.014-1.545.354-5.166-9.79-5.198-9.889-.42-1.152-.841-2.299-1.257-3.45-.59-1.653-1.177-3.333-1.635-5.019-.282-1.066-.697-2.728-.447-3.809 1.22-5.263 6.279-10.305 10.88-13.58 4.052-2.89 9.378-5.609 14.554-6.411 3.446-.534 7.248-.586 10.545.566a11.3 11.3 0 0 1 2.987 1.54Z" fill="#0F0E0E"/><path d="M35.31 61.5c-1.56-6.179-3.75-14.332-3.327-17.013 1.923-11.889 14.77-25.533 24.698-27.732 9.353-2.075 12.916 2.893 13.297 3.464 1.971-1.735 5.796-5.396 13.998-3.463 8.203 1.932 19.823 16.502 21.639 28.391.284 1.885-4.956 23.474-7.812 24.311.523-6.02-36.335 17.365-62.493-7.958Z" fill="#C5C5C5"/><path d="M50.9 30.785a.596.596 0 0 1 .417.018.53.53 0 0 1 .17.115.461.461 0 0 1 .105.165c.1.25-.693.472-.975.557-2.535.783-4.793 1.68-7.674 2.299a33.262 33.262 0 0 1-8.244.882.59.59 0 0 1-.201-.045.533.533 0 0 1-.167-.111.43.43 0 0 1-.084-.52.483.483 0 0 1 .126-.148.577.577 0 0 1 .385-.12 32.037 32.037 0 0 0 7.935-.859c2.822-.623 5.693-1.454 8.206-2.233Zm33.175.783a.535.535 0 0 1-.174-.11.467.467 0 0 1-.112-.162.424.424 0 0 1 .025-.37c.128-.241.58 0 .852.108 2.13.883 5.65 1.51 9.117 1.93 2.663.317 5.15.322 6.726-.287a.593.593 0 0 1 .595.093.469.469 0 0 1 .118.157.427.427 0 0 1 .011.37.47.47 0 0 1-.116.158.543.543 0 0 1-.177.105c-1.778.684-4.49.698-7.3.358-3.293-.4-6.51-1.19-9.565-2.35Z" fill="#0F0E0E"/><path d="M61.39 24.385a.57.57 0 0 1 .373-.164.589.589 0 0 1 .394.117.464.464 0 0 1 .186.33.448.448 0 0 1-.133.35 24.802 24.802 0 0 1-6.48 4.678 39.502 39.502 0 0 1-8.33 3.05c-2.055.518-2.971.353-3.158-.232-.287-.892 2.104-2.69 4.154-4.249a18.107 18.107 0 0 0 2.482-2.03.541.541 0 0 1 .328-.23c.14-.036.29-.02.417.042a.501.501 0 0 1 .261.291.437.437 0 0 1-.048.37c-.282.472-1.443 1.326-2.737 2.303-1.805 1.36-3.903 2.941-3.807 3.234 0 0 .532-.104 1.81-.434a38.68 38.68 0 0 0 8.084-2.937 23.913 23.913 0 0 0 6.204-4.489Zm13.038 1.369a.448.448 0 0 1-.13-.35.466.466 0 0 1 .189-.33.59.59 0 0 1 .395-.115.57.57 0 0 1 .371.167 22.444 22.444 0 0 0 6.263 4.437 36.857 36.857 0 0 0 8.233 2.79c.6.157 1.21.283 1.827.378.09-.307-2.002-1.822-3.797-3.12-1.3-.945-2.46-1.78-2.743-2.233a.431.431 0 0 1-.049-.368.466.466 0 0 1 .097-.168.54.54 0 0 1 .163-.123.598.598 0 0 1 .604.043c.057.04.103.088.139.144a17.645 17.645 0 0 0 2.47 1.95c2.05 1.482 4.431 3.204 4.176 4.106-.17.595-1.066.788-3.153.326a38.295 38.295 0 0 1-8.489-2.884c-2.482-1.193-4.705-2.768-6.566-4.65Zm3.015 45.932a.366.366 0 0 1-.22-.149.294.294 0 0 1-.04-.243.34.34 0 0 1 .17-.195.414.414 0 0 1 .277-.036c1.173.28 2.367.486 3.573.614 1.175.124 2.359.168 3.541.132a.406.406 0 0 1 .26.086.326.326 0 0 1 .083.101.29.29 0 0 1-.064.353.363.363 0 0 1-.114.073.402.402 0 0 1-.138.029 28.104 28.104 0 0 1-7.328-.765ZM39.352 85.027c0-.126.056-.246.156-.334a.57.57 0 0 1 .376-.138.57.57 0 0 1 .377.138c.1.088.156.209.156.334.069 3.082 2.29 9.054 2.295 9.073a.43.43 0 0 1-.033.367.496.496 0 0 1-.131.147.609.609 0 0 1-.6.063.537.537 0 0 1-.166-.116.47.47 0 0 1-.103-.164s-2.232-6.137-2.327-9.37Zm61.56-1.044a.45.45 0 0 1 .009-.187.456.456 0 0 1 .089-.169.516.516 0 0 1 .155-.126.577.577 0 0 1 .407-.056.573.573 0 0 1 .191.079.495.495 0 0 1 .142.137.43.43 0 0 1 .072.175c.533 3.21-.074 8.889-.079 8.903a.441.441 0 0 1-.058.182.481.481 0 0 1-.134.147.558.558 0 0 1-.187.089.602.602 0 0 1-.213.016.583.583 0 0 1-.206-.051.515.515 0 0 1-.166-.12.454.454 0 0 1-.1-.168.407.407 0 0 1-.017-.19s.633-5.56.095-8.662ZM18.58 101.712a.409.409 0 0 1-.275.032.399.399 0 0 1-.127-.055.335.335 0 0 1-.094-.095.292.292 0 0 1-.031-.244.337.337 0 0 1 .17-.195c1.693-.849 3.925-1.18 6.06-1.213 3.132-.047 6.092.557 6.785 1.048.04.026.072.058.097.095a.284.284 0 0 1 .037.25.312.312 0 0 1-.066.115.345.345 0 0 1-.111.082.412.412 0 0 1-.284.022.362.362 0 0 1-.126-.064c-.602-.429-3.344-.944-6.321-.906-2.03.033-4.117.335-5.714 1.128Zm92.353-1.588a.394.394 0 0 1-.402-.024.32.32 0 0 1-.138-.214.282.282 0 0 1 .011-.125.32.32 0 0 1 .064-.112.37.37 0 0 1 .108-.082c2.163-1.09 5.022-1.506 7.754-1.548 4.016-.067 7.802.703 8.681 1.326a.342.342 0 0 1 .107.093.31.31 0 0 1 .056.125.3.3 0 0 1-.006.133.321.321 0 0 1-.067.12.363.363 0 0 1-.116.085.402.402 0 0 1-.422-.055c-.793-.562-4.361-1.247-8.222-1.185-2.62.037-5.363.434-7.408 1.463Z" fill="#0F0E0E"/><path d="M69.708.646c12.871 0 23.304 7.552 23.304 16.842S82.569 34.331 69.708 34.331c-12.861 0-23.31-7.553-23.31-16.843S56.826.646 69.708.646Z" fill="#0F0E0E"/><path d="M69.702 1.613c-12.248 0-22.218 7.081-22.218 15.875s9.948 15.875 22.218 15.875 22.207-7.109 22.207-15.875S81.95 1.613 69.702 1.613Z" fill="#C5C5C5"/><path d="M69.704 1.613c-8.643 0-16.131 3.522-19.806 8.672 3.675 2.138 11.184 3.606 19.806 3.606 8.622 0 16.125-1.468 19.8-3.606-3.686-5.15-11.173-8.672-19.8-8.672Z" fill="#fff"/><path d="M68.95 1.624c-.378 0-.75.024-1.124.047l-.958.746c-2.77 2.167-4.228 5.301-4.926 8.497-1.166 5.33-.181 10.857.26 12.146-.46.04-.923.04-1.384 0a12.406 12.406 0 0 1-3.35-.756c-2.31-.887-4.436-2.68-3.855-6.032.747-3.86 2.638-7.476 5.48-10.475a20.832 20.832 0 0 1 4.233-3.536c-.633.137-1.262.293-1.869.472a22.453 22.453 0 0 0-2.923 2.615c-2.928 3.09-4.876 6.815-5.645 10.792-.645 3.729 1.714 5.725 4.287 6.717a13.31 13.31 0 0 0 3.568.802c1.107.09 1.954-.038 2.13-.245a.344.344 0 0 0 .096-.236.344.344 0 0 0-.096-.236c-.325-.425-1.513-6.231-.266-11.92.67-3.058 2.06-6.065 4.691-8.128.613-.472 1.14-.897 1.598-1.27h.053Zm8.803 1.062a32.868 32.868 0 0 0-1.598-.396c2.411 1.777 4.465 3.903 6.077 6.287 1.772 2.531 2.92 5.366 3.37 8.318.618 4.626.533 5.631.49 5.844-1.022.302-7.716 1.959-7.716-6.335-.029-5.263-1.93-10.384-5.432-14.634a32.995 32.995 0 0 0-.985-.085c3.671 4.225 5.67 9.405 5.688 14.738 0 9.913 8.802 6.906 8.83 6.896a.36.36 0 0 0 .183-.136.296.296 0 0 0 .05-.208c.096-.472.17-1.95-.383-6.137-.463-3.047-1.647-5.972-3.472-8.586a26.497 26.497 0 0 0-5.102-5.566Z" fill="#AFB0B0"/><path d="M107.712 182.674c.784-1.852.816-2.987 1.285-4.862 0 0 .524-.896 1.307-.463.283.251 2.113 1.621-4.945 15.281 0 .926-5.82 1.174-6.298.926-.228-.123-1.565-.463-1.827-3.24.15-.361 6.617.151 7.602-.696 0 0 1.569.463 2.876-6.946Zm-69.208-6.931s-.53-.893-1.387-.412c-.314.271-3.141 1.798 3.935 15.446-.035.949 7.022.886 7.543.609.25-.137 1.7-.549 2.085-3.405-.147-.364-7.118.473-8.144-.347-2.228.719-3.508-9.598-4.032-11.891Z" fill="#7C6052" stroke="#000" stroke-width="1.046" stroke-linejoin="round"/><path d="M63.312 26.1c3.243-1.473 3.61-1.1 2.503 0-1.267 1.27-4.473 3.493-7.52 5.008-.399.198-.793.383-1.176.552l-.155.067c-3.882 1.661-1.246 1.774 2.264.802a40.875 40.875 0 0 0 1.597-.472 16.216 16.216 0 0 0 3.909-1.945c2.524-1.789 3.728-3.115 4.26-3.913a2.81 2.81 0 0 0 .458-.864c.131.322.282.637.453.944 1.114 2.13 2.894 3.932 5.128 5.193 3.036 1.623.943-2.167-.388-4.3a36.419 36.419 0 0 0-.863-1.332 72.609 72.609 0 0 0 10.182 3.8c.426.13.857.252 1.294.368A59.904 59.904 0 0 0 95.52 31.94c.42.043.847.075 1.273.1a39.39 39.39 0 0 0 4.979 0 22.266 22.266 0 0 0 1.848-.194c-2.37-4.249-6.56-8.46-10.986-11.415-.32-.212-.644-.424-.97-.623-2.662-1.656-5.373-2.832-7.78-3.214-5.08-.836-8.467-.166-10.773.75-.598.236-1.176.51-1.73.817-.56.307-1.023.6-1.412.835a6.121 6.121 0 0 0-1.22-.944 10.99 10.99 0 0 0-2.002-.944c-2.098-.736-5.325-1.246-9.996-.524a30.2 30.2 0 0 0-9.053 3.144c-.336.17-.666.35-.996.534-4.622 2.558-8.925 6.136-11.679 9.851 2.42.436 4.894.595 7.36.472.415 0 .83-.038 1.246-.066a68.608 68.608 0 0 0 9.325-1.293c.442-.095.89-.19 1.32-.288a68.715 68.715 0 0 0 2.504-.614c1.68-.435 3.33-.955 4.942-1.558.57-.231 1.097-.43 1.592-.665Z" fill="#fff"/></g></svg>