<svg width="151" height="38" fill="none" xmlns="http://www.w3.org/2000/svg"><rect x=".324" y=".82" width="150.368" height="36.359" rx="5.854" stroke="#fff" stroke-width=".616"/><path fill-rule="evenodd" clip-rule="evenodd" d="M128.89 17.019a.718.718 0 0 1 1.016 0l3.566 3.566 3.566-3.566a.725.725 0 0 1 .796-.177.73.73 0 0 1 .397.398.717.717 0 0 1-.177.795l-4.074 4.074a.719.719 0 0 1-1.016 0l-4.074-4.074a.717.717 0 0 1 0-1.016Z" fill="#fff"/><path d="M17.56 24.755V14.77h1.394v4.438h.517l1.787-4.438h1.393l-1.972 4.746 2.219 5.238h-1.393l-2.021-4.869h-.53v4.869H17.56Zm6.235 0V17.63h1.319v7.124h-1.319Zm0-8.184v-1.38h1.319v1.38h-1.319Zm2.274 8.245v-.998c.247 0 .44-.05.58-.148.148-.098.258-.263.332-.493a4.39 4.39 0 0 0 .185-.949c.041-.402.078-.904.111-1.504l.16-3.093h3.735v7.124h-1.319v-6.126h-1.257l-.111 2.095a20.525 20.525 0 0 1-.185 2.022c-.074.534-.193.953-.357 1.257a1.404 1.404 0 0 1-.666.629c-.271.123-.624.184-1.06.184h-.148Zm6.438-.061V17.63h1.32v2.946h.209c.484.008.895.045 1.232.11.345.058.625.165.838.321.214.148.37.357.469.629.098.262.148.604.148 1.023 0 .386-.05.715-.148.986a1.385 1.385 0 0 1-.481.64c-.222.165-.514.284-.875.358-.362.074-.801.11-1.319.11h-1.393Zm1.32-.777h.073c.42 0 .748-.037.986-.11.238-.074.407-.206.505-.395.1-.197.148-.472.148-.826 0-.32-.045-.57-.135-.752-.082-.189-.239-.324-.469-.406-.221-.09-.546-.136-.973-.136h-.136v2.625Zm3.796.777V17.63h1.319v3.007h.37l1.343-3.007h1.356l-1.492 3.451 1.516 3.673h-1.38l-1.344-3.328h-.37v3.328h-1.318Zm5.202 0V17.63h1.318v7.124h-1.318Zm0-8.184v-1.38h1.318v1.38h-1.318Zm4.677 8.282c-.583 0-1.027-.115-1.33-.345-.297-.238-.498-.57-.605-.998a6.683 6.683 0 0 1-.148-1.491v-1.64c0-.6.054-1.109.16-1.528.107-.427.309-.752.604-.974.304-.23.744-.345 1.32-.345.517 0 .915.087 1.195.26.287.163.485.414.591.751.107.329.16.74.16 1.233v.419h-1.195v-.432c0-.312-.02-.559-.062-.74-.04-.18-.115-.312-.221-.394-.107-.082-.26-.123-.456-.123-.214 0-.378.05-.493.148-.115.099-.194.267-.235.505-.032.23-.049.547-.049.95v2.242c0 .608.058 1.015.173 1.22.115.206.32.309.616.309.222 0 .382-.05.48-.148a.742.742 0 0 0 .198-.444 3.77 3.77 0 0 0 .05-.64v-.58h1.195v.493c0 .477-.058.887-.173 1.233a1.378 1.378 0 0 1-.592.788c-.279.181-.673.271-1.183.271Zm3.921-.098v-6.138h-1.33v-.986h3.992v.986h-1.343v6.138h-1.319Zm3.46 0V17.63h1.319v2.946h.209c.485.008.896.045 1.233.11.345.058.624.165.838.321.214.148.37.357.468.629.099.262.148.604.148 1.023 0 .386-.049.715-.148.986a1.386 1.386 0 0 1-.48.64c-.222.165-.514.284-.875.358-.362.074-.802.11-1.32.11h-1.392Zm1.319-.777h.074c.419 0 .747-.037.986-.11.238-.074.407-.206.505-.395.099-.197.148-.472.148-.826 0-.32-.045-.57-.136-.752-.082-.189-.238-.324-.468-.406-.222-.09-.546-.136-.974-.136h-.135v2.625Zm8.597.875c-.41 0-.768-.09-1.072-.27a1.836 1.836 0 0 1-.702-.826c-.157-.37-.235-.826-.235-1.369v-4.19c0-.625.046-1.134.136-1.529.099-.394.25-.706.456-.936.205-.23.472-.411.801-.543a5.61 5.61 0 0 1 .924-.295c.272-.058.53-.12.777-.185.255-.074.513-.19.776-.345l.272 1.097c-.23.148-.485.258-.764.332-.272.066-.543.128-.814.185-.271.05-.526.132-.764.247a1.235 1.235 0 0 0-.555.53c-.131.23-.197.55-.197.961v1.146c.107-.106.247-.205.42-.295a3.07 3.07 0 0 1 .554-.247c.205-.066.398-.099.579-.099.296 0 .567.079.813.235.247.156.444.423.592.8.148.37.222.876.222 1.517v1.356c0 .747-.095 1.318-.284 1.713-.189.386-.451.653-.788.801-.33.14-.711.21-1.147.21Zm.124-.973a.69.69 0 0 0 .431-.123c.115-.09.197-.235.246-.432.058-.197.087-.46.087-.789V20.38c0-.304-.02-.546-.062-.727-.04-.18-.107-.312-.197-.394a.5.5 0 0 0-.37-.136.982.982 0 0 0-.283.05 1.588 1.588 0 0 0-.32.123c-.108.05-.223.115-.346.197v2.933c0 .345.025.625.074.838.058.214.144.37.259.469a.746.746 0 0 0 .48.148Zm5.256.974c-.526 0-.94-.107-1.245-.321a1.753 1.753 0 0 1-.653-.912c-.123-.394-.185-.859-.185-1.393v-2.07c0-.535.062-.999.185-1.393a1.75 1.75 0 0 1 .653-.912c.304-.214.72-.32 1.245-.32.526 0 .937.106 1.233.32.304.213.517.517.64.912.132.394.198.858.198 1.393v2.07c0 .534-.066.999-.198 1.393-.123.394-.336.698-.64.912-.296.214-.707.32-1.233.32Zm0-.974c.255 0 .431-.074.53-.222a1.1 1.1 0 0 0 .185-.58c.025-.246.037-.5.037-.764v-2.23c0-.271-.012-.526-.037-.765a1.1 1.1 0 0 0-.185-.579c-.099-.156-.275-.234-.53-.234s-.435.078-.542.234a1.182 1.182 0 0 0-.198.58c-.016.238-.024.492-.024.764v2.23c0 .263.008.518.024.765.025.238.09.431.198.579.107.148.287.222.542.222Zm3.24.875.073-7.124h.974l1.578 4.375 1.59-4.375h.973l.074 7.124h-1.11v-4.252l-1.318 3.55h-.407l-1.319-3.526v4.228h-1.109Zm8.544.099c-.41 0-.768-.09-1.072-.272a1.835 1.835 0 0 1-.703-.826c-.156-.37-.234-.825-.234-1.368v-4.19c0-.625.045-1.134.136-1.529.098-.394.25-.706.456-.936.205-.23.472-.411.801-.543a5.61 5.61 0 0 1 .924-.295c.272-.058.53-.12.777-.185.255-.074.513-.19.776-.345l.272 1.097c-.23.148-.485.258-.765.332-.27.066-.542.128-.813.185-.271.05-.526.132-.764.247a1.234 1.234 0 0 0-.555.53c-.131.23-.197.55-.197.961v1.146c.107-.106.246-.205.419-.295.172-.099.357-.181.555-.247.205-.066.398-.099.579-.099.296 0 .567.079.813.235.247.156.444.423.592.8.148.37.222.876.222 1.517v1.356c0 .747-.095 1.318-.284 1.713-.189.386-.452.653-.788.801-.33.14-.711.21-1.147.21Zm.124-.974a.69.69 0 0 0 .43-.123c.116-.09.198-.235.247-.432.058-.197.087-.46.087-.789V20.38c0-.304-.02-.546-.062-.727-.041-.18-.107-.312-.197-.394a.5.5 0 0 0-.37-.136.982.982 0 0 0-.283.05 1.591 1.591 0 0 0-.32.123 2.58 2.58 0 0 0-.346.197v2.933c0 .345.025.625.074.838.058.214.144.37.259.469a.746.746 0 0 0 .48.148Zm3.37-4.24v-1.405h1.331v1.405h-1.33Zm0 3.932v-1.405h1.331v1.405h-1.33Zm9.433 1.183v-8.258a1.957 1.957 0 0 1-.284.074c-.172.041-.37.082-.591.123l-.592.111c-.173.033-.263.05-.271.05v-.999c.14-.033.3-.078.48-.136a5.26 5.26 0 0 0 .567-.21c.198-.081.383-.184.555-.307a1.9 1.9 0 0 0 .456-.432h.998v9.984H94.89Z" fill="#fff"/><path opacity=".3" stroke="#fff" stroke-width=".616" d="M114.949 4.825v28.348"/></svg>