<svg width="151" height="38" fill="none" xmlns="http://www.w3.org/2000/svg"><rect x=".324" y=".82" width="150.368" height="36.359" rx="5.854" stroke="#fff" stroke-width=".616"/><path fill-rule="evenodd" clip-rule="evenodd" d="M128.89 17.019a.718.718 0 0 1 1.016 0l3.566 3.566 3.566-3.566a.725.725 0 0 1 .796-.177.73.73 0 0 1 .397.398.717.717 0 0 1-.177.795l-4.074 4.074a.719.719 0 0 1-1.016 0l-4.074-4.074a.717.717 0 0 1 0-1.016Z" fill="#fff"/><path d="M11.71 24.755V14.77h.95l2.835 6.631v-6.63h1.158v9.983h-.887l-2.872-6.816v6.816H11.71Zm7.424.099c-.279 0-.497-.075-.653-.222a1.227 1.227 0 0 1-.333-.555 2.691 2.691 0 0 1-.086-.678v-5.768h1.319v5.374c0 .254.037.456.11.604.075.14.227.21.457.21.148 0 .3-.042.456-.124.164-.09.32-.197.468-.32V17.63h1.32v7.124h-1.32v-.703c-.23.222-.493.411-.789.567a1.957 1.957 0 0 1-.949.235Zm4.406-.1v-7.123h1.22v.678c.238-.271.501-.473.789-.604a2.1 2.1 0 0 1 .887-.197c.263 0 .497.065.703.197.213.131.365.366.456.702.255-.312.53-.538.826-.677.304-.148.62-.222.949-.222.23 0 .44.057.628.172.19.107.341.284.456.53.115.238.173.555.173.95v5.595h-1.208v-5.51c0-.345-.058-.575-.173-.69a.556.556 0 0 0-.443-.185 1.2 1.2 0 0 0-.567.16 1.855 1.855 0 0 0-.543.42v5.805h-1.208v-5.51c0-.345-.057-.575-.172-.69a.556.556 0 0 0-.444-.185c-.18 0-.37.054-.567.16-.189.1-.37.239-.542.42v5.805h-1.22Zm10.928.1a1.32 1.32 0 0 1-.69-.185 3.007 3.007 0 0 1-.517-.432v.518h-1.32V14.77h1.32v3.427c.156-.18.34-.337.554-.468.222-.132.485-.198.789-.198.37 0 .662.099.875.296.222.19.386.431.493.727.107.288.177.584.21.888.032.295.049.55.049.764v1.725c0 .502-.05.978-.148 1.43-.099.444-.275.805-.53 1.085-.255.27-.616.407-1.084.407Zm-.27-1.036c.23 0 .394-.082.492-.246.099-.173.16-.403.185-.69.025-.288.037-.605.037-.95v-1.725c0-.296-.016-.567-.05-.814-.032-.254-.102-.456-.209-.604-.106-.147-.275-.221-.505-.221-.173 0-.337.037-.493.11a2.31 2.31 0 0 0-.394.247v4.573c.115.09.25.168.406.234.165.057.341.086.53.086Zm5.204 1.035c-.559 0-.99-.106-1.294-.32-.304-.222-.518-.542-.641-.961-.115-.428-.173-.95-.173-1.566V20.38c0-.632.062-1.158.185-1.577.123-.42.337-.736.641-.95.312-.213.74-.32 1.282-.32.6 0 1.04.123 1.319.37.287.246.476.604.567 1.072.09.46.135 1.015.135 1.664v.58h-2.81v1.43c0 .287.025.521.074.702.058.18.144.316.259.406.123.083.28.124.468.124.197 0 .345-.045.444-.136a.718.718 0 0 0 .21-.407c.04-.18.061-.39.061-.628v-.431h1.282v.27c0 .716-.152 1.278-.456 1.69-.304.41-.822.616-1.553.616Zm-.789-4.35h1.516v-.641c0-.296-.016-.543-.05-.74-.032-.205-.102-.357-.209-.456-.098-.107-.259-.16-.48-.16-.214 0-.379.05-.493.148-.107.099-.181.267-.222.505-.041.23-.062.55-.062.962v.382Zm4.041 4.252V17.63h1.32v1.01c.262-.435.525-.727.788-.874.263-.148.526-.222.789-.222h.086c.033 0 .074.004.123.012v1.454a1.73 1.73 0 0 0-.345-.098 1.475 1.475 0 0 0-.382-.05c-.205 0-.394.05-.567.148-.164.09-.328.271-.493.543v5.2h-1.319Zm8.7.099c-.526 0-.941-.107-1.245-.321a1.753 1.753 0 0 1-.653-.912c-.124-.394-.185-.859-.185-1.393v-2.07c0-.535.061-.999.185-1.393.131-.395.349-.699.653-.912.304-.214.719-.32 1.245-.32.526 0 .936.106 1.232.32.304.213.518.517.641.912.132.394.197.858.197 1.393v2.07c0 .534-.065.999-.197 1.393a1.696 1.696 0 0 1-.64.912c-.297.214-.708.32-1.233.32Zm0-.974c.254 0 .431-.074.53-.222a1.1 1.1 0 0 0 .184-.58c.025-.246.038-.5.038-.764v-2.23c0-.271-.013-.526-.038-.765a1.1 1.1 0 0 0-.184-.579c-.099-.156-.276-.234-.53-.234-.255 0-.436.078-.543.234a1.18 1.18 0 0 0-.197.58c-.016.238-.024.492-.024.764v2.23c0 .263.008.518.024.765.025.238.09.431.197.579.107.148.288.222.543.222Zm3.695.875v-6.15h-.85v-.974h.85v-.37c0-.444.033-.822.098-1.134.074-.32.222-.567.444-.74.222-.172.555-.258.998-.258.165 0 .309.008.432.024.131.009.275.03.431.062v.962a1.965 1.965 0 0 0-.246-.037 1.392 1.392 0 0 0-.247-.025c-.255 0-.419.086-.493.259-.066.164-.098.386-.098.665v.592h1.084v.974h-1.084v6.15h-1.32Zm8.487.099c-.254 0-.485-.062-.69-.185a3.008 3.008 0 0 1-.518-.432v.518H61.01V14.77h1.318v3.427c.157-.18.341-.337.555-.468.222-.132.485-.198.789-.198.37 0 .661.099.875.296.222.19.386.431.493.727.107.288.177.584.21.888.032.295.049.55.049.764v1.725c0 .502-.05.978-.148 1.43-.099.444-.275.805-.53 1.085-.255.27-.616.407-1.085.407Zm-.27-1.036c.23 0 .394-.082.492-.246.099-.173.16-.403.185-.69.025-.288.037-.605.037-.95v-1.725c0-.296-.016-.567-.05-.814-.032-.254-.102-.456-.209-.604-.107-.147-.275-.221-.505-.221-.173 0-.337.037-.493.11-.148.075-.28.157-.395.247v4.573c.115.09.251.168.407.234.165.057.341.086.53.086Zm5.191 1.035c-.525 0-.94-.106-1.244-.32-.304-.214-.522-.518-.654-.912-.123-.394-.185-.859-.185-1.393v-2.07c0-.535.062-.999.185-1.393.132-.395.35-.699.654-.912.303-.214.719-.32 1.244-.32.526 0 .937.106 1.233.32.304.213.518.517.64.912.132.394.198.858.198 1.393v2.07c0 .534-.066.999-.197 1.393a1.692 1.692 0 0 1-.641.912c-.296.214-.707.32-1.233.32Zm0-.973c.255 0 .432-.074.53-.222a1.1 1.1 0 0 0 .185-.58c.025-.246.037-.5.037-.764v-2.23c0-.271-.012-.526-.037-.765a1.1 1.1 0 0 0-.185-.579c-.098-.156-.275-.234-.53-.234-.254 0-.435.078-.542.234a1.181 1.181 0 0 0-.197.58c-.017.238-.025.492-.025.764v2.23c0 .263.008.518.025.765.025.238.09.431.197.579.107.148.288.222.542.222Zm3.277.875V17.63h1.22v.678c.238-.271.5-.473.789-.604a2.1 2.1 0 0 1 .887-.197c.263 0 .497.065.703.197.213.131.365.366.456.702.254-.312.53-.538.825-.677.304-.148.62-.222.95-.222.23 0 .439.057.628.172.189.107.34.284.456.53.115.238.172.555.172.95v5.595h-1.207v-5.51c0-.345-.058-.575-.173-.69a.556.556 0 0 0-.444-.185c-.18 0-.37.054-.567.16a1.853 1.853 0 0 0-.542.42v5.805H74.68v-5.51c0-.345-.057-.575-.172-.69a.556.556 0 0 0-.444-.185c-.18 0-.37.054-.567.16-.189.1-.37.239-.542.42v5.805h-1.22Zm10.928.099c-.255 0-.485-.062-.69-.185a3.007 3.007 0 0 1-.518-.432v.518h-1.319V14.77h1.32v3.427c.155-.18.34-.337.554-.468.222-.132.485-.198.789-.198.37 0 .661.099.875.296.222.19.386.431.493.727.107.288.177.584.21.888.032.295.049.55.049.764v1.725c0 .502-.05.978-.148 1.43-.099.444-.276.805-.53 1.085-.255.27-.617.407-1.085.407Zm-.271-1.036c.23 0 .394-.082.493-.246.099-.173.16-.403.185-.69.025-.288.037-.605.037-.95v-1.725c0-.296-.017-.567-.05-.814-.032-.254-.102-.456-.209-.604-.107-.147-.275-.221-.505-.221-.173 0-.337.037-.493.11a2.31 2.31 0 0 0-.395.247v4.573c.115.09.25.168.407.234.164.057.341.086.53.086Zm4.884 1.035c-.583 0-1.052-.18-1.405-.542-.353-.37-.555-.854-.604-1.454l1.097-.333c.066.452.177.793.333 1.023.156.222.386.333.69.333.238 0 .419-.066.542-.197.124-.14.185-.325.185-.555 0-.206-.045-.39-.135-.555a1.86 1.86 0 0 0-.444-.505l-1.22-1.048a3.443 3.443 0 0 1-.629-.715c-.164-.262-.246-.604-.246-1.023 0-.378.074-.694.221-.949.157-.262.37-.46.641-.591.28-.14.604-.21.974-.21.567 0 .998.185 1.294.555.304.361.477.801.518 1.319l-.888.332a3.069 3.069 0 0 0-.147-.64.975.975 0 0 0-.272-.432.644.644 0 0 0-.456-.16.66.66 0 0 0-.517.222.737.737 0 0 0-.185.505c0 .123.025.247.074.37.057.115.152.23.283.345l1.257 1.159c.173.156.333.324.481.505.156.18.284.386.382.616.099.23.148.497.148.801 0 .403-.082.74-.246 1.011a1.572 1.572 0 0 1-.69.616 2.53 2.53 0 0 1-1.036.198Zm3.032-5.213v-1.405h1.331v1.405h-1.33Zm0 3.932v-1.405h1.331v1.405h-1.33Zm9.433 1.183v-8.258a1.956 1.956 0 0 1-.284.074c-.172.041-.37.082-.591.123l-.592.111c-.172.033-.263.05-.271.05v-.999c.14-.033.3-.078.48-.136.19-.057.379-.127.568-.21.197-.081.382-.184.554-.307.181-.123.333-.267.456-.432h.999v9.984h-1.32Z" fill="#fff"/><path opacity=".3" stroke="#fff" stroke-width=".616" d="M114.949 4.825v28.348"/></svg>