<svg width="152" height="42" fill="none" xmlns="http://www.w3.org/2000/svg"><rect x=".29" y=".984" width="151.42" height="40.031" rx="5.511" stroke="#fff" stroke-width=".58"/><path opacity=".3" stroke="#fff" stroke-width=".58" d="M32.892 7.656v26.687m80.992-26.687v26.687"/><path d="M68.502 30.2c-.988 0-1.807-.203-2.457-.609a3.797 3.797 0 0 1-1.462-1.665c-.325-.717-.487-1.543-.487-2.477v-7.371c0-.961.156-1.8.467-2.518.311-.73.792-1.3 1.442-1.706.65-.406 1.482-.609 2.497-.609 1.002 0 1.82.203 2.457.61a3.64 3.64 0 0 1 1.442 1.705c.311.718.467 1.557.467 2.518v7.37c0 .935-.163 1.76-.487 2.478a3.797 3.797 0 0 1-1.463 1.665c-.65.406-1.455.61-2.416.61Zm0-2.761c.366 0 .63-.115.792-.345.163-.23.27-.501.325-.813.054-.325.081-.622.081-.893v-7.25c0-.297-.027-.608-.081-.933a1.806 1.806 0 0 0-.305-.833c-.162-.243-.433-.365-.812-.365-.379 0-.656.122-.832.365a1.99 1.99 0 0 0-.325.833c-.04.325-.061.636-.061.934v7.249c0 .27.027.568.081.893.054.312.17.582.345.813.176.23.44.345.792.345Z" fill="#fff"/><path opacity=".5" d="M88.383 31.073v-1.27c-1.263-.024-2.201-.435-2.815-1.232-.613-.798-.95-1.828-1.012-3.092l1.84-.496a8.82 8.82 0 0 0 .24 1.527c.134.49.349.895.643 1.214.295.307.706.46 1.233.46.54 0 .945-.147 1.215-.441.282-.307.423-.743.423-1.307 0-.675-.154-1.214-.46-1.62a8.287 8.287 0 0 0-1.16-1.25l-2.502-2.208a5.586 5.586 0 0 1-.81-.92 3.879 3.879 0 0 1-.478-1.05 5.47 5.47 0 0 1-.147-1.324c0-1.067.3-1.895.901-2.484.602-.601 1.417-.92 2.448-.957V13.39h.644v1.233c.515.037.963.147 1.343.331.393.172.718.417.975.736.27.32.479.712.626 1.178.16.454.264.987.313 1.6l-1.767.48a7.52 7.52 0 0 0-.22-1.363c-.111-.429-.307-.772-.59-1.03-.27-.258-.662-.368-1.177-.331-.515.037-.92.184-1.215.441-.282.258-.423.657-.423 1.196 0 .454.074.828.221 1.123.16.282.411.583.755.901l2.52 2.209c.368.33.712.705 1.03 1.122.332.405.596.859.792 1.362a4.38 4.38 0 0 1 .313 1.692c0 .675-.129 1.27-.386 1.785a3.01 3.01 0 0 1-1.086 1.196c-.454.295-.988.473-1.601.534v1.288h-.626Z" fill="#fff"/><path opacity=".8" stroke="#fff" stroke-width="1.74" d="M11.703 20.71h9.283m107.795.387h9.283m-4.506-4.738v9.283"/></svg>