<svg width="24" height="18" fill="none" xmlns="http://www.w3.org/2000/svg"><g clip-path="url(#a)"><mask id="b" style="mask-type:luminance" maskUnits="userSpaceOnUse" x="0" y="0" width="24" height="18"><path d="M0 0h24v18H0V0Z" fill="#fff"/></mask><g mask="url(#b)"><mask id="c" style="mask-type:luminance" maskUnits="userSpaceOnUse" x="0" y="0" width="24" height="18"><path d="M.29 0h23.323v18H.29V0Z" fill="#fff"/></mask><g mask="url(#c)"><path d="M23.536 14.325a3.602 3.602 0 0 1-3.597 3.597H.367V3.675A3.602 3.602 0 0 1 3.964.078h19.572v14.247Z" fill="#0E1830"/><path d="M17.164 10.67h1.487c.043 0 .142-.014.184-.014a.664.664 0 0 0 .525-.664.688.688 0 0 0-.524-.666c-.043-.014-.128-.014-.185-.014h-1.487v1.359Z" fill="#0A101F"/><path d="M18.484 1.28a2.578 2.578 0 0 0-2.578 2.578v2.676h3.64c.085 0 .184 0 .255.015.82.042 1.43.467 1.43 1.203 0 .581-.41 1.077-1.175 1.176v.028c.835.057 1.472.524 1.472 1.246 0 .78-.708 1.29-1.642 1.29H15.89v5.24h3.78a2.579 2.579 0 0 0 2.579-2.578V1.28h-3.767v.001Z" fill="#0A101F"/><path d="M19.173 7.922c0-.34-.24-.566-.524-.609-.028 0-.1-.014-.141-.014h-1.346v1.247h1.346c.042 0 .127 0 .14-.015a.603.603 0 0 0 .525-.609ZM4.232 1.28a2.578 2.578 0 0 0-2.577 2.58v6.358c.722.354 1.473.58 2.223.58.892 0 1.374-.538 1.374-1.274V6.52h2.21v2.99c0 1.16-.723 2.11-3.173 2.11-.893 0-1.782-.109-2.648-.326v5.424h3.78A2.577 2.577 0 0 0 8 14.14V1.28H4.232Zm7.124 0a2.578 2.578 0 0 0-2.578 2.58v3.37c.652-.553 1.785-.907 3.612-.822.977.042 2.025.312 2.025.312v1.09a4.903 4.903 0 0 0-1.954-.566c-1.388-.1-2.224.58-2.224 1.77 0 1.204.836 1.884 2.224 1.77.807-.057 1.43-.31 1.954-.566v1.09s-1.034.27-2.025.312c-1.827.085-2.96-.27-3.612-.822v5.95h3.782a2.577 2.577 0 0 0 2.577-2.579V1.28h-3.781v.001Z" fill="#0A101F"/></g></g></g><defs><clipPath id="a"><path fill="#fff" d="M0 0h24v18H0z"/></clipPath></defs></svg>