<svg viewBox="0 0 40 39" fill="none" xmlns="http://www.w3.org/2000/svg"><path fill-rule="evenodd" clip-rule="evenodd" d="M19.964.263c0 .31-.153.372-.93.374-.52 0-.522.002-.522.276 0 .275.001.276.492.26.613-.02 1.02.142 1.191.475.16.31.167.545.027.852-.185.409-.503.54-1.4.581l-.826.038-.06-.845a26.177 26.177 0 0 1-.06-1.508V.102l.341-.036c.187-.02.657-.042 1.044-.05L19.964 0v.263Zm1.78-.141c.007.008.104.281.216.607.313.907.294.902.716.19.324-.548.419-.645.627-.644.529.003.51.097-.253 1.28-.955 1.481-1.265 1.747-1.861 1.597-.178-.045-.227-.115-.227-.329 0-.23.035-.272.233-.272.319 0 .584-.156.584-.345 0-.086-.163-.587-.363-1.113-.2-.525-.363-.991-.363-1.035 0-.06.642-.001.692.064Zm3.563.656c.025.026-.04.313-.144.637-.105.324-.176.59-.157.59.02 0 .346-.185.725-.41.757-.45.788-.457 1.216-.307l.294.103-.684.398c-.376.219-.702.429-.725.466-.022.038.094.512.258 1.053l.297.985-.285-.061c-.414-.09-.468-.158-.646-.838-.09-.338-.191-.648-.227-.688-.155-.174-.53.146-.642.548-.109.389-.127.405-.388.353-.15-.03-.294-.075-.319-.1-.024-.024.155-.683.398-1.464l.443-1.42.27.054c.147.03.29.075.316.101Zm-6.59 1.014c-.063.025-.114.186-.114.357 0 .301.011.311.355.311.196 0 .42-.025.5-.055.169-.065.19-.408.034-.564-.108-.109-.559-.137-.776-.05Zm-7.105.298c.152.286.12.33-.45.636-.3.16-.545.334-.545.387 0 .088.31.68.851 1.625.13.226.236.436.237.468 0 .031-.126.11-.28.174-.332.138-.221.27-1.089-1.313-.353-.645-.608-1.206-.566-1.247.098-.096 1.598-.903 1.683-.905.036 0 .107.078.159.175Zm17.034-.041c.151.106.216.3.302.91.066.467.152.777.215.777.058 0 .411-.118.785-.263.619-.24.701-.251.929-.134.285.147.298.195.12.45-.07.101-.401.654-.735 1.227a44.982 44.982 0 0 1-.634 1.073c-.015.016-.155-.036-.31-.117l-.283-.147.247-.43c.136-.236.359-.612.495-.837.137-.224.236-.42.221-.436-.016-.016-.33.092-.698.239-.771.308-.74.33-.848-.602-.037-.313-.103-.546-.149-.518-.046.028-.27.377-.498.774-.229.398-.45.723-.494.723-.142 0-.546-.212-.52-.273.148-.354 1.5-2.548 1.57-2.55.051 0 .18.06.285.134ZM8.92 4.123c.222.263.65.786.953 1.162l.548.683-.242.2-.242.2L9.52 5.9l-.416-.469-.469.397c-.258.218-.469.415-.469.438 0 .022.166.25.369.505l.368.465-.21.161c-.115.09-.25.16-.3.16-.05-.002-.438-.435-.862-.961-1.104-1.371-1.053-1.282-.86-1.495.233-.26.324-.23.68.226.174.224.342.408.372.41.074.005.988-.726.988-.789 0-.026-.161-.241-.358-.478l-.359-.43.197-.197c.109-.11.226-.198.26-.198.036 0 .246.215.468.478Zm25.02 1.89c0 .035-.081.138-.181.229-.206.187-.202.19-.973-.537-.375-.354-.387-.358-.567-.195-.102.093-.184.2-.184.24 0 .04.193.255.429.48.425.403.428.408.258.596-.094.105-.195.19-.225.19s-.217-.163-.417-.36c-.2-.198-.401-.362-.448-.364-.047-.003-.18.086-.297.196l-.212.2.614.568.615.569-.196.2c-.23.236-.183.263-1.282-.73l-.65-.588.565-.6c.31-.33.783-.834 1.05-1.121l.484-.522.808.742c.445.408.81.771.81.807ZM6.661 7.326l1.136.902-.186.262c-.212.299-.104.345-1.163-.5-.303-.241-.55-.411-.55-.378 0 .034.129.566.286 1.181l.287 1.12-.182.232-.182.232L5.1 9.57a51.237 51.237 0 0 0-1.214-.951l-.206-.145.238-.24.24-.24.562.445c.963.762.949.754.879.49-.55-2.06-.566-2.163-.385-2.364.095-.105.204-.18.242-.166.039.014.581.43 1.206.927Zm28.349-.134.196.267-.452.333c-.248.184-.452.37-.452.417 0 .046.154.083.34.084.188 0 .555.026.816.058.4.048.512.106.706.361l.231.305-.851-.057-.852-.056-.286.792c-.157.436-.286.821-.286.856a.562.562 0 0 1-.085.196c-.068.108-.115.092-.268-.092-.239-.288-.236-.409.031-1.147.122-.337.201-.646.176-.687-.092-.15-.525-.068-.814.153-.372.286-.45.285-.639-.004-.143-.22-.142-.24.021-.356.095-.068.642-.474 1.216-.903l1.05-.783c.002-.002.093.116.202.263ZM3.486 9.597c.157.115.155.136-.027.495l-.19.375 1.078.57 1.078.57-.142.299-.143.3-1.016-.545c-.56-.3-1.063-.544-1.12-.544-.057 0-.172.143-.255.319-.168.353-.193.364-.518.215l-.226-.103.233-.466c.497-.996.867-1.605.973-1.605.061 0 .185.054.275.12Zm34.308 2.419a.834.834 0 0 1-.273.138c-.157.048-.234-.045-.52-.627-.186-.376-.369-.682-.406-.68a.981.981 0 0 0-.264.114l-.194.11.201.417c.34.703.34.71.065.852l-.253.131-.289-.589c-.247-.503-.312-.575-.447-.498-.418.24-.417.221-.076.952.33.71.38.876.258.878-.038 0-.153.024-.257.052-.164.044-.25-.076-.667-.922-.295-.602-.445-1.005-.393-1.058.047-.047.653-.367 1.347-.712l1.263-.627.496.993c.315.63.464 1.024.409 1.076Zm-34.68 1.017 1.347.399-.054.27c-.03.15-.074.291-.098.316-.024.024-.415-.069-.87-.206-.453-.136-.845-.228-.87-.204-.024.025.26.454.633.953.546.731.67.954.632 1.148-.025.132-.08.261-.121.287-.042.026-.714-.146-1.493-.382-1.4-.425-1.415-.433-1.358-.664.031-.129.087-.265.124-.303.037-.038.465.051.952.198l.886.267-.157-.24a31.8 31.8 0 0 0-.687-.958c-.29-.395-.529-.765-.528-.823.003-.253.122-.524.215-.492.056.02.707.215 1.448.434Zm-2.39.153c.133.17.176.319.139.478-.066.285-.449.642-.688.642-.29 0-.2-.364.119-.482.168-.062.22-.393.07-.444-.102-.036-.017-.44.093-.44.04 0 .16.11.266.246Zm37.846.762c.259.915.196 1.297-.265 1.608-.657.443-1.408.083-1.641-.788-.101-.377-.117-.39-.394-.34a5.799 5.799 0 0 0-.481.11c-.158.046-.212.003-.296-.24-.056-.162-.092-.305-.08-.316.06-.055 2.587-.752 2.756-.76.164-.008.222.097.4.726Zm-20.166-.151c1.25.58 1.827 1.835 1.563 3.407-.228 1.355-1.037 2.486-2.142 2.994-.835.384-1.674.48-4.226.483-2.087.003-2.347-.013-2.515-.156l-.188-.16.577-3.201c.568-3.147.66-3.522.89-3.62.063-.028 1.319-.041 2.791-.031l2.677.018.573.266Zm10.586-.165c.08.08.126.214.102.296-.024.083-.07.314-.101.515-.097.61-.23.953-.407 1.048-.258.14-6.92.121-7.06-.019-.134-.135-.135-.31-.006-1.056.172-.994-.093-.93 3.884-.93 3.04 0 3.46.017 3.588.146Zm8.489.44c-.338.125-.362.238-.15.69.077.165.178.227.368.227.369 0 .477-.214.34-.675-.123-.412-.111-.406-.558-.242Zm-22.87 1.988c0 .013-.081.454-.18.98-.1.526-.182.987-.182 1.025 0 .14 1.73.074 2.05-.078.415-.198.672-.64.672-1.156 0-.34-.043-.45-.239-.605-.207-.163-.366-.189-1.18-.189-.517 0-.94.01-.94.023Zm-13.468.73c-.025.162-.07.531-.101.82l-.056.523h.324c.308 0 .324-.015.324-.307 0-.17.026-.436.057-.593.049-.243.097-.284.33-.284h.275l-.053.637c-.039.463-.024.639.055.64.06 0 .197.025.306.054.217.059.233.01.349-1.08.053-.499.068-.525.306-.525.138 0 .27.02.293.042.063.064-.14 2.123-.219 2.2-.07.07-2.768-.13-2.912-.215-.075-.044-.03-.954.091-1.822.052-.37.068-.387.365-.387.3 0 .31.01.266.296Zm26.281.082c1.234.581 1.772 1.723 1.546 3.281-.237 1.634-1.05 2.692-2.515 3.272-.526.208-.647.217-3.472.248-2.922.032-2.927.032-2.999-.163-.104-.28 1.039-6.554 1.233-6.771.137-.153.343-.163 2.92-.137l2.771.028.516.242Zm10.941-.148c.431.181.637.373.85.79.478.941-.056 2.124-1.06 2.352-1.261.286-2.315-1.032-1.805-2.256.188-.452.381-.655.813-.854.446-.206.767-.214 1.202-.032Zm-.856.605c-.773.207-.909 1.332-.21 1.746.317.188.655.193 1 .014.336-.174.452-.393.452-.854 0-.646-.594-1.079-1.242-.906Zm-13.913 1.733c0 .021-.082.485-.182 1.03a25.02 25.02 0 0 0-.181 1.066c0 .1 1.32.09 1.762-.014.554-.129.891-.53.939-1.114.035-.433.013-.509-.202-.71-.218-.204-.33-.23-1.188-.261-.522-.02-.948-.018-.948.003Zm-21.538.997c.23.191.393.602.393.985v.37h1.089v.613l-1.455.119c-.888.072-1.488.085-1.539.034-.046-.046-.095-.44-.11-.873-.023-.684-.001-.824.163-1.048.332-.45 1.041-.548 1.459-.2Zm-.926.596c-.111.112-.14.25-.105.51.026.195.066.373.089.396.022.022.212.013.421-.02l.381-.061-.061-.375c-.034-.206-.103-.426-.153-.489-.129-.16-.392-.142-.572.04Zm36.746.226 1.441.197-.058.63c-.07.746-.232 1.176-.52 1.38-.308.215-.625.182-.915-.097-.14-.134-.255-.195-.255-.135s-.137.175-.304.255c-.28.134-.33.134-.623-.006a.885.885 0 0 1-.525-.826c0-.37.2-1.594.261-1.595.031 0 .706.088 1.498.197Zm-1.145.92c-.051.487.056.706.345.706.25 0 .403-.276.403-.725 0-.27-.133-.368-.497-.368-.18 0-.216.055-.251.387Zm-23.271-.03c.137.138-.117 1.553-.316 1.752-.147.147-.32.169-1.382.169-.937 0-1.238-.03-1.32-.13-.083-.1-.075-.302.035-.885.08-.416.18-.793.224-.838.044-.044.212-.108.373-.14.419-.087 2.284-.03 2.386.072Zm24.602-.053c-.029.073-.039.271-.023.439.023.232.076.311.228.333.24.034.415-.248.374-.602-.022-.193-.083-.253-.278-.276-.157-.018-.27.021-.301.106Zm-20.407 4.798c.07 0 .193.101.273.225.123.189.13.276.037.557-.093.282-.194.372-.666.591l-.557.26.528.003c.495.004.527.017.5.21-.028.191-.08.206-.79.231l-.761.027.058-.291c.078-.393.164-.48.741-.755.362-.172.496-.285.496-.421 0-.274-.25-.326-.487-.102-.18.17-.226.179-.378.067-.153-.112-.157-.144-.04-.287.167-.202.639-.413.799-.357a.901.901 0 0 0 .247.042Zm3.92.165c.157.2.141.575-.036.828-.081.117-.357.309-.612.425l-.464.212.51.005c.492.005.507.013.465.233-.042.22-.068.228-.759.228h-.715v-.257c0-.298.264-.577.726-.768.383-.158.583-.381.512-.568-.067-.176-.279-.177-.454-.002-.168.17-.512.18-.512.016 0-.16.363-.49.59-.534.288-.056.625.026.749.182Zm-1.844-.021c.281.282.09 1.473-.286 1.77-.463.365-1.296.139-1.296-.352 0-.52.196-1.165.413-1.357.282-.248.947-.284 1.169-.061Zm3.22.152c-.004.163-.076.625-.159 1.026-.134.648-.175.732-.369.76-.235.033-.236.018-.043-1.107.058-.335.052-.345-.168-.29-.166.043-.243.016-.287-.099-.07-.184-.1-.151.353-.388.536-.28.682-.259.673.099Zm-4.06.186c-.082.1-.279.784-.286.996-.001.036.078.108.177.161.141.076.216.06.351-.075.223-.224.35-1.011.18-1.12-.172-.11-.31-.097-.422.038Zm15.525 1.012c.2.153.197.229-.023.511-.098.125-.178.273-.18.327 0 .055.427.403.95.774.523.372.95.696.95.721 0 .026-.077.147-.17.27l-.172.223-.485-.327c-.266-.18-.716-.496-.999-.702l-.514-.374-.27.368-.27.369-.23-.21-.231-.209.652-.93c.358-.512.692-.931.742-.931.05 0 .163.053.25.12Zm-28.01 1.034c.456.66.455 1.129-.002 1.55-.534.49-1.198.347-1.683-.364l-.222-.325-.396.273c-.38.262-.403.267-.57.114-.097-.087-.176-.21-.176-.27 0-.062.54-.506 1.202-.989l1.202-.877.157.206c.086.112.305.42.487.682Zm-1.126.279-.3.25.31.36c.289.334.327.352.55.25.15-.068.24-.182.24-.305 0-.203-.332-.812-.44-.808-.033.002-.195.115-.36.253Zm27.453 1.038.213.2-.567.575-.567.574.201.202.201.202.455-.45.455-.449.2.202.201.201-.448.457-.448.457.252.25.25.25.563-.623.563-.624.223.24.223.239-.814.817-.814.817-1.086-1.094-1.086-1.093.767-.775c.423-.426.787-.775.81-.775.022 0 .137.09.253.2ZM8.436 31.383c.4.396.729.749.729.783 0 .035-.083.138-.185.23-.182.166-.194.16-.753-.398l-.57-.566-.215.232-.217.23.476.435.475.434-.236.223c-.14.132-.264.187-.302.134a6.782 6.782 0 0 0-.447-.446c-.373-.35-.385-.355-.565-.191-.101.092-.184.21-.184.264 0 .054.243.345.54.647l.541.549-.168.222-.168.222-.849-.802c-.467-.44-.842-.82-.833-.844.052-.14 2.055-2.13 2.122-2.107.044.016.409.353.81.749Zm22.457 2.112c.284 1.611.265 1.922-.14 2.265-.341.288-.386.289-.569.009-.139-.213-.135-.235.087-.458.128-.128.22-.304.203-.39-.017-.097-.441-.37-1.097-.709l-1.069-.55.294-.219.294-.218.707.376c.388.206.706.335.706.285 0-.05-.066-.382-.147-.74l-.147-.651.243-.21c.134-.116.275-.21.314-.21.04 0 .184.639.321 1.42Zm-20.64-.576c0 .038-.145.277-.324.532-.178.255-.308.48-.288.499.019.02.395-.064.835-.186l.8-.22.322.218c.347.237.346.238-.346.41-.225.055-.538.14-.696.19l-.287.09.051 1.044c.028.574.021 1.044-.016 1.044-.037 0-.182-.068-.323-.151-.241-.144-.256-.19-.286-.904-.017-.414-.06-.782-.095-.817-.141-.141-.514.067-.743.415l-.244.37-.27-.16c-.148-.088-.258-.186-.246-.218.013-.03.387-.611.83-1.29l.806-1.233.26.149c.143.081.26.18.26.218Zm18.151 2.118c.423.92.511 1.053.674 1.014.157-.038.229.046.435.5l.247.546-.293.124c-.282.12-.297.116-.428-.136l-.136-.261-.59.272c-.325.15-.699.314-.832.365-.235.09-.239.103-.117.397.124.297.121.304-.146.415-.32.133-.273.169-.578-.442-.192-.382-.22-.513-.136-.615.234-.283.019-1.303-.475-2.25-.073-.141.04-.222.85-.603.514-.243.958-.428.987-.412.029.015.27.504.538 1.086Zm-14.639-.311c.936.455 1.174 1.892.423 2.555-1.197 1.055-3.096.034-2.807-1.51.068-.366.418-.82.82-1.066.376-.23 1.066-.221 1.564.021Zm13.3.192c-.241.119-.255.257-.062.632.079.152.17.516.205.81l.061.532.519-.244.518-.245-.349-.774c-.366-.812-.489-.91-.892-.711Zm-14.299.263c-.555.153-.867.705-.695 1.228.348 1.06 1.905.815 1.903-.298 0-.207-.29-.847-.385-.847-.013 0-.146-.034-.296-.077a1.165 1.165 0 0 0-.527-.006Zm12.59 1.456c.19.805.326 1.48.305 1.502-.021.022-.165.064-.32.096l-.282.056-.11-.559c-.06-.307-.136-.576-.17-.596-.046-.03-1.162.206-1.248.263-.01.006.047.268.125.581.079.314.125.59.102.612-.023.023-.166.067-.32.098l-.278.056-.328-1.37c-.36-1.509-.38-1.656-.214-1.658.063 0 .2-.024.306-.053.175-.047.203.004.307.554.07.374.152.59.215.566.056-.022.341-.093.633-.16l.532-.118-.055-.303c-.188-1.038-.22-.944.36-1.019.054-.007.251.645.44 1.452Zm-9.128-.93c.066.082.216.334.333.56.418.806.378.8 1.058.183.587-.532.807-.629 1.06-.468.1.064.088.29-.07 1.297-.296 1.877-.252 1.75-.576 1.684-.154-.03-.294-.071-.313-.09-.018-.018.03-.434.11-.923.078-.49.13-.902.115-.917-.015-.014-.266.184-.558.44-.604.532-.578.54-1.018-.322-.123-.24-.257-.415-.299-.389-.041.026-.127.437-.19.915l-.114.867h-.29c-.16 0-.312-.02-.337-.045-.043-.043.34-2.685.426-2.941.051-.152.5-.05.663.15Zm5.642.456c0 .246-.026.263-.477.318a8.662 8.662 0 0 1-.822.058c-.335 0-.345.01-.318.29l.029.29.6-.022c.594-.022.602-.02.65.234.027.141.031.275.009.298-.023.023-.305.058-.628.08l-.586.036v.628l.792-.019.792-.019.056.276.057.275-.544.057c-.3.031-.818.057-1.153.057h-.608l-.06-.834c-.094-1.336-.073-2.152.055-2.204.063-.025.573-.049 1.135-.053l1.02-.007v.26Z" fill="#07E"/></svg>