<svg width="316" height="306" fill="none" xmlns="http://www.w3.org/2000/svg"><path d="M225.479 288.049a5.618 5.618 0 0 0-3.73-2.75 24.828 24.828 0 0 0-6.3-.93c-2.23-.11-4.46-.07-6.69 0-2.23.07-4.31 0-6.48-.12-13.41-.66-26.86-1-40.28-.38 0 0 0-.08-.08-.08-10.56-.22-21.15 0-31.7.58-5.19.27-10.39.56-15.56 1.15-5.17.59-10.39 1.44-15.59 2.24-5.2.8-10.87 1.21-15.91 3.24-.23.09-.45.38-.31.63.84 1.41 2.62 1.86 4.13 2.08 2.114.25 4.249.28 6.37.09 4.6-.29 9.2-.68 13.81-.85 3.06-.231 6.138.043 9.11.81a26.246 26.246 0 0 1-7.85 2.54c-2.47.55-5 .77-7.23 2.1a1.005 1.005 0 0 0-.55.58c-.1.35.17.69.42.95 3 3 7.1 3 11 3.45 3.72.44 7.44.91 11.18 1.21 4.14.32 8.3.5 12.46.5 8.36 0 16.76-.53 25.1-1.15 4.126-.313 8.25-.69 12.37-1.13 3.16-.35 6.31-.78 9.48-1a74.589 74.589 0 0 0 9.1-1.05c2.64-.54 5.46-1.37 7.41-3.32a.386.386 0 0 0 .125-.219.397.397 0 0 0-.035-.251c-1.83-2.44-5.57-1.46-7.6-3.5 1.3-1 3.35-1.09 4.86-1.2 2.07-.15 4.14-.11 6.2-.1 2.06.01 4.09-.19 6.13-.32 2.66-.17 5.32-.34 8-.74a25.874 25.874 0 0 0 8.35-2.51c.08-.13.38-.34.29-.55Zm-99 11.56a1.99 1.99 0 0 1-.72.51 8 8 0 0 1-1.35.48c-.621.162-1.253.279-1.89.35-.52.06-1 .1-1.56.14-1.48.1-3 .16-4.45.15a32.381 32.381 0 0 1-4.73-.29 11.13 11.13 0 0 1-1.91-.42 3.99 3.99 0 0 1-1.34-.67 1.39 1.39 0 0 1-.51-1 1.235 1.235 0 0 1 .74-1.05 6.455 6.455 0 0 1 1.88-.65 21.536 21.536 0 0 1 2.4-.36c1.25-.12 2.51-.19 3.76-.19.029-.01.06-.01.09 0 .54 0 1.08 0 1.62.08s1.32.1 2 .15c.68.05 1 .07 1.55.13.879.116 1.746.314 2.59.59.627.18 1.21.49 1.71.91a.771.771 0 0 1 .14 1.14h-.02Zm11.63-6.1c-1.52.17-3 .29-4.56.37-.9.05-1.81.07-2.71.12a35.917 35.917 0 0 1-5.39 0 9.72 9.72 0 0 1-2.56-.5 2.643 2.643 0 0 1-1.54-1.16.104.104 0 0 1-.035-.08c0-.015.003-.029.009-.043a.118.118 0 0 1 .026-.037 10.755 10.755 0 0 1 2-.9 21.92 21.92 0 0 1 4.08-1l.78-.11a29.519 29.519 0 0 1 3.5-.55c1.05-.12 2.11-.18 3.16-.28a42.975 42.975 0 0 1 4.38-.2c.9 0 1.8 0 2.7.12.771.054 1.536.188 2.28.4a2.688 2.688 0 0 1 1.42.81.819.819 0 0 1 .213.486.805.805 0 0 1-.133.514 2.238 2.238 0 0 1-1 .73c-.582.247-1.184.442-1.8.58a36.715 36.715 0 0 1-4.8.73h-.02Z" fill="#5CBCEB"/><path d="M232.137 282.589a3.998 3.998 0 0 0-2.83-1.92 36.987 36.987 0 0 0-4.64-.94c-3.65-.5-7.35-.57-11-.78-7.75-.45-15.52-.56-23.28-.87-7.76-.31-15.34-.59-23-.32-3.75.13-7.49.38-11.23.78s-7.71 1.1-11.58 1.47a43.96 43.96 0 0 1-6.19.19c-2.1-.11-4.18-.46-6.27-.75a84.173 84.173 0 0 0-9.35-.91c-2.94-.59-6-.56-9-1-4.81-.68-9.59-1.35-14.43-1.73-4.84-.38-9.55-.79-14.32-.78a91.545 91.545 0 0 0-13.72 1.2c-3.95.6-7.92 1.28-11.83 2.15a16.357 16.357 0 0 0-4.63 1.61c-.9.52-2.16 1.44-2.33 2.62-.29 2.09 3.63 1.94 4.75 1.95 4.504-.053 8.999-.387 13.46-1 5.57-.65 11.13-1.16 16.72-1.39 2.64-.11 5.27-.07 7.91-.16 2.37-.09 4.79-.339 7.09.391a3.638 3.638 0 0 1-1.33.739c-.879.308-1.778.559-2.69.75a24.173 24.173 0 0 0-5.38 1.66 3.783 3.783 0 0 0-2.42 3.44c.08 1.63 1.39 2.491 2.71 2.941 3.64 1.22 7.82.649 11.54.289 7.34-.72 14.7-1.2 22-2 4.44-.45 8.86-1 13.28-1.52 2.26-.27 4.53-.51 6.8-.66 1.42-.09 3.23-.49 4.69-.12-1.71.84-5.15 2.21-3.89 4.22a3.995 3.995 0 0 0 2.75 1.34c1.359.227 2.734.334 4.11.32 3.77 0 7.54.14 11.31-.05 3.54-.18 7.1-.45 10.63-.76a23.14 23.14 0 0 0 5.15-.91 5.078 5.078 0 0 0 3.1-2.149c0-.09.1-.241 0-.321-2.11-2.45-5.5-1.62-8-3.12a16.446 16.446 0 0 1 5-.17c2.27.05 4.55 0 6.82 0 4.48 0 9-.15 13.44-.28 4.44-.13 9-.28 13.44-.49 2.95-.14 5.9-.15 8.85-.28 2.49-.11 5.83-.22 7.69-2.28a.417.417 0 0 0 .1-.4Z" fill="#64BEEB"/><path d="M177.906 278.76a2.464 2.464 0 0 0 1.05 1.72c1.56 1.28 3.9 1.92 5.95 2.45 2.05.53 4.27.94 6.43 1.31 3.13.53 6.26 1 9.43 1.32a53.357 53.357 0 0 1 12.5 2.5 23.682 23.682 0 0 0 5.71 1.52c5.36.63 11.12-.21 16.53-.33 5.907-.14 11.81-.087 17.71.16 8.37.35 17.87 2.35 26.19.58a4.87 4.87 0 0 0 1.6-.57 1.462 1.462 0 0 0 .81-1.23c-.09-2-6.53-2-8.14-2-2.69-.08-5.38.06-8.08 0h-6.21a50.802 50.802 0 0 1-7.41-.26c-2-.26-4.13-.76-5.4-2.09a4.377 4.377 0 0 1 2.17-1.32 27.205 27.205 0 0 1 6.25-.78 98.272 98.272 0 0 1 10.27.02c3.36.11 6.71.2 10.08.08 3.37-.12 6.85-.38 10.27-.63 4.31-.31 11.33.86 14.68-2.15.303-.237.518-.568.61-.94.14-.91-1.09-1.48-2.14-1.69-4.54-.93-9.57 0-13.91-1.38a1.673 1.673 0 0 1-1-.61c-.58-1.08 2.34-1.43 3-1.48 8.91-.69 18.14 1.09 26.72-1.92 2.45-.86 2.83-2.68-.09-3.14-.896-.11-1.803-.11-2.7 0-7.42.63-14.82 1.15-22.22 1.8-4.84.42-9.68.76-14.53.85-4.85.09-9.8 0-14.69-.31a110.306 110.306 0 0 0-14.2.13c-9.53.69-18.94 2.35-28.43 3.31-4.794.528-9.616.771-14.44.73a104.015 104.015 0 0 0-14.34.37c-1.55.19-3.12.29-4.66.56a9.665 9.665 0 0 0-4.23 1.5 2.583 2.583 0 0 0-1.14 1.92Zm122.89-8.21c.09-.28.46-.44.76-.54a6.52 6.52 0 0 1 1.31-.28c.37-.05.74-.09 1.11-.11.72-.04 1.441-.04 2.16 0 .38.02.761.02 1.14 0l1.11-.14a9.001 9.001 0 0 1 2.13-.13c.31 0 .73.13.79.44.06.31-.19.51-.41.67a3.578 3.578 0 0 1-1.29.57 12.09 12.09 0 0 1-2.15.32h-3.89c-.44 0-.65-.05-1-.05a5.617 5.617 0 0 1-1.24-.13c-.32-.06-.64-.26-.53-.58v-.04Zm-48.53 4.41c2.1 0 4.19-.12 6.28-.07 1.7.05 3.4.08 5.1 0a89.785 89.785 0 0 1 10.09-.62c1.308.05 2.609.207 3.89.47.465.092.92.226 1.36.4.342.11.626.351.79.67.21.59-.49 1.1-1.06 1.34a8.914 8.914 0 0 1-2.52.54c-1.94.2-3.9.15-5.85.16-1.06 0-2.11.08-3.17.18-3.94.35-7.79.85-11.73.35-1.57-.2-5.66-.48-6.17-2.08-.31-1.24 2.2-1.32 2.99-1.34Zm-7.89 5.58a32.923 32.923 0 0 1-3.28.05c-.73 0-1.45-.05-2.17-.14-.56-.07-1.12-.13-1.68-.25a4.019 4.019 0 0 1-1.44-.5c-1.07-.76 1.64-1.34 2.13-1.43a16.114 16.114 0 0 1 4.39-.21 26.737 26.737 0 0 1 3.24.07c.462.04.92.117 1.37.23.309.06.595.202.83.41a.57.57 0 0 1 .05.67 1.34 1.34 0 0 1-.68.55 8.282 8.282 0 0 1-2.73.55h-.03Zm-8.21 5.37c.2-.37.78-.51 1.21-.59a11.363 11.363 0 0 1 2.18-.13c.78 0 1.56.07 2.33.15h.68a8.055 8.055 0 0 1 2.25.27c.337.094.657.239.95.43a.066.066 0 0 1 .02.027c.005.01.007.021.007.033a.078.078 0 0 1-.027.06 1.912 1.912 0 0 1-1.07.66c-.653.191-1.323.322-2 .39a17.43 17.43 0 0 1-4.62 0 4.428 4.428 0 0 1-1.58-.44c-.23-.21-.48-.53-.3-.86h-.03Zm-.4-3.41a2.803 2.803 0 0 1 1.31-.62h.24a3.724 3.724 0 0 1 1.79.14.088.088 0 0 1 .049.08.098.098 0 0 1-.013.047.095.095 0 0 1-.036.033c.209.104.383.267.5.47a.084.084 0 0 1-.004.064.086.086 0 0 1-.046.046c-.589.337-1.262.5-1.94.47a2.857 2.857 0 0 1-1.85-.56.096.096 0 0 1-.04-.04.084.084 0 0 1-.008-.056.088.088 0 0 1 .027-.05.084.084 0 0 1 .051-.024h-.03Zm-10.84-2.16a1.08 1.08 0 0 1 .78-.45 5.235 5.235 0 0 1 1.43-.07c.479-.048.959-.072 1.44-.07a7.936 7.936 0 0 1 2.58.35c.375.121.717.326 1 .6a.08.08 0 0 1 0 .11 2.31 2.31 0 0 1-.77.38 9.063 9.063 0 0 1-1.25.29 14.1 14.1 0 0 1-3 .24 5.844 5.844 0 0 1-1.25-.15 1.57 1.57 0 0 1-.8-.4.796.796 0 0 1-.13-.83h-.03Z" fill="#87D6F8"/><path d="M260.988 283.269a1.813 1.813 0 0 1 2.18-.68h.2c.182-.03.368-.03.55 0a.757.757 0 0 1 .49.51.269.269 0 0 1 0 .23 2.919 2.919 0 0 1-3.09.56c-.24-.13-.45-.39-.33-.62Zm15.489 1.001c.15-.76 2.28-1 2.73-1 1.14 0 2.81-.44 3.8.34.99.78 0 1.3-.71 1.47a10.336 10.336 0 0 1-4.82.14 1.417 1.417 0 0 1-.74-.35.74.74 0 0 1-.26-.6Zm11.157 1.96c.06.126.168.223.3.27a4.92 4.92 0 0 0 4-.13.91.91 0 0 0 .42-.3.688.688 0 0 0-.21-.88 2.663 2.663 0 0 0-1.41-.4c-1 0-2.61.05-3.08 1.11a.642.642 0 0 0-.06.2.49.49 0 0 0 .04.13Zm14.859-10.471c.1-.51 1.54-.66 1.84-.67.77 0 1.9-.3 2.57.23.67.53 0 .88-.48 1a6.99 6.99 0 0 1-3.25.1.929.929 0 0 1-.51-.24.52.52 0 0 1-.17-.42Zm7.524 1.301a.328.328 0 0 0 .2.18 3.283 3.283 0 0 0 2.71-.08.756.756 0 0 0 .29-.2.48.48 0 0 0-.15-.6 1.736 1.736 0 0 0-.95-.27c-.66 0-1.76 0-2.08.75a.301.301 0 0 0 0 .14.11.11 0 0 0-.02.08Zm-173.521 2.07a9.62 9.62 0 0 0-4.22-1.5c-1.55-.27-3.12-.37-4.67-.56a104.01 104.01 0 0 0-14.34-.37c-4.823.04-9.644-.201-14.44-.72-9.49-1-18.9-2.63-28.43-3.32a112.14 112.14 0 0 0-14.2-.13c-4.88.27-9.78.4-14.69.31-4.91-.09-9.69-.42-14.53-.85-7.4-.65-14.8-1.16-22.21-1.8-.9-.11-1.81-.11-2.71 0-2.91.46-2.54 2.29-.09 3.14 8.58 3 17.81 1.23 26.72 1.92.65 0 3.57.4 3 1.48a1.673 1.673 0 0 1-1 .61c-4.34 1.42-9.37.45-13.91 1.38-1 .22-2.28.79-2.14 1.69.093.373.308.703.61.94 3.35 3 10.37 1.85 14.68 2.16 3.42.24 6.84.51 10.27.63 3.43.12 6.72 0 10.08-.09a98.301 98.301 0 0 1 10.3.07c2.106.022 4.203.284 6.25.78.837.22 1.59.678 2.17 1.32-1.27 1.34-3.44 1.83-5.4 2.09-2.46.272-4.937.359-7.41.26h-6.21c-2.69 0-5.39-.12-8.08 0-1.61 0-8.05 0-8.14 2a1.508 1.508 0 0 0 .81 1.24 5.084 5.084 0 0 0 1.6.56c8.33 1.78 17.82-.23 26.2-.58a279.9 279.9 0 0 1 17.7-.16c5.41.12 11.17 1 16.53.33a22.808 22.808 0 0 0 5.71-1.52 53.414 53.414 0 0 1 12.49-2.46c3.17-.36 6.3-.79 9.43-1.32 2.16-.36 4.32-.76 6.43-1.31 2.11-.55 4.39-1.17 6-2.45a2.447 2.447 0 0 0 1-1.72 2.611 2.611 0 0 0-1.16-2.05Zm-122.23-5.61a4.991 4.991 0 0 1-1.23.13l-1 .06h-3.88a11.897 11.897 0 0 1-2.14-.32 3.472 3.472 0 0 1-1.3-.57c-.22-.16-.46-.41-.41-.67.05-.26.48-.4.79-.44a8.997 8.997 0 0 1 2.13.13c.37.05.74.11 1.11.14.38.025.76.025 1.14 0 .72-.04 1.44-.04 2.16 0 .37 0 .74.06 1.11.11a7.06 7.06 0 0 1 1.31.28c.3.1.67.26.77.54.1.28-.25.52-.56.61Zm52 5c-.51 1.59-4.59 1.87-6.17 2.07-3.94.5-7.79 0-11.73-.35-1.06-.09-2.11-.18-3.17-.18-1.95 0-3.91.05-5.85-.15a9.296 9.296 0 0 1-2.52-.54c-.57-.24-1.27-.76-1.06-1.35a1.4 1.4 0 0 1 .79-.67c.44-.175.895-.306 1.36-.39a23.042 23.042 0 0 1 3.89-.48c3.373.022 6.74.229 10.09.62 1.7.13 3.4.09 5.1 0 2.09-.06 4.18 0 6.28.06.83.14 3.34.22 2.99 1.4v-.04Zm2.13 3.76a1.411 1.411 0 0 1-.68-.56.57.57 0 0 1 .05-.67c.237-.206.523-.348.83-.41a8.71 8.71 0 0 1 1.37-.23c1.078-.09 2.16-.11 3.24-.06a16.185 16.185 0 0 1 4.4.2c.49.09 3.19.67 2.12 1.43a3.85 3.85 0 0 1-1.44.5c-.56.12-1.12.18-1.68.25-.71.09-1.44.12-2.17.14-1.092.06-2.187.06-3.28 0a8.51 8.51 0 0 1-2.74-.55l-.02-.04Zm10.62 6.75a4.662 4.662 0 0 1-1.58.45 18.316 18.316 0 0 1-4.62 0 10.481 10.481 0 0 1-2-.4 1.862 1.862 0 0 1-1.07-.66.08.08 0 0 1-.021-.055.08.08 0 0 1 .021-.055c.29-.195.612-.341.95-.43a8.094 8.094 0 0 1 2.26-.28h.67c.77-.09 1.55-.14 2.33-.16.73-.023 1.46.024 2.18.14.43.07 1 .21 1.21.58.21.37.01.72-.31.91l-.02-.04Zm.74-4.11a2.84 2.84 0 0 1-1.85.55 3.583 3.583 0 0 1-1.94-.46s-.07-.08-.05-.12a1.17 1.17 0 0 1 .5-.46c-.06 0-.07-.13 0-.16a3.555 3.555 0 0 1 1.78-.15h.16a.092.092 0 0 1 .08 0c.484.08.937.291 1.31.61a.114.114 0 0 1 .086.023.116.116 0 0 1-.056.207l-.02-.04Zm10.66-1.47c-.224.211-.506.35-.81.4-.41.095-.829.146-1.25.15a14.166 14.166 0 0 1-3-.23c-.422-.075-.84-.175-1.25-.3a2.485 2.485 0 0 1-.77-.37.091.091 0 0 1-.022-.06.09.09 0 0 1 .022-.06 2.72 2.72 0 0 1 1-.6 8.224 8.224 0 0 1 2.58-.35c.48 0 1 0 1.44.07a5.346 5.346 0 0 1 1.44.07 1.044 1.044 0 0 1 .77.46.79.79 0 0 1-.13.86l-.02-.04Z" fill="#87D6F8"/><path d="M54.603 285.589a1.816 1.816 0 0 0-2.18-.68h-.2a1.631 1.631 0 0 0-.54 0 .724.724 0 0 0-.5.5.26.26 0 0 0 0 .23 2.931 2.931 0 0 0 3.09.57c.24-.11.45-.39.33-.62Zm-15.492 1c-.15-.76-2.28-1-2.73-1-1.14 0-2.81-.44-3.8.34-.99.78 0 1.3.71 1.47 1.574.424 3.224.476 4.82.15.276-.049.532-.173.74-.36a.735.735 0 0 0 .26-.6Zm-11.132 1.831a.755.755 0 0 0-.06-.2c-.47-1.06-2.1-1.15-3.08-1.11a2.66 2.66 0 0 0-1.41.4.69.69 0 0 0-.21.88.91.91 0 0 0 .42.3 4.876 4.876 0 0 0 4 .13.521.521 0 0 0 .3-.26.338.338 0 0 0 .04-.14Zm-14.88-10.36c-.1-.51-1.54-.66-1.84-.66-.77 0-1.9-.3-2.57.22-.67.52 0 .88.48 1a7.005 7.005 0 0 0 3.26.09.944.944 0 0 0 .5-.24.481.481 0 0 0 .17-.41Zm-7.508 1.239a.739.739 0 0 0 0-.14c-.32-.71-1.42-.77-2.08-.75-.352-.009-.7.085-1 .27a.483.483 0 0 0-.15.6.656.656 0 0 0 .29.2 3.271 3.271 0 0 0 2.72.08.365.365 0 0 0 .2-.17.275.275 0 0 0 .02-.09Z" fill="#87D6F8"/><path d="M54.538 282.68c3.16-.57 6.27-1.38 9.44-1.9a70.57 70.57 0 0 1 9.42-.77c6.81-.18 13.57 0 20.34-1 6.35-.9 12.79-2 19.18-.75 6.12 1.2 11.86 3.8 18 5 13.2 2.51 26.67 1.28 39.74-1.45a59.449 59.449 0 0 1 9.17-1.43 50.56 50.56 0 0 1 9.36.61c3.257.582 6.564.827 9.87.73a49.927 49.927 0 0 0 9-1.76c1.37-.37 2.74-.74 4.12-1.08-7.25-.37-14.51-.49-21.76-.78-7.67-.3-15.34-.59-23-.32-3.75.13-7.49.38-11.23.78s-7.71 1.1-11.58 1.47a44.112 44.112 0 0 1-6.19.19c-2.1-.11-4.18-.46-6.27-.75a83.934 83.934 0 0 0-9.35-.91c-2.94-.59-6-.56-9-1-4.81-.68-9.59-1.35-14.43-1.73-4.84-.38-9.55-.79-14.32-.78a91.546 91.546 0 0 0-13.72 1.2c-3.95.6-7.92 1.28-11.83 2.15a16.329 16.329 0 0 0-4.63 1.61c-.9.52-2.16 1.44-2.33 2.62a1.21 1.21 0 0 0 0 .38c.63-.1 1.32-.25 2-.33Z" fill="#64BEEB"/><path d="M74.27 253.19a.29.29 0 0 1 .3-.17c.248.011.49.087.7.22a.997.997 0 0 1 .36.39.98.98 0 0 1 .07.18.329.329 0 0 1-.06.33.29.29 0 0 1-.31.08.31.31 0 0 1-.16 0h-.14a1.002 1.002 0 0 1-.48-.34 1.366 1.366 0 0 1-.15-.18.4.4 0 0 1-.13-.51Zm6-2.001a.18.18 0 0 1 .05-.07.313.313 0 0 1 .13-.06h.18c.049-.01.1-.01.15 0a.632.632 0 0 1 .21.12c.068.066.128.14.18.22.06.098.11.202.15.31a.42.42 0 0 1 0 .15v.08l-.06.07a.36.36 0 0 1-.39.08l-.12-.06-.12-.08a.615.615 0 0 1-.11-.12v-.11l-.06-.09-.05-.07v.06a.695.695 0 0 1-.07-.09.337.337 0 0 1-.06-.15v-.09a.16.16 0 0 1-.01-.1Zm.107.47-.01-.01h.01v.01Zm10.035 1.921a.118.118 0 0 1 .06-.06h.07c.029-.01.06-.01.09 0a.33.33 0 0 1 .14 0l.12.06.11.07.09.09.06.11c.05.024.094.058.13.1.03.042.05.09.06.14.01.039.01.081 0 .12a.182.182 0 0 1-.08.09.268.268 0 0 1-.14.07h-.25l-.12-.06a.182.182 0 0 1-.07-.05l-.13-.09a.896.896 0 0 1-.16-.22v-.18a.27.27 0 0 1 .02-.19Zm-5.799-23.52c1.19-.3 2.18 1 2.78 1.86a34.262 34.262 0 0 1 2.51 3.81 54.53 54.53 0 0 1 4.11 9.56c.3.93.55 1.87.79 2.82a9.38 9.38 0 0 1 .36 2c-.06-.14-.13-.27-.19-.41-.48-1-1-2-1.63-3-.36-.62-.74-1.23-1.14-1.83-.42-.87-.87-1.72-1.37-2.55-.87-1.44-1.74-2.87-2.66-4.27-.79-1.23-1.63-2.43-2.38-3.68a7.923 7.923 0 0 1-1.4-4 .279.279 0 0 1 .22-.31Zm-.52 14.289.28.46a20.173 20.173 0 0 0-3.43-2.47 29.36 29.36 0 0 1-3.1-2.14l-.51-.51a2.997 2.997 0 0 1-1.06-1.93.794.794 0 0 1 .59-.27c.373.013.74.098 1.08.25.417.173.819.38 1.2.62a19.205 19.205 0 0 1 2.72 2.76c.32.39.63.8.93 1.21.15.22.29.45.45.67.27.45.57.89.85 1.35Zm-12.96-15.01.33.29c.17.16.34.31.5.48.23.34.45.69.66 1l-.59-.35a17.105 17.105 0 0 1-2.62-1.84 2.197 2.197 0 0 1-.64-.81.297.297 0 0 1 0-.23.314.314 0 0 1 .1-.1.785.785 0 0 1 .18-.08.691.691 0 0 1 .24 0 4.48 4.48 0 0 1 1.47 1.18c.132.146.256.3.37.46Zm-20.075 6.791a1 1 0 0 1 .89-.55 4.393 4.393 0 0 1 1.53.16c1.068.276 2.104.665 3.09 1.16 1.33.64 2.616 1.368 3.85 2.18a36.694 36.694 0 0 1 4.5 3.55l.51.48a24.188 24.188 0 0 0-2.61-1.16c-1.67-.63-3.37-1.12-5.05-1.71l-.27-.09-4-1.6c-.4-.161-.791-.345-1.17-.55l-.12-.07c-.54-.36-1.47-1.02-1.15-1.8Zm9.972 12.35a5.824 5.824 0 0 1-1.26-.77 1.121 1.121 0 0 1-.47-.79.783.783 0 0 1 0-.15 1.47 1.47 0 0 1 .76-.17 2.24 2.24 0 0 1 .73.05c.277.072.545.173.8.3.321.232.626.486.91.76.41.401.775.843 1.09 1.32l.15.27a.32.32 0 0 1-.1.17l-1-.34a14.382 14.382 0 0 1-1.61-.65Z" fill="#5CBCEB"/><path d="m86.852 233.399.01.01-.01-.01Z" fill="#76CFE5"/><path d="M86.27 232.84a1.29 1.29 0 0 0 .1.61c.155.464.407.89.74 1.25.168.195.367.36.59.49.197.112.426.155.65.12.19 0 .22-.22.15-.37v-.06a.852.852 0 0 0 0-.23 7.005 7.005 0 0 0-.6-1.19 1.687 1.687 0 0 0-1.22-.89.291.291 0 0 0-.41.27Zm-7.41 6.22a.147.147 0 0 1 .031-.056.16.16 0 0 1 .053-.038.151.151 0 0 1 .126.004l.18.08c.07.02.136.058.19.11a.672.672 0 0 1 .08.08c.042.037.082.077.12.12v-.06l.13.14a.9.9 0 0 1 .11.16.289.289 0 0 1 0 .3.257.257 0 0 1-.133.066.257.257 0 0 1-.148-.016.671.671 0 0 1-.21-.09l-.19-.13-.1-.1-.1-.09c0-.07-.12-.2-.1-.29v-.07a.19.19 0 0 1-.04-.12Zm-25.67-2.671h.5a.198.198 0 0 1 .065-.04.193.193 0 0 1 .075-.01 4.347 4.347 0 0 1 2 .621c.306.174.603.364.89.569.19.14.41.25.5.48a.432.432 0 0 1-.13.55 1.314 1.314 0 0 1-.68.07 4.737 4.737 0 0 1-.74-.109 6.113 6.113 0 0 1-1.5-.541 2.55 2.55 0 0 1-1.19-1.079c-.07-.14-.05-.491.21-.511Z" fill="#31A9E0" style="mix-blend-mode:screen"/><path d="M93.42 269.58c-.38-1-2-1.08-2.85-1.16a32.86 32.86 0 0 0-4.21-.09h-2.1c-1.34 0-2.68.06-4 .14-1.252.029-2.501.14-3.74.33-.53.11-2.27.46-1.58 1.36a3.604 3.604 0 0 0 2.51 1c1.05.12 2.12.23 3.18.31 2.203.12 4.41.12 6.61 0 2-.08 4.35-.21 6-1.46.09-.11.23-.25.18-.43Zm-.962 3.73a2.296 2.296 0 0 0-2.84-.16.686.686 0 0 0-.16.18.522.522 0 0 0-.16.17.408.408 0 0 0 .16.55 2.215 2.215 0 0 0 1.81.22c.39-.082.76-.238 1.09-.46.16-.12.27-.35.1-.5Zm95.385.95c0 .49-1.55.88-3.48.88s-3.48-.39-3.48-.88 1.56-.88 3.48-.88 3.48.38 3.48.88Zm10.727-.98c1.32 0 2.39-.269 2.39-.6 0-.331-1.07-.6-2.39-.6s-2.39.269-2.39.6c0 .331 1.07.6 2.39.6Z" fill="#5CBCEB"/><path d="M162.268 263.69a.296.296 0 0 0-.17-.17 1.08 1.08 0 0 0-.71 0l-.29.11a1.855 1.855 0 0 0-.87.55.273.273 0 0 0-.07.095.268.268 0 0 0-.025.115c0 .04.008.079.025.115.016.036.04.069.07.095a1.142 1.142 0 0 0 1.09.09c.37-.14.69-.388.92-.71a.358.358 0 0 0 .03-.29Z" fill="#31A9E0"/><path d="M212.16 252.23a.24.24 0 0 0-.29-.11 1.176 1.176 0 0 0-.59.27.884.884 0 0 0-.201.23.597.597 0 0 0-.079.16 1.206 1.206 0 0 0 0 .17.29.29 0 0 0 .099.29.199.199 0 0 0 .151.06c.042.01.087.01.129 0l.13-.07.12-.05a1 1 0 0 0 .38-.37.631.631 0 0 0 .12-.17.384.384 0 0 0 .031-.41Zm-5.592-1.06-.06-.06a.27.27 0 0 0-.12 0h-.12a.285.285 0 0 0-.13 0 .46.46 0 0 0-.17.14.719.719 0 0 0-.13.22.988.988 0 0 0-.1.29.223.223 0 0 0 0 .14v.06a.181.181 0 0 0 .06.06.32.32 0 0 0 .35 0l.1-.07.1-.08.08-.12v-.12a.215.215 0 0 0 0-.08v-.07.06a.44.44 0 0 0 .05-.09.33.33 0 0 0 0-.14v-.08a.196.196 0 0 0 .09-.06Zm-.045.43v-.01h.01-.01v.01Zm-8.712 2.92-.06-.05a.084.084 0 0 0-.035-.007.084.084 0 0 0-.035.007h-.2l-.1.06-.09.08-.06.09a.777.777 0 0 0-.05.1.522.522 0 0 0-.1.11.285.285 0 0 0 0 .13.15.15 0 0 0 0 .11.138.138 0 0 0 .08.07c.043.01.087.01.13 0h.23l.1-.06.05-.06.1-.1a.55.55 0 0 0 .12-.21v-.17a.238.238 0 0 0-.08-.1Zm2.351-21.66c-1.1-.13-1.82 1.18-2.25 2a31.573 31.573 0 0 0-1.79 3.71 48.359 48.359 0 0 0-2.51 9c-.16.86-.27 1.73-.37 2.6-.09.595-.12 1.198-.09 1.8 0-.13.09-.26.13-.39.31-1 .69-1.91 1.09-2.84.25-.6.52-1.19.8-1.78.27-.82.57-1.63.92-2.43.6-1.39 1.2-2.77 1.85-4.13.56-1.19 1.17-2.36 1.68-3.57a7 7 0 0 0 .76-3.77.219.219 0 0 0-.22-.2Zm2.176 12.67c-.07.14-.13.29-.19.44a18.357 18.357 0 0 1 2.75-2.61 28.233 28.233 0 0 0 2.51-2.28c.13-.17.27-.34.39-.51.475-.499.74-1.161.74-1.85a.672.672 0 0 0-.56-.18 2.377 2.377 0 0 0-.92.36c-.353.2-.687.431-1 .69-.79.856-1.49 1.791-2.09 2.79-.25.39-.47.78-.69 1.19l-.32.65c-.21.43-.43.87-.62 1.31Zm9.749-14.931-.26.3c-.13.15-.27.31-.39.48-.16.33-.32.67-.46 1l.49-.39a14.95 14.95 0 0 0 2.11-2c.219-.222.383-.492.48-.79a.292.292 0 0 0 0-.21.237.237 0 0 0-.09-.07l-.18-.06h-.21c-.476.32-.875.74-1.17 1.23-.12.162-.227.333-.32.51Zm18.703 3.641a.906.906 0 0 0-.85-.39c-.466.028-.923.14-1.35.33-.916.375-1.791.844-2.61 1.4a30.015 30.015 0 0 0-3.18 2.41 33.999 33.999 0 0 0-3.58 3.7l-.4.5a21.676 21.676 0 0 1 2.19-1.35c1.41-.76 2.87-1.41 4.3-2.13l.22-.12 3.37-1.9c.33-.2.67-.4 1-.63l.09-.08c.44-.39 1.18-1.08.8-1.74Zm-7.398 12.199a5.448 5.448 0 0 0 1-.83.983.983 0 0 0 .25-.348c.057-.133.084-.277.081-.422v-.13a1.53 1.53 0 0 0-.701-.06c-.22.006-.437.054-.64.14a3.076 3.076 0 0 0-.68.36c-.26.244-.501.508-.72.79a6.59 6.59 0 0 0-.81 1.31l-.11.25a.317.317 0 0 0 .11.14c.31-.14.61-.28.9-.43.453-.233.894-.49 1.32-.77Z" fill="#5CBCEB"/><path d="M198.67 235.329a1.537 1.537 0 0 0-1 .94c-.17.362-.3.741-.39 1.13a.394.394 0 0 0 0 .21.151.151 0 0 0 0 .06c0 .14 0 .3.17.32a.916.916 0 0 0 .57-.2c.187-.136.346-.305.47-.5.253-.359.427-.768.51-1.2a1.178 1.178 0 0 0 0-.56.26.26 0 0 0-.12-.173.265.265 0 0 0-.21-.027Zm7.687 4.861a.13.13 0 0 0-.033-.046.132.132 0 0 0-.048-.029.152.152 0 0 0-.056-.005.142.142 0 0 0-.053.02l-.16.09a.469.469 0 0 0-.16.13l-.06.08-.09.12v-.06l-.1.14a.748.748 0 0 0-.08.16.246.246 0 0 0-.012.137c.008.046.03.088.062.123a.238.238 0 0 0 .26 0 .835.835 0 0 0 .18-.1l.15-.14.08-.1a.405.405 0 0 0 .08-.1.499.499 0 0 0 .06-.27v-.06a.148.148 0 0 0-.001-.047.128.128 0 0 0-.019-.043Zm22.576-5.43a2.965 2.965 0 0 0-.44.06.156.156 0 0 0-.07-.016.156.156 0 0 0-.07.016 3.818 3.818 0 0 0-1.72.79c-.251.193-.492.4-.72.62a1.004 1.004 0 0 0-.39.48.392.392 0 0 0 .19.48c.197.05.403.05.6 0 .222-.042.44-.106.65-.19a5.39 5.39 0 0 0 1.28-.66c.422-.26.748-.65.93-1.11.1-.25-.01-.47-.24-.47Z" fill="#31A9E0" style="mix-blend-mode:screen"/><path d="M239.988 264.84c-.33-.39-1.06-.36-1.52-.35-1.403.041-2.794.28-4.13.71a32.06 32.06 0 0 0-6.66 3.56c-2.23 1.36-4.61 2.82-7.24 3.19-1.3.149-2.618.03-3.87-.35a12.264 12.264 0 0 0-4.44-.23c-1.42.16-2.83.49-4.26.54a2.411 2.411 0 0 1-.34 0l.1-.1c.28-.19.587-.338.91-.44.66-.25 1.84-.62 1.83-1.5-.01-.88-1.21-1.15-1.89-1.16a12.337 12.337 0 0 0-3.19.53c-1 .26-2 .52-3 .76-.494.14-1.007.2-1.52.18a6.002 6.002 0 0 1 2.65-2.31 28.606 28.606 0 0 1 4.75-2c2.64-.88 5.34-1.64 8-2.6a17.628 17.628 0 0 0 4.55-2.27c.95-.71 2.18-2 1.74-3.36-.44-1.36-2-1.17-3-1.05-1.31.169-2.6.471-3.85.9a38.698 38.698 0 0 0-11.89 6.61c-3 2.34-5.81 5.11-9.13 7.05a9.088 9.088 0 0 1-4.94 1.57 4.101 4.101 0 0 1-2.14-.73 2.002 2.002 0 0 1-.84-1.26 4.892 4.892 0 0 0-.43-1.34c-1.05-1.7-3.42-.11-4.54.65a12.2 12.2 0 0 1-2 1.14 2.516 2.516 0 0 1-1.71.28c-.56-.23-.57-1-.54-1.54a9.709 9.709 0 0 1 .87-3.31 22.09 22.09 0 0 1 3.63-5.49c1-1.19 2.17-2.26 3.22-3.42a13.911 13.911 0 0 0 2.81-4 2.995 2.995 0 0 0 .21-1.69c0-.13-.19-.17-.3-.17-1.62-.06-3 1.27-4 2.38a29.654 29.654 0 0 0-3.27 4.67c-1.07 1.81-2 3.66-2.93 5.57a52.955 52.955 0 0 1-3.86 7.3 27.559 27.559 0 0 1-2 2.64 5.113 5.113 0 0 1-2.52 1.81 1.163 1.163 0 0 1-1.1-.18 1.082 1.082 0 0 1-.12-1 5.817 5.817 0 0 1 1.34-1.92 4.004 4.004 0 0 0 1.14-2.32.931.931 0 0 0-1.47-.82 4.935 4.935 0 0 0-1.54 1.79c-.4.63-.75 1.29-1.2 1.9-4.51 6.19-12.8 2.86-19.07 3.33-.804.05-1.602.181-2.38.39a2.644 2.644 0 0 0-1.25.7c-.58.68-.16 1.31.49 1.71.81.443 1.674.779 2.57 1 .823.259 1.666.453 2.52.58 3.931.576 7.929.515 11.84-.18 1.51-.27 3-.83 4.43-1.23a8 8 0 0 1 4.21-.39c-.237.382-.538.72-.89 1a2.886 2.886 0 0 0-.86 1.82.388.388 0 0 0 .31.38 7.512 7.512 0 0 0 4.48-.94c1.53-.7 3-1.48 4.51-2.26a30.79 30.79 0 0 1 5.23-2.3 11.169 11.169 0 0 1 1.9-.45c.42 0 1.24-.16 1.48.32s-.19.89-.16 1.3a1.476 1.476 0 0 0 1.3 1.18c1.4.22 2.83-.74 3.94-1.48a20.887 20.887 0 0 1 4.75-2.43 19.23 19.23 0 0 1 6.11-1 23.041 23.041 0 0 1 6.12.81c1.71.45 3.39 1.08 5.14 1.36 1.82.272 3.68.086 5.41-.54 1.85-.63 3.69-1.34 5.61-1.79a14.789 14.789 0 0 1 4.83-.37c.77.08 1.55.18 2.33.25 2.056.337 4.156.303 6.2-.1a2.165 2.165 0 0 0 1.71-1.47 1.857 1.857 0 0 0-1.29-1.95 8.005 8.005 0 0 0-3.34-.39c-1.16 0-2.31.17-3.47.2-.183.01-.367.01-.55 0 .33-.36.728-.653 1.17-.86a18.78 18.78 0 0 1 2.79-1.16c1.73-.6 3.6-1.09 5-2.33.32-.31.96-.99.51-1.53Z" fill="#5CBCEB"/><path d="M169.273 279.46c.28-.21 1.1-.78.7-1.18a1.336 1.336 0 0 0-.44-.25 4.88 4.88 0 0 0-.78-.21 9.858 9.858 0 0 0-2-.15 21.758 21.758 0 0 0-4.18.59c-1.32.3-2.63.65-4 .89-1.51.28-3 .53-4.55.71a39.849 39.849 0 0 1-4.62.29 13.954 13.954 0 0 1-3.64-.29 2.601 2.601 0 0 1-1.8-1.25 2.306 2.306 0 0 1-.19-.71l-.17.17c-.58.68-.16 1.31.49 1.71.81.442 1.674.778 2.57 1 .824.259 1.666.453 2.52.58 3.931.576 7.929.515 11.84-.18 1.51-.27 3-.83 4.43-1.23a9.103 9.103 0 0 1 3.82-.49Zm16.534-2.29c.067-.175.085-.366.05-.55a1.054 1.054 0 0 0-.61-.63 3.308 3.308 0 0 0-2-.07c-.786.155-1.556.383-2.301.68a50.021 50.021 0 0 0-4.829 2.2 65.074 65.074 0 0 1-6 3.16 3.793 3.793 0 0 1-1.93.33l-.3-.09c-.005.06-.005.12 0 .18a.387.387 0 0 0 .309.38 7.517 7.517 0 0 0 4.481-.94c1.53-.7 3-1.48 4.51-2.26a30.815 30.815 0 0 1 5.229-2.3 11.074 11.074 0 0 1 1.9-.45c.43-.05 1.251-.12 1.491.36Zm24.919-.94a46.783 46.783 0 0 0-7.51-2.11 14.78 14.78 0 0 0-7.91 1.07 23.974 23.974 0 0 0-3.48 1.8c-.774.491-1.575.939-2.4 1.34a6.294 6.294 0 0 1-3.52.75c.261.296.613.497 1 .57 1.4.22 2.83-.74 3.94-1.48a20.908 20.908 0 0 1 4.75-2.43 19.236 19.236 0 0 1 6.11-1 23.082 23.082 0 0 1 6.12.81c1.7.45 3.37 1.07 5.11 1.35-.733-.207-1.47-.43-2.21-.67Zm24.166-1.921c-1.84-.29-3.62-.87-5.46-1.2a10.512 10.512 0 0 0-2.62-.17c-1.08.084-2.142.327-3.15.72a37.84 37.84 0 0 0-4.56 2.47 50.27 50.27 0 0 1 4.93-1.56 14.84 14.84 0 0 1 4.83-.37c.77.08 1.55.18 2.33.25 1.893.28 3.817.28 5.71 0a11.176 11.176 0 0 1-2.01-.14Z" fill="#5CBCEB" style="mix-blend-mode:multiply"/><path d="M143.758 278.76a1.44 1.44 0 0 1 .92-.61 8.785 8.785 0 0 1 2.46-.1c1.43.05 2.85.19 4.27.33l2.18.21c.71.06 1.43.12 2.14.12a14.694 14.694 0 0 0 5.71-1.08 10.51 10.51 0 0 0 3.58-2.61c-4.68 4.22-12.08 1.49-17.8 1.92-.804.05-1.601.18-2.38.39a2.632 2.632 0 0 0-1.25.7.906.906 0 0 0-.198.994c.046.11.113.211.198.296a1.28 1.28 0 0 1 .17-.56Zm24.379-2.73a.794.794 0 0 1-.19-.6 1.13 1.13 0 0 0 0 .26.997.997 0 0 0 .59 1.05 2.737 2.737 0 0 0 2.06-.48 8.713 8.713 0 0 0 2.32-1.86 25.682 25.682 0 0 0 3.34-5.18c.47-.87.94-1.74 1.37-2.64.43-.9 1-2 1.45-3a84.94 84.94 0 0 1 1.94-3.65 41.916 41.916 0 0 1 2.28-3.62 16.673 16.673 0 0 1 2.46-2.85 4.992 4.992 0 0 1 2.46-1.35v-.13c0-.05-.19-.17-.3-.17-1.62-.06-3 1.27-4 2.38a29.588 29.588 0 0 0-3.27 4.67c-1.07 1.81-2 3.66-2.93 5.57a53.121 53.121 0 0 1-3.86 7.3 27.559 27.559 0 0 1-2 2.64 5.117 5.117 0 0 1-2.52 1.81 1.165 1.165 0 0 1-1.2-.15Zm19.33-4.041a2 2 0 0 1-.84-1.26 4.903 4.903 0 0 0-.43-1.34c-1.05-1.7-3.42-.11-4.54.65a12.2 12.2 0 0 1-2 1.14 2.505 2.505 0 0 1-1.71.28.711.711 0 0 1-.242-.164.711.711 0 0 1-.158-.246c.006.147.033.291.08.43a1.378 1.378 0 0 0 1.71.79 5.772 5.772 0 0 0 2.06-1.44 7.532 7.532 0 0 1 2-1.49 1.36 1.36 0 0 1 .95-.07 1.158 1.158 0 0 1 .76.77c.082.381.119.771.11 1.16.026.469.134.929.32 1.36.83 1.87 3.1 2.16 4.9 1.89a12.804 12.804 0 0 0 5.8-2.85 63.421 63.421 0 0 0 4.92-4.51c.85-.82 1.71-1.64 2.62-2.41.91-.77 2-1.64 3.07-2.4a61.2 61.2 0 0 1 5.27-3.46 43.473 43.473 0 0 0-8.47 5.28c-3 2.34-5.81 5.11-9.13 7.05a9.083 9.083 0 0 1-4.94 1.57 4.095 4.095 0 0 1-2.11-.73Zm35.041-13.359-.13.12a11.251 11.251 0 0 1-2.83 1.82c-.93.45-1.9.82-2.86 1.19-1.47.56-3 1.07-4.45 1.57-1.68.56-3.37 1.13-5 1.81-.82.34-1.63.71-2.41 1.12-.78.41-1.4.81-2.08 1.24a9.225 9.225 0 0 0-2.27 1.91c-.22.25-.53.64-.47 1 .06.36.55.46.85.43a6.226 6.226 0 0 0 1.63-.47c.61-.23 1.2-.5 1.8-.74.24-.1.48-.19.73-.27.25-.08.65-.15 1-.23a3.91 3.91 0 0 1 2.27-.05.103.103 0 0 1 .037.024c.011.011.02.024.025.038a.113.113 0 0 1-.002.088.84.84 0 0 1-.16.21c-.36.319-.773.573-1.22.75-.54.25-1.08.49-1.59.78a2.415 2.415 0 0 0-1.05 1 .753.753 0 0 0-.012.585.74.74 0 0 0 .412.415c.49.14 1.009.14 1.5 0a13.066 13.066 0 0 0 1.61-.47l.55-.2a5.89 5.89 0 0 1 .6-.16l.79-.16a30.318 30.318 0 0 1 3.16-.47 13.38 13.38 0 0 1 1.55-.11c.45 0 .91 0 1.37.05a13.489 13.489 0 0 0-3.7-.07c-1.42.16-2.83.49-4.26.54a2.411 2.411 0 0 1-.34 0l.1-.1c.28-.19.587-.338.91-.44.66-.25 1.84-.62 1.83-1.5-.01-.88-1.21-1.15-1.89-1.16a12.33 12.33 0 0 0-3.19.53c-1 .26-2 .52-3 .76-.494.14-1.007.2-1.52.18a5.992 5.992 0 0 1 2.65-2.31 28.535 28.535 0 0 1 4.75-2c2.64-.88 5.34-1.64 8-2.6a17.628 17.628 0 0 0 4.55-2.27 4.592 4.592 0 0 0 1.76-2.38Zm17.482 6.21c-.33-.39-1.06-.36-1.52-.35-1.404.041-2.794.28-4.13.71-.776.257-1.532.571-2.26.94a19.405 19.405 0 0 1 3.55-1c.59-.1 1.93-.25 1.84.72-.06.275-.22.518-.45.68a5.6 5.6 0 0 1-1.05.65c-.904.427-1.828.808-2.77 1.14-.35.13-.7.26-1.05.41l-.61.27c-.8.32-1.58.66-2.35 1-.441.208-.868.442-1.28.7-.327.18-.624.41-.88.68a.656.656 0 0 0-.16.26.168.168 0 0 0 0 .18.418.418 0 0 0 .18.11c.109.036.224.057.34.06.332.036.667.036 1 0 .426-.053.856-.123 1.29-.21.95-.18 1.9-.41 2.85-.63.784-.2 1.579-.36 2.38-.48.264-.045.535-.045.8 0 .403.089.8.203 1.19.34a7.145 7.145 0 0 1 2.1 1.09 2.204 2.204 0 0 0-1.22-1.17 8.007 8.007 0 0 0-3.34-.39c-1.16 0-2.31.17-3.47.2-.184.01-.367.01-.55 0 .33-.36.727-.652 1.17-.86a18.95 18.95 0 0 1 2.79-1.16c1.73-.6 3.6-1.09 5-2.33.42-.34 1.06-1.02.61-1.56Z" fill="#97DAF8" style="mix-blend-mode:screen"/><path d="M73.89 270.17a11.16 11.16 0 0 0 3.86 1.79c.74.24 1.458.538 2.15.89.341.162.647.39.9.67h-.42c-.89 0-1.78-.13-2.67-.16a6.397 6.397 0 0 0-2.58.31 1.415 1.415 0 0 0-1 1.5 1.68 1.68 0 0 0 1.31 1.14c1.58.308 3.203.332 4.79.07.6-.05 1.19-.13 1.79-.19a11.154 11.154 0 0 1 3.73.29 44.17 44.17 0 0 1 4.32 1.38 8.693 8.693 0 0 0 4.17.41c1.35-.22 2.64-.7 4-1.05a18.354 18.354 0 0 1 4.721-.63 15.06 15.06 0 0 1 4.71.78 16.284 16.284 0 0 1 3.66 1.88c.86.57 2 1.31 3 1.14a1.164 1.164 0 0 0 1-.91c0-.31-.27-.72-.13-1s.82-.29 1.14-.25c.497.081.989.198 1.47.35a23.673 23.673 0 0 1 4 1.77c1.14.6 2.3 1.21 3.48 1.74a5.808 5.808 0 0 0 3.45.73.318.318 0 0 0 .172-.108.318.318 0 0 0 .068-.192 2.223 2.223 0 0 0-.66-1.4 2.809 2.809 0 0 1-.69-.81 6.179 6.179 0 0 1 3.24.3c1.14.31 2.25.74 3.42 1 3.016.536 6.098.583 9.13.14a14.175 14.175 0 0 0 1.94-.44 8.668 8.668 0 0 0 2-.78c.5-.3.83-.79.38-1.32a2.009 2.009 0 0 0-1-.53 8.115 8.115 0 0 0-1.83-.3c-4.83-.37-11.23 2.2-14.71-2.58-.34-.47-.61-1-.91-1.46a3.87 3.87 0 0 0-1.19-1.37.73.73 0 0 0-.376-.135.717.717 0 0 0-.764.755c.08.679.391 1.311.88 1.79.426.424.765.926 1 1.48a.856.856 0 0 1-.1.79.895.895 0 0 1-.84.14 3.997 3.997 0 0 1-1.95-1.39 21.706 21.706 0 0 1-1.55-2 40.388 40.388 0 0 1-3-5.63c-.68-1.47-1.44-2.9-2.26-4.3a22.981 22.981 0 0 0-2.52-3.59c-.78-.86-1.85-1.89-3.1-1.84-.09 0-.21 0-.23.13-.079.439-.023.892.16 1.3a10.53 10.53 0 0 0 2.17 3.08c.8.9 1.69 1.73 2.48 2.64a17.014 17.014 0 0 1 2.79 4.23 7.59 7.59 0 0 1 .68 2.56c0 .39 0 1-.42 1.19a1.922 1.922 0 0 1-1.32-.22 9.292 9.292 0 0 1-1.53-.88c-.86-.58-2.7-1.81-3.5-.5a3.428 3.428 0 0 0-.33 1 1.527 1.527 0 0 1-.65 1 3.275 3.275 0 0 1-1.65.57 7.078 7.078 0 0 1-3.81-1.21c-2.56-1.5-4.7-3.63-7-5.44a30.382 30.382 0 0 0-9.17-5.1 15.206 15.206 0 0 0-3-.69c-.79-.09-2-.12-2.35.81-.35.93.61 2 1.35 2.59a13.035 13.035 0 0 0 3.5 1.75c2 .74 4.1 1.33 6.14 2a22.13 22.13 0 0 1 3.67 1.51c.829.38 1.526 1 2 1.78a3.881 3.881 0 0 1-1.17-.14l-2.28-.58a9.308 9.308 0 0 0-2.46-.42c-.52 0-1.45.21-1.46.9-.01.69.91 1 1.42 1.16.246.071.48.183.69.33l.09.08h-.27c-1.1 0-2.19-.29-3.28-.41a9.405 9.405 0 0 0-3.43.17 7.151 7.151 0 0 1-3 .27 15.324 15.324 0 0 1-5.58-2.45 24.559 24.559 0 0 0-5.13-2.75 11.885 11.885 0 0 0-3.19-.55c-.36 0-.92 0-1.17.27-.25.27.32.89.61 1.15Z" fill="#5CBCEB"/><path d="M127.984 280.229c-.22-.17-.85-.6-.54-.91a.892.892 0 0 1 .34-.19c.193-.077.394-.134.6-.17a8.257 8.257 0 0 1 1.57-.12c1.085.054 2.163.208 3.22.46 1 .23 2 .5 3.06.69 1.06.19 2.33.41 3.5.54 1.175.141 2.356.217 3.54.23.939.052 1.88-.022 2.8-.22a1.99 1.99 0 0 0 1.39-1c.08-.173.13-.359.15-.55l.13.13c.45.53.12 1-.38 1.32a8.668 8.668 0 0 1-2 .78c-.636.193-1.284.34-1.94.44a28.51 28.51 0 0 1-9.13-.14c-1.17-.21-2.28-.64-3.42-1a7.142 7.142 0 0 0-2.89-.29Zm-12.716-1.759a.67.67 0 0 1 0-.42.79.79 0 0 1 .47-.49 2.617 2.617 0 0 1 1.52-.06 11.29 11.29 0 0 1 1.77.53c.48.18.94.39 1.41.59.79.34 1.57.7 2.32 1.11 1.504.889 3.052 1.7 4.64 2.43.461.216.973.303 1.48.25a.877.877 0 0 0 .23-.06v.13a.313.313 0 0 1-.24.3 5.808 5.808 0 0 1-3.45-.73c-1.18-.53-2.34-1.14-3.48-1.74a23.673 23.673 0 0 0-4-1.77 10.472 10.472 0 0 0-1.47-.35c-.43-.01-1.07-.1-1.2.28Zm-19.258-.71a36.328 36.328 0 0 1 5.79-1.62 11.289 11.289 0 0 1 6.1.82c.928.393 1.824.858 2.68 1.39.598.368 1.215.702 1.85 1 .83.457 1.776.659 2.72.58a1.45 1.45 0 0 1-.81.44c-1.08.17-2.18-.57-3-1.14a16.201 16.201 0 0 0-3.66-1.88 15.022 15.022 0 0 0-4.71-.78 18.35 18.35 0 0 0-4.72.63 38.523 38.523 0 0 1-3.93 1c.54-.1 1.12-.28 1.69-.44Zm-18.628-1.49c1.42-.23 2.79-.67 4.21-.93a8.032 8.032 0 0 1 2-.13 8.387 8.387 0 0 1 2.43.55 29.028 29.028 0 0 1 3.51 1.9 38.363 38.363 0 0 0-3.79-1.19 11.154 11.154 0 0 0-3.73-.29c-.6.06-1.19.14-1.79.19a15.157 15.157 0 0 1-4.41 0 8.966 8.966 0 0 0 1.57-.1Z" fill="#5CBCEB" style="mix-blend-mode:multiply"/><path d="M147.64 279.76a1.113 1.113 0 0 0-.71-.46 6.342 6.342 0 0 0-1.9-.08c-1.1 0-2.2.15-3.29.26l-1.68.16c-.55 0-1.1.09-1.65.09a11.028 11.028 0 0 1-4.4-.84 8.081 8.081 0 0 1-2.76-2c3.61 3.25 9.31 1.15 13.72 1.48.619.03 1.233.13 1.83.3.377.076.725.26 1 .53a.708.708 0 0 1 0 1 1.005 1.005 0 0 0-.16-.44Zm-18.801-2.17a.623.623 0 0 0 .15-.46c.006.066.006.133 0 .2a.752.752 0 0 1-.45.81 2.12 2.12 0 0 1-1.59-.37 6.735 6.735 0 0 1-1.79-1.44 19.8 19.8 0 0 1-2.58-4c-.36-.67-.72-1.34-1.05-2-.33-.66-.74-1.53-1.12-2.28-.48-.95-1-1.9-1.5-2.82a29.471 29.471 0 0 0-1.76-2.79 13.136 13.136 0 0 0-1.89-2.2 3.918 3.918 0 0 0-1.9-1v-.1c0-.04.14-.13.23-.13 1.25-.05 2.32 1 3.1 1.84a22.848 22.848 0 0 1 2.52 3.59c.82 1.4 1.58 2.83 2.26 4.3a40.55 40.55 0 0 0 3 5.63 22.2 22.2 0 0 0 1.55 2 4.012 4.012 0 0 0 1.95 1.39.902.902 0 0 0 .87-.17Zm-14.897-3.121a1.52 1.52 0 0 0 .65-1c.058-.348.169-.685.33-1 .8-1.31 2.64-.08 3.5.5.481.341.993.636 1.53.88.399.23.868.308 1.32.22a.557.557 0 0 0 .31-.32c0 .113-.02.225-.06.33a1.06 1.06 0 0 1-1.32.61 4.27 4.27 0 0 1-1.59-1.11 5.671 5.671 0 0 0-1.56-1.15 1.086 1.086 0 0 0-.73-.06.9.9 0 0 0-.58.6c-.07.295-.1.598-.09.9a2.995 2.995 0 0 1-.25 1.05c-.64 1.44-2.38 1.66-3.78 1.45a9.762 9.762 0 0 1-4.46-2.2 49.514 49.514 0 0 1-3.8-3.47c-.66-.64-1.32-1.27-2-1.86-.68-.59-1.56-1.26-2.37-1.85a47.538 47.538 0 0 0-4.07-2.67 33.563 33.563 0 0 1 6.54 4.07c2.33 1.81 4.47 3.94 7 5.44a7.061 7.061 0 0 0 3.81 1.21 3.263 3.263 0 0 0 1.67-.57ZM86.93 264.17l.1.1a8.754 8.754 0 0 0 2.18 1.4c.72.34 1.46.63 2.21.92 1.13.43 2.27.83 3.42 1.21 1.3.43 2.6.87 3.86 1.39.63.27 1.25.55 1.86.87.61.32 1.08.62 1.6.95a7.301 7.301 0 0 1 1.75 1.47c.17.2.41.5.36.78-.05.28-.42.35-.66.33a4.986 4.986 0 0 1-1.25-.36c-.47-.18-.93-.39-1.39-.57a6.37 6.37 0 0 0-.56-.21c-.19-.06-.5-.12-.75-.18a3.066 3.066 0 0 0-1.75 0 .09.09 0 0 0-.023.06.09.09 0 0 0 .023.06c.03.059.071.114.12.16.28.242.598.437.94.58.41.19.83.37 1.22.6.345.163.629.433.81.77a.585.585 0 0 1-.109.649.571.571 0 0 1-.191.131 2.08 2.08 0 0 1-1.16 0 9.21 9.21 0 0 1-1.24-.36l-.43-.16a3.823 3.823 0 0 0-.46-.11l-.6-.13c-.81-.17-1.63-.28-2.44-.37-.4 0-.8-.07-1.2-.08-.4-.01-.7 0-1.05 0a10.424 10.424 0 0 1 2.85-.05c1.09.12 2.18.37 3.28.41h.27l-.09-.08a2.331 2.331 0 0 0-.69-.33c-.51-.2-1.42-.48-1.42-1.16 0-.68.94-.89 1.46-.9.835.029 1.662.17 2.46.42l2.28.58c.38.106.775.153 1.17.14a4.568 4.568 0 0 0-2-1.78 22.13 22.13 0 0 0-3.67-1.51c-2-.68-4.12-1.27-6.14-2a13.005 13.005 0 0 1-3.5-1.75 3.53 3.53 0 0 1-1.45-1.89Zm-13.482 4.79c.25-.3.81-.28 1.17-.27 1.083.038 2.156.223 3.19.55.595.195 1.174.439 1.73.73a15.262 15.262 0 0 0-2.73-.8c-.46-.08-1.49-.19-1.42.55.045.215.17.404.35.53.25.197.521.365.81.5.69.34 1.41.61 2.13.88.27.1.55.2.81.31.26.11.31.15.47.21.62.25 1.22.52 1.82.81.33.17.67.34 1 .54.248.142.474.321.67.53a.503.503 0 0 1 .13.2.171.171 0 0 1 0 .14.364.364 0 0 1-.14.08 1.21 1.21 0 0 1-.26.05 3.962 3.962 0 0 1-.77 0c-.33 0-.66-.1-1-.16-.74-.15-1.47-.32-2.2-.49a16.695 16.695 0 0 0-1.84-.37 1.565 1.565 0 0 0-.61 0c-.313.067-.62.154-.92.26a5.569 5.569 0 0 0-1.62.84 1.637 1.637 0 0 1 .94-.9 6.415 6.415 0 0 1 2.58-.31c.89 0 1.78.14 2.67.16h.42a2.902 2.902 0 0 0-.9-.67 15.039 15.039 0 0 0-2.15-.89 11.14 11.14 0 0 1-3.86-1.79c-.32-.27-.82-.8-.47-1.22Z" fill="#97DAF8" style="mix-blend-mode:screen"/><path d="M181.27 279.889a4.84 4.84 0 0 0-3.38-1.1 24.443 24.443 0 0 0-3.71.38c-.984.18-1.954.434-2.9.76a10.585 10.585 0 0 1-3.34.69 1.36 1.36 0 0 1-1-.44c-.24-.32-.06-.62.16-.89.62-.81 1.53-1.55 1.39-2.68-.14-1.13-1.22-1.09-2.07-.83-.964.352-1.909.756-2.83 1.21-.958.469-1.964.835-3 1.09a3.19 3.19 0 0 1-2.48-.31 4.609 4.609 0 0 1-1.6-2.95 17.225 17.225 0 0 1 .07-5.31c.21-1.278.21-2.581 0-3.86a1.264 1.264 0 0 0-.78-1 .885.885 0 0 0-.76.2 3.114 3.114 0 0 0-.79 1.79c-.21.93-.32 1.88-.45 2.82s-.23 1.87-.4 2.79a3.07 3.07 0 0 1-1.13 2.09 2.127 2.127 0 0 1-2 .42 2.605 2.605 0 0 1-1.42-1.13c-.66-.91-1.4-1.93-2.67-1.57-1.1.31-1.73 1.43-2.31 2.32a3.653 3.653 0 0 1-.85 1.06 2.332 2.332 0 0 1-1.87.38 7.266 7.266 0 0 1-3.35-2.29c-.392-.392-.76-.81-1.1-1.25-1.09-1.36-2.16-2.73-3.3-4.05a27.475 27.475 0 0 0-4.07-4.07c-.94-.72-2.39-1.6-3.52-.73-1.13.87-.92 2.25-.31 3.33a18.8 18.8 0 0 0 3.14 3.71 20 20 0 0 1 3.25 3.87c.324.52.5 1.118.51 1.73a1.918 1.918 0 0 1-.71 1.41 2.563 2.563 0 0 1-2.62.57 18.097 18.097 0 0 1-2.84-1.47 4.19 4.19 0 0 0-2.91-.54.624.624 0 0 0-.45.52c-.031.335.061.67.26.94.334.337.727.608 1.16.8.36.15.74.24 1.11.38.382.105.728.313 1 .6a.693.693 0 0 1 0 .83c-.178.192-.42.312-.68.34a4.178 4.178 0 0 1-1.06 0c-.42-.05-.83-.13-1.24-.22-.74-.17-1.46-.39-2.18-.58a5.277 5.277 0 0 0-1-.16c-.7-.08-1.41-.14-2.11-.18a19.502 19.502 0 0 0-4.25.19 4.007 4.007 0 0 0-2.74 1.31 1.002 1.002 0 0 0-.22.81 4.522 4.522 0 0 0 3.84.81c1.69-.24 3.32-.84 5-.93a4.077 4.077 0 0 1 1.89.31c-.86.49-1.88.76-2.77 1.16a4.395 4.395 0 0 0-2.59 2.38.293.293 0 0 0 .096.339.286.286 0 0 0 .114.051 9.966 9.966 0 0 0 3.49-.17c1.26-.23 2.49-.58 3.72-.92a18.931 18.931 0 0 1 6.87-1c2.57.21 5 1.06 7.6 1.32 7.481.624 15.007.447 22.45-.53 3.75-.43 7.48-1 11.21-1.59 2.49-.4 7.61-.22 9.31-2.35.12-.14.29-.45.12-.61Z" fill="#97DAF8"/><path d="M125.274 266.05a1.811 1.811 0 0 1 1.81-1.32c1 .14 1.934.579 2.68 1.26a18.094 18.094 0 0 1 2.53 2.42c.68.75 1.3 1.54 1.92 2.35a21.513 21.513 0 0 0 3.46 3.86 8.25 8.25 0 0 0 2 1.26 2.725 2.725 0 0 0 1.59.21c.167-.038.326-.105.47-.2a2.149 2.149 0 0 1-.56-.05 7.263 7.263 0 0 1-3.35-2.29 13.06 13.06 0 0 1-1.1-1.25c-1.09-1.36-2.16-2.73-3.3-4.05a27.523 27.523 0 0 0-4.07-4.07c-.94-.72-2.39-1.6-3.52-.73a2.262 2.262 0 0 0-.58 2.75l.02-.15Zm-2.142 11.47a1.006 1.006 0 0 1 .69-.4c.464-.05.934.011 1.37.18.485.149.959.329 1.42.54a16.31 16.31 0 0 0 3 1.12c.777.208 1.6.162 2.35-.13a1.244 1.244 0 0 0 .72-.91 2.85 2.85 0 0 0-.21-1.41c0-.09-.07-.18-.11-.27a2.001 2.001 0 0 1-.7 1.26 2.562 2.562 0 0 1-2.62.57 18.269 18.269 0 0 1-2.84-1.47 4.19 4.19 0 0 0-2.91-.54.62.62 0 0 0-.45.52c-.032.335.061.669.26.94h.03Zm-11.483 4.18c.329-.361.769-.6 1.25-.68a12.228 12.228 0 0 1 2.09-.35c.74-.074 1.48-.114 2.22-.12h1.63c.456.034.91.094 1.36.18.72.13 1.43.26 2.16.36.721.115 1.45.165 2.18.15.43 0 1.07-.06 1.34-.44a.623.623 0 0 0 .1-.44l-.29.08a4.178 4.178 0 0 1-1.06 0c-.42-.05-.83-.13-1.24-.22-.74-.17-1.46-.39-2.18-.58a5.122 5.122 0 0 0-1-.16c-.7-.08-1.41-.14-2.11-.18a19.44 19.44 0 0 0-4.25.19 3.998 3.998 0 0 0-2.74 1.31 1.005 1.005 0 0 0-.22.81c.184.164.385.308.6.43a.575.575 0 0 1 .16-.34Zm34.62-8.84c1.16.29 1.7 1.61 2.23 2.56.246.529.584 1.01 1 1.42a3.7 3.7 0 0 0 1 .6 1.456 1.456 0 0 0 1.38-.08c.413-.345.71-.81.85-1.33.224-.689.375-1.4.45-2.12.09-.75.14-1.49.16-2.24l-.09.56a3.072 3.072 0 0 1-1.13 2.09 2.132 2.132 0 0 1-1.85.44 2.614 2.614 0 0 1-1.42-1.13c-.66-.91-1.4-1.93-2.67-1.57a2.872 2.872 0 0 0-1.39 1 2.322 2.322 0 0 1 1.48-.2Zm10.162 1.959a15.988 15.988 0 0 1 .06-5.17 21.72 21.72 0 0 0-.89 3.08c-.2.92-.29 1.86-.27 2.8.002.824.208 1.635.6 2.36a3.225 3.225 0 0 0 1.85 1.45 3.756 3.756 0 0 0 2.52-.12 8.852 8.852 0 0 0 2.21-1.42l.83-.72c-.906.431-1.855.766-2.83 1a3.196 3.196 0 0 1-2.48-.31 4.609 4.609 0 0 1-1.6-2.95Zm11.509 5.801a1.35 1.35 0 0 1-1-.44c-.24-.32-.06-.62.16-.89a5.525 5.525 0 0 0 1.37-2.11c-.29.2-.58.39-.86.6a8.928 8.928 0 0 0-1.86 1.67 1.538 1.538 0 0 0-.446.804c-.062.308-.029.628.096.916a2.002 2.002 0 0 0 1.83.68 8.16 8.16 0 0 0 2.19-.4c1.21-.37 2.37-.87 3.54-1.35a27.722 27.722 0 0 1 3.56-1.24c-.78.07-1.55.2-2.32.31-.984.179-1.954.433-2.9.76a10.65 10.65 0 0 1-3.36.69Z" fill="#97DAF8" style="mix-blend-mode:screen"/><path d="M156.092 296.999a7.144 7.144 0 0 0-2.35-.63 12.672 12.672 0 0 0-3.58.12c-.436.021-.87.068-1.3.14a9.332 9.332 0 0 0-2.06.59c-.47.2-1.36.59-1.29 1.24.07.65 1 .84 1.52 1 2.386.676 4.913.676 7.3 0a8.898 8.898 0 0 0 1.51-.53 1.671 1.671 0 0 0 1-.88c.09-.55-.38-.87-.75-1.05Zm-.09 1h-.05a.206.206 0 0 0-.06-.14 2.844 2.844 0 0 0-.48-.43c.177.074.345.168.5.28l.14.14s-.06.18-.05.19v-.04Z" fill="#5CBCEB" style="mix-blend-mode:multiply"/><path d="M167.271 300.19c-.26-1-1.71-.91-2.49-.85a9.512 9.512 0 0 0-2.94.6h-.06c-.54.14-1.18.44-1 1 .18.56 1.06.62 1.55.63.871-.002 1.74-.099 2.59-.29a6.281 6.281 0 0 0 2.13-.69.461.461 0 0 0 .22-.4Zm-5.75.5h.07c.193.136.41.235.64.29a1.78 1.78 0 0 1-.56-.1.464.464 0 0 1-.18-.19h.03Zm27.976-3.32a.999.999 0 0 0-.56-.33 8.785 8.785 0 0 0-3.19-.19c-.4 0-.79.09-1.19.16a5.294 5.294 0 0 0-1.72.28 2.514 2.514 0 0 0-.52.25.887.887 0 0 0-.35.31.896.896 0 0 0-.27.7c.05.3.39.37.64.4.47.07.94.13 1.42.16a11.842 11.842 0 0 0 4.27-.42 3.052 3.052 0 0 0 1.34-.65.571.571 0 0 0 .13-.67Zm-15.64-2.28a2.16 2.16 0 0 0-.94-.17h-.9a.532.532 0 0 0-.23.06 1.001 1.001 0 0 0-.68.31.3.3 0 0 0-.062.091.286.286 0 0 0 .062.309c.184.127.392.215.61.26.242.063.491.097.74.1a2.097 2.097 0 0 0 1.47-.49.381.381 0 0 0 .13-.31.245.245 0 0 0-.2-.16Z" fill="#97DAF8" style="mix-blend-mode:screen"/><path fill-rule="evenodd" clip-rule="evenodd" d="M226.7 248.56c.43.09.95.17 1.23.24 2.34.57 4.66 1.3 7 1.83.74.17 1.47.35 2.19.55 8.61 2.36 20.52 8.4 23.17 17.7.83 2.91 1.06 6.27-1.08 8.69-2.51 2.84-7.05 2.93-10.53 2.6a70.597 70.597 0 0 1-13.74-3.1c-3.53-1.1-7-2.33-10.5-3.6-2.22-.81-4.45-1.63-6.66-2.47-1.64-.63-3.28-1.28-4.87-2-2.16-1-4.48-2.24-5.91-4.19a7.015 7.015 0 0 1-.82-1.39 11.416 11.416 0 0 1-.68-2.58c-.27-1.45-.56-2.89-.9-4.33-.27-1.19-.56-2.38-.86-3.56-.41-1.65-.84-3.29-1.31-4.92a32.39 32.39 0 0 0-1.11-3.37 871.075 871.075 0 0 1-5.37-13.3 1426.685 1426.685 0 0 1-14.15-37.37 1.992 1.992 0 0 1 .067-1.602c.121-.248.292-.469.503-.647.21-.179.455-.312.72-.391l45.93-14.88a2.059 2.059 0 0 1 1.693.199 2.06 2.06 0 0 1 .957 1.411 153.282 153.282 0 0 1-4.29 67.25 22.367 22.367 0 0 0-.68 3.23Z" fill="#0F0E0E"/><path fill-rule="evenodd" clip-rule="evenodd" d="M229.661 178.41c4.3 25.48.65 49.76-4.24 66.33a24.876 24.876 0 0 0-.82 4.09c-.19 1.64 1.08 1.53 2.85 2 2.2.54 5.17 1.42 7 1.84 11.1 2.51 21.64 9.09 23.84 16.81 4.3 15.11-19 7.29-33.17 2.11-10.25-3.75-14.61-5.39-16.51-8-1.15-1.56-.78-2.17-2-7.54a110.622 110.622 0 0 0-3.34-12.19c-8.93-21.48-19.49-50.58-19.49-50.58l45.88-14.87Z" fill="#E9BC9D"/><path fill-rule="evenodd" clip-rule="evenodd" d="M117.65 265.54a9.356 9.356 0 0 1-2.7 1.89c-1.76.95-3.6 1.81-5.42 2.63a156.889 156.889 0 0 1-16.26 6.22A78.56 78.56 0 0 1 77 279.97c-3.88.36-9.27.31-11.93-3-1.85-2.32-1.71-5.34-.94-8.05 2.66-9.3 14.56-15.34 23.17-17.7.72-.2 1.46-.38 2.19-.55 2.35-.53 4.67-1.26 7-1.83.29-.07.81-.15 1.24-.24a24.015 24.015 0 0 0-.7-3.24 153.27 153.27 0 0 1-4.29-67.25 2.046 2.046 0 0 1 .957-1.411 2.06 2.06 0 0 1 1.693-.199l45.93 14.88a1.998 1.998 0 0 1 1.29 2.64 1456.132 1456.132 0 0 1-14.15 37.37 723.993 723.993 0 0 1-5.37 13.3 32.39 32.39 0 0 0-1.11 3.37c-.48 1.63-.91 3.27-1.32 4.91-.14.59-.29 1.17-.43 1.76-.67 2.93-.41 8.55-2.58 10.81Z" fill="#0F0E0E"/><path fill-rule="evenodd" clip-rule="evenodd" d="M94.804 178.41c-4.3 25.48-.64 49.76 4.24 66.33.387 1.338.662 2.706.82 4.09.19 1.64-1.08 1.53-2.85 2-2.2.54-5.17 1.42-7 1.84-11.1 2.51-21.63 9.09-23.84 16.81-6.05 21.23 49.22-3.15 50-5.26 1.56-1.43 1.44-6.94 2.17-10a91.63 91.63 0 0 1 3-10.35c8.93-21.48 19.48-50.58 19.48-50.58l-46.02-14.88Z" fill="#E9BC9D"/><path fill-rule="evenodd" clip-rule="evenodd" d="M108.267 227.279c4.34 1.2 10.12 5.06 8.43 11.8-1.38 5.54-1.47 15.13-4.65 21.19h.09c.38-.16.77-.3 1.16-.42a11.002 11.002 0 0 1 4.27-.58c.22-1.77.37-3.65.7-5a91.75 91.75 0 0 1 3-10.35c1.58-3.8 3.21-7.84 4.82-11.91a34.12 34.12 0 0 1-8-4.05 70.505 70.505 0 0 0-6.74-4.1 8.31 8.31 0 0 0-3.35-1 14.07 14.07 0 0 0-3.28.44c-2 .42-4 .83-6.1 1.14-1.323.209-2.66.319-4 .33.16 1 .32 2.07.5 3.08 5.67.24 9.99-1.45 13.15-.57Zm89.1 2.061c1.94 4.95 3.94 9.91 5.86 14.52a110.458 110.458 0 0 1 3.38 12.18c.3 1.27.51 2.28.66 3.09a7.988 7.988 0 0 1 4.15.7l.75.31c-3.12-6.06-3.22-15.56-4.59-21.06-1.69-6.74 4.09-10.6 8.43-11.8 3.2-.89 7.58.84 13.33.46.3-1.76.57-3.55.82-5.39l-.47.36c-3.13 2.3-6.87 2.17-10.55 1.63-2.06-.31-4.06-.72-6.09-1.14a14.101 14.101 0 0 0-3.29-.44 8.28 8.28 0 0 0-3.35 1 69.032 69.032 0 0 0-6.73 4.1c-.77.55-1.54 1.02-2.31 1.48Z" fill="#D17F59"/><path fill-rule="evenodd" clip-rule="evenodd" d="M211.778 60.2c-15.39-39.64-16.05-48.84 12.64-45.92 0 0 6.11 20.33 7.83 27.41-3.12 1.15-10.33 7.51-16.89 9.44-1.69 8.22-3.58 9.07-3.58 9.07Z" fill="#CD591C"/><path fill-rule="evenodd" clip-rule="evenodd" d="M60.879 76.04c4-1.24 9-1.06 13.17-.64a99.97 99.97 0 0 1 11.52 1.91c1.75.39 3.53.81 5.26 1.3a2 2 0 0 1 1.05 3.24 272.05 272.05 0 0 1-13.05 15.3 100.513 100.513 0 0 1-9.68 9.46c-2.07 1.69-3.55 6.69-6.39 5.28-6.64-3.32-6.07-17.66-5.11-23.85.54-3.49 1.2-6.95 1.83-10.41a1.999 1.999 0 0 1 1.4-1.59Z" fill="#0F0E0E"/><path fill-rule="evenodd" clip-rule="evenodd" d="M61.492 77.99c-1.94 10.68-3.89 27.85 1.29 30.44s27.49-27.85 27.49-27.85-19.4-5.5-28.78-2.59Z" fill="#D17F59"/><path fill-rule="evenodd" clip-rule="evenodd" d="M61.61 78.1c-1.12 6.2-2.24 14.57-2 21 .19 4.58 1.09 8.17 3.2 9.22 4.86 2.43 25.49-25.33 27.21-27.65-2-.55-19.6-5.24-28.44-2.56l.03-.01Zm-2.25 21c-.27-6.48.87-14.91 2-21.13v-.08h.08c9.42-2.92 28.8 2.57 28.86 2.59l.19.05-.12.16c-.06.09-22.39 30.53-27.67 27.89-2.2-1.13-3.14-4.82-3.34-9.48Z" fill="#0F0E0E"/><path fill-rule="evenodd" clip-rule="evenodd" d="m122.802 19.22-14.11 62.71-1.82-.2c-3.4-.36-7-.47-10.41-.55a260.396 260.396 0 0 0-28.07 1 21.09 21.09 0 0 0-7.08 2c-.76.35-2 2.49-2.8 2.84a3.551 3.551 0 0 1-3.53-.64c-1.16-.92-.11-3.46.29-4.68 5.87-17.81 14.69-36.25 30.28-47.53a67.776 67.776 0 0 1 17.2-8.82c5.49-2 11.11-3.41 16.68-5.1l3.37-1.03Z" fill="#0F0E0E"/><path fill-rule="evenodd" clip-rule="evenodd" d="M120.026 22.21c-21.59 6.56-46.22 9.71-62.81 60.13-1.25 3.79 2.77-1.46 11-2.19 23.75-2.08 38.88-.45 38.88-.45l12.93-57.49Z" fill="#CD591C"/><path fill-rule="evenodd" clip-rule="evenodd" d="M66.838 191.41h184.089a3.332 3.332 0 0 1 2.2.8c1.05.89 2.11 1.76 3.13 2.68 3.14 2.79 6.86 6.57 6.81 11.08 0 4-2.95 6.79-6.21 8.64a17.5 17.5 0 0 1-7.949 2.56 17.798 17.798 0 0 1-5.231-.78 6.142 6.142 0 0 0-5.32.82 18.832 18.832 0 0 0-4.22 3.19 34.322 34.322 0 0 1-3.64 3.41c-3.45 2.54-7.509 2.48-11.559 1.88-2.07-.31-4.121-.73-6.171-1.16a13.432 13.432 0 0 0-3-.41 7.112 7.112 0 0 0-2.78.9 63.735 63.735 0 0 0-6.6 4c-5.88 3.85-12 6.38-19.14 4.88a51.034 51.034 0 0 1-9.839-3.64 28.62 28.62 0 0 0-8.801-2.35 14.356 14.356 0 0 0-3.21 0c-.367.06-.742.06-1.11 0a14.356 14.356 0 0 0-3.21 0 28.705 28.705 0 0 0-8.8 2.35 51.019 51.019 0 0 1-9.84 3.64c-7.12 1.5-13.26-1-19.13-4.88a65.68 65.68 0 0 0-6.6-4 7.148 7.148 0 0 0-2.79-.9 13.624 13.624 0 0 0-3 .41c-2 .43-4.1.85-6.17 1.16-4.05.6-8.11.66-11.56-1.88a33.479 33.479 0 0 1-3.63-3.41 19.308 19.308 0 0 0-4.22-3.19 6.158 6.158 0 0 0-5.33-.82 17.792 17.792 0 0 1-5.23.78 17.423 17.423 0 0 1-7.94-2.56c-3.27-1.85-6.18-4.63-6.22-8.64-.05-5.7 6-10.41 9.94-13.76a3.33 3.33 0 0 1 2.28-.8Z" fill="#0F0E0E"/><path fill-rule="evenodd" clip-rule="evenodd" d="M66.84 192.76h184.091c.486-.009.957.166 1.32.49 1 .87 2.09 1.74 3.1 2.65 2.79 2.48 6.4 6 6.35 10 0 3.49-2.7 5.87-5.52 7.47a16.234 16.234 0 0 1-7.31 2.39 16.578 16.578 0 0 1-4.86-.75 7.415 7.415 0 0 0-6.32 1 20.223 20.223 0 0 0-4.51 3.4 33.09 33.09 0 0 1-3.49 3.29c-3.13 2.3-6.87 2.17-10.55 1.63-2.06-.31-4.06-.72-6.09-1.14a14.108 14.108 0 0 0-3.29-.44 8.28 8.28 0 0 0-3.35 1 68.794 68.794 0 0 0-6.73 4.1c-5.57 3.66-11.37 6.11-18.11 4.69a50.592 50.592 0 0 1-9.57-3.55 30.188 30.188 0 0 0-9.23-2.46 16.115 16.115 0 0 0-3.54 0 2.28 2.28 0 0 1-.68 0 15.61 15.61 0 0 0-3.55 0 30.02 30.02 0 0 0-9.22 2.46 50.874 50.874 0 0 1-9.58 3.55c-6.73 1.42-12.54-1-18.1-4.69a70.346 70.346 0 0 0-6.74-4.1 8.28 8.28 0 0 0-3.35-1 13.965 13.965 0 0 0-3.28.44c-2 .42-4 .83-6.1 1.14-3.68.54-7.42.67-10.55-1.63a33.982 33.982 0 0 1-3.49-3.29 20.225 20.225 0 0 0-4.51-3.4 7.416 7.416 0 0 0-6.32-1c-1.57.489-3.205.742-4.85.75a16.234 16.234 0 0 1-7.32-2.39c-2.81-1.6-5.49-4-5.52-7.47-.05-5.08 5.85-9.66 9.45-12.69.371-.304.84-.464 1.32-.45Z" fill="#0F0E0E"/><path fill-rule="evenodd" clip-rule="evenodd" d="M66.842 194.819c-5.75 4.85-13.93 11.32-4.24 16.82s10.3-1.94 18.47 2.58c8.17 4.52 6.36 9.71 17.26 8.09 10.9-1.62 9.08-3.88 20.89 3.88s17.56 4.53 25.74 1c8.18-3.53 13.93-2.59 13.93-2.59s5.75-1 13.92 2.59 13.93 6.79 25.74-1c11.81-7.79 10-5.5 20.89-3.88s9.09-3.56 17.26-8.09c8.17-4.53 8.78 2.92 18.47-2.58s1.52-12-4.24-16.82H66.842Z" fill="#E6AD3F"/><path fill-rule="evenodd" clip-rule="evenodd" d="M249.273 162.58a243.837 243.837 0 0 1 4.55 32.75c.47 7.52-6.36 9.72-12.38 12.21-8.72 3.59-37.73 7.56-76.74 7.84-43.49.32-97.54-5.51-100.49-15.71a9.999 9.999 0 0 1-.36-3.31 238.758 238.758 0 0 1 4.62-33.78 481.286 481.286 0 0 1 17.51-65.1 263.8 263.8 0 0 1 16.37-37.65c1.67-3.08 1.25 8 3.09 5 11-17.71 29-42 51.75-42s37.08 15.43 48.08 33.14c.87 1.41 6.61 5.86 7.16 3.64.55-2.22 1.06-1.56 1.45-.88a240.244 240.244 0 0 1 17.89 38.71 483.64 483.64 0 0 1 17.5 65.14Z" fill="#0F0E0E"/><path fill-rule="evenodd" clip-rule="evenodd" d="M247.273 162.99a242.167 242.167 0 0 1 4.52 32.46c1.55 24.75-187 21.59-185.89 1a239.375 239.375 0 0 1 4.58-33.49c10.65-52.57 25.31-91.17 41.86-115.77.56-.83-10.45-14.88-9.89-15.68 11-15.62 32.63 4.54 45.62 2.29 40.64-7.04 77.2 20.57 99.2 129.19Z" fill="#CD591C"/><path fill-rule="evenodd" clip-rule="evenodd" d="M137.592 212.429c-38.68-1.67-72.17-7.25-71.68-15.95a239.366 239.366 0 0 1 4.58-33.49 511.477 511.477 0 0 1 14-54.63c5.38-.91 9.5-1.33 9.5-1.33-17.83 44.8-19.27 92 24.08 101.16 7.5 1.57 13.96 2.99 19.52 4.24Zm109.675-49.44a242.19 242.19 0 0 1 4.52 32.46c.68 10.88-35.34 16.36-75.849 17.35a1459.62 1459.62 0 0 1 21.129-4.61c43.36-9.15 41.911-56.36 24.091-101.16 0 0 5.339.55 11.799 1.74a427.947 427.947 0 0 1 14.31 54.22ZM103.007 35.06c2-2.78 16.5 2.47 18.57.11l70 4.11 13 37.33s-27.71 4.58-27.22 2.89c.3-1.07.61-10.54.79-17.34.37-13.8-11.54-3.79-35.48-7.23-18.05-2.59-43.55-14.54-39.66-19.87Z" fill="#A74618"/><path fill-rule="evenodd" clip-rule="evenodd" d="M129.718 287.23v-145.7c0-1-.07-2.08-.13-3.11-.62-10.62-.74-21.32 1.75-31.73a47.622 47.622 0 0 1 4.85-12.69 32.609 32.609 0 0 1 4.15-5.69 29.898 29.898 0 0 1 16-9.38 28.91 28.91 0 0 1 20.55 3.59 41.013 41.013 0 0 1 7.08 5.21 30.428 30.428 0 0 1 7.9 11.56 44.007 44.007 0 0 1 2.86 14.75 1.996 1.996 0 0 1-.56 1.47 1.944 1.944 0 0 1-1.43.64l-9.81.31a1.993 1.993 0 0 1-1.486-.546 1.987 1.987 0 0 1-.624-1.454 30.343 30.343 0 0 0-1.87-10.07 16.832 16.832 0 0 0-4.31-6.37 26.908 26.908 0 0 0-4.67-3.42 15.29 15.29 0 0 0-10.79-2.06 16.001 16.001 0 0 0-8.5 5.08 18.248 18.248 0 0 0-2.36 3.29c-5.78 10.08-5.45 25.46-4.8 36.71.07 1.28.18 2.61.18 3.89v145.7a2.05 2.05 0 0 1-2.05 2h-9.88a2.051 2.051 0 0 1-2.05-1.98Z" fill="#0F0E0E"/><path fill-rule="evenodd" clip-rule="evenodd" d="M131.767 287.23v-145.7c0-.83-.06-1.89-.14-3.23-.53-9.09-1.7-29.26 6.33-43.28a30.934 30.934 0 0 1 3.9-5.34 27.997 27.997 0 0 1 14.87-8.75 26.8 26.8 0 0 1 19.11 3.37 38.218 38.218 0 0 1 6.72 5 28.41 28.41 0 0 1 7.38 10.79 42.01 42.01 0 0 1 2.71 14.06l-9.81.31a32.374 32.374 0 0 0-2-10.75 18.823 18.823 0 0 0-4.84-7.14 29.264 29.264 0 0 0-5-3.68 17.191 17.191 0 0 0-12.23-2.28 17.997 17.997 0 0 0-9.6 5.71 20.457 20.457 0 0 0-2.62 3.64c-6.59 11.51-5.54 29.66-5.07 37.85.1 1.71.18 3.06.18 3.77v145.7l-9.89-.05Z" fill="#7C6052"/><path fill-rule="evenodd" clip-rule="evenodd" d="M186.442 115.869a.684.684 0 0 1-.186.484.68.68 0 0 1-.961.021.677.677 0 0 1-.213-.475 24.195 24.195 0 0 0-5.13-14.62 21.204 21.204 0 0 0-12.62-7.61 35.039 35.039 0 0 0-3.6-.51c-4.79-.43-10 .12-14.3 2.48-4.3 2.36-7.7 6.49-9 13.26a30.637 30.637 0 0 0-.45 3.19c-1.68 18.76 0 177 0 177.46a.681.681 0 0 1-.193.481.665.665 0 0 1-.477.199.684.684 0 0 1-.69-.67c0-.46-1.68-158.77 0-177.59.094-1.117.248-2.229.46-3.33 1.42-7.23 5.11-11.67 9.72-14.2 4.61-2.53 10-3.09 15.07-2.64 1.29.12 2.55.3 3.74.53a22.544 22.544 0 0 1 13.42 8.11 25.428 25.428 0 0 1 5.41 15.43Z" fill="#0F0E0E"/><path fill-rule="evenodd" clip-rule="evenodd" d="M154.003 104.76a4.899 4.899 0 0 1-4.21 2.85 6.294 6.294 0 0 1-3.78-1.24l-.06.14a2.701 2.701 0 0 1-2.92 1.58c-.42-.06-.85-.14-1.26-.23-3.76-.81-8.05-3.87-10.74-6.56l-4.67-4.68c-2.47 1.38-5 2.7-7.48 4-6.77 3.51-13.66 6.8-20.72 9.69a133.146 133.146 0 0 1-13.17 4.68c-5.06 1.46-10.78 2.3-16 1.1a15.91 15.91 0 0 1-8.07-4.44 1.535 1.535 0 0 1-.54-1.5c.42-1.26 2.82-.93 3.3-3 .315-1.598.466-3.223.45-4.85 0-1.83-.06-3.66-.12-5.5v-1.86c0-.61.08-1.17.7-1.3a.762.762 0 0 1 .26 0c.57.09.89.66 1.09 1.29l-.12-.85a17.004 17.004 0 0 1-.3-3.75c1.7-16.38 28.7-21.22 41.92-22.72 12-1.36 25.72-1.79 37.24 2.26 8.62 3 15.55 8.46 18.15 17.52.867 3.06.922 6.292.16 9.38-.103.44-.316.846-.62 1.18a3.714 3.714 0 0 1-2.7 1.21 6.11 6.11 0 0 1-3.11 5.05 5.007 5.007 0 0 1-2.69.54l.01.01Zm-87.48-6.67c.08 1.11.12 2.23.16 3.32 0 .66.07 3.19.2 5 .223-2.306.16-4.631-.19-6.92-.05-.52-.11-.97-.17-1.43v.03Z" fill="#0F0E0E"/><path fill-rule="evenodd" clip-rule="evenodd" d="M159.16 98.45a5.65 5.65 0 0 1-2.78 5.129 4.294 4.294 0 0 1-2.79.41 4.287 4.287 0 0 1-3.84 2.9 6.369 6.369 0 0 1-4.14-1.69 3.947 3.947 0 0 1-.28 1 1.997 1.997 0 0 1-2.2 1.19c-.41-.07-.81-.14-1.22-.23-3.62-.78-7.81-3.79-10.4-6.37l-5-5c-2.6 1.46-5.26 2.87-7.9 4.24-6.74 3.49-13.64 6.78-20.66 9.66a129.981 129.981 0 0 1-13.11 4.65c-4.94 1.43-10.56 2.27-15.63 1.1a15.286 15.286 0 0 1-7.74-4.25c-1.64-1.73 2.25-.91 2.93-3.87 1.07-4.65-.09-13.08.51-13 1.68.27.75 15.81 2 14.13 2.36-3.23-.8-15.26-.51-18 1.49-14.43 23.77-20.12 41.32-22.11 11.9-1.35 25.57-1.77 36.94 2.22 8.15 2.86 15.09 8.05 17.72 17.07a18.05 18.05 0 0 1 .15 9c-.078.332-.24.639-.47.89a3.278 3.278 0 0 1-2.9.93Z" fill="#0F0E0E"/><path fill-rule="evenodd" clip-rule="evenodd" d="M151.349 75.92c6.57 5.12 11 12.11 9.12 20.19-.85.95-3.9-.56-3.9-.56 1.71 3.93-.68 8.519-4.61 5.479 0 0 .35 3.65-2.34 3.82-2.69.17-7.65-6.6-7.65-6.6s2.37 5.14 1.49 7.12l-1.12-.21c-4.53-1-9.38-5.82-9.38-5.82l-6.14-6.15s-23.84 13.72-42.55 19.14c-32 9.24-29.17-23.54-3.39-35.15 23.98-10.81 59.99-9.42 70.47-1.26Z" fill="#E9BC9D"/><path fill-rule="evenodd" clip-rule="evenodd" d="M135.506 92.44a1.018 1.018 0 0 1-.274-1.1 1.014 1.014 0 0 1 .91-.674 1.016 1.016 0 0 1 .734.264c8.18 7.44 9.52 13.149 9.52 13.159a1.026 1.026 0 0 1-.76 1.24 1.025 1.025 0 0 1-1.24-.76s-1.13-5.11-8.89-12.13Zm7.405-1.44a1.023 1.023 0 1 1 1.38-1.51c8.18 7.43 9.51 13.14 9.52 13.16a1.036 1.036 0 0 1-.123.777 1.03 1.03 0 0 1-1.877-.298s-1.18-5.12-8.9-12.13Zm4.156-6.32a1.006 1.006 0 0 1-.347-.71 1.002 1.002 0 0 1 .277-.74.994.994 0 0 1 1.1-.281.999.999 0 0 1 .34.21c8.16 7.42 10.4 15 10.41 15a1.047 1.047 0 0 1-.705 1.295 1.043 1.043 0 0 1-1.295-.705s-2.04-6.99-9.78-14.07ZM101.87 18.26a1.64 1.64 0 0 1-.14-.39c-.84-2.19-2.15-4.47-1.33-6.86.82-2.39 3.43-3.34 5.8-3.66a2.73 2.73 0 0 1 1.66.29c13.26 7.08 31.14 9.08 46 8.76 14.86-.32 32.82-3.09 46.27-9.89a2.621 2.621 0 0 1 1.6-.27c2.41.32 4.84 1.24 5.83 3.66 1.08 2.62-.23 5.43-1 8a7.06 7.06 0 0 0-.37 2.84c.2 1.102.311 2.219.33 3.34v.5l.1.06c2.38 1.41 3.51 4.41 3.45 7.07a10.218 10.218 0 0 1-5.11 8.38c-12.35 7.74-36.2 12.39-50.74 12.39s-38.39-4.65-50.74-12.39a10.18 10.18 0 0 1-5.11-8.38c-.07-2.66 1.06-5.66 3.44-7.07l.11-.06v-.5c.023-1.121.137-2.238.34-3.34a2.81 2.81 0 0 0 0-.58 6.01 6.01 0 0 0-.31-1.5l-.08-.4Z" fill="#0F0E0E"/><path fill-rule="evenodd" clip-rule="evenodd" d="m205.846 24.91.46.27c2.16 1.28 3.17 4.05 3.1 6.46a9.502 9.502 0 0 1-4.78 7.82c-12.19 7.64-36.01 12.3-50.36 12.3-14.35 0-38.19-4.65-50.38-12.29a9.531 9.531 0 0 1-4.79-7.82c-.06-2.41.95-5.18 3.11-6.46l.45-.27v-.87c.017-1.088.124-2.171.32-3.24.025-.24.025-.481 0-.72a6.983 6.983 0 0 0-.34-1.68c-.71-2.21-2.41-4.79-1.59-7.16.76-2.22 3.15-2.93 5.25-3.22a2 2 0 0 1 1.23.23c13.37 7.12 31.4 9.15 46.34 8.83 14.94-.32 33.07-3.13 46.57-10a2.07 2.07 0 0 1 1.2-.2c2.15.29 4.4 1.08 5.29 3.25 1 2.38-.31 5.19-1 7.5a7.493 7.493 0 0 0-.39 3.14c.192 1.07.299 2.153.32 3.24.02.29 0 .6-.01.89Z" fill="#0F0E0E"/><path fill-rule="evenodd" clip-rule="evenodd" d="M106.573 10.05c-7.76 1.06-.75 6.1-1.61 11.1-.86 5 .71 4.34-1.73 5.79-2.44 1.45-3.73 7.37 1.73 10.79 11.64 7.29 35.09 12 49.29 12 14.2 0 37.65-4.68 49.29-12 5.46-3.42 4.17-9.34 1.72-10.79-2.45-1.45-.86-.79-1.72-5.79s5.59-11.16-2.17-12.21c-24.28 12.28-69.69 14.5-94.8 1.11Z" fill="#E6AD3F"/><path fill-rule="evenodd" clip-rule="evenodd" d="M108 39.44c1.17.6 2.41 1.17 3.72 1.73.352-.805.75-1.59 1.19-2.35 1.89-3.41 3.89-7 2.31-16.32-.6-3.51-1-5.66-.64-7.33.096-.495.254-.975.47-1.43-1.31-.46-2.58-.95-3.82-1.48a9.786 9.786 0 0 0-.67 2.16c-.45 2.37 0 4.8.63 8.75 1.34 7.92-.3 10.87-1.85 13.66-.47.85-.94 1.69-1.34 2.61Zm11.83 4.65c1.3.4 2.62.79 4 1.15a21.99 21.99 0 0 1 1.28-2.57c1.9-3.41 3.89-7 2.31-16.32-.6-3.51-1-5.66-.64-7.32a5.993 5.993 0 0 1 .76-2c-1.4-.26-2.78-.56-4.13-.88a9.774 9.774 0 0 0-.65 2.1c-.45 2.38 0 4.8.63 8.76 1.34 7.91-.29 10.86-1.85 13.66a26.215 26.215 0 0 0-1.67 3.4l-.04.02Zm14 3.45c1.37.25 2.73.49 4.08.71a17.824 17.824 0 0 1 1.57-3.41c1.9-3.41 3.89-7 2.31-16.32-.59-3.51-1-5.66-.64-7.32a6.637 6.637 0 0 1 1-2.32c-1.48-.09-3-.21-4.41-.35a9.719 9.719 0 0 0-.57 1.91c-.44 2.38 0 4.8.63 8.75 1.34 7.92-.29 10.87-1.84 13.66a20.347 20.347 0 0 0-2.09 4.69h-.04Zm19.15 2.15h1.29c.93 0 1.91 0 2.92-.06a85.5 85.5 0 0 0-.55-2.52 41.523 41.523 0 0 1-.78-16.57c.48-3.89.77-6.27.45-8.56a11.838 11.838 0 0 0-.77-2.9c-1.5 0-3 .07-4.49.07a9.794 9.794 0 0 1 1.22 3.38c.24 1.74 0 3.94-.48 7.52a44.996 44.996 0 0 0 .87 17.95c.13.56.25 1.11.37 1.68l-.05.01Zm17.54-1.44c1.35-.22 2.71-.46 4.08-.71a20.288 20.288 0 0 0-2.08-4.69c-1.55-2.79-3.19-5.74-1.84-13.66.67-4 1.07-6.37.62-8.75a10.105 10.105 0 0 0-.88-2.62 121.92 121.92 0 0 1-4.44.54 7.126 7.126 0 0 1 1.3 2.84c.32 1.66 0 3.81-.64 7.32-1.58 9.32.42 12.91 2.31 16.32a16.657 16.657 0 0 1 1.57 3.41Zm14.15-3c1.34-.36 2.66-.75 4-1.15a25 25 0 0 0-1.67-3.4c-1.55-2.8-3.18-5.75-1.84-13.66.67-4 1.07-6.38.62-8.76a10.146 10.146 0 0 0-1.2-3.21c-1.38.36-2.78.69-4.21 1a7.436 7.436 0 0 1 1.4 3c.31 1.66-.05 3.81-.64 7.32-1.59 9.32.41 12.91 2.3 16.32a20.52 20.52 0 0 1 1.28 2.57l-.04-.03Zm12.07-4.07c1.31-.56 2.56-1.13 3.73-1.73-.41-.92-.87-1.76-1.35-2.61-1.55-2.79-3.18-5.74-1.84-13.66.67-3.95 1.07-6.38.63-8.75a10.38 10.38 0 0 0-1.27-3.33c-1.26.52-2.56 1-3.9 1.49.56.773.951 1.656 1.15 2.59.31 1.67 0 3.82-.64 7.33-1.58 9.31.41 12.91 2.31 16.32.451.754.855 1.536 1.21 2.34l-.03.01Z" fill="#fff"/><path fill-rule="evenodd" clip-rule="evenodd" d="M177.347 46.99c2.53-.53 5-1.12 7.5-1.79-1.34-9.74-5.54-25.69-18.66-26.86-1.54.17-3.09.31-4.64.42a39.45 39.45 0 0 1 15.62 26.78l.18 1.45Z" fill="#D08B3B"/><path fill-rule="evenodd" clip-rule="evenodd" d="M100.607 28.05a.686.686 0 0 1 .59-.77.679.679 0 0 1 .76.58c.46 3.31 4.15 6.67 10.51 9.69 6.36 3.02 15.26 5.61 26.26 7.44 17.13 2.84 26.52.54 35.46-1.66 1.39-.34 2.76-.68 4.2-1 .85-.2 11.47-3.81 19.76-7.47 4.41-2 8.11-3.9 9.19-5.28a.693.693 0 0 1 .755-.245.7.7 0 0 1 .245.135.68.68 0 0 1 .11.95c-1.24 1.58-5.13 3.65-9.72 5.68-8.34 3.7-19.13 7.36-20 7.56-1.37.31-2.76.65-4.17 1-9.08 2.23-18.6 4.57-36 1.68-11.14-1.85-20.19-4.5-26.64-7.55-6.83-3.23-10.78-6.96-11.31-10.74Zm1.974-9.94a1.032 1.032 0 0 1-.206-.752 1.03 1.03 0 0 1 .386-.678 1.022 1.022 0 0 1 1.43.18c4 5.14 4.48 6.4 4.48 6.4a1.022 1.022 0 0 1-1.353 1.32 1.025 1.025 0 0 1-.547-.56s-.38-1-4.19-5.91Zm102.559-5.98a1.025 1.025 0 0 1 1.91.74c-2.32 6-4.38 8.5-4.39 8.51a1.007 1.007 0 0 1-.688.383 1 1 0 0 1-.752-.233.997.997 0 0 1-.15-1.43s1.88-2.29 4.07-7.97Z" fill="#0F0E0E"/><path fill-rule="evenodd" clip-rule="evenodd" d="M210.659 80.92c-8.62.09-17.27.22-25.89.22a3.508 3.508 0 0 1-1.89-.53c-1.54-1-1.89-2.85-2-4.53a41.225 41.225 0 0 1 .36-6 148.52 148.52 0 0 0 1.27-16.59c0-16.58-6.12-28.73-22.29-34.88-.57-.22-2.15-.27-2.36-.84-.38-1 4.1-6 7.54-5.71 1.195.08 2.394.08 3.59 0 1.57-.08 3.14-.22 4.7-.41a40.345 40.345 0 0 0 7.65-1.51 12.47 12.47 0 0 1 9 0c3.87 1.57 6.55 5.15 8.55 8.67a111.67 111.67 0 0 1 5.88 13 91.465 91.465 0 0 1 3.72 11.32 137.064 137.064 0 0 1 3.78 21.22c.29 2.85.5 5.73.57 8.61a46.627 46.627 0 0 1-.14 6.13 2.005 2.005 0 0 1-2.04 1.83Z" fill="#0F0E0E"/><path fill-rule="evenodd" clip-rule="evenodd" d="M160.977 16.7c39.27 14.93 15.77 62.39 23.79 62.39 4.53 0 25.87-.22 25.87-.22.75-7.16-.95-29.48-7.78-46.26-5-12.37-9.61-24.37-20.83-20.52a57.109 57.109 0 0 1-16.77 2c-2.74-.2-4.28 2.61-4.28 2.61Z" fill="#E6AD3F"/><path fill-rule="evenodd" clip-rule="evenodd" d="M160.977 16.7c39.27 14.93 15.77 62.39 23.79 62.39 4.53 0 25.87-.22 25.87-.22.37-3.56.14-10.89-1-19.43-3.79.22-8.6 1.86-14.5 2.6-9.63 1.2-7.22-9.39-10.6-24.57-3-13.66-13.49-20.29-21.7-22.71a6.053 6.053 0 0 0-1.86 1.94Z" fill="#D08B3B"/><path fill-rule="evenodd" clip-rule="evenodd" d="M168.203 20.22a34.262 34.262 0 0 1 3.69 2.57c.45-.29.82-.57 1.17-.81 1.3-.93 1.88-1.35 5.58-.25 5.85 1.73 9-.16 11.64-1.76a14.722 14.722 0 0 1 1.76-1c1.63-.68 4.57.93 5.39 1.41a26.316 26.316 0 0 0-3.9-5.58 6.47 6.47 0 0 0-3.06.4c-.797.35-1.566.76-2.3 1.23-1.95 1.18-4.26 2.57-8.38 1.35-5.61-1.67-6.69-.89-9.12.84a19.658 19.658 0 0 1-2.47 1.6Zm8.649 7.54a32.495 32.495 0 0 1 2.35 3.36l.12-.09c1.3-.93 1.88-1.35 5.58-.25 5.85 1.73 9-.16 11.64-1.76a14.42 14.42 0 0 1 1.76-1 4.21 4.21 0 0 1 2.77.18c-.63-1.51-1.27-3-1.92-4.39a6.065 6.065 0 0 0-2.42.43 16.92 16.92 0 0 0-2.3 1.24c-2 1.17-4.25 2.56-8.38 1.34-5.61-1.66-6.69-.89-9.11.84l-.09.1Zm5.5 10.25c.453 1.378.83 2.78 1.13 4.2l.18-.12c1.3-.93 1.88-1.35 5.57-.25 5.86 1.73 9-.16 11.65-1.76.565-.37 1.152-.704 1.76-1a4 4 0 0 1 2.59.12c-.46-1.46-.95-2.91-1.47-4.32a6.288 6.288 0 0 0-2.69.42 16.92 16.92 0 0 0-2.3 1.24c-1.95 1.17-4.26 2.56-8.38 1.34-4.72-1.36-6.24-1.03-8.04.13Zm2.156 12.38c.08 1.66.1 3.3.06 4.91a23.5 23.5 0 0 0 1.74-1.17c1.3-.93 1.88-1.34 5.57-.25 5.86 1.74 9-.16 11.65-1.76a15.224 15.224 0 0 1 1.76-1 4.45 4.45 0 0 1 3 .26c-.28-1.45-.6-2.91-.94-4.37a6.809 6.809 0 0 0-3.61.33c-.796.357-1.564.771-2.3 1.24-1.95 1.17-4.26 2.56-8.38 1.34-5.16-1.48-6.5-.96-8.55.47Zm-.312 11.54c-.16 1.83-.35 3.58-.54 5.21a23.942 23.942 0 0 0 2.61-1.68c1.3-.94 1.88-1.35 5.57-.26 5.86 1.74 9-.15 11.65-1.76a15.254 15.254 0 0 1 1.76-1c1.36-.57 3.63.45 4.82 1.09-.16-1.5-.35-3.06-.58-4.66a8.54 8.54 0 0 0-5.81-.21 18.23 18.23 0 0 0-2.3 1.24c-1.95 1.18-4.26 2.56-8.38 1.34-5.36-1.56-6.57-.9-8.8.69Z" fill="#fff"/><path fill-rule="evenodd" clip-rule="evenodd" d="M168.822 13.83a.69.69 0 0 1-.49-.83.702.702 0 0 1 .84-.49 47.251 47.251 0 0 0 6.71 1.3 43.85 43.85 0 0 0 6.65.28.674.674 0 0 1 .488.18.67.67 0 0 1 .217.474.67.67 0 0 1-.181.489.685.685 0 0 1-.474.216 45.057 45.057 0 0 1-6.86-.29 47.36 47.36 0 0 1-6.9-1.33ZM97.273 42.09a1 1 0 0 1 2 0c.13 6.53 4.3 19.18 4.31 19.22a1.007 1.007 0 0 1-.307 1.09 1.019 1.019 0 0 1-1.438-.113 1.032 1.032 0 0 1-.195-.347s-4.19-13-4.37-19.85Zm115.639 6.25c-.09-.31.3-.61.86-.66.56-.05 1.08.17 1.16.49 1 3.84-.14 10.64-.15 10.66-.05.32-.55.55-1.11.52-.56-.03-1-.31-.92-.63 0-.02 1.17-6.66.16-10.38Z" fill="#0F0E0E"/><path fill-rule="evenodd" clip-rule="evenodd" d="M123.421 89.76c-9.85 5.66-41 21.26-55.16 21-.77 0-1.5-.05-2.21-.09-.71-.04-1.42-.11-2.09-.18.389.367.807.701 1.25 1 3.26 2.32 8.4 3.18 15.61 1.66.75-.16 1.53-.34 2.32-.55l1.09-.31c16.76-4.84 37.57-16.31 41.81-18.7a31.206 31.206 0 0 1-2.62-3.83Z" fill="#D17F59"/><path fill-rule="evenodd" clip-rule="evenodd" d="M122.631 90.51a1.037 1.037 0 0 1 2-.55c.53 1.89 8 8.93 8.06 8.95a.996.996 0 0 1 .23 1.119.987.987 0 0 1-.23.33 1 1 0 0 1-1.44 0s-7.98-7.41-8.62-9.85ZM58.273 77.44a.68.68 0 0 1-.93-.25.69.69 0 0 1 .26-.93c3.18-1.8 7.37-2.5 11.38-2.57 5.88-.1 11.44 1.18 12.74 2.22a.68.68 0 1 1-.85 1.06c-1.13-.91-6.28-2-11.87-1.92-3.81.07-7.73.71-10.73 2.39Zm37.996 184.83a4.002 4.002 0 0 0 1.6 2.24c2 1 6.999-1.17 8.799-1.93 1.28-.53 2.56-1.09 3.84-1.64l1.67-.71c.38-.16.77-.3 1.16-.42 1.31-.42 4.07-2 5.32-1.06 1 .77 1.47.43 1.81 1.95.24 1.06.77 3.93 0 4.93-1.78 2.28-6.61 4.34-9.18 5.59a125.938 125.938 0 0 1-11.57 5.16 88.905 88.905 0 0 1-12.62 3.54c-6.55 1.34-20.66 3.5-25.16-3.07-1.61-2.35-1.56-5.16-.81-7.81 2.62-9.19 14.11-15 22.57-17.54.345-.09.706-.09 1.05 0 5.93 1.37 9.43 5.17 11.52 10.77Z" fill="#0F0E0E"/><path fill-rule="evenodd" clip-rule="evenodd" d="M94.318 262.98c-1.72-4.67-4.56-8.22-10.08-9.51-10.17 3-19.13 9-21.18 16.14-4 14.23 21.73 10 35.92 4.85 2.37-.87 19.6-8.66 19.74-10.32.07-.8 0-3.31-.92-3.37-1.19-.09-3.45.77-4.87 1.35-.5.21-1 .44-1.63.7-1.39.6-2.68 1.15-3.88 1.65-7.15 2.98-11.15 3.77-13.1-1.49Z" fill="#7C6052"/><path fill-rule="evenodd" clip-rule="evenodd" d="M61.137 273.59a.683.683 0 0 1 .086-.979.675.675 0 0 1 .515-.144.685.685 0 0 1 .46.273c1.63 2 11.38 3.34 25.06.6a102.867 102.867 0 0 0 31.639-12.32.682.682 0 0 1 .798 0 .7.7 0 0 1 .189.209.7.7 0 0 1 .088.268.68.68 0 0 1-.395.693 104.213 104.213 0 0 1-32.05 12.48c-14.21 2.85-24.55 1.22-26.39-1.08Zm167.285-11.321a3.994 3.994 0 0 1-1.6 2.24c-2 1-7-1.17-8.79-1.93-1.29-.53-2.57-1.09-3.85-1.64l-1.67-.71c-.38-.16-.77-.3-1.16-.42-1.3-.42-4.06-2-5.32-1.06-1 .77-1.47.43-1.81 1.95-.24 1.06-.77 3.93 0 4.93 1.79 2.28 6.61 4.34 9.19 5.59 3.8 1.83 7.6 3.72 11.56 5.16a89.256 89.256 0 0 0 12.62 3.54c6.55 1.34 20.66 3.5 25.16-3.07 1.61-2.35 1.57-5.16.81-7.81-2.62-9.19-14.11-15-22.57-17.54a2.075 2.075 0 0 0-1.05 0c-5.96 1.37-9.46 5.17-11.52 10.77Z" fill="#0F0E0E"/><path fill-rule="evenodd" clip-rule="evenodd" d="M230.348 262.98c1.71-4.67 4.55-8.22 10.07-9.51 10.17 3 19.14 9 21.18 16.14 4.06 14.23-21.72 10-35.92 4.85-2.37-.87-19.59-8.66-19.74-10.32-.06-.8 0-3.31.92-3.37 1.2-.09 3.46.77 4.87 1.35l1.64.7c1.38.6 2.67 1.15 3.88 1.65 7.2 2.98 11.16 3.77 13.1-1.49Z" fill="#7C6052"/><path fill-rule="evenodd" clip-rule="evenodd" d="M263.517 273.589a.672.672 0 0 0 .171-.522.697.697 0 0 0-.271-.478.683.683 0 0 0-.524-.161.694.694 0 0 0-.476.271c-1.62 2-11.37 3.34-25.05.6a102.822 102.822 0 0 1-31.64-12.32.683.683 0 0 0-.516-.076.672.672 0 0 0-.414.316.683.683 0 0 0 .24.93 104.134 104.134 0 0 0 32.06 12.48c14.24 2.89 24.58 1.26 26.42-1.04ZM230.808 41.54a1.03 1.03 0 0 1 1.133-.106 1.016 1.016 0 0 1 .494.609 1.028 1.028 0 0 1-.337 1.086c-5.33 4.35-16.29 9.44-16.32 9.45a1.018 1.018 0 0 1-1.449-.881 1.013 1.013 0 0 1 .268-.734c.091-.098.2-.178.321-.235 0 0 10.74-4.97 15.89-9.19Z" fill="#0F0E0E"/><path fill-rule="evenodd" clip-rule="evenodd" d="M140.927 4.95a10.585 10.585 0 0 1-3-4.95 10.526 10.526 0 0 1-3 4.95 4.694 4.694 0 0 0-1.422 5.213 4.702 4.702 0 0 0 8.843 0 4.703 4.703 0 0 0-1.421-5.213Z" fill="#3BB9FF"/><path d="M141.41 8.604c.286-.132.157-1.02-.288-1.982-.445-.963-1.038-1.636-1.323-1.504-.286.132-.157 1.02.288 1.982.445.963 1.037 1.636 1.323 1.504Z" fill="#fff"/><path fill-rule="evenodd" clip-rule="evenodd" d="M184.69 55.33a10.534 10.534 0 0 1-3-4.94 10.46 10.46 0 0 1-3 4.94 4.687 4.687 0 0 0-1.41 5.2 4.685 4.685 0 0 0 4.41 3.095 4.69 4.69 0 0 0 3-8.295Z" fill="#3BB9FF"/><path d="M185.168 58.992c.286-.133.156-1.02-.288-1.982-.445-.963-1.038-1.636-1.324-1.504-.285.132-.156 1.02.289 1.982.445.962 1.037 1.636 1.323 1.504Z" fill="#fff"/><path fill-rule="evenodd" clip-rule="evenodd" d="M173.331 23.07a10.46 10.46 0 0 1-3-4.94 10.467 10.467 0 0 1-3 4.94 4.695 4.695 0 0 0-1.411 5.2 4.687 4.687 0 0 0 4.411 3.095 4.692 4.692 0 0 0 4.41-3.095 4.692 4.692 0 0 0-1.41-5.2Z" fill="#3BB9FF"/><path d="M173.808 26.736c.286-.132.157-1.02-.288-1.982-.445-.963-1.037-1.636-1.323-1.504-.286.132-.157 1.02.288 1.982.445.963 1.038 1.636 1.323 1.504Z" fill="#fff"/><path fill-rule="evenodd" clip-rule="evenodd" d="M172.401 110.419a10.457 10.457 0 0 1-3-4.94 10.457 10.457 0 0 1-3 4.94 4.693 4.693 0 0 0 3 8.296 4.696 4.696 0 0 0 4.41-3.095 4.688 4.688 0 0 0-1.41-5.201Z" fill="#3BB9FF"/><path d="M172.871 114.083c.286-.132.157-1.019-.288-1.982-.445-.962-1.038-1.635-1.323-1.503-.286.132-.157 1.019.288 1.982.445.962 1.037 1.635 1.323 1.503Z" fill="#fff"/><path fill-rule="evenodd" clip-rule="evenodd" d="M161.488 151.359a10.519 10.519 0 0 1-3-5 10.585 10.585 0 0 1-3 5 4.638 4.638 0 0 0-1.69 3.68 4.708 4.708 0 0 0 2.222 3.924 4.697 4.697 0 0 0 6.288-1.244 4.699 4.699 0 0 0-.8-6.36h-.02Z" fill="#3BB9FF"/><path d="M161.965 155.004c.285-.132.156-1.019-.289-1.982-.445-.962-1.037-1.635-1.323-1.503-.285.132-.156 1.019.289 1.982.445.962 1.037 1.635 1.323 1.503Z" fill="#fff"/><path fill-rule="evenodd" clip-rule="evenodd" d="M161.903 235.91a10.589 10.589 0 0 1-3-4.95 10.518 10.518 0 0 1-3 4.95 4.698 4.698 0 0 0 .299 7.464 4.696 4.696 0 0 0 5.403 0 4.702 4.702 0 0 0 .298-7.464Z" fill="#3BB9FF"/><path d="M162.379 239.558c.285-.132.156-1.02-.289-1.982-.445-.963-1.037-1.636-1.323-1.504-.285.132-.156 1.02.289 1.982.445.963 1.037 1.636 1.323 1.504Z" fill="#fff"/><path fill-rule="evenodd" clip-rule="evenodd" d="M193.581 141.34a10.51 10.51 0 0 1-3-4.95 10.598 10.598 0 0 1-3 4.95 4.69 4.69 0 1 0 6 0Z" fill="#3BB9FF"/><path d="M194.058 144.984c.286-.132.157-1.02-.288-1.982-.445-.963-1.037-1.636-1.323-1.504-.286.132-.157 1.02.288 1.982.445.963 1.038 1.636 1.323 1.504Z" fill="#fff"/><path fill-rule="evenodd" clip-rule="evenodd" d="M189.181 205.68a10.529 10.529 0 0 1-3-4.951 10.52 10.52 0 0 1-3 4.951 4.65 4.65 0 0 0-1.68 3.679 4.682 4.682 0 0 0 2.224 3.906 4.697 4.697 0 0 0 4.488.242 4.684 4.684 0 0 0 2.343-5.945 4.69 4.69 0 0 0-1.355-1.882h-.02Z" fill="#3BB9FF"/><path d="M189.66 209.34c.286-.132.157-1.019-.288-1.982-.445-.962-1.038-1.636-1.323-1.503-.286.132-.157 1.019.288 1.982.445.962 1.037 1.635 1.323 1.503Z" fill="#fff"/><path fill-rule="evenodd" clip-rule="evenodd" d="M127.534 124.21a10.518 10.518 0 0 1-3-4.95 10.526 10.526 0 0 1-3 4.95 4.694 4.694 0 0 0-1.411 5.2 4.697 4.697 0 0 0 4.411 3.095 4.688 4.688 0 0 0 4.526-5.918 4.686 4.686 0 0 0-1.526-2.377Z" fill="#3BB9FF"/><path d="M128.011 127.86c.286-.132.157-1.02-.288-1.982-.445-.963-1.037-1.636-1.323-1.504-.286.132-.156 1.02.288 1.982.445.963 1.038 1.636 1.323 1.504Z" fill="#fff"/><path fill-rule="evenodd" clip-rule="evenodd" d="M120.067 188.76a10.598 10.598 0 0 1-3-4.95 10.518 10.518 0 0 1-3 4.95 4.696 4.696 0 0 0-1.421 5.212 4.702 4.702 0 0 0 7.123 2.252 4.7 4.7 0 0 0 .298-7.464Z" fill="#3BB9FF"/><path d="M120.551 192.412c.285-.132.156-1.019-.289-1.982-.445-.962-1.037-1.635-1.323-1.503-.285.132-.156 1.019.289 1.982.444.962 1.037 1.636 1.323 1.503Z" fill="#fff"/><path fill-rule="evenodd" clip-rule="evenodd" d="M130.963 35.76a10.593 10.593 0 0 1-3-4.95 10.51 10.51 0 0 1-3 4.95 4.687 4.687 0 0 0-1.41 5.2 4.691 4.691 0 1 0 7.41-5.2Z" fill="#3BB9FF"/><path d="M131.441 39.423c.286-.132.157-1.02-.288-1.982-.445-.962-1.037-1.636-1.323-1.503-.286.132-.157 1.019.288 1.981.445.963 1.037 1.636 1.323 1.504Z" fill="#fff"/><path fill-rule="evenodd" clip-rule="evenodd" d="M149.44 67.94a10.522 10.522 0 0 1-3-5 10.522 10.522 0 0 1-3 5 4.687 4.687 0 0 0-1.41 5.2 4.685 4.685 0 0 0 4.41 3.094 4.69 4.69 0 0 0 3-8.294Z" fill="#3BB9FF"/><path d="M149.918 71.59c.286-.133.156-1.02-.288-1.983-.445-.962-1.038-1.635-1.324-1.503-.285.132-.156 1.02.289 1.982.445.962 1.037 1.635 1.323 1.503Z" fill="#fff"/></svg>