<svg width="167" height="164" fill="none" xmlns="http://www.w3.org/2000/svg"><path fill-rule="evenodd" clip-rule="evenodd" d="M15.242 100.289c-.6-1.88-1.21-3.75-1.81-5.63-1.12-3.54-2.23-7.1-3.09-10.73-.61-2.53-1.39-6.09-.86-8.65 2.36-11.48 12-22.39 20.9-29.56a83.005 83.005 0 0 1 7.86-5.61 30.94 30.94 0 0 1-.15-3.06 30.828 30.828 0 0 1 1.64-9.94c2.77-8.22 8.75-14.89 16-19.47a53.19 53.19 0 0 1 54.93 0c7.27 4.58 13.25 11.25 16 19.47a31.112 31.112 0 0 1 1.64 9.94 30.237 30.237 0 0 1-.19 3.43 80.448 80.448 0 0 1 10.75 9.76c6.47 7 12.86 16.53 14.7 26.05.145 1.027.175 2.067.09 3.1-.06 1.52-.18 3.05-.31 4.57-.36 4.18-.87 8.36-1.52 12.5-.1.64-.24 1.29-.39 1.93-.1.46-.21.93-.33 1.4.925.066 1.841.214 2.74.44 4.87 1.22 9 4 11.12 8.65 3.18 7 .62 15.59-3.57 21.61-4.36 6.27-11.56 11.31-19.51 10.44a20.187 20.187 0 0 1-4.11-.87 42.914 42.914 0 0 1-9.71 13.09 31.546 31.546 0 0 1-5.14 3.75c-5.38 3.14-11.47 4.65-17.6 5.46a182.96 182.96 0 0 1-19.87 1.13c-19.9.46-45.32-1.7-55.14-22.09-.38-.78-.74-1.56-1.09-2.35a18.435 18.435 0 0 1-5.37 1.36 16.253 16.253 0 0 1-4.3-.1c-6.08-1-11.28-5.13-14.72-10.07-7.4-10.63-7.3-25.82 7.38-29.5a15.055 15.055 0 0 1 3.03-.45Z" fill="#0F0E0E"/><path fill-rule="evenodd" clip-rule="evenodd" d="M153.548 101.549c4.47 1.12 8.27 3.6 10.22 7.89 3 6.55.45 14.66-3.45 20.27-4.08 5.85-10.8 10.68-18.24 9.86-4.82-.53-9.12-2.53-10.91-7.31a17.986 17.986 0 0 1-.73-8.11c1.07-10.82 10.43-25.78 23.11-22.6Z" fill="#0F0E0E"/><path fill-rule="evenodd" clip-rule="evenodd" d="M153.057 103.539c20.34 5.1 5.84 35.82-10.76 34-9.69-1.07-10.36-7.75-9.83-13.18.96-9.65 9.34-23.64 20.59-20.82Z" fill="#E9BC9D"/><path fill-rule="evenodd" clip-rule="evenodd" d="M141.438 118.149c-1.65 1.24-3.11 6.41-3.11 6.41s5.42-2.42 7.18-.13c1.76 2.29-1.22 6.43-1.22 6.43s10.76-.61 13.23-9.51c2.47-8.9-3.2-10.1-4.93-10.26-1.73-.16-7.96-.24-11.15 7.06Z" fill="#D17F59"/><path fill-rule="evenodd" clip-rule="evenodd" d="M12.602 102.059c12.34-3.1 21.45 11.44 22.49 22 .13 1.169.17 2.346.12 3.52-.31 7-4.5 10.73-11.46 11.5a15.243 15.243 0 0 1-3.94-.1c-5.7-.89-10.59-4.87-13.81-9.5-6.84-9.83-7.12-23.98 6.6-27.42Z" fill="#0F0E0E"/><path fill-rule="evenodd" clip-rule="evenodd" d="M13.087 104.049c-19.73 5-5.66 34.74 10.43 33 9.4-1 10.06-7.51 9.53-12.78-.92-9.39-9.05-22.96-19.96-20.22Z" fill="#E9BC9D"/><path fill-rule="evenodd" clip-rule="evenodd" d="M24.662 118.149c1.65 1.24 3.11 6.41 3.11 6.41s-5.42-2.42-7.18-.13c-1.76 2.29 1.22 6.43 1.22 6.43s-10.76-.61-13.23-9.51c-2.47-8.9 3.2-10.1 4.93-10.26 1.73-.16 7.96-.24 11.15 7.06Z" fill="#D17F59"/><path fill-rule="evenodd" clip-rule="evenodd" d="M9.238 115.389c1.64-4 4.23-5.29 8.66-2.87 3 1.61 4.73 4.31 6.11 7.28 1.48 3.2.21 1.91 2.87 3.63.53-1.9.61-2-.58-4.66-5.44-12.27-18.78-10-17.06-3.38Zm17.64 8 .52.34c-.18-.09-.36-.16-.54-.24v-.1h.02Zm0 .1c-.15.53-.33 1.2-.53 2.1-2.41-1.31-6.47-2.84-6.09 1.62.19 2.25 1.79 2.74 2.46 3.81-1.49.17-3.36-2.13-3.68-3.62-1.24-5.61 3.91-5.45 7.79-3.87l.05-.04Zm130.178-8.25c-1.7-4.18-4.36-5.46-8.93-3-3 1.67-4.87 4.44-6.3 7.52-1.53 3.29-.22 2-3 3.73-.54-2-.62-2 .6-4.81 5.61-12.65 19.36-10.32 17.59-3.47l.04.03Zm-18.19 8.28-.53.35.56-.24v-.11h-.03Zm0 .11c.15.55.33 1.24.54 2.16 2.48-1.35 6.67-2.92 6.28 1.67-.19 2.33-1.85 2.83-2.54 3.94 1.54.17 3.47-2.2 3.79-3.74 1.3-5.87-4.05-5.66-8.04-4.03h-.03ZM83.239 1.37c24.17 0 43.76 16 43.76 35.68s-19.61 35.68-43.76 35.68-43.77-16-43.77-35.68 19.58-35.68 43.77-35.68Z" fill="#0F0E0E"/><path fill-rule="evenodd" clip-rule="evenodd" d="M83.236 3.419c-23 0-41.72 15-41.72 33.63 0 18.63 18.68 33.63 41.72 33.63s41.7-15.06 41.7-33.63-18.7-33.63-41.7-33.63Z" fill="#C5C5C5"/><path fill-rule="evenodd" clip-rule="evenodd" d="M83.237 3.419c-16.23 0-30.29 7.46-37.19 18.37 6.9 4.53 21 7.64 37.19 7.64 16.19 0 30.28-3.11 37.18-7.64-6.92-10.91-20.98-18.37-37.18-18.37Z" fill="#fff"/><path fill-rule="evenodd" clip-rule="evenodd" d="M81.8 3.44c-.71 0-1.41.05-2.11.1l-1.8 1.58c-5.2 4.59-7.94 11.23-9.25 18-2.19 11.29-.34 23 .49 25.73-.865.086-1.736.086-2.6 0a21.08 21.08 0 0 1-6.29-1.6c-4.34-1.88-8.33-5.68-7.24-12.78a46.81 46.81 0 0 1 10.29-22.19 40.67 40.67 0 0 1 7.95-7.49c-1.19.29-2.37.62-3.51 1a44.363 44.363 0 0 0-5.49 5.54 48.23 48.23 0 0 0-10.6 22.86c-1.21 7.9 3.22 12.13 8.05 14.23a22.588 22.588 0 0 0 6.7 1.7c2.08.19 3.67-.08 4-.52a.78.78 0 0 0 0-1c-.61-.9-2.84-13.2-.5-25.25 1.26-6.48 3.87-12.85 8.81-17.22 1.15-1 2.14-1.9 3-2.69h.1Zm16.53 2.25c-1-.31-2-.59-3-.84a52.264 52.264 0 0 1 11.409 13.32 44.782 44.782 0 0 1 6.33 17.62c1.16 9.8 1 11.93.92 12.38-1.92.64-14.49 4.15-14.49-13.42a53 53 0 0 0-10.2-31c-.61-.07-1.23-.13-1.85-.18a51.41 51.41 0 0 1 10.68 31.22c0 21 16.53 14.63 16.58 14.61a.689.689 0 0 0 .44-.73c.18-1 .32-4.13-.72-13a46.313 46.313 0 0 0-6.52-18.19 54.229 54.229 0 0 0-9.58-11.79Z" fill="#AFB0B0"/><path fill-rule="evenodd" clip-rule="evenodd" d="M31.589 140.789c-13-26.9-10.47-59.37 5-84.69 4.83-7.9 13-13.11 21.6-16.14a70.189 70.189 0 0 1 30.14-3.32c15.83 1.64 32 8.62 40.83 22.43a89.546 89.546 0 0 1 11.08 25.53 92.143 92.143 0 0 1 3 26.24c-.47 14.51-4.87 31.26-16.05 41.3a29.84 29.84 0 0 1-4.92 3.58c-5.21 3-11.15 4.51-17.09 5.29a185.091 185.091 0 0 1-19.72 1.12c-19.32.44-44.34-1.54-53.87-21.34Z" fill="#0F0E0E"/><path fill-rule="evenodd" clip-rule="evenodd" d="M33.427 139.919c8.66 18 31.18 20.64 52 20.16 16.09-.37 30.6-.66 40.41-9.47 18.86-16.92 21.6-59.18 1.62-90.41-18.76-29.33-73.82-28-89.11-3-15.11 24.67-17.6 56.4-4.92 82.72Z" fill="#D17F59"/><path fill-rule="evenodd" clip-rule="evenodd" d="M141.237 105.529a89.541 89.541 0 0 0-13.76-45.33c-18.76-29.33-73.82-28-89.11-3a89.58 89.58 0 0 0-13 44.19 73.44 73.44 0 0 0 8.11 31.62c8.66 16.76 31.18 19.23 52 18.79 16.09-.35 30.6-.62 40.41-8.82 9.43-7.95 14.84-21.87 15.35-37.45Z" fill="#E9BC9D"/><path fill-rule="evenodd" clip-rule="evenodd" d="M25.857 117.259c4.69-10.12 12.28-20.59 26.73-22.22 14.45-1.63 23.31-4.52 27.46-8.49l4.16-4a33.66 33.66 0 0 0 17.16 10.66c11.2 2.89 15.17.91 23.12 4.88 7.95 3.97 16.44 15.36 16.44 15.36s-15.53-37.74-25.69-45.33c-10.16-7.59-34-16.62-47.69-11.2-13.69 5.42-48.02 11.2-41.69 60.34Z" fill="#D17F59"/><path fill-rule="evenodd" clip-rule="evenodd" d="M61.3 87.049c3.66-1.14 5.17 4.92 2.4 6.68-2.77 1.76-12.36 3.15-13.11.38s5.04-7.06 10.71-7.06Zm44.768 0c-3.65-1.14-5.16 4.92-2.39 6.68 2.77 1.76 12.35 3.15 13.11.38.76-2.77-5.04-7.06-10.72-7.06Z" fill="#fff"/><path fill-rule="evenodd" clip-rule="evenodd" d="M84.609 76.789a28.848 28.848 0 0 1-5.16 7.19 29.66 29.66 0 0 1-11 7.21c-1.64.58-3.5.72-4.79-.69-1.51-1.67-.79-3.93.11-5.77-1.11.36-2.23.7-3.35 1a76.465 76.465 0 0 0-9.33 3.29c-8.51 3.83-14.23 11.08-18.93 19-.12.24-.22.5-.33.75-.25.57-.49 1.14-.73 1.72-.69 1.67-1.34 3.35-1.94 5.06-.6 1.71-1.8 5.2-1.68 7v.56l-.55.15c-1.52.39-2.92-2.19-3.5-3.24a61.716 61.716 0 0 1-3.19-7.33c-1.4-3.59-2.68-7.25-3.85-10.92-.79-2.44-1.58-4.87-2.36-7.31-1.12-3.53-2.22-7.08-3.08-10.68-.58-2.42-1.35-5.93-.85-8.36 2.33-11.31 11.88-22.1 20.66-29.17 7.72-6.21 17.8-12 27.65-13.72 6.6-1.15 13.85-1.25 20.16 1.23a21.56 21.56 0 0 1 5.46 3.03 30.15 30.15 0 0 1 7.59-3.69c6.06-1.91 12.56-1.76 18.75-.61 10.27 1.91 21.11 10.62 28 18.17 6.38 7 12.71 16.33 14.53 25.72.132.974.158 1.96.08 2.94-.06 1.52-.18 3-.31 4.54-.36 4.173-.864 8.326-1.51 12.46-.1.62-.24 1.26-.38 1.87-.23 1-.47 2-.73 3-.66 2.6-1.39 5.19-2.19 7.75a67.619 67.619 0 0 1-3.22 8.76c-.56 1.19-2.06 4.41-3.83 3.7l-.34-.14-.07-.37c-.41-2.13-.78-4.25-1.25-6.37a30.053 30.053 0 0 0-1.74-5.82c-2.85-6.07-7.15-11.74-12.95-15.24a49.538 49.538 0 0 0-9.86-4.63c-2.68-.91-5.44-2.51-8.15-3.32l-.82-.25c.75 1.71 1.2 3.69-.15 5.19-1.35 1.5-3.15 1.27-4.79.69a29.557 29.557 0 0 1-10.45-6.75 28.822 28.822 0 0 1-5.63-7.6Z" fill="#0F0E0E"/><path fill-rule="evenodd" clip-rule="evenodd" d="M83.979 37.67a29.636 29.636 0 0 1 7.85-3.88c6-1.88 12.33-1.71 18.41-.58 10.13 1.88 20.87 10.55 27.66 18 6.28 6.84 12.58 16.14 14.37 25.39.115.921.135 1.853.06 2.78 0 1.51-.17 3-.3 4.51-.35 4.15-.86 8.3-1.5 12.41-.52 3.32-6.32 25.769-9.42 24.519-.57-2.95-1.63-9.36-3-12.35-2.91-6.19-7.3-12-13.22-15.54a50.28 50.28 0 0 0-10-4.69c-2.7-.91-5.45-1.55-8.17-2.37-.807-.24-1.597-.5-2.37-.78.05.08.09.16.13.24.86 1.62 2 4.05.56 5.68-1.08 1.19-2.7 1-4.06.5a28.94 28.94 0 0 1-10.25-6.6 28 28 0 0 1-6.09-8.76 27.933 27.933 0 0 1-5.65 8.32 29.102 29.102 0 0 1-10.69 7c-1.36.48-3 .69-4.06-.5-1.51-1.67-.24-4.21.65-5.86l.37-.66c-1.64.58-3.31 1.09-5 1.6a74.435 74.435 0 0 0-9.41 3.31c-8.63 3.88-14.45 10.26-19.25 18.3-.12.21-5 11.3-4.76 14.86-2.9.75-9.7-20.74-9.76-20.95-.79-2.44-1.58-4.87-2.36-7.31-1.11-3.5-2.21-7.06-3.07-10.63-.53-2.26-1.31-5.78-.84-8.07 2.29-11.15 11.79-21.83 20.43-28.77 7.61-6.12 17.61-11.88 27.33-13.58 6.47-1.13 13.61-1.24 19.8 1.2a20.451 20.451 0 0 1 5.61 3.26Z" fill="#0F0E0E"/><path fill-rule="evenodd" clip-rule="evenodd" d="M84.12 70.959c-2 9.62-10.11 16.28-16.54 18.57-4.21 1.5-1.22-3.44 3.22-10-11.09 7.16-26.76 3.3-41 27.06-4.3 7.2-3.37 8.81-4.1 10.63-.56 1.41-3.5-6.28-6.71-16.29-2.91-9.08-7-21.06-6.21-25 3.59-17.47 27.57-37.52 46.1-40.75 17.46-3.05 24.11 4.25 24.82 5.09 3.68-2.55 10.82-7.93 26.129-5.09 15.31 2.84 37 24.25 40.39 41.72.53 2.77-2.67 36.14-8 37.37-1.22.28-.69-3.23-2.36-6.76-2.36-5-6.73-12-14-16.42-12.4-7.49-18.47-5.46-27.17-11.12 4.26 6.32 7 11 2.9 9.52-6.15-2.19-13.79-8.38-16.24-17.32-.28-1-.5-2-.66-2.81h-.32c-.03.49-.13 1.02-.25 1.6Z" fill="#C5C5C5"/><path fill-rule="evenodd" clip-rule="evenodd" d="M71.508 144.139c12.79 6.2 25.38-.35 25.38-.35-6.59 12.39-20.79 12.37-25.38.35Z" fill="#D17F59"/><path fill-rule="evenodd" clip-rule="evenodd" d="M71.237 55.29c6.09-3.12 6.78-2.33 4.7 0-2.38 2.69-8.4 7.4-14.12 10.61-.75.42-1.49.81-2.21 1.17l-.29.14c-7.29 3.52-2.34 3.76 4.25 1.7 1-.3 2-.65 3-1a29.23 29.23 0 0 0 7.34-4.12c4.74-3.79 7-6.6 8-8.29.383-.56.674-1.178.86-1.83.246.682.53 1.35.85 2a26 26 0 0 0 9.63 11c5.7 3.44 1.77-4.59-.73-9.11-.9-1.64-1.62-2.82-1.62-2.82a126.997 126.997 0 0 0 19.12 8.05c.8.273 1.61.533 2.43.78a101.148 101.148 0 0 0 19.27 4.09c.79.09 1.59.16 2.39.21a65.13 65.13 0 0 0 9.35 0c1.24-.09 2.4-.23 3.47-.41-4.45-9-12.32-17.92-20.63-24.18-.6-.45-1.21-.9-1.82-1.32-5-3.51-10.09-6-14.61-6.81-9.54-1.77-15.9-.35-20.23 1.59a26.212 26.212 0 0 0-3.25 1.73c-1.05.65-1.92 1.27-2.65 1.77a11.79 11.79 0 0 0-2.29-2 19.69 19.69 0 0 0-3.76-2c-3.94-1.56-10-2.64-18.77-1.11a52.568 52.568 0 0 0-17 6.66c-.63.36-1.25.74-1.87 1.13-8.68 5.42-16.76 13-21.93 20.87a54.21 54.21 0 0 0 13.82 1c.78 0 1.56-.08 2.34-.14a115.121 115.121 0 0 0 17.51-2.74c.83-.2 1.67-.4 2.48-.61 1.62-.41 3.19-.85 4.7-1.3a85.998 85.998 0 0 0 9.28-3.3c1.07-.49 2.06-.91 2.99-1.41Z" fill="#fff"/><path fill-rule="evenodd" clip-rule="evenodd" d="M57.757 84.839a1.001 1.001 0 0 1 1.3.63c.19.53-1.3 1-1.83 1.18-4.76 1.66-9 3.56-14.41 4.87a55.674 55.674 0 0 1-15.48 1.87 1.002 1.002 0 1 1 .11-2 53.638 53.638 0 0 0 14.9-1.82c5.3-1.32 10.69-3.08 15.41-4.73Zm52.478 1.651a1.001 1.001 0 0 1-.49-1.36c.24-.51 1.09 0 1.6.23 4 1.87 10.61 3.2 17.12 4.09 5 .67 9.67.68 12.63-.61a1.005 1.005 0 0 1 1.118.197.993.993 0 0 1 .222.332.99.99 0 0 1 .021.783 1.003 1.003 0 0 1-.551.557c-3.34 1.45-8.43 1.48-13.71.76a69.64 69.64 0 0 1-17.96-4.98Z" fill="#0F0E0E"/><path fill-rule="evenodd" clip-rule="evenodd" d="M77.432 71.28a1.02 1.02 0 1 1 1.54 1.34 47.22 47.22 0 0 1-12.17 9.91 69 69 0 0 1-15.64 6.46c-3.86 1.1-5.58.75-5.93-.49-.54-1.89 3.95-5.7 7.8-9a35.208 35.208 0 0 0 4.66-4.3 1.03 1.03 0 0 1 1.8 1c-.53 1-2.71 2.81-5.14 4.88-3.39 2.88-7.33 6.23-7.15 6.85 0 0 1-.22 3.4-.92a67.519 67.519 0 0 0 15.18-6.22 45.55 45.55 0 0 0 11.65-9.51Zm14.666 2.9a1.021 1.021 0 0 1 1.55-1.33 42.665 42.665 0 0 0 11.76 9.4 64 64 0 0 0 15.46 5.91c1.127.332 2.272.599 3.43.8.17-.65-3.76-3.86-7.13-6.61-2.44-2-4.62-3.77-5.15-4.73a1.032 1.032 0 0 1 .09-1.136 1.028 1.028 0 0 1 1.7.135 34.127 34.127 0 0 0 4.64 4.13c3.85 3.14 8.32 6.79 7.84 8.7-.32 1.26-2 1.67-5.92.69a66.51 66.51 0 0 1-15.94-6.11 44.748 44.748 0 0 1-12.33-9.85Zm11.983 22.52c3.42 0 6.19 3.799 6.19 8.469s-2.77 8.47-6.19 8.47c-3.42 0-6.19-3.79-6.19-8.47 0-4.68 2.77-8.47 6.19-8.47Z" fill="#0F0E0E"/><path fill-rule="evenodd" clip-rule="evenodd" d="M51.42 119.299c5.27 0 9.55 2.64 9.55 5.91s-4.28 5.9-9.55 5.9c-5.27 0-9.56-2.64-9.56-5.9 0-3.26 4.28-5.91 9.56-5.91Zm63.718 0c5.28 0 9.56 2.64 9.56 5.91s-4.28 5.9-9.56 5.9-9.56-2.64-9.56-5.9c0-3.26 4.28-5.91 9.56-5.91Z" fill="#D17F59"/><path fill-rule="evenodd" clip-rule="evenodd" d="M108.236 98.549a1.903 1.903 0 0 1 1.755 1.173 1.894 1.894 0 0 1-.412 2.07 1.893 1.893 0 0 1-2.07.412 1.901 1.901 0 0 1 .727-3.655Z" fill="#fff"/><path fill-rule="evenodd" clip-rule="evenodd" d="M62.362 96.7c-3.42 0-6.19 3.799-6.19 8.469s2.77 8.47 6.19 8.47c3.42 0 6.18-3.79 6.18-8.47 0-4.68-2.77-8.47-6.18-8.47Z" fill="#0F0E0E"/><path fill-rule="evenodd" clip-rule="evenodd" d="M58.181 98.549a1.9 1.9 0 1 0 0 3.8 1.9 1.9 0 0 0 0-3.8Z" fill="#fff"/><path fill-rule="evenodd" clip-rule="evenodd" d="M98.856 140.879a1.264 1.264 0 0 1 .506 1.397 1.26 1.26 0 0 1-2.126.513c-5.89-5.17-14-5.06-14-5.06s-8.08-.11-14 5.06a1.267 1.267 0 0 1-.91.307 1.255 1.255 0 0 1-.74-2.197c6.55-5.75 15.44-5.69 15.64-5.68.2.01 9.08-.09 15.63 5.66Z" fill="#0F0E0E"/><path fill-rule="evenodd" clip-rule="evenodd" d="M83.42 127.629c8.16 0 11.31-6.36 11.31-2.83 0 3.53-4.88 8.5-11.41 8.5s-11.53-5.15-11.53-8.68c0-3.53 3.45 3.01 11.63 3.01Z" fill="#D17F59"/><path fill-rule="evenodd" clip-rule="evenodd" d="M74.746 117.789c-3.55 3.07-3.34 4.71 1.36 7.35 6.25 3.51 11.09 2.74 17-1.35 2.52-1.75.12-4.62-1.41-6a2.912 2.912 0 0 1 1.83.88c5.73 5.22-4.67 9.82-7.9 10.57-7.01 1.64-20.6-8.04-10.88-11.45Z" fill="#0F0E0E"/><path fill-rule="evenodd" clip-rule="evenodd" d="M61.286 141.189a1.02 1.02 0 1 1-.42-2 7.468 7.468 0 0 0 4-2.63 7.43 7.43 0 0 0 1.42-4.61 1.003 1.003 0 0 1 2-.15 9.13 9.13 0 0 1-7.08 9.4l.08-.01Zm44.595-2a1.022 1.022 0 0 1-.42 2 9.132 9.132 0 0 1-7.08-9.4 1.005 1.005 0 0 1 1.075-.925 1.013 1.013 0 0 1 .685.346 1.001 1.001 0 0 1 .24.729 7.426 7.426 0 0 0 1.42 4.61 7.419 7.419 0 0 0 4.08 2.64Zm-18.091-20.4a1.898 1.898 0 0 1 1.864 2.271 1.903 1.903 0 0 1-1.493 1.493 1.901 1.901 0 0 1-1.714-3.207c.356-.357.84-.557 1.344-.557Z" fill="#D17F59"/><path fill-rule="evenodd" clip-rule="evenodd" d="M65.84 118.939a10.534 10.534 0 0 1-3-4.94 10.458 10.458 0 0 1-3 4.94 4.7 4.7 0 1 0 6 0Z" fill="#3BB9FF"/><path d="M66.316 122.605c.286-.132.157-1.02-.288-1.982-.445-.963-1.037-1.636-1.323-1.504-.286.132-.157 1.02.288 1.982.445.963 1.038 1.636 1.323 1.504Z" fill="#fff"/><path fill-rule="evenodd" clip-rule="evenodd" d="M63.366 110.399a5.997 5.997 0 0 0-5.312 8.818 5.998 5.998 0 0 0 10.281.52 5.996 5.996 0 0 0-.74-7.578 5.996 5.996 0 0 0-4.23-1.76Zm-45.06-8c4.52-.66 11.66.77 18.64 2.91a101.394 101.394 0 0 1 17.85 7.24 9.398 9.398 0 0 1 13.651-4.018 9.398 9.398 0 0 1 3.469 4.018 32.769 32.769 0 0 1 12.89-1.76c3.72.18 7.23.94 9.56 2.3a9.404 9.404 0 0 1 6.823-5.844 9.415 9.415 0 0 1 8.617 2.544 9.568 9.568 0 0 1 2.05 3.07 91.538 91.538 0 0 1 17.59-7.53c6.7-2.14 13.57-3.57 17.92-2.91l-.4 2.7c-3.92-.59-10.34.77-16.7 2.8-7.48 2.39-14.76 5.65-17.74 7.72v.8a9.397 9.397 0 0 1-2.754 6.646 9.397 9.397 0 0 1-13.293 0 9.397 9.397 0 0 1-2.753-6.646v-.47c-1.68-1.45-5.2-2.27-9.09-2.46a29.385 29.385 0 0 0-12 1.66c.06.42.09.845.09 1.27a9.4 9.4 0 1 1-18.73-1.2c-3.44-2.07-10.57-5.07-17.88-7.31-6.65-2-13.37-3.41-17.47-2.81l-.38-2.7.04-.02Zm84.85 8a5.996 5.996 0 0 0-5.312 8.818 5.998 5.998 0 0 0 10.281.52 5.995 5.995 0 0 0-.739-7.578 5.946 5.946 0 0 0-4.23-1.76Z" fill="#fff"/><path fill-rule="evenodd" clip-rule="evenodd" d="M18.7 106.089a.682.682 0 0 1-.54-1.136.676.676 0 0 1 .47-.224 38.99 38.99 0 0 1 14.92 2.4l.21.08c7.54 2.64 20.45 7.67 20.49 7.68a.679.679 0 0 1 .43.67c0 .53.13 8.5 7.93 9.41.382.039.766.059 1.15.06a7.55 7.55 0 0 0 5.47-2.18 9.152 9.152 0 0 0 2.51-5.51c.052-.459.08-.919.08-1.38a.68.68 0 0 1 .49-.65c.63-.25 6.13-2.34 10.74-2.34a.678.678 0 0 1 .481 1.16c-.127.128-.3.2-.48.2-3.38.182-6.71.89-9.87 2.1 0 .36 0 .71-.08 1.06a10.654 10.654 0 0 1-2.86 6.3 8.892 8.892 0 0 1-6.43 2.58c-.438-.003-.876-.03-1.31-.08-8.06-.94-9-8.36-9.11-10.32-2.28-.88-13.29-5.15-20-7.5l-.23-.08a37.255 37.255 0 0 0-14.46-2.3Z" fill="#0F0E0E"/><path fill-rule="evenodd" clip-rule="evenodd" d="M147.121 104.789a.688.688 0 0 1 .415 1.193.677.677 0 0 1-.495.167 35.718 35.718 0 0 0-14.7 2.49l-.44.17c-6.74 2.39-16.76 6.26-19.07 7.16a9.73 9.73 0 0 1-1.12 5.73 8.73 8.73 0 0 1-3 3.13 10.057 10.057 0 0 1-4.08 1.43c-2.31.3-4.655-.149-6.69-1.28a9.68 9.68 0 0 1-3.58-3.39 10.53 10.53 0 0 1-1.41-5.17 32.338 32.338 0 0 0-9.88-2.1.682.682 0 0 1-.68-.68.682.682 0 0 1 .68-.68c4.62 0 10.12 2.09 10.74 2.34a.68.68 0 0 1 .5.65 9.311 9.311 0 0 0 1.22 4.93 8.23 8.23 0 0 0 3.07 2.91 9.484 9.484 0 0 0 5.86 1.12 8.867 8.867 0 0 0 3.53-1.23 7.377 7.377 0 0 0 2.55-2.65 8.55 8.55 0 0 0 .91-5.4.684.684 0 0 1 .43-.75s12-4.67 19.58-7.36l.42-.15a36.843 36.843 0 0 1 15.24-2.58Z" fill="#0F0E0E"/><path fill-rule="evenodd" clip-rule="evenodd" d="M108.457 127.659a10.524 10.524 0 0 1-3-5 10.593 10.593 0 0 1-3 5 4.644 4.644 0 0 0-1.69 3.68c.012.788.221 1.56.609 2.246a4.704 4.704 0 0 0 6.115 1.925 4.694 4.694 0 0 0 2.638-3.656 4.7 4.7 0 0 0-1.652-4.195h-.02Z" fill="#3BB9FF"/><path d="M108.933 131.307c.286-.132.157-1.019-.288-1.982-.445-.963-1.037-1.636-1.323-1.504-.286.132-.157 1.02.288 1.982.445.963 1.038 1.636 1.323 1.504Z" fill="#fff"/></svg>