<svg width="80" height="84" fill="none" xmlns="http://www.w3.org/2000/svg"><path fill-rule="evenodd" clip-rule="evenodd" d="M20.8 1.008C12.47.838 4.59 3.458 1 10.938c.06 1.28 3.38 2 3.38 2-3.81 2-4.84 7 .12 7.15 0 0-2.56 2.61-.58 4.45 1.98 1.84 10.1-.32 10.1-.32s-5.08 2.5-5.64 4.6l1 .54c4.13 2.1 10.95 1.38 10.95 1.38l8.64-.9s9.87 25.67 21 41.69c19 27.3 37.49.09 24.77-25.16-11.82-23.5-40.67-45.09-53.94-45.36Z" fill="#E9BC9D" stroke="#0F0E0E" stroke-width="2" stroke-miterlimit="10"/><path fill-rule="evenodd" clip-rule="evenodd" d="M26.316 22.262a1.001 1.001 0 1 0-.14-2c-11 .78-15.61 4.44-15.62 4.45a1.022 1.022 0 0 0 1.26 1.61s4.1-3.32 14.5-4.06Zm-5.923-5.719a1.003 1.003 0 0 0-.15-2c-11 .79-15.61 4.45-15.62 4.46a1.02 1.02 0 0 0 .906 1.78c.128-.036.249-.097.354-.18 0 0 4.1-3.32 14.51-4.06Zm.642-7.541a1.002 1.002 0 0 0-.14-2c-11 .79-17.44 5.35-17.46 5.36a1.02 1.02 0 0 0 1.17 1.67s6-4.28 16.43-5.03Zm13.009 20.2a1.022 1.022 0 1 0-1.22-1.64c-1.57 1.17-11.82 2.12-11.85 2.12a1 1 0 0 0-.92 1.12 1 1 0 0 0 1.11.92s10.85-1.01 12.88-2.52Z" fill="#0F0E0E"/></svg>