<svg width="132" height="39" fill="none" xmlns="http://www.w3.org/2000/svg"><path d="M64.589 31.89v-8.308c-.077.043-.183.09-.32.14a9.11 9.11 0 0 0-.421.154c-.154.051-.299.102-.435.154a2.84 2.84 0 0 0-.32.115v-1.457l.41-.205c.178-.085.366-.179.562-.281.196-.102.38-.213.55-.333.178-.119.315-.23.409-.332h1.533v10.354H64.59Zm3.702 0v-1.393l2.518-3.873c.188-.29.362-.566.524-.83a4.21 4.21 0 0 0 .41-.806c.11-.28.166-.58.166-.894 0-.333-.064-.584-.192-.755a.634.634 0 0 0-.55-.268c-.255 0-.451.072-.588.217a1.09 1.09 0 0 0-.28.55 3.48 3.48 0 0 0-.078.754v.486h-1.93v-.511c0-.614.094-1.16.282-1.637.196-.477.498-.848.907-1.112.418-.272.963-.409 1.636-.409.912 0 1.598.239 2.058.716.46.477.69 1.146.69 2.007 0 .417-.064.805-.192 1.163a5.22 5.22 0 0 1-.51 1.023c-.205.323-.427.66-.665 1.01l-1.994 3.003h3.08v1.56h-5.292Zm9.419.18c-.622 0-1.138-.128-1.547-.384a2.39 2.39 0 0 1-.92-1.048c-.205-.452-.307-.971-.307-1.56v-4.64c0-.604.098-1.133.294-1.584a2.29 2.29 0 0 1 .908-1.074c.409-.256.933-.383 1.572-.383.63 0 1.146.127 1.547.383.408.256.711.614.907 1.074.196.451.294.98.294 1.585v4.64c0 .588-.102 1.107-.307 1.559a2.39 2.39 0 0 1-.92 1.048c-.41.256-.916.384-1.521.384Zm0-1.739c.23 0 .396-.072.498-.217.103-.145.17-.315.205-.511a3.44 3.44 0 0 0 .051-.563v-4.563c0-.187-.017-.383-.051-.588a1.138 1.138 0 0 0-.192-.524c-.102-.153-.273-.23-.511-.23-.239 0-.413.077-.524.23-.103.145-.17.32-.205.524-.025.205-.038.4-.038.588v4.563c0 .17.017.358.051.563.034.196.107.366.217.51.111.146.277.218.499.218Zm4.307 3.323-.153-.651c.221-.069.421-.188.6-.358.18-.162.269-.414.269-.754h-1.01v-1.867h1.853v1.65c-.008.596-.14 1.06-.396 1.393-.256.332-.643.528-1.163.587Zm5.529-1.623c-.656 0-1.193-.145-1.61-.434a2.624 2.624 0 0 1-.908-1.215c-.188-.51-.281-1.095-.281-1.75V24.95c0-.673.076-1.278.23-1.815.162-.537.443-.959.843-1.266.401-.306.972-.46 1.713-.46.64 0 1.146.103 1.521.307.384.196.66.49.831.882.17.392.256.873.256 1.445v.089a.242.242 0 0 1 .013.077h-1.867c0-.435-.042-.759-.127-.972-.086-.213-.29-.32-.614-.32a.632.632 0 0 0-.486.192c-.11.128-.191.345-.243.652a9.28 9.28 0 0 0-.063 1.24v1.061a1.08 1.08 0 0 1 .51-.435 2.22 2.22 0 0 1 .819-.166c.545-.017.98.107 1.304.37.332.257.57.614.715 1.075.145.451.218.963.218 1.534 0 .698-.085 1.32-.256 1.866-.17.545-.46.971-.87 1.278-.4.298-.95.447-1.648.447Zm.026-1.47c.213 0 .37-.072.472-.217.111-.145.184-.35.218-.614.042-.264.064-.583.064-.958 0-.358-.013-.67-.039-.933-.017-.273-.08-.486-.191-.64-.111-.153-.294-.23-.55-.23a.815.815 0 0 0-.345.077.824.824 0 0 0-.268.18.837.837 0 0 0-.18.216v1.65c0 .255.022.498.064.728.052.221.137.4.256.537.12.136.286.204.499.204Zm6.509 1.509c-.725 0-1.278-.133-1.662-.397a2.014 2.014 0 0 1-.792-1.112c-.137-.477-.205-1.035-.205-1.674h1.905c0 .375.021.69.064.946.05.255.136.447.255.575.128.128.316.187.563.179.247-.009.426-.102.537-.281.11-.18.178-.435.204-.767.026-.333.038-.725.038-1.176 0-.367-.02-.69-.064-.972-.042-.28-.127-.502-.255-.664-.12-.162-.307-.243-.563-.243a.76.76 0 0 0-.575.243c-.145.162-.251.392-.32.69h-1.687l.141-5.88h4.755v1.7h-3.132l-.115 2.288c.103-.128.273-.238.512-.332.247-.094.51-.15.792-.166.537-.052.98.05 1.33.306.357.256.621.635.792 1.138.17.494.256 1.1.256 1.815 0 .545-.035 1.052-.103 1.521-.068.46-.2.86-.396 1.202a2.022 2.022 0 0 1-.844.78c-.366.187-.843.28-1.431.28Z" fill="#fff"/><path opacity=".5" d="M103.437 32.103v-.756c-.752-.014-1.311-.259-1.676-.734-.365-.474-.566-1.088-.603-1.84l1.096-.296c.022.314.069.617.142.91.081.291.208.532.384.722.175.183.42.274.734.274.321 0 .562-.087.723-.263.168-.182.252-.442.252-.777 0-.402-.091-.724-.274-.965a4.99 4.99 0 0 0-.69-.745l-1.49-1.314a3.298 3.298 0 0 1-.482-.548 2.325 2.325 0 0 1-.285-.625 3.23 3.23 0 0 1-.088-.788c0-.636.179-1.129.537-1.48.358-.358.844-.547 1.457-.57v-.733h.384v.734c.306.022.573.087.799.197.234.102.428.248.581.438.161.19.285.424.373.701.095.27.157.588.186.954l-1.052.284a4.551 4.551 0 0 0-.131-.81 1.22 1.22 0 0 0-.351-.614c-.161-.153-.394-.219-.701-.197-.307.022-.548.11-.723.263-.168.153-.252.39-.252.712 0 .27.044.493.131.668.095.168.245.347.449.537l1.501 1.315c.22.197.424.42.614.668.197.241.354.511.471.81.124.3.186.636.186 1.009 0 .402-.076.756-.23 1.063a1.79 1.79 0 0 1-.646.712 2.11 2.11 0 0 1-.953.318v.766h-.373Z" fill="#fff"/><path d="m63.088 15.108.137-7.395h1.014l1.305 5.998 1.315-5.998h1.004L68 15.108h-.83l-.083-5.368-1.25 5.368h-.585L64.01 9.74l-.082 5.368h-.84Zm6.913.073a.905.905 0 0 1-.548-.173 1.304 1.304 0 0 1-.511-1.05c0-.329.055-.606.164-.83.11-.226.259-.415.448-.567a3.15 3.15 0 0 1 .666-.41c.256-.116.524-.229.804-.338v-.375c0-.213-.013-.39-.037-.53a.504.504 0 0 0-.155-.31c-.073-.073-.186-.11-.338-.11a.552.552 0 0 0-.329.092.52.52 0 0 0-.173.265c-.037.11-.055.24-.055.392v.265l-.968-.037c.013-.584.146-1.013.402-1.287.256-.28.651-.42 1.187-.42.523 0 .895.143 1.114.43.219.285.329.7.329 1.241v2.41c0 .165.003.323.009.475l.036.43c.018.127.034.249.046.364h-.895a21.188 21.188 0 0 0-.073-.365 7.065 7.065 0 0 1-.055-.41 1.42 1.42 0 0 1-.356.584c-.17.176-.408.264-.712.264Zm.383-.84a.497.497 0 0 0 .274-.082 1.085 1.085 0 0 0 .365-.356v-1.497a7.81 7.81 0 0 0-.428.256 2.389 2.389 0 0 0-.357.273 1.122 1.122 0 0 0-.237.32.93.93 0 0 0-.082.402c0 .213.04.38.119.502a.386.386 0 0 0 .347.182Zm2.555.767V9.831h.977v2.228h.274l.995-2.228h1.004l-1.104 2.557 1.123 2.72h-1.023l-.995-2.465h-.274v2.465h-.977Zm5.232.073c-.432 0-.761-.085-.986-.255-.22-.177-.368-.423-.448-.74a4.948 4.948 0 0 1-.11-1.104v-1.215c0-.444.04-.822.12-1.132.079-.316.228-.557.447-.721.225-.17.55-.256.977-.256.383 0 .678.064.885.192.213.122.36.307.439.557.079.243.118.548.118.913v.31h-.885v-.32c0-.23-.015-.413-.046-.547a.49.49 0 0 0-.164-.292.544.544 0 0 0-.338-.091c-.158 0-.28.036-.365.109-.085.073-.143.198-.174.374a5.32 5.32 0 0 0-.036.703v1.662c0 .45.042.752.127.904.086.152.238.228.457.228.164 0 .283-.036.356-.11a.55.55 0 0 0 .146-.328c.025-.14.037-.298.037-.475v-.429h.885v.365a2.9 2.9 0 0 1-.127.913 1.02 1.02 0 0 1-.439.585c-.207.133-.499.2-.876.2Zm2.31-.073V9.831h.823v3.552l1.588-3.552h.767v5.277h-.803V11.53l-1.58 3.58h-.794Zm4.146 0 .055-5.277h.721l1.169 3.241 1.178-3.24h.72l.056 5.276h-.822v-3.15l-.977 2.63h-.301l-.977-2.611v3.131h-.822Zm5.81.073a.905.905 0 0 1-.548-.173 1.302 1.302 0 0 1-.374-.456 1.346 1.346 0 0 1-.138-.594c0-.329.055-.606.165-.83.11-.226.258-.415.447-.567.195-.158.417-.295.667-.41.255-.116.523-.229.803-.338v-.375c0-.213-.012-.39-.036-.53a.503.503 0 0 0-.156-.31c-.073-.073-.185-.11-.337-.11a.552.552 0 0 0-.33.092.52.52 0 0 0-.172.265c-.037.11-.055.24-.055.392v.265l-.968-.037c.012-.584.146-1.013.402-1.287.255-.28.65-.42 1.186-.42.524 0 .895.143 1.114.43.22.285.33.7.33 1.241v2.41c0 .165.002.323.008.475.012.152.025.295.037.43.018.127.033.249.045.364h-.894a18.93 18.93 0 0 0-.073-.365 7.072 7.072 0 0 1-.055-.41c-.061.206-.18.401-.356.584-.17.176-.408.264-.712.264Zm.383-.84a.497.497 0 0 0 .274-.082 1.087 1.087 0 0 0 .365-.356v-1.497c-.152.085-.295.17-.429.256a2.384 2.384 0 0 0-.356.273 1.122 1.122 0 0 0-.237.32.929.929 0 0 0-.083.402c0 .213.04.38.12.502a.384.384 0 0 0 .346.182Zm2.217.813v-.74c.182 0 .325-.036.429-.109.11-.073.192-.195.246-.365a3.23 3.23 0 0 0 .137-.703c.03-.299.058-.67.082-1.114l.12-2.292h2.766v5.277h-.977v-4.537h-.932l-.082 1.552a14.97 14.97 0 0 1-.137 1.497c-.055.396-.143.706-.265.932a1.04 1.04 0 0 1-.493.465c-.2.091-.462.137-.785.137h-.11Zm4.769-.046V9.831h.977v2.182h.155a5.4 5.4 0 0 1 .913.082c.256.043.462.122.621.238a.94.94 0 0 1 .347.466c.073.194.109.447.109.757 0 .286-.036.53-.109.73a1.029 1.029 0 0 1-.356.476c-.165.121-.381.21-.649.264a4.96 4.96 0 0 1-.977.082h-1.031Zm.977-.575h.054c.31 0 .554-.027.73-.082a.598.598 0 0 0 .375-.292c.073-.146.11-.35.11-.612 0-.237-.034-.423-.1-.557a.558.558 0 0 0-.348-.301c-.164-.067-.404-.1-.72-.1h-.101v1.944Zm2.812.575V9.831h.977v2.219h1.251V9.83h.977v5.277h-.977v-2.346h-1.251v2.346h-.977Zm4.191 0V9.831h.821v3.552l1.589-3.552h.767v5.277h-.804V11.53l-1.579 3.58h-.794Zm4.172 0V9.831h.822v3.552l1.589-3.552h.767v5.277h-.804V11.53l-1.579 3.58h-.795Zm1.616-5.852c-.438 0-.748-.119-.931-.356-.176-.237-.265-.533-.265-.886h.566c.006.22.055.39.146.512.098.115.259.173.484.173.232 0 .393-.06.484-.182.098-.122.146-.29.146-.503h.575c0 .353-.091.649-.273.886-.177.237-.487.356-.932.356Zm4.643 5.852V9.831h3.068v5.277h-.977v-4.537h-1.114v4.537h-.977Zm4.057 1.735V9.831h.977v.42c.116-.134.256-.25.42-.347.164-.097.359-.146.584-.146.274 0 .49.073.649.22.164.14.286.319.365.538.079.213.131.432.155.657.024.22.037.408.037.566v1.279c0 .37-.037.724-.11 1.059a1.672 1.672 0 0 1-.402.803c-.188.201-.456.301-.803.301a.926.926 0 0 1-.502-.136 2.316 2.316 0 0 1-.393-.33v2.128h-.977Zm1.68-2.428c.171 0 .292-.061.365-.183.073-.128.119-.298.137-.511.019-.213.028-.448.028-.703v-1.279c0-.219-.013-.42-.037-.602a.966.966 0 0 0-.155-.447c-.079-.11-.204-.165-.374-.165a.847.847 0 0 0-.366.082 1.354 1.354 0 0 0-.301.192v3.378c.091.067.195.125.311.174.115.042.246.063.392.063Zm2.395.693V9.831h.822v3.552l1.588-3.552h.767v5.277h-.803V11.53l-1.58 3.58h-.794Zm5.414.092c-.243 0-.453-.034-.63-.1a1.037 1.037 0 0 1-.438-.311 1.427 1.427 0 0 1-.256-.539 3.11 3.11 0 0 1-.082-.758h.831c0 .36.052.618.155.776.104.159.25.238.438.238.165 0 .283-.043.357-.128a.641.641 0 0 0 .136-.347c.019-.152.028-.32.028-.502 0-.231-.034-.402-.101-.511-.06-.116-.17-.192-.328-.229a2.883 2.883 0 0 0-.639-.054v-.694c.426 0 .709-.064.849-.192.146-.128.219-.338.219-.63 0-.262-.055-.45-.164-.566a.544.544 0 0 0-.411-.174.577.577 0 0 0-.439.174c-.109.116-.164.347-.164.694h-.831c0-.396.058-.71.174-.94.121-.232.292-.396.511-.494a1.87 1.87 0 0 1 .785-.155c.329 0 .594.067.795.201.206.134.356.31.447.53.097.213.146.438.146.675 0 .305-.049.542-.146.712a.842.842 0 0 1-.347.366 1.026 1.026 0 0 1-.393.127c.134.025.268.07.402.137.14.061.256.18.347.356.097.17.146.439.146.804 0 .499-.116.88-.347 1.141-.231.262-.581.393-1.05.393Z" fill="#5EFF5A"/><path fill-rule="evenodd" clip-rule="evenodd" d="M36.655 30.14c.361-.427.737-.844.726-1.456-.007-.446-.003-.893-.014-1.338-.034-1.366-.075-2.73-.109-4.096a99.524 99.524 0 0 1-.005-3.793c.003-.233.035-.407.295-.498.227-.079.29-.295.286-.525-.01-.66-.014-1.32-.032-1.98-.005-.191.034-.278.245-.224.76.196 1.489-.108 2.234-.158a5.92 5.92 0 0 0 2.637-.808c1.722-1.015 2.688-2.555 2.998-4.5.284-1.787-.037-3.494-.99-5.029-.541-.872-1.172-1.69-1.73-2.558-.513-.8-1.312-1.048-2.219-1.117-1.224-.092-2.45-.096-3.676-.131-1.812-.052-3.623-.098-5.434-.152-.43-.013-.428-.024-.509-.442-.05-.255-.098-.51-.167-.76a.618.618 0 0 0-.504-.465 6.952 6.952 0 0 0-1.86-.084c-.289.022-.463.212-.54.49-.098.346-.057.701-.051 1.053.002.179-.03.254-.236.272-1.478.13-2.954 0-4.43-.016-1.246-.013-2.491-.07-3.736-.055-.99.01-1.65.632-2.143 1.405-.662 1.04-1.26 2.121-1.887 3.184-.448.759-.901 1.514-1.345 2.276a3.059 3.059 0 0 0-.41 1.086c-.017.113-.061.187-.173.226-.739.26-1.25.793-1.644 1.439a1.918 1.918 0 0 1-1.079.865c-.613.202-1.235.461-1.638.962-.434.538-1.012.698-1.6.916-.616.23-1.15.634-1.768.873-.5.194-1.024.326-1.51.563a7.658 7.658 0 0 0-.789.469.742.742 0 0 0-.357.707c.05.9.11 1.799.164 2.698a.658.658 0 0 0 .396.592c.225.106.339.26.363.509.117 1.202.237 2.403.368 3.603.171 1.56.347 3.12.535 4.68.084.695.098.685-.594.776-.58.078-1.156.182-1.722.333-.443.119-.658.36-.674.74-.022.549.143.826.617.992.254.088.517.15.775.225.827.34 1.683.336 2.548.21a.6.6 0 0 0 .495-.403c.115-.306.104-.358.548-.271 1.068.209 2.127.464 3.187.711a228.8 228.8 0 0 0 10.621 2.24c1.034.191 2.067.388 3.099.588.276.054.554.056.83.085.588.062 1.107.31 1.622.575.652.335 1.305.317 1.958-.002.276-.135.537-.297.8-.456 1.28-.775 2.583-1.516 3.818-2.367.949-.654 1.907-1.298 2.817-2.008.234-.182.477-.361.593-.652Z" fill="#010101"/><path fill-rule="evenodd" clip-rule="evenodd" d="M36.657 30.139c-1.88 1.68-4.018 2.988-6.156 4.298-.538.33-1.09.638-1.627.969-.781.48-1.564.519-2.368.056-.58-.334-1.208-.472-1.88-.525-.651-.052-1.294-.215-1.939-.34-1.98-.381-3.961-.755-5.937-1.155-2.302-.466-4.589-1.002-6.878-1.528-.945-.217-1.887-.455-2.843-.626-.147-.026-.203.003-.235.138-.102.444-.384.6-.838.643-.763.073-1.496-.047-2.234-.18.178.128.133.361.267.529.383.48.91.6 1.465.693.392.065.774.004 1.155-.066.289-.054.482-.27.679-.463.106-.104.18-.143.33-.071.978.465 2.012.77 3.08.906.954.12 1.9.294 2.862.372.893.073 1.778.241 2.671.313 1.064.086 2.11.28 3.157.464 1.13.199 2.282.268 3.394.557.66.173 1.328.334 1.94.663.984.528 2.03.765 3.14.55.407-.078.793-.255 1.167-.442.713-.356 1.442-.676 2.128-1.087.608-.364 1.274-.6 1.95-.806.8-.243 1.549-.622 2.174-1.152.509-.431 1.017-.904 1.363-1.497.227-.39.154-.807.013-1.213Z" fill="#C8C8C8"/><path fill-rule="evenodd" clip-rule="evenodd" d="M39.514 36.123c-.17-.427-.534-.59-.944-.69-.071-.017-.142-.048-.215-.055-.36-.034-.553-.208-.586-.587-.024-.266-.222-.456-.458-.559-1.253-.543-2.53-.692-3.832-.174-.334.134-.498.406-.537.75-.036.323.134.54.395.71.383.247.826.31 1.252.423.116.031.172.06.117.177-.261.557.02.946.604 1.078.026.006.048.028.071.043.203.18.466.167.709.21.937.168 1.865.076 2.785-.133.373-.085.633-.3.719-.69.04-.177.038-.35-.08-.503Z" fill="#020102"/><path fill-rule="evenodd" clip-rule="evenodd" d="M.82 35.116a.8.8 0 0 0 .47.677c.769.359 1.57.605 2.434.554.7-.04 1.354-.425 1.543-1.125.14-.523-.117-1.047-.652-1.22-.079.071-.076.168-.08.26-.017.438-.267.702-.651.853-.605.237-1.237.239-1.87.175a5.11 5.11 0 0 1-.902-.185c-.096-.028-.198-.07-.291.01Zm38.693 1.007c.01.11.03.222.028.332-.007.392-.247.69-.665.783-1.107.247-2.219.309-3.33.022-.054-.013-.11-.014-.165-.022.18.57.625.893 1.214.901.564.008 1.128.034 1.692.049.45.012.883-.095 1.306-.225.495-.153.87-.816.688-1.226a1.046 1.046 0 0 0-.768-.614Z" fill="#C8C8C8"/><path fill-rule="evenodd" clip-rule="evenodd" d="M40.796 31.897c-.87-.08-1.721.005-2.546.305-.376.136-.581.37-.59.687-.008.342.177.6.562.74.913.333 1.836.635 2.83.553.36-.03.72-.056 1.075-.117.314-.053.57-.223.678-.544.124-.367-.01-.666-.276-.92a.54.54 0 0 0-.253-.283c-.455-.272-.927-.492-1.48-.421Z" fill="#5F5F5F"/><path fill-rule="evenodd" clip-rule="evenodd" d="M11.526 35.172c.17-.367.067-.684-.194-.96-.51-.537-1.172-.749-1.875-.882-.61-.114-1.22-.085-1.83-.05-.48.028-1.111.658-1.162 1.138-.03.278.076.498.278.69.41.392.924.57 1.442.745a.463.463 0 0 0 .186.116c.803.247 1.606.254 2.393-.052.348-.136.65-.352.762-.745Z" fill="#020102"/><path fill-rule="evenodd" clip-rule="evenodd" d="M.815 35.115c.669.2 1.348.312 2.05.272.249-.014.496-.033.74-.094.76-.19 1.01-.51 1.004-1.29-.123-.328-.387-.494-.684-.648-1.17-.604-2.31-.554-3.448.084-.302.17-.49.4-.482.75.01.362.177.633.525.778.102.042.197.099.295.148Zm23.433 1.297c-.431-.772-1.18-.988-1.974-1.117-.716-.117-1.422-.048-2.116.158-.294.088-.534.238-.658.543-.185.454-.09.782.334 1.045.322.2.677.334 1.032.464a.438.438 0 0 0 .243.125c.908.194 1.805.157 2.681-.163a1.13 1.13 0 0 0 .515-.368c.185-.238.163-.47-.057-.687Z" fill="#020202"/><path fill-rule="evenodd" clip-rule="evenodd" d="M24.247 36.412c.181.477.128.661-.336.898-.61.31-1.275.368-1.947.35-.371-.009-.735-.084-1.099-.155.35.53.851.82 1.477.848.461.02.927.043 1.388-.046.535-.106.982-.38 1.384-.725a.613.613 0 0 0 .17-.739c-.124-.27-.336-.467-.675-.441-.12.009-.241.007-.362.01Z" fill="#C8C8C8"/><path fill-rule="evenodd" clip-rule="evenodd" d="M44.302 31.144c.172-.41.1-.779-.274-.982-1.16-.628-2.358-.852-3.605-.233-.267.132-.456.328-.45.641.006.31.204.503.465.639.064.033.13.064.196.097.07.117.194.132.31.165.537.148 1.09.247 1.641.27.549.022 1.069-.185 1.572-.404.08-.035.126-.107.145-.193Z" fill="#020202"/><path fill-rule="evenodd" clip-rule="evenodd" d="M11.527 35.173c-.705.944-1.682.993-2.722.822-.208-.035-.413-.093-.619-.141.02.52.248.8.74.935.422.114.845.176 1.283.18.594.007 1.05-.25 1.418-.686.236-.28.176-.859-.1-1.11Zm32.777-4.028c-.274.263-.647.289-.983.4-.858.283-1.672-.025-2.497-.194-.063-.013-.125-.03-.188-.044-.058.227.042.411.16.59.646.07 1.242.258 1.733.705.086-.085.194-.043.292-.047.313-.014.624-.014.939-.063.653-.101.921-.918.544-1.347Z" fill="#C8C8C8"/><path fill-rule="evenodd" clip-rule="evenodd" d="M24.635 3.79c2.027.014 4.054.055 6.08.086 1.543.024 3.087.01 4.63.044 1.495.035 2.991.066 4.486.108.296.009.591.052.884.093.143.02.227-.03.294-.15.192-.347.157-.904-.078-1.219-.16-.214-.39-.279-.637-.288-.761-.028-1.523-.04-2.284-.07-1.356-.051-2.713-.07-4.068-.125-1.693-.068-3.38.02-5.072.052-1.067.02-2.135.018-3.203.018-1.86.001-3.72.007-5.58-.01-.757-.008-1.286.303-1.733.912-1.037 1.408-1.79 2.974-2.62 4.499-.249.457-.528.897-.8 1.341a2.313 2.313 0 0 0-.202.457c-.019.054-.024.116.025.155.051.043.104.014.153-.019.18-.116.348-.246.498-.4.605-.619 1.324-1.013 2.194-1.1a2.19 2.19 0 0 1 .472-.002c.441.053.673-.063.884-.458.505-.942 1.01-1.884 1.52-2.823.092-.17.204-.333.32-.49.272-.373.658-.514 1.107-.548.91-.07 1.82-.074 2.73-.062Z" fill="#7A4C10"/><path fill-rule="evenodd" clip-rule="evenodd" d="M5.002 21.216c.078.814.158 1.628.235 2.44.108 1.12.21 2.24.323 3.358.097.944.273 1.874.48 2.8.112.497.425.795.917.896 1.69.35 3.378.716 5.057 1.116 4.019.96 8.067 1.775 12.131 2.523.376.069.753.125 1.132.14.474.02.916.128 1.331.354.106-.104.088-.24.09-.368.003-.511.014-1.023-.002-1.534-.032-.98.057-1.945.228-2.911a7.01 7.01 0 0 0 .043-2.165c-.119-.876-.16-1.76-.268-2.635-.037-.301-.087-.364-.385-.355-.31.008-.631-.09-.926.085.065 1.214.14 2.428.193 3.643.056 1.29.216 2.575.087 3.87-.06.602-.239.775-.842.697-1.354-.172-2.69-.458-4.032-.701-2.53-.459-5.013-1.128-7.523-1.674-1.26-.274-2.541-.444-3.794-.756-1.19-.297-2.077-.929-2.41-2.171-.134-.505-.154-1.029-.208-1.545-.164-1.57-.313-3.142-.468-4.713.004-.212-.098-.305-.312-.322-.255-.023-.51-.068-.763-.112-.108-.019-.218-.042-.314.04Z" fill="#F3C058"/><path fill-rule="evenodd" clip-rule="evenodd" d="M25.394 24.96c.343 0 .688.001 1.032-.003.124-.001.178.035.191.17.09.911.155 1.824.267 2.732.139 1.12-.007 2.233-.238 3.333a1.71 1.71 0 0 0-.03.359c-.002 1.097-.002 2.194-.002 3.292.556.436 1.168.477 1.84.08.91-.538 1.812-1.095 2.71-1.655 1.37-.856 2.767-1.673 4.065-2.641a9.23 9.23 0 0 0 1.01-.877c.388-.387.604-.851.597-1.396-.021-1.478-.071-2.954-.085-4.432-.009-.892.028-1.785.046-2.677.006-.325.018-.65.027-.974-.155-.094-.286.006-.418.058-.775.302-.777.305-.773 1.126.001.239-.026.48.02.718.017 1.813.072 3.625.06 5.437a1.134 1.134 0 0 1-.38.883c-.721.682-1.568 1.188-2.38 1.742-1.197.816-2.399 1.627-3.654 2.351-.8.463-.744.33-.82-.442-.081-.82-.057-1.651-.078-2.478l-.12-4.82c-.047-.292-.076-.314-.354-.232-.321.095-.65.158-.98.203-.201.027-.31-.039-.325-.265-.013-.182-.005-.412-.289-.424-.256-.026-.514-.041-.768-.084-.138-.023-.18.023-.195.146-.031.258.025.513.024.77Zm10.92-8.946c-.873.336-1.772.605-2.625.999a1862.829 1862.829 0 0 1-6.553 3.006c-.224.103-.33.242-.306.496.084.86.156 1.72.235 2.581.02.216.114.283.337.209 1.115-.372 2.162-.897 3.183-1.466 2.062-1.15 4.206-2.132 6.326-3.162.32-.155.47-.335.436-.704-.066-.703-.091-1.41-.133-2.114-.035-.08-.102-.114-.177-.078-.23.112-.49.13-.723.233Z" fill="#BF9745"/><path fill-rule="evenodd" clip-rule="evenodd" d="M15.623 19.196c.288.152.566.317.786.564.179.19.434.28.62.454.264.249.398.567.414.939.01.244.002.498.132.722 2.048.356 4.063.87 6.102 1.27.874.171 1.753.316 2.638.421.207.025.295-.017.317-.246.082-.832-.066-1.645-.155-2.466-.033-.312-.161-.43-.46-.498-1.811-.409-3.64-.718-5.468-1.034-1.509-.261-3.02-.506-4.54-.7-.11-.014-.22-.015-.332-.022-.025.198-.056.395-.054.596Z" fill="#F3C058"/><path fill-rule="evenodd" clip-rule="evenodd" d="M12.207 28.196c-.928-.273-1.874-.457-2.826-.611-.503-.082-1.003-.186-1.513-.223-.198-.014-.258.061-.26.25-.004.276.044.509.288.685.107.077.17.216.256.325.47.593 1.113.892 1.835 1.02 1.754.31 3.514.603 5.233 1.069 2.924.793 5.92 1.227 8.885 1.826.27.054.554.044.831.07.161.015.234-.027.228-.21-.015-.39-.012-.782-.001-1.172.004-.159-.04-.22-.206-.255-1.343-.28-2.68-.59-4.026-.863a233.306 233.306 0 0 1-5.905-1.264c-.081-.019-.165-.026-.247-.039-.379-.01-.742.116-1.124.103a1.63 1.63 0 0 1-1.118-.465 1.404 1.404 0 0 0-.33-.246Z" fill="#AE6A03"/><path fill-rule="evenodd" clip-rule="evenodd" d="M41.517 2.7c.3.674.149 1.298-.085 1.918-.972 2.587-2.017 5.146-3.065 7.704-.193.474-.456.913-.717 1.352-.335.566-.859.701-1.468.605a4.392 4.392 0 0 0-.582-.045c-.079-.002-.178-.033-.204.087-.022.097 0 .194.088.246.087.05.185.086.282.111.413.107.827.21 1.24.313.242.06.437.187.607.371.401.43.914.493 1.46.398.256-.044.347-.263.436-.467.386-.885.77-1.77 1.146-2.659.74-1.752 1.436-3.522 2.095-5.307.278-.752.411-1.54.578-2.32.062-.291-.005-.569-.12-.84-.2-.472-.557-.83-.895-1.197-.191-.209-.467-.25-.796-.27Z" fill="#BF9745"/><path fill-rule="evenodd" clip-rule="evenodd" d="M31.72 5.918c-1.736.07-3.474.094-5.211.047-1.013-.028-2.025-.033-3.037-.055-.351-.008-.698-.077-1.051-.003-.16.033-.182.09-.117.224.121.25.231.507.356.756.095.19.295.186.463.196.861.048 1.723.081 2.585.122 1.223.057 2.446.102 3.668.177 1.239.076 2.475.182 3.713.273 1.578.116 3.152.264 4.712.544.455.082.913.144 1.37.223.14.024.227-.008.283-.147.245-.612.495-1.22.744-1.83.113-.277-.136-.223-.243-.233a20.312 20.312 0 0 0-1.25-.068c-1.132-.035-2.262-.105-3.394-.131-.435-.01-.872-.04-1.307-.036-.762.01-1.52-.098-2.284-.06Z" fill="#5B3802"/><path fill-rule="evenodd" clip-rule="evenodd" d="M23.254 8.352c.752-.094 1.486-.15 2.219.07.46.137.916.296 1.27.611.428.381.933.415 1.449.457 1.144.094 2.288.195 3.434.272.934.063 1.863.162 2.79.288 1.283.175 2.576.286 3.832.62.178.049.258.03.325-.16.167-.471.353-.937.548-1.398.072-.17.035-.25-.125-.325-.393-.184-.82-.226-1.238-.294a99.872 99.872 0 0 0-2.608-.383 19.064 19.064 0 0 0-1.329-.12c-1.082-.064-2.167-.108-3.25-.179-.925-.06-1.85-.121-2.775-.169-1.01-.052-2.018-.123-3.027-.178-.414-.023-.836.009-1.246-.085-.036-.008-.075-.003-.112-.004-.507-.003-.521.014-.427.5.021.11.04.219.067.326.028.109.078.196.203.151ZM29.003 5.7c2.305-.093 4.611-.083 6.916-.05 1.345.02 2.686.166 4.033.17.324 0 .505-.103.598-.401.055-.178.116-.354.188-.525.074-.176-.005-.231-.164-.254-.893-.129-1.789-.168-2.69-.183-1.373-.022-2.748-.012-4.118-.061-1.421-.052-2.841-.12-4.262-.084-1.4.036-2.8-.006-4.199-.032-.872-.017-1.745-.03-2.618-.026-.322.001-.646.03-.966.095-.163.033-.206.09-.13.243.098.2.195.401.277.608.083.21.25.296.45.322.24.03.48.051.72.056 1.404.026 2.808.035 4.21.076.585.016 1.17.048 1.755.047Z" fill="#5B3802"/><path fill-rule="evenodd" clip-rule="evenodd" d="M9.698 17.809c-.932-.14-1.874-.209-2.801-.39-.409-.08-.82-.147-1.227-.23a1.193 1.193 0 0 1-.719-.438c-.157-.245-.385-.348-.67-.337-.195.13-.213.336-.221.54-.015.41.05.815.077 1.223.017.25.042.5.04.75-.004.513.086.64.594.722.842.135 1.686.262 2.528.39 1.293.197 2.586.387 3.878.591.228.036.347.002.424-.246.172-.556.452-1.04 1.066-1.222.115-.034.182-.126.236-.225.11-.203.216-.409.324-.613 0-.134-.118-.106-.182-.112a79.858 79.858 0 0 1-1.431-.152c-.64-.073-1.28-.15-1.916-.251Z" fill="#F3C058"/><path fill-rule="evenodd" clip-rule="evenodd" d="M4.278 16.414c.234.091.47.18.67.336.102-.123.22-.055.33-.024 1.264.364 2.567.498 3.87.633 1.459.15 2.917.31 4.373.49 1.99.247 3.97.558 5.944.913 1.679.3 3.356.615 5.036.914.475.084.948.18 1.432.206.474.06.571-.067.384-.505-.065-.153-.162-.291-.222-.446-.05-.125-.156-.143-.265-.16-1.766-.29-3.532-.583-5.299-.868-1.703-.275-3.413-.51-5.127-.71-1.723-.2-3.447-.406-5.172-.591-1.098-.117-2.199-.205-3.3-.298-.437-.037-.55-.104-.69-.549-.058-.188-.122-.243-.326-.186-.607.168-1.17.412-1.638.845Z" fill="#A7853D"/><path fill-rule="evenodd" clip-rule="evenodd" d="M15.504 28.583c1.157.31 2.331.538 3.502.78 1.952.402 3.912.762 5.853 1.215.246.057.314-.013.304-.249-.016-.389-.006-.778-.039-1.169-.022-.262-.148-.4-.366-.459a16.205 16.205 0 0 0-1.164-.27c-2.222-.432-4.445-.857-6.667-1.284-.063-.012-.13-.011-.194-.016-.093-.029-.107.05-.136.102-.252.459-.547.88-.995 1.172-.06.038-.127.085-.098.178Z" fill="#AE6A03"/><path fill-rule="evenodd" clip-rule="evenodd" d="M10.842 24.323c-.002.88.214 1.69.805 2.367.668.765 2.01.94 3.006.402.965-.521 1.774-2.096 1.646-3.185-.016-.136-.058-.195-.183-.228-.877-.236-1.755-.467-2.659-.582-.147-.019-.3-.043-.443-.024a2.994 2.994 0 0 1-1.422-.128c-.24-.085-.385.036-.485.248a2.806 2.806 0 0 0-.265 1.13Z" fill="#E0C472"/><path fill-rule="evenodd" clip-rule="evenodd" d="M37.559 12.512c.132.018.201-.036.25-.162.132-.347.272-.69.422-1.03.07-.16.04-.23-.132-.28-.8-.232-1.614-.404-2.434-.546a39.717 39.717 0 0 0-2.281-.312 52.168 52.168 0 0 0-1.88-.183 166.996 166.996 0 0 0-3.048-.208c-.258-.015-.518.022-.776.036-.048.003-.098.01-.108.066-.015.089.059.114.117.129.278.068.557.139.839.188.555.096 1.033.357 1.469.695.474.369.984.594 1.58.748.966.252 1.943.37 2.921.502.871.119 1.747.198 2.62.297.148.016.294.039.44.06Z" fill="#5B3802"/><path fill-rule="evenodd" clip-rule="evenodd" d="M16.847 26.793c1.715.405 3.455.687 5.185 1.012.939.176 1.875.366 2.81.558.192.04.292.04.262-.207a7.634 7.634 0 0 1-.047-.945c0-.164-.083-.204-.21-.23a119.881 119.881 0 0 0-4.066-.793c-1.06-.185-2.12-.364-3.18-.543-.082-.015-.166-.016-.25-.023-.176-.066-.278 0-.328.176-.064.22-.147.436-.212.657-.033.116-.064.234.036.338Z" fill="#AE6A03"/><path fill-rule="evenodd" clip-rule="evenodd" d="M40.511 15.472c1.271-.226 2.429-.677 3.329-1.65 1.041-1.127 1.644-2.447 1.681-3.99.03-1.245-.226-2.434-.838-3.532-.172-.308-.339-.619-.517-.924-.035-.061-.055-.17-.176-.136-.09.025-.137.088-.168.172-.174.466-.216.872.11 1.35 1.003 1.469.932 3.062.346 4.664-.42 1.149-1.158 2.044-2.25 2.626-.333.178-.697.248-1.071.271-.645.04-.813.456-.863.913-.032.286.262.167.417.236Z" fill="#BF9745"/><path fill-rule="evenodd" clip-rule="evenodd" d="M28.851 30.8c.02.417.05.797.052 1.178.002.231.065.243.251.136 1.143-.662 2.242-1.394 3.35-2.11.799-.516 1.498-1.162 2.276-1.705.347-.243.393-.632.372-1.028-.01-.176-.116-.102-.195-.078-.5.149-.975.363-1.436.605a90.317 90.317 0 0 0-4.338 2.408c-.267.16-.424.312-.332.594Z" fill="#8F5704"/><path fill-rule="evenodd" clip-rule="evenodd" d="M24.984 25.983c0-.587.003-.6-.578-.718a110.89 110.89 0 0 0-5.26-.92c-.678-.105-1.36-.184-2.039-.284-.206-.03-.264.04-.289.244-.087.715-.087.73.626.883 2.34.497 4.694.927 7.054 1.323.485.08.486.074.486-.528Z" fill="#AE6A03"/><path fill-rule="evenodd" clip-rule="evenodd" d="M28.846 29.918c.825-.35 1.563-.78 2.317-1.177 1.2-.63 2.366-1.328 3.603-1.89.273-.124.414-.327.397-.638a4.837 4.837 0 0 1-.003-.697c.023-.262-.093-.225-.252-.146-.2.1-.401.194-.6.294-1.646.821-3.332 1.56-4.939 2.462-.375.21-.577.465-.529.91.03.276.006.557.006.882Zm6.248-7.374c0-.078.002-.161 0-.245-.01-.392-.053-.43-.416-.26-.682.317-1.358.649-2.032.984-1.123.558-2.236 1.139-3.366 1.68-.38.183-.586.403-.492.836.022.1.026.202.043.303.06.365.09.386.44.218 1.809-.867 3.615-1.741 5.428-2.602.413-.196.458-.522.395-.913Zm-6.168 5.416c2-1.018 4.071-1.831 5.972-2.989.222-.135.3-.298.304-.539.005-.258-.074-.513.025-.832-.348.151-.636.27-.917.403-1.544.726-3.107 1.418-4.62 2.207-.964.502-.983.587-.764 1.75Z" fill="#8E5704"/><path fill-rule="evenodd" clip-rule="evenodd" d="M25.828 18.77c.3.251.418.597.498.96.023.103-.047.147-.147.146-.083 0-.165.004-.248.006.287.13.55.011.802-.099.951-.417 1.894-.856 2.847-1.27 1.363-.594 2.665-1.317 4.044-1.873a31.327 31.327 0 0 1 2.227-.8c.321-.102.448-.05.46.175.256.041.486-.043.704-.157.077-.04.13-.045.196.002-.013-.177-.107-.314-.271-.35-.432-.093-.844-.284-1.298-.274-.234.005-.44.063-.596.247-.237.281-.59.34-.91.452a230.065 230.065 0 0 0-7.168 2.648c-.367.143-.743.23-1.14.187Z" fill="#846930"/><path fill-rule="evenodd" clip-rule="evenodd" d="M21.377 10.249c-.213 0-.427-.005-.64.001-.448.013-.77.228-.987.617-.076.138-.06.223.052.336.487.49 1.072.752 1.76.792.628.037 1.259.07 1.889.111.406.027.766-.083 1.1-.315.133-.093.177-.166.096-.335-.264-.55-.662-.901-1.279-.997-.66-.103-1.32-.203-1.99-.21Z" fill="#F78682"/><path fill-rule="evenodd" clip-rule="evenodd" d="M24.886 24.906c.103-.25.067-.51.026-.762-.032-.197-.215-.265-.394-.304-.678-.15-1.355-.3-2.035-.442-1.739-.363-3.48-.716-5.217-1.087-.263-.056-.47-.02-.67.15-.134.112-.282.207-.424.31-.079.149.026.234.126.293.135.08.296.157.45.092.392-.164.758-.03 1.14.046.922.181 1.83.405 2.723.696.31.1.636.142.957.182 1.029.13 1.991.525 3.004.714.112.02.21.076.314.112Z" fill="#794902"/><path fill-rule="evenodd" clip-rule="evenodd" d="M35.036 21.439c.114-.19.033-.399.058-.597.012-.092.013-.185.025-.277.017-.116.088-.261-.027-.335-.107-.07-.254-.033-.374.03-.346.182-.69.365-1.035.548-1.606.857-3.21 1.719-4.823 2.565-.216.114-.267.238-.223.462.037.19.026.388.041.582.005.066-.015.172.115.105.043-.157.205-.142.309-.21.654-.423 1.362-.76 1.989-1.23.434-.325.926-.552 1.43-.746.746-.287 1.483-.592 2.18-.987.163-.094.265-.096.335.09Z" fill="#633C03"/><path fill-rule="evenodd" clip-rule="evenodd" d="M27 10.073c-.612-.823-1.407-1.208-2.391-1.202-.437.003-.875-.01-1.31.056a.616.616 0 0 0-.53.745c.034.17.155.237.312.276.594.145 1.187.296 1.781.447.17.044.343.09.402.312l-.467.052c.161.521.46.663.928.452.052-.023.1-.045.115-.109.122-.517.558-.71.967-.93l.193-.099Z" fill="#FCDC4E"/><path fill-rule="evenodd" clip-rule="evenodd" d="M19.487 7.918c.44.052.832-.047 1.23-.053.627-.009 1.2.202 1.789.357.051.014.106.058.156.015.058-.049.002-.101-.015-.149A32.203 32.203 0 0 0 21.42 5.08c-.149-.316-.157-.321-.372-.037-.375.5-.642 1.062-.917 1.62-.204.413-.42.82-.643 1.255Z" fill="#5B3802"/><path fill-rule="evenodd" clip-rule="evenodd" d="M32.234 16.018c-.306-.199-.58-.371-.85-.552-.485-.327-.858-.72-.75-1.374.01-.056.005-.105-.054-.143-.58-.376-1.169-.73-1.883-.775-.408-.026-.617.105-.79.48-.174.382-.136.751.132 1.005.323.306.69.533 1.157.544.917.02 1.733.377 2.54.763.226.11.224.115.498.052Z" fill="#FCDC4E"/><path fill-rule="evenodd" clip-rule="evenodd" d="M6.883 22.15c.028.342.063.684.082 1.027.008.147.077.207.21.247a23.21 23.21 0 0 0 2.817.655c.155.026.216-.006.255-.151.097-.358.196-.716.312-1.068.052-.158-.004-.228-.138-.272-.096-.033-.194-.074-.294-.08-1.003-.076-1.97-.368-2.963-.491-.112-.014-.288-.12-.28.133Z" fill="#AE6A03"/><path fill-rule="evenodd" clip-rule="evenodd" d="M43.874 7.97c.013-.305-.138-.542-.325-.75-.144-.16-.157.03-.187.1-.223.53-.44 1.062-.657 1.595-.624 1.528-1.244 3.059-1.875 4.585-.09.216-.07.293.182.296.263.003.445-.086.562-.323.518-1.05.96-2.133 1.439-3.199.262-.584.5-1.178.75-1.767a1.26 1.26 0 0 0 .111-.538Z" fill="#8E5704"/><path fill-rule="evenodd" clip-rule="evenodd" d="M24.89 24.906c-.009-.094-.053-.157-.152-.168-.825-.093-1.578-.486-2.394-.594-1.602-.211-3.114-.798-4.695-1.097a1.907 1.907 0 0 0-.887.027c-.297.081-.463-.013-.585-.303-.37.04-.728.048-.907-.375-.326-.177-.699-.153-1.046-.237a2.932 2.932 0 0 0-.522-.072c-.112-.006-.223-.003-.313.08-.11.218-.053.34.195.393.907.196 1.81.404 2.717.604.277.06.52.165.732.37.236.226.576.183.87.238 2.116.399 4.234.782 6.353 1.162.207.038.429.101.635-.028Z" fill="#AE6903"/><path fill-rule="evenodd" clip-rule="evenodd" d="M11.883 27.744c-.433-.476-.841-.954-1.276-1.408-.2-.208-.49-.207-.753-.25-.704-.115-1.409-.22-2.114-.329-.342-.053-.389-.012-.39.333v.195c.003.46.1.589.559.683.853.173 1.708.336 2.563.503l1.41.273Z" fill="#AE6A03"/><path fill-rule="evenodd" clip-rule="evenodd" d="M11.148 15.745v-.056c-.004-.512-.12-.617-.619-.537a1.212 1.212 0 0 1-.756-.113c-.135-.067-.272-.155-.338-.284-.202-.396-.516-.39-.877-.292-.59.159-1.075.495-1.525.89-.104.092-.175.227-.14.343.027.093.18.042.276.05 1.211.114 2.423.226 3.635.333.344.03.345.022.344-.334Z" fill="#FCDC4E"/><path fill-rule="evenodd" clip-rule="evenodd" d="M7.107 24.314v.028c.024.85.082.932.903 1.088.69.13 1.386.237 2.08.354.2.034.3-.032.273-.253-.032-.239-.052-.48-.073-.719-.02-.238-.155-.366-.382-.41-.845-.168-1.688-.338-2.533-.5-.258-.05-.275-.015-.268.412Z" fill="#AE6A03"/><path fill-rule="evenodd" clip-rule="evenodd" d="M31.18 14.342c-.119.034-.135.119-.103.218.031.097.063.196.11.285.351.668 1.716 1.062 2.364.678.267-.158.562-.237.848-.343.242-.089.476-.205.51-.495.034-.29-.104-.518-.333-.693a2.119 2.119 0 0 0-.747-.359c-.212-.056-.404-.068-.49.203-.026.085-.093.157-.142.236a.318.318 0 0 0-.05.098c-.136.435-.233.505-.688.492-.34-.009-.649-.137-.961-.25-.104-.037-.203-.09-.319-.07ZM19.14 9.993l-.26-.356c-.119-.162-.22-.34-.15-.54.064-.186-.01-.232-.168-.283-1.058-.34-2.357.187-2.888 1.168-.103.19-.08.294.122.373.144.057.28.136.421.205.232.05.462.08.679-.055.119-.213.318-.264.541-.267.138-.002.277.002.416.007.16.042.313.004.46-.054.267-.104.573-.046.828-.198Zm-5.126 3.52c.44-.009.735-.172.958-.457.136-.173.133-.362-.021-.532a1.98 1.98 0 0 0-.597-.45c-.416-.205-.838-.4-1.25-.61-.14-.071-.22-.075-.313.072-.215.337-.454.658-.677.989-.145.214-.12.411.094.486.613.212 1.239.382 1.806.502Z" fill="#FCDC4E"/><path fill-rule="evenodd" clip-rule="evenodd" d="M11.421 22.38c.12-.36.032-.727.04-1.092.002-.12-.12-.115-.21-.136-.72-.167-1.454-.264-2.184-.376-.667-.103-1.337-.185-2.003-.291-.168-.027-.236-.01-.226.178.016.278.009.556.012.835.537.154 1.09.193 1.642.25.832.085 1.668.058 2.503.058.317 0 .318 0 .344.316.008.093.01.186.082.259Z" fill="#794902"/><path fill-rule="evenodd" clip-rule="evenodd" d="M23.072 16.486c.224-.012.446-.014.665-.07.138-.036.26-.1.36-.2.225-.228.214-.33-.035-.528a2.805 2.805 0 0 0-1.904-.644c-.405.014-.81-.092-1.218-.024-.11.018-.221.034-.326.068-.15.049-.256.143-.277.313-.02.171.065.28.202.364a4.606 4.606 0 0 0 1.787.65c.247.034.497.048.746.071Zm2.254-2.982c.413.107.823.226 1.24.318.516.114.697.03.983-.41.294-.45.294-.45-.188-.71a3.526 3.526 0 0 1-1.005-.829.651.651 0 0 0-.59-.246c-.368.037-.453.127-.502.503-.026.201-.074.4-.112.6.076.182.121.368.082.567-.017.086-.008.168.092.207Zm4.961-1.058c.077-.195.011-.36-.102-.52-.575-.811-1.353-1.247-2.35-1.29-.194-.008-.388-.033-.582-.047-.33-.023-.633.022-.808.355-.013.014-.03.038-.023.046.24.246.424.569.817.612.596.275 1.227.456 1.835.7.396.118.791.243 1.213.144Z" fill="#FCDC4E"/><path fill-rule="evenodd" clip-rule="evenodd" d="M36.327 13.847a1.09 1.09 0 0 0 1.08-.865c.028-.135-.037-.139-.124-.15-.423-.052-.845-.107-1.268-.156-.9-.104-1.803-.204-2.703-.309-.064-.007-.142-.05-.184.005-.054.07.015.141.051.2.144.234.321.426.6.511.258.078.52.164.731.335.39.315.862.308 1.317.372.184.025.368.042.5.057Z" fill="#5B3802"/><path fill-rule="evenodd" clip-rule="evenodd" d="M19.232 9.277c-.005.217.173.311.297.445.198.214.372.308.67.11.33-.22.738-.122 1.116-.107.101.005.202.027.304.035.617.042.785-.1.856-.708.011-.097-.036-.132-.102-.171-.82-.486-1.682-.598-2.589-.288-.23.079-.552.49-.552.684Zm8.385 8.088c-.114-.233-.328-.354-.55-.443-.68-.274-1.367-.529-2.047-.8-.112-.044-.184-.035-.273.044-.208.184-.426.359-.64.537.116.31.392.43.665.551.433.079.807.313 1.216.458l.286.103c.273.066.545.108.82.011.238-.083.432-.213.523-.46Z" fill="#FCDC4E"/><path fill-rule="evenodd" clip-rule="evenodd" d="M2.892 30.436c-.242.336-.188.602.167.803.537.303 1.13.412 1.732.461.37.03.742.012 1.113.007.1-.002.205-.02.3-.054.3-.106.379-.407.175-.643-.06-.07-.128-.13-.192-.196-1.06.124-2.08-.143-3.106-.334-.063-.01-.126-.027-.189-.044Z" fill="#AE9836"/><path fill-rule="evenodd" clip-rule="evenodd" d="M23.887 15.008c.262.116.532.22.707.466.03.042.072.056.12.055.416-.002.836.033 1.244-.075.384-.102.527-.417.349-.778-.277-.563-.793-.767-1.366-.877-.154.037-.224.16-.271.293-.083.23-.245.384-.445.515-.15.098-.33.18-.338.4Z" fill="#FCDC4E"/><path fill-rule="evenodd" clip-rule="evenodd" d="M12.383 13.594c-.348.004-.636.156-.928.3-.116.057-.112.136-.07.228.07.159.209.235.365.276.716.189 1.43.385 2.151.554.345.08.682.002.994-.17.09-.05.137-.099.02-.175-.78-.503-1.65-.773-2.532-1.013Z" fill="#3BD468"/><path fill-rule="evenodd" clip-rule="evenodd" d="M15.392 12.689c.023.526.023.526.534.663.448.12.896.244 1.345.357.23.058.476.099.618-.16.108-.2-.006-.48-.24-.647-.512-.367-1.058-.65-1.7-.714-.543-.054-.58-.024-.557.501Z" fill="#FBDC4E"/><path fill-rule="evenodd" clip-rule="evenodd" d="M17.185 15.08c.148.01.27-.055.385-.136.242-.17.264-.379.04-.573-.737-.64-1.617-.82-2.563-.76-.173.013-.326.112-.484.208.215.178.449.307.69.425.17.083.323.184.377.382 0 .19.053.247.274.219.309-.04.602.134.91.182.124.02.238.099.371.053Z" fill="#FCDC4E"/><path fill-rule="evenodd" clip-rule="evenodd" d="M29.951 1.814c.279 0 .556-.004.834.002.133.003.185-.026.15-.175-.047-.198-.063-.402-.102-.603-.058-.303-.249-.464-.554-.493-.417-.039-.834-.013-1.25.019-.14.01-.264.09-.285.228-.041.286-.033.576.092.845.07.15.202.208.364.207.25-.002.501 0 .752 0v-.03Z" fill="#E0C471"/><path fill-rule="evenodd" clip-rule="evenodd" d="M14.633 10.392c-.446.007-.801.16-1.12.424-.166.136-.135.213.026.324.418.289.89.404 1.38.473.266.037.533.07.8.105.18.024.624-.28.662-.454.012-.06-.03-.08-.062-.11-.493-.431-1.034-.753-1.686-.762Z" fill="#FCDC4E"/><path fill-rule="evenodd" clip-rule="evenodd" d="M16.406 21.285c.012-.435-.139-.823-.37-1.178-.213-.33-.545-.468-.925-.488-.226-.012-.452.474-.328.707.06.113.147.214.235.31.306.335.54.703.618 1.162.031.18.1.403.312.41.227.008.342-.184.398-.4.045-.172.063-.346.06-.523Z" fill="#E0C471"/><path fill-rule="evenodd" clip-rule="evenodd" d="M43.958 9.07c-.63 1.39-1.26 2.78-1.896 4.187.866-.16 2.366-2.388 1.896-4.188Z" fill="#8E5704"/><path fill-rule="evenodd" clip-rule="evenodd" d="M13.323 19.92c.015.157.023.315.048.47.081.502.449.732.933.593.1-.03.187-.072.123-.19-.318-.588-.098-1.103.188-1.627.255-.468.234-.484-.302-.556-.465-.063-.775.137-.898.592a2.85 2.85 0 0 0-.092.718Z" fill="#FBDC4E"/><path fill-rule="evenodd" clip-rule="evenodd" d="M29.236 16.353c.06.023.13.033.18.07.743.522 1.404.154 2.092-.166a.823.823 0 0 0-.34-.275c-.718-.284-1.44-.55-2.238-.438-.117.016-.24-.015-.36-.01a.442.442 0 0 0-.385.228c.304.279.602.57 1.05.591Z" fill="#FADB4D"/><path fill-rule="evenodd" clip-rule="evenodd" d="M15.041 15.903c-.131.13-.256.267-.394.39-.171.152-.07.231.078.255a63.37 63.37 0 0 0 1.844.26c.238.03.382-.107.457-.324.1-.288.03-.591-.193-.756a1.37 1.37 0 0 0-.603-.266c-.236-.081-.436.02-.63.131-.185.107-.373.206-.559.31Zm1.817-4.286c-.087.419-.09.43.31.593.665.272 1.355.377 2.072.245.112-.02.196-.047.169-.193-.077-.4-.147-.803-.22-1.205-.14-.089-.248.015-.358.069-.332.162-.659.33-1.03.397-.22.04-.434.084-.658.034-.1-.023-.204-.027-.285.06Z" fill="#FBDC4E"/><path fill-rule="evenodd" clip-rule="evenodd" d="M15.506 28.583c.413-.311.796-.65 1.042-1.118.06-.113.124-.223.186-.334-.241-.052-.482-.116-.727-.151a.437.437 0 0 0-.382.125c-.554.58-1.285.773-2.11.964.703.213 1.34.385 1.99.514Z" fill="#784902"/><path fill-rule="evenodd" clip-rule="evenodd" d="M35.039 21.439v-.196c-.003-.13-.053-.13-.156-.071a13.75 13.75 0 0 1-1.98.94c-.706.265-1.393.564-2.003 1.011-.644.472-1.354.83-2.044 1.223-.079.044-.164.074-.06.176.865-.334 1.702-.73 2.512-1.178a63.347 63.347 0 0 1 3.519-1.78c.073-.035.141-.083.212-.125Z" fill="#8D5604"/><path fill-rule="evenodd" clip-rule="evenodd" d="M9.622 14.212a.553.553 0 0 0 .524.575c.4.033.735-.202.784-.551.016-.12.026-.24.042-.36.041-.29.188-.499.471-.599.143-.05.247-.123.236-.297-.012-.188-.046-.292-.285-.222-.545.16-1.035.408-1.45.797-.188.177-.316.388-.322.657Z" fill="#FBDC4E"/><path fill-rule="evenodd" clip-rule="evenodd" d="M24.79 12.231c-.248.02-.423.129-.612.194-.245.085-.49.178-.756.102-.065-.018-.13-.032-.156.059-.197.678-.471 1.342-.378 2.116.905-.625 1.516-1.43 1.901-2.47Z" fill="#AA5D5A"/><path fill-rule="evenodd" clip-rule="evenodd" d="M11.993 21.921c0 .056-.002.112 0 .167.014.226.077.433.329.484.256.052.396-.119.479-.33.21-.538.377-1.076.103-1.652-.094-.198-.137-.422-.184-.639-.036-.17-.113-.164-.23-.087a.745.745 0 0 0-.35.51c-.09.512-.097 1.031-.147 1.547Z" fill="#E0C471"/><path fill-rule="evenodd" clip-rule="evenodd" d="M27.225 11.5c-.053-.006-.093.082-.148.031-.212-.193-.42-.39-.63-.587-.137.233-.027.427.105.61.556.782 1.35 1.163 2.263 1.343.274.054.548.07.829.014.292-.06.52-.185.645-.464-.401-.078-.82-.058-1.206-.223-.743.077-1.314-.29-1.858-.724Z" fill="#AE9836"/><path fill-rule="evenodd" clip-rule="evenodd" d="M2.893 30.436c.011.115.115.121.187.134.935.17 1.863.392 2.824.364.108-.003.23.017.284-.12l-.016-.023c-.584-.914-1.463-.882-2.372-.728-.325.055-.664.106-.907.373Z" fill="#FBDC4D"/><path fill-rule="evenodd" clip-rule="evenodd" d="M23.54 17.254c-.097-.274-.292-.413-.58-.44-.786-.075-1.544-.273-2.293-.525-.406-.136-.817-.067-1.204.119-.007.23.17.28.331.295.241.024.436.129.64.245.423.242.875.4 1.374.391.464-.008.927 0 1.391-.003.118-.001.244.016.34-.082Z" fill="#AF9936"/><path fill-rule="evenodd" clip-rule="evenodd" d="M21.687 12.386c-.14-.036-.163.038-.12.229.125.55.226 1.107.342 1.66.018.09.051.178.09.26.052.108.154.127.261.121.122-.006.14-.097.162-.191.142-.595.285-1.189.432-1.782.031-.125.015-.182-.133-.193-.324-.022-.647-.064-1.034-.104Z" fill="#AA5C5A"/><path fill-rule="evenodd" clip-rule="evenodd" d="M23.537 17.253c-.565.002-1.13-.003-1.694.005-.546.009-1.035-.163-1.487-.454-.16-.103-.316-.181-.513-.17a.383.383 0 0 1-.382-.227c-.207.204-.11.45-.077.677.015.1.159.077.243.093 1.072.206 2.15.375 3.232.522l.977.13-.3-.576Z" fill="#F9DA4D"/><path fill-rule="evenodd" clip-rule="evenodd" d="M27.611 15.966c.012-.257.058-.502.274-.672.095-.075.062-.133.007-.207-.098-.134-.212-.263-.285-.412-.177-.366-.455-.49-.85-.435-.162.022-.26.024-.156.214.027.048.037.105.056.157.245.65.169.864-.426 1.2.139.161 1.111.394 1.283.313.07-.034.07-.103.097-.158Z" fill="#FBDC4E"/><path fill-rule="evenodd" clip-rule="evenodd" d="M30.513 12.841c-.04.05-.079.101-.12.15-.242.281-.242.282.07.462.582.333 1.202.52 1.878.51.476-.007.692-.327.525-.786a2.9 2.9 0 0 0-1.21-.113c-.095.037-.109.093-.032.162.066.06.141.102.223.113-.331-.02-.603-.19-.864-.387-.157-.033-.284-.202-.47-.111Z" fill="#AE9836"/><path fill-rule="evenodd" clip-rule="evenodd" d="M19.792 15.184c.091-.218.294-.318.52-.441-.694-.468-1.398-.745-2.224-.656.04.24.194.449.141.698-.052.151.017.232.16.257.396.068.77.205 1.134.368.245.109.252-.063.269-.226Z" fill="#FBDC4E"/><path fill-rule="evenodd" clip-rule="evenodd" d="M19.824 11.763a.41.41 0 0 0 .054.38c.482.74.96 1.482 1.443 2.221.046.07.08.197.2.15.107-.042.082-.167.066-.248a13.507 13.507 0 0 0-.481-1.713c-.037-.105-.13-.18-.231-.234-.343-.183-.687-.364-1.051-.556Z" fill="#AA5C5A"/><path fill-rule="evenodd" clip-rule="evenodd" d="M31.575 13.128c.433-.049.86.093 1.292.049-.302-.755-1.169-1.232-1.961-1.085-.094.017-.142.06-.172.151-.067.201-.146.399-.22.598l.457.169c.108-.096.184.017.272.043.109.033.2.144.332.075Z" fill="#FBDC4E"/><path fill-rule="evenodd" clip-rule="evenodd" d="M11.426 22.381c-.01-.221.091-.508-.042-.643-.102-.104-.395-.018-.603-.018-.787-.002-1.575.018-2.36-.059-.522-.05-1.045-.108-1.567-.163-.007.09.054.097.123.111 1.378.275 2.758.54 4.144.768.1.016.203.003.305.004Z" fill="#AD6903"/><path fill-rule="evenodd" clip-rule="evenodd" d="M17.942 15.793h-.278c-.088-.004-.137.023-.143.122-.016.279-.038.556-.063.834-.01.113.02.162.147.174.351.033.703.074 1.05.13.137.023.164-.045.18-.142.032-.173.056-.349.085-.522.068-.413.065-.423-.342-.517a2.508 2.508 0 0 0-.636-.08Z" fill="#FBDC4E"/><path fill-rule="evenodd" clip-rule="evenodd" d="M26.333 24.129c.244.099.208.33.214.516.005.21.073.274.279.26.38-.024.75-.095 1.107-.219.193-.067.305-.052.347.161.029-.333-.02-.663-.04-.994-.01-.18-.087-.193-.233-.128-.194.085-.397.15-.591.233-.348.148-.711.183-1.083.171Z" fill="#836930"/><path fill-rule="evenodd" clip-rule="evenodd" d="M5.008 21.216c.408.058.816.12 1.225.17.15.018.087.167.165.223l-.089-.99c-.007-.08-.033-.144-.116-.168-.366-.104-.733-.185-1.12-.135-.143.019-.192.079-.169.218.038.226.07.454.104.682Z" fill="#A7843D"/><path fill-rule="evenodd" clip-rule="evenodd" d="M18.464 13.611c.423.136.84.288 1.269.403.418.114.692.522 1.181.57-.202-.548-.538-.967-.833-1.41-.199-.017-.374.082-.56.125-.277.064-.55.139-.84.14-.096 0-.257-.026-.217.172Z" fill="#FBDB4D"/><path fill-rule="evenodd" clip-rule="evenodd" d="M35.657 22.174c.001-.398.008-.794.003-1.191-.003-.17.054-.27.22-.335.317-.124.613-.3.948-.377-.002-.26-.003-.519-.006-.778-.003-.173-.077-.208-.23-.127-.237.124-.481.237-.72.36-.16.082-.261.218-.261.398-.002.658.006 1.316.013 1.975 0 .025.021.05.033.075Z" fill="#836830"/><path fill-rule="evenodd" clip-rule="evenodd" d="M17.57 21.875c-.022-.302-.02-.609-.073-.905-.078-.439-.261-.822-.723-.995-.133-.05-.196-.23-.37-.215.335.49.448 1.053.484 1.628.019.31.118.462.436.448.082-.002.164.026.246.04Z" fill="#A7853D"/><path fill-rule="evenodd" clip-rule="evenodd" d="M16.858 11.618c.788.142 1.483-.117 2.15-.498.053-.031.12-.042.18-.062.036-.224-.062-.268-.268-.23-.582.11-1.166.219-1.753.296-.337.045-.254.301-.309.494Z" fill="#AE9836"/><path fill-rule="evenodd" clip-rule="evenodd" d="M13.384 22.167c.502-.028.982.116 1.471.188.137.02.274.021.41.041-.196-.702-.11-.736-1.061-.788-.102-.005-.205-.002-.306 0-.322.004-.457.152-.514.56Z" fill="#794902"/><path fill-rule="evenodd" clip-rule="evenodd" d="M24.771 17.254c-.204-.204-.48-.321-.664-.55-.264.21-.277.325-.076.568.547.663 1.226 1.003 2.14.87-.242-.189-.509-.262-.74-.398-.237-.14-.508-.235-.66-.49Z" fill="#AD9736"/><path fill-rule="evenodd" clip-rule="evenodd" d="M18.47 13.611c.05-.179.198-.09.3-.097.46-.033.904-.122 1.316-.34-.252-.459-.306-.48-.81-.38a8.086 8.086 0 0 1-.712.102c-.125.014-.195.054-.167.189.037.173-.044.363.072.526Z" fill="#AE9836"/><path fill-rule="evenodd" clip-rule="evenodd" d="M19.79 15.183c-.052.168-.114.234-.312.131-.334-.173-.69-.313-1.074-.338-.142-.01-.163-.086-.176-.192-.075.149-.051.328-.15.47-.062.089-.007.129.078.154.505.148 1.01.3 1.514.447.092.027.202.04.265-.03.076-.08-.033-.147-.073-.21-.087-.136-.066-.285-.071-.432Z" fill="#AD9836"/><path fill-rule="evenodd" clip-rule="evenodd" d="M29.233 16.354a2.016 2.016 0 0 1-.783-.454c-.07-.066-.177-.093-.268-.137-.176.18-.13.372-.01.551.262.391.648.601 1.096.71a.289.289 0 0 0 .165-.005c.122-.049.32-.039.332-.194.011-.136-.18-.125-.282-.172-.176-.08-.362-.138-.55-.207.075-.143.205-.058.3-.092Z" fill="#AD9736"/><path fill-rule="evenodd" clip-rule="evenodd" d="M13.57 15.374c-.28-.066-.551-.122-.818-.195-.137-.038-.213-.007-.247.13a1.08 1.08 0 0 0 .16.878c.127.19.44.14.588-.091.14-.219.238-.46.317-.722Z" fill="#299248"/><path fill-rule="evenodd" clip-rule="evenodd" d="M12.209 28.196c.585.804 1.387.91 2.282.699.098-.023.193-.06.29-.09a46.64 46.64 0 0 0-2.572-.609Z" fill="#794902"/><path fill-rule="evenodd" clip-rule="evenodd" d="M23.883 15.007c.12-.155.26-.283.433-.383.187-.108.34-.26.396-.48.037-.143.157-.226.226-.346-.277-.136-.521-.085-.733.132-.233.239-.46.482-.695.719-.123.124-.134.207.058.257.106.027.21.067.315.101Z" fill="#AD9836"/><path fill-rule="evenodd" clip-rule="evenodd" d="M12.213 15.804c0-.395-.042-.766-.476-.946-.144-.06-.225-.07-.268.122-.088.402.095.748.21 1.101.052.158.302.139.455.137.144-.002.055-.178.078-.275.01-.044.001-.092.001-.139Z" fill="#299248"/><path fill-rule="evenodd" clip-rule="evenodd" d="M16.847 26.792c-.01-.392.216-.721.289-1.092.022-.11.143-.052.216-.078-.502-.145-.878.03-1.074.498-.207.497-.208.497.327.622.08.018.16.034.242.05Z" fill="#784903"/><path fill-rule="evenodd" clip-rule="evenodd" d="M19.14 9.993a2.298 2.298 0 0 0-.885.14.72.72 0 0 1-.418.036c-.172.197-.402.245-.649.258-.098.004-.202-.044-.296.022-.218.08-.447.093-.675.112.249.142.523.21.802.175.523-.068 1.05-.13 1.552-.304.23-.08.47-.176.57-.439Z" fill="#AE9836"/><path fill-rule="evenodd" clip-rule="evenodd" d="M27.608 15.967c-.061.12-.17.14-.282.108-.363-.101-.743-.129-1.098-.262a1.26 1.26 0 0 0-.47.219c.454.188.855.416 1.324.444.499.03.535-.008.526-.509Z" fill="#AD9836"/><path fill-rule="evenodd" clip-rule="evenodd" d="M14.82 15.471c-.182 0-.34-.013-.497.003-.405.04-.74.433-.721.822.005.087.048.11.122.117a.579.579 0 0 0 .35-.064c.243-.14.6-.55.746-.878Z" fill="#289147"/><path fill-rule="evenodd" clip-rule="evenodd" d="M31.177 14.342c.434.215.876.4 1.373.395.52-.003.65-.136.645-.666-.314.35-.706.382-1.142.307-.286-.05-.576-.248-.876-.036Z" fill="#AD9836"/><path fill-rule="evenodd" clip-rule="evenodd" d="M9.699 17.809c.5.159 1.023.203 1.54.28.61.092 1.225.165 1.845.168.057 0 .11.013.143.067.1-.17-.072-.128-.126-.144-.385-.114-.786-.139-1.183-.174-.74-.066-1.476-.176-2.22-.197Z" fill="#A9863D"/><path fill-rule="evenodd" clip-rule="evenodd" d="M27.887 16.855c-.063.01-.155-.025-.196.05-.044.081.047.129.084.188.034.055.079.103.118.155.193.254.423.29.679.11.083-.059.074-.114.015-.183-.124-.145-.503-.322-.7-.32Z" fill="#AC9635"/><path fill-rule="evenodd" clip-rule="evenodd" d="M17.18 15.08c-.347-.164-.734-.19-1.092-.317-.075-.027-.188-.049-.242-.012-.184.127-.158-.069-.222-.125-.058.227.03.335.264.373.429.071.854.173 1.292.08Z" fill="#AB9535"/><path fill-rule="evenodd" clip-rule="evenodd" d="M27.614 17.365c-.348.445-.835.479-1.342.45.448.248.871.22 1.287-.086.158-.117.218-.215.055-.364Z" fill="#AE9836"/><path fill-rule="evenodd" clip-rule="evenodd" d="M25.328 13.505c-.077-.084-.011-.169-.007-.255.01-.191.074-.407-.167-.52-.088.128-.166.264-.266.382-.134.162-.081.244.097.293.115.032.229.066.343.1Z" fill="#AC9635"/><path fill-rule="evenodd" clip-rule="evenodd" d="M15.62 19.195a.625.625 0 0 0 .055-.596c-.37-.161-.324.154-.373.338-.08.303.18.211.318.258Z" fill="#A6843D"/><path fill-rule="evenodd" clip-rule="evenodd" d="M15.046 15.902c.236-.023.437-.137.626-.269.17-.118.35-.197.562-.172-.501-.135-.866.095-1.188.441Z" fill="#A89434"/><path fill-rule="evenodd" clip-rule="evenodd" d="M33.374 34.725c-.039.347.14.582.544.671.399.087.812.12 1.202.234.635.185 1.23.008 1.833-.134.199-.046.362-.157.39-.385.029-.227-.007-.428-.242-.539-.464.03-.91.173-1.374.208a.27.27 0 0 0-.172.084c-.054.135.051.126.129.15-.267-.074-.526.023-.79.034-.158.007-.202-.063-.219-.192-.436-.02-.862-.136-1.301-.13Z" fill="#AE9836"/><path fill-rule="evenodd" clip-rule="evenodd" d="M35.535 34.907c.44-.079.878-.159 1.318-.234a.45.45 0 0 0 .249-.1c-.9-.432-1.824-.737-2.833-.455-.359.1-.741.193-.895.608.434.154.881.206 1.34.174.273.094.546.103.82.007Zm3.528 1.273c-.167-.37-.628-.595-1.181-.516-.511.073-1.016.198-1.521.308-.228.05-.46.064-.69.06a.659.659 0 0 0-.522.201c-.002.137.11.162.203.19.238.075.482.157.73.158.756.006 1.517.074 2.27-.053.262-.045.564-.047.71-.349Z" fill="#FBDC4E"/><path fill-rule="evenodd" clip-rule="evenodd" d="M39.07 36.179c-.391.275-.847.305-1.3.329-.378.02-.76-.005-1.14.014-.453.021-.883-.08-1.315-.188-.06-.015-.127-.034-.16-.101-.191.227-.174.35.057.513.317.224.687.256 1.052.323.76.139 1.51.066 2.262-.055.496-.08.71-.41.544-.835Z" fill="#AE9836"/><path fill-rule="evenodd" clip-rule="evenodd" d="M42.305 33.044c-.023-.117-.102-.195-.19-.264-.621-.482-1.35-.67-2.108-.652-.433.01-.861.193-1.292.297-.045.011-.09.02-.136.03-.097.136.038.16.106.186.69.264 1.37.548 2.133.556.395.004.791.066 1.189.047.13-.007.294.008.298-.2Z" fill="#FBDC4E"/><path fill-rule="evenodd" clip-rule="evenodd" d="M42.298 33.044c-.041.084-.11.119-.202.117-.976-.015-1.962.027-2.875-.415-.214-.103-.484-.083-.649-.292l-.158.046c-.178.051-.285.157-.303.35-.018.197.083.313.239.401.39.219.81.361 1.25.437.78.134 1.563.149 2.339-.033.343-.08.448-.275.359-.611Zm-35.35 1.058c-.182.35-.113.72.254.934.993.577 2.044.886 3.197.531.2-.061.374-.165.525-.306.29-.272.305-.486.064-.825-.327.295-.689.477-1.145.351-.427.065-.842-.02-1.258-.097-.343-.063-.644-.212-.93-.402-.24-.043-.466-.143-.707-.185Z" fill="#AE9836"/><path fill-rule="evenodd" clip-rule="evenodd" d="M6.952 34.103c.192.195.45.198.695.233.127-.022.233.047.344.083.614.198 1.24.32 1.884.355.012 0 .043-.032.037.005-.004.02-.036.04-.044.066.403.186 1.005-.07 1.124-.408-.299-.402-.732-.582-1.194-.7a8.68 8.68 0 0 0-1.084-.226c-.673-.081-1.276.093-1.762.592Zm-2.842-.101a.573.573 0 0 0-.3-.312c-1.021-.528-2.054-.58-3.097-.064-.135.067-.255.153-.292.314-.047.1-.025.202.07.238.43.162.863.335 1.334.158.005-.115.01-.213.177-.205.257.012.516.002.784.004-.18.142-.442-.038-.578.192a.185.185 0 0 0 .141.078c.534.032 1.07.068 1.577-.156.101-.044.245-.074.185-.247Z" fill="#FCDC4E"/><path fill-rule="evenodd" clip-rule="evenodd" d="M4.116 34.002c-.115.24-.365.225-.565.272a2.93 2.93 0 0 1-1.33.013c-.134-.113-.267-.116-.398.006-.458.104-.883-.052-1.312-.169-.094-.025-.07-.116-.085-.184-.123.295.068.467.262.626.402.328.898.374 1.386.439.553.073 1.09-.047 1.622-.16.438-.092.58-.406.42-.843Z" fill="#AE9836"/><path fill-rule="evenodd" clip-rule="evenodd" d="M23.773 36.402a1.193 1.193 0 0 0-.691-.564c-.795-.261-1.593-.45-2.43-.219a2.358 2.358 0 0 0-.542.215c-.134.075-.247.167-.243.341.28.195.621.193.932.288.086.026.179.037.267.06.575.065 1.15.143 1.732.129.249.01.494-.014.733-.092.095-.03.198-.048.242-.158Z" fill="#FCDC4E"/><path fill-rule="evenodd" clip-rule="evenodd" d="m21.026 36.446-1.167-.271c-.078.333.066.556.355.704 1.085.555 2.203.591 3.342.2.346-.12.402-.342.21-.677a2.66 2.66 0 0 1-.964.173c-.157.18-.373.152-.568.133a8.595 8.595 0 0 0-.919-.05.929.929 0 0 1-.299-.057c-.212-.07.01-.104.01-.155Z" fill="#AE9836"/><path fill-rule="evenodd" clip-rule="evenodd" d="M40.665 30.192c-.186.122-.239.306-.198.508.042.207.213.294.402.335.45.098.899.228 1.355.273.46.046.922-.053 1.353-.222.269-.106.327-.3.232-.55-.375.122-.75.076-1.126.004a6.788 6.788 0 0 0-1.129-.139c-.31-.008-.58-.195-.889-.209Z" fill="#AE9936"/><path fill-rule="evenodd" clip-rule="evenodd" d="M40.669 30.192c.256.18.553.268.852.283.529.027 1.045.127 1.564.21.218.034.423-.01.633-.033.071-.008.083-.06.094-.116a.405.405 0 0 0-.177-.209c-.844-.512-2.052-.66-2.927-.173-.015.009-.026.025-.04.038Z" fill="#FBDC4E"/><path fill-rule="evenodd" clip-rule="evenodd" d="M14.128 24.628c0-.046.003-.093 0-.139-.032-.41-.223-.694-.506-.753-.293-.06-.643.157-.807.519-.13.287-.178.58-.019.881.132.25.094.525.072.793-.028.327.05.448.313.481.33.042.542-.098.59-.394.06-.367.125-.732.315-1.06.06-.102.047-.216.042-.328Z" fill="#000"/><path fill-rule="evenodd" clip-rule="evenodd" d="M16.894 10.45c.328.123.625.036.91-.136.062-.037.105-.076.036-.144-.294 0-.597-.066-.867.11-.052.034-.191.05-.079.17Z" fill="#080704"/><path fill-rule="evenodd" clip-rule="evenodd" d="M21.313 15.724c.37.21.792.29 1.617.32-.196-.268-.656-.362-1.617-.32Z" fill="#080605"/><path fill-rule="evenodd" clip-rule="evenodd" d="M27.227 11.5c.448.507.983.826 1.685.784.064-.004.132.004.174-.06-.612-.262-1.269-.408-1.859-.724Z" fill="#080604"/><path fill-rule="evenodd" clip-rule="evenodd" d="m31.573 13.129-.665-.3.06.18c.368.319.572.397 1.04.386a84.242 84.242 0 0 1-.435-.266Z" fill="#0D0A05"/><path fill-rule="evenodd" clip-rule="evenodd" d="M35.535 34.906a3.194 3.194 0 0 0-.822-.006l-.243.098c.436.265.86.002 1.272.055-.026-.118-.156-.076-.207-.147Z" fill="#0A0804"/><path fill-rule="evenodd" clip-rule="evenodd" d="M37.024 36.801c.214 0 .428.002.642 0 .1-.002.199-.043.193-.154-.005-.1-.112-.077-.181-.08a5.928 5.928 0 0 0-1.28.044c-.067.01-.167 0-.148.117.017.093.101.064.16.064.205.004.41.002.614.002v.007Z" fill="#020202"/><path fill-rule="evenodd" clip-rule="evenodd" d="M41.469 33.299c-.701-.098-1.402-.198-2.103-.293-.065-.009-.163-.053-.188.051-.017.077.065.11.124.127.71.207 1.423.374 2.167.115Z" fill="#050403"/><path fill-rule="evenodd" clip-rule="evenodd" d="m9.862 34.845.177-.094c-.43-.067-.818-.125-1.204-.19a6.448 6.448 0 0 1-1.094-.308c-.086-.03-.155-.05-.1.083.66.523 1.427.578 2.221.51Z" fill="#060503"/><path fill-rule="evenodd" clip-rule="evenodd" d="m1.813 34.293.398-.005.637-.062c.063-.006.143.003.136-.095-.006-.078-.072-.072-.126-.072-.396-.002-.793-.001-1.195-.001-.002.131.078.18.15.235Zm19.22 2.152c-.086.032-.182-.034-.272.028.077.199.26.238.43.251.425.034.852.045 1.278.06a.732.732 0 0 0 .374-.093c.136-.073-.02-.077-.034-.116l-1.776-.13Z" fill="#050403"/></svg>