<svg width="43" height="26" fill="none" xmlns="http://www.w3.org/2000/svg"><g clip-path="url(#a)"><path d="M25.728 12.865c0 7.104-5.76 12.863-12.864 12.863C5.759 25.728 0 19.97 0 12.865 0 5.76 5.759 0 12.864 0c7.104 0 12.864 5.761 12.864 12.865Z" fill="#0B152D"/><path d="M30.137 0A12.816 12.816 0 0 0 21.5 3.33c-.465.422-.9.877-1.3 1.361h2.6c.356.433.684.888.98 1.363h-4.56c-.273.438-.521.893-.74 1.362h6.041c.208.443.39.898.546 1.362h-7.133c-.15.447-.273.901-.372 1.362h7.878a12.921 12.921 0 0 1-.373 6.81h-7.133c.155.464.338.92.546 1.362h6.041a12.81 12.81 0 0 1-.74 1.363h-4.56c.296.474.624.929.98 1.361H22.8c-.4.485-.832.94-1.3 1.363a12.817 12.817 0 0 0 8.637 3.329c7.105 0 12.864-5.76 12.864-12.864C43 5.76 37.24 0 30.137 0Z" fill="#14203C"/><path d="M6.827 16.25H5.43l.8-5.017-1.786 5.017h-.952l-.117-4.988-.841 4.988H1.227l1.09-6.524h2.01l.056 4.038 1.355-4.04h2.169l-1.08 6.526Zm3.433-2.364a2.329 2.329 0 0 0-.311-.022c-.792 0-1.192.27-1.192.806 0 .33.195.541.5.541.57 0 .98-.54 1.003-1.325Zm1.016 2.363H10.12l.027-.55c-.353.435-.824.643-1.464.643-.757 0-1.276-.592-1.276-1.45 0-1.292.903-2.046 2.452-2.046.19.002.38.015.57.04.042-.175.054-.25.054-.343 0-.352-.243-.482-.896-.482a4.662 4.662 0 0 0-1.478.238l.194-1.194c.695-.204 1.155-.28 1.67-.28 1.2 0 1.836.538 1.835 1.555.002.273-.044.61-.114 1.051-.121.769-.381 2.418-.417 2.818h-.001Zm18.732-6.35-.23 1.418c-.497-.25-.86-.354-1.246-.354-1.043 0-1.774 1.009-1.774 2.446 0 .99.49 1.59 1.303 1.59.344 0 .724-.109 1.186-.337l-.245 1.487c-.514.14-.846.192-1.234.192-1.503 0-2.44-1.08-2.44-2.817 0-2.332 1.294-3.962 3.145-3.962.61 0 1.33.258 1.535.338Zm2.253 3.987a2.329 2.329 0 0 0-.311-.022c-.792 0-1.192.27-1.192.806 0 .33.195.541.5.541.569 0 .98-.54 1.003-1.325Zm1.016 2.363H32.12l.026-.55c-.352.435-.824.643-1.463.643-.757 0-1.276-.592-1.276-1.45 0-1.292.903-2.046 2.452-2.046.19.002.38.015.569.04.043-.175.055-.25.055-.343 0-.352-.244-.482-.896-.482a4.662 4.662 0 0 0-1.478.238l.193-1.194c.696-.204 1.155-.28 1.67-.28 1.2 0 1.836.538 1.835 1.555.002.273-.043.61-.113 1.051-.12.769-.382 2.418-.417 2.818Zm-15.794-.08c-.382.12-.68.171-1.003.171-.714 0-1.104-.41-1.104-1.165-.01-.235.104-.852.192-1.415.08-.495.605-3.62.605-3.62h1.388l-.162.803h.713l-.19 1.274h-.715c-.16 1.01-.391 2.266-.394 2.433 0 .275.147.393.479.393.159 0 .282-.015.376-.05l-.185 1.176Zm4.256-.044a4.745 4.745 0 0 1-1.424.215c-1.554 0-2.364-.813-2.364-2.367 0-1.814 1.03-3.15 2.43-3.15 1.144 0 1.875.748 1.875 1.921 0 .39-.05.77-.171 1.306H19.32c-.093.77.4 1.09 1.207 1.09.5 0 .993-.114 1.443-.335l-.231 1.32Zm-.78-3.146c.008-.11.148-.946-.646-.946-.442 0-.758.338-.887.947h1.533Zm-8.845-.358c0 .67.326 1.133 1.064 1.481.565.265.653.345.653.585 0 .332-.25.48-.802.48a3.97 3.97 0 0 1-1.252-.208l-.191 1.226c.317.069.6.132 1.453.157 1.474 0 2.154-.561 2.154-1.774 0-.73-.284-1.157-.984-1.48-.586-.27-.653-.327-.653-.575 0-.287.232-.435.683-.435.274 0 .649.03 1.004.08l.198-1.23a9.457 9.457 0 0 0-1.228-.104c-1.563 0-2.103.816-2.1 1.796Zm28.555 3.627h-1.322l.066-.494c-.383.41-.776.586-1.288.586-1.015 0-1.686-.874-1.686-2.2 0-1.767 1.04-3.254 2.273-3.254.54 0 .95.22 1.333.724l.31-1.885h1.377l-1.063 6.524Zm-2.06-1.226c.65 0 1.107-.736 1.107-1.787 0-.675-.26-1.04-.74-1.04-.633 0-1.083.74-1.083 1.782 0 .694.24 1.046.716 1.046Zm-4.074-4.08c-.175 1.643-.485 3.306-.728 4.95l-.064.357h1.397c.5-3.244.62-3.878 1.403-3.798.125-.665.357-1.247.53-1.54-.584-.121-.911.21-1.34.837.035-.271.097-.535.085-.804h-1.283v-.002Zm-11.496 0c-.176 1.643-.486 3.306-.73 4.95l-.062.357h1.397c.499-3.244.62-3.878 1.402-3.798.126-.665.358-1.247.53-1.54-.584-.121-.91.21-1.338.837.034-.271.095-.535.083-.804H23.04l-.001-.002Zm18.243 4.89a.414.414 0 0 1 .708-.294.416.416 0 0 1 .122.293v.003a.416.416 0 0 1-.83-.002Zm.416.316a.315.315 0 0 0 0-.63.316.316 0 0 0 0 .63Zm-.057-.133h-.085v-.365h.155c.03 0 .065 0 .092.018a.11.11 0 0 1 .03.15.1.1 0 0 1-.046.037l.067.16h-.095l-.055-.145h-.063v.145Zm0-.207h.047c.018 0 .037.002.052-.006a.05.05 0 0 0 .022-.042.048.048 0 0 0-.021-.038c-.015-.008-.04-.006-.055-.006h-.045v.093Z" fill="#fff" fill-opacity=".49"/></g><defs><clipPath id="a"><path fill="#fff" d="M0 0h43v26H0z"/></clipPath></defs></svg>