<svg width="49" height="49" fill="none" xmlns="http://www.w3.org/2000/svg"><path d="M4.282 12.827 24.5 1.155l20.218 11.672v23.346L24.5 47.845 4.282 36.173V12.827Z" stroke="#5E88B7" stroke-width="2"/><path d="m25.335 13.544-.218 15.983h-2.519l-.217-15.983h2.954Zm-1.477 22.411c-.536 0-.995-.192-1.38-.575a1.881 1.881 0 0 1-.575-1.38c0-.535.192-.995.576-1.378a1.881 1.881 0 0 1 1.379-.576c.535 0 .995.192 1.379.576.384.383.575.843.575 1.379 0 .354-.09.68-.271.977a2.03 2.03 0 0 1-.706.716 1.86 1.86 0 0 1-.977.261Z" fill="#5E88B7"/></svg>