<svg width="137" height="137" fill="none" xmlns="http://www.w3.org/2000/svg"><path fill-rule="evenodd" clip-rule="evenodd" d="M51.352 30.153C56.121 3.249 66.082 7.312 61.55 19.119c-2.788 8.76-2.321 11.475-2.321 11.475 1.263-1.504 1.719-3.427 2.793-4.177 3.215-2.246 6.011-.358 4.987 3.8-.289 1.172-.822 2.588-1.642 4.242 0 0 1.48-2.009 3.456-3.173 1.52-.894 5.815-1.006 4.157 4.099-.69 2.126-1.948 4.768-1.948 4.768s2.959-1.38 9.157-10.58c2.246-3.332 6.877.15 5.082 3.454-1.796 3.305-4.125 6.183-8.673 12.938 0 0-4.032 6.98-7.945 10.297C69.68 63.997 80.78 79.82 85.887 98.647c8.68 32.108-24.046 28.763-35.197 2.782-7.388-17.185-4.701-32.424-1.665-49.07 1.234-6.764.508-15.999 2.327-22.206Z" fill="#E9BC9D"/><path d="m51.352 30.153.985.174-.01.054-.015.053-.96-.281Zm7.877.44.766.644a1 1 0 0 1-1.752-.474l.986-.17Zm6.138 3.866.806.593a1 1 0 0 1-1.702-1.037l.896.444Zm7.613.925-.951-.309.951.31Zm-1.948 4.77.423.906a1 1 0 0 1-1.326-1.336l.903.43Zm5.566 5.81-.866-.5.017-.03.02-.028.83.559Zm-7.945 10.298-.992.132-.072-.542.417-.353.647.763Zm17.234 42.385.965-.261-.965.261ZM50.69 101.43l.919-.395-.92.395Zm10.86-82.31-.953-.303.009-.028.01-.027.934.358ZM49.025 52.36l.984.18-.984-.18ZM67.01 30.216l.971.24-.97-.24Zm-4.987-3.799.572.82-.572-.82Zm6.801 4.87-.507-.863.507.862Zm11.366-1.713.83.558-.83-.558Zm-6.258 6.12c-.36 1.107-.861 2.333-1.266 3.27a61.444 61.444 0 0 1-.672 1.495l-.042.091-.012.024-.003.007v.001h-.001v.001l-.903-.43-.903-.43.003-.005.01-.022.04-.084.148-.321c.126-.276.302-.666.5-1.121.395-.917.868-2.076 1.199-3.095l1.902.618Zm2.667 10.27.866.5v.001l-.001.002-.003.004-.01.017-.036.062-.138.234a68.289 68.289 0 0 1-2.36 3.655c-1.507 2.173-3.555 4.838-5.617 6.586l-1.293-1.526c1.852-1.57 3.777-4.053 5.265-6.2a66.185 66.185 0 0 0 2.288-3.541c.058-.096.101-.17.13-.22l.033-.057.008-.013.002-.003.866.5ZM69.644 56.13c.237 1.782 1.07 4.108 2.332 6.967 1.255 2.843 2.885 6.107 4.664 9.76 3.543 7.28 7.632 16.017 10.212 25.529l-1.93.523c-2.527-9.315-6.54-17.904-10.08-25.176-1.764-3.622-3.42-6.94-4.696-9.829-1.268-2.872-2.207-5.424-2.485-7.51l1.983-.264Zm17.208 42.256c2.203 8.145 1.84 14.251-.352 18.365-2.225 4.178-6.23 6.108-10.783 6.07-8.992-.074-20.26-7.749-25.946-20.998l1.838-.789c5.465 12.733 16.135 19.721 24.125 19.788 3.937.032 7.183-1.598 9.001-5.011 1.852-3.477 2.325-8.994.187-16.903l1.93-.522ZM50.367 29.978c1.202-6.78 2.74-11.665 4.325-14.99.792-1.662 1.607-2.958 2.415-3.91.8-.941 1.642-1.605 2.505-1.904.907-.313 1.824-.21 2.569.36.698.534 1.118 1.382 1.333 2.321.431 1.885.143 4.566-1.03 7.623l-1.868-.717c1.093-2.847 1.26-5.102.949-6.46-.156-.68-.406-1.03-.6-1.18-.148-.112-.346-.179-.7-.056-.396.137-.959.513-1.633 1.308-.666.784-1.393 1.92-2.134 3.476-1.483 3.11-2.979 7.807-4.161 14.478l-1.97-.349Zm12.136-10.556c-1.38 4.339-1.945 7.148-2.167 8.849-.111.85-.137 1.419-.136 1.761 0 .171.006.285.011.348l.006.058a.045.045 0 0 0 0-.004l-.002-.004v-.004c0-.001 0-.002-.986.168s-.986.168-.986.168v-.005l-.002-.008-.003-.017a2.301 2.301 0 0 1-.02-.192 6.465 6.465 0 0 1-.018-.507c0-.44.032-1.097.152-2.021.242-1.847.838-4.775 2.245-9.196l1.906.607Zm23.646 14.082c-1.824 3.358-4.233 6.353-8.721 13.019l-1.66-1.117c4.608-6.843 6.857-9.605 8.624-12.856l1.757.954Zm-36.378 68.32c-7.521-17.495-4.763-33.018-1.73-49.645l1.968.36c-3.04 16.665-5.655 31.62 1.6 48.495l-1.838.79Zm-1.73-49.645c.602-3.3.727-7.213.93-11.183.199-3.915.474-7.89 1.422-11.125l1.919.563c-.871 2.973-1.143 6.719-1.344 10.664-.198 3.89-.327 7.977-.96 11.44l-1.967-.359Zm19.94-21.723c-.312 1.262-.876 2.748-1.718 4.447l-1.792-.888c.798-1.61 1.3-2.956 1.567-4.038l1.942.479Zm-9.518-.506c.55-.653.926-1.4 1.35-2.197.384-.72.868-1.62 1.636-2.156l1.145 1.64c-.306.214-.586.65-1.015 1.456-.388.728-.87 1.694-1.584 2.544l-1.532-1.287Zm2.986-4.353c1.79-1.25 3.787-1.555 5.246-.489 1.443 1.055 1.844 3.081 1.285 5.348l-1.942-.479c.466-1.89-.02-2.887-.523-3.254-.487-.356-1.495-.482-2.92.514l-1.146-1.64Zm3.918 8.862-.805-.593.001-.001.002-.003.005-.006.016-.022a10.297 10.297 0 0 1 .27-.342c.183-.221.446-.528.774-.872.649-.682 1.586-1.548 2.686-2.196l1.014 1.724c-.877.516-1.668 1.237-2.252 1.85a13.936 13.936 0 0 0-.895 1.04l-.01.013v.002c-.001 0 0 0 0 0l-.806-.594Zm2.949-4.035c.527-.31 1.227-.52 1.935-.588.71-.068 1.531-.002 2.269.345a3.08 3.08 0 0 1 1.687 2.015c.266.953.172 2.118-.276 3.498l-1.902-.619c.381-1.172.372-1.908.251-2.341-.11-.393-.328-.609-.614-.744-.319-.15-.753-.208-1.224-.163-.473.045-.88.184-1.112.32l-1.014-1.723Zm2.716 9.73c-.423-.907-.424-.906-.424-.906h-.002l-.002.002a.677.677 0 0 1-.008.003 4.698 4.698 0 0 0 .405-.267c.33-.24.856-.667 1.583-1.384 1.455-1.437 3.703-4.027 6.776-8.587l1.658 1.117c-3.125 4.64-5.456 7.34-7.03 8.893-.787.777-1.388 1.27-1.807 1.577-.21.153-.375.26-.496.332a3.384 3.384 0 0 1-.216.119l-.008.004a.098.098 0 0 1-.005.002l-.424-.906Zm8.328-11.14c.706-1.047 1.662-1.634 2.698-1.764 1.012-.127 1.992.193 2.768.747 1.538 1.098 2.51 3.322 1.323 5.507l-1.757-.954c.608-1.12.163-2.289-.728-2.925-.438-.313-.924-.445-1.356-.39-.408.05-.873.279-1.29.897l-1.658-1.117Z" fill="#0F0E0E"/></svg>