<svg width="137" height="137" fill="none" xmlns="http://www.w3.org/2000/svg"><path fill-rule="evenodd" clip-rule="evenodd" d="M84.992 30.153C80.223 3.249 70.26 7.312 74.794 19.119c2.788 8.76 2.32 11.475 2.32 11.475-1.263-1.504-1.718-3.427-2.792-4.177-3.215-2.246-6.011-.358-4.987 3.8.288 1.172.821 2.588 1.641 4.242 0 0-1.478-2.009-3.455-3.173-1.52-.894-5.815-1.006-4.157 4.099.69 2.126 1.948 4.768 1.948 4.768s-2.959-1.38-9.157-10.58c-2.246-3.332-6.878.15-5.082 3.454 1.796 3.305 4.124 6.183 8.672 12.938 0 0 4.033 6.98 7.946 10.297-1.028 7.735-12.128 23.559-17.234 42.385-8.681 32.108 24.046 28.763 35.197 2.782 7.388-17.185 4.701-32.424 1.665-49.07-1.234-6.764-.509-15.999-2.327-22.206Z" fill="#E9BC9D"/><path d="m84.992 30.153-.985.174.01.054.015.053.96-.281Zm-7.877.44-.766.644a1 1 0 0 0 1.751-.474l-.985-.17Zm-6.139 3.866-.805.593a1 1 0 0 0 1.701-1.037l-.896.444Zm-7.612.925.95-.309-.95.31Zm1.948 4.77-.423.906a1 1 0 0 0 1.326-1.336l-.903.43Zm-5.566 5.81.865-.5-.017-.03-.019-.028-.83.559Zm7.945 10.298.992.132.071-.542-.416-.353-.647.763ZM50.457 98.647l-.965-.261.965.261Zm35.197 2.782-.919-.395.919.395Zm-10.86-82.31.953-.303-.01-.028-.01-.027-.933.358Zm12.525 33.24-.984.18.984-.18ZM69.335 30.216l-.971.24.97-.24Zm4.987-3.799-.573.82.573-.82Zm-6.801 4.87.507-.863-.507.862Zm-11.366-1.713-.83.558.83-.558Zm6.258 6.12c.36 1.107.861 2.333 1.266 3.27a60.8 60.8 0 0 0 .714 1.586l.011.024.004.007v.002l.904-.43.903-.43a1.453 1.453 0 0 1-.012-.026l-.04-.085a58.312 58.312 0 0 1-.648-1.443c-.397-.916-.87-2.075-1.2-3.093l-1.902.617Zm-2.667 10.27-.866.5v.003l.003.004.01.017.036.062.139.234a68.079 68.079 0 0 0 2.361 3.655c1.506 2.173 3.554 4.838 5.616 6.586l1.293-1.526c-1.852-1.57-3.777-4.053-5.265-6.2a66.167 66.167 0 0 1-2.419-3.762 11.064 11.064 0 0 1-.033-.056l-.008-.013a.039.039 0 0 0-.001-.003l-.867.5ZM66.7 56.13c-.237 1.782-1.07 4.108-2.332 6.967-1.255 2.843-2.885 6.107-4.664 9.76-3.544 7.28-7.633 16.017-10.212 25.529l1.93.523c2.526-9.315 6.54-17.904 10.08-25.176 1.764-3.622 3.42-6.94 4.695-9.829 1.269-2.872 2.208-5.424 2.486-7.51L66.7 56.13ZM49.49 98.386c-2.202 8.145-1.839 14.251.352 18.365 2.226 4.178 6.23 6.108 10.784 6.07 8.992-.074 20.26-7.749 25.946-20.998l-1.838-.789c-5.465 12.733-16.136 19.721-24.125 19.788-3.937.032-7.183-1.598-9.001-5.011-1.852-3.477-2.325-8.994-.187-16.903l-1.93-.522Zm36.485-68.408c-1.202-6.78-2.74-11.665-4.324-14.99-.793-1.662-1.607-2.958-2.415-3.91-.8-.941-1.642-1.605-2.506-1.904-.907-.313-1.823-.21-2.568.36-.698.534-1.118 1.382-1.334 2.321-.43 1.885-.142 4.566 1.031 7.623l1.867-.717c-1.093-2.847-1.259-5.102-.948-6.46.156-.68.406-1.03.6-1.18.148-.112.346-.179.699-.056.397.137.96.513 1.634 1.308.665.784 1.393 1.92 2.134 3.476 1.483 3.11 2.978 7.807 4.16 14.478l1.97-.349ZM73.841 19.422c1.38 4.339 1.945 7.148 2.167 8.849.111.85.136 1.419.136 1.761a4.457 4.457 0 0 1-.017.406v.002-.006l.001-.004v-.003l.001-.001c0-.001 0-.002.986.168.985.17.986.168.986.168v-.005a.292.292 0 0 0 .004-.025l.007-.048c.004-.037.01-.085.014-.144a6.2 6.2 0 0 0 .018-.507c0-.44-.032-1.097-.153-2.021-.241-1.847-.837-4.775-2.244-9.196l-1.906.607ZM50.195 33.505c1.824 3.358 4.233 6.353 8.721 13.019l1.659-1.117c-4.608-6.843-6.856-9.605-8.623-12.856l-1.758.954Zm36.378 68.32c7.52-17.495 4.763-33.018 1.73-49.645l-1.968.36c3.04 16.665 5.655 31.62-1.6 48.495l1.838.79Zm1.73-49.645c-.603-3.3-.728-7.213-.93-11.183-.2-3.915-.474-7.89-1.422-11.125l-1.92.563c.872 2.973 1.144 6.719 1.345 10.664.198 3.89.327 7.977.959 11.44l1.967-.359Zm-19.94-21.723c.312 1.262.875 2.748 1.717 4.447l1.792-.888c-.797-1.61-1.3-2.956-1.566-4.038l-1.942.479Zm9.517-.506c-.548-.653-.926-1.4-1.35-2.197-.383-.72-.867-1.62-1.635-2.156l-1.146 1.64c.306.214.587.65 1.016 1.456.387.728.87 1.694 1.584 2.544l1.531-1.287Zm-2.985-4.353c-1.79-1.25-3.787-1.555-5.246-.489-1.444 1.055-1.844 3.081-1.285 5.348l1.942-.479c-.466-1.89.02-2.887.523-3.254.487-.356 1.495-.482 2.92.514l1.146-1.64Zm-3.919 8.862a291.661 291.661 0 0 0 .805-.594l-.002-.003-.005-.006a15.96 15.96 0 0 0-1.06-1.236c-.65-.682-1.586-1.548-2.686-2.196l-1.015 1.724c.877.516 1.668 1.237 2.253 1.85a13.988 13.988 0 0 1 .904 1.053l.002.002c0-.001-.001-.001.804-.594Zm-2.948-4.035c-.528-.31-1.227-.52-1.936-.588-.71-.068-1.53-.002-2.268.345a3.08 3.08 0 0 0-1.687 2.015c-.266.953-.172 2.118.276 3.498l1.902-.619c-.381-1.172-.373-1.908-.252-2.341.11-.393.329-.609.614-.744.32-.15.754-.208 1.225-.163.472.045.88.184 1.111.32l1.015-1.723Zm-2.716 9.73c.423-.907.423-.906.424-.906h.002l.002.002.005.002.005.003c.002 0 .001 0-.003-.002a4.67 4.67 0 0 1-.405-.267c-.329-.24-.855-.667-1.582-1.384-1.455-1.437-3.703-4.027-6.776-8.587l-1.659 1.117c3.126 4.64 5.457 7.34 7.03 8.893.788.777 1.389 1.27 1.808 1.577.21.153.375.26.496.332a3.506 3.506 0 0 0 .197.11l.019.009.007.004.004.001h.001c.001.001.002.002.425-.905Zm-8.328-11.14c-.706-1.047-1.662-1.634-2.699-1.764-1.011-.127-1.992.193-2.768.747-1.537 1.098-2.51 3.322-1.323 5.507l1.758-.954c-.609-1.12-.164-2.289.727-2.925.439-.313.925-.445 1.357-.39.407.05.873.279 1.29.897l1.658-1.117Z" fill="#0F0E0E"/></svg>