<svg width="45" height="18" fill="none" xmlns="http://www.w3.org/2000/svg"><path fill-rule="evenodd" clip-rule="evenodd" d="M9.344 2.28c-.505.596-1.312 1.067-2.12 1-.1-.807.295-1.665.757-2.195C8.486.47 9.369.034 10.084 0c.084.841-.244 1.665-.74 2.28Zm.73 1.16c-.71-.041-1.36.214-1.883.42-.338.132-.623.244-.84.244-.244 0-.542-.118-.876-.25-.438-.175-.938-.373-1.463-.364-1.202.017-2.32.698-2.935 1.783-1.261 2.17-.328 5.383.892 7.149.597.875 1.312 1.833 2.254 1.8.414-.016.712-.142 1.02-.273.356-.15.725-.307 1.3-.307.557 0 .91.152 1.249.298.322.14.63.273 1.09.265.976-.017 1.59-.875 2.187-1.75.644-.938.927-1.854.97-1.993l.005-.016a.242.242 0 0 0-.023-.011c-.215-.1-1.862-.853-1.877-2.874-.016-1.697 1.306-2.556 1.514-2.692l.025-.016c-.841-1.245-2.154-1.38-2.61-1.413Zm6.755 10.673V1h4.92c2.54 0 4.314 1.75 4.314 4.306 0 2.557-1.808 4.323-4.381 4.323h-2.818v4.483l-2.035.001Zm2.035-11.396h2.347c1.766 0 2.775.942 2.775 2.598 0 1.657-1.01 2.608-2.784 2.608h-2.338V2.717Zm13.92 9.823c-.54 1.026-1.725 1.674-3.003 1.674-1.892 0-3.213-1.128-3.213-2.826 0-1.682 1.278-2.65 3.642-2.793l2.54-.151v-.723c0-1.068-.698-1.649-1.943-1.649-1.026 0-1.775.53-1.926 1.338h-1.834c.06-1.7 1.657-2.936 3.819-2.936 2.33 0 3.843 1.22 3.843 3.112v6.527h-1.884V12.54h-.041Zm-2.456.118c-1.085 0-1.775-.522-1.775-1.32 0-.825.664-1.304 1.934-1.38l2.263-.143v.74c0 1.228-1.043 2.103-2.422 2.103Zm10.63 1.968c-.816 2.296-1.75 3.053-3.734 3.053-.151 0-.656-.017-.774-.05v-1.574c.127.017.438.034.597.034.9 0 1.405-.378 1.716-1.362l.185-.58L35.5 4.6h2.128l2.397 7.746h.042L42.464 4.6h2.069l-3.575 10.026Z" fill="#14203B"/></svg>