<svg width="73" height="18" fill="none" xmlns="http://www.w3.org/2000/svg"><g clip-path="url(#a)"><mask id="b" style="mask-type:luminance" maskUnits="userSpaceOnUse" x="0" y="0" width="73" height="18"><path d="M0 0h73v18H0V0Z" fill="#fff"/></mask><g mask="url(#b)" fill-rule="evenodd" clip-rule="evenodd"><path d="M51.273 10.232h5.37V7.213h-5.37V3.02h6.038V0h-9.404v17.955h10.422v-3.02h-7.056v-4.703Zm-11.842 0h5.37V7.213h-5.37V3.02h6.038V0h-9.407v17.955h10.393v-3.02H39.43v-4.703Zm32.14-4.925c0 2.351-1.495 4.226-3.465 4.989l4.227 7.658h-4.004l-4.004-7.277H62.99v7.277h-3.4V0h6.704c2.925 0 5.276 1.907 5.276 5.307Zm-8.58 2.447h2.572c1.177 0 2.13-1.113 2.13-2.447 0-1.526-1.05-2.352-2.32-2.352H62.99v4.799Z" fill="#0E1931"/><path d="M19.677 3.271c.366 1.128.731 2.257 1.065 3.258.413 1.223.834 2.454 1.255 3.686.421 1.231.842 2.462 1.255 3.686.19.557.38 1.13.573 1.712.258.78.52 1.573.794 2.355H21.25l-1.303-3.78-5.878.031L12.797 18h-3.4L15.402.014h3.21c.333 1.001.7 2.13 1.065 3.257Zm-2.685 1.827-1.97 6.134h4.004l-2.034-6.134ZM9.417.65c1.367.667 2.098 1.875 2.384 3.336.35 1.78.286 3.528-.445 5.18-.54 1.112-1.462 1.811-2.606 2.256-1.36.521-3.25.515-4.753.51h-.426v6.036H.234V.014h5.53c1.525 0 2.477.127 3.653.636ZM6.05 8.912c.922-.127 1.526-.668 1.843-1.557.286-.763.223-1.59.096-2.415-.064-.636-.35-1.24-.954-1.62-.89-.54-3.463-.478-3.463-.478V9.04s1.684-.032 2.478-.127ZM30.975.014 27.861 6.56 24.747.014h-3.686c.89 1.97 1.843 4.068 2.7 5.942.7 1.494 2.32 5.244 2.32 5.244l-.03 6.768h3.494V11.2c1.176-2.543 2.415-5.275 3.591-7.818.477-1.048 1.05-2.256 1.525-3.368-1.207 0-2.542-.032-3.686 0ZM50.67 10.232h5.37V7.213h-5.37V3.02h6.038V0h-9.406v17.955h10.423v-3.02H50.67v-4.703Zm-11.842 0h5.37V7.213h-5.37V3.02h6.037V0H35.46v17.955h10.39v-3.02h-7.022v-4.703Zm32.138-4.925c0 2.351-1.494 4.226-3.464 4.99l4.226 7.657h-4.004l-4.004-7.277h-1.334v7.277h-3.4V0h6.705c2.923 0 5.275 1.907 5.275 5.307Zm-8.58 2.447h2.574c1.175 0 2.13-1.113 2.13-2.447 0-1.526-1.05-2.352-2.32-2.352h-2.384v4.8Z" fill="#14203B"/></g></g><defs><clipPath id="a"><path fill="#fff" d="M0 0h73v18H0z"/></clipPath></defs></svg>