<svg width="41" height="18" fill="none" xmlns="http://www.w3.org/2000/svg"><mask id="a" style="mask-type:luminance" maskUnits="userSpaceOnUse" x="0" y="0" width="41" height="18"><path d="M.445 0h39.626v18H.445V0Z" fill="#fff"/></mask><g mask="url(#a)" fill="#14203B"><path d="M19.867 10.18h.616v1.38h.445l.798-1.38h.674l-.959 1.62v.012l1.016 1.768h-.696l-.822-1.483h-.444v1.483h-.616v-3.4h-.012Zm3.97.902c.74 0 1.346.536 1.346 1.278 0 .753-.593 1.277-1.335 1.277-.74 0-1.335-.524-1.335-1.277-.01-.753.582-1.278 1.324-1.278Zm1.825.057h.581v1.917h.765V11.14h.581v1.916h.764V11.14h.582v2.44h-3.25v-2.44h-.023v-.001Zm4.996-.057c.695 0 1.083.514 1.083 1.153-.002.08-.01.16-.022.239h-1.677c.034.422.365.65.73.65.25 0 .502-.114.695-.262l.24.433a1.566 1.566 0 0 1-.98.354c-.81 0-1.313-.582-1.313-1.278 0-.764.514-1.29 1.244-1.29Zm1.368 1.985c.297-.046.514-.296.514-1.164v-.763h1.78v2.44h-.605v-1.95h-.594v.273c0 1.06-.285 1.677-1.095 1.7v-.536Zm4.027-1.985c.695 0 1.083.514 1.083 1.153-.002.08-.01.16-.022.239h-1.677c.034.422.365.65.73.65.25 0 .502-.114.696-.262l.24.433a1.566 1.566 0 0 1-.982.354c-.81 0-1.31-.582-1.31-1.278 0-.764.512-1.29 1.242-1.29Zm1.585.057h.605v.936h.297l.593-.935h.672l-.775 1.163v.01l.867 1.267h-.707l-.64-.992h-.318v.992h-.605v-2.44h.011v-.001Zm-13.8 1.974c.4 0 .73-.308.73-.765 0-.444-.33-.764-.73-.764-.4 0-.72.309-.72.764 0 .457.32.765.72.765Zm7.287-1.061c0-.32-.216-.513-.49-.513-.308 0-.536.205-.593.513h1.083Zm5.396 0c0-.32-.217-.513-.49-.513-.31 0-.537.205-.594.513h1.084Z"/><path d="M19.865 10.18h.616v1.38h.445l.798-1.38h.674l-.959 1.62v.01l1.016 1.769h-.696l-.822-1.483h-.444v1.483h-.616v-3.4h-.012Zm3.97.9c.74 0 1.346.537 1.346 1.279 0 .753-.593 1.277-1.335 1.277-.741 0-1.335-.524-1.335-1.277-.01-.753.582-1.278 1.324-1.278Zm1.825.058h.581v1.917h.765V11.14h.581v1.916h.764V11.14h.582v2.44h-3.25v-2.44h-.023v-.002Zm4.996-.057c.695 0 1.083.514 1.083 1.153-.002.08-.01.16-.022.24H30.04c.034.42.365.65.73.65.25 0 .502-.115.695-.263l.24.433a1.566 1.566 0 0 1-.98.354c-.81 0-1.313-.582-1.313-1.278 0-.764.514-1.29 1.244-1.29Zm1.368 1.985c.297-.046.514-.296.514-1.164v-.763h1.78v2.44h-.605v-1.95h-.594v.273c0 1.06-.285 1.677-1.095 1.7v-.536Zm4.027-1.985c.695 0 1.083.514 1.083 1.153-.002.08-.01.16-.022.24h-1.677c.034.42.365.65.73.65.25 0 .502-.115.696-.263l.24.433a1.565 1.565 0 0 1-.982.354c-.81 0-1.311-.582-1.311-1.278 0-.764.513-1.29 1.243-1.29Zm1.585.057h.605v.936h.297l.593-.935h.672l-.775 1.163v.01l.867 1.267h-.707l-.64-.992h-.318v.992h-.605v-2.44h.011v-.001Zm-13.801 1.974c.4 0 .73-.308.73-.765 0-.444-.33-.764-.73-.764-.4 0-.719.31-.719.764 0 .457.32.765.719.765Zm7.288-1.06c0-.32-.216-.514-.49-.514-.308 0-.536.205-.593.513h1.083Zm5.396 0c0-.32-.217-.514-.49-.514-.31 0-.537.205-.594.513h1.084Zm-8.133-9.274v5.76a.159.159 0 0 1-.098.148.156.156 0 0 1-.062.012h-1.174a.156.156 0 0 1-.16-.16v-5.76a.154.154 0 0 1 .046-.114.156.156 0 0 1 .114-.046h1.175a.156.156 0 0 1 .149.098c.008.02.01.04.01.062Zm9.17-.16a.27.27 0 0 1 .16.07c.034.033.034.09.023.135l-1.94 5.772a.163.163 0 0 1-.147.103h-1.05a.148.148 0 0 1-.148-.103l-1.13-3.365-1.129 3.365a.161.161 0 0 1-.148.102h-1.05c-.068 0-.125-.034-.148-.102L28.91 2.823a.152.152 0 0 1 .023-.136c.023-.046.08-.07.125-.07h1.312a.16.16 0 0 1 .149.115l1.037 3.41 1.141-3.41a.162.162 0 0 1 .148-.103h.924c.069 0 .126.034.148.103l1.141 3.41 1.038-3.41a.157.157 0 0 1 .148-.114h1.312Zm1.985 0c.08 0 .148.07.16.16v5.76a.159.159 0 0 1-.046.114.156.156 0 0 1-.114.046h-1.175a.156.156 0 0 1-.16-.16v-5.76a.154.154 0 0 1 .046-.114.156.156 0 0 1 .114-.046h1.175ZM26.207 8.492c.069.08.012.194-.091.194h-1.438a.184.184 0 0 1-.148-.068l-.239-.297a3.217 3.217 0 0 1-1.723.514 3.184 3.184 0 0 1 0-6.365 3.184 3.184 0 0 1 2.681 4.904l.958 1.118Zm-12.01 2.795c.296.114.41.558.433.752.045.354-.057.49-.171.49-.114 0-.274-.136-.445-.41-.171-.273-.24-.581-.148-.741.056-.103.183-.148.331-.09v-.001Zm-1.735 1.29a.89.89 0 0 1 .57.24c.354.295.457.637.275.888a.6.6 0 0 1-.468.205.813.813 0 0 1-.536-.194c-.32-.273-.41-.73-.206-.98a.442.442 0 0 1 .365-.16Zm-3.99 3.295a7.846 7.846 0 1 1 7.845-7.847c0 1.47-.41 2.85-1.106 4.026-.023.034-.08.023-.092-.023-.273-1.927-1.448-2.99-3.16-3.308-.148-.023-.17-.114.024-.136.524-.046 1.266-.035 1.653.034a5.194 5.194 0 0 0-5.154-5.795 5.194 5.194 0 0 0-5.19 5.19 5.194 5.194 0 0 0 5.191 5.19h.24a7.002 7.002 0 0 1-.104-1.403c.012-.32.08-.365.217-.114.72 1.243 1.746 2.36 3.753 2.806 1.643.365 3.285.787 5.053 3.034.16.194-.08.4-.262.24-1.802-1.597-3.445-2.122-4.94-2.122-1.676.01-2.817.228-3.969.228h.001Zm14.885-8.657-.628-.765c-.068-.08-.011-.205.091-.205h1.323c.069-.182.103-.388.103-.593 0-.946-.707-1.768-1.677-1.768-.969 0-1.676.822-1.676 1.768 0 .947.707 1.757 1.676 1.757.274.01.548-.07.788-.194Z"/></g></svg>