<svg width="59" height="41" fill="none" xmlns="http://www.w3.org/2000/svg"><path d="M3.144 21V9.344c-.012.012-.145.047-.4.105a17.02 17.02 0 0 1-.835.174l-.835.156c-.244.047-.372.07-.383.07v-1.41a9.29 9.29 0 0 0 .678-.19 7.53 7.53 0 0 0 .8-.296c.279-.116.54-.261.783-.435a2.69 2.69 0 0 0 .644-.61h1.41V21H3.143Zm4.636 0v-1.322l3.583-5.584c.267-.418.51-.806.73-1.166.233-.36.418-.736.558-1.13.15-.407.226-.87.226-1.393 0-.649-.105-1.16-.313-1.53-.21-.371-.574-.557-1.096-.557-.441 0-.783.122-1.027.365-.243.244-.411.563-.504.957-.093.394-.14.818-.14 1.27v.47h-1.86v-.487c0-.847.11-1.572.33-2.175.232-.615.597-1.09 1.096-1.426.51-.337 1.183-.505 2.018-.505 1.136 0 1.983.325 2.54.974.556.638.835 1.525.835 2.662 0 .603-.076 1.13-.227 1.583a5.927 5.927 0 0 1-.556 1.27c-.232.394-.487.8-.766 1.218l-3.235 4.94h4.453V21H7.78Zm16.075.157c-.8 0-1.461-.18-1.983-.54-.51-.36-.893-.852-1.148-1.478-.244-.627-.366-1.34-.366-2.14v-6.072c0-.823.122-1.542.366-2.157.243-.626.62-1.113 1.13-1.461.522-.348 1.19-.522 2-.522.813 0 1.474.174 1.984.522.51.348.887.835 1.13 1.461.244.615.366 1.334.366 2.157V17c0 .812-.127 1.53-.383 2.157-.243.626-.62 1.12-1.13 1.479-.51.348-1.166.522-1.966.522Zm0-1.531c.44 0 .771-.128.991-.383.232-.255.389-.58.47-.974.093-.406.14-.824.14-1.253V10.91c0-.452-.041-.876-.122-1.27-.082-.406-.238-.73-.47-.974-.22-.244-.557-.365-1.01-.365-.451 0-.793.121-1.026.365-.231.243-.388.568-.47.974a6.292 6.292 0 0 0-.121 1.27v6.106c0 .43.04.847.122 1.253.093.394.255.719.487.974.244.255.58.383 1.009.383Zm8.987 1.53c-.8 0-1.461-.18-1.983-.539-.51-.36-.893-.852-1.148-1.478-.244-.627-.366-1.34-.366-2.14v-6.072c0-.823.122-1.542.366-2.157.243-.626.62-1.113 1.13-1.461.522-.348 1.19-.522 2.001-.522.812 0 1.473.174 1.983.522.51.348.887.835 1.13 1.461.245.615.366 1.334.366 2.157V17c0 .812-.127 1.53-.383 2.157-.243.626-.62 1.12-1.13 1.479-.51.348-1.166.522-1.966.522Zm0-1.53c.44 0 .771-.128.992-.383.231-.255.388-.58.47-.974a5.61 5.61 0 0 0 .138-1.253V10.91a6.3 6.3 0 0 0-.121-1.27c-.081-.406-.238-.73-.47-.974-.22-.244-.557-.365-1.009-.365-.452 0-.794.121-1.026.365-.232.243-.389.568-.47.974a6.292 6.292 0 0 0-.122 1.27v6.106c0 .43.04.847.122 1.253.093.394.255.719.487.974.244.255.58.383 1.009.383Zm8.987 1.53c-.8 0-1.461-.18-1.983-.539-.51-.36-.893-.852-1.148-1.478-.244-.627-.366-1.34-.366-2.14v-6.072c0-.823.122-1.542.366-2.157.243-.626.62-1.113 1.13-1.461.522-.348 1.19-.522 2.001-.522.812 0 1.473.174 1.983.522.51.348.887.835 1.131 1.461.244.615.365 1.334.365 2.157V17c0 .812-.127 1.53-.382 2.157-.244.626-.62 1.12-1.131 1.479-.51.348-1.166.522-1.966.522Zm0-1.53c.44 0 .771-.128.992-.383.232-.255.388-.58.47-.974.092-.406.139-.824.139-1.253V10.91c0-.452-.041-.876-.122-1.27-.081-.406-.238-.73-.47-.974-.22-.244-.557-.365-1.009-.365-.452 0-.794.121-1.026.365-.232.243-.389.568-.47.974a6.292 6.292 0 0 0-.122 1.27v6.106c0 .43.04.847.122 1.253.093.394.255.719.487.974.244.255.58.383 1.009.383Zm12.754 2.713v-1.2c-1.195-.023-2.082-.412-2.662-1.165-.58-.754-.899-1.728-.957-2.923l1.74-.47c.035.499.11.98.226 1.444.128.464.33.847.609 1.148.278.29.667.435 1.165.435.51 0 .893-.139 1.149-.417.266-.29.4-.702.4-1.235 0-.638-.145-1.149-.435-1.531a7.84 7.84 0 0 0-1.096-1.183l-2.366-2.088a5.28 5.28 0 0 1-.766-.87 3.668 3.668 0 0 1-.452-.991A5.174 5.174 0 0 1 51 10.04c0-1.009.284-1.792.852-2.348.569-.569 1.34-.87 2.314-.905V5.622h.609v1.165c.487.035.91.14 1.27.313.371.163.678.395.922.696.255.302.452.673.591 1.113.151.43.25.934.296 1.514l-1.67.452a7.107 7.107 0 0 0-.209-1.287c-.104-.406-.29-.73-.556-.974-.255-.244-.627-.348-1.114-.313-.487.034-.87.174-1.148.417-.267.244-.4.62-.4 1.13 0 .43.07.784.209 1.062.15.267.388.55.713.852l2.383 2.088c.348.313.673.667.975 1.061.313.383.562.812.748 1.288.197.475.295 1.009.295 1.6 0 .638-.121 1.2-.365 1.688a2.844 2.844 0 0 1-1.026 1.13c-.43.279-.934.447-1.514.505v1.218h-.591Z" fill="#5EFF5A"/><path d="M7.831 39.9v-7.68h.73v.48c.12-.147.27-.277.45-.39.18-.12.4-.18.66-.18.28 0 .504.067.67.2.174.127.307.3.4.52.094.22.157.467.19.74.034.273.05.553.05.84v1.22c0 .493-.04.923-.12 1.29-.08.36-.223.643-.43.85-.2.2-.48.3-.84.3-.233 0-.436-.06-.61-.18a2.595 2.595 0 0 1-.42-.37v2.36h-.73Zm1.65-2.39c.22 0 .384-.07.49-.21.114-.14.187-.347.22-.62.04-.28.06-.617.06-1.01v-1.24c0-.373-.02-.687-.06-.94-.033-.26-.106-.457-.22-.59-.113-.133-.283-.2-.51-.2-.186 0-.36.05-.52.15-.153.1-.28.2-.38.3v3.94c.107.113.237.213.39.3.16.08.337.12.53.12Zm3.97.58c-.36 0-.656-.07-.89-.21-.226-.147-.396-.387-.51-.72-.106-.333-.16-.777-.16-1.33v-1.46c0-.573.057-1.02.17-1.34.114-.327.287-.557.52-.69.234-.14.527-.21.88-.21.407 0 .717.087.93.26.214.173.36.437.44.79.087.347.13.793.13 1.34v.52h-2.34v1.01c0 .373.027.67.08.89.06.213.15.367.27.46.127.093.287.14.48.14.147 0 .28-.027.4-.08a.61.61 0 0 0 .28-.33c.074-.167.11-.4.11-.7v-.4h.71v.32c0 .527-.11.95-.33 1.27-.213.313-.603.47-1.17.47Zm-.83-3.47h1.62v-.48c0-.307-.016-.567-.05-.78-.033-.22-.106-.387-.22-.5-.106-.12-.28-.18-.52-.18a.85.85 0 0 0-.49.13c-.12.087-.206.243-.26.47-.053.22-.08.537-.08.95v.39Zm4.326 3.47a1.09 1.09 0 0 1-.61-.17 1.273 1.273 0 0 1-.41-.47 1.51 1.51 0 0 1-.14-.65c0-.293.04-.543.12-.75.086-.207.22-.39.4-.55.186-.167.426-.327.72-.48.3-.16.663-.337 1.09-.53v-.41c0-.353-.024-.63-.07-.83-.04-.207-.114-.353-.22-.44-.1-.087-.244-.13-.43-.13-.154 0-.29.03-.41.09a.66.66 0 0 0-.29.31c-.074.14-.11.337-.11.59v.2l-.72-.01c.006-.587.13-1.02.37-1.3.246-.287.646-.43 1.2-.43.52 0 .883.157 1.09.47.213.307.32.787.32 1.44v2.81c0 .1.003.23.01.39l.02.44c.006.14.013.247.02.32h-.65a6.3 6.3 0 0 0-.06-.42 4.362 4.362 0 0 1-.05-.38c-.08.233-.224.44-.43.62-.2.18-.454.27-.76.27Zm.23-.62c.146 0 .28-.037.4-.11.12-.073.226-.16.32-.26.093-.107.166-.213.22-.32v-1.8c-.287.147-.534.28-.74.4-.2.12-.364.237-.49.35-.127.113-.22.243-.28.39-.06.14-.09.307-.09.5 0 .307.066.527.2.66.133.127.286.19.46.19Zm2.294.58v-.56a.957.957 0 0 0 .47-.12c.127-.073.227-.203.3-.39.08-.193.144-.467.19-.82.054-.353.1-.807.14-1.36l.18-2.58h2.64V38h-.73v-5.22h-1.27l-.14 2.02c-.046.653-.103 1.19-.17 1.61-.066.42-.163.75-.29.99-.12.24-.28.41-.48.51-.193.093-.436.14-.73.14h-.11Zm5.03-.05v-5.78h.73v2.35h.35c.394 0 .717.043.97.13.254.08.454.197.6.35.147.147.25.327.31.54.06.207.09.44.09.7 0 .247-.03.477-.09.69-.06.207-.166.387-.32.54-.146.147-.353.263-.62.35-.26.087-.593.13-1 .13h-1.02Zm.73-.46h.29c.374 0 .657-.05.85-.15a.86.86 0 0 0 .4-.43c.074-.187.11-.41.11-.67a1.93 1.93 0 0 0-.1-.65.814.814 0 0 0-.38-.44c-.186-.113-.47-.17-.85-.17h-.32v2.51Zm3.157.46v-5.78h.73v2.52h1.8v-2.52h.74V38h-.74v-2.71h-1.8V38h-.73Zm4.385 0v-5.78h.62v4.45l1.93-4.45h.59V38h-.62v-4.44L33.383 38h-.61Zm4.258 0v-5.78h.62v4.45l1.93-4.45h.59V38h-.62v-4.44L37.64 38h-.61Zm1.58-6.4c-.387 0-.68-.103-.88-.31-.2-.213-.307-.51-.32-.89h.47c.006.267.073.46.2.58.133.12.31.18.53.18.226 0 .403-.06.53-.18.133-.12.206-.313.22-.58h.46c-.007.38-.114.677-.32.89-.2.207-.497.31-.89.31Z" fill="#F2A100"/><path fill-rule="evenodd" clip-rule="evenodd" d="M43.132 32.931a.45.45 0 0 1 .636 0L46 35.163l2.232-2.232a.45.45 0 1 1 .636.636l-2.55 2.55a.45.45 0 0 1-.636 0l-2.55-2.55a.45.45 0 0 1 0-.636Z" fill="#fff"/></svg>