<svg width="59" height="18" fill="none" xmlns="http://www.w3.org/2000/svg"><g clip-path="url(#a)"><mask id="b" style="mask-type:luminance" maskUnits="userSpaceOnUse" x="0" y="0" width="59" height="18"><path d="M0 0h59v18H0V0Z" fill="#fff"/></mask><g mask="url(#b)"><mask id="c" style="mask-type:luminance" maskUnits="userSpaceOnUse" x="0" y="0" width="59" height="18"><path d="M.484 0h58v18h-58V0Z" fill="#fff"/></mask><g mask="url(#c)"><path fill-rule="evenodd" clip-rule="evenodd" d="M42.065 4.665c1.313 0 2.376-.907 2.376-2.026 0-1.12-1.064-2.028-2.376-2.028-1.31 0-2.374.908-2.374 2.028s1.063 2.026 2.374 2.026ZM23.867 5.76c-.107.23-.879 2.09-2.745 4.018V1.534l-4.973.838v14.944h4.973v-4.62c1.44 1.845 2.151 4.62 2.151 4.62h5.957c-.59-2.09-3.167-5.945-3.167-5.945 2.313-2.503 3.33-5.17 3.491-5.61h-5.687Zm13.073-.156c-4.454.122-6.715 1.827-6.715 5.217v6.495h4.86V12.02c0-2.03.311-2.9 3.134-2.983V5.663c-.475-.086-1.279-.059-1.279-.059ZM7.811 7.405c-.61-.034-2.02-.112-2.02-1.195 0-1.308 2.03-1.308 2.792-1.308 1.34 0 3.073.338 4.311.654 0 0 .69.208 1.28.42l.053.013V2.41l-.075-.02c-1.46-.436-3.16-.855-6.31-.855-5.433 0-7.358 2.7-7.358 5.014 0 1.334.67 4.473 6.891 4.835.527.028 1.927.097 1.927 1.216 0 .925-1.146 1.47-3.073 1.47-2.112 0-4.16-.46-5.406-.896v3.688c1.863.417 3.964.625 6.425.625 5.312 0 7.69-2.555 7.69-5.088 0-2.872-2.66-4.738-7.127-4.993Zm31.846 9.911h4.82V5.773h-4.82v11.543ZM53.552 2.27v15.046h4.82V1.534l-4.82.736Zm-7.034 0 4.816-.736v15.782h-4.816V2.27Z" fill="#14203B"/></g></g></g><defs><clipPath id="a"><path fill="#fff" d="M0 0h59v18H0z"/></clipPath></defs></svg>