<svg width="109" height="55" fill="none" xmlns="http://www.w3.org/2000/svg"><g clip-path="url(#a)" filter="url(#b)"><path d="M13.152 46.645c-.836.39 12.52 1.418 14.64-3.863 2.119-5.281-4.43-7.422.805-9.081 5.235-1.659 13.485 4.629 21.028 1.822 7.544-2.808 4.21-5.58 7.743-6.558 3.532-.978 15.922 9.57 29.417 5.615 7.663-2.247 4.837-8.018 4.837-8.018s13.086-1.723 13.375-9.79c.288-8.067-12.161-14.73-20.053-13.42-7.892 1.312-6.548 9.784-9.464 10.301-2.916.518-6.608-6.798-17.555-5.515-10.947 1.283-8.857 6.954-13.932 5.21C38.917 11.604 40.16 3.14 30.209.758 20.258-1.624 10.256 1.95 10.047 6.43c-.448 9.67 10.5 12.35 8.827 13.937-2.12 2.014-12.678-1.829-14.728 6.196-2.05 8.025 22.51 13.732 9.006 20.083Z" fill="#fff"/><path d="M49.658 25.953a.947.947 0 0 0-.394-.41 1.538 1.538 0 0 0-.64-.194 1.695 1.695 0 0 0-.687.081 1.197 1.197 0 0 0-.518.332c-1.573 1.75-4.33 1.886-6.17.078-.996-.971-3.643-.39-2.986.907.229.44 1.334 2.063.299 2.311-1.035.248-2.28-.283-3.056-.538-2.607-.872-4.19-2.361-5.881-3.92-.229-.206-.816-.249-.896.084-.696 3.105 4.34 5.629 7.962 6.38 3.234.71 4.826-.453 5.194-2.07 1.252.389 2.626.533 3.981.419a5.375 5.375 0 0 0 1.68-.316c.522-.19.98-.46 1.34-.789.36-.329.617-.71.75-1.117.133-.406.14-.829.022-1.238ZM90.11 8.5a.893.893 0 0 0-.413.022.624.624 0 0 0-.31.196.353.353 0 0 0-.078.29.43.43 0 0 0 .184.264c2.1 1.49 3.135 2.886 2.528 5.048a4.073 4.073 0 0 1-.577 1.17c-2.06-1.043-5.056-.922-6.777 1.332a.603.603 0 0 0-.136.502.741.741 0 0 0 .325.455c2.338 1.347 4.508 1.205 6.19.312a2.56 2.56 0 0 1-.068 1.624c-.198.53-.567 1.02-1.077 1.431a5.576 5.576 0 0 1-1.7 1.041 7.369 7.369 0 0 1-2.135.49c-.75.06-1.51.012-2.233-.14a6.678 6.678 0 0 1-1.983-.745.973.973 0 0 0-.52-.12.917.917 0 0 0-.496.16.48.48 0 0 0-.216.357.453.453 0 0 0 .177.368c4.23 3.183 11.116 1.134 12.649-2.764a2.9 2.9 0 0 0 .198-1.637c-.094-.549-.348-1.078-.745-1.554 2.408-2.807 2.338-7.408-2.787-8.102Zm-2.916 8.506a1.61 1.61 0 0 1 .56-.4c.226-.103.482-.167.749-.188.266-.02.536.001.788.065.253.064.482.168.67.304a3.111 3.111 0 0 1-1.334.413 3.42 3.42 0 0 1-1.433-.18v-.014ZM81.64 29.093c-1.344 1.29-3.075 1.758-4.727.475a.982.982 0 0 0-.523-.166 1.04 1.04 0 0 0-.546.124.577.577 0 0 0-.293.35.442.442 0 0 0 .108.4c.363.485.897.893 1.55 1.184a5.751 5.751 0 0 0 2.172.476c1.89.042 3.314-.986 4.279-2.014.846-.914-1.164-1.659-2.02-.83Z" fill="#948A86"/></g><defs><clipPath id="a"><path fill="#fff" transform="translate(4)" d="M0 0h101v47H0z"/></clipPath><filter id="b" x="0" y="0" width="109" height="55" filterUnits="userSpaceOnUse" color-interpolation-filters="sRGB"><feFlood flood-opacity="0" result="BackgroundImageFix"/><feColorMatrix in="SourceAlpha" values="0 0 0 0 0 0 0 0 0 0 0 0 0 0 0 0 0 0 127 0" result="hardAlpha"/><feOffset dy="4"/><feGaussianBlur stdDeviation="2"/><feComposite in2="hardAlpha" operator="out"/><feColorMatrix values="0 0 0 0 0 0 0 0 0 0 0 0 0 0 0 0 0 0 0.25 0"/><feBlend in2="BackgroundImageFix" result="effect1_dropShadow_3004_1186"/><feBlend in="SourceGraphic" in2="effect1_dropShadow_3004_1186" result="shape"/></filter></defs></svg>