<svg width="1076" height="310" fill="none" xmlns="http://www.w3.org/2000/svg" preserveAspectRatio="none"><path d="M0 51.2c0-17.922 0-26.883 3.488-33.728A32 32 0 0 1 17.472 3.488C24.317 0 33.278 0 51.2 0h362.456c15.133 0 22.699 0 30.086 1.11 6.56.986 13.006 2.621 19.242 4.883 7.022 2.548 13.673 6.156 26.973 13.372l56.89 30.866c13.301 7.216 19.951 10.824 26.974 13.371a99.994 99.994 0 0 0 19.241 4.884c7.388 1.11 14.954 1.11 30.086 1.11H1024.8c17.92 0 26.88 0 33.73 3.487a32.007 32.007 0 0 1 13.98 13.985c3.49 6.845 3.49 15.806 3.49 33.728V258.8c0 17.922 0 26.883-3.49 33.728a32.007 32.007 0 0 1-13.98 13.984C1051.68 310 1042.72 310 1024.8 310H51.2c-17.922 0-26.883 0-33.728-3.488a32 32 0 0 1-13.984-13.984C0 285.683 0 276.722 0 258.8V51.2Z" fill="#2453FF"/><path d="M0 51.2c0-17.922 0-26.883 3.488-33.728A32 32 0 0 1 17.472 3.488C24.317 0 33.278 0 51.2 0h362.456c15.133 0 22.699 0 30.086 1.11 6.56.986 13.006 2.621 19.242 4.883 7.022 2.548 13.673 6.156 26.973 13.372l56.89 30.866c13.301 7.216 19.951 10.824 26.974 13.371a99.994 99.994 0 0 0 19.241 4.884c7.388 1.11 14.954 1.11 30.086 1.11H1024.8c17.92 0 26.88 0 33.73 3.487a32.007 32.007 0 0 1 13.98 13.985c3.49 6.845 3.49 15.806 3.49 33.728V258.8c0 17.922 0 26.883-3.49 33.728a32.007 32.007 0 0 1-13.98 13.984C1051.68 310 1042.72 310 1024.8 310H51.2c-17.922 0-26.883 0-33.728-3.488a32 32 0 0 1-13.984-13.984C0 285.683 0 276.722 0 258.8V51.2Z" fill="url(#a)" fill-opacity=".2"/><defs><linearGradient id="a" x1="237.5" y1="-86" x2="324.722" y2="221.753" gradientUnits="userSpaceOnUse"><stop offset="0" stop-color="#9EDFFF"/><stop offset="1" stop-color="#558EFF" stop-opacity="0"/></linearGradient></defs></svg>