<svg width="288" height="511" fill="none" xmlns="http://www.w3.org/2000/svg" preserveAspectRatio="none"><path d="M0 33.61c0-8.944 0-13.415 1.177-17.034a24 24 0 0 1 15.4-15.399C20.194 0 24.666 0 33.61 0h82.866c6.893 0 10.339 0 13.686.558a41 41 0 0 1 8.67 2.448c3.144 1.275 6.081 3.078 11.956 6.683l10.193 6.256c5.875 3.605 8.812 5.408 11.957 6.683a40.986 40.986 0 0 0 8.669 2.448c3.347.558 6.794.558 13.687.558H249.6c13.441 0 20.162 0 25.296 2.616a23.999 23.999 0 0 1 10.488 10.488C288 43.872 288 50.593 288 64.034V472.6c0 13.441 0 20.162-2.616 25.296a23.998 23.998 0 0 1-10.488 10.488C269.762 511 263.041 511 249.6 511H38.4c-13.441 0-20.162 0-25.296-2.616a23.999 23.999 0 0 1-10.488-10.488C0 492.762 0 486.041 0 472.6V33.61Z" fill="#2453FF"/><path d="M0 33.61c0-8.944 0-13.415 1.177-17.034a24 24 0 0 1 15.4-15.399C20.194 0 24.666 0 33.61 0h82.866c6.893 0 10.339 0 13.686.558a41 41 0 0 1 8.67 2.448c3.144 1.275 6.081 3.078 11.956 6.683l10.193 6.256c5.875 3.605 8.812 5.408 11.957 6.683a40.986 40.986 0 0 0 8.669 2.448c3.347.558 6.794.558 13.687.558H249.6c13.441 0 20.162 0 25.296 2.616a23.999 23.999 0 0 1 10.488 10.488C288 43.872 288 50.593 288 64.034V472.6c0 13.441 0 20.162-2.616 25.296a23.998 23.998 0 0 1-10.488 10.488C269.762 511 263.041 511 249.6 511H38.4c-13.441 0-20.162 0-25.296-2.616a23.999 23.999 0 0 1-10.488-10.488C0 492.762 0 486.041 0 472.6V33.61Z" fill="url(#a)" fill-opacity=".2"/><defs><linearGradient id="a" x1="505.291" y1="-50.65" x2="573.851" y2="191.397" gradientUnits="userSpaceOnUse"><stop offset="0" stop-color="#9EDFFF"/><stop offset="1" stop-color="#558EFF" stop-opacity="0"/></linearGradient></defs></svg>