<svg width="650" height="60" fill="none" xmlns="http://www.w3.org/2000/svg"><circle cx="30" cy="30" r="29" stroke="#73B634" stroke-width="2"/><path fill-rule="evenodd" clip-rule="evenodd" d="M44.75 17.136a1.65 1.65 0 0 1 .313 2.315l-17.6 23.1a1.65 1.65 0 0 1-2.48.165l-9.9-9.9a1.65 1.65 0 0 1 2.333-2.332l8.566 8.564 16.456-21.597a1.65 1.65 0 0 1 2.313-.315Z" fill="#73B634"/><circle cx="325" cy="30" r="29" stroke="#73B634" stroke-width="2"/><path fill-rule="evenodd" clip-rule="evenodd" d="M339.75 17.136a1.642 1.642 0 0 1 .637 1.093 1.642 1.642 0 0 1-.324 1.222l-17.6 23.1a1.655 1.655 0 0 1-1.202.645 1.653 1.653 0 0 1-1.278-.48l-9.9-9.9a1.65 1.65 0 0 1 2.332-2.332l8.567 8.564 16.456-21.597a1.65 1.65 0 0 1 2.312-.315Z" fill="#73B634"/><circle cx="620" cy="30" r="29" fill="#73B634" stroke="#73B634" stroke-width="2"/><path d="M620.557 43.358c-1.688 0-3.192-.29-4.513-.87-1.312-.579-2.356-1.384-3.132-2.416-.767-1.04-1.185-2.245-1.253-3.617h3.222c.068.843.358 1.572.869 2.186.511.605 1.18 1.074 2.007 1.406.827.332 1.743.498 2.749.498 1.125 0 2.122-.196 2.991-.588.869-.392 1.551-.937 2.046-1.636.494-.699.741-1.508.741-2.429 0-.963-.239-1.811-.716-2.544-.477-.742-1.176-1.321-2.096-1.739-.921-.417-2.046-.626-3.375-.626H618V28.17h2.097c1.039 0 1.951-.187 2.735-.562.793-.375 1.411-.904 1.854-1.585.452-.682.678-1.483.678-2.404 0-.886-.196-1.657-.588-2.314a4.021 4.021 0 0 0-1.662-1.534c-.708-.366-1.543-.55-2.506-.55-.903 0-1.756.167-2.557.5a4.758 4.758 0 0 0-1.943 1.418c-.503.614-.776 1.355-.818 2.225h-3.068c.051-1.373.464-2.574 1.24-3.605.775-1.04 1.789-1.85 3.042-2.43 1.262-.579 2.647-.869 4.155-.869 1.619 0 3.009.328 4.168.985 1.159.647 2.049 1.504 2.672 2.57a6.729 6.729 0 0 1 .933 3.45c0 1.475-.388 2.732-1.164 3.772-.767 1.04-1.811 1.76-3.132 2.16v.205c1.654.273 2.945.976 3.874 2.11.929 1.125 1.393 2.518 1.393 4.18 0 1.423-.387 2.702-1.163 3.835-.767 1.125-1.815 2.012-3.145 2.66-1.329.647-2.842.971-4.538.971Z" fill="#fff"/><path stroke="#73B634" stroke-width="2" d="M60 29h235m60 0h235"/></svg>