<svg width="847" height="104" fill="none" xmlns="http://www.w3.org/2000/svg"><circle cx="52.664" cy="52" r="50.267" stroke="#73B634" stroke-width="3.467"/><path fill-rule="evenodd" clip-rule="evenodd" d="M78.237 29.703a2.861 2.861 0 0 1 .542 4.011l-30.507 40.04a2.86 2.86 0 0 1-4.297.286l-17.16-17.16a2.86 2.86 0 0 1 4.042-4.042l14.849 14.846 28.523-37.436a2.86 2.86 0 0 1 1.89-1.1 2.869 2.869 0 0 1 2.118.555Z" fill="#73B634"/><circle cx="424" cy="52" r="50.267" stroke="#73B634" stroke-width="3.467"/><path fill-rule="evenodd" clip-rule="evenodd" d="M449.565 29.703a2.848 2.848 0 0 1 1.103 1.893 2.852 2.852 0 0 1-.561 2.118L419.6 73.754a2.85 2.85 0 0 1-2.084 1.12 2.86 2.86 0 0 1-2.213-.834l-17.16-17.16a2.857 2.857 0 0 1 .07-3.972 2.86 2.86 0 0 1 3.972-.07l14.849 14.846 28.524-37.436a2.858 2.858 0 0 1 1.889-1.1 2.868 2.868 0 0 1 2.118.555Z" fill="#73B634"/><circle cx="795" cy="52" r="50.267" fill="#73B634" stroke="#73B634" stroke-width="3.467"/><path d="M795.962 75.488c-2.925 0-5.533-.503-7.823-1.507-2.275-1.005-4.084-2.4-5.429-4.188-1.329-1.803-2.053-3.893-2.171-6.271h5.584c.118 1.462.62 2.725 1.507 3.789.886 1.049 2.046 1.861 3.479 2.437 1.433.577 3.021.865 4.764.865 1.95 0 3.678-.34 5.185-1.02 1.507-.68 2.689-1.625 3.546-2.836.856-1.211 1.285-2.615 1.285-4.21 0-1.67-.414-3.14-1.241-4.41-.827-1.285-2.039-2.29-3.634-3.014-1.596-.723-3.546-1.085-5.85-1.085h-3.634v-4.875h3.634c1.802 0 3.383-.325 4.742-.975 1.374-.65 2.445-1.566 3.213-2.748.783-1.182 1.174-2.57 1.174-4.166 0-1.536-.339-2.873-1.019-4.01-.68-1.138-1.64-2.025-2.881-2.66-1.226-.635-2.674-.953-4.343-.953a11.45 11.45 0 0 0-4.432.864c-1.374.562-2.496 1.382-3.368 2.46-.871 1.064-1.344 2.349-1.418 3.856h-5.318c.088-2.379.805-4.462 2.149-6.249 1.345-1.802 3.102-3.206 5.274-4.21 2.186-1.005 4.587-1.507 7.202-1.507 2.807 0 5.215.569 7.224 1.706 2.009 1.123 3.552 2.607 4.631 4.454a11.666 11.666 0 0 1 1.618 5.983c0 2.556-.673 4.735-2.017 6.537-1.33 1.802-3.139 3.05-5.429 3.745v.355c2.866.472 5.104 1.69 6.714 3.656 1.61 1.95 2.416 4.365 2.416 7.246 0 2.467-.673 4.683-2.017 6.648-1.329 1.95-3.146 3.486-5.451 4.609-2.305 1.122-4.927 1.684-7.866 1.684Z" fill="#fff"/><path stroke="#73B634" stroke-width="2.808" d="M104.664 50.596H372"/><path stroke="#73B634" stroke-width="2.817" d="M473.992 50.591H743"/></svg>