<svg width="292" height="274" fill="none" xmlns="http://www.w3.org/2000/svg"><path fill-rule="evenodd" clip-rule="evenodd" d="M18.503 190.613c-1.388-2.074-1.789-4.41-1.794-6.861-.038-20.262-.07-40.525-.133-60.787-.005-1.983-.173-3.968-.346-5.947-.234-2.645.937-4.375 3.221-5.437.94-.437 1.883-.864 2.968-1.361-4.928-3.037-6.189-8.228-7.841-13.061-2.607-7.626-2.99-15.588-2.455-23.567.908-13.478 3.623-26.562 9.14-38.91 3.252-7.274 7.383-13.997 13.287-19.393 3.218-2.943 7.04-5.052 10.648-7.432 1.805-1.192 4.115-.928 6.198-1.232 6.302-.92 12.628-1.679 18.9-2.843 1.477-.274 3.055.026 4.589.028 12.286.008 24.519-.746 36.732-2.186 8.554-1.01 17.199-.872 25.797-1.336 14.293-.772 28.556.223 42.834.487 8.577.158 15.798 3.887 22.12 9.634 7.709 7.011 13.598 15.273 17.119 25.262 1.006 2.843.495 5.086-1.309 7.33-9.234 11.497-19.703 21.755-30.391 31.793-1.171 1.1-2.33 2.21-3.705 3.517 4.669 1.496 8.963 2.85 13.24 4.252 2.128.697 4.26 1.405 6.246 2.476 2.659 1.435 3.576 3.333 3.153 6.38-.485 3.52-.946 7.042-1.468 10.553-.141.95.063 1.419 1.058 1.64 1.32.293 2.611.738 3.879 1.215 2.898 1.087 5.085 2.955 6.209 5.992.79 2.136 2.333 3.432 4.513 3.903 3.08.668 5.303 2.355 6.708 5.306 1.341 2.812 3.51 4.788 6.503 5.746 1.402.45 2.743 1.113 4.159 1.503 1.754.486 3.198 1.107 3.117 3.353-.032.967.641.852 1.235.595 2.394-1.036 4.602-.59 6.707.829.726.49 1.391.586 2.27.083 3.626-2.073 7.251-1.821 10.696.467.86.57 1.27.57 2.01-.194 2.155-2.22 4.92-2.815 7.842-2.391 3.719.537 5.387 5.39 2.982 8.439-.22.28-.5.511-.739.779-1.921 2.164-2.001 2.952-.487 5.759.847-1.147 1.624-2.246 2.446-3.304 1.932-2.478 4.058-3.267 6.66-2.457 2.751.857 4.651 2.535 5.052 5.617.387 3-.77 5.699-3.218 7.052-1.391.769-2.31 1.85-2.757 3.353-2.672 8.993-4.618 18.163-6.279 27.397-.421 2.339-.291 2.378 2.094 2.549 2.235.161 4.476.258 6.708.442 2.85.235 4.975 1.722 6.523 4.117 1.191 1.838 1.148 3.061-.265 4.739-1.833 2.175-3.963 3.905-6.783 4.634-1.751.454-3.461 1.086-5.19 1.639-2.749 1.522-5.676 2.196-8.813 2.078-3.043-.116-5.179-1.5-6.215-4.44-.421-1.19-.99-1.737-2.325-1.601-5.898.6-11.77.209-17.62-.701-4.84-.751-9.621-1.825-14.371-3.042-2.045-.526-2.065-.508-2.705 1.594-.211.698-.464 1.363-.989 1.884-.99 3.687-1.693 3.08 2.27 3.11 3.686.029 7.279.167 10.725 1.62 2.034.858 3.62 2.223 4.621 4.249 1.061 2.138.729 3.736-1.144 5.203-2.342 1.836-4.921 3.254-7.675 4.336-1.566 1.315-3.486 1.413-5.36 1.483-2.714.099-5.431-.007-8.148.035-3.059.047-5.258-1.226-6.336-4.206-.45-1.25-1.116-1.671-2.425-1.295-15.126 4.354-30.508 7.613-45.868 10.968-16.396 3.581-32.669 7.743-49.14 10.992-5.739 1.131-11.463 2.213-17.378 2.036-6.209-.184-12.037-1.57-17.46-4.657-15.679-8.924-31.137-18.238-46.618-27.516-3.665-2.199-7.285-4.48-10.993-6.604-2.024-1.158-3.78-2.674-5.544-4.187-.463-.407-.837-.851-.892-1.5Z" fill="#010001"/><path fill-rule="evenodd" clip-rule="evenodd" d="M18.5 190.613c6.185 5.894 13.86 9.452 21.003 13.815 14.129 8.619 28.39 17.012 42.73 25.264 7.85 4.519 16.29 5.818 25.078 4.537 16.998-2.479 33.598-6.961 50.343-10.705 12.101-2.706 24.216-5.351 36.292-8.16 6.289-1.464 12.524-3.197 18.763-4.879 1.383-.373 2.099-.225 2.462 1.37.611 2.681 2.53 4.019 5.122 4.21 4.827.355 9.653.391 14.37-1.002-.865 2.335-2.509 4.199-4.821 4.501-5.509.718-11.052 1.47-16.644.83-.233-.027-.519.013-.686-.112-1.743-1.307-3.315-.554-5.015.232-4.42 2.051-9.294 2.49-13.909 3.863a147.82 147.82 0 0 1-12.983 3.246c-.582.117-1.162.207-1.597.671-.753.466-1.338-.12-1.965-.35-1.952-.723-3.89-.796-5.833-.006-3.274 1.328-6.523 2.701-9.354 4.907-.456.356-.934.753-1.591.605-8.057 2.049-15.822 5.025-23.623 7.878a102.268 102.268 0 0 1-21.148 5.278c-5.327.744-10.385.02-15.522-.869-.632.192-.966-.326-1.372-.627-4.522-3.375-9.586-4.69-15.135-4.141-.577.058-1.182.229-1.616-.366-4.703-2.411-8.972-5.617-13.757-7.877-.046-.038-.12-.066-.135-.114-1.91-6.009-6.96-6.714-12.003-7.304-1.803-.209-3.648-.012-5.47-.05-.69-.013-1.438.101-1.955-.569 1.22-.678 2.614-.053 4.06-.523-2.169-1.162-4.376-1.803-6.308-3.065-4.551-2.973-9.471-5.328-13.884-8.549-.308-.224-.684-1.016-1.306-.351-.68-.126-.905-.726-1.145-1.246-1.028-2.231-2.771-3.43-5.096-3.915-.676-.141-1.567-.079-1.837-1.043-1.088-1.322-2.198-2.624-3.26-3.972-2.185-2.782-3.51-8.044-1.253-11.412Z" fill="#C8C8C8"/><path fill-rule="evenodd" clip-rule="evenodd" d="M160.284 233.446c2.892-2.497 6.299-4.004 9.722-5.557 3.161-1.433 6.082-1.324 9.021.4 3.045 1.945 4.505 5.162 6.223 8.15 4.041 7.03 7.579 14.319 10.495 21.909 1.396 3.631.585 5.022-3.178 5.848-1.321.289-2.653.52-3.977.779-.811.518-1.693.76-2.644.921-4.58.773-9.154.378-13.739.074-5.877-.389-11.735-1.123-17.63-1.225-1.073-.017-2.172-.017-3.065.662-4.5 3.427-9.575 2.881-14.63 2.18-2.581-.356-5.061-1.187-7.117-2.974-1.457-1.265-2.359-2.844-2.608-4.777-.179-1.376.038-2.649 1.166-3.599 3.056-3.71 7.394-4.367 11.695-5.033 1.207-.186 2.471-.098 3.7-.028 1.528.089 2.734-.475 3.296-1.888 1.831-4.594 4.954-8.079 8.663-11.152a32.186 32.186 0 0 0 4.607-4.69Z" fill="#020101"/><path fill-rule="evenodd" clip-rule="evenodd" d="M128.326 256.237c-1.537 4.376.043 7.936 4.554 9.712 4.363 1.719 8.925 1.969 13.531 1.263a8.43 8.43 0 0 0 4.3-1.975c1.171-1.022 2.488-1.271 3.945-1.161 8.213.62 16.427 1.313 24.648 1.814 3.109.19 6.193-.573 9.289-.915-2.094 4.304-5.693 6.105-10.189 6.054a128.077 128.077 0 0 1-14.244-.94c-1.927-.237-3.873-.279-5.806-.444-1.427-.122-2.65.303-3.792 1.165-4.154 3.134-8.956 3.496-13.821 3.015-2.38-.234-4.782-.174-7.172-.805-3.389-.896-6.223-2.645-8.513-5.157-3.32-3.638-1.425-9.985 3.27-11.626Zm97.541-59.696c.384-1.49.338-3.496 1.287-4.322.899-.79 2.69.385 4.075.727 9.217 2.273 18.492 4.025 28.038 3.522.236-.011.473-.001.706-.024 1.113-.115 2.304-.546 3.315-.276 1.211.322.841 1.921 1.355 2.891 1.055 1.99 2.616 3.042 4.767 3.226 1.94.166 3.861.084 5.75-.548 1.22-.409 2.495-.649 3.744-.964-1.506 1.549-3.42 2.463-5.308 3.357-3.46 1.639-6.898 3.565-10.929 2.869-2.417-.417-4.86-.833-6.654-2.887-.799-.912-1.03-2.011-1.388-3.076-.291-.856-.611-1.184-1.641-1.095-5.355.464-10.673.264-15.942-1.043-2.501-.619-5.082-.927-7.642-1.252-1.264-.162-2.342-.79-3.533-1.105Z" fill="#C8C8C8"/><path fill-rule="evenodd" clip-rule="evenodd" d="M48.534 224.688c3.816.142 7.656-.33 11.435.669a20.22 20.22 0 0 1 4.718 1.915c2.122 1.183 3.446 2.87 3.411 5.452-.038 2.592-1.496 4.079-3.732 4.907-.995.368-2.028.626-3.043.934-1.85 1.27-4.024 1.302-6.1 1.483-3.78.332-7.52-.174-11.184-1.183-2.197-.603-3.914-1.937-5.234-3.783-1.437-2.015-1.445-4.714-.104-6.308 2.45-3.438 6.07-3.944 9.833-4.086Zm-25.521-18.692c.15.085.291.226.448.244 3.714.429 6.292 2.366 7.63 5.961.3 3.089-.588 4.539-3.432 5.632-.715.273-1.424.553-2.137.831-.332.243-.62.563-1.027.684-6.457 1.924-12.84 2.361-18.958-1.18-2.005-1.158-3.41-2.763-3.052-5.365.009-3.36 1.655-5.419 4.75-6.448 4.632-1.536 9.286-2.179 14.051-.702.559.172 1.15.231 1.727.343Zm182.254 35.313c-1.378-3.644-.566-5.647 2.974-7.137 4.879-2.052 9.978-2.715 15.219-2.468 2.062.095 4.124.121 6.183.23 2.111.11 3.838 1.088 5.255 2.643 2.136 2.342 1.904 5.035-.614 6.979-.787.603-1.682 1.057-2.529 1.579-.329.534-.813.869-1.393 1.04-7.259 2.144-14.527 3.044-21.814.147-1.453-.579-2.8-1.313-3.281-3.013Z" fill="#020202"/><path fill-rule="evenodd" clip-rule="evenodd" d="M205.271 241.308c2.48 2.866 5.886 3.613 9.335 4.03 5.875.708 11.603-.105 17.156-2.206.052 2.899-2.399 5.897-5.514 6.546-4.782.997-9.58 1.876-14.511 1.498-1.693-.128-3.268-.623-4.715-1.375-2.067-1.075-3.034-4.128-2.336-6.61.176-.632.391-1.255.585-1.883Z" fill="#C8C8C8"/><path fill-rule="evenodd" clip-rule="evenodd" d="M81.849 240.601c4.002-.507 7.954-.372 11.751 1.154 2.342.941 4.594 2.082 6.371 3.98.863 2.547.49 3.777-1.592 5.656-1.121 1.012-2.413 1.698-3.749 2.336-.78.7-1.745.921-2.721 1.189-4.81 1.316-9.555.916-14.294-.403-2.916-.813-4.626-2.682-5.214-5.708-.22-1.136-.118-2.143.557-3.075 1.05-3.044 3.51-4.08 6.311-4.639.858-.169 1.72-.327 2.58-.49Z" fill="#020102"/><path fill-rule="evenodd" clip-rule="evenodd" d="M72.961 245.732c-.513 5.422 1.243 7.458 6.449 8.744 5.222 1.29 10.2.527 15.222-.747-.871 2.649-2.79 3.922-5.355 4.677-5.367 1.578-10.67 1.592-15.908-.346-2.551-.946-4.222-3.11-4.519-5.745-.339-3.048 1.651-5.09 4.111-6.583Zm-34.263-16.957c-1.442 4.616.949 8.504 5.883 9.728 5.586 1.385 11.158 1.329 16.74.063-1.075 3.492-4.04 4.118-6.959 4.564-4.58.7-9.145.266-13.529-1.229-2.84-.967-4.958-2.938-5.94-5.974-.904-2.782 1.083-6.539 3.805-7.152Z" fill="#C8C8C8"/><path fill-rule="evenodd" clip-rule="evenodd" d="M248.876 221.515c2.391-1.588 4.992-2.725 7.787-3.199 5.523-.937 9.728 1.566 13.142 5.719 1.174 1.428.857 3.329-.574 4.878-1.682 1.824-3.81 2.763-6.201 3.139-1.171.34-2.405-.157-3.562.291l.003-.001c-.22.089.077.033-.148.095-2.295.636-9.5-.437-11.265-2.828-1.974-2.669-1.771-6.354.818-8.094Z" fill="#020102"/><path fill-rule="evenodd" clip-rule="evenodd" d="M248.864 221.515c-3.348 4.656-1.341 9.396 4.303 10.119 2.091.268 4.194.474 6.292.708-1.511 2.796-4.118 2.645-6.654 2.477-1.808-.12-3.617-.409-5.401-.75-3.994-.76-6.004-5.259-4.324-8.973 1.205-2.669 2.94-3.93 5.784-3.581ZM2.49 212.803c1.1 5.631 5.693 6.311 10.008 7.207 4.439.924 8.744-.299 13.03-1.346-.94 2.223-3.08 2.737-4.981 3.309-4.3 1.289-8.706 1.047-13.107.45-1.669-.226-3.18-.726-4.596-1.657-2.739-1.798-2.942-5.84-.354-7.963Z" fill="#C8C8C8"/><path fill-rule="evenodd" clip-rule="evenodd" d="M259.453 232.343c1.154-.511 2.377-.145 3.562-.291-1.14.694-2.368.274-3.562.291Z" fill="#C8C8C8"/><path fill-rule="evenodd" clip-rule="evenodd" d="M97.065 217.499c-.141-8.209-.234-17.431.106-26.648.468-12.573.811-25.164 3.387-37.543.184-.881.381-1.792.354-2.679-.066-1.786.638-2.57 2.394-2.302.176.025.355-.01.531-.024 4.816-.417 5.033-.392 4.505 4.564-.874 8.207-1.688 16.412-1.889 24.667-.104 4.218-.228 8.44-.167 12.656.077 5.362-.347 10.715-.064 16.083.159 3.086.624 6.101 1.185 9.117.135.729.451 1.398 1.056 1.828 3.232 2.31 6.662 3.734 10.766 2.968 16.303-3.037 32.265-7.551 48.358-11.492 9.572-2.345 19.297-3.944 28.843-6.387 3.538-.907 7.054-1.925 10.564-2.943 3.664-1.061 5.964-3.448 6.786-7.313 2.789-13.105 5.534-26.221 8.758-39.226 1.661-6.707 3.582-13.336 5.528-19.961.393-1.338 1.11-1.822 2.425-1.809 1.71.015 3.431-.039 5.13-.214 1.135-.117 1.528.125 1.531 1.383.011 3.065-.923 5.937-1.552 8.864-4.113 19.214-9.14 38.2-13.78 57.285-1.024 4.229-3.568 6.635-7.6 7.927-12.163 3.896-24.654 6.397-37.047 9.31-20.151 4.736-40.318 9.401-60.574 13.65-5.723 1.2-11.545 1.735-17.4 1.822-1.335.02-1.678-.439-1.759-1.735-.222-3.613-.41-7.221-.375-11.848Z" fill="#9F9281"/><path fill-rule="evenodd" clip-rule="evenodd" d="M19.133 139.111c-.143-7.038.093-13.55-.233-20.059-.133-2.698 1.188-4.022 3.798-4.033 2.018-.009 3.991.301 5.97.623 1.619.262 2.315 1.101 2.186 2.838-.5 6.838-1.03 13.679-1.35 20.529-.377 8.067-.632 16.142-.467 24.223.107 5.121-.096 10.242.346 15.359.465 5.364 2.59 9.419 7.565 11.903 11.336 5.66 22.809 11.054 33.69 17.624 1.574.951 3.108 1.983 4.726 2.843 3.159 1.679 5.621.63 6.89-2.759 1.208-3.225 1.153-6.632 1.314-9.974.495-10.164.732-20.341 1.212-30.506.374-7.872.822-15.742 1.624-23.585.153-1.536.539-1.958 2.073-1.248 3.216 1.491 6.52 2.796 9.8 4.142.824.338 1.138.759 1.008 1.745a1430.618 1430.618 0 0 0-2.319 18.774c-.34 2.867-.704 5.739-.842 8.617-.337 7.038-.498 14.084-.833 21.122-.21 4.45-.132 8.889-.014 13.338.156 5.961-.162 11.92-.556 17.872-.107 1.579-.824 1.987-2.218 1.521-4.727-1.583-9.186-3.803-13.51-6.253-18.216-10.32-36.165-21.107-53.956-32.172-3.472-2.16-4.835-4.702-4.903-8.746-.259-14.757-1.274-29.497-1-43.738Z" fill="#5E564B"/><path fill-rule="evenodd" clip-rule="evenodd" d="M117.789 216.571c-1.848.037-3.653-.145-5.373-.901-1.093-.483-2.036-1.241-2.083-2.48-.179-4.556-1.202-9.077-.528-13.681.148-1.031.479-1.379 1.468-1.579 11.196-2.261 22.336-4.821 33.604-6.686 7.201-1.194 14.455-2.054 21.696-3.004 7.941-1.042 15.868-2.155 23.771-3.456 6.276-1.032 12.551-2.072 18.838-3.036 3.079-.471 3.138-.322 2.82 2.762-.316 3.082-1.269 5.987-2.27 8.878-.608 1.755-2.091 2.331-3.68 2.75-7.801 2.062-15.591 4.143-23.516 5.698-15.495 3.039-30.703 7.339-46.033 11.114-5.09 1.254-10.232 2.298-15.36 3.371-1.091.228-2.235.174-3.354.25Zm-7.87-31.395c0-1.628-.005-3.256.003-4.883.014-2.596.456-3.177 2.944-3.612a1701.84 1701.84 0 0 1 14.979-2.552c6.33-1.053 12.66-2.115 19.002-3.089 1.682-.259 3.411-.304 5.119-.279 1.791.024 2.581 1.552 3.408 2.833 2.166 3.358 4.92 6.011 8.56 7.589 9.422 4.088 20.467-.521 24.142-10.296 1.379-3.675 3.671-5.134 7.36-5.578 6.19-.747 12.331-1.925 18.489-2.94 2.498-.412 2.661-.245 2.143 2.274-.784 3.82-1.589 7.638-2.309 11.472-.366 1.944-1.674 2.667-3.34 2.96-3.016.531-6.042.993-9.062 1.481-6.979 1.124-13.947 2.292-20.932 3.36-7.218 1.103-14.442 2.199-21.682 3.131-8.181 1.051-16.28 2.518-24.372 4.128-7.565 1.503-15.234 2.444-22.845 3.688-1.269.206-1.187-.652-1.303-1.383-.433-2.756-.274-5.535-.304-8.304Z" fill="#7E5D44"/><path fill-rule="evenodd" clip-rule="evenodd" d="M236.27 155.648c2.947 1.766 2.631 5.874 5.376 7.923 3.026-6.789 6.004-13.525 9.027-20.24 1.133-2.513 2.425-4.925 1.751-7.897-.288-1.274.643-2.07 1.852-2.141 2.018-.118 4.018.138 5.831 1.14 1.696.936 2.556 2.909 1.327 4.215-3.074 3.275-2.578 7.339-2.922 11.202-.498 5.576-.755 11.172-1.11 16.76-.03.48-.141.999-.011 1.436.181.612.42 1.455.876 1.671.583.276.886-.627 1.246-1.055 5.182-6.174 10.324-12.384 15.522-18.546 1.168-1.386 1.712-2.981 2.053-4.716.5-2.55 1.842-3.94 3.692-3.885 2.315.068 4.654 2.184 4.893 4.467.167 1.625-.624 2.776-2.108 3.093-2.028.429-2.738 1.77-3.167 3.616-1.721 7.427-3.559 14.829-5.249 22.265-.482 2.126-1.633 3.047-3.672 3.502-10.172 2.277-20.176.893-30.163-1.251-2.653-.569-5.308-1.139-7.977-1.629-1.496-.274-2.088-.759-1.615-2.525 1.451-5.389 2.691-10.837 4.008-16.264.096-.402.108-.835.54-1.141Z" fill="#FEDD43"/><path fill-rule="evenodd" clip-rule="evenodd" d="M179.409 10.47c1.91-.404 3.733 1.025 5.471 2.645 2.806 2.616 5.055 5.717 7.232 8.868.96 1.387.629 2.22-1.015 2.426-3.914.49-7.844.866-11.767 1.284-1.816.194-3.639.32-5.442.59-1.545.234-2.611-.308-3.414-1.644-2.581-4.297-5.25-5.278-9.832-3.417-1.575.64-2.428.4-3.551-.965-3.645-4.424-8.507-5.914-13.978-5.006-3.488.58-5.701 3.264-7.688 5.994-.92 1.266-1.635 1.789-3.4 1.339-3.807-.969-7.372-.295-9.964 3.175-.572.765-1.399 1.055-2.348 1.03-8.331-.22-16.611.567-24.88 1.48-2.338.258-4.677.57-7 .956-1.576.263-2.576.088-3.179-1.776-1.026-3.194-2.37-6.286-3.666-9.381-.51-1.216-.285-1.533.998-1.873 2.839-.75 5.734-.725 8.6-.926a3767.563 3767.563 0 0 1 38.832-2.5c6.125-.366 12.257-.56 18.386-.841 10.31-.47 20.618-.95 31.605-1.457Z" fill="#7E5D44"/><path fill-rule="evenodd" clip-rule="evenodd" d="M22.508 106.778c-3.807-5.544-6.122-11.492-6.87-17.88-2.341-19.997 1.633-38.89 10.316-56.824 3.247-6.703 8.081-12.156 13.83-16.721 6.134-4.873 14.586-5.182 20.464-.868 2.742 2.016 4.76 4.689 6.005 7.897 1.973 5.088 4.052 10.139 5.456 15.44.545 2.057.384 3.892-.965 5.608-1.215 1.549-2.313 3.197-3.49 4.783-.374.506-.634 1.313-1.395 1.207-.93-.13-.828-1.112-.94-1.749-.984-5.514-2.331-10.924-4.367-16.143-1.336-3.427-3.02-6.603-6.426-8.307-4.237-2.115-8.373-1.467-12.343.83-3.431 1.984-5.91 4.94-7.894 8.356-4.032 6.925-7.227 14.203-8.84 22.13-.841 4.132-.912 8.358-1.332 12.542-.932 9.271 1.162 18.052 4.132 26.665.97 2.813 1.012 5.148-1.12 7.447-1.525 1.651-2.736 3.601-4.221 5.587Z" fill="#5E564B"/><path fill-rule="evenodd" clip-rule="evenodd" d="M187.869 149.188c.187 6.453.109 12.82-2.149 19.044-3.406 9.375-13.629 12.716-20.8 9.805-4.142-1.683-6.385-5.206-8.21-9.04-2.553-5.369-3.384-11.223-4.308-17.044-.479-2.987-.583-5.983-.517-9.001.023-.985.291-1.398 1.377-1.546 10.802-1.47 21.6-3.009 32.389-4.579 1.311-.19 1.79.224 1.912 1.533.339 3.607.23 7.219.306 10.828Z" fill="#E0C472"/><path fill-rule="evenodd" clip-rule="evenodd" d="M127.83 65.19c-3.971-.05-7.158-.694-10.39-.877-3.851-.217-7.657.024-11.416.549-6.278.877-12.556 1.94-18.526 4.256-2.974 1.152-5.915 2.359-9.113 2.715-1.69.189-3.383.479-5.082.499-6.077.069-12.158.047-18.238.042-.444 0-1.047.23-1.303-.253-.288-.54.335-.825.605-1.17 3.348-4.266 6.812-8.443 10.036-12.801 1.71-2.314 4.074-2.09 6.356-2.354 1.165-.135 2.359-.027 3.54-.047 7.724-.127 15.45-.13 23.167-.42 9.486-.356 18.969-.521 28.453-.782 3.293-.09 6.593-.122 9.884-.284 1.49-.073 1.957.504 1.635 1.88-.324 1.38-.193 2.725.014 4.109.39 2.634-.308 3.463-2.869 3.825-2.497.352-4.913 1.27-6.753 1.114Z" fill="#45342A"/><path fill-rule="evenodd" clip-rule="evenodd" d="M85.092 93.361c-1.657-1.698-2.424-3.954-3.584-5.966a469.809 469.809 0 0 0-4.181-7.112c-.698-1.164-.655-1.939.61-2.788 5.163-3.464 10.927-5.275 16.837-6.756 6.59-1.651 13.216-3.084 20.052-2.987 1.825.026 3.65.172 5.476.264 1.6.08 2.647.914 3.125 2.461 1.416 4.587 1.872 9.303 1.661 14.082-.072 1.605-1.055 2.77-2.298 3.69-2.91 2.155-5.783 4.365-8.755 6.428-1.575 1.094-2.298 2.282-1.589 4.234.36 1.003.49 2.1.668 3.164.445 2.633.435 2.636-2.168 3.596-.831-.983-1.309-2.164-1.548-3.392-.468-2.403-1.592-4.25-3.802-5.321-.219-.106-.357-.308-.423-.549.09-.604.594-.805 1.058-1.11-1.589.175-2.999.936-4.551 1.096-5.752.245-11.357-.33-16.588-3.034Z" fill="#FEDD43"/><path fill-rule="evenodd" clip-rule="evenodd" d="M81.155 175.228c-.272 2.764-.432 6.374-.346 9.99.035 1.546-.559 1.503-1.667 1.021a19494.708 19494.708 0 0 0-32.724-14.144c-4.074-1.759-8.141-3.515-12.227-5.242-.767-.323-1.289-.647-1.278-1.653.067-5.228-.654-10.454.038-15.69.185-1.391.46-1.868 1.93-1.222 13.546 5.942 26.883 12.346 40.283 18.605.854.399 1.663.911 2.492 1.369 3.57 1.965 3.57 1.963 3.499 6.966Zm-48.167-1.145c0-1.02.009-2.04 0-3.06-.02-2.076-.032-2.042 1.831-1.447 5.3 1.69 10.319 4.094 15.412 6.305 8.24 3.581 16.45 7.23 24.675 10.85.055.024.116.03.168.059 4.294 2.342 5.924 2.454 5.157 8.562-.448 3.557-.207 7.189-1.163 10.72-.445 1.636-.937 1.754-2.397 1.048-9.761-4.718-18.88-10.668-28.631-15.406-2.61-1.267-5.217-2.535-7.847-3.752-4.786-2.217-7.246-5.951-7.208-11.35.006-.84.002-1.685.003-2.529Z" fill="#634638"/><path fill-rule="evenodd" clip-rule="evenodd" d="M68.148 53.452c.943-1.88 2.455-3.175 3.49-4.816.57-.908 1.225-1.773 1.704-2.73 1.199-2.398 3.114-3.58 5.692-3.52 3.948.09 7.922.242 11.836.117 4.756-.152 9.528.09 14.293-.405 3.084-.322 6.229-.365 9.347-.453 4.593-.126 9.119-.855 13.669-1.382 5.289-.614 10.596-.441 15.899-.432.793 0 .963.376.551 1.004-2.435 3.693-4.898 7.364-7.32 11.065-.415.636-.965.567-1.548.584-8.128.253-16.265.31-24.376.806-12.55.766-25.104.636-37.663.603-1.8-.004-3.6-.278-5.574-.44Z" fill="#45342A"/><path fill-rule="evenodd" clip-rule="evenodd" d="M32.825 142.794c.332-3.667.623-6.535.83-9.408.08-1.061.62-.738 1.2-.6 3.812.919 7.298 2.707 10.868 4.256a6908.531 6908.531 0 0 1 29.231 12.793c2.29 1.004 4.217 2.633 6.302 3.981 1.3.838 1.039 2.325.94 3.641-.195 2.513-.45 5.022-.654 7.535-.176 2.21-.668 2.511-2.625 1.602-14.373-6.667-28.735-13.354-43.133-19.964-2.08-.952-3.47-2.075-2.96-3.836Z" fill="#634638"/><path fill-rule="evenodd" clip-rule="evenodd" d="M215.736 39.124c-.92 2.028-1.91 3.81-3.218 5.317-5.555 6.388-11.069 12.832-17.215 18.639-5.009 4.733-9.838 9.675-15.129 14.094-.583.487-1.194.88-1.906.762-3.068-.514-4.998 1.172-6.685 3.43-1.682 2.25-3.144 4.645-4.505 7.104-.522.945-1.027.973-1.814.416-1.405-.988-2.832-1.94-4.25-2.908-.715-.487-.905-.938-.223-1.72 6.668-7.61 13.356-15.203 19.929-22.9 5.044-5.91 10.541-11.358 15.884-16.965 1.99-2.085 3.871-4.216 6.85-4.752.517-.093 1.053-.21 1.569-.173 3.517.254 7.008-.568 10.713-.344Z" fill="#31261C"/><path fill-rule="evenodd" clip-rule="evenodd" d="M176.501 7.667c-1.084.84-2.178.851-3.208.911-7.478.431-14.959.778-22.434 1.213-9.417.546-18.832 1.171-28.246 1.719-5.534.321-11.072.513-16.606.845-7.53.448-15.074.66-22.558 1.73-3.67.527-4.943-.153-6.815-3.387-.536-.926-1.156-1.8-1.9-2.944 2.546-.292 4.898-.723 7.262-.802 7.37-.242 14.743-.515 22.079-1.236a434.47 434.47 0 0 1 23.1-1.671c7.952-.356 15.922-.685 23.885-.62 6.534.054 13.087.137 19.613.77 2.444.236 4.011 1.831 5.828 3.472Z" fill="#7E5D44"/><path fill-rule="evenodd" clip-rule="evenodd" d="M26.936 71.115c-.193-3.17.264-6.024.712-8.87.305-1.943 1.168-3.646 2.41-5.143 7.078-8.54 14.157-17.084 21.255-25.61.49-.589 1.154-1.021 1.712-1.556 1.751-1.672 1.817-1.718 2.98.34 1.572 2.774 2.564 5.806 3.438 8.865.377 1.315-.272 2.469-1.036 3.506-3.328 4.523-6.927 8.825-10.489 13.155-5.791 7.043-11.916 13.813-16.995 21.447-.49.74-1.144 1.37-1.742 2.032-.358.396-.727.865-1.35.554-.5-.247-.548-.75-.54-1.244.026-2.587-.655-5.14-.355-7.476Zm55.874 72.469c.303 2.09-.305 3.798-.23 5.547.06 1.392-.396 1.677-1.674 1.123-4.011-1.741-8.032-3.45-12.092-5.066-10.921-4.35-21.531-9.442-32.358-14.02-2.67-1.129-2.988-1.986-2.65-4.878.236-2.023.17-4.082.236-6.127.07-2.239.185-2.354 2.191-1.579 6.836 2.637 13.466 5.769 20.113 8.851 7.886 3.657 15.726 7.413 23.485 11.35 2.192 1.114 3.984 2.2 2.98 4.799Z" fill="#634638"/><path fill-rule="evenodd" clip-rule="evenodd" d="M110.558 171.358c.176-2.921.381-5.68.493-8.444.077-1.96 1.187-2.656 2.903-2.937 5.687-.934 11.369-1.924 17.05-2.916 5.214-.908 10.426-1.829 15.635-2.779 2.622-.478 2.831-.365 3.353 2.301.627 3.179 1.204 6.368 1.897 9.532.243 1.118.064 1.588-1.118 1.877-6.587 1.597-13.246 2.761-19.912 3.928-5.912 1.036-11.83 2.042-17.817 2.526-2.553.206-2.559.121-2.483-2.525.006-.239-.001-.481-.001-.563Z" fill="#7E5D44"/><path fill-rule="evenodd" clip-rule="evenodd" d="M197.766 39.463c-2.137 3.068-4.624 5.305-6.809 7.808-4.47 5.116-9.116 10.07-13.656 15.12a3711.03 3711.03 0 0 0-18.452 20.646c-1.047 1.181-1.621 1.388-2.748-.063-1.567-2.019-3.496-3.752-5.324-5.548-.834-.82-1.004-1.408-.107-2.375 6.852-7.4 13.796-14.723 21.061-21.689 3.738-3.583 7.146-7.48 10.884-11.052 2.265-2.158 4.854-2.578 7.587-2.804 2.393-.2 4.816-.043 7.564-.043Z" fill="#31261C"/><path fill-rule="evenodd" clip-rule="evenodd" d="M150.174 36.92c-8.027 0-16.05.014-24.076-.008-2.097-.006-2.702-.688-2.7-2.87.003-1.513.254-3 .606-4.463.928-3.878 3.95-5.404 7.597-3.865 3.432 1.449 3.432 1.449 5.228-1.865 2.974-5.48 8.958-7.332 14.442-4.466 1.993 1.04 3.225 2.727 4.079 4.802 1.151 2.797 2.261 3.075 4.712 1.27.959-.71 1.918-1.392 3.083-1.715 1.904-.527 3.481.098 4.236 1.94 1.254 3.049 1.451 6.168.248 9.32-.355.925-.888 1.228-1.872 1.218-5.197-.056-10.393-.026-15.588-.026.002.241.002.486.005.727Z" fill="#E0C472"/><path fill-rule="evenodd" clip-rule="evenodd" d="M77.622 88.142c-2.543 2.193-5.102 4.367-7.623 6.584-1.863 1.64-4.06 2.32-6.445 2.651-3.444.477-6.336 2.21-8.9 4.502-1.446 1.289-3.008 2.326-4.797 2.976-3.111 1.131-5.929 2.948-9.107 3.922-2.584.792-5.11.594-7.639-.201-1.292-.406-2.584-.822-3.887-1.189-1.76-.498-1.968-.982-.868-2.551 1.127-1.612 2.341-3.163 3.526-4.736 1.146-1.526 2.428-2.966 3.426-4.588 1.834-2.979 4.848-3.073 7.718-3.568 6.886-1.19 13.76-2.447 20.666-3.496 4.521-.686 9.09-1.06 13.672-.793.085.163.17.323.258.487Z" fill="#45342A"/><path fill-rule="evenodd" clip-rule="evenodd" d="M181.898 81.734c6.904 1.156 13.462 3.387 19.697 6.607 1.347.694 1.855 2.018 1.655 3.513-.49 3.631-1.064 7.25-1.561 10.879-.098.721-.522.832-1.075.927-3.019.513-5.909 1.059-8.923-.609-3.304-1.83-6.883-1.242-10.255.208-.954.408-1.704.471-2.636-.02-1.564-.825-3.169-1.611-4.824-2.211-1.295-.47-1.281-1.107-.927-2.28 1.425-4.704 3.022-9.328 5.301-13.681.187-2.216 1.835-2.811 3.548-3.333Z" fill="#E2AC02"/><path fill-rule="evenodd" clip-rule="evenodd" d="M61.707 52.181c.692 2.903-1.127 5.121-2.904 7.317-8.282 10.253-16.308 20.715-24.248 31.248a39.25 39.25 0 0 1-1.921 2.355c-.742.84-1.416.89-1.776-.35-.701-2.416-1.436-4.824-2.045-7.266-.393-1.572-.13-2.988.96-4.37 7.2-9.13 14.595-18.095 22-27.056 2.276-2.757 4.55-5.517 6.826-8.275.416-.501.822-1.191 1.537-1.021.69.166.888.938 1.015 1.584.355 1.825.652 3.666.556 5.834Z" fill="#634638"/><path fill-rule="evenodd" clip-rule="evenodd" d="M253.928 193.814c-4.268-.045-9.618-1.434-15.046-2.178-3.383-.464-6.771-.966-9.972-2.322-.805-.341-1.079-.602-.828-1.552.723-2.729 1.289-5.501 1.941-8.248.505-2.142 1.248-2.671 3.287-2.088 8.28 2.365 16.741 3.457 25.295 4.003 4.505.288 8.955-.255 13.389-.941 1.278-.198 1.504.183 1.48 1.365-.058 2.748-.649 5.36-1.556 7.926-.368 1.038-1.138 1.497-2.085 1.739-4.816 1.224-9.666 2.22-15.905 2.296Z" fill="#FEDD43"/><path fill-rule="evenodd" clip-rule="evenodd" d="M174.649 39.819c1.947 0 3.896-.01 5.844.008.384.004.905-.197 1.121.275.226.491-.28.734-.547 1.014-1.196 1.253-2.411 2.486-3.62 3.721-4.302 4.389-8.537 8.847-12.925 13.145-4.929 4.831-9.981 9.53-15 14.26-1.537 1.448-1.6 1.364-2.702-.367a101.563 101.563 0 0 0-3.746-5.451c-.522-.717-.52-1.157.104-1.825 3.95-4.214 7.845-8.485 11.781-12.714 3.007-3.228 6.064-6.407 9.062-9.64 1.603-1.727 3.516-2.54 5.843-2.458 1.592.056 3.189.011 4.783.011a.068.068 0 0 1 .002.02Z" fill="#31261C"/><path fill-rule="evenodd" clip-rule="evenodd" d="M191.404 159.647c0-3.43.011-6.859-.006-10.289-.003-.74.107-1.193 1.001-1.348a2744.266 2744.266 0 0 0 26.953-4.817c1.578-.291 1.815.485 1.57 1.676-.86 4.171-1.782 8.332-2.705 12.491-.324 1.464-1.37 2.274-2.725 2.521-7.823 1.43-15.654 2.789-23.478 4.222-.824.151-1.066-.024-1.044-.841.035-1.202.011-2.409.011-3.615h.423Z" fill="#7E5D44"/><path fill-rule="evenodd" clip-rule="evenodd" d="M148.867 147.252c.038 4.52.046 4.566-4.303 5.391a6015.147 6015.147 0 0 1-29.183 5.443c-3.573.656-4.063.123-3.634-3.548.212-1.79.32-3.595.456-5.393.107-1.392.955-2 2.189-2.171 7.936-1.106 15.874-2.2 23.81-3.297 2.624-.364 5.239-.835 7.875-1.068 2.538-.223 2.731.057 2.791 2.655.013.661-.001 1.325-.001 1.988Z" fill="#7E5D43"/><path fill-rule="evenodd" clip-rule="evenodd" d="M67.166 74.16c2.007 0 4.016-.008 6.025.008.385.003.924-.137 1.042.408.088.392-.332.59-.635.776-1.396.855-1.545 1.925-.733 3.35.857 1.505 1.48 3.156 2.353 4.655.666 1.144.173 1.466-.805 1.625-3.827.626-7.642 1.33-11.481 1.84-4.718.63-9.387 1.516-14.057 2.419-2.559.496-5.142.59-7.738.537-.87-.018-1.264-.143-.602-1.106 2.642-3.834 5.673-7.364 8.265-11.24 1.367-2.041 3.505-2.971 5.993-2.879 4.13.155 8.236-.66 12.373-.392Z" fill="#45342A"/><path fill-rule="evenodd" clip-rule="evenodd" d="M134.078 118.816c6.394-5.745 13.713-7.927 21.987-7.182 3.931.355 7.889.318 11.807.894 1.6.236 3.114.677 4.417 1.675 2.106 1.61 2.103 3.131-.035 4.68-1.784 1.294-3.729 2.291-5.777 3.075-6.584 2.521-13.283 2.057-20.055.99-4.288-.672-8.422-1.664-12.344-4.132Z" fill="#3CD469"/><path fill-rule="evenodd" clip-rule="evenodd" d="M120.498 33.267v.363c0 4.029.005 4.105-4.018 4.358-6.944.435-13.89.767-20.836 1.14-2.062.11-4.124.219-6.186.321-1.618.079-2.553-.754-2.872-2.33-.217-1.057-.346-2.133-.545-3.196-.522-2.807-.692-2.317 1.927-2.71 8.227-1.236 16.504-2.012 24.824-2.151 2.12-.033 4.242.21 6.357.186 1.136-.012 1.446.426 1.361 1.488-.064.839-.009 1.688-.012 2.531Z" fill="#7E5D44"/><path fill-rule="evenodd" clip-rule="evenodd" d="M207.242 35.887c-4.964.057-4.862.015-6.699-4.688-3.53-9.036-8.695-16.903-16.269-22.975-.787-.63-1.517-1.331-2.264-2.01-.344-.31-.85-.601-.52-1.175.286-.5.731-.123 1.114-.086 5.318.543 9.972 2.834 14.197 5.99 7.801 5.827 13.238 13.604 17.208 22.51.799 1.794.588 2.063-1.295 2.16-1.824.094-3.649.182-5.472.274Z" fill="#9F9281"/><path fill-rule="evenodd" clip-rule="evenodd" d="M191.657 141.153c0-1.206.066-2.414-.023-3.613-.08-1.135.349-1.663 1.437-1.787 6.314-.723 12.623-1.456 18.934-2.204 3.562-.421 7.125-.842 10.679-1.338 1.234-.172 2.061-.213 1.379 1.446-.225.548-.41 1.148-.453 1.734-.303 4.038-2.711 5.411-6.356 6.166-8.068 1.669-16.173 3.083-24.269 4.583-1.052.196-1.384-.161-1.344-1.197.055-1.261.016-2.527.016-3.79Z" fill="#7E5D44"/><path fill-rule="evenodd" clip-rule="evenodd" d="M65.284 8.026c.827 0 1.658-.027 2.482.005 2.186.084 4.03.847 5.234 2.833 4.92 8.116 9.621 16.31 10.58 26.12.154 1.573-.219 1.935-1.675 1.978-5.65.17-5.644.212-7.74-5.142-1.68-4.302-3.387-8.593-5.045-12.905-1.74-4.525-4.548-8.123-8.64-10.66-.478-.298-1.277-.525-1.104-1.216.145-.593.957-.596 1.5-.665 1.462-.187 2.936-.277 4.406-.405a.768.768 0 0 1 .002.057Z" fill="#9F9281"/><path fill-rule="evenodd" clip-rule="evenodd" d="M156.797 39.808c1.713 0 3.423-.017 5.134.012.438.007 1.059-.257 1.26.316.182.523-.418.792-.707 1.144-5.519 6.68-11.878 12.51-18.09 18.482-.775.745-1.5 1.536-2.264 2.292-.574.572-.908.665-1.084-.368-1.493-8.77 1.886-15.578 8.13-21.25.817-.74 1.864-.698 2.85-.751.817-.046 1.644.082 2.466.105.767.021 1.537.004 2.304.004a.07.07 0 0 1 .001.014Z" fill="#31261C"/><path fill-rule="evenodd" clip-rule="evenodd" d="M182.481 36.15c-3.307 0-6.611.004-9.921 0-1.22-.002-1.833-.347-1.473-1.853.357-1.506.38-3.1.495-4.658.064-.82.275-1.296 1.212-1.414 6.44-.812 12.883-1.483 19.384-1.516 2.091-.01 3.356.808 4.037 2.755.514 1.472.949 2.99 1.616 4.386.819 1.709-.078 1.89-1.375 1.985-3.83.281-7.658.444-11.498.402-.825-.009-1.652 0-2.48 0 .003-.03.003-.059.003-.086Z" fill="#7E5D44"/><path fill-rule="evenodd" clip-rule="evenodd" d="M115.184 131.427c1.517.006 2.895.556 4.179 1.283 2.439 1.379 2.982 4.88 1.124 7.212-1.448 1.819-3.271 3.248-5.558 3.609-3.546.561-7.094 1.186-10.703 1.247-2.826.048-5.433-.737-8.109-2.043 2.037-2 3.778-4.107 4.203-6.995 1.764-.889 3.738-.962 5.609-1.383 3.178-.716 6.188-1.897 9.255-2.93Z" fill="#FEDD43"/><path fill-rule="evenodd" clip-rule="evenodd" d="M52.99 26.602a5276.101 5276.101 0 0 1-6.95 8.338c-5.16 6.175-10.322 12.35-15.49 18.52-.363.431-.61 1.273-1.277 1.004-.756-.306-.22-1.083-.124-1.599 1.454-7.947 4.657-15.096 9.528-21.466 2.12-2.773 4.606-4.964 8.183-5.526 1.995-.313 3.82.448 6.13.73Z" fill="#624638"/><path fill-rule="evenodd" clip-rule="evenodd" d="M259.518 161.376c-.47-5.802.531-11.474 1.477-17.147.156-.941.608-1.888 1.393-2.45 2.488-1.767 3.711-4.225 4.164-7.22.234-1.526 2.213-2.323 4.643-2.03 1.757.211 2.422.99 2.411 2.82-2.933 2.347-3.625 5.317-2.768 8.972.492 2.091-.104 4.003-1.74 5.736-2.899 3.072-5.574 6.374-7.885 9.959-.389.605-.718 1.452-1.695 1.36Z" fill="#E2AC02"/><path fill-rule="evenodd" clip-rule="evenodd" d="M146.159 138.98c-1.756.1-3.094-.713-4.054-2.12-2.194-3.213-4.739-6.129-7.199-9.12-1.306-1.586-2.377-3.287-2.63-5.405-.116-.979-.141-1.676 1.251-1.176 3.997 1.429 8.026 2.736 12.046 4.087.513.174.957.405 1.28.889 1.664 2.505 3.037 5.1 3.51 8.168.535 3.468.342 4.197-4.204 4.677Z" fill="#299248"/><path fill-rule="evenodd" clip-rule="evenodd" d="M97.06 110.372c2.103.138 4.315.099 6.298 1.188 3.104 1.702 3.28 3.482.646 5.778-1.756 1.533-3.749 2.239-6.047 1.785-1.209-.239-2.276-.053-3.397.504-2.527 1.254-6.08.625-8.101-1.293-1.606-1.526-1.358-3.85.632-5.202 2.993-2.027 6.37-2.688 9.97-2.76Zm10.744 3.478c-.792-2.444.957-3.907 2.999-5.215 3.764-2.409 7.648-4.053 12.177-2.278 2.094.821 2.503 1.586 1.663 3.678-1.531 3.795-4.848 5.26-8.309 6.408-1.836.608-3.78.896-5.681 1.288-2.631.54-2.847.348-2.847-2.365-.002-.361-.002-.723-.002-1.516Z" fill="#E2AC02"/><path fill-rule="evenodd" clip-rule="evenodd" d="M126.329 125.227c-4.343 0-4.343 0-5.604-4.278-.086-.287-.127-.595-.256-.859-.759-1.571-.508-2.507 1.203-3.391 2.383-1.229 3.761-3.568 4.788-6.042.349-.837.623-1.206 1.641-.883 1.16.37 2.422.423 3.648.551 1.027.108 1.963.428 2.734 1.122 1.551 1.401 1.523 2.346-.008 3.745-.926.843-1.904 1.587-3.013 2.172-1.35.711-1.768 1.77-1.584 3.416.476 4.21 1.57 4.266-3.549 4.447Z" fill="#FEDD43"/><path fill-rule="evenodd" clip-rule="evenodd" d="M77.742 118.037c-2.41.136-4.513-.653-6.358-2.202-1.232-1.03-1.84-2.322-1.558-3.964.26-1.52 1.448-1.835 2.67-2.2 2.925-.876 5.578-2.556 8.63-3.085.997-.172 1.984-.138 2.987-.129 1.958.016 2.406 1.622 3.11 2.96.302.575-.263.714-.572.914-2.018 1.294-2.956 3.201-3.01 5.578-.023.876-.375 1.243-1.21 1.438-1.55.361-3.083.753-4.689.69Z" fill="#E2AC02"/><path fill-rule="evenodd" clip-rule="evenodd" d="M122.675 127.098c2.469.119 4.94.265 7.411.345 1.688.055 3.051.586 4.058 2.086 1.064 1.587 2.281 3.064 3.431 4.588.319.423.792.831-.038 1.246-3.02 1.512-6.053 2.97-9.541 2.835-2.779-.109-3.576-.73-4.34-3.517-.531-1.942-1.592-3.439-3.244-4.554-.432-.29-1.35-.237-1.191-1.052.148-.758.635-1.392 1.378-1.779.677-.352 1.378-.225 2.076-.198Z" fill="#FEDD43"/><path fill-rule="evenodd" clip-rule="evenodd" d="M136.468 75.654c-2.238.002-4.481-.022-6.72.013-.871.015-1.382-.13-1.558-1.19-.324-1.945-.842-3.853-1.289-5.774-.202-.871.135-1.322.964-1.577a29.248 29.248 0 0 1 9.739-1.29c.527.02.865.244 1.148.683 1.79 2.747 3.61 5.473 5.379 8.232.64.998-.187.9-.764.9-2.297.006-4.598.003-6.899.003Z" fill="#45342A"/><path fill-rule="evenodd" clip-rule="evenodd" d="M134.046 93.706c-.519-2.236-2.033-3.263-4.147-3.59-1.393-.218-2.785-.47-4.219-.715 4.299-5.313 13.537-6.576 18.59-2.606 1.964 1.546 2.661 3.1 2.149 4.8-3.381.966-6.521 2.89-10.201 2.682-.767-.043-1.542.005-2.172-.57Zm105.311 61.857c-2.249-3.654-1.88-7.562-1.042-11.502.427-1.992.897-3.972 1.361-5.953.496-2.135 1.869-3.591 3.672-4.605 1.49-.838 3.184-.365 4.191 1.125.594.876 1.163 1.804 1.364 2.892-1.139 2.7-2.668 5.186-4.087 7.728-1.431 2.565-2.521 5.267-3.601 7.99-.362.907-.475 2.194-1.858 2.325Z" fill="#E2AC02"/><path fill-rule="evenodd" clip-rule="evenodd" d="M146.742 94.473c.476-.893.952-1.78 1.419-2.676 2.191-4.214 5.621-5.466 9.909-3.545 2.667 1.195 4.822 3.185 7.059 5.02 1.004.823.22 1.984.006 2.991-.335.687-.951.884-1.621.892-4.663.055-9.313-.152-13.904-1.021-1.041-.198-2.415-.22-2.868-1.661Z" fill="#FEDD43"/><path fill-rule="evenodd" clip-rule="evenodd" d="M218.719 208.133c2.105-1.049 3.928-2.431 5.168-4.516.698-1.17 1.952-1.306 3.068-1.574 3.76-.896 7.4-.38 10.835 1.36 1.551.783 2.961 1.826 2.823 3.944-.767.877-1.819 1.059-2.875 1.198-5.021.663-10.044 1.324-15.046 2.136-.937.152-1.918.245-2.751-.302-.766-.5-1.686-1.007-1.222-2.246Z" fill="#E2AC02"/><path fill-rule="evenodd" clip-rule="evenodd" d="M164.549 103.298c2.895-.047 6.154.42 9.398.97 1.116.188 2.079.789 3.026 1.41 1.424.931 1.965 2.151 1.394 3.835-.592 1.746-1.889 2.241-3.496 1.963-3.651-.63-7.288-1.338-10.927-2.025-.866-.162-1.773-.239-2.581-.565-1.517-.609-2.031-1.918-1.897-3.501.135-1.601 1.349-1.774 2.558-1.893.705-.07 1.412-.109 2.525-.194Z" fill="#FDDD42"/><path fill-rule="evenodd" clip-rule="evenodd" d="M188.925 127.757c-.747-.841-.833-1.668.03-2.494.167-.163.283-.387.423-.579 3.118-4.244 3.118-4.272 8.831-4.792 3.296-.301 5.949 1.162 8.274 3.391.559.534 1.133 1.064 1.287 1.888.002.909-.748 1.03-1.327 1.176-4.78 1.206-9.497 2.825-14.553 2.341-1.079-.105-2.097-.212-2.965-.931Z" fill="#FEDD43"/><path fill-rule="evenodd" clip-rule="evenodd" d="M81.474 103.889c-1.133.076-2.342-.365-3.425-1.346a128.207 128.207 0 0 0-5.015-4.284c-.629-.514-.78-.866-.17-1.546 1.312-1.47 2.656-2.896 4.31-3.974 1.68-1.094 3.115-1.023 4.434.478 1.963 2.236 3.78 4.606 5.693 6.887.53.636.25 1.085-.162 1.548-1.441 1.615-3.276 2.26-5.665 2.237Z" fill="#E1AC02"/><path fill-rule="evenodd" clip-rule="evenodd" d="M266.579 195.829c.975-1.23 2.432-1.492 3.79-1.693 2.35-.349 3.669-1.723 3.936-3.96.248-2.096 1.379-2.639 3.181-2.741 2.679-.151 5.305.281 7.888.837 1.442.314 2.606 1.352 3.268 2.807-.199.55-.649.834-1.116 1.095-5.996 3.329-12.301 5.396-19.228 4.832-.675-.053-1.97.445-1.719-1.177ZM41.758 114.002c1.781-3.456 4.827-4.834 8.413-5.034 3.12-.175 6.256-.038 9.382-.07 1.894-.019 3.438.685 4.662 2.15.115.398-.032.755-.338.936-2.358 1.407-4.73 2.794-7.55 2.998-.836-.509-1.69-.28-2.549-.073-1.65.398-3.279.877-4.98 1.024-1.886-.165-3.709-.688-5.558-1.047-.574-.113-1.15-.309-1.482-.884Z" fill="#E2AC02"/><path fill-rule="evenodd" clip-rule="evenodd" d="M173.795 120.941c.259.93-.099 1.502-.424 2.059-2.224 3.833-4.464 7.653-6.702 11.475-.398.68-.868 1.291-1.591 1.647-1.226.604-2.521.408-3.591-.164-1.075-.574-.612-1.875-.461-2.809.338-2.069.896-4.099 1.327-6.154.179-.855.681-1.392 1.421-1.716 3.298-1.439 6.602-2.858 10.021-4.338Z" fill="#299248"/><path fill-rule="evenodd" clip-rule="evenodd" d="M105.273 96.28c2.659 1.108 4.219 3.096 4.58 6.02.145 1.202 1.148 2.106 1.085 3.372-.759.834-1.446.826-2.131-.122-.487-.674-1.188-1.22-1.552-1.947-1.182-2.346-3.103-2.888-5.531-3.033-6.097-.361-11.888-1.717-16.243-6.627-.15-.173-.264-.385-.395-.58 1.102-.156 2.07.338 3.034.724 4.51 1.797 9.225 1.873 13.958 1.829.317.175-.686 1.284.583.817.83-.309 1.623-1.026 2.612-.452Z" fill="#AF992E"/><path fill-rule="evenodd" clip-rule="evenodd" d="M114.526 98.791c-.148-.974.196-1.784.877-2.422 4.078-3.81 8.672-5.618 14.178-3.686 1.104.388 2.218.82 2.613 2.137-.286 1.453-1.468 2.16-2.515 2.826-4.274 2.723-8.834 3.956-13.854 2.39-.698-.22-1.168-.496-1.299-1.245Z" fill="#E2AC02"/><path fill-rule="evenodd" clip-rule="evenodd" d="M152.8 108.919c-4.568.031-8.617.931-12.493 2.658-.432.191-.863.424-1.317.504-.94.167-1.378-.461-1.661-1.258-.343-.967.514-.976.968-1.115 3.703-1.137 6.598-3.377 8.774-6.597.663-.982 1.438-1.233 2.556-.953 1.94.487 3.919.813 5.86 1.29 1.358.335 2.713 3.279 2.204 4.583-.199.503-.652.429-1.025.547-1.372.43-2.788.358-3.866.341Zm-74.144 13.743c1.044-2.779 3.475-4.025 6.05-2.864 3.412 1.538 6.895 2.261 10.633 1.936 2.432-.211 4.084 1.739 3.804 4.171-2.54 1.302-5.198 1.598-7.96.97-1.015-.417-2.004-1.007-3.172-.559-2.966-.187-5.745-1.218-8.582-1.991-.787-.216-1.164-.794-.773-1.663Z" fill="#FDDD42"/><path fill-rule="evenodd" clip-rule="evenodd" d="M179.664 111.471c.424-1.433.756-2.903 1.289-4.288.695-1.792 3.55-3.072 6.056-2.839.646.059 1.292.158 1.921.312 2.35.584 2.469.847 1.493 3.123-1.32 3.098-.948 4.367 2.037 6.959-.113.973-.929.877-1.477.821-4.089-.424-8.078-1.19-11.319-4.088Z" fill="#FEDD43"/><path fill-rule="evenodd" clip-rule="evenodd" d="M172.042 134.981c-2.613.087-2.795-.191-1.926-2.353.92-2.301 2.399-3.694 5.014-3.805 2.757-.118 5.506-.516 8.254-.819.712-.079 1.413-.112 2.1.101 1.595.492 1.855 1.903 1.99 3.284.138 1.39-1.168 1.174-1.88 1.358-4.568 1.177-9.225 1.848-13.552 2.234Z" fill="#FDDD42"/><path fill-rule="evenodd" clip-rule="evenodd" d="M152.193 83.48c-2.835 2.004-3.623 2.061-5.965.478-4.588-3.1-9.464-3.7-14.645-1.878-.277.098-.56.23-.847.256-.776.069-1.797.832-2.082-.68-.401-2.137-.008-2.891 1.543-3.11 4.736-.676 9.494-.83 14.269-.754 1.203.02 2.136.384 2.999 1.243 1.509 1.507 3.103 2.928 4.728 4.444Z" fill="#443529"/><path fill-rule="evenodd" clip-rule="evenodd" d="M193.906 107.508c1.935-1.589 4.191-1.793 6.495-1.355 2.639.505 5.258 1.134 7.85 1.842 1.719.467 3.25 1.34 4.124 3.061.3.701-.113 1.001-.666 1.198-.558.201-1.13.384-1.704.485-5.159.883-10.247 1.281-14.645-2.493-.836-.717-1.911-1.304-1.454-2.738Z" fill="#FDDD42"/><path fill-rule="evenodd" clip-rule="evenodd" d="M149.445 125.301c3.312.485 6.265.961 9.231 1.333.929.117 1.154.568 1.194 1.408.115 2.559-.355 5.034-1.05 7.461-.5 1.753-2.653 2.352-4.208 1.181-1.042-.786-1.935-1.746-2.37-3.067-.878-2.666-1.789-5.322-2.797-8.316Z" fill="#299248"/><path fill-rule="evenodd" clip-rule="evenodd" d="M218.719 208.136c.508 1.444 1.43 2.355 3.015 2.125 6.072-.878 12.138-1.799 18.208-2.712.225-.034.445-.132.671-.199-.841 2.258-2.734 3.419-4.689 4.351-4.536 2.162-9.417 2.379-14.307 2.14-1.619-.08-2.928-1.219-3.945-2.498-1.004-1.263-.64-2.242 1.047-3.207ZM181.878 81.735c-1.132 1.168-3.025 1.485-3.548 3.33-.04-.615-.228-.95-.847-.458-.77.61-1.251 1.425-1.644 2.316a2503.14 2503.14 0 0 1-5.242 11.843c-.383.856-.66 1.833-1.976 1.621-2.143-.348-2.425-.765-1.649-2.834 1.643-4.38 3.161-8.796 5.888-12.683 2.348-3.342 5.382-3.983 9.018-3.135ZM56.224 114.722c2.853-.785 5.676-1.641 7.977-3.674 1.278.734 1.366 1.647.412 2.736-.39.448-.718.955-1.133 1.379-4.202 4.311-11.945 5.794-17.375 3.306-1.341-.615-2.601-1.416-3.945-2.018-1.438-.644-1.589-1.399-.418-2.449l7.182 1.476c-.082.904-.773.427-1.168.546.89.141 1.82.205 2.74.333 1.49.21 2.9-.03 4.164-.948.468-.335.907-.782 1.564-.687Z" fill="#9C7701"/><path fill-rule="evenodd" clip-rule="evenodd" d="M76.112 123.385c.225 3.71.099 3.896-3.48 4.511-4.066.699-7.905.273-11.498-2.071-1.965-1.282-4.16-2.194-6.556-3.43l4.257-1.819c3.538.209 6.974.974 10.36 1.997 1.497.453 3.037.249 4.563.309.809.032 1.666-.138 2.354.503Zm70.648-28.911c1.947 1.254 4.184 1.55 6.364 1.675 3.672.21 7.345.681 11.031.424.341-.023.666-.203.998-.31-1.012 4.26-2.708 5.388-6.982 4.909-2.941-.329-5.831-.885-8.692-1.6-2.868-.717-3.915-2.782-2.719-5.098Z" fill="#AF982E"/><path fill-rule="evenodd" clip-rule="evenodd" d="M76.127 123.386c-3.955.295-7.793-.177-11.564-1.507-1.405-.495-2.988-.45-4.489-.648-.49-.065-1.121.159-1.222-.654 2.864-1.344 5.577-2.907 7.471-5.597.399-.569.712-.435 1.094-.013a20.239 20.239 0 0 0 8.023 5.446c1.522.569.491 1.966.687 2.973Z" fill="#FDDD42"/><path fill-rule="evenodd" clip-rule="evenodd" d="M266.569 195.829c.164 1.03.969.654 1.545.695 6.471.466 12.458-1.227 18.142-4.264.781-.415 1.586-.788 2.379-1.18.654 1.322.26 2.398-.71 3.378-1.149 1.161-2.5 2.041-4.008 2.539-4.123 1.361-8.224 2.874-12.646 2.822-1.731-.021-3.213-.684-4.379-1.978-.499-.552-1.102-1.199-.323-2.012Z" fill="#9D7701"/><path fill-rule="evenodd" clip-rule="evenodd" d="M76.852 129.169c1.418-.756 2.776-.328 4.02.381 4.032 2.289 8.428 2.987 12.938 3.2 2.895.136 4.522 1.766 4.014 4.076-.85-.544-1.75-.589-2.716-.369-3.81.865-7.475.578-10.965-1.38-.972-.546-2.125-.714-3.16-1.146-2.133-.894-3.714-2.306-4.131-4.762Z" fill="#AF992E"/><path fill-rule="evenodd" clip-rule="evenodd" d="M101.409 124.851c-.017-.24-.069-.482-.05-.72.089-1.082-1.072-2.415.014-3.179 1.433-1.009 3.233-1.848 4.998-1.332 2.546.742 4.986.497 7.507.09 1.721-.279 3.432-.134 4.593 1.53-1.196 1.055-2.372 2.131-3.598 3.144-.617.509-1.341 1.123-2.16.245-.433-.671-1.087-.624-1.73-.516-2.298.385-4.606.73-6.867 1.345-1.045.454-2.15 1.194-2.707-.607Z" fill="#FDDD42"/><path fill-rule="evenodd" clip-rule="evenodd" d="M101.403 124.85c.808 1.245 1.641.914 2.485.049.655.852 1.573.946 2.53.905 1.64-.069 3.221-.456 4.772-.995.594-.205 1.168-.581 1.845-.343 1.32.466 1.839-.753 2.613-1.355.897-.701 1.503-1.823 2.818-1.871 1.26 2.137-.335 5.458-3.282 6.551-2.777 1.032-5.701 1.441-8.626 1.765-1.459.16-2.927.319-4.392.347-1.025.02-1.619-.386-1.237-1.681.314-1.078.328-2.246.474-3.372Z" fill="#AF982E"/><path fill-rule="evenodd" clip-rule="evenodd" d="M144.261 99.164c1.146 1.012 1.05 2.044.248 3.281-3.021 4.665-7.484 5.855-12.582 5.591-.352-.019-.701-.147-1.05-.134-2.379.091-4.054-.845-4.697-3.309.998-.811 2.122-.471 3.199-.31 1.292.191 2.553.209 3.835-.101.473-.116.692-.345.775-.79.695-.46 1.489-.404 2.262-.482 2.382.168 3.933-1.56 5.759-2.651.723-.43 1.217-1.329 2.251-1.095Z" fill="#9C7701"/><path fill-rule="evenodd" clip-rule="evenodd" d="M78.663 122.662c.086.53.107 1.039.808 1.203 2.913.678 5.745 1.72 8.733 2.063 1.014-.131 1.886.986 2.955.352 2.1.893 4.167.099 6.242-.133.585-.065 1.165-.158 1.748-.24-.275 1.577-1.257 2.429-2.671 3.03-5.899 2.507-11.342 1.708-16.355-2.256-1.263-.997-2.15-2.236-1.46-4.019Z" fill="#AF982E"/><path fill-rule="evenodd" clip-rule="evenodd" d="M76.86 129.17c.344.09.718.141.75.618.107 1.51 1.056 2.503 2.27 2.991 3.845 1.551 7.482 3.91 11.856 3.623 1.402-.092 2.784-.467 4.181-.608.797-.079 1.892-.481 1.916 1.033-1.304 3.143-3.741 4.24-7.068 3.015-1.71-.63-3.348-1.472-4.99-2.281-4.383-2.165-8.752-4.363-13.416-6.696a1562.03 1562.03 0 0 0 4.501-1.695Z" fill="#FCDC42"/><path fill-rule="evenodd" clip-rule="evenodd" d="M144.271 99.166c-1.825 1.299-3.565 2.736-5.588 3.72-.687.335-1.375 1.075-2.218.27-.217-.514.126-.759.525-1.049-1.622.234-3.173.533-4.791.629.704.102 1.442.042 1.751.867.239.149.478.296.778.484-1.806.912-3.62 1.088-5.563.651-.957-.214-1.982-.105-2.974-.142-.608-.605-.441-1.056.302-1.292 2.515-.798 4.519-2.456 6.622-3.975 1.968-1.42 4.222-2.001 6.647-1.885.519.026 1.11.1 1.558-.102 1.887-.845 2.495.334 2.951 1.824Z" fill="#E1AC02"/><path fill-rule="evenodd" clip-rule="evenodd" d="M259.531 161.375c2.345-2.538 3.833-5.753 6.262-8.232 1.038-1.056 1.773-2.467 2.904-3.378 2.345-1.891 1.961-4.341 1.567-6.753-.608-3.739.236-5.853 3.354-7.663-.075 1.238-.828 2.095-1.653 2.86-1.294 1.206-1.569 2.634-1.017 4.254 1.652 4.828.989 9.031-2.913 12.567-1.713 1.552-2.881 3.628-4.206 5.537-1.055 1.526-2.263 2.877-3.974 4.058l-.324-3.25Z" fill="#9C7702"/><path fill-rule="evenodd" clip-rule="evenodd" d="M75.466 103.18c1.102 1.039 1.204 1.845-.32 2.655-3.539 1.874-7.227 2.628-11.08 1.49-2.062-.607-4.085-1.056-6.23-1.014-.61.011-1.514.121-1.759-.47-.3-.713.44-1.295.912-1.813.435-.476.842-1.015 1.499-1.213 3.01-.392 5.962-.201 8.928.523 2.66.648 5.378.558 8.05-.158Z" fill="#9C7701"/><path fill-rule="evenodd" clip-rule="evenodd" d="M188.922 127.757c6.572 1.337 12.732-.434 18.846-2.586.651 1.382-.176 2.257-1.047 3.091-2.141 2.052-4.946 2.388-7.637 2.928-2.067.415-4.189.558-6.269.928-1.402.25-2.2-.233-2.659-1.593-.321-.956-.816-1.85-1.234-2.768Z" fill="#AF992E"/><path fill-rule="evenodd" clip-rule="evenodd" d="M210.207 117.652c2.045-1.763 4.198-1.391 6.454-.441 1.506.632 3.135.967 4.643 1.592 1.146.474 2.21 1.187 1.65 2.801-3.533 1.191-7.144 1.109-10.757.586-.915-.132-1.728-.73-2.474-1.331-1.904-1.539-1.789-2.29.484-3.207Z" fill="#FDDC42"/><path fill-rule="evenodd" clip-rule="evenodd" d="M239.359 155.561c1.477-1.573 1.782-3.724 2.662-5.594 2.024-4.305 4.052-8.611 6.885-12.45.98 1.243.795 2.544.201 3.879-2.065 4.649-4.107 9.307-6.187 13.947-.404.902-.574 2.309-1.661 2.355-1.026.041-1.361-1.309-1.9-2.137Z" fill="#9C7702"/><path fill-rule="evenodd" clip-rule="evenodd" d="M193.895 107.508c1.339 3.039 4.107 4.233 6.902 4.948 3.697.947 7.452.16 11.127-.685.343-.079.363-.43.44-.714.55 1.723.13 2.89-1.497 3.334-6.022 1.646-11.822.89-17.252-2.196-2.121-1.206-1.934-2.849.28-4.687Z" fill="#AF992E"/><path fill-rule="evenodd" clip-rule="evenodd" d="M89.234 103.079c1.22-1.315 2.78-1.184 4.297-.94 3.257.525 6.503 1.128 9.747 1.729 1.616.3 3.775 2.631 3.799 4.299.02 1.167-1.185.77-1.837 1.082-1.133-1.03-2.448-1.552-3.963-1.766a43.024 43.024 0 0 1-8.718-2.191c-1.285-.469-2.524-.998-3.325-2.213Z" fill="#9C7701"/><path fill-rule="evenodd" clip-rule="evenodd" d="M209.508 129.574c.525-1.716 1.499-2.509 3.028-2.568 3.816-.141 7.417-1.18 10.896-2.727 2.183-.972 3.612-.179 4.17 2.168.248 1.034-.525.895-1.009 1.047-3.455 1.092-7.037 1.401-10.613 1.68-2.102.164-4.196.575-6.472.4Z" fill="#AE982D"/><path fill-rule="evenodd" clip-rule="evenodd" d="M186.862 120.075c1.688 1.732 1.693 2.368-.123 3.814-3.022 2.404-6.46 3.231-10.242 2.705-1.254-.175-1.79-.643-1.165-1.978.343-.739.522-1.556.781-2.338 2.988-.096 5.964-.263 8.744-1.578.637-.3 1.293-.553 2.005-.625Z" fill="#AF992E"/><path fill-rule="evenodd" clip-rule="evenodd" d="M89.24 103.077c4.143 2.52 8.767 3.391 13.443 4.121 1.171.184 2.298.602 2.564 2.049-1.099.369-2.07-.201-3.071-.468-2.968-.793-5.935-.548-8.882.018-1.897.365-3.301-.232-4.453-1.755-1.199-1.588-1.137-2.522.4-3.965Z" fill="#E1AB02"/><path fill-rule="evenodd" clip-rule="evenodd" d="M210.202 117.653c-.341.229-.663.496-1.025.674-.698.342-.668.703-.15 1.207 1.44 1.405 2.979 2.407 5.116 2.45 2.949.059 5.868-.342 8.807-.379-.102.618-.566.883-1.058 1.089-3.198 1.336-6.484 2.18-9.979 1.773-.458-.053-1.006-.096-1.347-.365-2.344-1.852-4.648-3.762-7.363-5.976 2.712-.214 4.881-.072 6.999-.473Z" fill="#AF992E"/><path fill-rule="evenodd" clip-rule="evenodd" d="M75.488 103.179c-.415 1.04-1.344 1.065-2.2 1.059-1.993-.014-4.003.228-5.967-.359-2.403-.716-4.866-.78-7.343-.716-.502.013-1.078.191-1.47-.349 4.294-2.596 8.82-3.46 13.655-1.854 1.294.431 2.5 1.038 3.325 2.219Z" fill="#E1AC02"/><path fill-rule="evenodd" clip-rule="evenodd" d="M114.547 98.792c2.603 1.374 5.349 1.833 8.222 1.207 3.628-.793 6.869-2.367 9.447-5.179.814 1.552.075 2.88-1.052 3.597-3.799 2.417-7.73 4.631-12.442 4.471-3.001-.1-3.851-.935-4.175-4.096Z" fill="#9C7702"/><path fill-rule="evenodd" clip-rule="evenodd" d="M179.668 111.472c1.036-.141 1.477.939 2.241 1.197 3.144 1.057 6.18 2.641 9.632 2.447.352-.021.709-.009.923-.377l3.449 2.137c-2.534.654-4.749.458-6.943.378-2.672-.098-5.258-.702-7.738-1.72-2.729-1.12-2.746-1.206-1.564-4.062Z" fill="#AF992E"/><path fill-rule="evenodd" clip-rule="evenodd" d="M186.868 120.075c-2.515 2.038-5.552 2.341-8.571 2.574-.668.05-1.713 1.172-2.18-.37.421-1.685.476-3.938 1.675-4.798 1.162-.831 3.065.554 4.623 1.002 1.506.433 3.146.559 4.453 1.592Z" fill="#FCDC42"/><path fill-rule="evenodd" clip-rule="evenodd" d="M141.628 139.722c-4.12.616-8.006 1.223-11.899 1.773-2.16.305-4.335.516-6.501.772-1.017.119-1.093-.313-.712-1.147.577-1.266 1.595-1.295 2.694-1.062 3.513.742 6.919.47 10.192-1.08.427-.203.849-.417 1.254-.66 2.825-1.684 2.822-1.687 4.972 1.404Z" fill="#AC972D"/><path fill-rule="evenodd" clip-rule="evenodd" d="M115.22 131.425c-4.562 2.848-9.678 3.706-14.866 4.312-.222-1.796 1.009-2.572 2.328-2.875 4.119-.944 8.267-1.803 12.538-1.437Z" fill="#AF992E"/><path fill-rule="evenodd" clip-rule="evenodd" d="M134.055 93.707c2.973.226 5.86-.043 8.603-1.396 1.171-.575 2.435-.901 3.769-.714-2.177 3.547-7.842 4.216-10.731 3.746-.888-.144-1.463-.703-1.641-1.636Z" fill="#9B7601"/><path fill-rule="evenodd" clip-rule="evenodd" d="M148.511 253.463c-.135-2.319.701-4.232 1.802-6.045 1.699-2.789 3.882-5.16 6.276-7.318 3.126-2.819 5.767-6.264 9.701-8.057 2.878-1.31 5.833-2.345 9.056-1.875 3.557.519 4.481 2.464 2.837 5.719-4.686 9.281-11.814 16.304-19.867 22.477-.377.289-.773.556-1.149.845-3.518 2.681-7.155 1.375-8.306-2.996-.245-.932-.429-1.881-.35-2.75Z" fill="#F78682"/><path fill-rule="evenodd" clip-rule="evenodd" d="M192.708 259.285c-1.737-.372-3.227-1.205-4.571-2.259-4.254-3.326-8.45-6.731-12.713-10.048-.871-.678-1.041-1.135-.343-2.106 1.88-2.62 3.656-5.318 5.428-8.017.616-.935 1.033-1.128 1.748-.059a89.919 89.919 0 0 1 10.379 21.025c.096.28.144.582.173.878.014.167-.053.341-.101.586Zm-34.989 2.182a44.523 44.523 0 0 1 5.228-4.164c.857-.579 1.852-.45 2.757-.271a2336.889 2336.889 0 0 1 20.626 4.157c.508.104 1.388-.094 1.364.778-.017.651-.802.597-1.264.732-3.287.972-6.676.833-10.027.681-5.592-.253-11.199-.46-16.751-1.322-.63-.098-1.239-.187-1.933-.591Zm30.117-1.92c-3.375-.181-6.537-.882-9.681-1.627-3.55-.841-7.065-1.838-10.61-2.687-.929-.222-1.289-.393-.629-1.341 1.553-2.222 3.535-4.019 5.453-5.883.427-.412.839-.336 1.272-.07 5.102 3.151 9.893 6.712 14.094 11.06.059.066.04.215.101.548Z" fill="#AA5D5A"/><path fill-rule="evenodd" clip-rule="evenodd" d="M131.117 257.656c.269-1.433 1.284-2.105 2.524-2.472a71.436 71.436 0 0 1 9.477-2.099c1.352-.206 2.367.24 2.789 1.586.654 2.072 1.693 3.956 2.609 5.899-1.003 1.324-2.727 1.573-4.315.625.023-.554.448-.608.834-.755-1.679.658-3.513-.148-5.182.625-3.357.976-5.984-.747-8.606-2.45-.3-.195-.361-.6-.13-.959Z" fill="#FDDD42"/><path fill-rule="evenodd" clip-rule="evenodd" d="M131.117 257.656c1.548 2.173 6.382 3.802 8.559 2.888 1.543.081 3.092.078 4.609.457 1.479.574 2.864.154 4.231-.432 1.794 2.785 1.638 3.208-1.52 4.04-4.602 1.213-9.088.992-13.403-1.153-2.37-1.174-3.153-3.047-2.476-5.8Z" fill="#AF992D"/><path fill-rule="evenodd" clip-rule="evenodd" d="M42.54 228.397c6.016-2.558 12.16-3.305 18.397-1.003 1.842.678 3.755 1.563 4.323 3.862-.865 1.438-2.298 1.463-3.708 1.549-3.956-.085-7.865.562-11.801.786-2.449.172-4.658-.417-6.446-2.221-.813-.822-1.555-1.703-.765-2.973Z" fill="#FDDD42"/><path fill-rule="evenodd" clip-rule="evenodd" d="M61.593 232.404c1.353.05 2.477-.647 3.665-1.145.45 2.059-.332 3.424-2.556 4.404-2.094.922-4.372.904-6.566 1.313-3.423.641-6.804.124-10.14-.659-1.642-.385-3.049-1.296-4.124-2.647-1.462-1.832-1.21-3.736.666-5.271.083 2.246 2.757 4.586 5.363 4.688.588.023 1.174.028 1.762.04-.02.455-.349.576-.698.704 3.645-.583 7.353-.355 11.006-.879.584-.085 1.16-.11 1.622-.548Zm-34.98-22.543c2.818 2.574 2.397 4.956-1.083 6.275-5.272 1.998-10.596 2.601-16.006.615-3.317-1.217-4.663-3.389-3.801-6.032.055-.158.204-.284.31-.425.29-.033.589-.112.872-.026 6.613 2.039 13.181 1.812 19.708-.407Z" fill="#AE982D"/><path fill-rule="evenodd" clip-rule="evenodd" d="M26.619 209.863c-1.641 1.59-3.882 1.97-5.857 2.073-4.736.249-9.572.691-14.146-1.272-.208-.087-.387-.244-.577-.37.311-.344.563-.829.949-1.008 6.131-2.824 12.314-3.672 18.552-.321.4.217.721.594 1.079.898Z" fill="#FDDD42"/><path fill-rule="evenodd" clip-rule="evenodd" d="M208.391 237.016c.443-.974 1.358-1.313 2.232-1.644 5.151-1.944 10.44-2.46 15.847-1.438 1.055.2 2.105.234 3.163.298 1.325.079 2.593.337 3.315 1.681.025.974-.793 1.053-1.396 1.329-1.133.52-2.369.631-3.568.871-2.166.069-4.308.675-6.356.434.448.15 1.215.057 1.385.942-.297.448-.758.569-1.226.589-3.757.161-7.512.213-11.149-.95-1.026-.327-2.222-.607-2.247-2.112Z" fill="#E2AC02"/><path fill-rule="evenodd" clip-rule="evenodd" d="M208.384 237.015c.259.576.684.984 1.262 1.191 4.338 1.564 8.782 1.746 13.293 1.054.731-.789 1.762-.347 2.603-.666.784-.297 1.745-.092 2.353-.88 1.679-.611 3.603-.501 5.047-1.801 1.234 2.272.984 3.502-1.053 4.851-1.963 1.299-4.144 1.924-6.462 2.226-4.046.524-8.064.731-12.111-.053-1.487-.288-2.811-.878-4.051-1.689-1.776-1.159-1.972-2.243-.881-4.233Z" fill="#9D7701"/><path fill-rule="evenodd" clip-rule="evenodd" d="M77.645 244.011c6.388-3.035 12.502-2.183 18.425 1.363-1.607 1.295-3.44 2.084-5.436 2.515-2.633-.63-4.948.628-7.36 1.313-1.145.418-2.303.389-3.451.053-2.627-.767-3.403-2.648-2.178-5.244Z" fill="#FCDD42"/><path fill-rule="evenodd" clip-rule="evenodd" d="M90.752 247.542c1.855-.522 3.433-1.75 5.33-2.164 2.056 1.734 1.833 4.285-.638 5.171-5.404 1.939-10.94 2.839-16.608 1.194-1.848-.537-3.06-1.78-3.27-3.809-.182-1.766.345-3.196 2.09-3.918-.005.178-.008.356-.014.536-.107 3.725 2.138 5.352 5.688 4.121.14.189.305.482.51.445 2.328-.431 4.777-.293 6.912-1.576Z" fill="#AF992D"/><path fill-rule="evenodd" clip-rule="evenodd" d="M266.54 223.663c1.685 2.384 1.393 4.008-1.168 5.11-4.522 1.948-9.107 1.374-13.551-.253-2.126-.779-3.043-4.441.198-6.275 3.268 3.393 7.293 2.587 11.25 2.086 1.102-.14 2.131-.706 3.271-.668Z" fill="#9C7702"/><path fill-rule="evenodd" clip-rule="evenodd" d="M266.552 223.663c-2.298 1.399-4.87 1.677-7.432 1.578-1.5-.061-3.074.142-4.541-.505-1.166-.511-2.227-1.096-2.548-2.491 5.196-3.495 10.729-2.955 14.521 1.418Z" fill="#E1AC02"/><path fill-rule="evenodd" clip-rule="evenodd" d="M224.242 163.93c.286-1.772.949-3.556 1.845-5.255.266-.51.687-.865 1.273-.791.64.08 1.133.534 1.217 1.149.318 2.296.023 4.536-1.081 6.571-.45.832-1.366.835-2.212.522-.954-.355-1.088-1.16-1.042-2.196Z" fill="#020203"/><path fill-rule="evenodd" clip-rule="evenodd" d="M233.577 138.802c-.101 1.725-.473 3.35-1.869 4.505-1.182.976-2.276.595-2.668-.892-.496-1.878 1.439-5.906 3.155-6.669.533-.237.787-.052.932.398.276.859.515 1.732.45 2.658Z" fill="#030203"/><path fill-rule="evenodd" clip-rule="evenodd" d="M221.331 178.679c1.46 2.593 1.685 5.128.918 7.756-.294 1.013-.868 1.951-2.103 1.75-1.248-.205-1.133-1.283-1.162-2.26-.083-2.653.54-5.039 2.347-7.246Z" fill="#020202"/><path fill-rule="evenodd" clip-rule="evenodd" d="M100.271 203.473c-.101-1.819.009-3.332 1.174-4.577.583-.622.963-.655 1.503.078.969 1.305.981 5.535-.107 6.786-.374.427-.885.987-1.47.772-.589-.216-1.032-.796-1.088-1.503-.052-.594-.012-1.194-.012-1.556Z" fill="#030203"/><path fill-rule="evenodd" clip-rule="evenodd" d="M104.026 177.125c-.061 1.664-.795 2.983-2.001 4.053-.188.164-.462.172-.606-.086-.736-1.325-1.283-2.701-.969-4.276.008-.059.032-.115.046-.174.344-1.342.866-3.374 1.996-3.213 1.19.169 1.418 2.237 1.534 3.696Z" fill="#020202"/><path fill-rule="evenodd" clip-rule="evenodd" d="M105.31 158.487c-.066 1.175-.187 2.3-1.26 3.019-.547.363-1.078.192-1.448-.194-.877-.908-.851-2.033-.563-3.19.314-1.251.97-3.061 1.892-2.934 1.217.165 1.278 2.009 1.379 3.299Z" fill="#040303"/><path fill-rule="evenodd" clip-rule="evenodd" d="M26.982 127.249c.026 1.211-.107 2.389-.478 3.541-.553 1.726-.987 1.864-2.394.69-1.952-1.629-1.514-3.881-1.375-5.999.069-1.066.718-1.803 1.806-2.184 1.303-.454 2.148-.404 2.22 1.275.04.893.144 1.784.221 2.677Z" fill="#010102"/><path fill-rule="evenodd" clip-rule="evenodd" d="M27.263 150.959c-.404 1.849-.008 3.756-1.212 5.308-.678.878-1.277 1.054-2.157.162-1.185-1.204-1.46-2.616-1.096-4.15.274-1.159.764-2.271 1.231-3.371.217-.513.338-1.25 1.122-1.212.796.036 1.3.56 1.56 1.277.244.67.388 1.378.552 1.986Z" fill="#010101"/><path fill-rule="evenodd" clip-rule="evenodd" d="M88.774 197.081c2.27 2.775 2.922 5.557 2.299 8.66-.19.931-.632 1.743-1.743 1.664-1.105-.077-1.65-.813-1.77-1.887-.311-2.797.513-5.418 1.214-8.437Z" fill="#020102"/><path fill-rule="evenodd" clip-rule="evenodd" d="M93.614 154.007c.028 1.276-.262 2.493-.699 3.673-.239.641-.643 1.181-1.379 1.219-.778.04-1.314-.414-1.698-1.074-1.078-1.838-.26-5.66 1.435-6.894.759-.555 1.275-.293 1.8.341.674.819.587 1.777.54 2.735Z" fill="#010101"/><path fill-rule="evenodd" clip-rule="evenodd" d="M88.567 174.732c-.107-1.932.456-3.733 2.073-5.127.575-.493.883-.42 1.146.283.736 1.95 1.003 3.927.445 5.972-.358 1.304-.969 2.462-2.51 2.198-1.47-.251-1.066-1.609-1.148-2.631-.017-.178-.006-.359-.006-.695Z" fill="#020101"/><path fill-rule="evenodd" clip-rule="evenodd" d="M25.579 171.817c.077 1.3-.135 2.473-1.09 3.464-.826.851-1.386.694-1.895-.271-1.053-1.996-.787-4.057-.165-6.078.225-.729.998-.953 1.748-.952.787 0 .868.618 1.075 1.189.318.865.275 1.76.327 2.648Z" fill="#010101"/><path fill-rule="evenodd" clip-rule="evenodd" d="m21.975 91.34-.272 1.406c-.132.687.023 1.696-.709 1.885-.794.206-1.317-.707-1.745-1.307-.957-1.344-1.144-2.871-.583-4.445.254-.7.652-1.316 1.506-1.284.781.03 1.11.648 1.33 1.272.276.787.53 1.597.473 2.472Z" fill="#020202"/><path fill-rule="evenodd" clip-rule="evenodd" d="M18.102 69.135v-1.968c-.006-.681.267-1.141.948-1.3.58-.136 1.012.067 1.388.522 1.303 1.583.24 4.975-1.73 5.487-.52.135-.595-.209-.6-.593-.012-.715-.003-1.432-.006-2.148Z" fill="#040303"/><path fill-rule="evenodd" clip-rule="evenodd" d="M53.014 18.512c-.912.023-1.762-.234-2.57-.58-.745-.32-.998-.982-.802-1.784.2-.819.807-.945 1.508-.854.698.089 1.4.165 2.083.303.93.185 1.935.333 1.762 1.711-.159 1.273-1.11 1.178-1.981 1.204Zm13.67 15.04c-.17.5-.248.926-.448 1.28-.277.49-.326 1.27-1.066 1.297-.836.03-.776-.82-.93-1.317-.34-1.077-.818-2.126-.84-3.296-.015-.741.172-1.329.962-1.484.695-.138 1.093.266 1.324.9.332.89.676 1.777.998 2.62Z" fill="#030202"/><path fill-rule="evenodd" clip-rule="evenodd" d="M35.164 24.291c.635-.05.676.37.545.812-.292.976-.617 1.948-1.416 2.645-.56.49-1.171 1.442-1.866.941-.525-.377-.352-1.51-.09-2.22.467-1.286 1.569-1.873 2.827-2.178Z" fill="#030302"/><path fill-rule="evenodd" clip-rule="evenodd" d="M169.945 160.615c.146-1.766-.698-3.371-1.837-4.894a7.82 7.82 0 0 1 .344-9.783c2.448-2.853 6.61-2.32 8.164 1.121 1.266 2.807 1.58 5.705-.179 8.433-1.407 2.189-1.05 4.614-1.223 6.988-.154 2.106-.888 2.729-2.947 2.612-1.775-.102-2.415-1.273-2.322-4.477Z" fill="#010101"/><path fill-rule="evenodd" clip-rule="evenodd" d="M93.174 87.94c.262 1.518-.147 2.77-1.465 3.405-1.377.66-2.471-.233-3.483-1.078-1.355-1.133-1.912-2.766-2.183-4.401-.193-1.165 1.061-1.572 1.878-2.08 1.199-.743 2.471-.861 3.607.111 1.228 1.055 1.981 2.373 1.646 4.042Z" fill="#F78782"/><path fill-rule="evenodd" clip-rule="evenodd" d="M92.805 93.928c7.463-3.218 14.835-5.736 23.086-5.377-1.922 1.513-20.961 5.943-23.086 5.377Z" fill="#050403"/><path fill-rule="evenodd" clip-rule="evenodd" d="M108.116 84.081c-.093.91-.173 2.153-1.877 2.088-2.491-.096-3.868-1.587-3.824-4.148.028-1.77.852-2.75 2.322-2.765 1.835-.019 3.402 2.07 3.379 4.825Zm12.408-5.017c-.024.42-.003.847-.078 1.256-.328 1.792-1.372 2.722-2.823 2.555-1.526-.174-2.488-1.435-2.433-3.188.038-1.325.66-2.426 1.448-3.389.608-.744 1.548-.862 2.44-.6.814.241 1.171.984 1.35 1.756.12.516.07 1.072.096 1.61Z" fill="#F78782"/><path fill-rule="evenodd" clip-rule="evenodd" d="M105.267 96.28c-.868.313-1.724.674-2.609.918-.496.137-1.119.85-1.526.127-.495-.873.629-.924.94-1.413 1.457-.39 2.913-.789 4.376-1.17.305-.08.706-.406.899.088.234.594-.294.635-.66.79-.483.199-.95.437-1.42.66Z" fill="#0E0B05"/><path fill-rule="evenodd" clip-rule="evenodd" d="M149.22 28.472c0 .06-.003.12 0 .181.046 1.552-.528 2.894-1.743 3.74-.836.582-1.485-.419-2.085-.892-1.218-.958-2.01-2.188-1.647-3.878.424-1.971 2.276-3.94 3.518-3.759 1.177.17 1.965 2.029 1.957 4.608Z" fill="#030303"/><path fill-rule="evenodd" clip-rule="evenodd" d="M163.059 29.875c-.219.812-.475 1.732-1.589 1.73-.741 0-1.314-.492-1.558-1.218-.126-.365 1.713-2.36 2.031-2.24.724.273 1.109.838 1.116 1.728Z" fill="#080604"/><path fill-rule="evenodd" clip-rule="evenodd" d="M130.835 29.718c-.074.96-.36 1.798-1.497 1.842-.811.032-1.385-.383-1.385-1.273 0-1.346 1.07-1.667 2.031-1.838.812-.145.826.635.851 1.269Z" fill="#080606"/><path fill-rule="evenodd" clip-rule="evenodd" d="M248.122 186.527c-.008 1.744-1.116 3.144-2.485 3.144-1.344 0-2.873-1.712-2.823-3.159.055-1.513 1.347-2.68 2.985-2.69 1.548-.01 2.332.904 2.323 2.705Zm-11.659-2.607c-.014 1.871-1.141 3.264-2.611 3.195-1.646-.079-2.001-1.276-2.023-2.626-.029-1.815 1.09-3.138 2.509-3.103 1.324.031 2.141 1.003 2.125 2.534Z" fill="#F78782"/><path fill-rule="evenodd" clip-rule="evenodd" d="M258.367 185.297c.718-.007 1.768.905 1.734 2.083-.035 1.296-1.297 2.689-2.457 2.582-1.448-.133-1.993-1.258-1.996-2.511-.002-1.245.663-2.151 2.719-2.154Zm9.037-1.107c.795.029 1.542.417 1.606 1.534.085 1.439-1.235 3.261-2.299 3.192-1.072-.069-1.753-.724-1.866-1.804-.135-1.269 1.232-2.889 2.559-2.922Z" fill="#F78881"/><path fill-rule="evenodd" clip-rule="evenodd" d="M207.067 29.961c-.299.8-.052 1.989-1.528 1.562-1.696-.487-3.103-3.66-2.252-5.132.225-.391.349-.707.894-.368 1.496.932 2.347 2.308 2.886 3.938Z" fill="#040303"/><path fill-rule="evenodd" clip-rule="evenodd" d="M196.005 16.694c-.897-.053-1.537-.838-1.906-1.819-.407-1.072-.508-2.224.02-3.292.211-.42.681-.461 1.036-.053.896 1.033 1.866 2.032 2.434 3.289.473 1.04-.211 1.922-1.584 1.875Z" fill="#040404"/><path fill-rule="evenodd" clip-rule="evenodd" d="M76.188 28.99c1.718.516 2.61 1.546 3.076 3.013.277.881.075 1.617-.813 1.898-.814.26-1.359-.195-1.549-1.041-.275-1.219-.696-2.411-.715-3.87Z" fill="#070605"/><path fill-rule="evenodd" clip-rule="evenodd" d="M75.262 19.556c-3.021-1.422-3.411-2.343-2.001-4.44.638 1.417 1.245 2.765 2.001 4.44Z" fill="#090807"/><path fill-rule="evenodd" clip-rule="evenodd" d="M103.469 139.472c3.201-.42 5.767-2.697 8.906-.609-2.876.781-5.488 2.103-8.906.609Z" fill="#0B0904"/><path fill-rule="evenodd" clip-rule="evenodd" d="M93.086 116.489c.623-1.247 1.257-1.843 2.339-1.771.395.027.89-.088 1 .474.127.642-.42.59-.793.684-.726.181-1.458.352-2.546.613Z" fill="#140E04"/><path fill-rule="evenodd" clip-rule="evenodd" d="M113.391 113.159c.456-2.131 1.591-2.279 3.428-1.861l-3.428 1.861Z" fill="#171102"/><path fill-rule="evenodd" clip-rule="evenodd" d="M231.928 207.586a10.913 10.913 0 0 1-4.811.856c1.482-.915 3.192-.576 4.811-.856Z" fill="#4A3804"/><path fill-rule="evenodd" clip-rule="evenodd" d="M56.232 114.72c-2.468 2.641-5.352 2.64-8.623 1.382l1.325-.625c1.938-.451 3.878-.904 5.814-1.358.636-.148 1.308-.415 1.484.601Z" fill="#070502"/><path fill-rule="evenodd" clip-rule="evenodd" d="M121.031 98.573c.611-2.122 1.6-2.116 2.905-1.39-.705.856-1.728.781-2.905 1.39Z" fill="#2C1F03"/><path fill-rule="evenodd" clip-rule="evenodd" d="M91.15 126.278c-.002.458-.1.907-.668.7-.786-.288-1.718-.276-2.287-1.052 1.11-.97 1.968.25 2.956.352Z" fill="#140F05"/><path fill-rule="evenodd" clip-rule="evenodd" d="M70.658 124.522c-2.601 1.471-5.134-.006-7.697-.114 2.57-1.612 5.138-1.141 7.697.114Z" fill="#060403"/><path fill-rule="evenodd" clip-rule="evenodd" d="M113.041 124.467c-2.486 1.283-5.102 1.92-7.897 1.812-.94-.036-1.451-.335-1.248-1.38 2.509-.47 5.024-.931 7.529-1.414.847-.163 1.512-.09 1.616.982Z" fill="#0A0804"/><path fill-rule="evenodd" clip-rule="evenodd" d="M133.939 103.602c-.704-.265-1.407-.533-2.111-.8v-.319l5.511-.92c.058.857-.62 1.093-.885 1.591-.778.5-1.663.385-2.515.448Z" fill="#090603"/><path fill-rule="evenodd" clip-rule="evenodd" d="M144.281 261c-1.606.554-3.117.159-4.609-.457 1.848-.739 3.729-.053 5.643-.053-.346.171-.691.339-1.034.51Z" fill="#322B0D"/><path fill-rule="evenodd" clip-rule="evenodd" d="M61.613 232.403c.165.97-.406 1.013-1.14 1.063-3.881.262-7.757.588-11.639.855-.505.035-1.383.487-1.427-.428-.037-.77.836-.315 1.281-.471.327-.115.663-.199.992-.296 3.403-.295 6.81-.585 10.212-.885.587-.051 1.172-.184 1.721.162Z" fill="#060503"/><path fill-rule="evenodd" clip-rule="evenodd" d="M10.172 213.454c4.896-.348 9.788-.697 14.684-1.048.014.167.026.331.041.496-4.733 2.44-9.751 1.18-14.725.552Z" fill="#050502"/><path fill-rule="evenodd" clip-rule="evenodd" d="M227.89 237.714c-.185.723-.314.869-.99 1.099-1.289.44-2.638.339-3.966.447l-3.281-.581a10.384 10.384 0 0 1-.02-.347c2.751-.206 5.503-.413 8.257-.618Z" fill="#191202"/><path fill-rule="evenodd" clip-rule="evenodd" d="M90.75 247.54c.15.747-.127 1.03-.891 1.138-1.9.269-3.784.647-5.673 1-.88.165-1.251-.072-.857-1.009 1.848-.482 3.598-1.356 5.546-1.429.643-.023 1.28.018 1.875.3Z" fill="#0D0B04"/><path fill-rule="evenodd" clip-rule="evenodd" d="M261.193 226.38c-1.696.661-3.337.632-4.951.775 1.392-1.485 3.036-1.445 4.951-.775Z" fill="#1E1702"/></svg>