<svg width="443" height="456" fill="none" xmlns="http://www.w3.org/2000/svg"><g filter="url(#a)" clip-path="url(#b)"><path d="m76.022 420.2-53.67-302.53c32.85-36.97 105.18-100.79 197.71-100.79s171.14 60.53 204.36 114.92c-7.92 43.32-55.94 289.39-55.94 289.39l-108.82 19.46-183.64-20.45Z" fill="#2D252D"/><path d="m42.734 326.57 1.85-7.39 19.71-3.71 3.95 3.98 14.84 96.92-7.12 9.89-10.73.65-3.64-3.89-18.86-96.45Z" fill="#755D6E"/><path d="m44.582 319.18-3.83-3.71-18.4-85.85 1.98-5.51 18.4-6.33 6.72 1.44 17.25 91.85-2.41 4.4-19.71 3.71Z" fill="#8E6F83"/><path d="m54.96 389.14 6.81 21.64 7.88 4.04 6.57-8.18-1.78-16.6-3.64-15.01-6.46-8.12-.2-14.03 5.35-8.1.33-14.99 13.26 86.58-7.12 9.89-10.73.65-3.64-3.89-6.63-33.88Z" fill="#7F6660" style="mix-blend-mode:multiply" opacity=".1"/><path d="m42.73 217.78 5.53-6.17-10.28-72.18-3.56-8.29-24.13-8.8-9.3 2.41-.99 7.87 18.99 89 5.34 2.49 18.4-6.33Z" fill="#AF8CA2"/><path d="m10.29 122.34-2.58-7.42 7.55-15.11 33-37.49 18.88-13.86h10.4l13.58 22.16v6.8l-30.57 27.81-19.8 22.93-6.33 2.98-24.13-8.8Z" fill="#8E6F83"/><path d="m77.54 48.46 2.77-7.32 38.789-22.94 26.48-10.09 11.77 3.17 7.06 28.28-3.03 5.93-61.89 28.09-8.37-2.96-13.58-22.16Z" fill="#755D6E"/><path d="m59.82 413.94 4.66 7.87h5.17l6.31-2.17 3.36-5.24.89-6.28-1.19-12.22-.19-5.86 2.95 19.11v4.65l-3.35 9.99-9.3 2.67-3.9.45-3.64-3.89-1.77-9.08Z" fill="#7F6660" style="mix-blend-mode:multiply" opacity=".35"/><path d="m241.322 0 37.79 3.39 5.98 7.89-7.06 28.28-7.06 3.16-23.12-1.87h-50.84l-25.54 1.87-7.06-3.16-7.06-28.28 7.76-8.1L196.422 0h44.9ZM61.77 433.32l-1.27 5.27 1.27 13.46 3.54 3.16 195.03-1.85 3.04-3.69V434.9l-14.1-22.18-167.5.29-3.43 1.06-16.58 19.25Z" fill="#AF8CA2"/><path d="m198.383 439.12 9.19-2.9 13.65-1.58 13.65-3.03 2.28-5.15-2.28-4.09-1.81-3.39 1.81-3.13h8.48l4.22-1.03 1.79-1.97 14.02 21.89-5.91 3.06-17.93 1.32h-41.16Z" fill="#7F6660" style="mix-blend-mode:multiply" opacity=".1"/><path d="m399.709 326.57-1.85-7.39-19.71-3.71-3.95 3.98-14.84 96.92 7.12 9.89 11.37.69 2.86-3.24 19-97.14Z" fill="#8E6F83"/><path d="m365.183 378.36 1.04 16.08 2.93 9.24 5.05 2.96 5.34-4.78 2.49-7.42 3.56-2.6 3.89-13.48-8.77 45.35-2.86 3.24-11.37-.69-6.35-10.82v-4.07l5.05-33.01Z" fill="#7F6660" style="mix-blend-mode:multiply" opacity=".1"/><path d="m397.864 319.18 3.83-3.71 18.4-85.85-1.98-5.51-18.4-6.33-6.72 1.44-17.26 91.85 2.42 4.4 19.71 3.71Z" fill="#AF8CA2"/><path d="m399.71 217.78-5.53-6.17 10.28-72.18 3.56-8.29 24.13-8.8 9.3 2.41.99 7.87-18.99 89-5.34 2.49-18.4-6.33Z" fill="#755D6E"/><path d="m77.703 414.82 2.79 6.1 13.96 5.15 19.8 2.77 1.45 2.37-1.32 2.11-8.57.64-5.05 2-.91 2.23 1.85 1.46-34.04.59-5.1-1.9-.79-5.02 15.93-18.5Z" fill="#7F6660" style="mix-blend-mode:multiply" opacity=".1"/><path d="M363.739 389.14v20.51l4.63 6.53 4.42 2.8 5.34 1.15 2.24-1.99 5.04-18.43-4.7 24-2.86 3.24-11.37-.69-7.12-9.89 4.38-27.23Z" fill="#7F6660" style="mix-blend-mode:multiply" opacity=".35"/><path d="m432.15 122.34 2.58-7.42-5.97-13.31-34.58-39.29-18.88-13.86h-10.4l-13.58 22.16v6.8l30.57 27.81 19.8 22.93 6.33 2.98 24.13-8.8Z" fill="#AF8CA2"/><path d="m364.901 48.46-2.77-7.32-38.79-22.94-26.48-10.09-11.77 3.17-7.06 28.28 3.03 5.93 61.88 28.09 8.38-2.96 13.58-22.16Z" fill="#8E6F83"/><path d="m68.242 319.45 5.84-2.57h8.23l12.14 83.08-12.67 9.69-13.54-90.2Z" fill="#49323F"/><path d="m382.031 435.89.1 4-1.46 12.16-3.54 3.16-110.71-2.01-3.04-3.69v-14.77l-14.1-22.02 3.76.01 107.62.28 3.43 1.06 17.94 21.82Z" fill="#8E6F83"/><path d="M81.781 413.01v-3.36l14.15-12.6h70.73l2.01 3.3-6.61 12.37-80.28.29Z" fill="#755D6E"/><path d="m162.062 412.72 6.611-12.37 6.91-3.3h170.93l12.74 11.61 1.41 4.35-198.601-.29Z" fill="#AF8CA2"/><path d="m298.695 410.78 13.3.43 48.14.16-.88-2.71-8.13-6.17h-21.71l9.88 1.92 8.7 2.23v1.95l-4.95 1.46-7.61-2.01-6.53-.29-6.48 1.71-11.8.88-11.93.44Zm-117.855 0-4.64-2.66v-3.09l4.61-1s15.43.27 15.83 0c.4-.27 19.87-.69 19.87-.69l30.31.69 16.53-.69 34.3-.86h-126.8l-2.92 2.54-1.68 5.71 14.59.05Z" fill="#7F6660" style="mix-blend-mode:multiply" opacity=".1"/><path d="m66.703 311.07 6.95 1.33 7.7-.67-13.93-95.99-12.15.92-5.82 2.56 17.25 91.85Z" fill="#49323F"/><path d="m298.242 412.85 62.42.16 3.43 1.06 13.78 16.76-10.96-5.95-8.7-.66-4.88-3.69-9.63-2.9-14.43 1.35-11.55-1.48-4.61-2.68-14.87-1.97Z" fill="#7F6660" style="mix-blend-mode:multiply" opacity=".1"/><path d="m48.264 211.61 7.01 1.4 11.54-1.4-11.19-75.26-13.22-.53-4.42 3.61 10.28 72.18Z" fill="#49323F"/><path d="m40.75 128.16 2.17 3.64 12.35 2.2 16.14-19.47 28.6-24.73-4.27-9.01-4.62-3.37-30.57 27.81-19.8 22.93Zm58.742-54.58v5.64l4.24 8.25 26.41-14.66 36.61-12.78-1.53-10.28-3.84-4.26-61.89 28.09Zm274.71 245.87-5.84-2.57h-8.23l-12.14 83.08 12.43 9.5 13.78-90.01Zm1.532-8.38-6.94 1.33-7.7-.67 13.93-95.99 12.15.92 5.82 2.56-17.26 91.85Zm18.449-99.46-7.01 1.4-11.54-1.4 11.18-75.26 13.23-.53 4.42 3.61-10.28 72.18Zm7.507-83.45-2.17 3.64-12.35 2.2-16.14-19.47-28.6-24.73 4.27-9.01 4.62-3.37 30.57 27.81 19.8 22.93Zm-58.747-54.58v5.64l-4.23 8.25-26.41-14.66-37.1-12.95 2.02-10.11 3.84-4.26 61.88 28.09Zm-171.47-30.86-2.45 6.04 1.88 10.38 32.24-4.15 18.08-1.13 33.63 2.33 15.72 2.58 2.3-9.22-1.9-6.83-23.12-1.87h-50.84l-25.54 1.87Z" fill="#382633"/><path d="m61.77 433.32.79 5.02 5.1 1.9 64.27-1.12h107.61l17.93-1.32 5.91-3.06v14.77l-3.04 3.85-195.03 1.85-3.54-3.16-1.27-13.46 1.27-5.27Zm201.609 1.42-14.02-21.89h3.76l15.69 24.49 4.45 1.88 71.47-.49 31.49.69 4.42-2.01 1.39-1.52.1 4-1.46 12.16-3.54 3.16-110.71-2.01-3.04-4.98v-13.48Z" fill="#7F6660" style="mix-blend-mode:multiply" opacity=".35"/><path d="m162.062 412.72 5.471-10.23h3.32l-2.921 2.54-1.679 5.71 193.88.63.53 1.64-111.3-.16-83.521-.13h-3.78Z" fill="#7F6660" style="mix-blend-mode:multiply" opacity=".5"/><path d="m44.203 333.88-1.43-7.31 1.86-7.39 19.7-3.71 4 4 6.2 41.34s-4.22-20.6-6.2-28.7c-1.98-8.1-3.46-12.29-9.1-11.39-5.64.9-6.81 1.5-9.69 2-2.7.4-7.21 1.85-5.34 11.16Z" fill="#997386" style="mix-blend-mode:screen" opacity=".5"/><path d="m59.106 270.58-9.65-51.36-6.73-1.45-18.39 6.34-2 5.5 6.64 31c-2.29-18-3.09-22.73-3.47-27.21-.4-4.64 1.38-6 6.46-6.79a52.038 52.038 0 0 0 9.25-2.51c4.99-1.64 7.05-.75 17.89 46.48Z" fill="#997386" style="mix-blend-mode:screen" opacity=".8"/><path d="m42.532 171.35-4.55-31.94-3.56-8.28-24.14-8.78-9.29 2.41-1 7.86 4.1 19.22c.18-8.09-.08-12.83.05-18.7.13-5.87 1.58-7.59 7-3.64 5.42 3.95 10.12 5 15.69 4.51 3.97-.37 10.69 7.74 15.7 37.34ZM15.266 99.8l33-37.48 18.88-13.86h10.4l13.58 22.15v6.81l-13.58 12.35c6.92-9.6 10.48-14.34 7.45-19-3.03-4.66-7.45-6.42-9.79-11.63-2.79-6.3-14.72-3.1-22.84 3.1s-23.22 23.83-37.1 37.56Zm76.367-65.35 27.47-16.25 26.48-10.09 11.77 3.16 7.06 28.29-3 5.93-16.63 7.55c11.05-7.55 10.92-7.74 13-12.19 2.08-4.45 1.39-8-3.23-12.37-3.7-3.47-5.4-8.7-6.33-12.13-.85-3.18-5-5.34-23.09 2.34-12.71 5.31-33.5 15.76-33.5 15.76ZM196.422 0h44.9l37.79 3.35 6 7.88-7.06 28.29c1.6-15.82 1-18.59 0-23.74-1-5.15-6.14-9.42-13.57-10-8.18-.66-17.8-2.11-24.26-3-6.3-.91-26.02-2.26-43.8-2.78Z" fill="#997386" style="mix-blend-mode:screen" opacity=".5"/><path d="m296.86 8.11 26.48 10.09 38.79 22.94 2.77 7.32-12.49 20.37c4.89-11.07 7-15.82 5.94-20.37-1.06-4.55-5.8-10-18.86-13.91-13.06-3.91-22.56-10.93-31.29-16.62-10.68-7-22.68-8.53-25.27 1.85 1.27-5 2.12-8.51 2.12-8.51l11.81-3.16Z" fill="#997386" style="mix-blend-mode:screen" opacity=".5"/><path d="m359.07 57.97 5.83-9.51h10.4l18.9 13.89 34.59 39.29 6 13.31c-8.59-12.59-25-32.11-33-40-8-7.89-11.8-9.45-16.1-8.42-4.3 1.03-8.91-3.18-11.55-8.85-2.64-5.67-10.01-6.93-15.07.29Zm42.625 100.89 2.77-19.44 3.56-8.28 24.18-8.79 9.3 2.41 1 7.86-8.42 39.45c2.4-18.3 3.85-28.59 4.11-34.92.26-6.33-4-8.68-10.29-5.53-6.29 3.15-9.62 3.6-13 2.39-3.38-1.21-8.51 1.2-13.21 24.85Zm-15.492 96.3 6.82-35.94 6.72-1.45 18.4 6.34 2 5.5-10.28 47.95c2.87-19 5.11-33.87 5.38-41 .27-7.13.13-7.8-5.54-7.8-5.41 0-8.35-4-9.94-5.07-3.17-2.08-5.01.35-13.56 31.47Z" fill="#997386" style="mix-blend-mode:screen" opacity=".5"/><path d="m371.102 340.08 3.1-20.63 4-4 19.71 3.71 1.85 7.39-10.4 53.2c2.93-24.12 6.23-42.14 6.89-48.3.66-6.16.1-8.86-4.75-8.95-4-.09-9-.3-11.28-.89-2.11-.52-4.94-2.77-9.12 18.47Z" fill="#997386" style="mix-blend-mode:screen" opacity=".8"/><path d="m262.805 427.96 7.89 8.39 6.56 1.19h22.29c.39 0 22.55-1.59 22.55-1.59l20.44 1.06 28.31.53 6.24-.93v-3.26l-6-7.91-3-6.43 13.89 16.91-1.38 1.52-4.42 2-28.23-.62-23.14.06-51.59.36-4.4-1.89-6.01-9.39Z" fill="#997386" style="mix-blend-mode:screen" opacity=".5"/><path d="M81.781 413.01v-3.36l4.76 1.68 29.77.4 33.72.19 10.09-.59 3.22-1-1.28 2.39-80.28.29Z" fill="#7F6660" style="mix-blend-mode:multiply" opacity=".35"/><path d="m160.206 22.79-2.87-11.52 7.75-8.09L196.406 0c-8.58 1.58-24.93 4.09-28.09 6.33s-10.11 3.66-8.11 16.46Zm7.724 382.24.74 4.62 57.22 1.28 39.63-1.28 25.31.86 19.79.7-144.37-.47 1.68-5.71Zm-46.245 5.81 10.72.06 14.67-.36h9.59l4.55-.79 2.77-2 3.08-4.39-3.72 6.97-3.22 1-10.09.59-45.66-.42 17.31-.66Z" fill="#997386" style="mix-blend-mode:screen" opacity=".5"/><path d="m37.672 301.1 5.06 12.71 6.32.66 8.71-1.15 5.83-3.25-1.28-12.97-1.23-15.99 5.62 29.96-2.41 4.4-19.71 3.71-3.83-3.71-3.08-14.37Zm-20.899-89.87 3.89 6.99 7.89 1.21 9.43-2.01 6.55-8.14v-10.69l-1.26-22.03 4.99 35.05-5.53 6.17-18.4 6.33-5.34-2.49-2.22-10.39ZM15.26 99.81l-4.51 14.39 3.03 5.27 17.01 6.33h7.19l20.24-21.75 11.43-9.76 7.89-4.51-16.99 15.45-19.8 22.93-6.33 2.98-24.13-8.8-2.58-7.42 7.55-15.11Zm70.226-61.73-3.39 4.64v8.31l11.11 15.45 7.78 2.75s17.41-5.67 18.47-6.2c1.06-.53 25.34-10 25.34-10l-45.26 20.54-8.37-3-13.58-22.15 2.77-7.32 5.13-3.02Zm74.975-14.32 6.29 12.37 6.99 2.9 23.34-.56 24.14-.38 21.22.94 11.21-.56 16.61 1.75 6.34-1.75 1.88-3.66-.45 4.75-7.06 3.16-23.12-1.87h-50.84l-25.54 1.87-7.06-3.16-3.95-15.8Z" fill="#7F6660" style="mix-blend-mode:multiply" opacity=".35"/><path d="M280.501 29.66v8.81l3.48 4.25 24.26 11.14 21.23 10.06 12.96 6.63 7.88-.79 3.67-4.49-2.66 5.35-8.38 2.96-61.88-28.09-3.03-5.93 2.47-9.9Z" fill="#7F6660" style="mix-blend-mode:multiply" opacity=".35"/><path d="m357.53 60.48-3.55 10.07v5.14l11.49 10.38 19.26 17.31 11.2 13.19 9.89 8.97 6.99 1.45 13.19-3.96 5.27-3.03 3.46-5.08-2.58 7.42-24.13 8.8-6.33-2.98-19.8-22.93-30.57-27.81v-6.8l6.21-10.14Zm40.66 122.93-.28 24.41 5.22 6.29 14.04 4.79 4.9-1.48 5.17-13.57-3.79 17.77-5.34 2.49-18.4-6.33-5.53-6.17 4.01-28.2Zm-18.476 106.44-.17 20.22 6.05 3.25 10.61 2.15 3.51-2.28 7.03-21.29-5.05 23.57-3.83 3.71-19.71-3.71-2.42-4.4 3.98-21.22ZM104.06 402.49l-13.14 1.56-3.95 4.07 1.45 1.53 15.95 1.85-17.83-.17-4.76-1.68-3.71-25.99 5.73 18.83h2.64l3.56-2.14-1.24-15.36 2.56 17.5h12.74Zm250.39-22.72-.68 19.89 2.87 2.83 3.36.53 4.83-22.37-4.7 30.72-2.5-2.81-7.52-4.75-19.93-1.32h20.94l3.33-22.72ZM60.922 280.29l7.32 27.99 6.2.89 3.06-.89.55 3.74-4.4.38-6.95-1.33-5.78-30.78ZM43.273 176.56l7.17 31.73 4.45 2.32 8.14-.63.3 2.05-8.06.98-7.01-1.4-4.99-35.05Zm10.387-63.35-7.28 11.9v3.46l4.16 1.88h3l-1.94 2.66.03.25-8.71-1.56-2.17-3.64 12.91-14.95Zm56.902-34.41-5.33.9-1.5-3.28 1.8-4.02 13.48-7.68-19.52 8.86v5.64l2.38 5.24 8.69-5.66Zm35.071-26.36 15.75-6.95 3.84 4.26 1.45 9.77-13.97 1.09 10.19-4.04.1-5.14-4.03-2.18-13.33 3.19Zm51.38-11.59-25.54 1.87-2.45 6.04 1.88 10.38 22.65-2.37-16.67-.94-1.63-3.91 1.63-7.32 20.13-3.75Zm50.839 0 23.12 1.87 1.9 6.83-2.3 9.22-15.8-1.66 12.86-1.23 2.08-5.89-2.58-5.58-19.28-3.56Zm78.812 25.34 16.28 7.39v5.64l-4.23 8.25-4.64-2.57 5.06-6.81-.1-3.62-12.37-8.28Z" fill="#7F6660" style="mix-blend-mode:multiply" opacity=".35"/><path d="m387.172 128.15 7.01.82 3.5-2.08-10.22-15.2 14.23 16.47-2.17 3.64-8.68 1.31-3.67-4.96Zm-7.188 77.66 6.2 2.08 5.47-1.04 6.37-22.21-3.84 26.97-7.01 1.4-8.08-.89.89-6.31Zm-14.49 98.7 4.6 1.39 4.11-.69 6.58-20.98-5.05 26.84-7.13.8h-4.19l1.08-7.36Z" fill="#7F6660" style="mix-blend-mode:multiply" opacity=".35"/><path d="M221.2 398.99V53.86c-71.86 0-130 30.59-165.95 80.14 10.8 71.77 39.07 265 39.07 265l126.88-.01Z" fill="url(#c)"/><path d="m106.344 102.48 28.66 282.51h2.02l-27.82-284.51-2.86 2Zm52.617-25.41 11.02 307.92h2.74l-11.51-308.57-2.25.65Z" fill="#774040"/><path fill-rule="evenodd" clip-rule="evenodd" d="m73.672 164.76 133.9-23.94v1.59l-133.64 24.07-.26-1.72Z" fill="url(#d)"/><path fill-rule="evenodd" clip-rule="evenodd" d="m97.531 326.57 110.04-.21v1.43H97.711l-.18-1.22Z" fill="url(#e)"/><path fill-rule="evenodd" clip-rule="evenodd" d="m207.568 383.73-99.99-.6-36.72-246.87-1.21 1.53 36.44 247.2h101.48v-1.26Z" fill="url(#f)"/><path d="M55.273 134c10.8 71.77 39.07 265 39.07 265h126.86V53.86c-71.84 0-129.94 30.59-165.93 80.14Zm152.3 251h-101.48c-6.13-41.91-26.86-183.25-36.44-247.2 32.46-41.85 80.87-66.21 137.92-69.54V385Z" fill="url(#g)"/><path d="m75.75 169.15 131.82-23.74v17.12L77.89 183.56l-2.14-14.41Z" fill="#73377F" style="mix-blend-mode:multiply" opacity=".45"/><path d="m73.93 166.48 133.64-24.07v17.12L76.22 181.92l-2.29-15.44Z" fill="url(#h)"/><path d="M99.648 329.79h107.92v14.99h-105.69l-2.23-14.99Z" fill="#73377F" style="mix-blend-mode:multiply" opacity=".45"/><path d="M97.71 327.79h109.861v14.99H99.911l-2.2-14.99Z" fill="url(#i)"/><path d="M95.864 172.06a3.297 3.297 0 0 1-2.105 2.977 3.307 3.307 0 0 1-3.561-.778 3.305 3.305 0 0 1-.672-3.584 3.299 3.299 0 0 1 3.038-2.015 3.36 3.36 0 0 1 3.3 3.4Z" fill="#73377F" style="mix-blend-mode:multiply" opacity=".35"/><path d="M96.77 171.26a3.303 3.303 0 0 1-2.105 2.977 3.299 3.299 0 1 1-1.195-6.377 3.357 3.357 0 0 1 3.3 3.4Z" fill="url(#j)"/><path d="M94.052 173.17a2.795 2.795 0 0 1-2.75-2.82 2.861 2.861 0 0 1 1.14-2.29 3.407 3.407 0 0 0-2.27 3.22 3.3 3.3 0 0 0 6.6 0v-.34a2.777 2.777 0 0 1-2.72 2.23Z" fill="#46395B" style="mix-blend-mode:multiply" opacity=".25"/><path d="M95.34 169.35a.94.94 0 1 1-.93-.89.91.91 0 0 1 .93.89Z" fill="#937D58" style="mix-blend-mode:screen" opacity=".5"/><path d="M141.45 163.74a3.294 3.294 0 0 1-4.015 3.131 3.306 3.306 0 0 1-2.532-2.641 3.303 3.303 0 0 1 1.46-3.354 3.296 3.296 0 0 1 1.837-.526 3.35 3.35 0 0 1 3.25 3.39Z" fill="#73377F" style="mix-blend-mode:multiply" opacity=".35"/><path d="M142.364 162.94a3.304 3.304 0 0 1-2.114 2.97 3.298 3.298 0 0 1-3-5.835 3.3 3.3 0 0 1 1.824-.545c.44.007.875.1 1.279.275a3.356 3.356 0 0 1 1.782 1.847c.16.41.238.848.229 1.288Z" fill="url(#k)"/><path d="M139.641 164.85a2.777 2.777 0 0 1-1.067-.229 2.777 2.777 0 0 1-1.683-2.611 2.858 2.858 0 0 1 1.14-2.29 3.375 3.375 0 0 0-2.26 3.22 3.299 3.299 0 0 0 6.393 1.317c.154-.421.221-.869.197-1.317v-.35a2.768 2.768 0 0 1-2.72 2.26Z" fill="#46395B" style="mix-blend-mode:multiply" opacity=".25"/><path d="M140.942 161.05a.94.94 0 1 1-.94-.9.907.907 0 0 1 .656.255.92.92 0 0 1 .284.645Z" fill="#937D58" style="mix-blend-mode:screen" opacity=".5"/><path d="M187.044 155.42a3.3 3.3 0 1 1-3.291-3.41 3.335 3.335 0 0 1 3.061 2.122c.161.41.239.847.23 1.288Z" fill="#73377F" style="mix-blend-mode:multiply" opacity=".35"/><path d="M187.965 154.62a3.296 3.296 0 0 1-2.111 2.969 3.305 3.305 0 0 1-3.558-.784 3.303 3.303 0 0 1 .548-5.046 3.295 3.295 0 0 1 1.821-.549 3.344 3.344 0 0 1 2.358 1.02 3.353 3.353 0 0 1 .942 2.39Z" fill="url(#l)"/><path d="M185.202 156.52a2.8 2.8 0 0 1-2.75-2.83 2.857 2.857 0 0 1 1.14-2.29 3.38 3.38 0 1 0 4.34 3.22v-.35a2.76 2.76 0 0 1-2.73 2.25Z" fill="#46395B" style="mix-blend-mode:multiply" opacity=".25"/><path d="M186.535 152.72a.94.94 0 1 1-.94-.89.921.921 0 0 1 .94.89Z" fill="#937D58" style="mix-blend-mode:screen" opacity=".5"/><path d="M213.105 64.73c1.822 0 3.3-1.527 3.3-3.41 0-1.883-1.478-3.41-3.3-3.41-1.823 0-3.3 1.527-3.3 3.41 0 1.883 1.477 3.41 3.3 3.41Z" fill="#73377F" style="mix-blend-mode:multiply" opacity=".35"/><path d="M217.309 60.52a3.299 3.299 0 1 1-3.3-3.41 3.353 3.353 0 0 1 3.067 2.121c.162.41.241.849.233 1.29Z" fill="url(#m)"/><path d="M214.595 62.42a2.786 2.786 0 0 1-2.553-1.76 2.765 2.765 0 0 1-.197-1.07 2.86 2.86 0 0 1 1.13-2.29 3.38 3.38 0 1 0 4.34 3.22 2.272 2.272 0 0 0 0-.35 2.765 2.765 0 0 1-2.72 2.25Z" fill="#46395B" style="mix-blend-mode:multiply" opacity=".25"/><path d="M215.879 58.62a.937.937 0 0 1-.547.904.94.94 0 1 1-.383-1.794.92.92 0 0 1 .93.89Z" fill="#937D58" style="mix-blend-mode:screen" opacity=".5"/><path d="M129.23 84.91c1.822 0 3.3-1.527 3.3-3.41 0-1.883-1.478-3.41-3.3-3.41-1.823 0-3.3 1.527-3.3 3.41 0 1.883 1.477 3.41 3.3 3.41Z" fill="#73377F" style="mix-blend-mode:multiply" opacity=".35"/><path d="M133.442 80.69a3.296 3.296 0 0 1-4.003 3.124 3.297 3.297 0 0 1-2.539-2.616 3.3 3.3 0 0 1 3.242-3.908 3.362 3.362 0 0 1 3.3 3.4Z" fill="url(#n)"/><path d="M130.724 82.6a2.79 2.79 0 0 1-2.75-2.84 2.87 2.87 0 0 1 1.13-2.29 3.4 3.4 0 0 0-2.26 3.22 3.3 3.3 0 1 0 6.6 0v-.34a2.781 2.781 0 0 1-2.72 2.25Z" fill="#46395B" style="mix-blend-mode:multiply" opacity=".25"/><path d="M132.011 78.8a.936.936 0 0 1-.546.905.94.94 0 1 1-.384-1.795.907.907 0 0 1 .93.89Z" fill="#937D58" style="mix-blend-mode:screen" opacity=".5"/><path d="M66.06 135.82a3.301 3.301 0 1 1-3.3-3.41 3.36 3.36 0 0 1 2.357 1.02 3.351 3.351 0 0 1 .942 2.39Z" fill="#73377F" style="mix-blend-mode:multiply" opacity=".35"/><path d="M66.981 135.02a3.3 3.3 0 1 1-3.3-3.41 3.36 3.36 0 0 1 2.358 1.02 3.353 3.353 0 0 1 .942 2.39Z" fill="url(#o)"/><path d="M64.249 136.93a2.78 2.78 0 0 1-1.965-.849 2.797 2.797 0 0 1-.785-1.991 2.863 2.863 0 0 1 1.14-2.29 3.38 3.38 0 1 0 4.34 3.22v-.35a2.772 2.772 0 0 1-2.73 2.26Z" fill="#46395B" style="mix-blend-mode:multiply" opacity=".25"/><path d="M65.551 133.13a.937.937 0 0 1-.552.896.94.94 0 1 1-.388-1.796.909.909 0 0 1 .656.255.92.92 0 0 1 .284.645Z" fill="#937D58" style="mix-blend-mode:screen" opacity=".5"/><path d="M76.77 214.81a3.303 3.303 0 0 1-2.105 2.977 3.307 3.307 0 0 1-3.561-.778 3.306 3.306 0 0 1-.672-3.584 3.298 3.298 0 0 1 3.038-2.015 3.36 3.36 0 0 1 3.3 3.4Z" fill="#73377F" style="mix-blend-mode:multiply" opacity=".35"/><path d="M77.684 214.01a3.3 3.3 0 1 1-3.3-3.41 3.357 3.357 0 0 1 3.3 3.41Z" fill="url(#p)"/><path d="M74.962 215.92a2.78 2.78 0 0 1-1.965-.849 2.788 2.788 0 0 1-.785-1.991 2.879 2.879 0 0 1 1.13-2.29 3.38 3.38 0 1 0 4.34 3.22v-.35a2.778 2.778 0 0 1-2.72 2.26Z" fill="#46395B" style="mix-blend-mode:multiply" opacity=".25"/><path d="M76.254 212.12a.941.941 0 1 1-.93-.9.91.91 0 0 1 .93.9Z" fill="#937D58" style="mix-blend-mode:screen" opacity=".5"/><path d="M217.059 214.81a3.293 3.293 0 0 1-2.104 2.977 3.296 3.296 0 0 1-4.438-2.469 3.305 3.305 0 0 1 3.242-3.908 3.361 3.361 0 0 1 3.3 3.4Z" fill="#73377F" style="mix-blend-mode:multiply" opacity=".35"/><path d="M217.973 214.01a3.3 3.3 0 1 1-3.3-3.41 3.357 3.357 0 0 1 3.3 3.41Z" fill="url(#q)"/><path d="M215.251 215.92a2.78 2.78 0 0 1-1.965-.849 2.799 2.799 0 0 1-.785-1.991 2.87 2.87 0 0 1 1.13-2.29 3.379 3.379 0 0 0 .675 6.609 3.382 3.382 0 0 0 3.665-3.389v-.35a2.78 2.78 0 0 1-2.72 2.26Z" fill="#46395B" style="mix-blend-mode:multiply" opacity=".25"/><path d="M216.542 212.12a.94.94 0 0 1-1.87 0 .944.944 0 0 1 .935-.844.942.942 0 0 1 .935.844Z" fill="#937D58" style="mix-blend-mode:screen" opacity=".5"/><path d="M91.254 311.87a3.297 3.297 0 0 1-2.111 2.969 3.304 3.304 0 0 1-3.558-.784 3.302 3.302 0 0 1 .548-5.046 3.297 3.297 0 0 1 1.821-.549 3.341 3.341 0 0 1 2.358 1.02 3.353 3.353 0 0 1 .942 2.39Z" fill="#73377F" style="mix-blend-mode:multiply" opacity=".35"/><path d="M92.2 311.06a3.303 3.303 0 0 1-2.105 2.977 3.307 3.307 0 0 1-3.561-.778 3.306 3.306 0 0 1-.672-3.584 3.298 3.298 0 0 1 3.038-2.015 3.361 3.361 0 0 1 3.3 3.4Z" fill="url(#r)"/><path d="M89.438 312.97a2.799 2.799 0 0 1-1.965-.849 2.79 2.79 0 0 1-.785-1.991 2.846 2.846 0 0 1 1.13-2.28 3.374 3.374 0 0 0-2.368 2.654 3.377 3.377 0 0 0 1.319 3.304 3.378 3.378 0 0 0 4.9-.965 3.379 3.379 0 0 0 .49-1.783v-.34a2.772 2.772 0 0 1-2.72 2.25Z" fill="#46395B" style="mix-blend-mode:multiply" opacity=".25"/><path d="M90.73 309.17a.945.945 0 0 1-.546.905.939.939 0 0 1-1.312-.658.94.94 0 0 1 .928-1.137.921.921 0 0 1 .93.89Z" fill="#937D58" style="mix-blend-mode:screen" opacity=".5"/><path d="M103.2 391.83a3.304 3.304 0 0 1-2.105 2.976 3.299 3.299 0 0 1-3.017-5.826 3.293 3.293 0 0 1 1.822-.55 3.356 3.356 0 0 1 3.3 3.4Z" fill="#73377F" style="mix-blend-mode:multiply" opacity=".35"/><path d="M104.059 391.03a3.288 3.288 0 0 1-.604 1.805 3.303 3.303 0 0 1-5.062.393 3.299 3.299 0 0 1 2.366-5.598 3.36 3.36 0 0 1 3.3 3.4Z" fill="url(#s)"/><path d="M101.345 392.94a2.803 2.803 0 0 1-1.068-.228 2.798 2.798 0 0 1-1.683-2.612 2.853 2.853 0 0 1 1.13-2.28 3.384 3.384 0 0 0-2.178 4.494 3.382 3.382 0 0 0 4.674 1.758 3.378 3.378 0 0 0 1.845-3.042v-.34a2.777 2.777 0 0 1-.958 1.612 2.775 2.775 0 0 1-1.762.638Z" fill="#46395B" style="mix-blend-mode:multiply" opacity=".25"/><path d="M102.629 389.14a.936.936 0 0 1-.135.536.938.938 0 0 1-1.723-.289.936.936 0 0 1 .398-.979.934.934 0 0 1 .53-.158.906.906 0 0 1 .649.253.908.908 0 0 1 .281.637Z" fill="#937D58" style="mix-blend-mode:screen" opacity=".5"/><path d="M217.059 391.83a3.297 3.297 0 0 1-5.666 2.198 3.3 3.3 0 0 1 2.366-5.598 3.359 3.359 0 0 1 3.3 3.4Z" fill="#73377F" style="mix-blend-mode:multiply" opacity=".35"/><path d="M217.974 391.03a3.297 3.297 0 0 1-2.105 2.976 3.3 3.3 0 1 1-1.196-6.376 3.363 3.363 0 0 1 3.301 3.4Z" fill="url(#t)"/><path d="M215.251 392.94a2.798 2.798 0 0 1-1.965-.849 2.788 2.788 0 0 1-.785-1.991 2.856 2.856 0 0 1 1.13-2.28 3.38 3.38 0 1 0 4.34 3.21v-.34a2.78 2.78 0 0 1-2.72 2.25Z" fill="#46395B" style="mix-blend-mode:multiply" opacity=".25"/><path d="M216.543 389.14a.943.943 0 0 1-1.095.977.936.936 0 0 1-.715-1.281.935.935 0 0 1 .35-.428.934.934 0 0 1 .53-.158.914.914 0 0 1 .93.89Z" fill="#937D58" style="mix-blend-mode:screen" opacity=".5"/><path d="M217.059 311.87a3.3 3.3 0 1 1-3.3-3.41 3.344 3.344 0 0 1 3.067 2.121c.162.41.241.848.233 1.289Z" fill="#73377F" style="mix-blend-mode:multiply" opacity=".35"/><path d="M217.974 311.06a3.303 3.303 0 0 1-5.667 2.199 3.307 3.307 0 0 1-.672-3.584 3.305 3.305 0 0 1 3.038-2.015 3.363 3.363 0 0 1 3.301 3.4Z" fill="url(#u)"/><path d="M215.251 312.97a2.8 2.8 0 0 1-1.965-.849 2.803 2.803 0 0 1-.785-1.991 2.85 2.85 0 0 1 1.13-2.28 3.383 3.383 0 0 0-2.179 4.493 3.383 3.383 0 0 0 2.86 2.116 3.38 3.38 0 0 0 3.659-3.399v-.34a2.775 2.775 0 0 1-2.72 2.25Z" fill="#46395B" style="mix-blend-mode:multiply" opacity=".25"/><path d="M216.543 309.17a.945.945 0 0 1-.547.904.938.938 0 0 1-1.042-.175.942.942 0 0 1 .129-1.462.94.94 0 0 1 .53-.157.913.913 0 0 1 .649.252.918.918 0 0 1 .281.638Z" fill="#937D58" style="mix-blend-mode:screen" opacity=".5"/><path d="M118.864 335.68a3.301 3.301 0 1 1-5.122-2.85 3.307 3.307 0 0 1 1.822-.55 3.36 3.36 0 0 1 3.3 3.4Z" fill="#73377F" style="mix-blend-mode:multiply" opacity=".35"/><path d="M119.77 334.88a3.3 3.3 0 1 1-3.3-3.41 3.36 3.36 0 0 1 3.3 3.41Z" fill="url(#v)"/><path d="M117.056 336.79a2.794 2.794 0 0 1-1.965-.849 2.78 2.78 0 0 1-.785-1.991 2.87 2.87 0 0 1 1.13-2.29 3.379 3.379 0 1 0 3.845 5.001 3.389 3.389 0 0 0 .495-1.781 2.272 2.272 0 0 0 0-.35 2.77 2.77 0 0 1-2.72 2.26Z" fill="#46395B" style="mix-blend-mode:multiply" opacity=".25"/><path d="M118.34 332.99a.938.938 0 0 1-1.101.966.938.938 0 0 1-.708-1.283.947.947 0 0 1 .879-.583.903.903 0 0 1 .653.256.9.9 0 0 1 .277.644Z" fill="#937D58" style="mix-blend-mode:screen" opacity=".5"/><path d="M154.333 335.68a3.31 3.31 0 0 1-.604 1.806 3.3 3.3 0 1 1-2.696-5.206 3.36 3.36 0 0 1 3.3 3.4Z" fill="#73377F" style="mix-blend-mode:multiply" opacity=".35"/><path d="M155.2 334.88a3.307 3.307 0 0 1-2.112 2.969 3.3 3.3 0 1 1-1.188-6.379 3.36 3.36 0 0 1 3.3 3.41Z" fill="url(#w)"/><path d="M152.524 336.79a2.788 2.788 0 0 1-2.556-1.766 2.818 2.818 0 0 1-.194-1.074 2.885 2.885 0 0 1 1.13-2.29 3.386 3.386 0 0 0-2.368 2.652 3.384 3.384 0 0 0 3.043 3.957 3.38 3.38 0 0 0 3.665-3.389c.01-.116.01-.233 0-.35a2.77 2.77 0 0 1-2.72 2.26Z" fill="#46395B" style="mix-blend-mode:multiply" opacity=".25"/><path d="M153.809 332.99a.946.946 0 0 1-.554.898.946.946 0 0 1-1.039-.182.938.938 0 0 1-.216-1.033.935.935 0 0 1 .879-.583.903.903 0 0 1 .653.256.919.919 0 0 1 .277.644Z" fill="#937D58" style="mix-blend-mode:screen" opacity=".5"/><path d="M194.669 335.68a3.31 3.31 0 0 1-.604 1.806 3.3 3.3 0 1 1-2.696-5.206 3.362 3.362 0 0 1 3.3 3.4Z" fill="#73377F" style="mix-blend-mode:multiply" opacity=".35"/><path d="M195.583 334.88a3.307 3.307 0 0 1-2.112 2.969 3.295 3.295 0 0 1-3.558-.784 3.303 3.303 0 0 1 .548-5.046 3.298 3.298 0 0 1 1.822-.549 3.339 3.339 0 0 1 2.357 1.02 3.353 3.353 0 0 1 .943 2.39Z" fill="url(#x)"/><path d="M192.864 336.79a2.788 2.788 0 0 1-2.556-1.766 2.818 2.818 0 0 1-.194-1.074 2.865 2.865 0 0 1 1.14-2.29 3.408 3.408 0 0 0-1.649 1.248 3.41 3.41 0 0 0-.621 1.972 3.302 3.302 0 0 0 5.634 2.334 3.3 3.3 0 0 0 .966-2.334v-.35a2.775 2.775 0 0 1-2.72 2.26Z" fill="#46395B" style="mix-blend-mode:multiply" opacity=".25"/><path d="M194.206 332.99a.94.94 0 0 1-1.87 0 .944.944 0 0 1 .935-.844.942.942 0 0 1 .935.844Z" fill="#937D58" style="mix-blend-mode:screen" opacity=".5"/><path d="M207.571 231.24h-30.19l-4.24 3.36v43.85l3.85 4.25h30.58v-51.46Z" fill="#73377F" style="mix-blend-mode:multiply" opacity=".45"/><path d="M207.571 229.24h-30.19l-4.24 3.36v43.85l3.85 4.25h30.58v-51.46Z" fill="url(#y)"/><path d="M190.352 303.75a22.451 22.451 0 0 1-4.322-44.477 22.444 22.444 0 0 1 12.972 1.302 22.445 22.445 0 0 1 13.82 20.775 22.48 22.48 0 0 1-22.47 22.4Zm0-36.88a14.427 14.427 0 0 0-13.313 8.91 14.435 14.435 0 0 0 3.119 15.713 14.43 14.43 0 0 0 24.644-10.143 14.451 14.451 0 0 0-14.45-14.48Z" fill="#73377F" style="mix-blend-mode:multiply" opacity=".45"/><path d="M190.352 295.75a22.451 22.451 0 0 1-4.322-44.477 22.444 22.444 0 0 1 12.972 1.302 22.445 22.445 0 0 1 13.82 20.775 22.48 22.48 0 0 1-22.47 22.4Zm0-36.88a14.427 14.427 0 0 0-13.313 8.91 14.435 14.435 0 0 0 3.119 15.713 14.43 14.43 0 0 0 24.644-10.143 14.451 14.451 0 0 0-14.45-14.48Z" fill="url(#z)"/><path d="M190.354 258.87a14.45 14.45 0 0 1 14.4 13.35c0-.35.05-.71.05-1.07a14.449 14.449 0 0 0-28.89 0v1.07a14.447 14.447 0 0 1 14.44-13.35Z" fill="#70414F" style="mix-blend-mode:multiply" opacity=".15"/><path d="M190.353 294.02c-13.94 0-21.43-11.05-22.37-22.57 0 .61-.1 1.23-.1 1.85a22.47 22.47 0 1 0 44.94 0c0-.62 0-1.24-.09-1.85-.95 11.52-8.43 22.57-22.38 22.57Z" fill="#70414F" style="mix-blend-mode:multiply" opacity=".15"/><path d="M184.902 291.74a19.848 19.848 0 0 1-13.52-14.39 1.326 1.326 0 0 1 .66-1.448 1.38 1.38 0 0 1 .56-.172c.175-.019.352-.002.52.05a1.367 1.367 0 0 1 .92 1 17.177 17.177 0 0 0 11.68 12.46 17.115 17.115 0 0 0 20.045-8.372 17.108 17.108 0 0 0 1.985-7.518 1.309 1.309 0 0 1 1.19-1.3 1.35 1.35 0 0 1 .53 0 1.317 1.317 0 0 1 1 1.29 19.783 19.783 0 0 1-8.212 15.505 19.789 19.789 0 0 1-17.308 2.885l-.05.01Z" fill="#A08D70" style="mix-blend-mode:screen" opacity=".35"/><path d="M190.889 274.11c7.473 0 13.53-7.343 13.53-16.4 0-9.058-6.057-16.4-13.53-16.4-7.472 0-13.53 7.342-13.53 16.4 0 9.057 6.058 16.4 13.53 16.4Z" fill="#73377F" style="mix-blend-mode:multiply" opacity=".45"/><path d="M190.89 266.21c6.881 0 12.46-5.574 12.46-12.45 0-6.876-5.579-12.45-12.46-12.45-6.882 0-12.46 5.574-12.46 12.45 0 6.876 5.578 12.45 12.46 12.45Z" fill="url(#A)"/><path fill-rule="evenodd" clip-rule="evenodd" d="M193.809 260.35a10.481 10.481 0 0 1-7-18.34 12.44 12.44 0 1 0 16.51 12.34 10.511 10.511 0 0 1-9.51 6Z" fill="#70414F" style="mix-blend-mode:multiply" opacity=".15"/><path fill-rule="evenodd" clip-rule="evenodd" d="M198.782 249.84c-.63 1.45-2.69 2-4.59 1.13-1.9-.87-2.94-2.68-2.3-4.14.64-1.46 2.69-2 4.59-1.13 1.9.87 2.94 2.65 2.3 4.14Z" fill="#A08D70" style="mix-blend-mode:screen"/><path fill-rule="evenodd" clip-rule="evenodd" d="m177.383 229.24 4.05-1.25h26.14v1.25h-30.19Z" fill="url(#B)"/><path d="M221.2 398.99V53.86c-71.86 0-130 30.59-165.95 80.14 10.8 71.77 39.07 265 39.07 265l126.88-.01Z" fill="url(#C)"/><path d="M205.257 136.209c-8-3.58-14.45-10.25-19.13-17.54-9.53-14.83-16.31-33.8-9.19-50.89-.27.63-1.31.95-1.59 1.59-7.8 17.31-4 38.66 5.54 54.54 7 11.71 19.34 21 32.48 20.17l.05-5.41a32.57 32.57 0 0 1-8.16-2.46ZM213.739 99c-3.94.66-7.7 1.24-11.55-.56a22.224 22.224 0 0 1-9.2-8.52 26.147 26.147 0 0 1-2.13-22.9c-.25.69-1.43 1-1.73 1.72a24.998 24.998 0 0 0 2 23.07c5.29 8.47 13.32 11.11 22.63 8.37l-.02-1.18Zm-.933 115.519c-1.68-.88-3.32-1.71-4.84-2.51a50.782 50.782 0 0 1-21.55-20.89c-5.31-9.43-8.1-19.67-12.28-29.58a185.453 185.453 0 0 0-8.89-18c-.8-1.44-1.59-2.91-2.41-4.39l.17 4.92c.21.36.42.72.62 1.09a186.142 186.142 0 0 1 8.58 17.19c4.53 10.52 6.65 21.72 10.69 32.37 3.75 9.91 10.14 17 19.2 22.3 3.51 2.05 7.14 3.87 10.67 5.88l.04-8.38Zm-.839 103.831a52.498 52.498 0 0 1-5.16-5.54c-8.7-10.83-12.86-23.85-13.59-37.63-.74-14-2.29-27.16-8.89-39.79a70.066 70.066 0 0 0-11.2-15.78 83.116 83.116 0 0 0-7.83-7.52l.09 2.54a58.97 58.97 0 0 1 6.57 6.07 72.436 72.436 0 0 1 10.9 15.07c7 12.94 7.88 26.81 8.48 41.23.6 14.42.52 28.52 9.45 40.75a50.006 50.006 0 0 0 11 11.07l.18-10.47Zm-.332 41.3c-4.38-5.95-8.59-11.68-11.9-18.55-4-8.25-7.22-16.82-11.47-24.94-4.46-8.52-10.23-15.5-16.55-22.68-1.4-1.59-2.67-3.18-3.84-4.8l.33 9.67c6.32 6.72 12 13.17 16.4 21.46 4.15 7.8 7.54 16 11.63 23.8 3.77 7.22 8.41 15.77 15.36 20.51l.04-4.47Zm-16.155 27.239c-4.06-3-6.93-7.27-9.3-11.68a49.686 49.686 0 0 0-9.51-12.66c-1.6-1.54-4-4.24-6.49-5.82l.11 3.4c1.72 1.59 3.26 3.39 4.35 4.45a40.182 40.182 0 0 1 9.42 12.77c2.17 5 3.66 9.36 7.85 13.13.36.32.74.63 1.12.94l11.46-.23a30.075 30.075 0 0 1-9.01-4.3ZM123.409 117.35c-1.1-10.44-1.91-22.18-6.6-31.74.15.31-2.12 1.64-2 2.05 1.1 5.42 2.92 10.67 3.9 16.12.98 5.45 1.46 10.79 2.13 16.18 1.4 11.27 1.61 23.42 5 34.3 0-.12.6-.45.61-.61.4-12.1-1.78-24.3-3.04-36.3Zm25.682 247.22c-.69-9.9-1.16-19.81-1.8-29.71-1.23-19.06-3-37.93-5.58-56.85-2.58-18.52-7.9-36.39-10.52-54.89-1.32-9.31-2.6-18.54-3.49-27.91-1-10 .32-20.34-1-30.3 0 .08-.26.19-.27.28-1.5 10.21-.17 20.83.22 31.08.36 9.78 1 19.69 2 29.42 2 19.86 2.91 39.81 5.82 59.58 2.74 18.56 5 37.22 6.52 55.92.79 9.69 1.74 19.35 2.47 29 .4 5.25.61 10.52 1 15.77.39 4.83.39 9.94 2.4 14.41-.22-.48 3.27-2.69 3.37-3.37 1.58-10.65-.39-21.73-1.14-32.43Zm10.282-19.31c-.53-9.59-1.32-19.17-1.78-28.78-.46-9.61-1.12-19.13-1.88-28.68-.79-10-.39-19.92-.63-29.93-.45-18.85-3.53-37.65-4.62-56.5-1.12-19.31-1.78-38.63-3.19-57.93-.77-10.47-1.8-20.91-2.33-31.39-.59-11.37-.52-22.77-1.73-34.1 0 .39-1.33.9-1.33 1.32.17 19.38 2.41 38.73 3 58.11.59 19.38 2 38.69 3.08 58.05 1.1 19.81 1.11 39.56 1.75 59.37.3 9.36 2.13 18.54 2.7 27.86.59 9.75.84 19.51 1.3 29.26.51 10.7 1 21.41 1.62 32.11.62 10.7-.09 22.83 2.44 33.39-.15-.63 2.59-1.93 2.65-2.65.78-9.72-.51-19.78-1.05-29.51Z" fill="#8E208E" style="mix-blend-mode:multiply" opacity=".3"/><g opacity=".3" fill="#8E208E"><path d="m119.614 220.5-1-9.53a60.25 60.25 0 0 1-3.26-2.83c-9-8.44-15.78-18.9-20.92-30.08-10-21.83-19.06-53.59-1.11-73.78-.54.61-1.65 1.55-2.34 2.32-17.72 19.89-10.13 51.76-1.4 74.07 5.69 14.46 16.16 30.4 30.03 39.83Z" style="mix-blend-mode:multiply" opacity=".3"/><path d="m116.482 189.85-1-9.43a52.466 52.466 0 0 1-8.7-16.2c-4.7-14.41-3.08-29.4 2.63-43.19l-.09-1c-7.76 14.34-11 31.92-6.13 47.75a53.29 53.29 0 0 0 9.73 18.12c1.09 1.31 2.28 2.65 3.56 3.95Zm-22.088 54.3a89.643 89.643 0 0 1-15-19.8 89.183 89.183 0 0 1-2.91-5.81l1.77 11.05a91.992 91.992 0 0 0 12.74 17.95 87.255 87.255 0 0 0 19.28 15.81 82.302 82.302 0 0 0 14.44 7.15l-.65-6.38a66.117 66.117 0 0 1-9.34-4.24 95 95 0 0 1-20.33-15.73Zm34.873 70.87c-1-.14-2.06-.3-3.08-.5a51.991 51.991 0 0 1-20.2-8.38 81.001 81.001 0 0 1-15.16-14.79c-1.1-1.34-2.25-2.68-3.35-4.06l.9 5.63.39.49c4.4 5.53 9.2 10.88 14.93 15.08 7.25 5.3 16.52 8.57 25.92 10l-.35-3.47Zm6.251 61.33a66.44 66.44 0 0 1-10.76-10.9c-2.47-3.1-4.73-6.37-7.68-9.05-2.78-2.53-6-4.33-9.24-6.29-5.19-3.19-9.46-6.94-12.26-12.12l1.12 7a30.814 30.814 0 0 0 8.53 7.78 57.885 57.885 0 0 1 16.66 15.6 72.237 72.237 0 0 0 14.38 15.34l-.75-7.36Z" style="mix-blend-mode:multiply" opacity=".3"/></g><path d="m106.344 102.48 4.52 32.11 3.18 55.88 6.17 55.78 7.33 58.65 7.46 80.09h2.02l-10.76-102.01-7.49-70.86-4.16-56.28-5.19-43 .78-13.03-3.86 2.67Z" fill="#774040"/><path d="m106.344 102.48 4.59 33.34.91 16.01-2.2-16.81-3.3-21-2.61-8.5 2.61-3.04Zm16.148 161.99 5.05 40.43 5.69 61.11-3.41-18.35-4.37-42.72-2.96-14.51v-25.96Zm38.171-158.92 2.24 61.6-2.49-6.1-.64-35.06.89-20.44Zm9 243.56.2 3.46.119 32.42h-2.92l1.771-15.31.83-20.57Z" fill="#D9772F" style="mix-blend-mode:screen" opacity=".5"/><path d="m139.073 127.97-.91 21.95.91 32 3.3 32.09-5.35-33.03v-30.86l2.05-22.15Z" fill="#774040"/><path d="m142.369 214.01-5.35-33.03.11-32.04 1.94-20.97-4.21 21.16v32.79l7.51 32.09Z" fill="#D9772F" style="mix-blend-mode:screen" opacity=".5"/><path d="m157.711 78.09 2.12 9.13 2.41 53.6 1.47 68.83 3.38 94.66 2.77 48.26.12 32.42h2.74l-1.13-14.62-5.75-133.31-.86-59.55-2.25-60.14-1.52-40.95-3.5 1.67Z" fill="#774040"/><path d="M207.571 231.24h-30.19l-4.24 3.36v43.85l3.85 4.25h30.58v-51.46Z" fill="#73377F" style="mix-blend-mode:multiply" opacity=".45"/><path d="M71.031 137.45s.41 2.73.5 3.37c45-50.3 97.75-62.73 129.76-64.4l.21 87.1-123.61 20 .3 2 123.32-18.17.44 175.44h-100.37l.29 2h100.09l.1 38.88h3.92v-312c-62.54-.06-113.42 36.12-134.95 65.78Z" fill="#73377F" style="mix-blend-mode:multiply" opacity=".45"/><path fill-rule="evenodd" clip-rule="evenodd" d="m207.568 383.73-99.99-.6-29.69-199.57-1.67-1.64.63-5.39-5.82-39.08-1.38.34 36.44 247.2h101.48v-1.26Z" fill="url(#D)"/><path d="m69.648 137.79 1.38-.34c32.41-39.58 79.61-62.6 134.95-65.84v74.08l-130.23 23.46.46 12.76 1.68 1.65 128.09-20.77v220.87l1.59 1.33V68.25c-57.05 3.33-105.46 27.69-137.92 69.54Z" fill="url(#E)"/><path d="M55.273 134c10.8 71.77 39.07 265 39.07 265h126.86V53.86c-71.84 0-129.94 30.59-165.93 80.14Zm152.3 251h-101.48c-1.4-9.58-3.57-24.36-6.18-42.21h107.66V385Zm0-155.75h-30.19l-4.24 3.36v43.84l3.85 4.24h30.58v47.09H97.703l.07.46c-6.45-44-14.84-101-21.55-146.33l131.35-22.38v69.72Zm0-86.84-133.65 24.07c-1.57-10.62-3-20.32-4.27-28.69 32.46-41.85 80.87-66.21 137.92-69.54v74.16Z" fill="url(#F)"/><path fill-rule="evenodd" clip-rule="evenodd" d="m97.531 326.57 108.45-.2 1.59 1.42H97.711l-.18-1.22Z" fill="url(#G)"/><path d="M95.864 172.06a3.297 3.297 0 0 1-2.105 2.977 3.307 3.307 0 0 1-3.561-.778 3.305 3.305 0 0 1-.672-3.584 3.299 3.299 0 0 1 3.038-2.015 3.36 3.36 0 0 1 3.3 3.4Z" fill="#73377F" style="mix-blend-mode:multiply" opacity=".35"/><path d="M96.77 171.26a3.303 3.303 0 0 1-2.105 2.977 3.299 3.299 0 1 1-1.195-6.377 3.357 3.357 0 0 1 3.3 3.4Z" fill="url(#H)"/><path d="M94.052 173.17a2.795 2.795 0 0 1-2.75-2.82 2.861 2.861 0 0 1 1.14-2.29 3.407 3.407 0 0 0-2.27 3.22 3.3 3.3 0 0 0 6.6 0v-.34a2.777 2.777 0 0 1-2.72 2.23Z" fill="#46395B" style="mix-blend-mode:multiply" opacity=".25"/><path d="M95.34 169.35a.94.94 0 1 1-.93-.89.91.91 0 0 1 .93.89Z" fill="#937D58" style="mix-blend-mode:screen" opacity=".5"/><path d="M141.45 163.74a3.294 3.294 0 0 1-4.015 3.131 3.306 3.306 0 0 1-2.532-2.641 3.303 3.303 0 0 1 1.46-3.354 3.296 3.296 0 0 1 1.837-.526 3.35 3.35 0 0 1 3.25 3.39Z" fill="#73377F" style="mix-blend-mode:multiply" opacity=".35"/><path d="M142.364 162.94a3.304 3.304 0 0 1-2.114 2.97 3.298 3.298 0 0 1-3-5.835 3.3 3.3 0 0 1 1.824-.545c.44.007.875.1 1.279.275a3.356 3.356 0 0 1 1.782 1.847c.16.41.238.848.229 1.288Z" fill="url(#I)"/><path d="M139.641 164.85a2.777 2.777 0 0 1-1.067-.229 2.777 2.777 0 0 1-1.683-2.611 2.858 2.858 0 0 1 1.14-2.29 3.375 3.375 0 0 0-2.26 3.22 3.299 3.299 0 0 0 6.393 1.317c.154-.421.221-.869.197-1.317v-.35a2.768 2.768 0 0 1-2.72 2.26Z" fill="#46395B" style="mix-blend-mode:multiply" opacity=".25"/><path d="M140.942 161.05a.94.94 0 1 1-.94-.9.907.907 0 0 1 .656.255.92.92 0 0 1 .284.645Z" fill="#937D58" style="mix-blend-mode:screen" opacity=".5"/><path d="M187.044 155.42a3.3 3.3 0 1 1-3.291-3.41 3.335 3.335 0 0 1 3.061 2.122c.161.41.239.847.23 1.288Z" fill="#73377F" style="mix-blend-mode:multiply" opacity=".35"/><path d="M187.965 154.62a3.296 3.296 0 0 1-2.111 2.969 3.305 3.305 0 0 1-3.558-.784 3.303 3.303 0 0 1 .548-5.046 3.295 3.295 0 0 1 1.821-.549 3.344 3.344 0 0 1 2.358 1.02 3.353 3.353 0 0 1 .942 2.39Z" fill="url(#J)"/><path d="M185.202 156.52a2.8 2.8 0 0 1-2.75-2.83 2.857 2.857 0 0 1 1.14-2.29 3.38 3.38 0 1 0 4.34 3.22v-.35a2.76 2.76 0 0 1-2.73 2.25Z" fill="#46395B" style="mix-blend-mode:multiply" opacity=".25"/><path d="M186.535 152.72a.94.94 0 1 1-.94-.89.921.921 0 0 1 .94.89Z" fill="#937D58" style="mix-blend-mode:screen" opacity=".5"/><path d="M213.105 64.73c1.822 0 3.3-1.527 3.3-3.41 0-1.883-1.478-3.41-3.3-3.41-1.823 0-3.3 1.527-3.3 3.41 0 1.883 1.477 3.41 3.3 3.41Z" fill="#73377F" style="mix-blend-mode:multiply" opacity=".35"/><path d="M217.309 60.52a3.299 3.299 0 1 1-3.3-3.41 3.353 3.353 0 0 1 3.067 2.121c.162.41.241.849.233 1.29Z" fill="url(#K)"/><path d="M214.595 62.42a2.786 2.786 0 0 1-2.553-1.76 2.765 2.765 0 0 1-.197-1.07 2.86 2.86 0 0 1 1.13-2.29 3.38 3.38 0 1 0 4.34 3.22 2.272 2.272 0 0 0 0-.35 2.765 2.765 0 0 1-2.72 2.25Z" fill="#46395B" style="mix-blend-mode:multiply" opacity=".25"/><path d="M215.879 58.62a.937.937 0 0 1-.547.904.94.94 0 1 1-.383-1.794.92.92 0 0 1 .93.89Z" fill="#937D58" style="mix-blend-mode:screen" opacity=".5"/><path d="M129.23 84.91c1.822 0 3.3-1.527 3.3-3.41 0-1.883-1.478-3.41-3.3-3.41-1.823 0-3.3 1.527-3.3 3.41 0 1.883 1.477 3.41 3.3 3.41Z" fill="#73377F" style="mix-blend-mode:multiply" opacity=".35"/><path d="M133.442 80.69a3.296 3.296 0 0 1-4.003 3.124 3.297 3.297 0 0 1-2.539-2.616 3.3 3.3 0 0 1 3.242-3.908 3.362 3.362 0 0 1 3.3 3.4Z" fill="url(#L)"/><path d="M130.724 82.6a2.79 2.79 0 0 1-2.75-2.84 2.87 2.87 0 0 1 1.13-2.29 3.4 3.4 0 0 0-2.26 3.22 3.3 3.3 0 1 0 6.6 0v-.34a2.781 2.781 0 0 1-2.72 2.25Z" fill="#46395B" style="mix-blend-mode:multiply" opacity=".25"/><path d="M132.011 78.8a.936.936 0 0 1-.546.905.94.94 0 1 1-.384-1.795.907.907 0 0 1 .93.89Z" fill="#937D58" style="mix-blend-mode:screen" opacity=".5"/><path d="M66.06 135.82a3.301 3.301 0 1 1-3.3-3.41 3.36 3.36 0 0 1 2.357 1.02 3.351 3.351 0 0 1 .942 2.39Z" fill="#73377F" style="mix-blend-mode:multiply" opacity=".35"/><path d="M66.981 135.02a3.3 3.3 0 1 1-3.3-3.41 3.36 3.36 0 0 1 2.358 1.02 3.353 3.353 0 0 1 .942 2.39Z" fill="url(#M)"/><path d="M64.249 136.93a2.78 2.78 0 0 1-1.965-.849 2.797 2.797 0 0 1-.785-1.991 2.863 2.863 0 0 1 1.14-2.29 3.38 3.38 0 1 0 4.34 3.22v-.35a2.772 2.772 0 0 1-2.73 2.26Z" fill="#46395B" style="mix-blend-mode:multiply" opacity=".25"/><path d="M65.551 133.13a.937.937 0 0 1-.552.896.94.94 0 1 1-.388-1.796.909.909 0 0 1 .656.255.92.92 0 0 1 .284.645Z" fill="#937D58" style="mix-blend-mode:screen" opacity=".5"/><path d="M76.77 214.81a3.303 3.303 0 0 1-2.105 2.977 3.307 3.307 0 0 1-3.561-.778 3.306 3.306 0 0 1-.672-3.584 3.298 3.298 0 0 1 3.038-2.015 3.36 3.36 0 0 1 3.3 3.4Z" fill="#73377F" style="mix-blend-mode:multiply" opacity=".35"/><path d="M77.684 214.01a3.3 3.3 0 1 1-3.3-3.41 3.357 3.357 0 0 1 3.3 3.41Z" fill="url(#N)"/><path d="M74.962 215.92a2.78 2.78 0 0 1-1.965-.849 2.788 2.788 0 0 1-.785-1.991 2.879 2.879 0 0 1 1.13-2.29 3.38 3.38 0 1 0 4.34 3.22v-.35a2.778 2.778 0 0 1-2.72 2.26Z" fill="#46395B" style="mix-blend-mode:multiply" opacity=".25"/><path d="M76.254 212.12a.941.941 0 1 1-.93-.9.91.91 0 0 1 .93.9Z" fill="#937D58" style="mix-blend-mode:screen" opacity=".5"/><path d="M217.059 214.81a3.293 3.293 0 0 1-2.104 2.977 3.296 3.296 0 0 1-4.438-2.469 3.305 3.305 0 0 1 3.242-3.908 3.361 3.361 0 0 1 3.3 3.4Z" fill="#73377F" style="mix-blend-mode:multiply" opacity=".35"/><path d="M217.973 214.01a3.3 3.3 0 1 1-3.3-3.41 3.357 3.357 0 0 1 3.3 3.41Z" fill="url(#O)"/><path d="M215.251 215.92a2.78 2.78 0 0 1-1.965-.849 2.799 2.799 0 0 1-.785-1.991 2.87 2.87 0 0 1 1.13-2.29 3.379 3.379 0 0 0 .675 6.609 3.382 3.382 0 0 0 3.665-3.389v-.35a2.78 2.78 0 0 1-2.72 2.26Z" fill="#46395B" style="mix-blend-mode:multiply" opacity=".25"/><path d="M216.542 212.12a.94.94 0 0 1-1.87 0 .944.944 0 0 1 .935-.844.942.942 0 0 1 .935.844Z" fill="#937D58" style="mix-blend-mode:screen" opacity=".5"/><path d="M91.254 311.87a3.297 3.297 0 0 1-2.111 2.969 3.304 3.304 0 0 1-3.558-.784 3.302 3.302 0 0 1 .548-5.046 3.297 3.297 0 0 1 1.821-.549 3.341 3.341 0 0 1 2.358 1.02 3.353 3.353 0 0 1 .942 2.39Z" fill="#73377F" style="mix-blend-mode:multiply" opacity=".35"/><path d="M92.2 311.06a3.303 3.303 0 0 1-2.105 2.977 3.307 3.307 0 0 1-3.561-.778 3.306 3.306 0 0 1-.672-3.584 3.298 3.298 0 0 1 3.038-2.015 3.361 3.361 0 0 1 3.3 3.4Z" fill="url(#P)"/><path d="M89.438 312.97a2.799 2.799 0 0 1-1.965-.849 2.79 2.79 0 0 1-.785-1.991 2.846 2.846 0 0 1 1.13-2.28 3.374 3.374 0 0 0-2.368 2.654 3.377 3.377 0 0 0 1.319 3.304 3.378 3.378 0 0 0 4.9-.965 3.379 3.379 0 0 0 .49-1.783v-.34a2.772 2.772 0 0 1-2.72 2.25Z" fill="#46395B" style="mix-blend-mode:multiply" opacity=".25"/><path d="M90.73 309.17a.945.945 0 0 1-.546.905.939.939 0 0 1-1.312-.658.94.94 0 0 1 .928-1.137.921.921 0 0 1 .93.89Z" fill="#937D58" style="mix-blend-mode:screen" opacity=".5"/><path d="M103.2 391.83a3.304 3.304 0 0 1-2.105 2.976 3.299 3.299 0 0 1-3.017-5.826 3.293 3.293 0 0 1 1.822-.55 3.356 3.356 0 0 1 3.3 3.4Z" fill="#73377F" style="mix-blend-mode:multiply" opacity=".35"/><path d="M104.059 391.03a3.288 3.288 0 0 1-.604 1.805 3.303 3.303 0 0 1-5.062.393 3.299 3.299 0 0 1 2.366-5.598 3.36 3.36 0 0 1 3.3 3.4Z" fill="url(#Q)"/><path d="M101.345 392.94a2.803 2.803 0 0 1-1.068-.228 2.798 2.798 0 0 1-1.683-2.612 2.853 2.853 0 0 1 1.13-2.28 3.384 3.384 0 0 0-2.178 4.494 3.382 3.382 0 0 0 4.674 1.758 3.378 3.378 0 0 0 1.845-3.042v-.34a2.777 2.777 0 0 1-.958 1.612 2.775 2.775 0 0 1-1.762.638Z" fill="#46395B" style="mix-blend-mode:multiply" opacity=".25"/><path d="M102.629 389.14a.936.936 0 0 1-.135.536.938.938 0 0 1-1.723-.289.936.936 0 0 1 .398-.979.934.934 0 0 1 .53-.158.906.906 0 0 1 .649.253.908.908 0 0 1 .281.637Z" fill="#937D58" style="mix-blend-mode:screen" opacity=".5"/><path d="M217.059 391.83a3.297 3.297 0 0 1-5.666 2.198 3.3 3.3 0 0 1 2.366-5.598 3.359 3.359 0 0 1 3.3 3.4Z" fill="#73377F" style="mix-blend-mode:multiply" opacity=".35"/><path d="M217.974 391.03a3.297 3.297 0 0 1-2.105 2.976 3.3 3.3 0 1 1-1.196-6.376 3.363 3.363 0 0 1 3.301 3.4Z" fill="url(#R)"/><path d="M215.251 392.94a2.798 2.798 0 0 1-1.965-.849 2.788 2.788 0 0 1-.785-1.991 2.856 2.856 0 0 1 1.13-2.28 3.38 3.38 0 1 0 4.34 3.21v-.34a2.78 2.78 0 0 1-2.72 2.25Z" fill="#46395B" style="mix-blend-mode:multiply" opacity=".25"/><path d="M216.543 389.14a.943.943 0 0 1-1.095.977.936.936 0 0 1-.715-1.281.935.935 0 0 1 .35-.428.934.934 0 0 1 .53-.158.914.914 0 0 1 .93.89Z" fill="#937D58" style="mix-blend-mode:screen" opacity=".5"/><path d="M217.059 311.87a3.3 3.3 0 1 1-3.3-3.41 3.344 3.344 0 0 1 3.067 2.121c.162.41.241.848.233 1.289Z" fill="#73377F" style="mix-blend-mode:multiply" opacity=".35"/><path d="M217.974 311.06a3.303 3.303 0 0 1-5.667 2.199 3.307 3.307 0 0 1-.672-3.584 3.305 3.305 0 0 1 3.038-2.015 3.363 3.363 0 0 1 3.301 3.4Z" fill="url(#S)"/><path d="M215.251 312.97a2.8 2.8 0 0 1-1.965-.849 2.803 2.803 0 0 1-.785-1.991 2.85 2.85 0 0 1 1.13-2.28 3.383 3.383 0 0 0-2.179 4.493 3.383 3.383 0 0 0 2.86 2.116 3.38 3.38 0 0 0 3.659-3.399v-.34a2.775 2.775 0 0 1-2.72 2.25Z" fill="#46395B" style="mix-blend-mode:multiply" opacity=".25"/><path d="M216.543 309.17a.945.945 0 0 1-.547.904.938.938 0 0 1-1.042-.175.942.942 0 0 1 .129-1.462.94.94 0 0 1 .53-.157.913.913 0 0 1 .649.252.918.918 0 0 1 .281.638Z" fill="#937D58" style="mix-blend-mode:screen" opacity=".5"/><path d="M118.864 335.68a3.301 3.301 0 1 1-5.122-2.85 3.307 3.307 0 0 1 1.822-.55 3.36 3.36 0 0 1 3.3 3.4Z" fill="#73377F" style="mix-blend-mode:multiply" opacity=".35"/><path d="M119.77 334.88a3.3 3.3 0 1 1-3.3-3.41 3.36 3.36 0 0 1 3.3 3.41Z" fill="url(#T)"/><path d="M117.056 336.79a2.794 2.794 0 0 1-1.965-.849 2.78 2.78 0 0 1-.785-1.991 2.87 2.87 0 0 1 1.13-2.29 3.379 3.379 0 1 0 3.845 5.001 3.389 3.389 0 0 0 .495-1.781 2.272 2.272 0 0 0 0-.35 2.77 2.77 0 0 1-2.72 2.26Z" fill="#46395B" style="mix-blend-mode:multiply" opacity=".25"/><path d="M118.34 332.99a.938.938 0 0 1-1.101.966.938.938 0 0 1-.708-1.283.947.947 0 0 1 .879-.583.903.903 0 0 1 .653.256.9.9 0 0 1 .277.644Z" fill="#937D58" style="mix-blend-mode:screen" opacity=".5"/><path d="M154.333 335.68a3.31 3.31 0 0 1-.604 1.806 3.3 3.3 0 1 1-2.696-5.206 3.36 3.36 0 0 1 3.3 3.4Z" fill="#73377F" style="mix-blend-mode:multiply" opacity=".35"/><path d="M155.2 334.88a3.307 3.307 0 0 1-2.112 2.969 3.3 3.3 0 1 1-1.188-6.379 3.36 3.36 0 0 1 3.3 3.41Z" fill="url(#U)"/><path d="M152.524 336.79a2.788 2.788 0 0 1-2.556-1.766 2.818 2.818 0 0 1-.194-1.074 2.885 2.885 0 0 1 1.13-2.29 3.386 3.386 0 0 0-2.368 2.652 3.384 3.384 0 0 0 3.043 3.957 3.38 3.38 0 0 0 3.665-3.389c.01-.116.01-.233 0-.35a2.77 2.77 0 0 1-2.72 2.26Z" fill="#46395B" style="mix-blend-mode:multiply" opacity=".25"/><path d="M153.809 332.99a.946.946 0 0 1-.554.898.946.946 0 0 1-1.039-.182.938.938 0 0 1-.216-1.033.935.935 0 0 1 .879-.583.903.903 0 0 1 .653.256.919.919 0 0 1 .277.644Z" fill="#937D58" style="mix-blend-mode:screen" opacity=".5"/><path d="M194.669 335.68a3.31 3.31 0 0 1-.604 1.806 3.3 3.3 0 1 1-2.696-5.206 3.362 3.362 0 0 1 3.3 3.4Z" fill="#73377F" style="mix-blend-mode:multiply" opacity=".35"/><path d="M195.583 334.88a3.307 3.307 0 0 1-2.112 2.969 3.295 3.295 0 0 1-3.558-.784 3.303 3.303 0 0 1 .548-5.046 3.298 3.298 0 0 1 1.822-.549 3.339 3.339 0 0 1 2.357 1.02 3.353 3.353 0 0 1 .943 2.39Z" fill="url(#V)"/><path d="M192.864 336.79a2.788 2.788 0 0 1-2.556-1.766 2.818 2.818 0 0 1-.194-1.074 2.865 2.865 0 0 1 1.14-2.29 3.408 3.408 0 0 0-1.649 1.248 3.41 3.41 0 0 0-.621 1.972 3.302 3.302 0 0 0 5.634 2.334 3.3 3.3 0 0 0 .966-2.334v-.35a2.775 2.775 0 0 1-2.72 2.26Z" fill="#46395B" style="mix-blend-mode:multiply" opacity=".25"/><path d="M194.206 332.99a.94.94 0 0 1-1.87 0 .944.944 0 0 1 .935-.844.942.942 0 0 1 .935.844Z" fill="#937D58" style="mix-blend-mode:screen" opacity=".5"/><path fill-rule="evenodd" clip-rule="evenodd" d="M221.221 53.86v345.13h-2.26l.83-17.44-.83-32.18.83-28.81.78-44.18-.78-43.05.84-11.14-.84-21.43-.83-34.28 1.41-25.19-.58-20.9.71-29.74.07-15.3-.78-21.49h1.43Z" fill="#937D58" style="mix-blend-mode:screen" opacity=".5"/><path fill-rule="evenodd" clip-rule="evenodd" d="m177.383 229.24 4.05-1.25h24.55l1.59 1.25h-30.19Z" fill="url(#W)"/><path d="m207.574 229.24.01 15.36-.51 6.93v-6.99l-.26-15.3-.83-1.25 1.59 1.25Z" fill="url(#X)"/><path d="M207.074 251.53v-6.99l-.26-15.3h-1.22l.46 2.38.73 11.47.29 8.44Z" fill="#937D58" style="mix-blend-mode:screen" opacity=".5"/><path d="M190.352 303.75a22.451 22.451 0 0 1-4.322-44.477 22.444 22.444 0 0 1 12.972 1.302 22.445 22.445 0 0 1 13.82 20.775 22.48 22.48 0 0 1-22.47 22.4Zm0-36.88a14.427 14.427 0 0 0-13.313 8.91 14.435 14.435 0 0 0 3.119 15.713 14.43 14.43 0 0 0 24.644-10.143 14.451 14.451 0 0 0-14.45-14.48Z" fill="#73377F" style="mix-blend-mode:multiply" opacity=".45"/><path d="M190.352 295.75a22.451 22.451 0 0 1-4.322-44.477 22.444 22.444 0 0 1 12.972 1.302 22.445 22.445 0 0 1 13.82 20.775 22.48 22.48 0 0 1-22.47 22.4Zm0-36.88a14.427 14.427 0 0 0-13.313 8.91 14.435 14.435 0 0 0 3.119 15.713 14.43 14.43 0 0 0 24.644-10.143 14.451 14.451 0 0 0-14.45-14.48Z" fill="url(#Y)"/><path d="M190.354 258.87a14.45 14.45 0 0 1 14.4 13.35c0-.35.05-.71.05-1.07a14.449 14.449 0 0 0-28.89 0v1.07a14.447 14.447 0 0 1 14.44-13.35Z" fill="#70414F" style="mix-blend-mode:multiply" opacity=".15"/><path d="M190.353 294.02c-13.94 0-21.43-11.05-22.37-22.57 0 .61-.1 1.23-.1 1.85a22.47 22.47 0 1 0 44.94 0c0-.62 0-1.24-.09-1.85-.95 11.52-8.43 22.57-22.38 22.57Z" fill="#70414F" style="mix-blend-mode:multiply" opacity=".15"/><path d="M184.902 291.74a19.848 19.848 0 0 1-13.52-14.39 1.326 1.326 0 0 1 .66-1.448 1.38 1.38 0 0 1 .56-.172c.175-.019.352-.002.52.05a1.367 1.367 0 0 1 .92 1 17.177 17.177 0 0 0 11.68 12.46 17.115 17.115 0 0 0 20.045-8.372 17.108 17.108 0 0 0 1.985-7.518 1.309 1.309 0 0 1 1.19-1.3 1.35 1.35 0 0 1 .53 0 1.317 1.317 0 0 1 1 1.29 19.783 19.783 0 0 1-8.212 15.505 19.789 19.789 0 0 1-17.308 2.885l-.05.01Z" fill="#A08D70" style="mix-blend-mode:screen" opacity=".35"/><path d="M190.889 274.11c7.473 0 13.53-7.343 13.53-16.4 0-9.058-6.057-16.4-13.53-16.4-7.472 0-13.53 7.342-13.53 16.4 0 9.057 6.058 16.4 13.53 16.4Z" fill="#73377F" style="mix-blend-mode:multiply" opacity=".45"/><path d="M190.89 266.21c6.881 0 12.46-5.574 12.46-12.45 0-6.876-5.579-12.45-12.46-12.45-6.882 0-12.46 5.574-12.46 12.45 0 6.876 5.578 12.45 12.46 12.45Z" fill="url(#Z)"/><path fill-rule="evenodd" clip-rule="evenodd" d="M193.809 260.35a10.481 10.481 0 0 1-7-18.34 12.44 12.44 0 1 0 16.51 12.34 10.511 10.511 0 0 1-9.51 6Z" fill="#70414F" style="mix-blend-mode:multiply" opacity=".15"/><path fill-rule="evenodd" clip-rule="evenodd" d="M198.782 249.84c-.63 1.45-2.69 2-4.59 1.13-1.9-.87-2.94-2.68-2.3-4.14.64-1.46 2.69-2 4.59-1.13 1.9.87 2.94 2.65 2.3 4.14Z" fill="#A08D70" style="mix-blend-mode:screen"/><path d="M221.203 398.99V53.86c71.86 0 130 30.59 166 80.14-10.8 71.77-39.08 265-39.08 265l-126.92-.01Z" fill="url(#aa)"/><path d="m336.1 102.48-3.73 36.75-8.01 84.67-8.16 67.06-6.67 73.44-2.09 20.59h-.76l2.38-29.88 3.67-50.24 4.11-44.31 9.7-77.21 5.91-65.88 2.4-15.86 1.25.87Z" fill="#774040"/><g opacity=".25"><path d="M353.412 99.64c-8.42 15.49-10.56 33.44-12.4 50.72-.88 8.25-1.29 16.57-2.37 24.8-.51 3.86-1.1 7.7-1.84 11.52-.69 3.61-3 8.61-2.41 12.21 0-.06.24-.22.27-.28 4.15-8.08 5.64-17.89 7.3-26.77 1.66-8.88 3.17-17.89 4.47-26.9 1.26-8.74 2.58-17.47 4.55-26.08 1.82-7.94 4.6-15.56 6.63-23.42-.41 1.56-3.41 2.74-4.2 4.2Zm12.21 25.451c-11.55 34-19.34 69.36-26.76 104.5-3.7 17.5-4.83 35.13-5.7 53-.9 18.37-4.94 36.48-8 54.57-3.61 21.05-7.55 42-10.92 63.1.36-2.26 5.77-3.78 6.13-6.13 5.39-35.42 10-71 14.78-106.51 2.41-18 2.4-36.34 5.78-54.26 3.28-17.44 7.37-34.79 11.37-52.07 4.51-19.45 9.35-38.69 15-57.82-.21.62-1.45.96-1.68 1.62Zm-31.569 78.939c-5 16.67-5.58 34.07-7.46 51.25-1.76 16-4.27 32.18-9.82 47.37a87.07 87.07 0 0 1-3 7.17l-.5 4.92c6.38-10.52 9.8-22.68 11.89-34.78 1.29-7.53 1.89-15.13 2.46-22.75.65-8.61 1.37-17.22 2.38-25.79a208.359 208.359 0 0 1 5.23-28.6c-.09.47-1.03.73-1.18 1.21Z" fill="#8E208E" style="mix-blend-mode:multiply" opacity=".3"/></g><g opacity=".4"><path d="M250.04 361.78c-.35-10.58-.53-21.19-.75-31.77-.45-21.87-.42-43.73-1.05-65.59-.63-21.86-1.61-44-1.14-65.9.23-10.93 0-21.9 0-32.83s.55-21.82 0-32.67c-1.21-25 2.46-50.06 1.36-75.12 0 .74-2.26 1.54-2.32 2.32-1.49 21.56.84 43.11.22 64.67-.34 11.54-1 23-1 34.57 0 10.59.07 21.18 0 31.77-.33 44.3-.73 88.67.56 133 .35 12.25.4 24.5.82 36.75.44 12.74-.28 25.51.54 38.24-.08-1.26 4.08-2.74 4.09-4.08.1-11.17-.96-22.25-1.33-33.36Zm17.298-295.16c0 .93-2.69 1.78-2.77 2.76-2 28.15-1.71 56.36-4.69 84.45-1.42 13.37-3 26.72-3.45 40.16a181.666 181.666 0 0 0 .33 20.74 93.054 93.054 0 0 0 3.82 19.72c0-.16.74-.54.71-.72-4.19-27.4-1.76-54.6.73-82 2.56-28.27 4.6-56.78 5.32-85.11Zm-4.889 217.3c-.25-6.73 0-13.45-.12-20.18s-.94-13.29-1.35-20c0 .27-.87.59-.88.88-.15 7-.75 13.91-.64 20.93.11 7.02.63 13.78.63 20.69 0 13.62.45 27.16.85 40.76 0-.67 2.1-1.4 2.1-2.1-.09-13.65-.1-27.28-.59-40.98Zm3.838 90.71c-.33-5.37-.69-10.72-1.26-16.06-1.14-10.54-1.33-21-1.75-31.53 0 .33-1 .69-1.05 1.05-1.14 11.77-1.41 23.68-2.22 35.5a163.912 163.912 0 0 0-.15 16.44c.12 3.73-1.13 14.45 3 15.79.955-.73 1.81-1.584 2.54-2.54 2.33-6.13 1.29-12.2.89-18.65Z" fill="#8E208E" style="mix-blend-mode:multiply" opacity=".3"/></g><g opacity=".2"><path d="M300.51 146.569a54.369 54.369 0 0 1-17.31-21.83 49.049 49.049 0 0 1-2-5.54l-.27 7.08a62.063 62.063 0 0 0 16.53 23.34c8.25 7 18.63 9.63 27.36 15.78a31.686 31.686 0 0 1 4 3.32l.71-7.05c-8.9-6.45-20.23-8.38-29.02-15.1Zm28.012-9.759c-8.11-.88-15.11-6.25-20-12.53-9.39-12.13-12.32-28.36-9.32-43.23l-1.52-.62c-5.1 19-.37 42.36 16.4 54.07a26.383 26.383 0 0 0 17.71 4.33l.2-1.95a22.46 22.46 0 0 1-3.47-.07ZM319.08 89.2l-1.18-.48c-2.63 7.94-3.87 17.08 1.9 24a24.005 24.005 0 0 0 13.84 7.92l.76-7.55c-9.7-3.74-16.75-12.59-15.32-23.89Zm-9.309 127.67a56.788 56.788 0 0 0-10.4-19.37c-5.17-6.15-12.17-10.45-17.57-16.35-1-1.12-2-2.28-2.87-3.47l-.22 5.68c4.78 6.4 10.6 11.92 15.26 18.42a70.733 70.733 0 0 1 9.94 20.94c4.34 14.51 5.14 29.63 7.69 44.48a105.237 105.237 0 0 0 5.27 20.37l1.92-19.11c-.42-2.13-.81-4.25-1.16-6.38-2.43-15.08-3.05-30.61-7.86-45.21Zm-4.342 172.24h1.24l4.18-41.63a57.6 57.6 0 0 0-2-7.88c-2.58-7.68-6.58-14.75-9.71-22.2a105.455 105.455 0 0 1-6.54-23c-2.7-15.76-2.85-31.83-5.47-47.61-1.26-7.58-2.63-15.13-5.23-22.4a88.097 88.097 0 0 0-4.37-10.5l-.24 6.28c.89 2.1 1.69 4.25 2.41 6.42a110.761 110.761 0 0 1 4.84 22.76c1.73 16.37 1.33 32.88 3.9 49.18a100 100 0 0 0 6.35 23.23c3.12 7.42 7.09 14.48 9.87 22a63.151 63.151 0 0 1 3.6 25.13c-.35 6.89-1.76 13.51-2.83 20.22Z" fill="#8E208E" style="mix-blend-mode:multiply" opacity=".3"/></g><path d="m281.513 100.48.37-8.51-.64-15.55h-2.11l2.38 24.06Zm-8.698 203.27-1.15 63.16-.97-45.39 2.12-17.77Zm57.997-167.93 1.641-18.35 2.4-15.86-3.521-1.53-.52 16.12v19.62Z" fill="#D9772F" style="mix-blend-mode:screen" opacity=".5"/><path d="m302.852 86.07 2.81 17.37-1.37 19.25 3.29-21.08-.9-13.78-3.83-1.76Z" fill="#774040"/><path d="m304.279 122.69 1.37-19.25-2.8-17.37s-3.49-2.33-3.49-2c0 .33 4.84 20.28 4.84 20.28l.08 18.34Zm5.304 225.32-2.9 36.98h-1.73l2.31-13.73 2.32-23.25Z" fill="#D9772F" style="mix-blend-mode:screen" opacity=".5"/><path d="m288.633 317.86-3.34 17.12-.91 19.01 2.82 18.72v10.95h1.43v-8.97l-2.12-21.75v-17.61l2.12-17.47Zm61.247-94.16-.43 15.14 2.03 10.58 2.51 4.69-.81 6.45-3.3-11.14-1.56-9.22 1.56-16.5Z" fill="#774040"/><path d="m349.88 223.7-1.56 16.5 1.56 9.22 3.3 11.14-4.86-11.54-1.57-9.59 3.13-15.73Zm-62.676 160.62v-11.61l-2.82-18.72.91-19.01 3.34-17.12-4.25 17.02-.9 19.67 2.57 17.01 1.15 12.76Z" fill="#D9772F" style="mix-blend-mode:screen" opacity=".5"/><path d="m283.481 77.07-1.45 40.4-2.37 66.28-3.95 77.73-2.7 83.77-.55 39.74h-2.75l1.95-18.08 1.2-66.17 2.89-77.52 3.81-77.55 2.32-53.7-.64-15.55 2.24.65Z" fill="#774040"/><path d="M237.008 70.54v3.23c50 5.92 89.41 20.37 129.8 67.05-.44 3.16-2.76 19.42-6 42.14l-124.13-20v2.48l123.7 20.66c-5.82 40.82-14.34 100.6-20.48 143.7h-105v15h102.84c-3.32 23.28-5.54 38.88-5.54 38.88h2.68l36-243.87c-9.57-13.23-51.68-64.78-133.87-69.27Z" fill="#73377F" style="mix-blend-mode:multiply" opacity=".45"/><path d="M234.875 231.24h30.19l4.24 3.36v43.85l-3.85 4.25h-30.58v-51.46Z" fill="#73377F" style="mix-blend-mode:multiply" opacity=".45"/><path d="M234.859 68.25v2.1c56.21 3.77 103.89 28 136 69.4-1.28 8.53-2.76 18.45-4.37 29.32l-131.63-23.67v17.13l129.47 21c-10.24 69.11-24.42 165.82-29.64 201.46h1.65c6.14-41.91 26.86-183.25 36.45-247.2-32.46-41.85-80.88-66.21-137.93-69.54Z" fill="url(#ab)"/><path fill-rule="evenodd" clip-rule="evenodd" d="m237.015 70.55-.31 84.16-1.83 4.82 1.8 3.41-.81 220.72h99.02l1.46 1.33h-101.47V68.25l2.14 2.3Z" fill="url(#ac)"/><path d="M221.203 53.86v345.13h126.89s28.28-193.22 39.08-265c-35.97-49.54-94.09-80.13-165.97-80.13Zm115.14 331.13h-101.48v-42.21h107.67s-4.77 32.57-6.19 42.21Zm8.39-57.21h-109.87v-47.09h30.58l3.86-4.24V232.6l-4.24-3.36h-30.2v-69.71l131.34 22.38c-6.7 45.33-21.47 145.87-21.47 145.87ZM234.863 142.4V68.25c57.05 3.33 105.47 27.69 137.93 69.54-1.26 8.42-2.72 18.19-4.31 28.89v-.2l-133.62-24.08Z" fill="url(#ad)"/><path fill-rule="evenodd" clip-rule="evenodd" d="m343.265 326.56-107.19-.19-1.2 1.42h109.86l-1.47-1.23Z" fill="url(#ae)"/><path d="M346.579 172.06a3.3 3.3 0 1 0 5.122-2.85 3.3 3.3 0 0 0-1.823-.55 3.362 3.362 0 0 0-3.064 2.114 3.348 3.348 0 0 0-.235 1.286Z" fill="#73377F" style="mix-blend-mode:multiply" opacity=".35"/><path d="M345.664 171.26c.02.648.23 1.276.604 1.806a3.3 3.3 0 1 0 2.696-5.206 3.362 3.362 0 0 0-3.3 3.4Z" fill="url(#af)"/><path d="M348.394 173.17a2.78 2.78 0 0 0 1.965-.849 2.799 2.799 0 0 0 .785-1.991 2.86 2.86 0 0 0-1.14-2.29 3.398 3.398 0 0 1 2.26 3.22 3.298 3.298 0 0 1-3.3 3.3 3.298 3.298 0 0 1-3.3-3.3v-.34a2.771 2.771 0 0 0 2.73 2.25Z" fill="#46395B" style="mix-blend-mode:multiply" opacity=".25"/><path d="M347.095 169.35a.94.94 0 1 0 .94-.89.921.921 0 0 0-.94.89Z" fill="#937D58" style="mix-blend-mode:screen" opacity=".5"/><path d="M304.284 167.15c1.823 0 3.3-1.527 3.3-3.41 0-1.883-1.477-3.41-3.3-3.41-1.822 0-3.3 1.527-3.3 3.41 0 1.883 1.478 3.41 3.3 3.41Z" fill="#73377F" style="mix-blend-mode:multiply" opacity=".35"/><path d="M300.071 162.94a3.3 3.3 0 1 0 5.121-2.86 3.304 3.304 0 0 0-1.821-.55 3.363 3.363 0 0 0-2.358 1.02 3.346 3.346 0 0 0-.942 2.39Z" fill="url(#ag)"/><path d="M302.8 164.85a2.788 2.788 0 0 0 2.547-1.769c.134-.341.199-.705.193-1.071a2.87 2.87 0 0 0-1.13-2.29 3.384 3.384 0 0 1 2.368 2.652 3.374 3.374 0 0 1-1.314 3.303 3.383 3.383 0 0 1-4.9-.955 3.375 3.375 0 0 1-.494-1.78 2.045 2.045 0 0 1 0-.35 2.774 2.774 0 0 0 2.73 2.26Z" fill="#46395B" style="mix-blend-mode:multiply" opacity=".25"/><path d="M301.501 161.05a.939.939 0 1 0 1.811-.31.937.937 0 0 0-.871-.59.912.912 0 0 0-.657.255.92.92 0 0 0-.283.645Z" fill="#937D58" style="mix-blend-mode:screen" opacity=".5"/><path d="M255.391 155.42a3.307 3.307 0 0 0 2.112 2.969 3.304 3.304 0 0 0 4.431-2.475 3.301 3.301 0 0 0-3.243-3.904 3.35 3.35 0 0 0-3.3 3.41Z" fill="#73377F" style="mix-blend-mode:multiply" opacity=".35"/><path d="M254.485 154.62a3.297 3.297 0 0 0 2.111 2.969 3.305 3.305 0 0 0 3.558-.784 3.295 3.295 0 0 0 .668-3.582 3.303 3.303 0 0 0-3.037-2.013 3.344 3.344 0 0 0-3.067 2.121c-.162.41-.241.848-.233 1.289Z" fill="url(#ah)"/><path d="M257.204 156.52a2.783 2.783 0 0 0 2.553-1.759c.136-.34.203-.704.197-1.071a2.862 2.862 0 0 0-1.13-2.29 3.379 3.379 0 1 1-3.845 5.001 3.389 3.389 0 0 1-.495-1.781v-.35a2.77 2.77 0 0 0 2.72 2.25Z" fill="#46395B" style="mix-blend-mode:multiply" opacity=".25"/><path d="M255.915 152.72a.936.936 0 0 0 .547.904.938.938 0 0 0 .913-1.636.934.934 0 0 0-.53-.158.92.92 0 0 0-.93.89Z" fill="#937D58" style="mix-blend-mode:screen" opacity=".5"/><path d="M226.04 61.35a3.298 3.298 0 0 0 5.669 2.185 3.3 3.3 0 0 0-2.369-5.595 3.353 3.353 0 0 0-3.068 2.122 3.36 3.36 0 0 0-.232 1.288Z" fill="#73377F" style="mix-blend-mode:multiply" opacity=".35"/><path d="M225.133 60.52a3.307 3.307 0 0 0 2.112 2.97 3.299 3.299 0 1 0 1.188-6.38 3.348 3.348 0 0 0-3.3 3.41Z" fill="url(#ai)"/><path d="M227.853 62.42a2.794 2.794 0 0 0 2.553-1.76c.135-.34.202-.704.197-1.07a2.873 2.873 0 0 0-1.13-2.29 3.38 3.38 0 1 1-4.34 3.22v-.35a2.773 2.773 0 0 0 2.72 2.25Z" fill="#46395B" style="mix-blend-mode:multiply" opacity=".25"/><path d="M226.564 58.62a.943.943 0 0 0 .546.904.942.942 0 0 0 1.312-.658.943.943 0 0 0-.928-1.136.909.909 0 0 0-.93.89Z" fill="#937D58" style="mix-blend-mode:screen" opacity=".5"/><path d="M309.914 81.49a3.306 3.306 0 0 0 2.105 2.976 3.3 3.3 0 1 0 1.195-6.376 3.36 3.36 0 0 0-3.3 3.4Z" fill="#73377F" style="mix-blend-mode:multiply" opacity=".35"/><path d="M309 80.69a3.299 3.299 0 0 0 4.003 3.124 3.3 3.3 0 0 0-.703-6.524 3.35 3.35 0 0 0-3.3 3.4Z" fill="url(#aj)"/><path d="M311.725 82.6a2.79 2.79 0 0 0 2.75-2.84 2.855 2.855 0 0 0-1.14-2.29 3.4 3.4 0 0 1 2.26 3.22 3.298 3.298 0 0 1-6.393 1.317 3.285 3.285 0 0 1-.197-1.317v-.34a2.781 2.781 0 0 0 2.72 2.25Z" fill="#46395B" style="mix-blend-mode:multiply" opacity=".25"/><path d="M310.423 78.8a.94.94 0 1 0 .94-.89.92.92 0 0 0-.94.89Z" fill="#937D58" style="mix-blend-mode:screen" opacity=".5"/><path d="M379.675 139.23c1.823 0 3.3-1.527 3.3-3.41 0-1.883-1.477-3.41-3.3-3.41-1.823 0-3.3 1.527-3.3 3.41 0 1.883 1.477 3.41 3.3 3.41Z" fill="#73377F" style="mix-blend-mode:multiply" opacity=".35"/><path d="M375.461 135.02a3.308 3.308 0 0 0 2.112 2.97 3.304 3.304 0 0 0 4.431-2.475 3.297 3.297 0 0 0-1.421-3.355 3.307 3.307 0 0 0-1.822-.55 3.362 3.362 0 0 0-2.357 1.02 3.353 3.353 0 0 0-.943 2.39Z" fill="url(#ak)"/><path d="M378.204 136.93c.368-.005.73-.083 1.067-.229a2.777 2.777 0 0 0 1.683-2.611 2.87 2.87 0 0 0-1.13-2.29 3.374 3.374 0 0 1 2.369 2.652 3.384 3.384 0 0 1-3.043 3.957 3.38 3.38 0 0 1-3.666-3.389v-.35a2.793 2.793 0 0 0 2.72 2.26Z" fill="#46395B" style="mix-blend-mode:multiply" opacity=".25"/><path d="M376.891 133.13a.943.943 0 0 0 1.102.966.942.942 0 0 0 .357-1.71.936.936 0 0 0-.529-.156.902.902 0 0 0-.855.55.912.912 0 0 0-.075.35Z" fill="#937D58" style="mix-blend-mode:screen" opacity=".5"/><path d="M368.972 218.22c1.822 0 3.3-1.526 3.3-3.41 0-1.883-1.478-3.41-3.3-3.41-1.823 0-3.3 1.527-3.3 3.41 0 1.884 1.477 3.41 3.3 3.41Z" fill="#73377F" style="mix-blend-mode:multiply" opacity=".35"/><path d="M364.758 214.01a3.307 3.307 0 0 0 2.112 2.969 3.295 3.295 0 0 0 3.558-.785 3.303 3.303 0 0 0 .667-3.581 3.294 3.294 0 0 0-3.037-2.013 3.339 3.339 0 0 0-2.358 1.02 3.356 3.356 0 0 0-.942 2.39Z" fill="url(#al)"/><path d="M367.483 215.92a2.78 2.78 0 0 0 1.965-.849 2.799 2.799 0 0 0 .785-1.991 2.86 2.86 0 0 0-1.14-2.29 3.39 3.39 0 0 1 2.26 3.22 3.29 3.29 0 0 1-.898 2.45 3.308 3.308 0 0 1-2.397 1.032 3.307 3.307 0 0 1-3.099-2.164 3.306 3.306 0 0 1-.196-1.318v-.35a2.775 2.775 0 0 0 2.72 2.26Z" fill="#46395B" style="mix-blend-mode:multiply" opacity=".25"/><path d="M366.204 212.12a.937.937 0 0 0 1.098.966.94.94 0 0 0-.158-1.866.912.912 0 0 0-.862.549.924.924 0 0 0-.078.351Z" fill="#937D58" style="mix-blend-mode:screen" opacity=".5"/><path d="M228.683 218.22c1.822 0 3.3-1.526 3.3-3.41 0-1.883-1.478-3.41-3.3-3.41-1.823 0-3.3 1.527-3.3 3.41 0 1.884 1.477 3.41 3.3 3.41Z" fill="#73377F" style="mix-blend-mode:multiply" opacity=".35"/><path d="M224.469 214.01a3.3 3.3 0 1 0 3.29-3.41 3.34 3.34 0 0 0-2.351 1.023 3.34 3.34 0 0 0-.939 2.387Z" fill="url(#am)"/><path d="M227.202 215.92a2.785 2.785 0 0 0 2.555-1.766 2.8 2.8 0 0 0 .195-1.074 2.872 2.872 0 0 0-1.14-2.29 3.393 3.393 0 0 1 2.26 3.22 3.302 3.302 0 0 1-5.692 2.45 3.302 3.302 0 0 1-.898-2.45v-.35a2.764 2.764 0 0 0 2.72 2.26Z" fill="#46395B" style="mix-blend-mode:multiply" opacity=".25"/><path d="M225.891 212.12a.945.945 0 0 0 .552.896.935.935 0 0 0 1.306-.657.937.937 0 0 0-.391-.977.936.936 0 0 0-.527-.162.907.907 0 0 0-.656.255.924.924 0 0 0-.284.645Z" fill="#937D58" style="mix-blend-mode:screen" opacity=".5"/><path d="M351.204 311.87a3.296 3.296 0 0 0 2.111 2.969 3.305 3.305 0 0 0 3.558-.784 3.303 3.303 0 0 0-.548-5.046 3.295 3.295 0 0 0-1.821-.549 3.344 3.344 0 0 0-3.067 2.121c-.162.41-.241.848-.233 1.289Z" fill="#73377F" style="mix-blend-mode:multiply" opacity=".35"/><path d="M353.581 314.48c1.823 0 3.3-1.527 3.3-3.41 0-1.883-1.477-3.41-3.3-3.41-1.822 0-3.3 1.527-3.3 3.41 0 1.883 1.478 3.41 3.3 3.41Z" fill="url(#an)"/><path d="M353.001 312.97a2.795 2.795 0 0 0 2.556-1.767c.135-.341.201-.706.194-1.073a2.824 2.824 0 0 0-1.14-2.28 3.372 3.372 0 0 1 2.378 2.65 3.382 3.382 0 0 1-4.863 3.605 3.386 3.386 0 0 1-1.845-3.045v-.34a2.771 2.771 0 0 0 2.72 2.25Z" fill="#46395B" style="mix-blend-mode:multiply" opacity=".25"/><path d="M351.704 309.17a.941.941 0 0 0 1.857.252.94.94 0 0 0-.917-1.142.92.92 0 0 0-.94.89Z" fill="#937D58" style="mix-blend-mode:screen" opacity=".5"/><path d="M339.289 391.83a3.297 3.297 0 0 0 2.105 2.976 3.3 3.3 0 1 0 1.195-6.376 3.344 3.344 0 0 0-3.3 3.4Z" fill="#73377F" style="mix-blend-mode:multiply" opacity=".35"/><path d="M338.383 391.03a3.3 3.3 0 1 0 3.29-3.4 3.349 3.349 0 0 0-3.29 3.4Z" fill="url(#ao)"/><path d="M341.103 392.94a2.798 2.798 0 0 0 1.965-.849 2.788 2.788 0 0 0 .785-1.991 2.824 2.824 0 0 0-1.14-2.28 3.382 3.382 0 0 1 1.063 5.959 3.376 3.376 0 0 1-3.548.296 3.372 3.372 0 0 1-1.845-3.045v-.34c.121.633.459 1.204.955 1.615.497.41 1.121.635 1.765.635Z" fill="#46395B" style="mix-blend-mode:multiply" opacity=".25"/><path d="M339.806 389.14a.94.94 0 1 0 .94-.89.921.921 0 0 0-.94.89Z" fill="#937D58" style="mix-blend-mode:screen" opacity=".5"/><path d="M225.383 391.83a3.304 3.304 0 0 0 2.105 2.976 3.3 3.3 0 1 0 1.195-6.376c-.44.006-.874.099-1.278.274a3.333 3.333 0 0 0-1.786 1.84 3.368 3.368 0 0 0-.236 1.286Z" fill="#73377F" style="mix-blend-mode:multiply" opacity=".35"/><path d="M224.469 391.03a3.3 3.3 0 1 0 3.29-3.4 3.349 3.349 0 0 0-3.29 3.4Z" fill="url(#ap)"/><path d="M227.205 392.94a2.788 2.788 0 0 0 2.555-1.766c.135-.342.201-.706.195-1.074a2.837 2.837 0 0 0-1.141-2.28 3.382 3.382 0 0 1 1.063 5.959 3.372 3.372 0 0 1-3.548.296 3.379 3.379 0 0 1-1.844-3.045v-.34a2.764 2.764 0 0 0 2.72 2.25Z" fill="#46395B" style="mix-blend-mode:multiply" opacity=".25"/><path d="M225.892 389.14a.944.944 0 0 0 .544.904.952.952 0 0 0 .547.074.95.95 0 0 0 .494-.245.94.94 0 0 0-.645-1.623.921.921 0 0 0-.94.89Z" fill="#937D58" style="mix-blend-mode:screen" opacity=".5"/><path d="M225.384 311.87a3.296 3.296 0 0 0 2.111 2.969 3.304 3.304 0 0 0 3.558-.784 3.303 3.303 0 0 0-.548-5.046 3.297 3.297 0 0 0-1.821-.549 3.35 3.35 0 0 0-3.07 2.12c-.161.41-.24.849-.23 1.29Z" fill="#73377F" style="mix-blend-mode:multiply" opacity=".35"/><path d="M224.469 311.06a3.303 3.303 0 0 0 2.107 2.978 3.297 3.297 0 0 0 3.563-.783 3.297 3.297 0 0 0 .665-3.587 3.297 3.297 0 0 0-3.045-2.008 3.353 3.353 0 0 0-3.29 3.4Z" fill="url(#aq)"/><path d="M227.205 312.97a2.803 2.803 0 0 0 1.964-.849 2.792 2.792 0 0 0 .786-1.991 2.838 2.838 0 0 0-1.141-2.28 3.372 3.372 0 0 1 2.378 2.65c.11.619.046 1.257-.187 1.841a3.374 3.374 0 0 1-2.86 2.121 3.386 3.386 0 0 1-3.172-1.617 3.38 3.38 0 0 1-.488-1.785v-.34a2.759 2.759 0 0 0 2.72 2.25Z" fill="#46395B" style="mix-blend-mode:multiply" opacity=".25"/><path d="M225.891 309.17a.939.939 0 0 0 1.87 0 .94.94 0 0 0-1.87 0Z" fill="#937D58" style="mix-blend-mode:screen" opacity=".5"/><path d="M323.578 335.68c.02.648.23 1.276.604 1.806a3.3 3.3 0 1 0 2.696-5.206 3.362 3.362 0 0 0-3.3 3.4Z" fill="#73377F" style="mix-blend-mode:multiply" opacity=".35"/><path d="M322.672 334.88a3.307 3.307 0 0 0 2.112 2.969 3.3 3.3 0 1 0 1.188-6.379 3.36 3.36 0 0 0-3.3 3.41Z" fill="url(#ar)"/><path d="M325.392 336.79a2.798 2.798 0 0 0 1.965-.849 2.799 2.799 0 0 0 .785-1.991 2.884 2.884 0 0 0-1.13-2.29 3.38 3.38 0 1 1-4.34 3.22v-.35a2.78 2.78 0 0 0 2.72 2.26Z" fill="#46395B" style="mix-blend-mode:multiply" opacity=".25"/><path d="M324.102 332.99a.939.939 0 0 0 1.87 0 .94.94 0 0 0-1.87 0Z" fill="#937D58" style="mix-blend-mode:screen" opacity=".5"/><path d="M288.11 335.68a3.293 3.293 0 0 0 2.105 2.977 3.298 3.298 0 0 0 4.437-2.469 3.304 3.304 0 0 0-3.242-3.908 3.364 3.364 0 0 0-3.3 3.4Z" fill="#73377F" style="mix-blend-mode:multiply" opacity=".35"/><path d="M287.204 334.88a3.298 3.298 0 0 0 5.669 2.185 3.303 3.303 0 0 0-.548-5.046 3.298 3.298 0 0 0-1.822-.549 3.355 3.355 0 0 0-2.354 1.023 3.354 3.354 0 0 0-.945 2.387Z" fill="url(#as)"/><path d="M289.923 336.79a2.798 2.798 0 0 0 1.965-.849 2.783 2.783 0 0 0 .785-1.991 2.87 2.87 0 0 0-1.13-2.29 3.38 3.38 0 1 1-4.34 3.22v-.35c.121.634.458 1.206.955 1.618.496.413 1.12.64 1.765.642Z" fill="#46395B" style="mix-blend-mode:multiply" opacity=".25"/><path d="M288.633 332.99a.944.944 0 0 0 .935.843.937.937 0 0 0 .935-.843.94.94 0 0 0-1.87 0Z" fill="#937D58" style="mix-blend-mode:screen" opacity=".5"/><path d="M247.774 335.68a3.301 3.301 0 0 0 4.003 3.124 3.296 3.296 0 0 0 2.539-2.616 3.304 3.304 0 0 0-3.242-3.908 3.361 3.361 0 0 0-2.354 1.017 3.326 3.326 0 0 0-.71 1.097 3.33 3.33 0 0 0-.236 1.286Z" fill="#73377F" style="mix-blend-mode:multiply" opacity=".35"/><path d="M246.852 334.88a3.3 3.3 0 1 0 3.3-3.41 3.36 3.36 0 0 0-3.3 3.41Z" fill="url(#at)"/><path d="M249.582 336.79a2.788 2.788 0 0 0 2.555-1.766 2.8 2.8 0 0 0 .195-1.074 2.865 2.865 0 0 0-1.14-2.29 3.393 3.393 0 0 1 2.26 3.22 3.302 3.302 0 0 1-5.634 2.334 3.3 3.3 0 0 1-.966-2.334v-.35a2.766 2.766 0 0 0 2.73 2.26Z" fill="#46395B" style="mix-blend-mode:multiply" opacity=".25"/><path d="M248.282 332.99a.935.935 0 0 0 .552.897.937.937 0 0 0 1.306-.658.937.937 0 0 0-.392-.977.938.938 0 0 0-.526-.162.93.93 0 0 0-.354.062.933.933 0 0 0-.508.488.915.915 0 0 0-.078.35Z" fill="#937D58" style="mix-blend-mode:screen" opacity=".5"/><path d="M221.203 53.86v345.13h2l-1-25.09 1-47.54-1-30.61v-54.4l1-17.09-1-29.54v-75.59l1-22.55s-.63-22-1-22.42c-.37-.42 0-20.3 0-20.3h-1Z" fill="url(#au)"/><path fill-rule="evenodd" clip-rule="evenodd" d="m265.065 229.24-4.05-1.25h-24.58l-1.56 1.25h30.19Z" fill="url(#av)"/><path d="M234.871 229.24v23.94l-.84-9.29v-13.18l.84-5.36v3.89Z" fill="#937D58" style="mix-blend-mode:screen" opacity=".5"/><path d="m236.065 229.24-.65 8.05-.54 15.89v-23.94l1.56-1.25-.37 1.25Z" fill="url(#aw)"/><path d="M229.609 281.35a22.468 22.468 0 0 1 13.858-20.773 22.465 22.465 0 0 1 24.494 4.858 22.465 22.465 0 0 1 4.88 24.49 22.467 22.467 0 0 1-36.64 7.298 22.48 22.48 0 0 1-6.592-15.873Zm8 0a14.448 14.448 0 0 0 17.261 14.194 14.454 14.454 0 0 0 11.362-11.353 14.458 14.458 0 0 0-.823-8.353 14.459 14.459 0 0 0-13.36-8.918 14.45 14.45 0 0 0-14.41 14.43h-.03Z" fill="#73377F" style="mix-blend-mode:multiply" opacity=".45"/><path d="M229.609 273.35a22.468 22.468 0 0 1 13.858-20.773 22.465 22.465 0 0 1 24.494 4.858 22.465 22.465 0 0 1 4.88 24.49 22.467 22.467 0 0 1-36.64 7.298 22.48 22.48 0 0 1-6.592-15.873Zm8 0a14.448 14.448 0 0 0 17.261 14.194 14.454 14.454 0 0 0 11.362-11.353 14.458 14.458 0 0 0-.823-8.353 14.459 14.459 0 0 0-13.36-8.918 14.45 14.45 0 0 0-14.41 14.43h-.03Z" fill="url(#ax)"/><path d="M252.085 258.87a14.449 14.449 0 0 0-14.39 13.35v-1.07a14.45 14.45 0 0 1 28.89 0c0 .36 0 .72-.06 1.07a14.437 14.437 0 0 0-14.44-13.35Z" fill="#70414F" style="mix-blend-mode:multiply" opacity=".15"/><path d="M252.079 294.02c14 0 21.43-11.05 22.38-22.57 0 .61.09 1.23.09 1.85a22.47 22.47 0 1 1-44.94 0c0-.62.05-1.24.1-1.85.94 11.52 8.43 22.57 22.37 22.57Z" fill="#70414F" style="mix-blend-mode:multiply" opacity=".15"/><path d="M257.529 291.74a19.848 19.848 0 0 0 13.52-14.39 1.306 1.306 0 0 0-.21-1.06 1.387 1.387 0 0 0-1-.56 1.239 1.239 0 0 0-.51.05 1.348 1.348 0 0 0-.594.377c-.162.175-.274.39-.326.623a17.177 17.177 0 0 1-11.68 12.46 17.115 17.115 0 0 1-20.055-8.369 17.107 17.107 0 0 1-1.985-7.521 1.312 1.312 0 0 0-1.2-1.3 1.3 1.3 0 0 0-.52 0 1.337 1.337 0 0 0-1 1.29 19.822 19.822 0 0 0 17.79 19.14c2.601.268 5.229.013 7.73-.75l.04.01Z" fill="#A08D70" style="mix-blend-mode:screen" opacity=".35"/><path d="M251.553 274.11c7.473 0 13.53-7.343 13.53-16.4 0-9.058-6.057-16.4-13.53-16.4-7.472 0-13.53 7.342-13.53 16.4 0 9.057 6.058 16.4 13.53 16.4Z" fill="#73377F" style="mix-blend-mode:multiply" opacity=".45"/><path d="M251.554 266.21c6.881 0 12.46-5.574 12.46-12.45 0-6.876-5.579-12.45-12.46-12.45-6.882 0-12.46 5.574-12.46 12.45 0 6.876 5.578 12.45 12.46 12.45Z" fill="url(#ay)"/><path fill-rule="evenodd" clip-rule="evenodd" d="M248.635 260.35a10.484 10.484 0 0 0 9.859-6.743 10.474 10.474 0 0 0-2.859-11.597 12.44 12.44 0 1 1-16.51 12.34 10.514 10.514 0 0 0 9.51 6Z" fill="#70414F" style="mix-blend-mode:multiply" opacity=".15"/><path fill-rule="evenodd" clip-rule="evenodd" d="M243.655 249.84c.64 1.45 2.7 2 4.6 1.13 1.9-.87 2.93-2.68 2.3-4.14-.63-1.46-2.69-2-4.6-1.13-1.91.87-2.93 2.65-2.3 4.14Z" fill="#A08D70" style="mix-blend-mode:screen"/><path d="m166.5 287.74-2.4-67.12-.6 40.01 3 27.11Zm150.344-27.18 5.32-42.34 3.66-29.13-7.12 43.71-1.86 27.76Z" fill="#D9772F" style="mix-blend-mode:screen" opacity=".5"/><path d="M351.122 402.49h-259.8l-.57-3.89c-4.78-32.67-29.14-198.94-38.94-264.08l-.21-1.42.84-1.16c38.21-52.59 98.15-81.59 168.76-81.59 70.61 0 130.59 29 168.8 81.6l.84 1.16-.21 1.41c-9.8 65.14-34.16 231.41-38.94 264.08l-.57 3.89Zm-255.48-5h251.15c4.9-33.46 29-197.79 38.8-263.1-37.26-51-95.61-79-164.37-79s-127.11 28.06-164.38 79c9.83 65.31 33.9 229.64 38.8 263.1Z" fill="#382422"/><path d="M221.203 50.35c-68.49 0-127.4 27.06-163.93 75.18 37-25.55 83.48-32.57 139.92-32.57 71.86 0 124.12 35 153.94 87-8.55 56.81-22 169.57-29.76 222.49l38.76 8.9-.88-2.71-8.13-6.17s28.92-197.62 39.72-269.38c-35.92-50.67-97.76-82.74-169.64-82.74Z" fill="#73377F" style="mix-blend-mode:multiply" opacity=".45"/><path d="m65.623 428.85-1.6 4.47 2.51 4.22 4.5.92 68.42-.66 50.5.66s39.83-.92 40.36-1.05c.53-.13 23.07-.93 23.07-.93l5.94-2.45-1.45-5.18-4.61-9.87 10.12 15.76-5.91 3.06-17.93 1.32h-107.61l-64.27 1.12-5.1-1.9-.79-5 3.85-4.49Z" fill="#997386" style="mix-blend-mode:screen" opacity=".5"/><path d="m105.203 412.84 4 3.73 9.62 1.45 11.34-1.45 9.23 1.45c.8.13 9.76 1 9.76 1l9.9-3.55 6.88-2.72-60.73.09Zm121.629 8.61 2.41-3.43-1.21-3.2h-3.97l-5.1 2.02-4.29 2.9 2.39 2.63 5.18.93 4.59-1.85Zm162.399-182.42-.67 15.08 3.54 20-3.54 13.61-6.16 6.81-5.44 9.98 12.27-65.48Zm4.949 9.47 2.07 5.91 4.55-1.82v-5.73l-1.09-5.54-3.06.69-2.47 6.49ZM8.664 173.23l8.11 22.4 10.38 10.09h9.69l3.91-5.71.84-13.48-6.33-12.11.4-12.26 4.34-8.54 8.26 57.99-5.53 6.17-18.4 6.33-5.34-2.49-10.33-48.39ZM351.32 77.42l9.26 5.79 13.32 4.26 13.27 9.45 7.01 11.74 10.28 11.87 9.92 1.19 8.84-5.67.66-6.73 3.56-1.98-.66-5.73-3.91-6.7 5.89 6.7 5.97 13.31-2.58 7.42-24.13 8.8-6.33-2.98-19.8-22.93-30.57-27.81ZM161.383 27.45l6.54 7.76s13.85 2.24 14.37 2.24c.52 0 21.23-1.32 21.23-1.32l18.68-4.88 17.42-3.8 15.95 4.07 10.82 3.69 7.91.26 2.5-3 4.78-7.26-3.59 14.37-7.06 3.16-23.09-1.89h-50.83l-25.55 1.87-7-3.16-3.08-12.11Zm65.179-2.26 7.691-1.43s1.58-3.59 1.85-4c.27-.41 0-4.48 0-4.48s-8.001 2.63-7.671 3c.33.37-1.87 4.46-1.87 4.46v2.45Z" fill="#7F6660" style="mix-blend-mode:multiply" opacity=".1"/></g><defs><radialGradient id="g" cx="0" cy="0" r="1" gradientUnits="userSpaceOnUse" gradientTransform="matrix(131.978 0 0 136.06 135.599 226.42)"><stop stop-color="#96786D"/><stop offset="1" stop-color="#69473D"/></radialGradient><radialGradient id="j" cx="0" cy="0" r="1" gradientUnits="userSpaceOnUse" gradientTransform="matrix(2.92939 0 0 2.5368 95.424 150.607)"><stop stop-color="#96786D"/><stop offset="1" stop-color="#695040"/></radialGradient><radialGradient id="k" cx="0" cy="0" r="1" gradientUnits="userSpaceOnUse" gradientTransform="matrix(2.92939 0 0 2.5368 140.804 142.324)"><stop stop-color="#96786D"/><stop offset="1" stop-color="#695040"/></radialGradient><radialGradient id="l" cx="0" cy="0" r="1" gradientUnits="userSpaceOnUse" gradientTransform="matrix(2.9294 0 0 2.5368 186.173 134.05)"><stop stop-color="#96786D"/><stop offset="1" stop-color="#695040"/></radialGradient><radialGradient id="m" cx="0" cy="0" r="1" gradientUnits="userSpaceOnUse" gradientTransform="matrix(2.9294 0 0 2.5368 215.383 40.424)"><stop stop-color="#96786D"/><stop offset="1" stop-color="#695040"/></radialGradient><radialGradient id="n" cx="0" cy="0" r="1" gradientUnits="userSpaceOnUse" gradientTransform="matrix(2.92939 0 0 2.5368 131.917 60.5)"><stop stop-color="#96786D"/><stop offset="1" stop-color="#695040"/></radialGradient><radialGradient id="o" cx="0" cy="0" r="1" gradientUnits="userSpaceOnUse" gradientTransform="matrix(2.9294 0 0 2.5368 65.772 114.554)"><stop stop-color="#96786D"/><stop offset="1" stop-color="#695040"/></radialGradient><radialGradient id="p" cx="0" cy="0" r="1" gradientUnits="userSpaceOnUse" gradientTransform="matrix(2.92938 0 0 2.5368 76.425 193.135)"><stop stop-color="#96786D"/><stop offset="1" stop-color="#695040"/></radialGradient><radialGradient id="q" cx="0" cy="0" r="1" gradientUnits="userSpaceOnUse" gradientTransform="matrix(2.92941 0 0 2.5368 216.046 193.135)"><stop stop-color="#96786D"/><stop offset="1" stop-color="#695040"/></radialGradient><radialGradient id="r" cx="0" cy="0" r="1" gradientUnits="userSpaceOnUse" gradientTransform="matrix(2.92939 0 0 2.5368 90.836 289.702)"><stop stop-color="#96786D"/><stop offset="1" stop-color="#695040"/></radialGradient><radialGradient id="s" cx="0" cy="0" r="1" gradientUnits="userSpaceOnUse" gradientTransform="matrix(2.92939 0 0 2.5368 102.679 369.258)"><stop stop-color="#96786D"/><stop offset="1" stop-color="#695040"/></radialGradient><radialGradient id="t" cx="0" cy="0" r="1" gradientUnits="userSpaceOnUse" gradientTransform="matrix(2.92941 0 0 2.5368 216.047 369.258)"><stop stop-color="#96786D"/><stop offset="1" stop-color="#695040"/></radialGradient><radialGradient id="u" cx="0" cy="0" r="1" gradientUnits="userSpaceOnUse" gradientTransform="matrix(2.92941 0 0 2.5368 216.047 289.702)"><stop stop-color="#96786D"/><stop offset="1" stop-color="#695040"/></radialGradient><radialGradient id="v" cx="0" cy="0" r="1" gradientUnits="userSpaceOnUse" gradientTransform="matrix(2.9294 0 0 2.5368 118.306 313.39)"><stop stop-color="#96786D"/><stop offset="1" stop-color="#695040"/></radialGradient><radialGradient id="w" cx="0" cy="0" r="1" gradientUnits="userSpaceOnUse" gradientTransform="matrix(2.9294 0 0 2.5368 153.604 313.39)"><stop stop-color="#96786D"/><stop offset="1" stop-color="#695040"/></radialGradient><radialGradient id="x" cx="0" cy="0" r="1" gradientUnits="userSpaceOnUse" gradientTransform="matrix(2.9294 0 0 2.5368 193.765 313.39)"><stop stop-color="#96786D"/><stop offset="1" stop-color="#695040"/></radialGradient><radialGradient id="A" cx="0" cy="0" r="1" gradientUnits="userSpaceOnUse" gradientTransform="translate(191.545 246.615) scale(12.3966)"><stop stop-color="#96786D"/><stop offset="1" stop-color="#69473D"/></radialGradient><radialGradient id="E" cx="0" cy="0" r="1" gradientUnits="userSpaceOnUse" gradientTransform="matrix(118.97 0 0 122.65 135.962 226.62)"><stop stop-color="#574139"/><stop offset="1" stop-color="#4D332B"/></radialGradient><radialGradient id="F" cx="0" cy="0" r="1" gradientUnits="userSpaceOnUse" gradientTransform="matrix(131.978 0 0 136.06 135.599 226.42)"><stop offset=".29" stop-color="#7A5D53"/><stop offset="1" stop-color="#4D3129"/></radialGradient><radialGradient id="H" cx="0" cy="0" r="1" gradientUnits="userSpaceOnUse" gradientTransform="matrix(2.92939 0 0 2.5368 95.424 150.607)"><stop stop-color="#96786D"/><stop offset="1" stop-color="#695040"/></radialGradient><radialGradient id="I" cx="0" cy="0" r="1" gradientUnits="userSpaceOnUse" gradientTransform="matrix(2.92939 0 0 2.5368 140.804 142.324)"><stop stop-color="#96786D"/><stop offset="1" stop-color="#695040"/></radialGradient><radialGradient id="J" cx="0" cy="0" r="1" gradientUnits="userSpaceOnUse" gradientTransform="matrix(2.9294 0 0 2.5368 186.173 134.05)"><stop stop-color="#96786D"/><stop offset="1" stop-color="#695040"/></radialGradient><radialGradient id="K" cx="0" cy="0" r="1" gradientUnits="userSpaceOnUse" gradientTransform="matrix(2.9294 0 0 2.5368 215.383 40.424)"><stop stop-color="#96786D"/><stop offset="1" stop-color="#695040"/></radialGradient><radialGradient id="L" cx="0" cy="0" r="1" gradientUnits="userSpaceOnUse" gradientTransform="matrix(2.92939 0 0 2.5368 131.917 60.5)"><stop stop-color="#96786D"/><stop offset="1" stop-color="#695040"/></radialGradient><radialGradient id="M" cx="0" cy="0" r="1" gradientUnits="userSpaceOnUse" gradientTransform="matrix(2.9294 0 0 2.5368 65.772 114.554)"><stop stop-color="#96786D"/><stop offset="1" stop-color="#695040"/></radialGradient><radialGradient id="N" cx="0" cy="0" r="1" gradientUnits="userSpaceOnUse" gradientTransform="matrix(2.92938 0 0 2.5368 76.425 193.135)"><stop stop-color="#96786D"/><stop offset="1" stop-color="#695040"/></radialGradient><radialGradient id="O" cx="0" cy="0" r="1" gradientUnits="userSpaceOnUse" gradientTransform="matrix(2.92941 0 0 2.5368 216.046 193.135)"><stop stop-color="#96786D"/><stop offset="1" stop-color="#695040"/></radialGradient><radialGradient id="P" cx="0" cy="0" r="1" gradientUnits="userSpaceOnUse" gradientTransform="matrix(2.92939 0 0 2.5368 90.836 289.702)"><stop stop-color="#96786D"/><stop offset="1" stop-color="#695040"/></radialGradient><radialGradient id="Q" cx="0" cy="0" r="1" gradientUnits="userSpaceOnUse" gradientTransform="matrix(2.92939 0 0 2.5368 102.679 369.258)"><stop stop-color="#96786D"/><stop offset="1" stop-color="#695040"/></radialGradient><radialGradient id="R" cx="0" cy="0" r="1" gradientUnits="userSpaceOnUse" gradientTransform="matrix(2.92941 0 0 2.5368 216.047 369.258)"><stop stop-color="#96786D"/><stop offset="1" stop-color="#695040"/></radialGradient><radialGradient id="S" cx="0" cy="0" r="1" gradientUnits="userSpaceOnUse" gradientTransform="matrix(2.92941 0 0 2.5368 216.047 289.702)"><stop stop-color="#96786D"/><stop offset="1" stop-color="#695040"/></radialGradient><radialGradient id="T" cx="0" cy="0" r="1" gradientUnits="userSpaceOnUse" gradientTransform="matrix(2.9294 0 0 2.5368 118.306 313.39)"><stop stop-color="#96786D"/><stop offset="1" stop-color="#695040"/></radialGradient><radialGradient id="U" cx="0" cy="0" r="1" gradientUnits="userSpaceOnUse" gradientTransform="matrix(2.9294 0 0 2.5368 153.604 313.39)"><stop stop-color="#96786D"/><stop offset="1" stop-color="#695040"/></radialGradient><radialGradient id="V" cx="0" cy="0" r="1" gradientUnits="userSpaceOnUse" gradientTransform="matrix(2.9294 0 0 2.5368 193.765 313.39)"><stop stop-color="#96786D"/><stop offset="1" stop-color="#695040"/></radialGradient><radialGradient id="X" cx="0" cy="0" r="1" gradientUnits="userSpaceOnUse" gradientTransform="matrix(8.08983 0 0 8.34 203.81 239.76)"><stop stop-color="#574139"/><stop offset="1" stop-color="#4D332B"/></radialGradient><radialGradient id="Z" cx="0" cy="0" r="1" gradientUnits="userSpaceOnUse" gradientTransform="translate(191.545 246.615) scale(12.3966)"><stop stop-color="#96786D"/><stop offset="1" stop-color="#69473D"/></radialGradient><radialGradient id="ab" cx="0" cy="0" r="1" gradientUnits="userSpaceOnUse" gradientTransform="matrix(118.971 0 0 122.65 300.378 226.62)"><stop stop-color="#574139"/><stop offset="1" stop-color="#4D332B"/></radialGradient><radialGradient id="ad" cx="0" cy="0" r="1" gradientUnits="userSpaceOnUse" gradientTransform="matrix(131.978 0 0 136.06 300.751 226.42)"><stop offset=".29" stop-color="#7A5D53"/><stop offset="1" stop-color="#4D3129"/></radialGradient><radialGradient id="af" cx="0" cy="0" r="1" gradientUnits="userSpaceOnUse" gradientTransform="matrix(-2.92939 0 0 -2.5368 353.932 150.607)"><stop stop-color="#96786D"/><stop offset="1" stop-color="#695040"/></radialGradient><radialGradient id="ag" cx="0" cy="0" r="1" gradientUnits="userSpaceOnUse" gradientTransform="matrix(-2.9294 0 0 -2.5368 308.552 142.324)"><stop stop-color="#96786D"/><stop offset="1" stop-color="#695040"/></radialGradient><radialGradient id="ah" cx="0" cy="0" r="1" gradientUnits="userSpaceOnUse" gradientTransform="matrix(-2.92938 0 0 -2.5368 263.189 134.05)"><stop stop-color="#96786D"/><stop offset="1" stop-color="#695040"/></radialGradient><radialGradient id="ai" cx="0" cy="0" r="1" gradientUnits="userSpaceOnUse" gradientTransform="matrix(-2.9294 0 0 -2.5368 233.971 40.424)"><stop stop-color="#96786D"/><stop offset="1" stop-color="#695040"/></radialGradient><radialGradient id="aj" cx="0" cy="0" r="1" gradientUnits="userSpaceOnUse" gradientTransform="matrix(-2.92939 0 0 -2.5368 317.437 60.5)"><stop stop-color="#96786D"/><stop offset="1" stop-color="#695040"/></radialGradient><radialGradient id="ak" cx="0" cy="0" r="1" gradientUnits="userSpaceOnUse" gradientTransform="matrix(-2.9294 0 0 -2.5368 383.582 114.554)"><stop stop-color="#96786D"/><stop offset="1" stop-color="#695040"/></radialGradient><radialGradient id="al" cx="0" cy="0" r="1" gradientUnits="userSpaceOnUse" gradientTransform="matrix(-2.9294 0 0 -2.5368 372.929 193.135)"><stop stop-color="#96786D"/><stop offset="1" stop-color="#695040"/></radialGradient><radialGradient id="am" cx="0" cy="0" r="1" gradientUnits="userSpaceOnUse" gradientTransform="matrix(-2.92939 0 0 -2.5368 233.308 193.135)"><stop stop-color="#96786D"/><stop offset="1" stop-color="#695040"/></radialGradient><radialGradient id="an" cx="0" cy="0" r="1" gradientUnits="userSpaceOnUse" gradientTransform="matrix(-2.9294 0 0 -2.5368 358.517 289.702)"><stop stop-color="#96786D"/><stop offset="1" stop-color="#695040"/></radialGradient><radialGradient id="ao" cx="0" cy="0" r="1" gradientUnits="userSpaceOnUse" gradientTransform="matrix(-2.9294 0 0 -2.5368 346.675 369.258)"><stop stop-color="#96786D"/><stop offset="1" stop-color="#695040"/></radialGradient><radialGradient id="ap" cx="0" cy="0" r="1" gradientUnits="userSpaceOnUse" gradientTransform="matrix(-2.9294 0 0 -2.5368 233.308 369.258)"><stop stop-color="#96786D"/><stop offset="1" stop-color="#695040"/></radialGradient><radialGradient id="aq" cx="0" cy="0" r="1" gradientUnits="userSpaceOnUse" gradientTransform="matrix(-2.9294 0 0 -2.5368 233.308 289.702)"><stop stop-color="#96786D"/><stop offset="1" stop-color="#695040"/></radialGradient><radialGradient id="ar" cx="0" cy="0" r="1" gradientUnits="userSpaceOnUse" gradientTransform="matrix(-2.92941 0 0 -2.5368 331.038 313.39)"><stop stop-color="#96786D"/><stop offset="1" stop-color="#695040"/></radialGradient><radialGradient id="as" cx="0" cy="0" r="1" gradientUnits="userSpaceOnUse" gradientTransform="matrix(-2.9294 0 0 -2.5368 295.741 313.39)"><stop stop-color="#96786D"/><stop offset="1" stop-color="#695040"/></radialGradient><radialGradient id="at" cx="0" cy="0" r="1" gradientUnits="userSpaceOnUse" gradientTransform="matrix(-2.92938 0 0 -2.5368 255.591 313.39)"><stop stop-color="#96786D"/><stop offset="1" stop-color="#695040"/></radialGradient><radialGradient id="au" cx="0" cy="0" r="1" gradientUnits="userSpaceOnUse" gradientTransform="matrix(118.369 0 0 122.03 219.193 226.42)"><stop stop-color="#574139"/><stop offset="1" stop-color="#4D332B"/></radialGradient><radialGradient id="aw" cx="0" cy="0" r="1" gradientUnits="userSpaceOnUse" gradientTransform="matrix(8.65239 0 0 8.92 232.542 240.58)"><stop stop-color="#574139"/><stop offset="1" stop-color="#4D332B"/></radialGradient><radialGradient id="ay" cx="0" cy="0" r="1" gradientUnits="userSpaceOnUse" gradientTransform="rotate(180 128.654 123.308) scale(12.3966)"><stop stop-color="#96786D"/><stop offset="1" stop-color="#69473D"/></radialGradient><linearGradient id="c" x1="138.24" y1="398.99" x2="138.24" y2="53.86" gradientUnits="userSpaceOnUse"><stop offset=".02" stop-color="#CC8741"/><stop offset=".99" stop-color="#BA5F4C"/></linearGradient><linearGradient id="d" x1="73.672" y1="153.65" x2="207.572" y2="153.65" gradientUnits="userSpaceOnUse"><stop offset=".13" stop-color="#96786D"/><stop offset=".99" stop-color="#BD9688"/></linearGradient><linearGradient id="e" x1="97.531" y1="327.07" x2="207.571" y2="327.07" gradientUnits="userSpaceOnUse"><stop offset=".13" stop-color="#96786D"/><stop offset=".99" stop-color="#BD9688"/></linearGradient><linearGradient id="f" x1="69.648" y1="260.62" x2="207.568" y2="260.62" gradientUnits="userSpaceOnUse"><stop offset=".13" stop-color="#96786D"/><stop offset=".99" stop-color="#BD9688"/></linearGradient><linearGradient id="h" x1="73.93" y1="162.16" x2="207.57" y2="162.16" gradientUnits="userSpaceOnUse"><stop stop-color="#69473D"/><stop offset="1" stop-color="#96786D"/></linearGradient><linearGradient id="i" x1="97.711" y1="335.28" x2="207.571" y2="335.28" gradientUnits="userSpaceOnUse"><stop stop-color="#69473D"/><stop offset="1" stop-color="#96786D"/></linearGradient><linearGradient id="y" x1="190.361" y1="280.7" x2="190.361" y2="229.24" gradientUnits="userSpaceOnUse"><stop stop-color="#96786D"/><stop offset="1" stop-color="#69473D"/></linearGradient><linearGradient id="z" x1="190.352" y1="294.581" x2="190.352" y2="249.864" gradientUnits="userSpaceOnUse"><stop stop-color="#7A5D53"/><stop offset="1" stop-color="#4A322B"/></linearGradient><linearGradient id="B" x1="177.383" y1="228.62" x2="207.573" y2="228.62" gradientUnits="userSpaceOnUse"><stop offset=".13" stop-color="#96786D"/><stop offset=".99" stop-color="#BD9688"/></linearGradient><linearGradient id="C" x1="138.24" y1="398.99" x2="138.24" y2="53.86" gradientUnits="userSpaceOnUse"><stop offset=".02" stop-color="#BD7935"/><stop offset="1" stop-color="#A64835"/></linearGradient><linearGradient id="D" x1="69.648" y1="261.22" x2="207.568" y2="261.22" gradientUnits="userSpaceOnUse"><stop offset=".13" stop-color="#96786D"/><stop offset=".99" stop-color="#BD9688"/></linearGradient><linearGradient id="G" x1="97.531" y1="327.08" x2="207.571" y2="327.08" gradientUnits="userSpaceOnUse"><stop offset=".13" stop-color="#96786D"/><stop offset=".99" stop-color="#BD9688"/></linearGradient><linearGradient id="W" x1="177.383" y1="228.62" x2="207.573" y2="228.62" gradientUnits="userSpaceOnUse"><stop offset=".13" stop-color="#96786D"/><stop offset=".99" stop-color="#BD9688"/></linearGradient><linearGradient id="Y" x1="190.352" y1="294.581" x2="190.352" y2="249.864" gradientUnits="userSpaceOnUse"><stop stop-color="#7A5D53"/><stop offset="1" stop-color="#4A322B"/></linearGradient><linearGradient id="aa" x1="304.193" y1="398.99" x2="304.193" y2="53.86" gradientUnits="userSpaceOnUse"><stop offset=".02" stop-color="#BD7935"/><stop offset="1" stop-color="#A64835"/></linearGradient><linearGradient id="ac" x1="234.875" y1="226.62" x2="336.345" y2="226.62" gradientUnits="userSpaceOnUse"><stop offset=".13" stop-color="#96786D"/><stop offset=".99" stop-color="#BD9688"/></linearGradient><linearGradient id="ae" x1="344.735" y1="327.07" x2="234.865" y2="327.07" gradientUnits="userSpaceOnUse"><stop offset=".13" stop-color="#96786D"/><stop offset=".99" stop-color="#BD9688"/></linearGradient><linearGradient id="av" x1="265.065" y1="228.61" x2="234.865" y2="228.61" gradientUnits="userSpaceOnUse"><stop offset=".13" stop-color="#96786D"/><stop offset=".99" stop-color="#BD9688"/></linearGradient><linearGradient id="ax" x1="252.079" y1="294.582" x2="252.079" y2="249.865" gradientUnits="userSpaceOnUse"><stop stop-color="#7A5D53"/><stop offset="1" stop-color="#4A322B"/></linearGradient><clipPath id="b"><path fill="#fff" d="M0 0h442.44v455.21H0z"/></clipPath><filter id="a" x="-20.008" y="0" width="482.516" height="495.21" filterUnits="userSpaceOnUse" color-interpolation-filters="sRGB"><feFlood flood-opacity="0" result="BackgroundImageFix"/><feColorMatrix in="SourceAlpha" values="0 0 0 0 0 0 0 0 0 0 0 0 0 0 0 0 0 0 127 0" result="hardAlpha"/><feOffset dy="20"/><feGaussianBlur stdDeviation="10"/><feComposite in2="hardAlpha" operator="out"/><feColorMatrix values="0 0 0 0 0 0 0 0 0 0 0 0 0 0 0 0 0 0 0.25 0"/><feBlend in2="BackgroundImageFix" result="effect1_dropShadow_3004_618"/><feBlend in="SourceGraphic" in2="effect1_dropShadow_3004_618" result="shape"/></filter></defs></svg>