<svg xmlns="http://www.w3.org/2000/svg" viewBox="0 0 473.935 473.935" xml:space="preserve"><circle style="fill:#4abc96" cx="236.967" cy="236.967" r="236.967"/><path style="fill:#daecef" d="M235.37 117.013c17.598 0 35.525-16.64 35.525-34.245 0-17.583-17.074-35.498-34.679-35.498-17.59 0-35.087 18.346-35.087 35.932.003 17.602 16.636 33.811 34.241 33.811zm69.32 49.104c0-17.268 1.141-15.611 0-26.406-4.408-13.197-13.205-17.59-22.005-17.59h-39.588c-17.665 0-26.245-.052-43.85-.052-8.801 0-14.529-.599-21.063 5.351-8.887 10.069-8.004 10.971-8.004 39.128v53.721c0 13.893-2.354 35.517 11.577 35.517 13.197 0 13.081-9.414 13.081-23.465 0-19.82-.052-24.965-.052-36.681 0-12.819-.737-14.99 1.841-14.99 2.601 0 2.578.168 2.578 13.785 0 12.599-.094 190.195-.094 200.455 0 8.801 4.685 18.211 17.934 18.211 13.212 0 18.731-7.719 18.731-16.531v-92.381c0-8.808.299-13.059 2.47-13.059 2.223 0 1.923 4.254 1.923 13.059v92.381c0 5.467 5.811 17.373 19.016 17.373 8.793 0 16.89-11.319 16.89-17.19 0-35.173.198-191.774.198-202.854 0-5.994-.513-13.631 1.732-13.631s2.208 2.077 2.208 10.713v33.889c0 23.147 3.596 29.235 12.397 29.235 13.197 0 12.082-22.604 12.082-35.195-.002-17.168-.002-35.342-.002-52.793z"/><path style="fill:#3f3e3d" d="M230.307 283.291h125.964v32.939H230.307z"/><path style="fill:#827159" d="M230.333 285.102s35.861 14.099 62.705 14.099c29.328 0 63.221-14.23 63.221-14.23v-17.343c0-8.801-8.666-8.404-8.666-8.404H238.565c-8.535 0-8.228 8.404-8.228 8.404v17.474h-.004zm71.285 9.983-16.947-.131s.131-1.878.131-4.202a4.21 4.21 0 0 1 4.202-4.21h8.412a4.205 4.205 0 0 1 4.202 4.21v4.333zm54.645 35.42v-40.677s-27.281 13.616-63.405 13.616c-33.231 0-62.522-14.009-62.522-14.009v41.074c0 8.535 8.097 8.412 8.097 8.412h109.294c9.052-.001 8.536-8.416 8.536-8.416zM301.48 311.9c0 2.316-1.878 4.064-4.195 4.064h-8.412c-2.316 0-4.202-1.747-4.202-4.064v-4.34l16.947-.131c0-.004-.138 2.14-.138 4.471z"/><path style="fill:#5b4f3f" d="M230.333 285.102s35.861 14.099 62.705 14.099c29.328 0 63.221-14.23 63.221-14.23v-17.343c0-8.801-8.666-8.404-8.666-8.404H238.565c-8.535 0-8.228 8.404-8.228 8.404v17.474h-.004zm71.285 9.983-16.947-.131s.131-1.878.131-4.202a4.21 4.21 0 0 1 4.202-4.21h8.412a4.205 4.205 0 0 1 4.202 4.21v4.333z"/><path style="fill:#3f3e3d" d="M314.093 259.224v-8.535c0-8.673-8.142-8.273-8.142-8.273h-25.485c-8.011 0-8.281 8.412-8.281 8.412v8.397l41.908-.001zm-33.624-4.476c0-3.802 4.202-4.064 4.202-4.064h16.947c4.464 0 4.202 4.591 4.202 4.591l-.131 3.948h-25.22v-4.475z"/></svg>