<svg height="800" width="800" xmlns="http://www.w3.org/2000/svg" viewBox="0 0 473.935 473.935" xml:space="preserve"><circle style="fill:#f4c82e" cx="236.967" cy="236.967" r="236.967"/><path style="fill:#333" d="M388.529 138.053s-13.343 31.592-24.022 52.056c-10.743 20.595-39.158 29.366-39.158 29.366-53.395-30.694-69.406-24.022-80.535-18.686-5.336 2.567-7.484 2.799-8.288 6.05-.804-3.252-2.952-3.487-8.288-6.05-11.132-5.336-27.143-12.007-80.535 18.686 0 0-28.415-8.771-39.158-29.366-10.679-20.464-24.022-52.056-24.022-52.056s-6.234 56.954-6.234 71.637 10.683 135.707 40.048 155.284c29.366 19.577 60.153 35.139 118.349 35.139s88.662-15.558 118.027-35.139c29.366-19.581 40.048-140.601 40.048-155.284.001-14.683-6.232-71.637-6.232-71.637zM262.614 251.957h-52.179c-22.092 0-28.026-1.785-34.705-25.358 0 0 30.922-6.586 60.628-4.471l.007.022c.052-.007.101-.007.161-.015.052.007.109.007.161.015l.007-.022c29.706-2.11 60.628 4.471 60.628 4.471-6.679 23.577-16.692 25.358-34.708 25.358z"/></svg>