<svg height="800" width="800" xmlns="http://www.w3.org/2000/svg" viewBox="0 0 473.935 473.935" xml:space="preserve"><circle style="fill:#f4c82e" cx="236.967" cy="236.967" r="236.967"/><path style="fill:#333" d="M97.956 227.591s6.155-8.632 2.586-16.408c-10.028-21.882-43.42-5.512-41.152 24.299 0 0 2.245 61.893 90.379 64.808 22.971.767 54.147-4.21 79.098-31.753 17.231-19.023 12.542-54.043-9.56-62.185-23.816-8.778-54.432-2.417-77.283 32.374-21.714 33.047-64.538 10.069-63.839-11.992.651-20.412 24.299-12.431 19.771.857z"/><path style="fill:#333" d="M375.949 227.591s-6.155-8.632-2.593-16.408c10.028-21.882 43.423-5.512 41.16 24.299 0 0-2.245 61.893-90.387 64.808-22.963.767-54.14-4.21-79.09-31.753-17.231-19.023-12.542-54.043 9.56-62.185 23.816-8.778 54.432-2.417 77.283 32.374 21.714 33.047 64.538 10.069 63.839-11.992-.652-20.412-24.307-12.431-19.772.857z"/></svg>