<svg xmlns="http://www.w3.org/2000/svg" viewBox="0 0 473.931 473.931" xml:space="preserve"><circle style="fill:#22a85b" cx="236.966" cy="236.966" r="236.966"/><path style="fill:#dcb282" d="m120.934 352.272-7.708-34.084-72.482 51.685a238.678 238.678 0 0 0 12.071 16.202l68.119-33.803zm271.498 6.604 31.012 24.198c6.14-7.828 11.824-16.026 16.961-24.606l-33.859-36.16-14.114 36.568z"/><path style="fill:#5a8aa3" d="m391.86 360.361.572-1.482-54.806-42.772 3.551-48.388 18.398 4.419 46.974 50.17 1.07-2.78-45.081-53.447-76.942-9.235-71.801 7.753-41.548 12.707-62.177 26.918 3.158 13.961 24.849-17.714 27.068-17.347-2.499 48.452-41.709 20.692.326 1.441 49.44-13.56-8.962 121.525c23.637 7.906 48.909 12.258 75.213 12.258 37.028 0 72.074-8.505 103.291-23.652l-.868-130.617 52.483 40.698z"/><path style="fill:#5a8aa3" d="m165.143 283.124-27.068 17.347-24.849 17.713 7.708 34.088 41.709-20.692zm176.034-15.405-3.551 48.389 54.806 42.768 14.118-36.568-46.974-50.17z"/><path style="fill:#dcb282" d="M294.903 208.596c2.945 23.566-15.323 43.681-40.808 44.942-25.489 1.246-48.538-16.838-51.483-40.404l-12.344-98.685c-2.949-23.566 15.326-43.685 40.808-44.942 25.493-1.253 48.534 16.83 51.479 40.392l12.348 98.697z"/><path style="fill:#dcb282" d="M278.402 278.488c-.625 14.073-13.586 24.299-28.95 22.851-15.36-1.459-27.315-14.035-26.682-28.104l2.627-58.914c.625-14.065 13.583-24.295 28.946-22.843 15.364 1.452 27.315 14.032 26.679 28.093l-2.62 58.917z"/><path style="fill:#5d250e" d="m198.62 231.196 1.695-35.869 36.175 38.522 42.361-5.699 12.879-41.724 15.884 22.869 4.28 32.64-18.319 27.494-21.837 13.624-29.882-4.067-28.811-15.188zm-13.466-113.791s112.511 3.319 116.223-11.54l-18.978-1.968s19.221-5.994 19.94-15.39l-21.205 4.789s7.461-13.62 6.035-23.738l-14.716 8.554c0 .001-81.717-46.221-87.299 39.293z"/><path style="fill:#4d4c4c" d="M282.462 129.731c-10.271 3.528-15.367 15.82-11.371 27.461 3.989 11.633 15.562 18.204 25.837 14.675 10.279-3.528 15.375-15.816 11.382-27.457-4-11.637-15.566-18.208-25.848-14.679zm12.4 36.115c-7.341 2.518-15.611-2.17-18.462-10.481s.789-17.089 8.131-19.611c7.341-2.518 15.607 2.178 18.458 10.488 2.851 8.311-.786 17.086-8.127 19.604zm-59.341-31.105c-10.275 3.528-15.367 15.82-11.375 27.461 3.989 11.629 15.558 18.204 25.837 14.675 10.279-3.528 15.371-15.82 11.379-27.453-3.989-11.637-15.558-18.212-25.841-14.683zm12.397 36.112c-7.341 2.518-15.607-2.17-18.458-10.481-2.855-8.31.782-17.089 8.127-19.611 7.341-2.518 15.603 2.174 18.458 10.484 2.855 8.315-.782 17.093-8.127 19.608z"/><path style="fill:#4d4c4c" d="m226.369 158.209-31.438-6.357-.348-3.184 32.43 6.308z"/><path transform="rotate(-94.192 266.05 154.16)" style="fill:#4d4c4c" d="M264.4 149.583h3.296v9.145H264.4z"/><path style="fill:#4d4c4c" d="m306.181 150.273-18.803-2.821-.479-3.327 19.772 2.893z"/><g style="opacity:.6"><path style="fill:#dcefed" d="M302.989 146.239c-2.851-8.31-11.117-13.006-18.458-10.488 0 0 3.839 6.81 6.395 14.402 2.556 7.585 3.936 15.689 3.936 15.689 7.341-2.514 10.978-11.292 8.127-19.603z"/><path style="fill:#a9d5d0" d="M284.531 135.755c-7.341 2.522-10.982 11.304-8.131 19.611s11.121 12.999 18.462 10.481c0 0-1.381-8.105-3.936-15.689-2.552-7.593-6.395-14.403-6.395-14.403z"/></g><g style="opacity:.6"><path style="fill:#dcefed" d="M256.049 151.145c-2.855-8.31-11.121-13.006-18.462-10.484 0 0 3.847 6.81 6.398 14.402 2.552 7.585 3.936 15.685 3.936 15.685 7.338-2.515 10.979-11.289 8.128-19.603z"/><path style="fill:#a9d5d0" d="M237.587 140.66c-7.341 2.522-10.982 11.304-8.127 19.611 2.847 8.31 11.12 12.999 18.462 10.477 0 0-1.384-8.101-3.936-15.685-2.549-7.593-6.399-14.403-6.399-14.403z"/></g></svg>