<svg height="800" width="800" xmlns="http://www.w3.org/2000/svg" viewBox="0 0 473.931 473.931" xml:space="preserve"><circle style="fill:#48a1af" cx="236.966" cy="236.966" r="236.966"/><circle style="fill:#eacf60" cx="301.96" cy="128.892" r="20.58"/><circle style="fill:#eacf60" cx="319.135" cy="156.02" r="20.58"/><circle style="fill:#eacf60" cx="334.401" cy="165.685" r="20.58"/><circle style="fill:#eacf60" cx="320.669" cy="216.195" r="20.58"/><circle style="fill:#eacf60" cx="298.218" cy="233.037" r="20.58"/><circle style="fill:#eacf60" cx="277.639" cy="233.037" r="20.58"/><circle style="fill:#eacf60" cx="335.636" cy="194.059" r="20.58"/><circle style="fill:#eacf60" cx="298.218" cy="212.453" r="20.58"/><circle style="fill:#dfc65f" cx="233.187" cy="214.964" r="19.592"/><circle style="fill:#dfc65f" cx="206.246" cy="218.631" r="19.592"/><circle style="fill:#dfc65f" cx="171.62" cy="227.409" r="19.596"/><circle style="fill:#dfc65f" cx="172.346" cy="257.13" r="19.592"/><circle style="fill:#dfc65f" cx="174.216" cy="285.833" r="19.592"/><circle style="fill:#dfc65f" cx="215.376" cy="275.206" r="19.592"/><circle style="fill:#dfc65f" cx="201.022" cy="292.269" r="19.588"/><circle style="fill:#dfc65f" cx="218.93" cy="300.164" r="19.592"/><circle style="fill:#dfc65f" cx="211.559" cy="246.305" r="19.592"/><circle style="fill:#dfc65f" cx="194.572" cy="264.355" r="19.599"/><circle style="fill:#dfc65f" cx="282.877" cy="302.821" r="20.363"/><circle style="fill:#dfc65f" cx="305.178" cy="285.421" r="20.359"/><circle style="fill:#dfc65f" cx="320.444" cy="244.374" r="20.359"/><circle style="fill:#dfc65f" cx="314.832" cy="269.294" r="20.359"/><circle style="fill:#dfc65f" cx="295.337" cy="230.65" r="20.363"/><path style="fill:#dfc65f" d="M269.175 196.326c-11.18 1.242-19.229 11.308-17.987 22.484 1.25 11.173 11.311 19.221 22.495 17.979 11.165-1.25 19.221-11.311 17.972-22.484-1.242-11.172-11.304-19.225-22.48-17.979z"/><circle style="fill:#dfc65f" cx="251.184" cy="218.818" r="20.355"/><circle style="fill:#dfc65f" cx="285.945" cy="263.345" r="20.363"/><circle style="fill:#dfc65f" cx="273.672" cy="236.779" r="20.359"/><circle style="fill:#eacf60" cx="224.992" cy="130.501" r="24.262"/><circle style="fill:#eacf60" cx="192.551" cy="139.53" r="24.262"/><circle style="fill:#eacf60" cx="172.158" cy="170.392" r="24.265"/><path style="fill:#eacf60" d="M171.766 227.652c12.875 3.704 26.323-3.734 30.035-16.606 3.697-12.875-3.742-26.323-16.617-30.028-12.868-3.704-26.316 3.731-30.028 16.606-3.701 12.872 3.734 26.32 16.61 30.028z"/><circle style="fill:#eacf60" cx="198.426" cy="230.732" r="24.258"/><circle style="fill:#eacf60" cx="221.737" cy="237.452" r="24.254"/><path style="fill:#eacf60" d="M196.978 195.892c12.864 3.704 26.308-3.734 30.02-16.617 3.704-12.864-3.734-26.312-16.606-30.013-12.875-3.712-26.323 3.727-30.028 16.602-3.693 12.876 3.731 26.332 16.614 30.028z"/><circle style="fill:#eacf60" cx="205.127" cy="207.406" r="24.262"/><path style="fill:#77b7b7" d="m287.783 301.743-26.851-13.309-36.314 4.842-7.308 4.767 13.096 175.724c2.178.06 4.348.165 6.541.165 18.163 0 35.816-2.11 52.807-5.983l-3.996-87.426 2.025-78.78zm-16.24-14.728 40.307-1.904-38.889 1.721z"/><path style="fill:#7f807d" d="m259.252 287.603 1.68.831 10.611-1.419zm82.318 1.564-70.027-2.148-10.612 1.418 26.851 13.309-2.024 78.783 3.996 87.426a234.81 234.81 0 0 0 24.422-6.96c1.171-.4 2.346-.763 3.51-1.186l3.027-26.185 14.567-35.333 18.825 44.639c11.955-6.817 23.3-14.6 33.844-23.326L341.57 289.167zm-124.26 8.879 7.308-4.767 4.393-2.87-74.835 14.032-17.414 5.822L94.06 425.988c11.356 8.599 23.517 16.157 36.336 22.626l25.878-88.403.284 7.499.314 8.464 1.051 4.632 19.352 85.54c2.361.614 4.763 1.134 7.154 1.673a237.378 237.378 0 0 0 45.975 5.751L217.31 298.046z"/><path style="fill:#ce945f" d="M244.109 210.444c16.056-.299 29.874 11.308 30.877 25.934l4.165 61.226c.995 14.612-57.14 15.682-58.136 1.059l-4.165-61.215c-1.003-14.619 11.203-26.712 27.259-27.004z"/><path style="fill:#d69d61" d="M298.488 221.553c1.212 24.681-19.322 44.119-45.867 43.423-26.544-.703-49.043-21.272-50.259-45.953l-5.066-103.374c-1.205-24.677 19.33-44.119 45.874-43.423 26.537.703 49.036 21.272 50.252 45.949l5.066 103.378z"/><path style="fill:#eace57" d="M210.418 132.866c7.416 5.774 18.133 4.445 23.914-2.982 5.796-7.431 4.464-18.148-2.96-23.929-7.439-5.789-18.155-4.46-23.932 2.967-5.8 7.439-4.468 18.148 2.978 23.944z"/><path style="fill:#eace57" d="M200.45 126.516c7.439 5.792 18.148 4.456 23.932-2.982 5.788-7.424 4.449-18.133-2.982-23.929-7.424-5.781-18.14-4.445-23.921 2.99-5.785 7.42-4.445 18.14 2.971 23.921z"/><circle style="fill:#eace57" cx="176.012" cy="123.665" r="17.059"/><path style="fill:#eace57" d="M156.552 158.101c7.424 5.774 18.155 4.445 23.932-2.982 5.781-7.431 4.449-18.151-2.982-23.932-7.424-5.785-18.133-4.445-23.929 2.978-5.777 7.419-4.449 18.14 2.979 23.936zm23.883 29.436c7.439 5.803 18.14 4.456 23.929-2.96 5.788-7.435 4.456-18.14-2.982-23.932-7.424-5.785-18.148-4.456-23.921 2.971-5.782 7.424-4.453 18.144 2.974 23.921z"/><path style="fill:#eace57" d="M177.722 205.224c7.416 5.789 18.148 4.449 23.929-2.975 5.788-7.431 4.445-18.144-2.982-23.932-7.416-5.777-18.133-4.453-23.932 2.971-5.778 7.435-4.438 18.155 2.985 23.936zm18.081-55.168c7.424 5.789 18.148 4.445 23.932-2.982 5.774-7.424 4.445-18.14-2.982-23.929-7.427-5.789-18.133-4.449-23.932 2.975-5.774 7.442-4.45 18.147 2.982 23.936z"/><path style="fill:#eace57" d="M187.155 172.839c7.446 5.8 18.155 4.46 23.932-2.971 5.796-7.431 4.456-18.155-2.975-23.932-7.431-5.777-18.14-4.445-23.929 2.982-5.78 7.431-4.451 18.148 2.972 23.921z"/><path style="fill:#eacf60" d="M282.974 129.562c-7.416 5.774-18.14 4.445-23.921-2.982-5.796-7.431-4.464-18.148 2.96-23.929 7.439-5.789 18.155-4.46 23.932 2.967 5.8 7.439 4.468 18.148-2.971 23.944z"/><path style="fill:#eacf60" d="M244.539 129.944c-18.847.022-31.27-7.775-27.697-17.41 3.566-9.654 21.762-17.493 40.632-17.519 18.907-.019 31.322 7.775 27.749 17.414-3.566 9.653-21.769 17.492-40.684 17.515z"/><path style="fill:#eacf60" d="M296.677 126.019c-7.431 5.792-18.148 4.456-23.932-2.982-5.781-7.424-4.449-18.133 2.982-23.929 7.424-5.781 18.14-4.445 23.921 2.99 5.784 7.42 4.445 18.14-2.971 23.921z"/><circle style="fill:#eacf60" cx="322.502" cy="119.4" r="17.059"/><path style="fill:#eacf60" d="M343.228 155.732c-7.424 5.774-18.155 4.445-23.932-2.982-5.781-7.431-4.449-18.151 2.982-23.932 7.424-5.785 18.133-4.445 23.929 2.978 5.777 7.42 4.448 18.144-2.979 23.936zm-20.606 42.536c-7.439 5.803-18.14 4.456-23.929-2.96-5.788-7.435-4.456-18.14 2.982-23.932 7.424-5.785 18.148-4.456 23.921 2.971 5.778 7.42 4.45 18.14-2.974 23.921zm-17.089-51.516c-7.424 5.789-18.14 4.445-23.932-2.982-5.774-7.424-4.445-18.14 2.982-23.929 7.427-5.789 18.133-4.449 23.932 2.975 5.774 7.438 4.45 18.147-2.982 23.936z"/><path style="fill:#eacf60" d="M314.963 168.604c-7.446 5.8-18.155 4.46-23.932-2.971-5.796-7.427-4.456-18.155 2.975-23.932 7.431-5.777 18.14-4.445 23.929 2.982 5.78 7.435 4.451 18.147-2.972 23.921z"/><path style="fill:#eacf60" d="M317.769 182.168c-7.446 5.8-18.155 4.46-23.932-2.971-5.796-7.427-4.456-18.155 2.975-23.932 7.431-5.777 18.14-4.445 23.929 2.982 5.78 7.434 4.452 18.147-2.972 23.921zm-111.164-80.62c1.325 9.306-5.16 17.945-14.477 19.27-9.332 1.332-17.964-5.145-19.293-14.462-1.325-9.332 5.152-17.972 14.477-19.293 9.333-1.332 17.961 5.145 19.293 14.485z"/><path style="fill:#eacf60" d="M227.469 82.573c1.328 9.332-5.152 17.964-14.484 19.285-9.317 1.328-17.942-5.152-19.278-14.481-1.325-9.313 5.16-17.949 14.484-19.266 9.31-1.339 17.946 5.149 19.278 14.462z"/><path style="fill:#eacf60" d="M252.176 73.896c1.336 9.321-5.152 17.953-14.469 19.285-9.332 1.325-17.964-5.152-19.3-14.477-1.325-9.321 5.167-17.96 14.477-19.278 9.324-1.32 17.971 5.153 19.292 14.47z"/><path style="fill:#eacf60" d="M273.949 79.09c1.325 9.313-5.16 17.96-14.477 19.281-9.324 1.325-17.964-5.156-19.285-14.477-1.328-9.317 5.152-17.945 14.477-19.285 9.31-1.328 17.946 5.16 19.285 14.481z"/><path style="fill:#eacf60" d="M301.126 86.184c1.336 9.339-5.145 17.957-14.462 19.289-9.324 1.325-17.949-5.152-19.285-14.484-1.328-9.317 5.152-17.96 14.469-19.278 9.317-1.328 17.957 5.152 19.278 14.473z"/><path style="fill:#eacf60" d="M318.076 96.96c1.328 9.31-5.16 17.953-14.477 19.278-9.324 1.328-17.949-5.164-19.278-14.477-1.328-9.309 5.145-17.953 14.469-19.293 9.318-1.313 17.954 5.175 19.286 14.492zm-68.684-3.416c1.328 9.321-5.16 17.953-14.484 19.289-9.317 1.317-17.949-5.164-19.278-14.484-1.336-9.317 5.145-17.945 14.477-19.285 9.317-1.314 17.957 5.156 19.285 14.48z"/><path style="fill:#eacf60" d="M273.496 97.929c1.328 9.343-5.152 17.972-14.469 19.289-9.332 1.332-17.972-5.156-19.293-14.477s5.16-17.949 14.484-19.278 17.961 5.153 19.278 14.466z"/></svg>