<svg height="800" width="800" xmlns="http://www.w3.org/2000/svg" viewBox="0 0 473.931 473.931" xml:space="preserve"><circle style="fill:#337180" cx="236.966" cy="236.966" r="236.966"/><path style="fill:#d69d61" d="m292.591 284.022.015.03 18.308-.812 27.955 43.73 4.969 42.312-7.76 16.946 22.926 53.874c8.06-4.853 15.786-10.208 23.188-15.959L344.31 281.616l-51.719 2.406zM152.51 370.528l15.641-67.43 5.13-1.433-36.243 6.327L94.247 426.13a237.605 237.605 0 0 0 29.276 18.933l29.137-74.244-.15-.291z"/><path style="fill:#d5c427" d="m338.865 326.966-27.955-43.73-18.308.812-20.58.909-74.498 9.931-24.247 6.773-5.13 1.433-15.641 67.43.153.292 13.979 26.237 12.569 26.896 4.456 43.887c17.13 3.94 34.948 6.092 53.275 6.092 26.544 0 52.04-4.43 75.864-12.479l7.57-40.95 15.689-34.278 7.76-16.946-4.956-42.309z"/><path style="fill:#b2723a" d="M252.023 90.768s-11.787 146.988 75.004 176.458c0 0-5.093-7.992-12.681-42.922 0 0 7.397 19.057 26.739 17.53 0 0-27.221-39.266-28.647-68.613 0 0-.49 14.14 27.412 19.255 0 0-28.553-42.731-31.345-75.539.003 0-22.893-37.219-56.482-26.169z"/><path style="fill:#ce945f" d="M243.173 208.573c16.056-.299 29.874 11.308 30.877 25.934l4.165 61.226c.995 14.612-20.834 90.098-20.834 90.098s-36.306-74.416-37.302-89.039l-4.165-61.215c-1.002-14.619 11.203-26.712 27.259-27.004z"/><path style="fill:#9f6029" d="M241.516 183.324s-27.349 137.959-86.337 152.118c0 0 5.811-7.484 16.598-41.56 0 0-9.126 18.293-28.247 14.978 0 0 30.724-36.579 34.866-65.668 0 0-.827 14.125-29.077 16.632 0 0 32.381-39.902 38.185-72.31-.004.004 21.593-18.297 54.012-4.19zm3.749 20.763s16.939 139.616 74.704 158.157c0 0-5.231-7.895-13.433-42.682 0 0 7.73 18.918 27.042 17.051 0 0-27.902-38.783-29.855-68.1 0 0-.236 14.151 27.749 18.769 0 0-29.298-42.215-32.662-74.97-.001-.005-20.161-19.866-53.545-8.225z"/><path style="fill:#d69d61" d="M297.552 219.682c1.212 24.681-19.322 44.119-45.867 43.423-26.544-.703-49.043-21.272-50.259-45.953l-5.066-103.374c-1.205-24.677 19.33-44.119 45.874-43.423 26.537.703 49.036 21.272 50.252 45.949l5.066 103.378z"/><path style="fill:#be7c3f" d="M260.73 70.469s-27.349 137.955-86.345 152.117c0 0 5.818-7.484 16.606-41.56 0 0-9.134 18.286-28.247 14.978 0 0 30.724-36.583 34.866-65.672 0 0-.827 14.125-29.077 16.636 0 0 32.381-39.902 38.185-72.317-.004.005 21.589-18.293 54.012-4.182z"/><path style="fill:#be7c3f" d="M251.768 89.387s26.031 40.86 52.048 49.204c0 0-13.01-1.848-10.245-35.289 0 0-.007-27.872-27.872-37.144 0 .004-18.586.011-13.931 23.229z"/></svg>