<svg height="800" width="800" xmlns="http://www.w3.org/2000/svg" viewBox="0 0 473.931 473.931" xml:space="preserve"><circle style="fill:#64a80d" cx="236.966" cy="236.966" r="236.966"/><path style="fill:#ddaa7c" d="m350.857 281.616-51.719 2.406.015.03 18.308-.812 27.955 43.73 4.969 42.312-7.76 16.946 21.538 50.622c8.157-5.205 16.011-10.832 23.446-16.961l-36.752-138.273zm-191.799 88.912 15.641-67.43 5.13-1.433-36.243 6.327L99.43 429.887a236.723 236.723 0 0 0 29.534 17.99l30.248-77.058-.154-.291z"/><path style="fill:#557f0d" d="m345.413 326.966-27.955-43.73-18.308.812-20.58.909-74.498 9.931-24.247 6.773-5.13 1.433-15.641 67.43.153.292 13.979 26.237 12.569 26.896 4.602 45.376a237.893 237.893 0 0 0 46.581 4.602c29.16 0 57.069-5.295 82.865-14.926l7.117-38.503 15.689-34.278 7.76-16.946-4.956-42.308z"/><path style="fill:#b2723a" d="M258.571 90.768s-11.787 146.988 75.004 176.458c0 0-5.093-7.992-12.681-42.922 0 0 7.397 19.057 26.739 17.53 0 0-27.221-39.266-28.647-68.613 0 0-.49 14.14 27.412 19.255 0 0-28.553-42.731-31.345-75.539.003 0-22.893-37.219-56.482-26.169z"/><path style="fill:#d69d61" d="M249.721 208.573c16.056-.299 29.874 11.308 30.877 25.934l4.165 61.226c.995 14.612-20.834 90.098-20.834 90.098s-36.306-74.416-37.302-89.039l-4.165-61.215c-1.002-14.619 11.203-26.712 27.259-27.004z"/><path style="fill:#ddaa7c" d="M304.1 219.682c1.212 24.681-19.322 44.119-45.867 43.423-26.544-.703-49.043-21.272-50.259-45.953l-5.066-103.374c-1.205-24.677 19.33-44.119 45.874-43.423 26.537.703 49.036 21.272 50.252 45.949l5.066 103.378z"/><path style="fill:#be7c3f" d="M267.278 70.469s-31.03 192.364-90.03 206.526c0 0 5.818-7.483 16.606-41.56 0 0-32.411 14.93-51.528 11.626 0 0 57.69-87.643 61.833-116.728 0 0-.827 14.125-29.077 16.636 0 0 32.381-39.902 38.185-72.317-.005.004 21.588-18.294 54.011-4.183z"/><path style="fill:#be7c3f" d="M258.316 89.387s38.843 68.257 64.86 76.609c0 0-14.361-33.354-12.475-51.135 0 0-10.589-39.427-38.454-48.699 0 0-18.586.007-13.931 23.225z"/></svg>