<svg width="245" height="279" fill="none" xmlns="http://www.w3.org/2000/svg"><circle cx="122.5" cy="132.5" r="122.5" fill="#FF637F"/><path fill-rule="evenodd" clip-rule="evenodd" d="M38.384 127.643c-.763-2.392-1.539-4.772-2.302-7.165-1.424-4.506-2.836-9.037-3.93-13.657-.775-3.22-1.767-7.75-1.093-11.01 3.001-14.61 15.26-28.496 26.58-37.622a105.577 105.577 0 0 1 9.995-7.14 39.399 39.399 0 0 1-.19-3.894 39.267 39.267 0 0 1 2.085-12.651c3.523-10.462 11.128-18.952 20.348-24.78a67.603 67.603 0 0 1 69.858 0c9.245 5.828 16.85 14.318 20.348 24.78a39.61 39.61 0 0 1 2.085 12.65 38.357 38.357 0 0 1-.241 4.366 102.259 102.259 0 0 1 13.671 12.422c8.228 8.91 16.355 21.039 18.695 33.155.184 1.307.222 2.63.114 3.946-.076 1.934-.229 3.882-.394 5.816a229.953 229.953 0 0 1-1.933 15.91 33.37 33.37 0 0 1-.496 2.456 49.541 49.541 0 0 1-.42 1.782 20.04 20.04 0 0 1 3.485.56c6.193 1.553 11.446 5.091 14.142 11.009 4.044 8.91.788 19.842-4.54 27.504-5.545 7.981-14.702 14.395-24.812 13.288a25.78 25.78 0 0 1-5.227-1.107 54.64 54.64 0 0 1-12.349 16.66 40.198 40.198 0 0 1-6.537 4.773c-6.842 3.996-14.587 5.918-22.382 6.949a232.674 232.674 0 0 1-25.27 1.438c-25.308.586-57.636-2.164-70.125-28.115a90.493 90.493 0 0 1-1.386-2.991 23.48 23.48 0 0 1-6.83 1.731c-1.82.2-3.658.157-5.468-.127-7.732-1.273-14.345-6.529-18.72-12.817-9.41-13.529-9.284-32.862 9.386-37.546a19.078 19.078 0 0 1 3.853-.573Z" fill="#0F0E0E"/><path fill-rule="evenodd" clip-rule="evenodd" d="M214.281 129.246c5.685 1.426 10.517 4.582 12.997 10.042 3.815 8.337.572 18.659-4.387 25.799-5.189 7.446-13.735 13.593-23.197 12.549-6.13-.674-11.598-3.22-13.875-9.304a22.92 22.92 0 0 1-.928-10.322c1.361-13.771 13.264-32.811 29.39-28.764Z" fill="#0F0E0E"/><path fill-rule="evenodd" clip-rule="evenodd" d="M213.657 131.779c25.867 6.491 7.427 45.59-13.684 43.274-12.324-1.362-13.176-9.864-12.502-16.775 1.221-12.282 11.879-30.088 26.186-26.499Z" fill="#E9BC9D"/><path fill-rule="evenodd" clip-rule="evenodd" d="M198.885 150.375c-2.099 1.578-3.955 8.158-3.955 8.158s6.893-3.08 9.131-.165c2.238 2.914-1.552 8.183-1.552 8.183s13.684-.776 16.826-12.104c3.141-11.327-4.07-12.854-6.27-13.058-2.2-.204-10.123-.305-14.18 8.986Z" fill="#D17F59"/><path fill-rule="evenodd" clip-rule="evenodd" d="M35.027 129.896c15.694-3.946 27.28 14.56 28.602 28 .165 1.488.217 2.985.153 4.48-.395 8.91-5.723 13.657-14.575 14.637a19.415 19.415 0 0 1-5.01-.127c-7.25-1.133-13.468-6.199-17.563-12.091-8.7-12.511-9.055-30.521 8.393-34.899Z" fill="#0F0E0E"/><path fill-rule="evenodd" clip-rule="evenodd" d="M35.657 132.429c-25.092 6.364-7.198 44.215 13.265 42.001 11.954-1.273 12.793-9.559 12.12-16.266-1.17-11.951-11.51-29.222-25.385-25.735Z" fill="#E9BC9D"/><path fill-rule="evenodd" clip-rule="evenodd" d="M50.37 150.375c2.1 1.578 3.956 8.158 3.956 8.158s-6.893-3.08-9.131-.165c-2.239 2.914 1.551 8.183 1.551 8.183s-13.684-.776-16.825-12.104c-3.141-11.327 4.07-12.854 6.27-13.058 2.2-.204 10.123-.305 14.18 8.986Z" fill="#D17F59"/><path fill-rule="evenodd" clip-rule="evenodd" d="M30.756 146.862c2.085-5.091 5.38-6.733 11.013-3.653 3.815 2.049 6.016 5.486 7.77 9.266 1.883 4.073.267 2.431 3.65 4.62.674-2.418.776-2.546-.737-5.931-6.919-15.617-23.884-12.728-21.696-4.302Zm22.433 10.182.662.433c-.23-.115-.458-.204-.687-.306v-.127h.025Zm0 .127c-.19.675-.42 1.528-.674 2.673-3.065-1.667-8.228-3.615-7.745 2.062.242 2.864 2.277 3.487 3.129 4.849-1.895.216-4.273-2.711-4.68-4.607-1.577-7.14 4.972-6.937 9.907-4.926l.063-.051Zm165.556-10.501c-2.162-5.32-5.545-6.949-11.357-3.818-3.815 2.126-6.193 5.651-8.012 9.571-1.946 4.188-.28 2.546-3.815 4.748-.687-2.546-.789-2.546.763-6.122 7.134-16.101 24.621-13.135 22.37-4.417l.051.038Zm-23.133 10.539-.674.445.712-.305v-.14h-.038Zm0 .14c.19.7.419 1.578.686 2.749 3.154-1.718 8.483-3.717 7.987 2.125-.242 2.966-2.353 3.602-3.23 5.015 1.958.216 4.413-2.8 4.82-4.76 1.653-7.471-5.151-7.204-10.225-5.129h-.038ZM124.868 1.743c30.738 0 55.652 20.364 55.652 45.412s-24.939 45.412-55.652 45.412-55.665-20.364-55.665-45.412S94.104 1.743 124.868 1.743Z" fill="#0F0E0E"/><path fill-rule="evenodd" clip-rule="evenodd" d="M124.87 4.352c-29.25 0-53.058 19.09-53.058 42.802 0 23.711 23.757 42.803 53.058 42.803s53.032-19.168 53.032-42.803c0-23.635-23.782-42.802-53.032-42.802Z" fill="#C5C5C5"/><path fill-rule="evenodd" clip-rule="evenodd" d="M124.867 4.352c-20.641 0-38.522 9.494-47.297 23.38 8.775 5.766 26.707 9.724 47.297 9.724 20.589 0 38.508-3.959 47.284-9.724-8.801-13.886-26.682-23.38-47.284-23.38Z" fill="#fff"/><path fill-rule="evenodd" clip-rule="evenodd" d="M123.034 4.377c-.903 0-1.793.064-2.683.127l-2.289 2.011c-6.613 5.842-10.098 14.293-11.764 22.91-2.785 14.369-.432 29.273.623 32.748-1.099.11-2.207.11-3.306 0a26.79 26.79 0 0 1-8-2.037c-5.519-2.393-10.593-7.23-9.207-16.266a59.598 59.598 0 0 1 13.086-28.242 51.748 51.748 0 0 1 10.111-9.533c-1.514.37-3.014.79-4.464 1.273a56.431 56.431 0 0 0-6.982 7.05 61.406 61.406 0 0 0-13.48 29.096c-1.54 10.055 4.094 15.438 10.237 18.111a28.708 28.708 0 0 0 8.521 2.164c2.645.242 4.667-.102 5.087-.662a.993.993 0 0 0 0-1.273c-.776-1.145-3.612-16.8-.636-32.137 1.602-8.247 4.922-16.354 11.204-21.916a180.878 180.878 0 0 0 3.815-3.424h.127Zm21.022 2.864a70.915 70.915 0 0 0-3.815-1.07 66.493 66.493 0 0 1 14.511 16.953 57.037 57.037 0 0 1 8.05 22.426c1.475 12.473 1.272 15.184 1.17 15.757-2.442.815-18.428 5.282-18.428-17.08A67.485 67.485 0 0 0 132.573 4.77a70.3 70.3 0 0 0-2.353-.229 65.465 65.465 0 0 1 13.582 39.736c0 26.727 21.022 18.62 21.086 18.595a.875.875 0 0 0 .559-.93c.229-1.272.407-5.256-.915-16.545a58.993 58.993 0 0 0-8.292-23.152A69.029 69.029 0 0 0 144.056 7.24Z" fill="#AFB0B0"/><path fill-rule="evenodd" clip-rule="evenodd" d="M59.181 179.19c-16.532-34.237-13.315-75.563 6.36-107.79 6.142-10.054 16.532-16.685 27.47-20.542a89.2 89.2 0 0 1 38.33-4.225c20.132 2.087 40.696 10.971 51.925 28.548a113.991 113.991 0 0 1 14.091 32.493 117.358 117.358 0 0 1 3.816 33.397c-.598 18.467-6.194 39.786-20.412 52.564a38.007 38.007 0 0 1-6.257 4.557c-6.626 3.818-14.18 5.74-21.734 6.733-8.329.92-16.7 1.396-25.079 1.425-24.57.56-56.39-1.96-68.51-27.16Z" fill="#0F0E0E"/><path fill-rule="evenodd" clip-rule="evenodd" d="M61.523 178.082c11.014 22.909 39.654 26.269 66.132 25.659 20.462-.471 38.915-.84 51.391-12.053 23.985-21.535 27.47-75.322 2.06-115.07-23.858-37.33-93.88-35.637-113.326-3.818-19.216 31.399-22.382 71.783-6.257 105.282Z" fill="#D17F59"/><path fill-rule="evenodd" clip-rule="evenodd" d="M198.631 134.312a114.024 114.024 0 0 0-17.499-57.694c-23.858-37.33-93.88-35.637-113.326-3.818a114.08 114.08 0 0 0-16.533 56.243 93.527 93.527 0 0 0 10.314 40.244c11.014 21.332 39.654 24.475 66.131 23.915 20.463-.445 38.916-.789 51.392-11.225 11.993-10.119 18.873-27.835 19.521-47.665Z" fill="#E9BC9D"/><path fill-rule="evenodd" clip-rule="evenodd" d="M51.895 149.242c5.964-12.88 15.617-26.206 33.993-28.281 18.377-2.074 29.645-5.753 34.923-10.805l5.29-5.091a42.807 42.807 0 0 0 21.823 13.567c14.244 3.678 19.293 1.158 29.403 6.211 10.111 5.053 20.908 19.55 20.908 19.55s-19.75-48.034-32.671-57.694c-12.921-9.66-43.24-21.153-60.65-14.255-17.41 6.898-61.07 14.255-53.02 76.798Z" fill="#D17F59"/><path fill-rule="evenodd" clip-rule="evenodd" d="M96.962 110.792c4.655-1.451 6.575 6.262 3.052 8.502-3.523 2.24-15.719 4.009-16.672.483-.954-3.525 6.41-8.985 13.62-8.985Zm56.94 0c-4.642-1.451-6.562 6.262-3.04 8.502 3.523 2.24 15.707 4.009 16.673.483.967-3.525-6.41-8.985-13.633-8.985Z" fill="#fff"/><path fill-rule="evenodd" clip-rule="evenodd" d="M126.612 97.734a36.721 36.721 0 0 1-6.562 9.151 37.73 37.73 0 0 1-13.99 9.177c-2.085.738-4.451.916-6.091-.879-1.92-2.125-1.005-5.002.139-7.343-1.411.458-2.836.89-4.26 1.272a97.136 97.136 0 0 0-11.865 4.188c-10.823 4.874-18.097 14.102-24.075 24.182-.152.305-.28.636-.42.954-.317.726-.623 1.451-.928 2.19a126.415 126.415 0 0 0-2.467 6.44c-.763 2.176-2.289 6.618-2.136 8.909v.713l-.7.191c-1.933.496-3.713-2.788-4.451-4.124a78.549 78.549 0 0 1-4.057-9.329 233.981 233.981 0 0 1-4.896-13.899c-1.005-3.105-2.01-6.198-3.002-9.304-1.424-4.492-2.823-9.011-3.916-13.593-.738-3.08-1.717-7.547-1.082-10.64 2.964-14.394 15.109-28.127 26.275-37.126 9.818-7.904 22.637-15.273 35.164-17.462 8.393-1.464 17.614-1.59 25.638 1.566 2.49.941 4.829 2.24 6.944 3.856a38.334 38.334 0 0 1 9.653-4.697c7.707-2.43 15.973-2.24 23.845-.776 13.061 2.431 26.847 13.517 35.609 23.126 8.114 8.91 16.164 20.784 18.479 32.735.167 1.24.201 2.495.101 3.742-.076 1.935-.229 3.818-.394 5.778a231.543 231.543 0 0 1-1.92 15.859 37.55 37.55 0 0 1-.483 2.38 140.296 140.296 0 0 1-.929 3.818 189.158 189.158 0 0 1-2.785 9.864 85.967 85.967 0 0 1-4.095 11.149c-.712 1.515-2.62 5.613-4.871 4.709l-.432-.178-.089-.471c-.522-2.711-.992-5.409-1.59-8.107a38.198 38.198 0 0 0-2.213-7.408c-3.624-7.725-9.093-14.942-16.469-19.396a62.977 62.977 0 0 0-12.539-5.893c-3.409-1.158-6.919-3.195-10.365-4.226l-1.043-.318c.954 2.177 1.526 4.697-.191 6.606-1.717 1.909-4.006 1.616-6.091.878a37.589 37.589 0 0 1-13.29-8.591 36.672 36.672 0 0 1-7.16-9.673Z" fill="#0F0E0E"/><path fill-rule="evenodd" clip-rule="evenodd" d="M125.808 47.943a37.697 37.697 0 0 1 9.984-4.938c7.63-2.393 15.68-2.177 23.413-.738 12.882 2.392 26.541 13.427 35.176 22.91 7.987 8.705 15.999 20.541 18.275 32.314a17.29 17.29 0 0 1 .077 3.538c0 1.922-.217 3.819-.382 5.741a227.253 227.253 0 0 1-1.907 15.794c-.662 4.226-8.038 32.799-11.98 31.208-.725-3.754-2.073-11.913-3.816-15.718-3.7-7.879-9.283-15.273-16.812-19.779a63.888 63.888 0 0 0-12.718-5.969c-3.433-1.158-6.931-1.973-10.39-3.016a55.088 55.088 0 0 1-3.014-.993c.064.102.114.203.165.305 1.094 2.062 2.544 5.155.713 7.23-1.374 1.514-3.434 1.272-5.164.636a36.808 36.808 0 0 1-13.035-8.4 35.651 35.651 0 0 1-7.745-11.15 35.551 35.551 0 0 1-7.186 10.59 36.998 36.998 0 0 1-13.595 8.909c-1.729.611-3.815.878-5.163-.636-1.92-2.126-.305-5.359.827-7.459l.47-.84c-2.085.738-4.21 1.388-6.359 2.037a94.707 94.707 0 0 0-11.967 4.212C72.7 118.67 65.3 126.79 59.195 137.023c-.154.267-6.36 14.382-6.054 18.913-3.688.954-12.337-26.397-12.413-26.664-1.005-3.106-2.01-6.199-3.001-9.304-1.412-4.455-2.81-8.986-3.904-13.529-.674-2.877-1.666-7.357-1.069-10.271 2.913-14.192 14.994-27.785 25.982-36.617 9.678-7.79 22.396-15.12 34.757-17.284 8.228-1.439 17.309-1.579 25.181 1.527a25.99 25.99 0 0 1 7.134 4.15Z" fill="#0F0E0E"/><path fill-rule="evenodd" clip-rule="evenodd" d="M125.986 90.313c-2.543 12.244-12.857 20.72-21.035 23.635-5.354 1.909-1.551-4.378 4.095-12.728-14.103 9.113-34.032 4.2-52.142 34.441-5.468 9.164-4.285 11.213-5.214 13.529-.712 1.795-4.45-7.993-8.533-20.733-3.701-11.556-8.902-26.804-7.898-31.819 4.566-22.235 35.062-47.753 58.628-51.864 22.205-3.882 30.662 5.41 31.565 6.478 4.68-3.245 13.76-10.093 33.231-6.478 19.47 3.614 47.055 30.864 51.366 53.099.674 3.526-3.396 45.997-10.174 47.563-1.552.356-.878-4.111-3.002-8.604-3.001-6.364-8.558-15.273-17.804-20.899-15.77-9.533-23.489-6.949-34.554-14.153 5.418 8.044 8.903 14.001 3.689 12.117-7.822-2.787-17.538-10.666-20.654-22.044a47.874 47.874 0 0 1-.839-3.576h-.407c-.038.623-.165 1.298-.318 2.036Z" fill="#C5C5C5"/><path fill-rule="evenodd" clip-rule="evenodd" d="M109.945 183.453c16.266 7.891 32.277-.445 32.277-.445-8.38 15.769-26.439 15.744-32.277.445Z" fill="#D17F59"/><path fill-rule="evenodd" clip-rule="evenodd" d="M109.602 70.369c7.745-3.971 8.623-2.966 5.978 0-3.027 3.424-10.683 9.418-17.958 13.504a68.064 68.064 0 0 1-2.81 1.489l-.369.178c-9.271 4.48-2.976 4.786 5.405 2.164 1.272-.382 2.544-.828 3.815-1.273a37.178 37.178 0 0 0 9.335-5.244c6.028-4.823 8.902-8.4 10.174-10.55a8.038 8.038 0 0 0 1.094-2.33c.312.868.673 1.718 1.081 2.546a33.077 33.077 0 0 0 12.247 14c7.249 4.378 2.251-5.842-.929-11.595-1.144-2.087-2.06-3.59-2.06-3.59a161.457 161.457 0 0 0 24.316 10.246 87.29 87.29 0 0 0 3.09.993 128.542 128.542 0 0 0 24.507 5.206c1.005.114 2.022.204 3.039.267a82.42 82.42 0 0 0 11.891 0 47.268 47.268 0 0 0 4.413-.522c-5.659-11.455-15.668-22.807-26.236-30.775a70.747 70.747 0 0 0-2.315-1.68c-6.358-4.467-12.832-7.636-18.58-8.667-12.132-2.253-20.221-.446-25.727 2.023a33.348 33.348 0 0 0-4.134 2.202c-1.335.828-2.441 1.617-3.37 2.253a15.015 15.015 0 0 0-2.912-2.545 25.036 25.036 0 0 0-4.782-2.546c-5.011-1.985-12.717-3.36-23.87-1.413a66.824 66.824 0 0 0-21.62 8.477 65.59 65.59 0 0 0-2.379 1.438c-11.038 6.898-21.314 16.546-27.89 26.562a68.888 68.888 0 0 0 17.577 1.273c.991 0 1.983-.102 2.975-.178a146.295 146.295 0 0 0 22.269-3.487c1.055-.255 2.124-.51 3.154-.777a148.42 148.42 0 0 0 5.977-1.654 109.366 109.366 0 0 0 11.802-4.2c1.361-.624 2.62-1.159 3.802-1.795Z" fill="#fff"/><path fill-rule="evenodd" clip-rule="evenodd" d="M92.46 107.979a1.272 1.272 0 0 1 1.654.802c.242.675-1.653 1.273-2.327 1.502-6.054 2.113-11.446 4.531-18.326 6.198a70.73 70.73 0 0 1-19.687 2.38 1.26 1.26 0 0 1-.481-.124 1.276 1.276 0 0 1 .621-2.421c6.394.12 12.772-.66 18.949-2.317 6.74-1.68 13.595-3.92 19.598-6.02Zm66.742 2.1a1.276 1.276 0 0 1-.755-1.238 1.27 1.27 0 0 1 .132-.493c.305-.649 1.386 0 2.034.293 5.087 2.38 13.494 4.073 21.773 5.205 6.359.853 12.298.866 16.062-.776a1.266 1.266 0 0 1 .996-.026 1.278 1.278 0 0 1 .708.7 1.27 1.27 0 0 1 .026.997 1.282 1.282 0 0 1-.7.709c-4.247 1.845-10.721 1.884-17.436.967a88.488 88.488 0 0 1-22.84-6.338Z" fill="#0F0E0E"/><path fill-rule="evenodd" clip-rule="evenodd" d="M117.476 90.72a1.298 1.298 0 1 1 1.958 1.706 60.063 60.063 0 0 1-15.477 12.613 87.689 87.689 0 0 1-19.89 8.222c-4.91 1.4-7.097.955-7.542-.624-.687-2.405 5.024-7.254 9.92-11.454a44.8 44.8 0 0 0 5.926-5.473 1.31 1.31 0 1 1 2.29 1.273c-.675 1.272-3.447 3.576-6.537 6.211-4.312 3.665-9.322 7.929-9.093 8.718 0 0 1.271-.28 4.323-1.171a85.86 85.86 0 0 0 19.306-7.916 57.968 57.968 0 0 0 14.816-12.104Zm18.657 3.692a1.302 1.302 0 0 1 .14-1.833 1.3 1.3 0 0 1 1.832.14 54.262 54.262 0 0 0 14.955 11.964 81.368 81.368 0 0 0 19.662 7.522c1.433.423 2.889.763 4.362 1.018.216-.827-4.782-4.913-9.068-8.413-3.103-2.545-5.875-4.798-6.549-6.02a1.298 1.298 0 0 1-.117-.992 1.315 1.315 0 0 1 .619-.784 1.307 1.307 0 0 1 1.444.116c.135.106.247.238.33.387a43.372 43.372 0 0 0 5.901 5.257c4.896 3.996 10.581 8.642 9.971 11.073-.407 1.603-2.544 2.125-7.529.878a84.553 84.553 0 0 1-20.272-7.777 56.916 56.916 0 0 1-15.681-12.536Zm15.239 28.662c4.35 0 7.872 4.837 7.872 10.78 0 5.944-3.522 10.781-7.872 10.781-4.349 0-7.872-4.824-7.872-10.781 0-5.956 3.523-10.78 7.872-10.78Z" fill="#0F0E0E"/><path fill-rule="evenodd" clip-rule="evenodd" d="M84.4 151.838c6.702 0 12.145 3.36 12.145 7.522 0 4.162-5.443 7.509-12.145 7.509s-12.158-3.36-12.158-7.509c0-4.149 5.443-7.522 12.158-7.522Zm81.039 0c6.715 0 12.158 3.36 12.158 7.522 0 4.162-5.443 7.509-12.158 7.509s-12.158-3.36-12.158-7.509c0-4.149 5.443-7.522 12.158-7.522Z" fill="#D17F59"/><path fill-rule="evenodd" clip-rule="evenodd" d="M156.659 125.429a2.42 2.42 0 0 1 2.232 1.493 2.415 2.415 0 1 1-4.649.925 2.413 2.413 0 0 1 2.417-2.418Z" fill="#fff"/><path fill-rule="evenodd" clip-rule="evenodd" d="M98.31 123.074c-4.35 0-7.873 4.837-7.873 10.78 0 5.944 3.523 10.781 7.873 10.781 4.349 0 7.859-4.824 7.859-10.781 0-5.956-3.523-10.78-7.86-10.78Z" fill="#0F0E0E"/><path fill-rule="evenodd" clip-rule="evenodd" d="M92.995 125.429a2.42 2.42 0 0 0-2.233 1.493 2.418 2.418 0 0 0 3.157 3.159 2.416 2.416 0 0 0 1.492-2.234 2.421 2.421 0 0 0-2.416-2.418Z" fill="#fff"/><path fill-rule="evenodd" clip-rule="evenodd" d="M108.702 172.749a1.302 1.302 0 1 1 1.716-1.96c6.067 5.346 14.397 5.231 14.409 5.231 0 0 8.343.115 14.422-5.231a1.294 1.294 0 0 1 1.831.127 1.306 1.306 0 0 1 .316.943 1.305 1.305 0 0 1-.443.89c-6.753 5.931-15.922 5.867-16.126 5.867-.203 0-9.36.064-16.125-5.867Z" fill="#0F0E0E"/><path fill-rule="evenodd" clip-rule="evenodd" d="M125.095 162.44c10.378 0 14.384-8.095 14.384-3.602s-6.206 10.819-14.511 10.819-14.663-6.555-14.663-11.048 4.387 3.831 14.79 3.831Z" fill="#D17F59"/><path fill-rule="evenodd" clip-rule="evenodd" d="M114.073 149.916c-4.515 3.907-4.248 5.995 1.729 9.355 7.949 4.467 14.104 3.487 21.62-1.718 3.205-2.228.153-5.881-1.793-7.637a3.7 3.7 0 0 1 2.327 1.12c7.287 6.644-5.939 12.498-10.047 13.453-8.915 2.087-26.198-10.233-13.836-14.573Z" fill="#0F0E0E"/><path fill-rule="evenodd" clip-rule="evenodd" d="M96.95 179.698a1.3 1.3 0 1 1-.535-2.545 9.499 9.499 0 0 0 5.087-3.347 9.458 9.458 0 0 0 1.806-5.868 1.292 1.292 0 0 1 .06-.494 1.287 1.287 0 0 1 1.117-.874 1.268 1.268 0 0 1 .927.305 1.28 1.28 0 0 1 .44.872 11.632 11.632 0 0 1-2.319 7.628 11.612 11.612 0 0 1-6.685 4.336l.101-.013Zm56.707-2.545a1.3 1.3 0 0 1 1.005 1.54 1.301 1.301 0 0 1-1.539 1.005 11.61 11.61 0 0 1-6.685-4.336 11.624 11.624 0 0 1-2.319-7.627 1.288 1.288 0 0 1 .44-.872 1.273 1.273 0 0 1 2.103 1.062 9.468 9.468 0 0 0 1.806 5.868 9.438 9.438 0 0 0 5.189 3.36Zm-23.006-25.965a2.415 2.415 0 0 1 2.37 2.89 2.412 2.412 0 0 1-3.295 1.763 2.414 2.414 0 0 1-1.084-.891 2.414 2.414 0 0 1 .3-3.053 2.414 2.414 0 0 1 1.709-.709Z" fill="#D17F59"/><path fill-rule="evenodd" clip-rule="evenodd" d="M99.598 140.511a7.636 7.636 0 0 0-6.756 11.224 7.634 7.634 0 0 0 3.805 3.463 7.637 7.637 0 0 0 5.137.26 7.635 7.635 0 0 0 5.389-8.053 7.632 7.632 0 0 0-7.575-6.894Zm-57.305-10.182c5.748-.84 14.829.98 23.706 3.703a128.97 128.97 0 0 1 22.7 9.215 11.96 11.96 0 0 1 10.886-7.02 11.95 11.95 0 0 1 10.887 7.02 41.661 41.661 0 0 1 16.393-2.24c4.731.229 9.194 1.196 12.158 2.927a11.975 11.975 0 0 1 8.677-7.438 11.957 11.957 0 0 1 10.958 3.238 12.16 12.16 0 0 1 2.607 3.908c7.102-3.968 14.6-7.18 22.371-9.584 8.52-2.724 17.257-4.544 22.789-3.704l-.508 3.436c-4.986-.751-13.15.98-21.239 3.564-9.512 3.042-18.771 7.191-22.56 9.826v1.018a11.97 11.97 0 0 1-3.502 8.46 11.952 11.952 0 0 1-20.407-8.46v-.598c-2.137-1.846-6.614-2.889-11.561-3.131a37.373 37.373 0 0 0-15.261 2.113c.077.535.116 1.075.115 1.616a11.972 11.972 0 0 1-3.802 8.679 11.946 11.946 0 0 1-13.579 1.909 11.949 11.949 0 0 1-6.045-7.293 11.973 11.973 0 0 1-.394-4.822c-4.375-2.635-13.442-6.453-22.739-9.304-8.457-2.546-17.003-4.34-22.218-3.577l-.483-3.436.051-.025Zm107.908 10.182a7.635 7.635 0 0 0-6.755 11.224 7.631 7.631 0 0 0 8.941 3.723 7.635 7.635 0 0 0 5.389-8.053 7.632 7.632 0 0 0-2.195-4.654 7.532 7.532 0 0 0-2.466-1.66 7.531 7.531 0 0 0-2.914-.58Z" fill="#fff"/><path fill-rule="evenodd" clip-rule="evenodd" d="M42.785 135.025a.865.865 0 0 1-.909-.821.867.867 0 0 1 .82-.91c6.464-.23 12.91.808 18.975 3.055l.267.101c9.59 3.36 26.007 9.762 26.058 9.775a.868.868 0 0 1 .547.853c0 .674.165 10.818 10.085 11.976.486.051.974.076 1.463.077a9.597 9.597 0 0 0 6.956-2.775 11.644 11.644 0 0 0 3.192-7.013c.066-.583.1-1.169.102-1.756a.867.867 0 0 1 .623-.827c.801-.319 7.796-2.979 13.659-2.979a.865.865 0 0 1 0 1.731 41.33 41.33 0 0 0-12.552 2.673c0 .458 0 .904-.102 1.349a13.564 13.564 0 0 1-3.637 8.019 11.305 11.305 0 0 1-8.178 3.283 14.961 14.961 0 0 1-1.666-.102c-10.25-1.196-11.446-10.64-11.585-13.134-2.9-1.12-16.902-6.555-25.436-9.546l-.292-.102a47.36 47.36 0 0 0-18.39-2.927Z" fill="#0F0E0E"/><path fill-rule="evenodd" clip-rule="evenodd" d="M206.11 133.371a.876.876 0 0 1 .732 1.246.85.85 0 0 1-.834.485 45.382 45.382 0 0 0-18.695 3.169l-.559.216c-8.572 3.042-21.315 7.968-24.253 9.113a12.384 12.384 0 0 1-1.424 7.293 11.112 11.112 0 0 1-3.815 3.984 12.816 12.816 0 0 1-5.189 1.82 13.846 13.846 0 0 1-8.508-1.629 12.322 12.322 0 0 1-4.553-4.315 13.4 13.4 0 0 1-1.793-6.58 41.113 41.113 0 0 0-12.565-2.673.868.868 0 0 1-.612-.253.868.868 0 0 1 0-1.224.865.865 0 0 1 .612-.254c5.875 0 12.87 2.66 13.658 2.978a.868.868 0 0 1 .636.828 11.855 11.855 0 0 0 1.552 6.274 10.475 10.475 0 0 0 3.904 3.704 12.051 12.051 0 0 0 7.453 1.425c1.59-.196 3.121-.73 4.489-1.565a9.378 9.378 0 0 0 3.243-3.373 10.875 10.875 0 0 0 1.157-6.873.875.875 0 0 1 .547-.954s15.261-5.944 24.901-9.368l.534-.191a46.84 46.84 0 0 1 19.382-3.283ZM58.228 198.917a2.08 2.08 0 0 1-.178-.497c-1.068-2.787-2.734-5.689-1.691-8.731s4.362-4.251 7.376-4.658a3.466 3.466 0 0 1 2.111.369c16.864 9.011 39.603 11.557 58.501 11.149 18.898-.407 41.739-3.932 58.844-12.587a3.33 3.33 0 0 1 2.035-.344c3.065.408 6.155 1.579 7.414 4.659 1.373 3.334-.293 6.911-1.272 10.182a8.981 8.981 0 0 0-.47 3.614c.254 1.404.394 2.825.419 4.251v.637l.128.076c3.026 1.794 4.463 5.613 4.387 8.998a13.013 13.013 0 0 1-6.499 10.666c-15.706 9.851-46.037 15.769-64.528 15.769-18.492 0-48.823-5.918-64.529-15.769a12.96 12.96 0 0 1-6.499-10.666c-.089-3.385 1.348-7.204 4.375-8.998l.14-.076v-.637a26.6 26.6 0 0 1 .432-4.251 3.542 3.542 0 0 0 0-.738 7.633 7.633 0 0 0-.394-1.909l-.102-.509Z" fill="#0F0E0E"/><path fill-rule="evenodd" clip-rule="evenodd" d="m190.466 207.381.585.344c2.747 1.629 4.031 5.154 3.942 8.222a12.092 12.092 0 0 1-6.079 9.953c-15.502 9.723-45.795 15.654-64.045 15.654s-48.568-5.918-64.071-15.642a12.134 12.134 0 0 1-6.092-9.953c-.076-3.067 1.208-6.592 3.955-8.222l.573-.343v-1.107c.02-1.384.157-2.763.407-4.124a4.378 4.378 0 0 0 0-.917 8.925 8.925 0 0 0-.433-2.138c-.903-2.813-3.065-6.096-2.022-9.113.967-2.825 4.006-3.729 6.677-4.098.54-.072 1.088.03 1.564.293 17.003 9.062 39.933 11.645 58.933 11.238 19-.407 42.057-3.984 59.226-12.727a2.629 2.629 0 0 1 1.526-.255c2.734.369 5.595 1.375 6.727 4.137 1.272 3.029-.394 6.605-1.271 9.545a9.538 9.538 0 0 0-.496 3.997c.243 1.361.379 2.74.407 4.123.025.369 0 .764-.013 1.133Z" fill="#0F0E0E"/><path fill-rule="evenodd" clip-rule="evenodd" d="M64.207 188.467c-9.869 1.35-.954 7.764-2.047 14.128-1.094 6.364.903 5.524-2.2 7.369-3.104 1.846-4.744 9.38 2.2 13.733 14.803 9.278 44.625 15.273 62.684 15.273 18.059 0 47.882-5.956 62.685-15.273 6.944-4.353 5.303-11.887 2.187-13.733-3.115-1.845-1.093-1.005-2.187-7.369-1.094-6.364 7.109-14.204-2.76-15.54-30.878 15.629-88.628 18.455-120.562 1.412Z" fill="#E6AD3F"/><path fill-rule="evenodd" clip-rule="evenodd" d="M66.023 225.873a74.24 74.24 0 0 0 4.731 2.202 29.956 29.956 0 0 1 1.514-2.991c2.403-4.34 4.947-8.909 2.938-20.771-.764-4.467-1.272-7.204-.814-9.329.122-.63.323-1.241.597-1.82a78.607 78.607 0 0 1-4.858-1.884 12.515 12.515 0 0 0-.852 2.749c-.572 3.017 0 6.109.801 11.137 1.704 10.08-.381 13.835-2.352 17.386-.598 1.081-1.196 2.15-1.705 3.321Zm15.045 5.919a121.4 121.4 0 0 0 5.087 1.463 28.073 28.073 0 0 1 1.628-3.271c2.416-4.34 4.947-8.909 2.938-20.771-.763-4.467-1.272-7.204-.814-9.316.167-.9.495-1.762.967-2.546a109.77 109.77 0 0 1-5.253-1.12 12.496 12.496 0 0 0-.826 2.673c-.573 3.029 0 6.109.8 11.149 1.705 10.068-.368 13.822-2.352 17.386a33.32 33.32 0 0 0-2.124 4.327l-.05.026Zm17.805 4.391c1.742.318 3.472.623 5.189.903a22.64 22.64 0 0 1 1.996-4.34c2.417-4.34 4.947-8.909 2.938-20.771-.75-4.467-1.272-7.204-.814-9.317a8.444 8.444 0 0 1 1.272-2.952 151.237 151.237 0 0 1-5.609-.446 12.495 12.495 0 0 0-.725 2.431c-.559 3.029 0 6.109.802 11.137 1.704 10.08-.369 13.835-2.34 17.385a25.862 25.862 0 0 0-2.658 5.97h-.051Zm24.354 2.736h1.64c1.183 0 2.429 0 3.714-.076-.216-1.095-.458-2.151-.7-3.208a52.918 52.918 0 0 1-.992-21.089c.611-4.951.98-7.98.573-10.895a15.116 15.116 0 0 0-.979-3.691c-1.908 0-3.816.089-5.711.089a12.481 12.481 0 0 1 1.552 4.302c.305 2.215 0 5.015-.611 9.571a57.33 57.33 0 0 0 1.107 22.846c.165.713.318 1.413.47 2.138l-.063.013Zm22.306-1.833c1.717-.28 3.447-.585 5.189-.903a25.872 25.872 0 0 0-2.645-5.97c-1.971-3.55-4.057-7.305-2.34-17.385.852-5.091 1.361-8.108.788-11.137a12.842 12.842 0 0 0-1.119-3.334c-1.874.263-3.756.492-5.646.687a9.07 9.07 0 0 1 1.653 3.614c.407 2.113 0 4.85-.814 9.317-2.009 11.862.534 16.431 2.938 20.771a21.21 21.21 0 0 1 1.996 4.34Zm17.996-3.818a186.92 186.92 0 0 0 5.087-1.464 31.938 31.938 0 0 0-2.124-4.327c-1.971-3.564-4.044-7.318-2.34-17.386.852-5.091 1.361-8.12.788-11.149a12.884 12.884 0 0 0-1.526-4.085c-1.755.458-3.535.878-5.354 1.272a9.475 9.475 0 0 1 1.781 3.819c.394 2.112-.064 4.849-.814 9.316-2.022 11.862.521 16.431 2.925 20.771a26.217 26.217 0 0 1 1.628 3.271l-.051-.038Zm15.35-5.18a75.19 75.19 0 0 0 4.743-2.202c-.521-1.171-1.106-2.24-1.717-3.322-1.971-3.551-4.044-7.305-2.34-17.385.853-5.028 1.361-8.121.802-11.137a13.25 13.25 0 0 0-1.615-4.238c-1.603.662-3.256 1.272-4.96 1.896a8.726 8.726 0 0 1 1.462 3.297c.394 2.125 0 4.861-.814 9.329-2.009 11.849.522 16.431 2.938 20.771.573.96 1.087 1.955 1.539 2.978l-.038.013Z" fill="#fff"/><path fill-rule="evenodd" clip-rule="evenodd" d="M154.219 235.483a177.371 177.371 0 0 0 9.538-2.278c-1.704-12.397-7.046-32.697-23.731-34.186-1.959.216-3.93.394-5.901.534a50.248 50.248 0 0 1 19.865 34.084l.229 1.846Z" fill="#D08B3B"/><path fill-rule="evenodd" clip-rule="evenodd" d="M56.624 211.378a.88.88 0 0 1 .75-.98.865.865 0 0 1 .967.738c.585 4.213 5.278 8.489 13.366 12.333 8.088 3.843 19.407 7.14 33.396 9.469 21.785 3.615 33.727.687 45.097-2.113 1.767-.432 3.51-.865 5.341-1.272 1.081-.255 14.587-4.85 25.13-9.508 5.608-2.545 10.314-4.964 11.687-6.72a.871.871 0 0 1 .606-.345.865.865 0 0 1 .666.205.863.863 0 0 1 .14 1.209c-1.577 2.011-6.524 4.646-12.362 7.229-10.606 4.709-24.328 9.368-25.435 9.622-1.742.395-3.51.828-5.303 1.273-11.547 2.838-23.654 5.817-45.783 2.138-14.167-2.354-25.677-5.727-33.88-9.609-8.685-4.111-13.709-8.858-14.383-13.669Zm2.508-12.652a1.29 1.29 0 0 1-.262-.957 1.297 1.297 0 0 1 2.31-.634c5.086 6.542 5.697 8.146 5.697 8.146a1.304 1.304 0 0 1-.725 1.693 1.302 1.302 0 0 1-1.692-.726s-.483-1.272-5.328-7.522Zm130.427-7.611a1.305 1.305 0 0 1 1.685-.745 1.303 1.303 0 0 1 .744 1.687c-2.95 7.636-5.57 10.818-5.583 10.831a1.28 1.28 0 0 1-.875.488 1.266 1.266 0 0 1-.956-.297 1.274 1.274 0 0 1-.191-1.82s2.391-2.915 5.176-10.144Z" fill="#0F0E0E"/><path fill-rule="evenodd" clip-rule="evenodd" d="M196.584 278.667c-10.963.115-21.964.28-32.926.28a4.458 4.458 0 0 1-2.404-.674c-1.958-1.273-2.403-3.628-2.543-5.766-.033-2.553.12-5.105.458-7.636a189.063 189.063 0 0 0 1.615-21.115c0-21.102-7.783-36.566-28.348-44.394-.725-.28-2.734-.343-3.001-1.069-.483-1.273 5.214-7.636 9.589-7.267 1.52.102 3.045.102 4.566 0a85.42 85.42 0 0 0 5.977-.522 51.177 51.177 0 0 0 9.729-1.922 15.847 15.847 0 0 1 11.446 0c4.921 1.998 8.33 6.555 10.873 11.035a141.923 141.923 0 0 1 7.478 16.546 116.262 116.262 0 0 1 4.731 14.407 174.421 174.421 0 0 1 4.807 27.008c.369 3.627.636 7.293.725 10.958a59.235 59.235 0 0 1-.178 7.802 2.545 2.545 0 0 1-2.594 2.329Z" fill="#0F0E0E"/><path fill-rule="evenodd" clip-rule="evenodd" d="M133.398 196.932c49.942 19.002 20.056 79.407 30.255 79.407 5.761 0 32.901-.28 32.901-.28.953-9.113-1.209-37.521-9.895-58.878-6.358-15.744-12.221-31.017-26.49-26.117a72.566 72.566 0 0 1-21.327 2.546c-3.485-.255-5.444 3.322-5.444 3.322Z" fill="#E6AD3F"/><path fill-rule="evenodd" clip-rule="evenodd" d="M133.398 196.931c49.942 19.002 20.056 79.407 30.255 79.407 5.761 0 32.901-.28 32.901-.28.47-4.531.178-13.86-1.272-24.73-4.82.28-10.937 2.368-18.441 3.309-12.247 1.528-9.182-11.951-13.48-31.271-3.815-17.386-17.156-25.824-27.597-28.904a7.709 7.709 0 0 0-2.366 2.469Z" fill="#D08B3B"/><path fill-rule="evenodd" clip-rule="evenodd" d="M142.586 201.412a43.545 43.545 0 0 1 4.693 3.271c.572-.369 1.043-.726 1.488-1.031 1.653-1.184 2.391-1.718 7.096-.318 7.44 2.201 11.446-.204 14.803-2.24a18.515 18.515 0 0 1 2.239-1.273c2.072-.866 5.811 1.183 6.854 1.794a33.499 33.499 0 0 0-4.96-7.102 8.212 8.212 0 0 0-3.891.51 21.44 21.44 0 0 0-2.925 1.565c-2.48 1.502-5.418 3.271-10.657 1.718-7.135-2.125-8.508-1.133-11.599 1.069a25.06 25.06 0 0 1-3.141 2.037Zm11 9.596a41.18 41.18 0 0 1 2.989 4.276l.152-.114c1.653-1.184 2.391-1.718 7.097-.318 7.439 2.201 11.445-.204 14.803-2.24a18.427 18.427 0 0 1 2.238-1.273 5.346 5.346 0 0 1 3.523.229 145.603 145.603 0 0 0-2.442-5.587 7.701 7.701 0 0 0-3.078.547 21.63 21.63 0 0 0-2.925 1.578c-2.543 1.489-5.405 3.258-10.657 1.706-7.134-2.113-8.508-1.133-11.586 1.069l-.114.127Zm6.992 13.045a50.174 50.174 0 0 1 1.437 5.346l.229-.153c1.653-1.183 2.391-1.718 7.084-.318 7.452 2.202 11.446-.204 14.816-2.24a20.404 20.404 0 0 1 2.238-1.273 5.09 5.09 0 0 1 3.294.153 120.237 120.237 0 0 0-1.87-5.498 7.994 7.994 0 0 0-3.421.534 21.63 21.63 0 0 0-2.925 1.578c-2.48 1.49-5.417 3.259-10.657 1.706-6.003-1.731-7.936-1.311-10.225.165Zm2.75 15.757c.102 2.113.127 4.2.076 6.25a29.821 29.821 0 0 0 2.213-1.49c1.654-1.183 2.391-1.705 7.084-.318 7.452 2.215 11.446-.203 14.816-2.24a19.45 19.45 0 0 1 2.238-1.273 5.662 5.662 0 0 1 3.815.331 151.18 151.18 0 0 0-1.195-5.562 8.666 8.666 0 0 0-4.591.42 23.15 23.15 0 0 0-2.925 1.579c-2.48 1.489-5.418 3.258-10.657 1.705-6.563-1.884-8.267-1.222-10.874.598Zm-.399 14.687c-.204 2.33-.445 4.557-.687 6.631a30.341 30.341 0 0 0 3.319-2.138c1.654-1.196 2.391-1.718 7.084-.331 7.453 2.215 11.446-.191 14.816-2.24a19.442 19.442 0 0 1 2.238-1.272c1.73-.726 4.617.572 6.13 1.387a163.833 163.833 0 0 0-.737-5.931 10.851 10.851 0 0 0-7.389-.267 23.016 23.016 0 0 0-2.925 1.578c-2.48 1.502-5.418 3.258-10.658 1.705-6.816-1.985-8.355-1.145-11.191.878Z" fill="#fff"/><path fill-rule="evenodd" clip-rule="evenodd" d="M143.367 193.279a.877.877 0 0 1-.623-1.057.887.887 0 0 1 1.068-.623 59.955 59.955 0 0 0 8.534 1.654c2.805.335 5.633.454 8.457.357a.869.869 0 0 1 .666 1.455.894.894 0 0 1-.274.198.886.886 0 0 1-.329.078 57.535 57.535 0 0 1-8.724-.369 60.174 60.174 0 0 1-8.775-1.693Z" fill="#0F0E0E"/></svg>