<svg width="54" height="18" fill="none" xmlns="http://www.w3.org/2000/svg"><g clip-path="url(#a)"><mask id="b" style="mask-type:luminance" maskUnits="userSpaceOnUse" x="0" y="0" width="54" height="18"><path d="M0 0h54v18H0V0Z" fill="#fff"/></mask><g mask="url(#b)" fill="#14203C"><path fill-rule="evenodd" clip-rule="evenodd" d="M53.485 16.751h.104l-.057-.277-.076-.366c-.194-.932-.39-1.863-.585-2.795l-.584-2.796c-.168-.798-.334-1.599-.5-2.399l-.502-2.399-1.11-5.33c-.018-.075-.04-.104-.122-.104H46.54c-.099 0-.203.006-.3.023-.748.122-1.257.538-1.547 1.233l-3.162 7.552-3.163 7.553c-.012.036-.025.07-.04.105h4.361c.07 0 .1-.024.123-.087.277-.764.555-1.528.827-2.292.017-.058.046-.08.11-.08h5.301c.07 0 .1.022.11.086l.21.998c.09.423.178.847.265 1.27.017.087.052.105.133.105h3.717Zm-6.327-11.99c.428 2.047.857 4.096 1.285 6.163-1.187 0-2.36 0-3.548.005.747-2.066 1.487-4.115 2.234-6.17h.03v.001Z"/><path d="M.867.76C.902.598.931.448.965.292H8.15c1.024 0 1.811.636 2.014 1.637.197 1.007.382 2.015.573 3.022.202 1.088.41 2.176.613 3.264.197 1.059.4 2.117.596 3.17l.024.117c1.464-3.698 2.925-7.397 4.385-11.096.035-.086.076-.115.168-.115 1.407.005 2.813 0 4.22.005h.121c-.017.04-.023.07-.035.099-2.274 5.428-4.549 10.85-6.823 16.28-.023.064-.052.093-.122.087H9.555c-.029 0-.052 0-.087-.007-.098-.387-.202-.77-.3-1.156L6.475 5.182l-.503-1.916c-.134-.492-.429-.84-.874-1.076a11.328 11.328 0 0 0-2.1-.845C2.313 1.142 1.62.975.938.789a.139.139 0 0 0-.07-.03Zm37.694 3.438a9.142 9.142 0 0 0-1.412-.503 8.021 8.021 0 0 0-2.315-.267c-.52.018-1.03.099-1.499.348-.307.162-.56.376-.694.706-.162.393-.08.74.185 1.059.243.29.556.503.88.683.596.335 1.198.648 1.8.978.671.37 1.313.787 1.852 1.343.578.59.966 1.279 1.105 2.1.07.423.075.846.03 1.274a5.028 5.028 0 0 1-.603 1.967c-.515.92-1.262 1.59-2.176 2.096-.776.428-1.609.688-2.483.85-.793.145-1.59.203-2.396.18-1.285-.04-2.546-.215-3.773-.608-.232-.076-.452-.163-.69-.25.261-1.204.516-2.402.77-3.604.04.014.079.031.116.05.608.29 1.221.55 1.875.718.536.14 1.085.226 1.638.255.43.024.851.035 1.274-.023.561-.075 1.094-.22 1.54-.59.433-.354.595-.903.422-1.395a1.402 1.402 0 0 0-.388-.561 4.494 4.494 0 0 0-1.013-.694c-.498-.267-1.007-.515-1.505-.787-.723-.394-1.395-.868-1.95-1.488-.492-.55-.84-1.175-.967-1.904-.115-.654-.058-1.302.11-1.94.307-1.127.973-2.013 1.9-2.701.85-.631 1.81-1.02 2.84-1.25.92-.2 1.862-.277 2.801-.227a11.56 11.56 0 0 1 3.37.683c.074.029.086.052.074.133-.237 1.1-.474 2.2-.706 3.299.006.01 0 .034-.012.07ZM19.196 16.745l.174-.828c.335-1.563.665-3.12 1.001-4.681.341-1.586.677-3.177 1.02-4.763l1.023-4.77c.093-.44.185-.88.284-1.32.011-.051.017-.097.098-.097 1.366.006 2.732 0 4.098 0h.07a8.584 8.584 0 0 1-.094.445c-.55 2.576-1.1 5.157-1.655 7.733a3555.89 3555.89 0 0 0-1.626 7.603c-.046.21-.087.413-.133.62-.012.046-.03.064-.075.064h-4.144c-.012.005-.026 0-.04-.006Z"/></g></g><defs><clipPath id="a"><path fill="#fff" d="M0 0h54v18H0z"/></clipPath></defs></svg>